<?xml version="1.0" standalone="no"?>
<!DOCTYPE svg PUBLIC "-//W3C//DTD SVG 1.1//EN" "http://www.w3.org/Graphics/SVG/1.1/DTD/svg11.dtd" >
<svg xmlns="http://www.w3.org/2000/svg" xmlns:xlink="http://www.w3.org/1999/xlink" version="1.1">
<metadata>
Created by FontForge 20170731 at Thu Dec 17 21:30:52 2015
 By Aleksey,,,
Copyright (c)2014 Commercial Type.
</metadata>
<defs>
<font id="MarrSansWeb-RegularItalic" horiz-adv-x="412" >
  <font-face 
    font-family="Marr Sans Web Regular"
    font-weight="400"
    font-style="italic"
    font-stretch="normal"
    units-per-em="1000"
    panose-1="0 0 0 0 0 0 0 0 0 0"
    ascent="773"
    descent="-227"
    x-height="518"
    cap-height="716"
    bbox="-196 -273 1075 1053"
    underline-thickness="69"
    underline-position="-125"
    slope="-10"
    unicode-range="U+0020-FB02"
  />
<missing-glyph horiz-adv-x="484" 
d="M40 146l406 636h42l-464 -727zM75 347l278 435h42l-336 -527zM152 782h58l-80 -127zM111 547l150 235h42l-209 -327zM503 727l-16 -91l-406 -636h-42zM468 527l-16 -91l-278 -436h-43zM433 328l-16 -92l-151 -236h-42zM398 128l-23 -128h-59z" />
    <glyph glyph-name="f_f" unicode="ff" horiz-adv-x="567" 
d="M386 459h-206l-82 -459h-77l82 459h-98l11 59h97l18 97q8 47 24.5 78t39.5 49t52 25.5t62 7.5q23 0 50 -3l-12 -62q-26 3 -42 3q-44 0 -66 -23t-33 -89l-16 -83h206l20 107q8 47 24.5 78t39.5 49t52 25.5t62 7.5q23 0 50 -3l-12 -62q-26 3 -42 3q-44 0 -66 -23t-33 -89
l-18 -93h112l-11 -59h-111l-82 -459h-77z" />
    <glyph glyph-name="f_i" unicode="fi" horiz-adv-x="543" 
d="M436 610l16 88h77l-16 -88h-77zM420 518h77l-92 -518h-77zM150 459h-98l11 59h97l20 107q8 47 24.5 78t39.5 49t52 25.5t62 7.5q9 0 17.5 -0.5t19.5 -1.5l-11 -62q-9 1 -17 1.5t-15 0.5q-22 0 -38 -5t-27 -18t-18.5 -34.5t-13.5 -54.5l-18 -93h112l-11 -59h-111l-82 -459
h-77z" />
    <glyph glyph-name="f_l" unicode="fl" horiz-adv-x="543" 
d="M467 782h77l-139 -782h-77zM150 459h-98l11 59h97l20 107q8 47 24.5 78t39.5 49t52 25.5t62 7.5q9 0 17.5 -0.5t19.5 -1.5l-11 -62q-9 1 -17 1.5t-15 0.5q-22 0 -38 -5t-27 -18t-18.5 -34.5t-13.5 -54.5l-18 -93h112l-11 -59h-111l-82 -459h-77z" />
    <glyph glyph-name=".notdef" horiz-adv-x="484" 
d="M40 146l406 636h42l-464 -727zM75 347l278 435h42l-336 -527zM152 782h58l-80 -127zM111 547l150 235h42l-209 -327zM503 727l-16 -91l-406 -636h-42zM468 527l-16 -91l-278 -436h-43zM433 328l-16 -92l-151 -236h-42zM398 128l-23 -128h-59z" />
    <glyph glyph-name=".null" horiz-adv-x="0" 
 />
    <glyph glyph-name="nonmarkingreturn" horiz-adv-x="333" 
 />
    <glyph glyph-name="space" unicode=" " horiz-adv-x="230" 
 />
    <glyph glyph-name="exclam" unicode="!" horiz-adv-x="250" 
d="M131 509l35 207h80l-37 -207l-73 -294h-40zM60 131h77l-24 -131h-77z" />
    <glyph glyph-name="quotedbl" unicode="&#x22;" horiz-adv-x="334" 
d="M249 473l18 176l13 67h75l-13 -67l-45 -176h-48zM107 473l18 176l13 67h75l-13 -67l-45 -176h-48z" />
    <glyph glyph-name="numbersign" unicode="#" horiz-adv-x="565" 
d="M269 458l-60 -164h127l60 164h-127zM125 231h-90l12 63h101l60 164h-101l12 63h112l71 195h61l-71 -195h127l71 195h60l-71 -195h90l-12 -63h-101l-60 -164h117l-12 -63h-128l-85 -231h-60l85 231h-127l-85 -231h-61z" />
    <glyph glyph-name="dollar" unicode="$" horiz-adv-x="615" 
d="M306 -16h-10t-10 1l-18 -104h-58l20 112q-43 11 -77.5 33t-58.5 51.5t-37 65.5t-12 74l79 23q-2 -30 4.5 -58t21.5 -52t38.5 -42t53.5 -28l50 282q-39 19 -71 37t-55.5 39.5t-36.5 49t-13 64.5q0 40 14.5 76.5t43.5 64t72 43.5t101 16h17l18 103h58l-20 -112
q78 -20 116.5 -76t36.5 -130l-73 -15q2 56 -21 97t-71 58l-47 -266q41 -21 74.5 -41.5t57 -44t36 -52t12.5 -65.5q0 -41 -14 -78t-43 -65t-73 -44.5t-105 -16.5zM309 50q42 0 71.5 11.5t48 29.5t26.5 40.5t8 45.5q0 44 -28 74.5t-90 63.5l-47 -265h11zM191 544
q0 -43 28.5 -69.5t88.5 -56.5l44 249h-8q-41 0 -69.5 -11t-47.5 -28.5t-27.5 -39.5t-8.5 -44z" />
    <glyph glyph-name="percent" unicode="%" horiz-adv-x="777" 
d="M88 1l571 731h75l-571 -731h-75zM238 732q60 0 96 -41t36 -117q0 -46 -11 -86.5t-32 -71t-50.5 -48t-66.5 -17.5q-27 0 -51.5 9t-43 28.5t-29.5 49.5t-11 71q0 40 10.5 80t30.5 72t50.5 51.5t71.5 19.5zM238 677q-29 0 -48.5 -20.5t-30.5 -52.5q-8 -22 -11.5 -46.5
t-3.5 -48.5q0 -29 5 -49t14 -32t21 -17t26 -5q31 0 49.5 22t28.5 53q7 23 10 47.5t3 45.5q0 55 -17 79t-46 24zM601 365q60 0 96 -41t36 -117q0 -46 -11 -86.5t-32 -71t-50.5 -48t-66.5 -17.5q-27 0 -51.5 9t-43 28.5t-29.5 49.5t-11 71q0 40 10.5 80t30.5 72t50.5 51.5
t71.5 19.5zM601 310q-29 0 -48.5 -20.5t-30.5 -52.5q-8 -22 -11.5 -46.5t-3.5 -48.5q0 -29 5 -49t14 -32t21 -17t26 -5q31 0 49.5 22t28.5 53q7 23 10 47.5t3 45.5q0 55 -17 79t-46 24z" />
    <glyph glyph-name="ampersand" unicode="&#x26;" horiz-adv-x="694" 
d="M565 -10q-38 0 -66 15t-57 55q-42 -33 -91 -51.5t-103 -18.5q-45 0 -81 14t-61 39t-38.5 59t-13.5 73q0 50 18 89t47 69t65.5 53t74.5 40q-14 35 -22.5 68.5t-8.5 68.5q0 76 40.5 122.5t111.5 46.5q28 0 52.5 -8.5t42.5 -24.5t28.5 -40.5t10.5 -55.5q0 -32 -12.5 -60.5
t-35 -54t-52.5 -47.5t-64 -40q11 -24 24 -51.5t28 -60.5q17 -38 31.5 -68t27.5 -54q38 51 60.5 118.5t24.5 148.5l62 -18q-4 -91 -34 -169.5t-81 -137.5q25 -39 44 -49.5t44 -10.5q11 0 25.5 2.5t31.5 10.5l-9 -60q-14 -5 -30 -8.5t-34 -3.5zM302 564q0 -27 6.5 -53.5
t18.5 -58.5q61 29 88.5 71t27.5 80q0 36 -20 51t-43 15q-32 0 -55 -25t-23 -80zM262 52q38 0 75.5 15.5t71.5 44.5q-14 26 -30.5 60t-36.5 76q-16 35 -31.5 67t-29.5 61q-69 -36 -107.5 -83t-38.5 -114q0 -65 36.5 -96t90.5 -31z" />
    <glyph glyph-name="quotesingle" unicode="'" horiz-adv-x="192" 
d="M107 473l18 176l13 67h75l-13 -67l-45 -176h-48z" />
    <glyph glyph-name="parenleft" unicode="(" horiz-adv-x="356" 
d="M225 -135q-32 32 -60 74t-49 93t-33 110.5t-12 128.5q0 92 25 173.5t66.5 149t96.5 119.5t115 87l32 -44q-121 -84 -187 -208.5t-66 -276.5q0 -49 7 -99t21 -98t35 -92t50 -80z" />
    <glyph glyph-name="parenright" unicode=")" horiz-adv-x="357" 
d="M143 800q32 -32 60 -74t49 -93t33 -110.5t12 -128.5q0 -92 -25 -173.5t-66.5 -149t-96.5 -119.5t-115 -87l-32 44q121 84 187 208.5t66 276.5q0 49 -7 99t-21 98t-35 92t-50 80z" />
    <glyph glyph-name="asterisk" unicode="*" horiz-adv-x="447" 
d="M119 452l116 129l-133 49l26 57l133 -57l17 156h71l-32 -160l134 56l16 -62l-144 -45l80 -133l-60 -37l-66 146l-105 -140z" />
    <glyph glyph-name="plus" unicode="+" horiz-adv-x="538" 
d="M235 288h-177l12 68h177l33 183h76l-33 -183h177l-12 -68h-177l-33 -183h-76z" />
    <glyph glyph-name="comma" unicode="," horiz-adv-x="278" 
d="M14 -90l84 96l3 21h-43l21 115h78l-32 -175l-124 -141z" />
    <glyph glyph-name="hyphen" unicode="-" horiz-adv-x="300" 
d="M63 305h188l-12 -69h-188z" />
    <glyph glyph-name="period" unicode="." horiz-adv-x="278" 
d="M79 142h77l-26 -142h-77z" />
    <glyph glyph-name="slash" unicode="/" horiz-adv-x="368" 
d="M358 786h69l-409 -907h-69z" />
    <glyph glyph-name="zero" unicode="0" horiz-adv-x="666" 
d="M389 732q65 0 110 -24t72.5 -64.5t40 -92.5t12.5 -107q0 -50 -8.5 -103.5t-25.5 -105t-42.5 -97t-60.5 -80t-79.5 -54.5t-98.5 -20q-66 0 -110.5 24t-72.5 64.5t-40 92t-12 107.5q0 50 8 103.5t25 105t42.5 97t60.5 80t79.5 54.5t99.5 20zM387 669q-37 0 -67.5 -16
t-55.5 -44t-43.5 -65.5t-31.5 -79.5q-15 -51 -22.5 -105.5t-7.5 -105.5q0 -100 37.5 -152.5t113.5 -52.5q34 0 62.5 13.5t52 37t42 55.5t32.5 69q20 56 30 117.5t10 120.5q0 101 -37.5 154.5t-114.5 53.5z" />
    <glyph glyph-name="one" unicode="1" horiz-adv-x="406" 
d="M145 0l107 599h-136l9 50l48 4q42 4 69.5 20t50.5 54h62l-129 -727h-81z" />
    <glyph glyph-name="two" unicode="2" horiz-adv-x="627" 
d="M49 65q110 62 196 118.5t144.5 111.5t89 110.5t30.5 116.5q0 69 -37.5 108t-104.5 39q-48 0 -86.5 -18.5t-63 -54.5t-32.5 -90t6 -125l-73 11q-15 79 -3 142.5t46 107t87 67t119 23.5q54 0 96.5 -16.5t71 -45t43.5 -66.5t15 -82q0 -51 -19.5 -98t-52 -89.5t-75.5 -81
t-90 -71.5t-95.5 -60.5t-91.5 -49.5l-1 -5h370l-13 -67h-488z" />
    <glyph glyph-name="three" unicode="3" horiz-adv-x="614" 
d="M140 246q-11 -41 -6 -77.5t24 -63.5t51.5 -42.5t77.5 -15.5q42 0 74.5 14t55 37.5t34 54.5t11.5 66q0 27 -8 50.5t-26 41t-48 27.5t-74 10h-93l13 66h127q37 0 63.5 12.5t43 32.5t24 45.5t7.5 51.5q0 28 -10.5 49.5t-28.5 35.5t-42 21t-52 7q-27 0 -55 -7.5t-51.5 -25
t-38.5 -47t-17 -74.5l-69 18q3 54 24.5 92t54.5 62t74 34.5t82 10.5q45 0 84 -12t67.5 -34.5t45 -53.5t16.5 -70q0 -38 -14 -70t-37 -55.5t-53.5 -38.5t-64.5 -18v-6q30 -6 55.5 -19.5t44.5 -35t30 -50t11 -62.5q0 -47 -18 -87.5t-52 -70.5t-81.5 -47.5t-107.5 -17.5
q-55 0 -102 16.5t-78.5 48t-44.5 77.5t-1 105z" />
    <glyph glyph-name="four" unicode="4" horiz-adv-x="595" 
d="M357 171h-341l11 58l427 494h82l-86 -485h111l-13 -67h-110l-29 -171h-83zM369 238l65 364h-5l-310 -358l-1 -6h251z" />
    <glyph glyph-name="five" unicode="5" horiz-adv-x="626" 
d="M286 -16q-49 0 -92 14.5t-73 44t-44.5 75t-6.5 107.5l79 16q-8 -41 -2.5 -76.5t22.5 -61.5t46.5 -41t71.5 -15q48 0 84 20.5t60 54t36 77.5t12 92q0 40 -10.5 68.5t-28.5 46.5t-41.5 26t-49.5 8q-59 0 -103.5 -32.5t-67.5 -80.5l-72 28l105 361h379l-13 -67h-320
l-66 -229h2q60 81 168 81q42 0 78.5 -13t64.5 -39t44 -66.5t16 -94.5q0 -68 -21 -124t-58.5 -96t-88 -62t-110.5 -22z" />
    <glyph glyph-name="six" unicode="6" horiz-adv-x="611" 
d="M69 251q0 36 5 80t17 90t30.5 91.5t45.5 84.5q39 60 98 97.5t139 37.5q42 0 78.5 -12t63 -36t39 -59t6.5 -81l-75 -20q7 43 -2.5 71.5t-28 44.5t-42.5 22.5t-46 6.5q-60 0 -101.5 -30.5t-69.5 -77.5q-23 -38 -37.5 -82.5t-22.5 -86.5l3 -1q32 43 81.5 67.5t109.5 24.5
q42 0 79 -14t64.5 -41t43.5 -66.5t16 -90.5q0 -55 -18 -107t-52.5 -92t-85 -64t-115.5 -24q-102 0 -162.5 68t-60.5 199zM339 422q-39 0 -73 -15.5t-58.5 -44t-39 -67.5t-14.5 -86q0 -76 37.5 -119t103.5 -43q42 0 75.5 18t57.5 48.5t37 70t13 83.5q0 75 -37.5 115
t-101.5 40z" />
    <glyph glyph-name="seven" unicode="7" horiz-adv-x="535" 
d="M468 645l1 4h-365l13 67h448l-13 -72l-377 -644h-90z" />
    <glyph glyph-name="eight" unicode="8" horiz-adv-x="630" 
d="M45 175q0 39 13 71t37 56.5t57 42t73 26.5v4q-42 21 -72 61.5t-30 94.5q0 38 15.5 74.5t46 64.5t75 45t103.5 17q51 0 91.5 -13.5t69.5 -38t44.5 -58t15.5 -72.5q0 -38 -13.5 -69.5t-35 -55t-49.5 -39.5t-57 -23v-4q56 -23 91.5 -63.5t35.5 -102.5q0 -38 -16 -75.5
t-48.5 -67t-82 -48t-115.5 -18.5q-68 0 -115.5 17t-77 44.5t-43 61.5t-13.5 68zM360 669q-73 0 -113 -39t-40 -102q0 -60 39 -96t102 -36q39 0 68 12.5t47.5 33.5t27.5 47.5t9 54.5q0 59 -37.5 92t-102.5 33zM312 335q-44 0 -78 -12.5t-57 -33.5t-35 -48.5t-12 -57.5
q0 -28 10 -53t30.5 -43.5t51 -29t72.5 -10.5q44 0 77 11.5t55.5 32t33.5 47.5t11 59q0 29 -9.5 54.5t-29.5 44t-50 29t-70 10.5z" />
    <glyph glyph-name="nine" unicode="9" horiz-adv-x="620" 
d="M506 507q0 76 -38.5 119t-104.5 43q-42 0 -75.5 -17.5t-57 -47t-36 -69t-12.5 -82.5q0 -75 37.5 -117t101.5 -42q39 0 73 15.5t58.5 44t39 67.5t14.5 86zM363 732q107 0 167.5 -71.5t60.5 -204.5q0 -33 -4.5 -72t-14 -80t-25 -82.5t-36.5 -79.5q-19 -34 -43 -63t-54 -50
t-66 -33t-78 -12t-80.5 12t-67 35.5t-43.5 57.5t-10 79l75 21q-6 -42 4.5 -69.5t31 -43.5t46 -22.5t48.5 -6.5q61 0 103.5 35.5t68.5 88.5q18 36 29.5 75.5t18.5 77.5l-3 1q-32 -43 -79.5 -67.5t-107.5 -24.5q-42 0 -80 14t-66.5 41.5t-45 68t-16.5 94.5q0 55 17.5 106
t51.5 90t84 62t114 23z" />
    <glyph glyph-name="colon" unicode=":" horiz-adv-x="276" 
d="M143 512h77l-26 -142h-77zM78 142h77l-26 -142h-77z" />
    <glyph glyph-name="semicolon" unicode=";" horiz-adv-x="278" 
d="M14 -90l84 96l3 21h-43l21 115h78l-32 -175l-124 -141zM142 510h77l-26 -142h-77z" />
    <glyph glyph-name="less" unicode="&#x3c;" horiz-adv-x="499" 
d="M66 297l16 90l407 172l-15 -85l-322 -131l-1 -10l275 -132l-14 -76z" />
    <glyph glyph-name="equal" unicode="=" horiz-adv-x="549" 
d="M96 449h420l-12 -71h-420zM64 266h420l-13 -71h-420z" />
    <glyph glyph-name="greater" unicode="&#x3e;" horiz-adv-x="499" 
d="M447 387l-16 -90l-407 -172l15 85l322 131l1 10l-275 132l14 76z" />
    <glyph glyph-name="question" unicode="?" horiz-adv-x="461" 
d="M155 203l20 178h40q82 0 131 45.5t49 127.5q0 54 -31 86t-91 32q-27 0 -52 -9.5t-44.5 -29.5t-31.5 -52t-11 -78l-70 16q0 57 17.5 97t47 66t67 38t78.5 12q49 0 87 -14.5t63.5 -39.5t38.5 -57.5t13 -69.5q0 -48 -17 -88.5t-48 -70t-73 -47.5t-91 -22l-39 -120h-53z
M130 131h77l-24 -131h-77z" />
    <glyph glyph-name="at" unicode="@" horiz-adv-x="827" 
d="M59 219q0 78 27 150t77.5 127.5t123.5 88.5t166 33q72 0 130.5 -22t100.5 -61t65 -92t23 -116t-20 -111t-51 -80.5t-68 -49t-71 -16.5q-35 0 -60 19.5t-25 64.5h-3q-8 -16 -19.5 -31t-27.5 -27t-35 -19t-40 -7q-50 0 -81.5 37t-31.5 96q0 39 13.5 82.5t39 80t62 60
t83.5 23.5q48 0 71 -27t24 -66h3l41 84h38l-72 -250q-12 -40 -3 -56t34 -16q23 0 48.5 15t46.5 43t34.5 67t13.5 86q0 53 -18 97t-52 76t-83 49.5t-110 17.5q-80 0 -141.5 -29.5t-104.5 -78t-65 -112t-22 -131.5q0 -62 20.5 -113.5t58.5 -88.5t91 -57.5t118 -20.5
q57 0 104 13t91 37l17 -45q-46 -26 -99.5 -40t-119.5 -14q-82 0 -145.5 26t-107 71t-66.5 105t-23 128zM315 201q0 -41 14.5 -62.5t43.5 -21.5t53 22t41.5 55t27 70t9.5 67q0 73 -57 73q-30 0 -54.5 -19.5t-41.5 -49t-26.5 -65.5t-9.5 -69z" />
    <glyph glyph-name="A" unicode="A" horiz-adv-x="622" 
d="M184 234h242l-55 346h-8zM437 167h-288l-86 -167h-82l382 720h65l119 -720h-84z" />
    <glyph glyph-name="B" unicode="B" horiz-adv-x="683" 
d="M250 649l-45 -252h172q41 0 70.5 12.5t48 32.5t27.5 46.5t9 55.5q0 22 -7 41t-23 33.5t-43 22.5t-66 8h-143zM193 329l-47 -260h226q74 0 111.5 40.5t37.5 101.5q0 60 -35.5 89t-104.5 29h-188zM180 716h214q116 0 170 -47t54 -125q0 -62 -38 -110.5t-113 -66.5v-3
q60 -11 100.5 -51t40.5 -102q0 -35 -13 -72.5t-42 -68.5t-75.5 -50.5t-113.5 -19.5h-311z" />
    <glyph glyph-name="C" unicode="C" horiz-adv-x="691" 
d="M344 -16q-71 0 -122 23t-83.5 63.5t-47.5 95.5t-15 120q0 79 21 160t64 144q43 65 105 103.5t154 38.5q70 0 117 -22.5t75 -61t37.5 -89t3.5 -106.5l-85 -12q14 109 -23 166t-127 57q-40 0 -72 -11.5t-57.5 -32.5t-45 -50t-35.5 -64q-22 -49 -32.5 -107t-10.5 -115
q0 -118 47.5 -175t132.5 -57q83 0 131.5 50.5t75.5 148.5l74 -29q-13 -52 -37.5 -96t-59.5 -75.5t-81.5 -49t-103.5 -17.5z" />
    <glyph glyph-name="D" unicode="D" horiz-adv-x="716" 
d="M250 649l-103 -582h133q61 0 107.5 16.5t80.5 44.5t56 64t35 75t18.5 78t5.5 73q0 122 -62.5 176.5t-183.5 54.5h-87zM180 716h185q149 0 227.5 -80t78.5 -222q0 -45 -8 -93t-27 -94t-49.5 -87.5t-75 -72.5t-104.5 -49t-137 -18h-217z" />
    <glyph glyph-name="E" unicode="E" horiz-adv-x="615" 
d="M180 716h437l-13 -67h-354l-45 -255h280l-12 -67h-280l-46 -260h391l-13 -67h-472z" />
    <glyph glyph-name="F" unicode="F" horiz-adv-x="593" 
d="M193 327l-58 -327h-82l127 716h459l-13 -67h-376l-45 -255h264l-12 -67h-264z" />
    <glyph glyph-name="G" unicode="G" horiz-adv-x="738" 
d="M559 124q-10 -28 -28.5 -53.5t-45.5 -44.5t-62 -30.5t-78 -11.5q-70 0 -120.5 22.5t-83.5 63t-48.5 96t-15.5 120.5q0 83 23.5 164.5t71.5 147.5q45 60 108 97t146 37q66 0 113.5 -18.5t79 -51t47.5 -77t19 -96.5l-84 -14q-2 94 -45.5 141.5t-130.5 47.5
q-64 0 -113 -34.5t-82 -91.5q-32 -54 -48 -120t-16 -134q0 -118 49 -175t132 -57q91 0 148 57.5t81 168.5l5 23h-171l13 67h253l-66 -368h-52l4 124h-3v0z" />
    <glyph glyph-name="H" unicode="H" horiz-adv-x="719" 
d="M549 335h-355l-59 -335h-82l127 716h82l-56 -314h355l56 314h82l-127 -716h-82z" />
    <glyph glyph-name="I" unicode="I" horiz-adv-x="283" 
d="M180 716h82l-127 -716h-82z" />
    <glyph glyph-name="J" unicode="J" horiz-adv-x="376" 
d="M276 716h82l-99 -557q-10 -55 -31.5 -88t-54.5 -50.5t-76.5 -21t-97.5 0.5l14 71q39 -1 68 0.5t49 12t33 33.5t20 65z" />
    <glyph glyph-name="K" unicode="K" horiz-adv-x="622" 
d="M287 365l-105 -99l-47 -266h-82l127 716h82l-61 -344l363 344h96l-313 -296l205 -420h-89z" />
    <glyph glyph-name="L" unicode="L" horiz-adv-x="572" 
d="M180 716h82l-115 -649h364l-13 -67h-445z" />
    <glyph glyph-name="M" unicode="M" horiz-adv-x="823" 
d="M180 716h114l95 -553h2l293 553h118l-127 -716h-78l106 597h-6l-319 -601h-32l-104 601h-6l-106 -597h-77z" />
    <glyph glyph-name="N" unicode="N" horiz-adv-x="723" 
d="M180 716h85l251 -566h5l101 566h80l-127 -716h-79l-256 575h-5l-102 -575h-80z" />
    <glyph glyph-name="O" unicode="O" horiz-adv-x="736" 
d="M76 295q0 74 22 151.5t65 141t107.5 104t149.5 40.5q73 0 125 -24.5t85 -66.5t48 -96.5t15 -114.5q0 -77 -21.5 -156t-64.5 -144t-107.5 -106t-150.5 -41q-63 0 -113.5 20.5t-86 60.5t-54.5 98t-19 133zM349 50q65 0 111 31t77 81q36 59 52.5 133t16.5 144
q0 105 -46.5 165.5t-139.5 60.5q-61 0 -106.5 -30t-76.5 -79q-37 -57 -54.5 -128.5t-17.5 -141.5q0 -51 11 -94.5t33.5 -75t57 -49t82.5 -17.5z" />
    <glyph glyph-name="P" unicode="P" horiz-adv-x="650" 
d="M250 649l-48 -270h190q46 0 77 12.5t49.5 34t26.5 50.5t8 61q0 25 -7 45.5t-24 35.5t-45 23t-70 8h-157zM190 312l-55 -312h-82l127 716h237q62 0 104.5 -14t69 -38.5t38 -57t11.5 -69.5q0 -46 -14.5 -87t-44.5 -71.5t-76.5 -48.5t-110.5 -18h-204z" />
    <glyph glyph-name="Q" unicode="Q" horiz-adv-x="742" 
d="M576 -133q-27 0 -48.5 10t-38 27.5t-29 40.5t-21.5 50q-41 -12 -87 -12q-64 0 -115 20.5t-87 60.5t-55 98t-19 133q0 74 22 151.5t65.5 141t108.5 104t151 40.5q73 0 125.5 -24.5t86 -66.5t49 -96.5t15.5 -114.5q0 -57 -12 -116t-35.5 -113t-59 -99t-83.5 -75
q6 -20 13 -38.5t16 -32.5t21.5 -22.5t28.5 -8.5q28 0 43.5 27.5t17.5 87.5l52 -11q0 -73 -32.5 -117.5t-92.5 -44.5zM327 261q64 0 104.5 -44t61.5 -123q8 8 15.5 16t15.5 17q24 30 41 67.5t27.5 78.5t15.5 83.5t5 82.5q0 105 -48 165.5t-142 60.5q-62 0 -108 -30.5
t-78 -79.5q-37 -57 -55 -128.5t-18 -140.5q0 -55 7 -98.5t26 -75.5q-1 5 -1 10v10q0 23 8 46t24 41.5t40.5 30t58.5 11.5zM352 43q38 0 71 11q-15 70 -40.5 109t-69.5 39q-33 0 -55 -22.5t-22 -55.5q0 -17 8 -35t30 -30q14 -8 33 -12t45 -4z" />
    <glyph glyph-name="R" unicode="R" horiz-adv-x="675" 
d="M250 649l-47 -266h188q43 0 72.5 12t47.5 33t25.5 49.5t7.5 60.5q0 25 -7 45.5t-24.5 35t-45.5 22.5t-70 8h-147zM191 316l-56 -316h-82l127 716h227q58 0 100.5 -14t70 -38t40.5 -56.5t13 -69.5q0 -85 -50 -140t-139 -66v-4q17 -6 30.5 -17t23.5 -28t17.5 -43t13.5 -62
q7 -41 13 -68t12.5 -43.5t15 -26t19.5 -15.5l-3 -25h-92q-18 23 -26.5 62.5t-17.5 93.5q-7 43 -14.5 73t-21 49.5t-36.5 28.5t-62 9h-123z" />
    <glyph glyph-name="S" unicode="S" horiz-adv-x="624" 
d="M306 -16q-60 0 -107.5 19t-80.5 51.5t-50.5 74.5t-16.5 88l79 23q-3 -38 7.5 -72t33 -59.5t57.5 -41t81 -15.5q42 0 71 11.5t48 29.5t27.5 41t8.5 46q0 25 -9 45t-27.5 38t-47 35t-68.5 37q-41 21 -76 39.5t-60 41t-39 50.5t-14 67t14 75t42.5 63.5t71.5 44t102 16.5
q58 0 101.5 -16.5t72.5 -45.5t43 -68t13 -85l-75 -15q1 36 -8 65.5t-28 51.5t-49 34t-70 12q-39 0 -67 -10t-46.5 -26.5t-27 -38t-8.5 -43.5q0 -23 8.5 -40.5t26 -33.5t45 -31t65.5 -34q45 -22 81.5 -43.5t62.5 -46t40.5 -54.5t14.5 -69q0 -41 -15.5 -79t-45.5 -67.5
t-75.5 -47t-105.5 -17.5z" />
    <glyph glyph-name="T" unicode="T" horiz-adv-x="572" 
d="M394 649l-115 -649h-82l115 649h-229l13 67h539l-13 -67h-228z" />
    <glyph glyph-name="U" unicode="U" horiz-adv-x="704" 
d="M177 716h82l-74 -416q-11 -60 -8.5 -106t20 -77t51 -46.5t85.5 -15.5q78 0 125 47t65 150l83 464h80l-85 -478q-23 -128 -92.5 -191t-178.5 -63q-62 0 -111 19t-79.5 58t-41 98.5t4.5 140.5z" />
    <glyph glyph-name="V" unicode="V" horiz-adv-x="618" 
d="M107 716h81l93 -580h12l295 580h81l-374 -720h-68z" />
    <glyph glyph-name="W" unicode="W" horiz-adv-x="891" 
d="M498 568h-1l-255 -572h-74l-68 720h81l47 -589h2l258 589h74l52 -589h2l254 589h79l-321 -720h-73z" />
    <glyph glyph-name="X" unicode="X" horiz-adv-x="588" 
d="M298 309l-246 -309h-91l303 368l-168 348h87l140 -291l222 291h90l-277 -351l176 -365h-87z" />
    <glyph glyph-name="Y" unicode="Y" horiz-adv-x="555" 
d="M189 0l56 316l-148 400h82l120 -330h5l228 330h84l-291 -411l-54 -305h-82z" />
    <glyph glyph-name="Z" unicode="Z" horiz-adv-x="606" 
d="M-1 0l14 72l511 576h-394l13 68h487l-13 -72l-509 -576h417l-13 -68h-513z" />
    <glyph glyph-name="bracketleft" unicode="[" horiz-adv-x="319" 
d="M174 786h196l-10 -54h-124l-142 -799h125l-10 -54h-196z" />
    <glyph glyph-name="backslash" unicode="\" horiz-adv-x="370" 
d="M122 786h64l99 -907h-64z" />
    <glyph glyph-name="bracketright" unicode="]" horiz-adv-x="319" 
d="M157.011 -120.952h-195.988l9.99902 53.9971h123.993l141.991 798.951h-124.992l9.99902 53.9961h195.988z" />
    <glyph glyph-name="asciicircum" unicode="^" horiz-adv-x="501" 
d="M279 716h97l88 -287h-72l-63 222h-20l-138 -222h-76z" />
    <glyph glyph-name="underscore" unicode="_" horiz-adv-x="470" 
d="M-41 -57h438l-12 -69h-438z" />
    <glyph glyph-name="grave" unicode="`" 
d="M209 726h86l45 -138h-56z" />
    <glyph glyph-name="a" unicode="a" horiz-adv-x="545" 
d="M334 82q-11 -18 -25.5 -34.5t-33.5 -29t-42.5 -20.5t-52.5 -8q-28 0 -53.5 8t-44.5 24t-30.5 39.5t-11.5 54.5q0 42 17.5 70.5t45.5 48.5t63 32t71 21l137 33l6 32q11 57 -8.5 88t-75.5 31q-26 0 -48.5 -7t-39 -22.5t-26 -39.5t-8.5 -58l-71 10q0 45 14.5 77.5t40 54
t61.5 31.5t78 10q94 0 134 -46t26 -124l-40 -222q-5 -27 -5.5 -44.5t6 -27.5t21 -13.5t40.5 -1.5l18 1l-8 -50q-14 -5 -31 -7.5t-35 -2.5q-27 0 -44 7.5t-26.5 20.5t-13 29.5t-3.5 34.5h-2zM366 272q-13 -3 -29.5 -7.5t-34 -9.5t-34.5 -9.5t-30 -8.5q-51 -14 -84 -41.5
t-33 -72.5q0 -21 7.5 -35.5t20 -23.5t28 -13t30.5 -4q23 0 46 9.5t42.5 26.5t33.5 42t20 56z" />
    <glyph glyph-name="b" unicode="b" horiz-adv-x="590" 
d="M194 407q23 54 63.5 87.5t106.5 33.5q80 0 127 -53t47 -149q0 -60 -17 -120t-49 -108t-78.5 -78t-104.5 -30q-65 0 -101 36t-47 90h-5l-33 -116h-60l139 782h75l-67 -375h4zM457 326q0 74 -32 109t-83 35q-45 0 -79 -26t-56 -66.5t-33 -89t-11 -92.5t11.5 -73t28.5 -45.5
t38 -23t40 -6.5q46 0 79 28t54.5 70t32 90.5t10.5 89.5z" />
    <glyph glyph-name="c" unicode="c" horiz-adv-x="526" 
d="M247 -10q-42 0 -77.5 13t-62 39t-41 66.5t-14.5 95.5q0 57 15 115t45.5 104.5t77.5 75.5t112 29q48 0 82 -14t56 -38.5t32.5 -59t10.5 -74.5l-69 -18q1 67 -23 107t-89 40q-42 0 -73.5 -22t-52.5 -59t-31.5 -85t-10.5 -100q0 -158 119 -158q32 0 55 10t39.5 28.5t28.5 44
t21 56.5l58 -24q-6 -30 -21 -61t-40.5 -55.5t-61.5 -40t-85 -15.5z" />
    <glyph glyph-name="d" unicode="d" horiz-adv-x="585" 
d="M310 470q-43 0 -76.5 -23t-56 -61t-34 -86t-11.5 -99q0 -79 31.5 -116t81.5 -37q45 0 78.5 27t56 68.5t33.5 90t11 91.5q0 75 -32 110t-82 35zM444 409l65 373h77l-139 -782h-59l11 116h-7q-30 -69 -76.5 -97.5t-94.5 -28.5q-39 0 -70.5 15t-53.5 42.5t-34 67t-12 88.5
q0 61 17 119.5t49 104.5t79 73.5t107 27.5q36 0 61.5 -11t42 -28t24 -38t9.5 -42h4z" />
    <glyph glyph-name="e" unicode="e" horiz-adv-x="536" 
d="M303 471q-33 0 -58.5 -13.5t-45 -36t-33.5 -53t-22 -64.5h261q16 78 -11.5 122.5t-90.5 44.5zM461 164q-8 -36 -25.5 -68t-44.5 -55.5t-63.5 -37t-82.5 -13.5q-50 0 -87 16t-61 44t-35.5 66.5t-11.5 83.5q0 49 14 106.5t45 106.5t80 81.5t119 32.5q54 0 91.5 -19.5
t59 -55.5t26.5 -87t-6 -114h-344q-3 -27 -3 -51q0 -74 30.5 -113.5t88.5 -39.5q60 0 98 38.5t50 98.5z" />
    <glyph glyph-name="f" unicode="f" horiz-adv-x="331" 
d="M150 459h-98l11 59h97l20 107q8 47 24.5 78t39.5 49t52 25.5t62 7.5q23 0 50 -3l-12 -62q-26 3 -42 3q-44 0 -66 -23t-33 -89l-18 -93h112l-11 -59h-111l-82 -459h-77z" />
    <glyph glyph-name="g" unicode="g" horiz-adv-x="584" 
d="M424 325q0 75 -32 110t-82 35q-43 0 -76.5 -23t-56 -61t-34 -86t-11.5 -99q0 -79 31.5 -116t81.5 -37q45 0 78.5 27t56 68.5t33.5 90t11 91.5zM80 -48q5 -64 33 -97.5t89 -33.5q44 0 74.5 15t51 41t32.5 62t20 77l18 100h-5q-27 -61 -68.5 -93.5t-98.5 -32.5
q-85 0 -130 57.5t-45 155.5q0 61 17 119.5t49 104.5t78.5 73.5t106.5 27.5q34 0 59.5 -9.5t42 -25.5t26 -37.5t12.5 -45.5h3l35 108h59l-94 -528q-20 -110 -78 -170t-160 -60q-88 0 -140.5 41t-59.5 116z" />
    <glyph glyph-name="h" unicode="h" horiz-adv-x="574" 
d="M351 468q-35 0 -65.5 -17.5t-55 -50t-43.5 -79t-29 -104.5l-39 -217h-76l137 782h77l-70 -390h4q11 28 30 52.5t44 43t54 29.5t61 11q71 0 104 -45.5t19 -121.5l-66 -361h-77l65 350q6 33 3 56t-13 36.5t-26.5 19.5t-37.5 6z" />
    <glyph glyph-name="i" unicode="i" horiz-adv-x="258" 
d="M151 610l16 88h77l-16 -88h-77zM135 518h77l-92 -518h-77z" />
    <glyph glyph-name="j" unicode="j" horiz-adv-x="257" 
d="M152 610l16 88h77l-16 -88h-77zM109 -67q-8 -47 -25 -78t-40 -49t-52 -25.5t-62 -7.5q-25 0 -52 3l11 62q24 -3 43 -3q44 0 68 23t35 89l99 571h77z" />
    <glyph glyph-name="k" unicode="k" horiz-adv-x="501" 
d="M235 269l-80 -72l-35 -197h-77l139 782h77l-88 -496l254 232h88l-221 -198l157 -320h-84z" />
    <glyph glyph-name="l" unicode="l" horiz-adv-x="258" 
d="M182 782h77l-139 -782h-77z" />
    <glyph glyph-name="m" unicode="m" horiz-adv-x="874" 
d="M120 0h-77l92 518h60l-17 -135h5q26 66 73.5 105.5t111.5 39.5q62 0 96 -38t29 -107h4q26 66 73 105.5t111 39.5q67 0 101 -46t21 -121l-66 -361h-77l65 350q6 33 2 55.5t-15 36.5t-27 20t-34 6q-35 0 -64.5 -20t-53.5 -56.5t-41.5 -86.5t-28.5 -110l-35 -195h-76l63 350
q6 33 2 55.5t-15 36.5t-28 20t-36 6q-69 0 -113.5 -66t-65.5 -185z" />
    <glyph glyph-name="n" unicode="n" horiz-adv-x="576" 
d="M135 518h60l-15 -135h5q35 75 85.5 110t110.5 35q35 0 61.5 -12t42.5 -34t21.5 -53t-1.5 -68l-66 -361h-77l65 350q6 33 3 55.5t-13.5 36.5t-26.5 20t-35 6q-35 0 -65.5 -17t-55.5 -48t-43.5 -75t-28.5 -98l-42 -230h-77z" />
    <glyph glyph-name="o" unicode="o" horiz-adv-x="558" 
d="M503 307q0 -56 -15.5 -112t-47 -102t-79 -74.5t-111.5 -28.5q-50 0 -86.5 16.5t-61.5 46t-37 70.5t-12 90q0 55 15.5 111.5t47 101.5t79 73.5t111.5 28.5q54 0 91.5 -18t61 -48.5t34 -70.5t10.5 -84zM305 472q-38 0 -66 -16t-47.5 -41.5t-31.5 -57.5t-18 -64
q-5 -24 -6.5 -47t-1.5 -42q0 -79 30 -118.5t87 -39.5q37 0 65 15.5t47.5 41t31.5 58t18 65.5q5 24 7 47t2 43q0 156 -117 156z" />
    <glyph glyph-name="p" unicode="p" horiz-adv-x="590" 
d="M457 326q0 74 -31.5 109t-82.5 35q-45 0 -79 -26t-56.5 -66.5t-33.5 -89t-11 -92.5t11 -73t28.5 -45.5t38 -23t39.5 -6.5q46 0 79 28t55 70t32.5 90.5t10.5 89.5zM139 111l-59 -338h-77l132 745h60l-15 -126h5q22 60 68 98t112 38q37 0 69 -13.5t55 -39t36 -63t13 -85.5
q0 -61 -17.5 -121t-49.5 -108t-78.5 -78t-104.5 -30q-33 0 -58.5 10t-43 27t-28 38.5t-14.5 45.5h-5z" />
    <glyph glyph-name="q" unicode="q" horiz-adv-x="585" 
d="M331 -227l60 333h-3q-14 -30 -32.5 -52t-40.5 -36.5t-45 -21t-44 -6.5q-85 0 -130 57.5t-45 155.5q0 61 17 119.5t49 104.5t78.5 73.5t106.5 27.5q34 0 59.5 -9.5t42.5 -26t26.5 -38t12.5 -45.5h3l38 109h55l-132 -745h-76zM424 325q0 75 -32 110t-82 35q-43 0 -76.5 -23
t-56 -61t-34 -86t-11.5 -99q0 -79 31.5 -116t81.5 -37q45 0 78.5 27t56 68.5t33.5 90t11 91.5z" />
    <glyph glyph-name="r" unicode="r" horiz-adv-x="422" 
d="M135 518h60l-19 -148h5q26 75 67 116.5t92 41.5q46 0 68.5 -28t22.5 -66q0 -5 -0.5 -10.5t-1.5 -10.5l-67 -17q1 5 1.5 9t0.5 9q0 23 -11.5 36.5t-34.5 13.5q-27 0 -52.5 -22t-47 -58.5t-38.5 -85.5t-26 -103l-34 -195h-77z" />
    <glyph glyph-name="s" unicode="s" horiz-adv-x="464" 
d="M100 173q-3 -60 27 -93t85 -33q47 0 75.5 21t28.5 66q0 13 -4.5 25t-16 23t-31 23t-50.5 25q-26 11 -49 24t-40 30t-27 39t-10 51q0 28 10 55.5t30.5 49.5t52 35.5t75.5 13.5q42 0 73 -11.5t51.5 -32.5t29.5 -49.5t7 -62.5l-71 -11q5 54 -17 83t-73 29q-27 0 -45 -7
t-29.5 -19t-16 -27t-4.5 -31q0 -17 4.5 -29t15.5 -22.5t28 -20.5t43 -22q32 -15 57.5 -28.5t43.5 -30t28 -37.5t10 -51q0 -32 -12 -60.5t-34.5 -50.5t-56 -34.5t-76.5 -12.5q-50 0 -84.5 14.5t-56 38.5t-31 54t-9.5 61z" />
    <glyph glyph-name="t" unicode="t" horiz-adv-x="367" 
d="M224 -4q-84 0 -111 41.5t-13 120.5l54 301h-102l11 59h103l38 207h77l-38 -207h120l-9 -59h-123l-56 -313q-9 -50 7 -69t68 -19q11 0 22.5 0.5t22.5 1.5l-12 -60q-19 -2 -33.5 -3t-25.5 -1z" />
    <glyph glyph-name="u" unicode="u" horiz-adv-x="563" 
d="M425 0h-61l17 135h-5q-25 -65 -71 -105t-110 -40q-75 0 -107.5 48.5t-15.5 139.5l61 340h77l-59 -331q-7 -40 -4.5 -66.5t13 -42t28 -21.5t39.5 -6q34 0 62 18t49.5 51t37 79t25.5 102l39 217h77z" />
    <glyph glyph-name="v" unicode="v" horiz-adv-x="463" 
d="M60 518h76l79 -413h7l196 413h73l-252 -524h-75z" />
    <glyph glyph-name="w" unicode="w" horiz-adv-x="731" 
d="M67 518h74l39 -414h6l187 414h75l36 -414h5l191 414h72l-244 -524h-74l-43 419h-1l-191 -419h-75z" />
    <glyph glyph-name="x" unicode="x" horiz-adv-x="460" 
d="M216 204l-161 -204h-78l212 267l-114 251h78l87 -199l155 199h77l-205 -259l122 -259h-78z" />
    <glyph glyph-name="y" unicode="y" horiz-adv-x="455" 
d="M-37 -163q38 -3 63 -1.5t43 8.5q26 10 41 33t34 65l24 53l-109 523h77l81 -419h3l190 419h73l-268 -575q-14 -30 -26.5 -54.5t-26 -44.5t-29.5 -34.5t-37 -23.5q-30 -13 -63.5 -13.5t-78.5 3.5z" />
    <glyph glyph-name="z" unicode="z" horiz-adv-x="442" 
d="M-1 61l343 397h-264l11 60h351l-11 -61l-343 -397h288l-10 -60h-377z" />
    <glyph glyph-name="braceleft" unicode="{" horiz-adv-x="342" 
d="M205 -121q-44 0 -73.5 10.5t-47 28t-24.5 39.5t-7 45q0 40 14 73.5t30.5 63t30.5 57t14 54.5q0 23 -11 40t-44 20l-33 3l12 59l32 1q41 2 61.5 27.5t20.5 68.5q0 35 -9 73.5t-9 81.5q0 34 12 63.5t34.5 51.5t55.5 34.5t76 12.5h52l-10 -54h-38q-48 0 -76.5 -31.5
t-28.5 -82.5q0 -32 4.5 -71.5t4.5 -70.5q0 -53 -30.5 -91t-85.5 -46q42 -13 58.5 -41t16.5 -61q0 -30 -12 -59t-26.5 -57.5t-26.5 -57.5t-12 -61t20.5 -50.5t73.5 -18.5h18l-10 -54h-27v0z" />
    <glyph glyph-name="bar" unicode="|" horiz-adv-x="262" 
d="M115 -121v907h64v-907h-64z" />
    <glyph glyph-name="braceright" unicode="}" horiz-adv-x="342" 
d="M148.013 785.992q43.9971 0 73.4951 -10.499t46.9971 -27.998t24.499 -39.498q6.99902 -21.998 6.99902 -44.9971q0 -39.9971 -13.999 -73.4951t-30.498 -62.9961q-16.499 -29.499 -30.498 -56.9971t-13.999 -54.4961q0 -22.999 10.999 -39.998
q11 -16.999 43.9971 -19.999l32.998 -2.99902l-11.999 -58.9971l-31.998 -1q-40.9971 -2 -61.4961 -27.498t-20.499 -68.4961q0 -34.9971 9 -73.4951q8.99902 -38.498 8.99902 -81.4951q0 -33.998 -11.999 -63.4961t-34.498 -51.4971q-22.499 -21.998 -55.4971 -34.498
q-32.9971 -12.499 -75.9951 -12.499h-51.9971l10 53.9971h37.998q47.9961 0 76.4951 31.498q28.498 31.498 28.498 82.4951q0 31.998 -4.5 71.4951q-4.49902 39.498 -4.49902 70.4961q0 52.9961 30.498 90.9941t85.4941 45.9971q-41.9971 12.999 -58.4961 40.998
q-16.499 27.998 -16.499 60.9961q0 29.998 11.999 58.9961t26.499 57.4971q14.499 28.498 26.498 57.4961t11.999 60.9961t-20.499 50.4971q-20.498 18.499 -73.4951 18.499h-17.999l9.99902 53.9961h26.999v0z" />
    <glyph glyph-name="asciitilde" unicode="~" horiz-adv-x="469" 
d="M158 294q-25 0 -41.5 -13t-26.5 -36l-34 27q9 37 39 65.5t78 28.5q22 0 41.5 -7.5t37.5 -16.5t35.5 -16.5t35.5 -7.5q24 0 40 13.5t25 36.5l39 -27q-11 -38 -42.5 -66t-79.5 -28q-23 0 -42 7.5t-36.5 16t-34 16t-34.5 7.5z" />
    <glyph glyph-name="exclamdown" unicode="&#xa1;" horiz-adv-x="250" 
d="M104.008 9.03125l-34.998 -206.987h-79.9951l36.998 206.987l72.9951 293.981h39.998zM175.004 387.008h-76.9951l23.998 130.992h76.9951z" />
    <glyph glyph-name="cent" unicode="&#xa2;" horiz-adv-x="526" 
d="M134 205q0 -129 76 -152l73 417q-37 -5 -65 -29t-46.5 -60t-28 -81.5t-9.5 -94.5zM455 162q-6 -29 -20 -59t-38 -54t-58 -40.5t-80 -18.5l-19 -109h-60l20 113q-66 13 -107 64.5t-41 145.5q0 56 14.5 113t44 103t75 76t107.5 32l19 103h60l-19 -108q69 -14 99 -63
t31 -118l-69 -18q1 55 -14.5 92.5t-57.5 49.5l-73 -418q55 5 83 42t45 96z" />
    <glyph glyph-name="sterling" unicode="&#xa3;" horiz-adv-x="651" 
d="M457 -16q-51 0 -94.5 24.5t-84.5 55.5q-26 -38 -65 -58.5t-91 -20.5q-29 0 -54 6.5t-44.5 20.5t-30.5 34.5t-11 49.5q0 52 36 80.5t95 28.5q36 0 69 -11t65 -27q2 14 3.5 29t1.5 32q0 20 -1.5 39t-3.5 38h-136l11 57h116q-8 42 -14 81.5t-6 78.5q0 47 14.5 85.5t42 66.5
t68 43t91.5 15q48 0 86.5 -15.5t62.5 -46.5t31 -77.5t-8 -107.5l-74 -16q25 100 -2.5 149.5t-96.5 49.5q-68 0 -99.5 -40.5t-31.5 -112.5q0 -34 4.5 -72.5t9.5 -80.5h189l-11 -57h-172q1 -14 1.5 -28t0.5 -28q0 -70 -16 -119q42 -26 80 -47t73 -21q38 0 63.5 29t19.5 87
l54 -3q6 -59 -6.5 -96t-34.5 -58t-49 -29t-51 -8zM118 40q38 0 64 17t43 46q-29 20 -57.5 33.5t-58.5 13.5q-35 0 -51 -16.5t-16 -37.5q0 -26 21.5 -41t54.5 -15z" />
    <glyph glyph-name="yen" unicode="&#xa5;" horiz-adv-x="541" 
d="M292 158l-28 -158h-82l28 158h-154l11 57h153l15 83h-154l11 57h135l-117 361h82l100 -330h4l208 330h85l-238 -361h131l-11 -57h-154l-15 -83h154l-11 -57h-153z" />
    <glyph glyph-name="brokenbar" unicode="&#xa6;" horiz-adv-x="262" 
d="M115 391v395h64v-395h-64zM115 -121v413h64v-413h-64z" />
    <glyph glyph-name="section" unicode="&#xa7;" horiz-adv-x="543" 
d="M318 176q15 0 31 4t28.5 13.5t20.5 26t8 40.5q0 34 -28 59.5t-75 58.5q-15 10 -31 17t-42 7q-41 0 -65 -25t-24 -63q0 -15 6 -27t18 -24t31 -26t46 -34q20 -14 36.5 -20.5t39.5 -6.5zM214 -146q-48 0 -87 14t-65.5 39.5t-37 62t0.5 81.5l68 15q-11 -44 -3.5 -73.5
t26 -47.5t45.5 -26t54 -8q44 0 73.5 23.5t29.5 68.5q0 15 -4.5 29t-16 28.5t-29.5 30t-45 34.5q-35 24 -63.5 44.5t-48.5 41t-31 44t-11 55.5q0 57 37.5 95.5t103.5 45.5q-24 24 -37.5 53t-13.5 68q0 30 10.5 58.5t31.5 51t52.5 36.5t73.5 14q45 0 79 -13.5t56 -37.5
t31.5 -57t6.5 -72l-65 -14q4 37 -3.5 63t-24 42.5t-38.5 24t-46 7.5q-29 0 -47 -9t-29 -23.5t-15 -31t-4 -31.5q0 -32 19 -58t64 -58q33 -24 63.5 -45t54.5 -43.5t38 -48t14 -58.5q0 -63 -40 -98.5t-104 -40.5q26 -23 41 -51t15 -67q0 -35 -13 -64t-36.5 -50t-56.5 -32.5
t-73 -11.5z" />
    <glyph glyph-name="dieresis" unicode="&#xa8;" 
d="M164 692h79l-15 -82h-79zM318 692h79l-15 -82h-79z" />
    <glyph glyph-name="copyright" unicode="&#xa9;" horiz-adv-x="836" 
d="M435 -16q-75 0 -141 24t-115.5 71.5t-78 117t-28.5 161.5q0 91 28.5 161t78 117.5t115.5 71.5t141 24q74 0 140 -24t115.5 -71.5t78 -117.5t28.5 -161q0 -92 -29 -161.5t-78 -117t-115 -71.5t-140 -24zM435 24q65 0 123 21.5t101 63.5t68 104.5t25 144.5q0 81 -25 143.5
t-68 105t-101 64t-123 21.5q-66 0 -123.5 -21.5t-100.5 -64t-68.5 -105t-25.5 -143.5q0 -82 25 -144.5t68 -104.5t101 -63.5t124 -21.5zM431 158q-38 0 -69 16t-52.5 43.5t-33.5 64.5t-12 79t12 78.5t34.5 64t54.5 43t72 15.5q35 0 60.5 -10.5t44 -29t30.5 -43t19 -51.5
l-54 -19q-3 19 -10.5 37t-20 32.5t-29.5 23t-40 8.5q-49 0 -79 -41.5t-30 -107.5q0 -67 27.5 -109t81.5 -42q23 0 40 9.5t29 24.5t19.5 33.5t10.5 37.5l54 -18q-7 -25 -18.5 -50t-30.5 -44.5t-46 -32t-64 -12.5z" />
    <glyph glyph-name="ordfeminine" unicode="&#xaa;" horiz-adv-x="429" 
d="M282 386q-12 -28 -39.5 -52t-75.5 -24q-45 0 -77.5 24t-32.5 73q0 34 14 58.5t36.5 41t51 26.5t56.5 17l100 25l6 31q6 35 -8.5 54.5t-53.5 19.5q-38 0 -61 -20t-25 -62l-63 10q5 65 46 94.5t105 29.5q71 0 107.5 -35.5t23.5 -104.5l-30 -166q-4 -21 -4.5 -34t4.5 -20.5
t16.5 -10t31.5 -2.5h16l-8 -40q-12 -4 -25 -6.5t-27 -2.5q-42 0 -60.5 23.5t-19.5 52.5h-4zM308 530q-21 -5 -46 -12.5t-47 -14.5q-39 -12 -60.5 -31.5t-21.5 -57.5q0 -33 18 -44t40 -11q37 0 67 29t42 95z" />
    <glyph glyph-name="guillemotleft" unicode="&#xab;" horiz-adv-x="442" 
d="M204 259l178 182h65l-164 -185l98 -190h-65zM35 259l178 182h65l-164 -185l98 -190h-65z" />
    <glyph glyph-name="registered" unicode="&#xae;" horiz-adv-x="475" 
d="M283 324q-39 0 -74.5 13.5t-62.5 39.5t-43 64t-16 87t16 87t43 64t62.5 39.5t74.5 13.5t75 -13.5t63 -39.5t43 -64t16 -87t-16 -87t-43 -64t-63 -39.5t-75 -13.5zM283 357q32 0 61 11t51.5 33t35.5 54t13 73t-13 73t-35.5 53.5t-51.5 33t-61 11.5t-61 -11.5t-50.5 -33
t-34.5 -53.5t-13 -73t13 -73t34.5 -54t50.5 -33t61 -11zM291 537q19 0 27.5 11t8.5 25q0 31 -36 31h-41v-67h41zM329 518q9 -3 15.5 -11t13.5 -28q4 -12 6.5 -18.5t4 -11t3.5 -7.5t5 -8v-7h-46q-5 13 -9.5 28.5t-11.5 34.5q-4 10 -9 12.5t-18 2.5h-33v-78h-42v209h83
q39 0 59.5 -17t20.5 -46q0 -22 -11 -34.5t-31 -18.5v-2z" />
    <glyph glyph-name="macron" unicode="&#xaf;" 
d="M165 669h224l-12 -63h-224z" />
    <glyph glyph-name="degree" unicode="&#xb0;" horiz-adv-x="393" 
d="M262 732q30 0 56 -11.5t45.5 -31.5t31 -48t11.5 -62q0 -38 -12 -70t-34 -54.5t-52.5 -35t-67.5 -12.5q-30 0 -56.5 11t-46.5 31.5t-31.5 48.5t-11.5 61q0 39 12.5 70.5t34.5 54.5t53 35.5t68 12.5zM260 679q-48 0 -72 -34.5t-24 -88.5q0 -42 20 -69.5t56 -27.5
q50 0 73 34.5t23 88.5q0 42 -19 69.5t-57 27.5z" />
    <glyph glyph-name="plusminus" unicode="&#xb1;" horiz-adv-x="538" 
d="M19 68h430l-12 -68h-430zM235 288h-177l12 68h177l33 183h76l-33 -183h177l-12 -68h-177l-33 -183h-76z" />
    <glyph glyph-name="acute" unicode="&#xb4;" 
d="M202 588l60 138h87l-91 -138h-56z" />
    <glyph glyph-name="paragraph" unicode="&#xb6;" horiz-adv-x="641" 
d="M339 252h-15q-49 0 -91 14.5t-72.5 41t-47.5 64t-17 84.5q0 58 17.5 106t50.5 82.5t81 53t108 18.5h270l-148 -845h-61l139 792h-81l-139 -792h-61z" />
    <glyph glyph-name="periodcentered" unicode="&#xb7;" horiz-adv-x="278" 
d="M129 428h77l-26 -142h-77z" />
    <glyph glyph-name="cedilla" unicode="&#xb8;" 
d="M119 -236q-38 0 -64 16t-41 36l33 36q12 -18 29 -30.5t43 -12.5q22 0 35 14t13 36q0 20 -13.5 28t-24.5 8q-27 0 -43 -23l-41 20l77 118l48 -12l-43 -62q5 1 10.5 1.5t10.5 0.5q33 0 59 -20.5t26 -58.5q0 -47 -33.5 -71t-80.5 -24z" />
    <glyph glyph-name="ordmasculine" unicode="&#xba;" 
d="M74 485q0 43 12.5 87.5t37.5 79.5t62 57.5t87 22.5q41 0 70.5 -14t48 -38t27.5 -55.5t9 -65.5q0 -44 -13 -88t-38 -80t-62 -58.5t-86 -22.5q-38 0 -67 13t-48.5 36t-29.5 55t-10 71zM181 625q-20 -33 -27 -74t-7 -73q0 -62 20.5 -89t62.5 -27q32 0 54 15.5t36 40.5
q19 32 26.5 73t7.5 75q0 61 -20 87.5t-62 26.5q-32 0 -54.5 -15.5t-36.5 -39.5z" />
    <glyph glyph-name="guillemotright" unicode="&#xbb;" horiz-adv-x="442" 
d="M221 248l-178 -182h-65l164 185l-98 190h65zM390 248l-178 -182h-65l164 185l-98 190h65z" />
    <glyph glyph-name="onequarter" unicode="&#xbc;" horiz-adv-x="763" 
d="M130 342l53 301h-74l7 38l22 2q46 4 72 40h46l-68 -381h-58zM596 131l28 171h-4l-143 -166v-5h119zM644 83l-14 -81h-56l14 81h-184l6 42l221 255h62l-41 -249h56l-8 -48h-56zM622 715h62l-557 -715h-62z" />
    <glyph glyph-name="onehalf" unicode="&#xbd;" horiz-adv-x="795" 
d="M130 342l53 301h-74l7 38l22 2q46 4 72 40h46l-68 -381h-58zM450 48q113 62 172.5 114.5t59.5 113.5q0 62 -64 62q-20 0 -36 -6.5t-26.5 -21.5t-14.5 -39.5t1 -61.5l-55 8q-5 43 3 74.5t26 52.5t44 31t58 10q63 0 93.5 -31.5t30.5 -77.5q0 -41 -19.5 -74.5t-49 -61
t-65 -48t-67.5 -35.5v-6h174l-9 -49h-264zM622 715h62l-557 -715h-62z" />
    <glyph glyph-name="threequarters" unicode="&#xbe;" horiz-adv-x="849" 
d="M205 334q-30 0 -56 9t-44 26.5t-25.5 42t-1.5 56.5l57 10q-5 -19 -3 -36.5t10.5 -31t24.5 -21.5t40 -8q35 0 59 22t24 57q0 27 -19 43.5t-54 16.5h-46l5 45h60q38 0 52.5 20t14.5 44q0 25 -17 37.5t-44 12.5q-28 0 -48 -14.5t-25 -52.5l-52 13q3 27 15 46t29.5 31
t39 17.5t43.5 5.5q54 0 87 -24.5t33 -66.5q0 -40 -24.5 -62t-62.5 -27v-6q32 -8 53 -29.5t21 -56.5q0 -27 -11.5 -48.5t-31 -37.5t-46.5 -24.5t-57 -8.5zM681 131l28 171h-4l-143 -166v-5h119zM729 83l-14 -81h-56l14 81h-184l6 42l221 255h62l-41 -249h56l-8 -48h-56z
M707 715h62l-557 -715h-62z" />
    <glyph glyph-name="questiondown" unicode="&#xbf;" horiz-adv-x="461" 
d="M291.01 315.013l-19.999 -177.989h-39.998q-81.9941 0 -130.991 -45.4971t-48.9971 -127.492q0 -53.9971 30.998 -85.9951t90.9941 -31.998q26.998 0 51.9971 9.49902q24.998 9.5 44.4971 29.499q19.499 19.998 31.498 51.9961t10.999 77.9951l69.9961 -15.999
q0 -56.9961 -17.499 -96.9941q-17.499 -39.9971 -46.9971 -65.9951q-29.498 -25.999 -66.9961 -37.998q-37.4971 -11.999 -78.4951 -11.999q-48.9971 0 -86.9941 14.499q-37.998 14.499 -63.4961 39.4971q-25.499 24.999 -38.498 57.4971t-12.999 69.4951
q0 47.9971 16.999 88.4951q16.999 40.4971 47.9971 69.9961q30.998 29.498 72.9951 47.4971q41.9971 17.998 90.9941 21.998l38.998 119.993h52.9971zM316.008 387.008h-76.9951l23.998 130.992h76.9961z" />
    <glyph glyph-name="Agrave" unicode="&#xc0;" horiz-adv-x="622" 
d="M184 234h242l-55 346h-8zM437 167h-288l-86 -167h-82l382 720h65l119 -720h-84zM288 904h107l55 -118h-62z" />
    <glyph glyph-name="Aacute" unicode="&#xc1;" horiz-adv-x="622" 
d="M184 234h242l-55 346h-8zM437 167h-288l-86 -167h-82l382 720h65l119 -720h-84zM366 786l61 118h107l-106 -118h-62z" />
    <glyph glyph-name="Acircumflex" unicode="&#xc2;" horiz-adv-x="622" 
d="M184 234h242l-55 346h-8zM437 167h-288l-86 -167h-82l382 720h65l119 -720h-84zM418 846l-70 -60h-86l128 110h70l90 -110h-84z" />
    <glyph glyph-name="Atilde" unicode="&#xc3;" horiz-adv-x="622" 
d="M184 234h242l-55 346h-8zM437 167h-288l-86 -167h-82l382 720h65l119 -720h-84zM360 891q18 0 33 -6t28.5 -13t26.5 -13t27 -6q20 0 30.5 11.5t16.5 30.5l40 -10q-8 -48 -33 -74t-61 -26q-17 0 -32 6t-28.5 13t-26.5 13t-27 6q-20 0 -30.5 -11t-18.5 -30l-38 9
q7 48 32.5 74t60.5 26z" />
    <glyph glyph-name="Adieresis" unicode="&#xc4;" horiz-adv-x="622" 
d="M184 234h242l-55 346h-8zM437 167h-288l-86 -167h-82l382 720h65l119 -720h-84zM287 886h89l-16 -85h-89zM465 886h89l-16 -85h-89z" />
    <glyph glyph-name="Aring" unicode="&#xc5;" horiz-adv-x="622" 
d="M184 234h242l-55 346h-8zM437 167h-288l-86 -167h-82l382 720h65l119 -720h-84zM507 844q0 -42 -26.5 -66t-67.5 -24t-67.5 24t-26.5 66t26.5 67t67.5 25t67.5 -25t26.5 -67zM368 844q0 -23 13 -34.5t32 -11.5t32 11.5t13 34.5t-13 35.5t-32 12.5t-32 -12.5t-13 -35.5z
" />
    <glyph glyph-name="AE" unicode="&#xc6;" horiz-adv-x="913" 
d="M210 236h228l73 413h-7zM426 169h-264l-120 -169h-83l511 716h445l-13 -67h-309l-45 -255h235l-12 -67h-235l-46 -260h346l-13 -67h-427z" />
    <glyph glyph-name="Ccedilla" unicode="&#xc7;" horiz-adv-x="691" 
d="M301 -232q-38 0 -64 16t-41 36l33 36q12 -18 29 -30.5t43 -12.5q22 0 35 14t13 36q0 20 -13.5 28t-24.5 8q-27 0 -43 -23l-41 20l60 93q-36 5 -65 18q-51 23 -83.5 63.5t-47.5 95.5t-15 120q0 79 21 160t64 144q43 65 105 103.5t154 38.5q70 0 117 -22.5t75 -61t37.5 -89
t3.5 -106.5l-85 -12q14 109 -23 166t-127 57q-40 0 -72 -11.5t-57.5 -32.5t-45 -50t-35.5 -64q-22 -49 -32.5 -107t-10.5 -115q0 -118 47.5 -175t132.5 -57q83 0 131.5 50.5t75.5 148.5l74 -29q-13 -52 -37.5 -96t-59.5 -75.5t-81.5 -49t-103.5 -17.5h-5l-30 -44
q5 1 10.5 1.5t10.5 0.5q33 0 59 -20.5t26 -58.5q0 -47 -33.5 -71t-80.5 -24z" />
    <glyph glyph-name="Egrave" unicode="&#xc8;" horiz-adv-x="615" 
d="M180 716h437l-13 -67h-354l-45 -255h280l-12 -67h-280l-46 -260h391l-13 -67h-472zM306 900h107l55 -118h-62z" />
    <glyph glyph-name="Eacute" unicode="&#xc9;" horiz-adv-x="615" 
d="M180 716h437l-13 -67h-354l-45 -255h280l-12 -67h-280l-46 -260h391l-13 -67h-472zM384 782l61 118h107l-106 -118h-62z" />
    <glyph glyph-name="Ecircumflex" unicode="&#xca;" horiz-adv-x="615" 
d="M180 716h437l-13 -67h-354l-45 -255h280l-12 -67h-280l-46 -260h391l-13 -67h-472zM436 842l-70 -60h-86l128 110h70l90 -110h-84z" />
    <glyph glyph-name="Edieresis" unicode="&#xcb;" horiz-adv-x="615" 
d="M180 716h437l-13 -67h-354l-45 -255h280l-12 -67h-280l-46 -260h391l-13 -67h-472zM305 882h89l-16 -85h-89zM483 882h89l-16 -85h-89z" />
    <glyph glyph-name="Igrave" unicode="&#xcc;" horiz-adv-x="283" 
d="M180 716h82l-127 -716h-82zM119 900h107l55 -118h-62z" />
    <glyph glyph-name="Iacute" unicode="&#xcd;" horiz-adv-x="283" 
d="M180 716h82l-127 -716h-82zM197 782l61 118h107l-106 -118h-62z" />
    <glyph glyph-name="Icircumflex" unicode="&#xce;" horiz-adv-x="283" 
d="M180 716h82l-127 -716h-82zM249 842l-70 -60h-86l128 110h70l90 -110h-84z" />
    <glyph glyph-name="Idieresis" unicode="&#xcf;" horiz-adv-x="283" 
d="M180 716h82l-127 -716h-82zM118 882h89l-16 -85h-89zM296 882h89l-16 -85h-89z" />
    <glyph glyph-name="Eth" unicode="&#xd0;" horiz-adv-x="734" 
d="M60 401h82l56 315h185q149 0 227.5 -80t78.5 -222q0 -45 -8 -93t-27 -94t-49.5 -87.5t-75 -72.5t-104.5 -49t-137 -18h-217l59 334h-83zM268 649l-44 -248h171l-13 -67h-170l-47 -267h133q61 0 107.5 16.5t80.5 44.5t56 64t35 75t18.5 78t5.5 73q0 122 -62.5 176.5
t-183.5 54.5h-87z" />
    <glyph glyph-name="Ntilde" unicode="&#xd1;" horiz-adv-x="723" 
d="M180 716h85l251 -566h5l101 566h80l-127 -716h-79l-256 575h-5l-102 -575h-80zM410 887q18 0 33 -6t28.5 -13t26.5 -13t27 -6q20 0 30.5 11.5t16.5 30.5l40 -10q-8 -48 -33 -74t-61 -26q-17 0 -32 6t-28.5 13t-26.5 13t-27 6q-20 0 -30.5 -11t-18.5 -30l-38 9
q7 48 32.5 74t60.5 26z" />
    <glyph glyph-name="Ograve" unicode="&#xd2;" horiz-adv-x="736" 
d="M76 295q0 74 22 151.5t65 141t107.5 104t149.5 40.5q73 0 125 -24.5t85 -66.5t48 -96.5t15 -114.5q0 -77 -21.5 -156t-64.5 -144t-107.5 -106t-150.5 -41q-63 0 -113.5 20.5t-86 60.5t-54.5 98t-19 133zM349 50q65 0 111 31t77 81q36 59 52.5 133t16.5 144
q0 105 -46.5 165.5t-139.5 60.5q-61 0 -106.5 -30t-76.5 -79q-37 -57 -54.5 -128.5t-17.5 -141.5q0 -51 11 -94.5t33.5 -75t57 -49t82.5 -17.5zM342 904h107l55 -118h-62z" />
    <glyph glyph-name="Oacute" unicode="&#xd3;" horiz-adv-x="736" 
d="M76 295q0 74 22 151.5t65 141t107.5 104t149.5 40.5q73 0 125 -24.5t85 -66.5t48 -96.5t15 -114.5q0 -77 -21.5 -156t-64.5 -144t-107.5 -106t-150.5 -41q-63 0 -113.5 20.5t-86 60.5t-54.5 98t-19 133zM349 50q65 0 111 31t77 81q36 59 52.5 133t16.5 144
q0 105 -46.5 165.5t-139.5 60.5q-61 0 -106.5 -30t-76.5 -79q-37 -57 -54.5 -128.5t-17.5 -141.5q0 -51 11 -94.5t33.5 -75t57 -49t82.5 -17.5zM420 786l61 118h107l-106 -118h-62z" />
    <glyph glyph-name="Ocircumflex" unicode="&#xd4;" horiz-adv-x="736" 
d="M76 295q0 74 22 151.5t65 141t107.5 104t149.5 40.5q73 0 125 -24.5t85 -66.5t48 -96.5t15 -114.5q0 -77 -21.5 -156t-64.5 -144t-107.5 -106t-150.5 -41q-63 0 -113.5 20.5t-86 60.5t-54.5 98t-19 133zM349 50q65 0 111 31t77 81q36 59 52.5 133t16.5 144
q0 105 -46.5 165.5t-139.5 60.5q-61 0 -106.5 -30t-76.5 -79q-37 -57 -54.5 -128.5t-17.5 -141.5q0 -51 11 -94.5t33.5 -75t57 -49t82.5 -17.5zM465 846l-70 -60h-86l128 110h70l90 -110h-84z" />
    <glyph glyph-name="Otilde" unicode="&#xd5;" horiz-adv-x="736" 
d="M76 295q0 74 22 151.5t65 141t107.5 104t149.5 40.5q73 0 125 -24.5t85 -66.5t48 -96.5t15 -114.5q0 -77 -21.5 -156t-64.5 -144t-107.5 -106t-150.5 -41q-63 0 -113.5 20.5t-86 60.5t-54.5 98t-19 133zM349 50q65 0 111 31t77 81q36 59 52.5 133t16.5 144
q0 105 -46.5 165.5t-139.5 60.5q-61 0 -106.5 -30t-76.5 -79q-37 -57 -54.5 -128.5t-17.5 -141.5q0 -51 11 -94.5t33.5 -75t57 -49t82.5 -17.5zM414 891q18 0 33 -6t28.5 -13t26.5 -13t27 -6q20 0 30.5 11.5t16.5 30.5l40 -10q-8 -48 -33 -74t-61 -26q-17 0 -32 6t-28.5 13
t-26.5 13t-27 6q-20 0 -30.5 -11t-18.5 -30l-38 9q7 48 32.5 74t60.5 26z" />
    <glyph glyph-name="Odieresis" unicode="&#xd6;" horiz-adv-x="736" 
d="M76 295q0 74 22 151.5t65 141t107.5 104t149.5 40.5q73 0 125 -24.5t85 -66.5t48 -96.5t15 -114.5q0 -77 -21.5 -156t-64.5 -144t-107.5 -106t-150.5 -41q-63 0 -113.5 20.5t-86 60.5t-54.5 98t-19 133zM349 50q65 0 111 31t77 81q36 59 52.5 133t16.5 144
q0 105 -46.5 165.5t-139.5 60.5q-61 0 -106.5 -30t-76.5 -79q-37 -57 -54.5 -128.5t-17.5 -141.5q0 -51 11 -94.5t33.5 -75t57 -49t82.5 -17.5zM341 886h89l-16 -85h-89zM519 886h89l-16 -85h-89z" />
    <glyph glyph-name="multiply" unicode="&#xd7;" horiz-adv-x="557" 
d="M42 139l199 169l-134 163l55 46l132 -165l189 166l41 -49l-192 -163l139 -169l-55 -47l-136 172l-197 -172z" />
    <glyph glyph-name="Oslash" unicode="&#xd8;" horiz-adv-x="740" 
d="M163 286q0 -62 16 -109l391 421q-24 32 -60.5 49.5t-86.5 17.5q-65 0 -111 -30t-77 -79q-37 -57 -54.5 -128.5t-17.5 -141.5zM352 50q69 0 115.5 31t77.5 81q36 59 52.5 133t16.5 144q0 58 -15 103l-392 -422q23 -33 58.5 -51.5t86.5 -18.5zM352 -17q-63 0 -113 21
t-85 59l-94 -101l-41 43l100 107q-43 77 -43 183q0 74 22 151.5t65.5 141t108.5 104t151 40.5q67 0 116 -21.5t82 -57.5l93 100l41 -43l-98 -105q22 -39 32 -84t10 -91q0 -77 -21.5 -156t-64.5 -144t-108.5 -106t-152.5 -41z" />
    <glyph glyph-name="Ugrave" unicode="&#xd9;" horiz-adv-x="704" 
d="M177 716h82l-74 -416q-11 -60 -8.5 -106t20 -77t51 -46.5t85.5 -15.5q78 0 125 47t65 150l83 464h80l-85 -478q-23 -128 -92.5 -191t-178.5 -63q-62 0 -111 19t-79.5 58t-41 98.5t4.5 140.5zM329 900h107l55 -118h-62z" />
    <glyph glyph-name="Uacute" unicode="&#xda;" horiz-adv-x="704" 
d="M177 716h82l-74 -416q-11 -60 -8.5 -106t20 -77t51 -46.5t85.5 -15.5q78 0 125 47t65 150l83 464h80l-85 -478q-23 -128 -92.5 -191t-178.5 -63q-62 0 -111 19t-79.5 58t-41 98.5t4.5 140.5zM407 782l61 118h107l-106 -118h-62z" />
    <glyph glyph-name="Ucircumflex" unicode="&#xdb;" horiz-adv-x="704" 
d="M177 716h82l-74 -416q-11 -60 -8.5 -106t20 -77t51 -46.5t85.5 -15.5q78 0 125 47t65 150l83 464h80l-85 -478q-23 -128 -92.5 -191t-178.5 -63q-62 0 -111 19t-79.5 58t-41 98.5t4.5 140.5zM459 842l-70 -60h-86l128 110h70l90 -110h-84z" />
    <glyph glyph-name="Udieresis" unicode="&#xdc;" horiz-adv-x="704" 
d="M177 716h82l-74 -416q-11 -60 -8.5 -106t20 -77t51 -46.5t85.5 -15.5q78 0 125 47t65 150l83 464h80l-85 -478q-23 -128 -92.5 -191t-178.5 -63q-62 0 -111 19t-79.5 58t-41 98.5t4.5 140.5zM328 882h89l-16 -85h-89zM506 882h89l-16 -85h-89z" />
    <glyph glyph-name="Yacute" unicode="&#xdd;" horiz-adv-x="555" 
d="M189 0l56 316l-148 400h82l120 -330h5l228 330h84l-291 -411l-54 -305h-82zM331 782l61 118h107l-106 -118h-62z" />
    <glyph glyph-name="Thorn" unicode="&#xde;" horiz-adv-x="636" 
d="M224 508l-48 -270h182q46 0 77 12.5t50 34t27 50.5t8 61q0 25 -7 45.5t-24.5 35.5t-45.5 23t-70 8h-149zM164 171l-30 -171h-82l90 508h-1l12 67h1l25 141h82l-25 -141h147q62 0 104.5 -14t69 -38.5t38 -57t11.5 -69.5q0 -46 -14.5 -87t-44.5 -71.5t-76.5 -48.5
t-110.5 -18h-196z" />
    <glyph glyph-name="germandbls" unicode="&#xdf;" horiz-adv-x="587" 
d="M371 47q43 0 66 25t23 63q0 28 -16.5 55t-54.5 58q-41 33 -64 62t-23 73q0 27 8 49t21.5 40t30 33t34.5 29q42 32 57.5 59t15.5 56q0 40 -25 63.5t-72 23.5q-60 0 -98.5 -46t-54.5 -133l-99 -557h-77l102 572q20 112 78 166.5t149 54.5q80 0 124.5 -39.5t44.5 -104.5
q0 -42 -20 -76t-66 -72q-42 -34 -60.5 -57.5t-18.5 -49.5q0 -29 22.5 -50t55.5 -51q19 -18 34.5 -33.5t26 -32t16.5 -35.5t6 -43q0 -31 -10.5 -60t-31.5 -51t-52 -35t-72 -13q-43 0 -73.5 13.5t-49.5 36.5t-26 53t-3 64l73 16q-13 -59 10.5 -92.5t68.5 -33.5z" />
    <glyph glyph-name="agrave" unicode="&#xe0;" horiz-adv-x="545" 
d="M334 82q-11 -18 -25.5 -34.5t-33.5 -29t-42.5 -20.5t-52.5 -8q-28 0 -53.5 8t-44.5 24t-30.5 39.5t-11.5 54.5q0 42 17.5 70.5t45.5 48.5t63 32t71 21l137 33l6 32q11 57 -8.5 88t-75.5 31q-26 0 -48.5 -7t-39 -22.5t-26 -39.5t-8.5 -58l-71 10q0 45 14.5 77.5t40 54
t61.5 31.5t78 10q94 0 134 -46t26 -124l-40 -222q-5 -27 -5.5 -44.5t6 -27.5t21 -13.5t40.5 -1.5l18 1l-8 -50q-14 -5 -31 -7.5t-35 -2.5q-27 0 -44 7.5t-26.5 20.5t-13 29.5t-3.5 34.5h-2zM366 272q-13 -3 -29.5 -7.5t-34 -9.5t-34.5 -9.5t-30 -8.5q-51 -14 -84 -41.5
t-33 -72.5q0 -21 7.5 -35.5t20 -23.5t28 -13t30.5 -4q23 0 46 9.5t42.5 26.5t33.5 42t20 56zM231 726h86l45 -138h-56z" />
    <glyph glyph-name="aacute" unicode="&#xe1;" horiz-adv-x="545" 
d="M334 82q-11 -18 -25.5 -34.5t-33.5 -29t-42.5 -20.5t-52.5 -8q-28 0 -53.5 8t-44.5 24t-30.5 39.5t-11.5 54.5q0 42 17.5 70.5t45.5 48.5t63 32t71 21l137 33l6 32q11 57 -8.5 88t-75.5 31q-26 0 -48.5 -7t-39 -22.5t-26 -39.5t-8.5 -58l-71 10q0 45 14.5 77.5t40 54
t61.5 31.5t78 10q94 0 134 -46t26 -124l-40 -222q-5 -27 -5.5 -44.5t6 -27.5t21 -13.5t40.5 -1.5l18 1l-8 -50q-14 -5 -31 -7.5t-35 -2.5q-27 0 -44 7.5t-26.5 20.5t-13 29.5t-3.5 34.5h-2zM366 272q-13 -3 -29.5 -7.5t-34 -9.5t-34.5 -9.5t-30 -8.5q-51 -14 -84 -41.5
t-33 -72.5q0 -21 7.5 -35.5t20 -23.5t28 -13t30.5 -4q23 0 46 9.5t42.5 26.5t33.5 42t20 56zM284 588l60 138h87l-91 -138h-56z" />
    <glyph glyph-name="acircumflex" unicode="&#xe2;" horiz-adv-x="545" 
d="M334 82q-11 -18 -25.5 -34.5t-33.5 -29t-42.5 -20.5t-52.5 -8q-28 0 -53.5 8t-44.5 24t-30.5 39.5t-11.5 54.5q0 42 17.5 70.5t45.5 48.5t63 32t71 21l137 33l6 32q11 57 -8.5 88t-75.5 31q-26 0 -48.5 -7t-39 -22.5t-26 -39.5t-8.5 -58l-71 10q0 45 14.5 77.5t40 54
t61.5 31.5t78 10q94 0 134 -46t26 -124l-40 -222q-5 -27 -5.5 -44.5t6 -27.5t21 -13.5t40.5 -1.5l18 1l-8 -50q-14 -5 -31 -7.5t-35 -2.5q-27 0 -44 7.5t-26.5 20.5t-13 29.5t-3.5 34.5h-2zM366 272q-13 -3 -29.5 -7.5t-34 -9.5t-34.5 -9.5t-30 -8.5q-51 -14 -84 -41.5
t-33 -72.5q0 -21 7.5 -35.5t20 -23.5t28 -13t30.5 -4q23 0 46 9.5t42.5 26.5t33.5 42t20 56zM329 671l-66 -83h-72l111 125h70l67 -125h-71z" />
    <glyph glyph-name="atilde" unicode="&#xe3;" horiz-adv-x="545" 
d="M334 82q-11 -18 -25.5 -34.5t-33.5 -29t-42.5 -20.5t-52.5 -8q-28 0 -53.5 8t-44.5 24t-30.5 39.5t-11.5 54.5q0 42 17.5 70.5t45.5 48.5t63 32t71 21l137 33l6 32q11 57 -8.5 88t-75.5 31q-26 0 -48.5 -7t-39 -22.5t-26 -39.5t-8.5 -58l-71 10q0 45 14.5 77.5t40 54
t61.5 31.5t78 10q94 0 134 -46t26 -124l-40 -222q-5 -27 -5.5 -44.5t6 -27.5t21 -13.5t40.5 -1.5l18 1l-8 -50q-14 -5 -31 -7.5t-35 -2.5q-27 0 -44 7.5t-26.5 20.5t-13 29.5t-3.5 34.5h-2zM366 272q-13 -3 -29.5 -7.5t-34 -9.5t-34.5 -9.5t-30 -8.5q-51 -14 -84 -41.5
t-33 -72.5q0 -21 7.5 -35.5t20 -23.5t28 -13t30.5 -4q23 0 46 9.5t42.5 26.5t33.5 42t20 56zM271 634q-17 0 -25.5 -10t-13.5 -26l-33 10q6 42 27.5 65t53.5 23q16 0 29.5 -5.5t25.5 -12.5t23.5 -12.5t23.5 -5.5q17 0 25 10.5t13 26.5l33 -11q-7 -42 -28 -65t-53 -23
q-16 0 -29 5.5t-25 12.5t-23 12.5t-24 5.5z" />
    <glyph glyph-name="adieresis" unicode="&#xe4;" horiz-adv-x="545" 
d="M334 82q-11 -18 -25.5 -34.5t-33.5 -29t-42.5 -20.5t-52.5 -8q-28 0 -53.5 8t-44.5 24t-30.5 39.5t-11.5 54.5q0 42 17.5 70.5t45.5 48.5t63 32t71 21l137 33l6 32q11 57 -8.5 88t-75.5 31q-26 0 -48.5 -7t-39 -22.5t-26 -39.5t-8.5 -58l-71 10q0 45 14.5 77.5t40 54
t61.5 31.5t78 10q94 0 134 -46t26 -124l-40 -222q-5 -27 -5.5 -44.5t6 -27.5t21 -13.5t40.5 -1.5l18 1l-8 -50q-14 -5 -31 -7.5t-35 -2.5q-27 0 -44 7.5t-26.5 20.5t-13 29.5t-3.5 34.5h-2zM366 272q-13 -3 -29.5 -7.5t-34 -9.5t-34.5 -9.5t-30 -8.5q-51 -14 -84 -41.5
t-33 -72.5q0 -21 7.5 -35.5t20 -23.5t28 -13t30.5 -4q23 0 46 9.5t42.5 26.5t33.5 42t20 56zM220 692h79l-15 -82h-79zM374 692h79l-15 -82h-79z" />
    <glyph glyph-name="aring" unicode="&#xe5;" horiz-adv-x="545" 
d="M334 82q-11 -18 -25.5 -34.5t-33.5 -29t-42.5 -20.5t-52.5 -8q-28 0 -53.5 8t-44.5 24t-30.5 39.5t-11.5 54.5q0 42 17.5 70.5t45.5 48.5t63 32t71 21l137 33l6 32q11 57 -8.5 88t-75.5 31q-26 0 -48.5 -7t-39 -22.5t-26 -39.5t-8.5 -58l-71 10q0 45 14.5 77.5t40 54
t61.5 31.5t78 10q94 0 134 -46t26 -124l-40 -222q-5 -27 -5.5 -44.5t6 -27.5t21 -13.5t40.5 -1.5l18 1l-8 -50q-14 -5 -31 -7.5t-35 -2.5q-27 0 -44 7.5t-26.5 20.5t-13 29.5t-3.5 34.5h-2zM366 272q-13 -3 -29.5 -7.5t-34 -9.5t-34.5 -9.5t-30 -8.5q-51 -14 -84 -41.5
t-33 -72.5q0 -21 7.5 -35.5t20 -23.5t28 -13t30.5 -4q23 0 46 9.5t42.5 26.5t33.5 42t20 56zM428 674q0 -42 -26 -66t-67 -24t-67 24t-26 66t26 67t67 25t67 -25t26 -67zM291 675q0 -23 12.5 -34.5t31.5 -11.5t31.5 11.5t12.5 34.5t-12.5 34.5t-31.5 11.5t-31.5 -11.5
t-12.5 -34.5z" />
    <glyph glyph-name="ae" unicode="&#xe6;" horiz-adv-x="846" 
d="M767 162q-8 -36 -25.5 -67.5t-44 -55t-63 -36.5t-82.5 -13q-77 0 -119.5 37t-57.5 96h-10q-15 -35 -35 -60.5t-43.5 -41.5t-49.5 -23.5t-53 -7.5q-30 0 -56.5 8t-46 24t-30.5 39.5t-11 54.5q0 42 17.5 70.5t45.5 48.5t63 32t71 21l137 33l6 32q11 57 -9 88t-74 31
q-52 0 -87.5 -30t-33.5 -97l-73 10q0 45 14.5 77.5t40 54t61.5 31.5t78 10q64 0 99.5 -23.5t46.5 -61.5q30 37 73 60.5t102 23.5q54 0 91.5 -19.5t59 -55.5t26.5 -87t-6 -114h-349q-3 -27 -3 -53q0 -74 31.5 -112.5t89.5 -38.5q60 0 97.5 37.5t49.5 97.5zM366 272
q-13 -3 -29.5 -7.5t-34 -9.5t-34.5 -9.5t-30 -8.5q-51 -14 -84 -41.5t-33 -72.5q0 -21 7.5 -35.5t19.5 -23.5t27.5 -13t31.5 -4q23 0 46 9.5t42.5 26.5t33.5 42t20 56zM449 304h266q16 78 -11.5 122.5t-90.5 44.5q-35 0 -61.5 -13.5t-46.5 -36t-33.5 -52t-21.5 -62.5z" />
    <glyph glyph-name="ccedilla" unicode="&#xe7;" horiz-adv-x="526" 
d="M198 -236q-38 0 -64 16t-41 36l33 36q12 -18 29 -30.5t43 -12.5q22 0 35 14t13 36q0 20 -13.5 28t-24.5 8q-27 0 -43 -23l-41 20l68 105q-12 2 -23 6q-35 13 -61.5 39t-41 66.5t-14.5 95.5q0 57 15 115t45.5 104.5t77.5 75.5t112 29q48 0 82 -14t56 -38.5t32.5 -59
t10.5 -74.5l-69 -18q1 67 -23 107t-89 40q-42 0 -73.5 -22t-52.5 -59t-31.5 -85t-10.5 -100q0 -158 119 -158q32 0 55 10t39.5 28.5t28.5 44t21 56.5l58 -24q-6 -30 -21 -61t-40.5 -55.5t-61.5 -40t-85 -15.5h-4l-37 -54q5 1 10.5 1.5t10.5 0.5q33 0 59 -20.5t26 -58.5
q0 -47 -33.5 -71t-80.5 -24z" />
    <glyph glyph-name="egrave" unicode="&#xe8;" horiz-adv-x="536" 
d="M303 471q-33 0 -58.5 -13.5t-45 -36t-33.5 -53t-22 -64.5h261q16 78 -11.5 122.5t-90.5 44.5zM461 164q-8 -36 -25.5 -68t-44.5 -55.5t-63.5 -37t-82.5 -13.5q-50 0 -87 16t-61 44t-35.5 66.5t-11.5 83.5q0 49 14 106.5t45 106.5t80 81.5t119 32.5q54 0 91.5 -19.5
t59 -55.5t26.5 -87t-6 -114h-344q-3 -27 -3 -51q0 -74 30.5 -113.5t88.5 -39.5q60 0 98 38.5t50 98.5zM242 726h86l45 -138h-56z" />
    <glyph glyph-name="eacute" unicode="&#xe9;" horiz-adv-x="536" 
d="M303 471q-33 0 -58.5 -13.5t-45 -36t-33.5 -53t-22 -64.5h261q16 78 -11.5 122.5t-90.5 44.5zM461 164q-8 -36 -25.5 -68t-44.5 -55.5t-63.5 -37t-82.5 -13.5q-50 0 -87 16t-61 44t-35.5 66.5t-11.5 83.5q0 49 14 106.5t45 106.5t80 81.5t119 32.5q54 0 91.5 -19.5
t59 -55.5t26.5 -87t-6 -114h-344q-3 -27 -3 -51q0 -74 30.5 -113.5t88.5 -39.5q60 0 98 38.5t50 98.5zM280 588l60 138h87l-91 -138h-56z" />
    <glyph glyph-name="ecircumflex" unicode="&#xea;" horiz-adv-x="536" 
d="M303 471q-33 0 -58.5 -13.5t-45 -36t-33.5 -53t-22 -64.5h261q16 78 -11.5 122.5t-90.5 44.5zM461 164q-8 -36 -25.5 -68t-44.5 -55.5t-63.5 -37t-82.5 -13.5q-50 0 -87 16t-61 44t-35.5 66.5t-11.5 83.5q0 49 14 106.5t45 106.5t80 81.5t119 32.5q54 0 91.5 -19.5
t59 -55.5t26.5 -87t-6 -114h-344q-3 -27 -3 -51q0 -74 30.5 -113.5t88.5 -39.5q60 0 98 38.5t50 98.5zM334 671l-66 -83h-72l111 125h70l67 -125h-71z" />
    <glyph glyph-name="edieresis" unicode="&#xeb;" horiz-adv-x="536" 
d="M303 471q-33 0 -58.5 -13.5t-45 -36t-33.5 -53t-22 -64.5h261q16 78 -11.5 122.5t-90.5 44.5zM461 164q-8 -36 -25.5 -68t-44.5 -55.5t-63.5 -37t-82.5 -13.5q-50 0 -87 16t-61 44t-35.5 66.5t-11.5 83.5q0 49 14 106.5t45 106.5t80 81.5t119 32.5q54 0 91.5 -19.5
t59 -55.5t26.5 -87t-6 -114h-344q-3 -27 -3 -51q0 -74 30.5 -113.5t88.5 -39.5q60 0 98 38.5t50 98.5zM226 692h79l-15 -82h-79zM380 692h79l-15 -82h-79z" />
    <glyph glyph-name="igrave" unicode="&#xec;" horiz-adv-x="258" 
d="M135 518h77l-92 -518h-77zM100 726h86l45 -138h-56z" />
    <glyph glyph-name="iacute" unicode="&#xed;" horiz-adv-x="258" 
d="M135 518h77l-92 -518h-77zM146 588l60 138h87l-91 -138h-56z" />
    <glyph glyph-name="icircumflex" unicode="&#xee;" horiz-adv-x="258" 
d="M135 518h77l-92 -518h-77zM199 671l-66 -83h-72l111 125h70l67 -125h-71z" />
    <glyph glyph-name="idieresis" unicode="&#xef;" horiz-adv-x="258" 
d="M135 518h77l-92 -518h-77zM89 692h79l-15 -82h-79zM243 692h79l-15 -82h-79z" />
    <glyph glyph-name="eth" unicode="&#xf0;" horiz-adv-x="566" 
d="M250 -10q-50 0 -86.5 16.5t-61.5 46t-37 70.5t-12 90q0 55 15.5 111.5t47 101.5t78 73.5t109.5 28.5q60 0 97 -29.5t50 -75.5h5q-4 75 -26 130.5t-60 94.5l-127 -75l-23 42l111 67q-46 34 -110 54l17 48q91 -18 153 -67l97 58l22 -43l-83 -49q48 -52 72 -125.5t24 -165.5
q0 -68 -15 -139t-48 -129.5t-84.5 -96t-124.5 -37.5zM134 204q0 -79 30 -118.5t87 -39.5q50 0 85 28t57 72q20 38 29 82.5t9 89.5q0 68 -31.5 111t-94.5 43q-52 0 -84.5 -28t-52.5 -69q-20 -42 -27 -89t-7 -82z" />
    <glyph glyph-name="ntilde" unicode="&#xf1;" horiz-adv-x="576" 
d="M135 518h60l-15 -135h5q35 75 85.5 110t110.5 35q35 0 61.5 -12t42.5 -34t21.5 -53t-1.5 -68l-66 -361h-77l65 350q6 33 3 55.5t-13.5 36.5t-26.5 20t-35 6q-35 0 -65.5 -17t-55.5 -48t-43.5 -75t-28.5 -98l-42 -230h-77zM298 634q-17 0 -25.5 -10t-13.5 -26l-33 10
q6 42 27.5 65t53.5 23q16 0 29.5 -5.5t25.5 -12.5t23.5 -12.5t23.5 -5.5q17 0 25 10.5t13 26.5l33 -11q-7 -42 -28 -65t-53 -23q-16 0 -29 5.5t-25 12.5t-23 12.5t-24 5.5z" />
    <glyph glyph-name="ograve" unicode="&#xf2;" horiz-adv-x="558" 
d="M503 307q0 -56 -15.5 -112t-47 -102t-79 -74.5t-111.5 -28.5q-50 0 -86.5 16.5t-61.5 46t-37 70.5t-12 90q0 55 15.5 111.5t47 101.5t79 73.5t111.5 28.5q54 0 91.5 -18t61 -48.5t34 -70.5t10.5 -84zM305 472q-38 0 -66 -16t-47.5 -41.5t-31.5 -57.5t-18 -64
q-5 -24 -6.5 -47t-1.5 -42q0 -79 30 -118.5t87 -39.5q37 0 65 15.5t47.5 41t31.5 58t18 65.5q5 24 7 47t2 43q0 156 -117 156zM238 726h86l45 -138h-56z" />
    <glyph glyph-name="oacute" unicode="&#xf3;" horiz-adv-x="558" 
d="M503 307q0 -56 -15.5 -112t-47 -102t-79 -74.5t-111.5 -28.5q-50 0 -86.5 16.5t-61.5 46t-37 70.5t-12 90q0 55 15.5 111.5t47 101.5t79 73.5t111.5 28.5q54 0 91.5 -18t61 -48.5t34 -70.5t10.5 -84zM305 472q-38 0 -66 -16t-47.5 -41.5t-31.5 -57.5t-18 -64
q-5 -24 -6.5 -47t-1.5 -42q0 -79 30 -118.5t87 -39.5q37 0 65 15.5t47.5 41t31.5 58t18 65.5q5 24 7 47t2 43q0 156 -117 156zM285 588l60 138h87l-91 -138h-56z" />
    <glyph glyph-name="ocircumflex" unicode="&#xf4;" horiz-adv-x="558" 
d="M503 307q0 -56 -15.5 -112t-47 -102t-79 -74.5t-111.5 -28.5q-50 0 -86.5 16.5t-61.5 46t-37 70.5t-12 90q0 55 15.5 111.5t47 101.5t79 73.5t111.5 28.5q54 0 91.5 -18t61 -48.5t34 -70.5t10.5 -84zM305 472q-38 0 -66 -16t-47.5 -41.5t-31.5 -57.5t-18 -64
q-5 -24 -6.5 -47t-1.5 -42q0 -79 30 -118.5t87 -39.5q37 0 65 15.5t47.5 41t31.5 58t18 65.5q5 24 7 47t2 43q0 156 -117 156zM337 671l-66 -83h-72l111 125h70l67 -125h-71z" />
    <glyph glyph-name="otilde" unicode="&#xf5;" horiz-adv-x="558" 
d="M503 307q0 -56 -15.5 -112t-47 -102t-79 -74.5t-111.5 -28.5q-50 0 -86.5 16.5t-61.5 46t-37 70.5t-12 90q0 55 15.5 111.5t47 101.5t79 73.5t111.5 28.5q54 0 91.5 -18t61 -48.5t34 -70.5t10.5 -84zM305 472q-38 0 -66 -16t-47.5 -41.5t-31.5 -57.5t-18 -64
q-5 -24 -6.5 -47t-1.5 -42q0 -79 30 -118.5t87 -39.5q37 0 65 15.5t47.5 41t31.5 58t18 65.5q5 24 7 47t2 43q0 156 -117 156zM285 634q-17 0 -25.5 -10t-13.5 -26l-33 10q6 42 27.5 65t53.5 23q16 0 29.5 -5.5t25.5 -12.5t23.5 -12.5t23.5 -5.5q17 0 25 10.5t13 26.5
l33 -11q-7 -42 -28 -65t-53 -23q-16 0 -29 5.5t-25 12.5t-23 12.5t-24 5.5z" />
    <glyph glyph-name="odieresis" unicode="&#xf6;" horiz-adv-x="558" 
d="M503 307q0 -56 -15.5 -112t-47 -102t-79 -74.5t-111.5 -28.5q-50 0 -86.5 16.5t-61.5 46t-37 70.5t-12 90q0 55 15.5 111.5t47 101.5t79 73.5t111.5 28.5q54 0 91.5 -18t61 -48.5t34 -70.5t10.5 -84zM305 472q-38 0 -66 -16t-47.5 -41.5t-31.5 -57.5t-18 -64
q-5 -24 -6.5 -47t-1.5 -42q0 -79 30 -118.5t87 -39.5q37 0 65 15.5t47.5 41t31.5 58t18 65.5q5 24 7 47t2 43q0 156 -117 156zM231 692h79l-15 -82h-79zM385 692h79l-15 -82h-79z" />
    <glyph glyph-name="divide" unicode="&#xf7;" horiz-adv-x="558" 
d="M286 551h88l-19 -105h-88zM80 356h430l-12 -68h-430zM223 198h89l-19 -105h-89z" />
    <glyph glyph-name="oslash" unicode="&#xf8;" horiz-adv-x="566" 
d="M135 202q0 -36 6 -63l267 290q-30 44 -97 44q-30 0 -53.5 -10t-42 -27.5t-32 -40t-22.5 -47.5q-14 -38 -20 -77t-6 -69zM257 45q29 0 52 9.5t41.5 25.5t32 38t22.5 46q15 38 21.5 79.5t6.5 74.5q0 17 -1.5 32t-3.5 29l-267 -290q30 -44 96 -44zM256 -10q-45 0 -79.5 13.5
t-59.5 38.5l-73 -80l-36 33l79 86q-30 54 -30 132q0 55 16 111.5t47.5 101.5t79.5 73.5t112 28.5q47 0 81.5 -13.5t58.5 -37.5l66 72l36 -33l-72 -79q15 -28 22 -61t7 -69q0 -56 -16 -112t-47.5 -102t-79.5 -74.5t-112 -28.5z" />
    <glyph glyph-name="ugrave" unicode="&#xf9;" horiz-adv-x="563" 
d="M425 0h-61l17 135h-5q-25 -65 -71 -105t-110 -40q-75 0 -107.5 48.5t-15.5 139.5l61 340h77l-59 -331q-7 -40 -4.5 -66.5t13 -42t28 -21.5t39.5 -6q34 0 62 18t49.5 51t37 79t25.5 102l39 217h77zM246 726h86l45 -138h-56z" />
    <glyph glyph-name="uacute" unicode="&#xfa;" horiz-adv-x="563" 
d="M425 0h-61l17 135h-5q-25 -65 -71 -105t-110 -40q-75 0 -107.5 48.5t-15.5 139.5l61 340h77l-59 -331q-7 -40 -4.5 -66.5t13 -42t28 -21.5t39.5 -6q34 0 62 18t49.5 51t37 79t25.5 102l39 217h77zM292 588l60 138h87l-91 -138h-56z" />
    <glyph glyph-name="ucircumflex" unicode="&#xfb;" horiz-adv-x="563" 
d="M425 0h-61l17 135h-5q-25 -65 -71 -105t-110 -40q-75 0 -107.5 48.5t-15.5 139.5l61 340h77l-59 -331q-7 -40 -4.5 -66.5t13 -42t28 -21.5t39.5 -6q34 0 62 18t49.5 51t37 79t25.5 102l39 217h77zM343 671l-66 -83h-72l111 125h70l67 -125h-71z" />
    <glyph glyph-name="udieresis" unicode="&#xfc;" horiz-adv-x="563" 
d="M425 0h-61l17 135h-5q-25 -65 -71 -105t-110 -40q-75 0 -107.5 48.5t-15.5 139.5l61 340h77l-59 -331q-7 -40 -4.5 -66.5t13 -42t28 -21.5t39.5 -6q34 0 62 18t49.5 51t37 79t25.5 102l39 217h77zM235 692h79l-15 -82h-79zM389 692h79l-15 -82h-79z" />
    <glyph glyph-name="yacute" unicode="&#xfd;" horiz-adv-x="455" 
d="M-37 -163q38 -3 63 -1.5t43 8.5q26 10 41 33t34 65l24 53l-109 523h77l81 -419h3l190 419h73l-268 -575q-14 -30 -26.5 -54.5t-26 -44.5t-29.5 -34.5t-37 -23.5q-30 -13 -63.5 -13.5t-78.5 3.5zM242 588l60 138h87l-91 -138h-56z" />
    <glyph glyph-name="thorn" unicode="&#xfe;" horiz-adv-x="590" 
d="M457 326q0 74 -31.5 109t-82.5 35q-45 0 -79 -26t-56.5 -66.5t-33.5 -89t-11 -92.5t11 -73t28.5 -45.5t38 -23t39.5 -6.5q46 0 79 28t55 70t32.5 90.5t10.5 89.5zM191 392q22 60 65 98t109 38q37 0 69 -13.5t55 -39t36 -63t13 -85.5q0 -61 -17.5 -121t-49.5 -108
t-78.5 -78t-104.5 -30q-33 0 -58.5 10t-43 27t-28 38.5t-14.5 45.5h-4l-60 -338h-77l179 1009h76l-70 -390h3z" />
    <glyph glyph-name="ydieresis" unicode="&#xff;" horiz-adv-x="455" 
d="M-37 -163q38 -3 63 -1.5t43 8.5q26 10 41 33t34 65l24 53l-109 523h77l81 -419h3l190 419h73l-268 -575q-14 -30 -26.5 -54.5t-26 -44.5t-29.5 -34.5t-37 -23.5q-30 -13 -63.5 -13.5t-78.5 3.5zM185 692h79l-15 -82h-79zM339 692h79l-15 -82h-79z" />
    <glyph glyph-name="Amacron" unicode="&#x100;" horiz-adv-x="622" 
d="M184 234h242l-55 346h-8zM437 167h-288l-86 -167h-82l382 720h65l119 -720h-84zM288 877h264l-13 -68h-264z" />
    <glyph glyph-name="amacron" unicode="&#x101;" horiz-adv-x="545" 
d="M334 82q-11 -18 -25.5 -34.5t-33.5 -29t-42.5 -20.5t-52.5 -8q-28 0 -53.5 8t-44.5 24t-30.5 39.5t-11.5 54.5q0 42 17.5 70.5t45.5 48.5t63 32t71 21l137 33l6 32q11 57 -8.5 88t-75.5 31q-26 0 -48.5 -7t-39 -22.5t-26 -39.5t-8.5 -58l-71 10q0 45 14.5 77.5t40 54
t61.5 31.5t78 10q94 0 134 -46t26 -124l-40 -222q-5 -27 -5.5 -44.5t6 -27.5t21 -13.5t40.5 -1.5l18 1l-8 -50q-14 -5 -31 -7.5t-35 -2.5q-27 0 -44 7.5t-26.5 20.5t-13 29.5t-3.5 34.5h-2zM366 272q-13 -3 -29.5 -7.5t-34 -9.5t-34.5 -9.5t-30 -8.5q-51 -14 -84 -41.5
t-33 -72.5q0 -21 7.5 -35.5t20 -23.5t28 -13t30.5 -4q23 0 46 9.5t42.5 26.5t33.5 42t20 56zM217 669h224l-12 -63h-224z" />
    <glyph glyph-name="Abreve" unicode="&#x102;" horiz-adv-x="622" 
d="M184 234h242l-55 346h-8zM437 167h-288l-86 -167h-82l382 720h65l119 -720h-84zM411 784q-47 0 -83 25.5t-45 80.5l38 16q14 -28 39 -40.5t56 -12.5q28 0 54.5 12t49.5 41l35 -17q-20 -53 -58 -79t-86 -26z" />
    <glyph glyph-name="abreve" unicode="&#x103;" horiz-adv-x="545" 
d="M334 82q-11 -18 -25.5 -34.5t-33.5 -29t-42.5 -20.5t-52.5 -8q-28 0 -53.5 8t-44.5 24t-30.5 39.5t-11.5 54.5q0 42 17.5 70.5t45.5 48.5t63 32t71 21l137 33l6 32q11 57 -8.5 88t-75.5 31q-26 0 -48.5 -7t-39 -22.5t-26 -39.5t-8.5 -58l-71 10q0 45 14.5 77.5t40 54
t61.5 31.5t78 10q94 0 134 -46t26 -124l-40 -222q-5 -27 -5.5 -44.5t6 -27.5t21 -13.5t40.5 -1.5l18 1l-8 -50q-14 -5 -31 -7.5t-35 -2.5q-27 0 -44 7.5t-26.5 20.5t-13 29.5t-3.5 34.5h-2zM366 272q-13 -3 -29.5 -7.5t-34 -9.5t-34.5 -9.5t-30 -8.5q-51 -14 -84 -41.5
t-33 -72.5q0 -21 7.5 -35.5t20 -23.5t28 -13t30.5 -4q23 0 46 9.5t42.5 26.5t33.5 42t20 56zM324 590q-49 0 -77.5 29t-33.5 79l42 11q8 -23 25.5 -39.5t49.5 -16.5q24 0 45.5 13t37.5 43l41 -12q-14 -51 -48.5 -79t-81.5 -28z" />
    <glyph glyph-name="Aogonek" unicode="&#x104;" horiz-adv-x="622" 
d="M508 -214q-29 -17 -60 -17q-34 0 -56.5 20t-22.5 54q0 42 33 81.5t84 75.5h-23l-26 167h-288l-86 -167h-82l382 720h65l119 -720q-33 -24 -53 -44.5t-31.5 -38.5t-15.5 -32.5t-4 -24.5q0 -16 8 -25.5t25 -9.5q13 0 26 5zM184 234h242l-55 346h-8z" />
    <glyph glyph-name="aogonek" unicode="&#x105;" horiz-adv-x="545" 
d="M450 -214q-29 -17 -60 -17q-34 0 -56.5 20t-22.5 54q0 42 33 82q28 34 70 65q-21 2 -35 8q-17 7 -26.5 20t-13 29.5t-3.5 34.5h-2q-11 -18 -25.5 -34.5t-33.5 -29t-42.5 -20.5t-52.5 -8q-28 0 -53.5 8t-44.5 24t-30.5 39.5t-11.5 54.5q0 42 17.5 70.5t45.5 48.5t63 32
t71 21l137 33l6 32q11 57 -8.5 88t-75.5 31q-26 0 -48.5 -7t-39 -22.5t-26 -39.5t-8.5 -58l-71 10q0 45 14.5 77.5t40 54t61.5 31.5t78 10q94 0 134 -46t26 -124l-40 -222q-5 -27 -5.5 -44.5t6 -27.5t21 -13.5t40.5 -1.5l18 1l-8 -50q-33 -24 -53 -44.5t-31.5 -38.5
t-15.5 -32.5t-4 -24.5q0 -16 8 -25.5t25 -9.5q13 0 26 5zM366 272q-13 -3 -29.5 -7.5t-34 -9.5t-34.5 -9.5t-30 -8.5q-51 -14 -84 -41.5t-33 -72.5q0 -21 7.5 -35.5t20 -23.5t28 -13t30.5 -4q23 0 46 9.5t42.5 26.5t33.5 42t20 56z" />
    <glyph glyph-name="Cacute" unicode="&#x106;" horiz-adv-x="691" 
d="M344 -16q-71 0 -122 23t-83.5 63.5t-47.5 95.5t-15 120q0 79 21 160t64 144q43 65 105 103.5t154 38.5q70 0 117 -22.5t75 -61t37.5 -89t3.5 -106.5l-85 -12q14 109 -23 166t-127 57q-40 0 -72 -11.5t-57.5 -32.5t-45 -50t-35.5 -64q-22 -49 -32.5 -107t-10.5 -115
q0 -118 47.5 -175t132.5 -57q83 0 131.5 50.5t75.5 148.5l74 -29q-13 -52 -37.5 -96t-59.5 -75.5t-81.5 -49t-103.5 -17.5zM406 782l61 118h107l-106 -118h-62z" />
    <glyph glyph-name="cacute" unicode="&#x107;" horiz-adv-x="526" 
d="M247 -10q-42 0 -77.5 13t-62 39t-41 66.5t-14.5 95.5q0 57 15 115t45.5 104.5t77.5 75.5t112 29q48 0 82 -14t56 -38.5t32.5 -59t10.5 -74.5l-69 -18q1 67 -23 107t-89 40q-42 0 -73.5 -22t-52.5 -59t-31.5 -85t-10.5 -100q0 -158 119 -158q32 0 55 10t39.5 28.5t28.5 44
t21 56.5l58 -24q-6 -30 -21 -61t-40.5 -55.5t-61.5 -40t-85 -15.5zM287 588l60 138h87l-91 -138h-56z" />
    <glyph glyph-name="Ccircumflex" unicode="&#x108;" horiz-adv-x="691" 
d="M344 -16q-71 0 -122 23t-83.5 63.5t-47.5 95.5t-15 120q0 79 21 160t64 144q43 65 105 103.5t154 38.5q70 0 117 -22.5t75 -61t37.5 -89t3.5 -106.5l-85 -12q14 109 -23 166t-127 57q-40 0 -72 -11.5t-57.5 -32.5t-45 -50t-35.5 -64q-22 -49 -32.5 -107t-10.5 -115
q0 -118 47.5 -175t132.5 -57q83 0 131.5 50.5t75.5 148.5l74 -29q-13 -52 -37.5 -96t-59.5 -75.5t-81.5 -49t-103.5 -17.5zM458 842l-70 -60h-86l128 110h70l90 -110h-84z" />
    <glyph glyph-name="ccircumflex" unicode="&#x109;" horiz-adv-x="526" 
d="M247 -10q-42 0 -77.5 13t-62 39t-41 66.5t-14.5 95.5q0 57 15 115t45.5 104.5t77.5 75.5t112 29q48 0 82 -14t56 -38.5t32.5 -59t10.5 -74.5l-69 -18q1 67 -23 107t-89 40q-42 0 -73.5 -22t-52.5 -59t-31.5 -85t-10.5 -100q0 -158 119 -158q32 0 55 10t39.5 28.5t28.5 44
t21 56.5l58 -24q-6 -30 -21 -61t-40.5 -55.5t-61.5 -40t-85 -15.5zM333 671l-66 -83h-72l111 125h70l67 -125h-71z" />
    <glyph glyph-name="Cdotaccent" unicode="&#x10a;" horiz-adv-x="691" 
d="M344 -16q-71 0 -122 23t-83.5 63.5t-47.5 95.5t-15 120q0 79 21 160t64 144q43 65 105 103.5t154 38.5q70 0 117 -22.5t75 -61t37.5 -89t3.5 -106.5l-85 -12q14 109 -23 166t-127 57q-40 0 -72 -11.5t-57.5 -32.5t-45 -50t-35.5 -64q-22 -49 -32.5 -107t-10.5 -115
q0 -118 47.5 -175t132.5 -57q83 0 131.5 50.5t75.5 148.5l74 -29q-13 -52 -37.5 -96t-59.5 -75.5t-81.5 -49t-103.5 -17.5zM418 882h87l-16 -88h-87z" />
    <glyph glyph-name="cdotaccent" unicode="&#x10b;" horiz-adv-x="526" 
d="M247 -10q-42 0 -77.5 13t-62 39t-41 66.5t-14.5 95.5q0 57 15 115t45.5 104.5t77.5 75.5t112 29q48 0 82 -14t56 -38.5t32.5 -59t10.5 -74.5l-69 -18q1 67 -23 107t-89 40q-42 0 -73.5 -22t-52.5 -59t-31.5 -85t-10.5 -100q0 -158 119 -158q32 0 55 10t39.5 28.5t28.5 44
t21 56.5l58 -24q-6 -30 -21 -61t-40.5 -55.5t-61.5 -40t-85 -15.5zM300 698h77l-16 -88h-77z" />
    <glyph glyph-name="Ccaron" unicode="&#x10c;" horiz-adv-x="691" 
d="M344 -16q-71 0 -122 23t-83.5 63.5t-47.5 95.5t-15 120q0 79 21 160t64 144q43 65 105 103.5t154 38.5q70 0 117 -22.5t75 -61t37.5 -89t3.5 -106.5l-85 -12q14 109 -23 166t-127 57q-40 0 -72 -11.5t-57.5 -32.5t-45 -50t-35.5 -64q-22 -49 -32.5 -107t-10.5 -115
q0 -118 47.5 -175t132.5 -57q83 0 131.5 50.5t75.5 148.5l74 -29q-13 -52 -37.5 -96t-59.5 -75.5t-81.5 -49t-103.5 -17.5zM441 830l70 60h86l-128 -110h-70l-90 110h84z" />
    <glyph glyph-name="ccaron" unicode="&#x10d;" horiz-adv-x="526" 
d="M247 -10q-42 0 -77.5 13t-62 39t-41 66.5t-14.5 95.5q0 57 15 115t45.5 104.5t77.5 75.5t112 29q48 0 82 -14t56 -38.5t32.5 -59t10.5 -74.5l-69 -18q1 67 -23 107t-89 40q-42 0 -73.5 -22t-52.5 -59t-31.5 -85t-10.5 -100q0 -158 119 -158q32 0 55 10t39.5 28.5t28.5 44
t21 56.5l58 -24q-6 -30 -21 -61t-40.5 -55.5t-61.5 -40t-85 -15.5zM211 713h71l39 -83l66 83h72l-111 -125h-70z" />
    <glyph glyph-name="Dcaron" unicode="&#x10e;" horiz-adv-x="716" 
d="M250 649l-103 -582h133q61 0 107.5 16.5t80.5 44.5t56 64t35 75t18.5 78t5.5 73q0 122 -62.5 176.5t-183.5 54.5h-87zM180 716h185q149 0 227.5 -80t78.5 -222q0 -45 -8 -93t-27 -94t-49.5 -87.5t-75 -72.5t-104.5 -49t-137 -18h-217zM445 830l70 60h86l-128 -110h-70
l-90 110h84z" />
    <glyph glyph-name="dcaron" unicode="&#x10f;" horiz-adv-x="585" 
d="M310 470q-43 0 -76.5 -23t-56 -61t-34 -86t-11.5 -99q0 -79 31.5 -116t81.5 -37q45 0 78.5 27t56 68.5t33.5 90t11 91.5q0 75 -32 110t-82 35zM444 409l65 373h77l-139 -782h-59l11 116h-7q-30 -69 -76.5 -97.5t-94.5 -28.5q-39 0 -70.5 15t-53.5 42.5t-34 67t-12 88.5
q0 61 17 119.5t49 104.5t79 73.5t107 27.5q36 0 61.5 -11t42 -28t24 -38t9.5 -42h4zM733 782l-66 -171h-59l48 171h77z" />
    <glyph glyph-name="Dcroat" unicode="&#x110;" horiz-adv-x="734" 
d="M60 401h335l-13 -67h-335zM268 649l-103 -582h133q61 0 107.5 16.5t80.5 44.5t56 64t35 75t18.5 78t5.5 73q0 122 -62.5 176.5t-183.5 54.5h-87zM198 716h185q149 0 227.5 -80t78.5 -222q0 -45 -8 -93t-27 -94t-49.5 -87.5t-75 -72.5t-104.5 -49t-137 -18h-217z" />
    <glyph glyph-name="dcroat" unicode="&#x111;" horiz-adv-x="586" 
d="M368 672h274l-10 -55h-274zM311 470q-43 0 -76.5 -23t-56 -61t-34 -86t-11.5 -99q0 -79 31.5 -116t81.5 -37q45 0 78.5 27t56 68.5t33.5 90t11 91.5q0 75 -32 110t-82 35zM445 409l65 373h77l-139 -782h-59l11 116h-7q-30 -69 -76.5 -97.5t-94.5 -28.5q-39 0 -70.5 15
t-53.5 42.5t-34 67t-12 88.5q0 61 17 119.5t49 104.5t79 73.5t107 27.5q36 0 61.5 -11t42 -28t24 -38t9.5 -42h4z" />
    <glyph glyph-name="Emacron" unicode="&#x112;" horiz-adv-x="615" 
d="M180 716h437l-13 -67h-354l-45 -255h280l-12 -67h-280l-46 -260h391l-13 -67h-472zM306 873h264l-13 -68h-264z" />
    <glyph glyph-name="emacron" unicode="&#x113;" horiz-adv-x="536" 
d="M303 471q-33 0 -58.5 -13.5t-45 -36t-33.5 -53t-22 -64.5h261q16 78 -11.5 122.5t-90.5 44.5zM461 164q-8 -36 -25.5 -68t-44.5 -55.5t-63.5 -37t-82.5 -13.5q-50 0 -87 16t-61 44t-35.5 66.5t-11.5 83.5q0 49 14 106.5t45 106.5t80 81.5t119 32.5q54 0 91.5 -19.5
t59 -55.5t26.5 -87t-6 -114h-344q-3 -27 -3 -51q0 -74 30.5 -113.5t88.5 -39.5q60 0 98 38.5t50 98.5zM226 669h224l-12 -63h-224z" />
    <glyph glyph-name="Ebreve" unicode="&#x114;" horiz-adv-x="615" 
d="M180 716h437l-13 -67h-354l-45 -255h280l-12 -67h-280l-46 -260h391l-13 -67h-472zM429 780q-47 0 -83 25.5t-45 80.5l38 16q14 -28 39 -40.5t56 -12.5q28 0 54.5 12t49.5 41l35 -17q-20 -53 -58 -79t-86 -26z" />
    <glyph glyph-name="ebreve" unicode="&#x115;" horiz-adv-x="536" 
d="M303 471q-33 0 -58.5 -13.5t-45 -36t-33.5 -53t-22 -64.5h261q16 78 -11.5 122.5t-90.5 44.5zM461 164q-8 -36 -25.5 -68t-44.5 -55.5t-63.5 -37t-82.5 -13.5q-50 0 -87 16t-61 44t-35.5 66.5t-11.5 83.5q0 49 14 106.5t45 106.5t80 81.5t119 32.5q54 0 91.5 -19.5
t59 -55.5t26.5 -87t-6 -114h-344q-3 -27 -3 -51q0 -74 30.5 -113.5t88.5 -39.5q60 0 98 38.5t50 98.5zM328 590q-49 0 -77.5 29t-33.5 79l42 11q8 -23 25.5 -39.5t49.5 -16.5q24 0 45.5 13t37.5 43l41 -12q-14 -51 -48.5 -79t-81.5 -28z" />
    <glyph glyph-name="Edotaccent" unicode="&#x116;" horiz-adv-x="615" 
d="M180 716h437l-13 -67h-354l-45 -255h280l-12 -67h-280l-46 -260h391l-13 -67h-472zM396 882h87l-16 -88h-87z" />
    <glyph glyph-name="edotaccent" unicode="&#x117;" horiz-adv-x="536" 
d="M303 471q-33 0 -58.5 -13.5t-45 -36t-33.5 -53t-22 -64.5h261q16 78 -11.5 122.5t-90.5 44.5zM461 164q-8 -36 -25.5 -68t-44.5 -55.5t-63.5 -37t-82.5 -13.5q-50 0 -87 16t-61 44t-35.5 66.5t-11.5 83.5q0 49 14 106.5t45 106.5t80 81.5t119 32.5q54 0 91.5 -19.5
t59 -55.5t26.5 -87t-6 -114h-344q-3 -27 -3 -51q0 -74 30.5 -113.5t88.5 -39.5q60 0 98 38.5t50 98.5zM303 698h77l-16 -88h-77z" />
    <glyph glyph-name="Eogonek" unicode="&#x118;" horiz-adv-x="615" 
d="M345 -214q-29 -17 -60 -17q-34 0 -56.5 20t-22.5 54q0 42 33 81.5t84 75.5h-270l127 716h437l-13 -67h-354l-45 -255h280l-12 -67h-280l-46 -260h391l-13 -67h-141q-33 -24 -53 -44.5t-31.5 -38.5t-15.5 -32.5t-4 -24.5q0 -16 8 -25.5t25 -9.5q13 0 26 5z" />
    <glyph glyph-name="eogonek" unicode="&#x119;" horiz-adv-x="536" 
d="M275 -231q-34 0 -56.5 20t-22.5 54q0 39 26.5 79t77.5 74q-16 -4 -29.5 -5t-25.5 -1q-50 0 -87 16t-61 44t-35.5 66.5t-11.5 83.5q0 49 14 106.5t45 106.5t80 81.5t119 32.5q54 0 91.5 -19.5t59 -55.5t26.5 -87t-6 -114h-344q-3 -27 -3 -51q0 -74 30.5 -113.5t88.5 -39.5
q60 0 98 38.5t50 98.5l62 -20q-9 -38 -28 -73t-48 -64q-29 -30 -51 -52t-36 -40.5t-21 -35.5t-7 -36q0 -16 8 -27t25 -11q13 0 26 5l6 -44q-29 -17 -60 -17zM405 304q16 78 -11.5 122.5t-90.5 44.5q-33 0 -58.5 -13.5t-45 -36t-33.5 -53t-22 -64.5h261z" />
    <glyph glyph-name="Ecaron" unicode="&#x11a;" horiz-adv-x="615" 
d="M180 716h437l-13 -67h-354l-45 -255h280l-12 -67h-280l-46 -260h391l-13 -67h-472zM419 830l70 60h86l-128 -110h-70l-90 110h84z" />
    <glyph glyph-name="ecaron" unicode="&#x11b;" horiz-adv-x="536" 
d="M303 471q-33 0 -58.5 -13.5t-45 -36t-33.5 -53t-22 -64.5h261q16 78 -11.5 122.5t-90.5 44.5zM461 164q-8 -36 -25.5 -68t-44.5 -55.5t-63.5 -37t-82.5 -13.5q-50 0 -87 16t-61 44t-35.5 66.5t-11.5 83.5q0 49 14 106.5t45 106.5t80 81.5t119 32.5q54 0 91.5 -19.5
t59 -55.5t26.5 -87t-6 -114h-344q-3 -27 -3 -51q0 -74 30.5 -113.5t88.5 -39.5q60 0 98 38.5t50 98.5zM221 713h71l39 -83l66 83h72l-111 -125h-70z" />
    <glyph glyph-name="Gcircumflex" unicode="&#x11c;" horiz-adv-x="738" 
d="M559 124q-10 -28 -28.5 -53.5t-45.5 -44.5t-62 -30.5t-78 -11.5q-70 0 -120.5 22.5t-83.5 63t-48.5 96t-15.5 120.5q0 83 23.5 164.5t71.5 147.5q45 60 108 97t146 37q66 0 113.5 -18.5t79 -51t47.5 -77t19 -96.5l-84 -14q-2 94 -45.5 141.5t-130.5 47.5
q-64 0 -113 -34.5t-82 -91.5q-32 -54 -48 -120t-16 -134q0 -118 49 -175t132 -57q91 0 148 57.5t81 168.5l5 23h-171l13 67h253l-66 -368h-52l4 124h-3v0zM465 842l-70 -60h-86l128 110h70l90 -110h-84z" />
    <glyph glyph-name="gcircumflex" unicode="&#x11d;" horiz-adv-x="584" 
d="M424 325q0 75 -32 110t-82 35q-43 0 -76.5 -23t-56 -61t-34 -86t-11.5 -99q0 -79 31.5 -116t81.5 -37q45 0 78.5 27t56 68.5t33.5 90t11 91.5zM80 -48q5 -64 33 -97.5t89 -33.5q44 0 74.5 15t51 41t32.5 62t20 77l18 100h-5q-27 -61 -68.5 -93.5t-98.5 -32.5
q-85 0 -130 57.5t-45 155.5q0 61 17 119.5t49 104.5t78.5 73.5t106.5 27.5q34 0 59.5 -9.5t42 -25.5t26 -37.5t12.5 -45.5h3l35 108h59l-94 -528q-20 -110 -78 -170t-160 -60q-88 0 -140.5 41t-59.5 116zM349 671l-66 -83h-72l111 125h70l67 -125h-71z" />
    <glyph glyph-name="Gbreve" unicode="&#x11e;" horiz-adv-x="738" 
d="M559 124q-10 -28 -28.5 -53.5t-45.5 -44.5t-62 -30.5t-78 -11.5q-70 0 -120.5 22.5t-83.5 63t-48.5 96t-15.5 120.5q0 83 23.5 164.5t71.5 147.5q45 60 108 97t146 37q66 0 113.5 -18.5t79 -51t47.5 -77t19 -96.5l-84 -14q-2 94 -45.5 141.5t-130.5 47.5
q-64 0 -113 -34.5t-82 -91.5q-32 -54 -48 -120t-16 -134q0 -118 49 -175t132 -57q91 0 148 57.5t81 168.5l5 23h-171l13 67h253l-66 -368h-52l4 124h-3v0zM458 780q-47 0 -83 25.5t-45 80.5l38 16q14 -28 39 -40.5t56 -12.5q28 0 54.5 12t49.5 41l35 -17q-20 -53 -58 -79
t-86 -26z" />
    <glyph glyph-name="gbreve" unicode="&#x11f;" horiz-adv-x="584" 
d="M424 325q0 75 -32 110t-82 35q-43 0 -76.5 -23t-56 -61t-34 -86t-11.5 -99q0 -79 31.5 -116t81.5 -37q45 0 78.5 27t56 68.5t33.5 90t11 91.5zM80 -48q5 -64 33 -97.5t89 -33.5q44 0 74.5 15t51 41t32.5 62t20 77l18 100h-5q-27 -61 -68.5 -93.5t-98.5 -32.5
q-85 0 -130 57.5t-45 155.5q0 61 17 119.5t49 104.5t78.5 73.5t106.5 27.5q34 0 59.5 -9.5t42 -25.5t26 -37.5t12.5 -45.5h3l35 108h59l-94 -528q-20 -110 -78 -170t-160 -60q-88 0 -140.5 41t-59.5 116zM348 590q-49 0 -77.5 29t-33.5 79l42 11q8 -23 25.5 -39.5
t49.5 -16.5q24 0 45.5 13t37.5 43l41 -12q-14 -51 -48.5 -79t-81.5 -28z" />
    <glyph glyph-name="Gdotaccent" unicode="&#x120;" horiz-adv-x="738" 
d="M559 124q-10 -28 -28.5 -53.5t-45.5 -44.5t-62 -30.5t-78 -11.5q-70 0 -120.5 22.5t-83.5 63t-48.5 96t-15.5 120.5q0 83 23.5 164.5t71.5 147.5q45 60 108 97t146 37q66 0 113.5 -18.5t79 -51t47.5 -77t19 -96.5l-84 -14q-2 94 -45.5 141.5t-130.5 47.5
q-64 0 -113 -34.5t-82 -91.5q-32 -54 -48 -120t-16 -134q0 -118 49 -175t132 -57q91 0 148 57.5t81 168.5l5 23h-171l13 67h253l-66 -368h-52l4 124h-3v0zM425 882h87l-16 -88h-87z" />
    <glyph glyph-name="gdotaccent" unicode="&#x121;" horiz-adv-x="584" 
d="M424 325q0 75 -32 110t-82 35q-43 0 -76.5 -23t-56 -61t-34 -86t-11.5 -99q0 -79 31.5 -116t81.5 -37q45 0 78.5 27t56 68.5t33.5 90t11 91.5zM80 -48q5 -64 33 -97.5t89 -33.5q44 0 74.5 15t51 41t32.5 62t20 77l18 100h-5q-27 -61 -68.5 -93.5t-98.5 -32.5
q-85 0 -130 57.5t-45 155.5q0 61 17 119.5t49 104.5t78.5 73.5t106.5 27.5q34 0 59.5 -9.5t42 -25.5t26 -37.5t12.5 -45.5h3l35 108h59l-94 -528q-20 -110 -78 -170t-160 -60q-88 0 -140.5 41t-59.5 116zM320 698h77l-16 -88h-77z" />
    <glyph glyph-name="uni0122" unicode="&#x122;" horiz-adv-x="738" 
d="M559 124q-10 -28 -28.5 -53.5t-45.5 -44.5t-62 -30.5t-78 -11.5q-70 0 -120.5 22.5t-83.5 63t-48.5 96t-15.5 120.5q0 83 23.5 164.5t71.5 147.5q45 60 108 97t146 37q66 0 113.5 -18.5t79 -51t47.5 -77t19 -96.5l-84 -14q-2 94 -45.5 141.5t-130.5 47.5
q-64 0 -113 -34.5t-82 -91.5q-32 -54 -48 -120t-16 -134q0 -118 49 -175t132 -57q91 0 148 57.5t81 168.5l5 23h-171l13 67h253l-66 -368h-52l4 124h-3v0zM248 -185l50 35l1 9h-43l12 71h80l-17 -99l-90 -61z" />
    <glyph glyph-name="uni0123" unicode="&#x123;" horiz-adv-x="584" 
d="M424 325q0 75 -32 110t-82 35q-43 0 -76.5 -23t-56 -61t-34 -86t-11.5 -99q0 -79 31.5 -116t81.5 -37q45 0 78.5 27t56 68.5t33.5 90t11 91.5zM80 -48q5 -64 33 -97.5t89 -33.5q44 0 74.5 15t51 41t32.5 62t20 77l18 100h-5q-27 -61 -68.5 -93.5t-98.5 -32.5
q-85 0 -130 57.5t-45 155.5q0 61 17 119.5t49 104.5t78.5 73.5t106.5 27.5q34 0 59.5 -9.5t42 -25.5t26 -37.5t12.5 -45.5h3l35 108h59l-94 -528q-20 -110 -78 -170t-160 -60q-88 0 -140.5 41t-59.5 116zM399 704l-50 -35l-1 -9h43l-12 -71h-80l17 99l90 61z" />
    <glyph glyph-name="Hcircumflex" unicode="&#x124;" horiz-adv-x="719" 
d="M549 335h-355l-59 -335h-82l127 716h82l-56 -314h355l56 314h82l-127 -716h-82zM466 842l-70 -60h-86l128 110h70l90 -110h-84z" />
    <glyph glyph-name="hcircumflex" unicode="&#x125;" horiz-adv-x="574" 
d="M351 468q-35 0 -65.5 -17.5t-55 -50t-43.5 -79t-29 -104.5l-39 -217h-76l137 782h77l-70 -390h4q11 28 30 52.5t44 43t54 29.5t61 11q71 0 104 -45.5t19 -121.5l-66 -361h-77l65 350q6 33 3 56t-13 36.5t-26.5 19.5t-37.5 6zM404 900l-66 -83h-72l111 125h70l67 -125h-71
z" />
    <glyph glyph-name="Hbar" unicode="&#x126;" horiz-adv-x="729" 
d="M87 584h663l-13 -67h-663zM554 335h-355l-59 -335h-82l127 716h82l-56 -314h355l56 314h82l-127 -716h-82z" />
    <glyph glyph-name="hbar" unicode="&#x127;" horiz-adv-x="574" 
d="M86 672h274l-10 -55h-274zM351 468q-35 0 -65.5 -17.5t-55 -50t-43.5 -79t-29 -104.5l-39 -217h-76l137 782h77l-70 -390h4q11 28 30 52.5t44 43t54 29.5t61 11q71 0 104 -45.5t19 -121.5l-66 -361h-77l65 350q6 33 3 56t-13 36.5t-26.5 19.5t-37.5 6z" />
    <glyph glyph-name="Itilde" unicode="&#x128;" horiz-adv-x="283" 
d="M180 716h82l-127 -716h-82zM191 887q18 0 33 -6t28.5 -13t26.5 -13t27 -6q20 0 30.5 11.5t16.5 30.5l40 -10q-8 -48 -33 -74t-61 -26q-17 0 -32 6t-28.5 13t-26.5 13t-27 6q-20 0 -30.5 -11t-18.5 -30l-38 9q7 48 32.5 74t60.5 26z" />
    <glyph glyph-name="itilde" unicode="&#x129;" horiz-adv-x="258" 
d="M135 518h77l-92 -518h-77zM142 634q-17 0 -25.5 -10t-13.5 -26l-33 10q6 42 27.5 65t53.5 23q16 0 29.5 -5.5t25.5 -12.5t23.5 -12.5t23.5 -5.5q17 0 25 10.5t13 26.5l33 -11q-7 -42 -28 -65t-53 -23q-16 0 -29 5.5t-25 12.5t-23 12.5t-24 5.5z" />
    <glyph glyph-name="Imacron" unicode="&#x12a;" horiz-adv-x="283" 
d="M180 716h82l-127 -716h-82zM119 873h264l-13 -68h-264z" />
    <glyph glyph-name="imacron" unicode="&#x12b;" horiz-adv-x="258" 
d="M135 518h77l-92 -518h-77zM89 669h224l-12 -63h-224z" />
    <glyph glyph-name="Ibreve" unicode="&#x12c;" horiz-adv-x="283" 
d="M180 716h82l-127 -716h-82zM242 780q-47 0 -83 25.5t-45 80.5l38 16q14 -28 39 -40.5t56 -12.5q28 0 54.5 12t49.5 41l35 -17q-20 -53 -58 -79t-86 -26z" />
    <glyph glyph-name="ibreve" unicode="&#x12d;" horiz-adv-x="258" 
d="M135 518h77l-92 -518h-77zM196 590q-49 0 -77.5 29t-33.5 79l42 11q8 -23 25.5 -39.5t49.5 -16.5q24 0 45.5 13t37.5 43l41 -12q-14 -51 -48.5 -79t-81.5 -28z" />
    <glyph glyph-name="Iogonek" unicode="&#x12e;" horiz-adv-x="283" 
d="M96 -214q-29 -17 -60 -17q-34 0 -56.5 20t-22.5 54q0 42 33 81.5t84 75.5h-21l127 716h82l-127 -716q-33 -24 -53 -44.5t-31.5 -38.5t-15.5 -32.5t-4 -24.5q0 -16 8 -25.5t25 -9.5q13 0 26 5z" />
    <glyph glyph-name="iogonek" unicode="&#x12f;" horiz-adv-x="258" 
d="M81 -214q-29 -17 -60 -17q-34 0 -56.5 20t-22.5 54q0 42 33 81.5t84 75.5h-16l92 518h77l-92 -518q-33 -24 -53 -44.5t-31.5 -38.5t-15.5 -32.5t-4 -24.5q0 -16 8 -25.5t25 -9.5q13 0 26 5zM151 610l16 88h77l-16 -88h-77z" />
    <glyph glyph-name="Idotaccent" unicode="&#x130;" horiz-adv-x="283" 
d="M180 716h82l-127 -716h-82zM209 882h87l-16 -88h-87z" />
    <glyph glyph-name="dotlessi" unicode="&#x131;" horiz-adv-x="259" 
d="M135 518h77l-92 -518h-77z" />
    <glyph glyph-name="IJ" unicode="&#x132;" horiz-adv-x="618" 
d="M180 716h82l-127 -716h-82zM519 716h82l-99 -557q-10 -55 -31.5 -88t-54.5 -50.5t-76.5 -21t-97.5 0.5l14 71q39 -1 68 0.5t49 12t33 33.5t20 65z" />
    <glyph glyph-name="ij" unicode="&#x133;" horiz-adv-x="483" 
d="M151 610l16 88h77l-16 -88h-77zM135 518h77l-92 -518h-77zM378 610l16 88h77l-16 -88h-77zM335 -67q-8 -47 -25 -78t-40 -49t-52 -25.5t-62 -7.5q-25 0 -52 3l11 62q24 -3 43 -3q44 0 68 23t35 89l99 571h77z" />
    <glyph glyph-name="Jcircumflex" unicode="&#x134;" horiz-adv-x="376" 
d="M276 716h82l-99 -557q-10 -55 -31.5 -88t-54.5 -50.5t-76.5 -21t-97.5 0.5l14 71q39 -1 68 0.5t49 12t33 33.5t20 65zM335 842l-70 -60h-86l128 110h70l90 -110h-84z" />
    <glyph glyph-name="jcircumflex" unicode="&#x135;" horiz-adv-x="257" 
d="M110 -67q-8 -47 -25 -78t-40 -49t-52 -25.5t-62 -7.5q-25 0 -52 3l11 61q24 -3 43 -3q44 0 68 23.5t35 89.5l99 571h77l-102 -585v0zM197 671l-66 -83h-72l111 125h70l67 -125h-71z" />
    <glyph glyph-name="uni0136" unicode="&#x136;" horiz-adv-x="622" 
d="M287 365l-105 -99l-47 -266h-82l127 716h82l-61 -344l363 344h96l-313 -296l205 -420h-89zM223 -185l50 35l1 9h-43l12 71h80l-17 -99l-90 -61z" />
    <glyph glyph-name="uni0137" unicode="&#x137;" horiz-adv-x="501" 
d="M235 269l-80 -72l-35 -197h-77l139 782h77l-88 -496l254 232h88l-221 -198l157 -320h-84zM169 -185l50 35l1 9h-43l12 71h80l-17 -99l-90 -61z" />
    <glyph glyph-name="Lacute" unicode="&#x139;" horiz-adv-x="572" 
d="M180 716h82l-115 -649h364l-13 -67h-445zM211 782l61 118h107l-106 -118h-62z" />
    <glyph glyph-name="lacute" unicode="&#x13a;" horiz-adv-x="258" 
d="M182 782h77l-139 -782h-77zM194 817l60 138h87l-91 -138h-56z" />
    <glyph glyph-name="uni013B" unicode="&#x13b;" horiz-adv-x="572" 
d="M180 716h82l-115 -649h364l-13 -67h-445zM203 -185l50 35l1 9h-43l12 71h80l-17 -99l-90 -61z" />
    <glyph glyph-name="uni013C" unicode="&#x13c;" horiz-adv-x="258" 
d="M182 782h77l-139 -782h-77zM10 -185l50 35l1 9h-43l12 71h80l-17 -99l-90 -61z" />
    <glyph glyph-name="Lcaron" unicode="&#x13d;" horiz-adv-x="572" 
d="M180 716h82l-115 -649h364l-13 -67h-445zM462 741l-66 -171h-59l48 171h77z" />
    <glyph glyph-name="lcaron" unicode="&#x13e;" horiz-adv-x="258" 
d="M182 782h77l-139 -782h-77zM407 782l-66 -171h-59l48 171h77z" />
    <glyph glyph-name="Ldot" unicode="&#x13f;" horiz-adv-x="562" 
d="M409 458h87l-18 -104h-87zM180 716h82l-115 -649h364l-13 -67h-445z" />
    <glyph glyph-name="ldot" unicode="&#x140;" horiz-adv-x="354" 
d="M288 438h83l-16 -92h-83zM182 782h77l-139 -782h-77z" />
    <glyph glyph-name="Lslash" unicode="&#x141;" horiz-adv-x="562" 
d="M20 296l92 41l68 379h82l-60 -339l197 88l-13 -74l-197 -88l-42 -236h364l-13 -67h-445l46 263l-92 -41z" />
    <glyph glyph-name="lslash" unicode="&#x142;" horiz-adv-x="278" 
d="M38 331l84 60l70 391h77l-58 -328l84 61l-13 -77l-85 -61l-67 -377h-77l55 313l-82 -59z" />
    <glyph glyph-name="Nacute" unicode="&#x143;" horiz-adv-x="723" 
d="M180 716h85l251 -566h5l101 566h80l-127 -716h-79l-256 575h-5l-102 -575h-80zM416 782l61 118h107l-106 -118h-62z" />
    <glyph glyph-name="nacute" unicode="&#x144;" horiz-adv-x="576" 
d="M135 518h60l-15 -135h5q35 75 85.5 110t110.5 35q35 0 61.5 -12t42.5 -34t21.5 -53t-1.5 -68l-66 -361h-77l65 350q6 33 3 55.5t-13.5 36.5t-26.5 20t-35 6q-35 0 -65.5 -17t-55.5 -48t-43.5 -75t-28.5 -98l-42 -230h-77zM308 588l60 138h87l-91 -138h-56z" />
    <glyph glyph-name="uni0145" unicode="&#x145;" horiz-adv-x="723" 
d="M180 716h85l251 -566h5l101 566h80l-127 -716h-79l-256 575h-5l-102 -575h-80zM241 -185l50 35l1 9h-43l12 71h80l-17 -99l-90 -61z" />
    <glyph glyph-name="uni0146" unicode="&#x146;" horiz-adv-x="576" 
d="M135 518h60l-15 -135h5q35 75 85.5 110t110.5 35q35 0 61.5 -12t42.5 -34t21.5 -53t-1.5 -68l-66 -361h-77l65 350q6 33 3 55.5t-13.5 36.5t-26.5 20t-35 6q-35 0 -65.5 -17t-55.5 -48t-43.5 -75t-28.5 -98l-42 -230h-77zM169 -185l50 35l1 9h-43l12 71h80l-17 -99
l-90 -61z" />
    <glyph glyph-name="Ncaron" unicode="&#x147;" horiz-adv-x="723" 
d="M180 716h85l251 -566h5l101 566h80l-127 -716h-79l-256 575h-5l-102 -575h-80zM451 830l70 60h86l-128 -110h-70l-90 110h84z" />
    <glyph glyph-name="ncaron" unicode="&#x148;" horiz-adv-x="576" 
d="M135 518h60l-15 -135h5q35 75 85.5 110t110.5 35q35 0 61.5 -12t42.5 -34t21.5 -53t-1.5 -68l-66 -361h-77l65 350q6 33 3 55.5t-13.5 36.5t-26.5 20t-35 6q-35 0 -65.5 -17t-55.5 -48t-43.5 -75t-28.5 -98l-42 -230h-77zM241 713h71l39 -83l66 83h72l-111 -125h-70z" />
    <glyph glyph-name="napostrophe" unicode="&#x149;" horiz-adv-x="646" 
d="M205 518h60l-15 -135h5q35 75 85.5 110t110.5 35q35 0 61.5 -12t42.5 -34t21.5 -53t-1.5 -68l-66 -361h-77l65 350q6 33 3 55.5t-13.5 36.5t-26.5 20t-35 6q-35 0 -65.5 -17t-55.5 -48t-43.5 -75t-28.5 -98l-42 -230h-77zM167 557l-104 -94l13 70l67 60l1 5h-50l22 118
h80z" />
    <glyph glyph-name="Eng" unicode="&#x14a;" horiz-adv-x="723" 
d="M562 -74q-8 -45 -21.5 -76.5t-35 -52t-53 -29.5t-73.5 -9h-48l15 80h33q24 0 41 4.5t29 15.5t19.5 29.5t12.5 47.5l13 69l-254 570h-5l-102 -575h-80l127 716h85l251 -566h5l101 566h80l-140 -790v0z" />
    <glyph glyph-name="eng" unicode="&#x14b;" horiz-adv-x="575" 
d="M427 350q6 33 3 55.5t-13.5 36.5t-26.5 20t-35 6q-35 0 -65.5 -17t-55.5 -48t-43.5 -75t-28.5 -98l-42 -230h-77l92 518h60l-15 -135h5q35 75 85.5 110t110.5 35q35 0 61.5 -12t42.5 -34t21.5 -53t-1.5 -68l-85 -466q-12 -69 -48 -102.5t-108 -33.5h-29l14 75h24
q32 0 49 15t24 52z" />
    <glyph glyph-name="Omacron" unicode="&#x14c;" horiz-adv-x="736" 
d="M76 295q0 74 22 151.5t65 141t107.5 104t149.5 40.5q73 0 125 -24.5t85 -66.5t48 -96.5t15 -114.5q0 -77 -21.5 -156t-64.5 -144t-107.5 -106t-150.5 -41q-63 0 -113.5 20.5t-86 60.5t-54.5 98t-19 133zM349 50q65 0 111 31t77 81q36 59 52.5 133t16.5 144
q0 105 -46.5 165.5t-139.5 60.5q-61 0 -106.5 -30t-76.5 -79q-37 -57 -54.5 -128.5t-17.5 -141.5q0 -51 11 -94.5t33.5 -75t57 -49t82.5 -17.5zM335 877h264l-13 -68h-264z" />
    <glyph glyph-name="omacron" unicode="&#x14d;" horiz-adv-x="558" 
d="M503 307q0 -56 -15.5 -112t-47 -102t-79 -74.5t-111.5 -28.5q-50 0 -86.5 16.5t-61.5 46t-37 70.5t-12 90q0 55 15.5 111.5t47 101.5t79 73.5t111.5 28.5q54 0 91.5 -18t61 -48.5t34 -70.5t10.5 -84zM305 472q-38 0 -66 -16t-47.5 -41.5t-31.5 -57.5t-18 -64
q-5 -24 -6.5 -47t-1.5 -42q0 -79 30 -118.5t87 -39.5q37 0 65 15.5t47.5 41t31.5 58t18 65.5q5 24 7 47t2 43q0 156 -117 156zM231 669h224l-12 -63h-224z" />
    <glyph glyph-name="Obreve" unicode="&#x14e;" horiz-adv-x="736" 
d="M76 295q0 74 22 151.5t65 141t107.5 104t149.5 40.5q73 0 125 -24.5t85 -66.5t48 -96.5t15 -114.5q0 -77 -21.5 -156t-64.5 -144t-107.5 -106t-150.5 -41q-63 0 -113.5 20.5t-86 60.5t-54.5 98t-19 133zM349 50q65 0 111 31t77 81q36 59 52.5 133t16.5 144
q0 105 -46.5 165.5t-139.5 60.5q-61 0 -106.5 -30t-76.5 -79q-37 -57 -54.5 -128.5t-17.5 -141.5q0 -51 11 -94.5t33.5 -75t57 -49t82.5 -17.5zM465 784q-47 0 -83 25.5t-45 80.5l38 16q14 -28 39 -40.5t56 -12.5q28 0 54.5 12t49.5 41l35 -17q-20 -53 -58 -79t-86 -26z" />
    <glyph glyph-name="obreve" unicode="&#x14f;" horiz-adv-x="558" 
d="M503 307q0 -56 -15.5 -112t-47 -102t-79 -74.5t-111.5 -28.5q-50 0 -86.5 16.5t-61.5 46t-37 70.5t-12 90q0 55 15.5 111.5t47 101.5t79 73.5t111.5 28.5q54 0 91.5 -18t61 -48.5t34 -70.5t10.5 -84zM305 472q-38 0 -66 -16t-47.5 -41.5t-31.5 -57.5t-18 -64
q-5 -24 -6.5 -47t-1.5 -42q0 -79 30 -118.5t87 -39.5q37 0 65 15.5t47.5 41t31.5 58t18 65.5q5 24 7 47t2 43q0 156 -117 156zM338 590q-49 0 -77.5 29t-33.5 79l42 11q8 -23 25.5 -39.5t49.5 -16.5q24 0 45.5 13t37.5 43l41 -12q-14 -51 -48.5 -79t-81.5 -28z" />
    <glyph glyph-name="Ohungarumlaut" unicode="&#x150;" horiz-adv-x="736" 
d="M76 295q0 74 22 151.5t65 141t107.5 104t149.5 40.5q73 0 125 -24.5t85 -66.5t48 -96.5t15 -114.5q0 -77 -21.5 -156t-64.5 -144t-107.5 -106t-150.5 -41q-63 0 -113.5 20.5t-86 60.5t-54.5 98t-19 133zM349 50q65 0 111 31t77 81q36 59 52.5 133t16.5 144
q0 105 -46.5 165.5t-139.5 60.5q-61 0 -106.5 -30t-76.5 -79q-37 -57 -54.5 -128.5t-17.5 -141.5q0 -51 11 -94.5t33.5 -75t57 -49t82.5 -17.5zM342 786l65 118h101l-105 -118h-61zM492 786l65 118h101l-105 -118h-61z" />
    <glyph glyph-name="ohungarumlaut" unicode="&#x151;" horiz-adv-x="558" 
d="M503 307q0 -56 -15.5 -112t-47 -102t-79 -74.5t-111.5 -28.5q-50 0 -86.5 16.5t-61.5 46t-37 70.5t-12 90q0 55 15.5 111.5t47 101.5t79 73.5t111.5 28.5q54 0 91.5 -18t61 -48.5t34 -70.5t10.5 -84zM305 472q-38 0 -66 -16t-47.5 -41.5t-31.5 -57.5t-18 -64
q-5 -24 -6.5 -47t-1.5 -42q0 -79 30 -118.5t87 -39.5q37 0 65 15.5t47.5 41t31.5 58t18 65.5q5 24 7 47t2 43q0 156 -117 156zM351 588l57 138h79l-87 -138h-49zM226 588l57 138h79l-87 -138h-49z" />
    <glyph glyph-name="OE" unicode="&#x152;" horiz-adv-x="947" 
d="M442 67l103 581h-125q-66 0 -114 -32t-79.5 -84t-46.5 -116.5t-15 -129.5q0 -103 44 -161t140 -58h93zM349 0q-126 0 -199.5 72.5t-73.5 222.5q0 74 22 149t65 135.5t107.5 98.5t149.5 38h529l-13 -67h-309l-45 -255h235l-12 -67h-235l-46 -260h346l-13 -67h-508z" />
    <glyph glyph-name="oe" unicode="&#x153;" horiz-adv-x="894" 
d="M603 -10q-73 0 -113 32t-56 86q-28 -52 -74 -85t-114 -33q-48 0 -84.5 16.5t-60.5 45.5t-36 70t-12 90q0 55 15.5 111.5t46 102t77.5 74t110 28.5q38 0 66 -9.5t48.5 -26.5t33.5 -40t20 -51q14 27 33 50t43 40t54 26.5t66 9.5q54 0 91.5 -19.5t59 -55.5t26.5 -87t-6 -114
h-344q-3 -26 -3 -51q0 -74 30.5 -113.5t88.5 -39.5q60 0 98 38.5t50 98.5l62 -20q-8 -36 -25.5 -68t-44.5 -55.5t-63.5 -37t-82.5 -13.5zM301 472q-37 0 -64 -16t-46 -41.5t-31 -58t-18 -64.5q-5 -24 -6.5 -47t-1.5 -42q0 -79 29.5 -118.5t83.5 -38.5q37 0 64 16t46 41.5
t30.5 57.5t17.5 65q5 24 7 47t2 43q0 78 -26.5 117t-86.5 39zM502 304h261q16 78 -11.5 122.5t-90.5 44.5q-33 0 -58.5 -13.5t-45 -36t-33 -52t-21.5 -62.5z" />
    <glyph glyph-name="Racute" unicode="&#x154;" horiz-adv-x="675" 
d="M250 649l-47 -266h188q43 0 72.5 12t47.5 33t25.5 49.5t7.5 60.5q0 25 -7 45.5t-24.5 35t-45.5 22.5t-70 8h-147zM191 316l-56 -316h-82l127 716h227q58 0 100.5 -14t70 -38t40.5 -56.5t13 -69.5q0 -85 -50 -140t-139 -66v-4q17 -6 30.5 -17t23.5 -28t17.5 -43t13.5 -62
q7 -41 13 -68t12.5 -43.5t15 -26t19.5 -15.5l-3 -25h-92q-18 23 -26.5 62.5t-17.5 93.5q-7 43 -14.5 73t-21 49.5t-36.5 28.5t-62 9h-123zM408 782l61 118h107l-106 -118h-62z" />
    <glyph glyph-name="racute" unicode="&#x155;" horiz-adv-x="422" 
d="M135 518h60l-19 -148h5q26 75 67 116.5t92 41.5q46 0 68.5 -28t22.5 -66q0 -5 -0.5 -10.5t-1.5 -10.5l-67 -17q1 5 1.5 9t0.5 9q0 23 -11.5 36.5t-34.5 13.5q-27 0 -52.5 -22t-47 -58.5t-38.5 -85.5t-26 -103l-34 -195h-77zM244 588l60 138h87l-91 -138h-56z" />
    <glyph glyph-name="uni0156" unicode="&#x156;" horiz-adv-x="675" 
d="M250 649l-47 -266h188q43 0 72.5 12t47.5 33t25.5 49.5t7.5 60.5q0 25 -7 45.5t-24.5 35t-45.5 22.5t-70 8h-147zM191 316l-56 -316h-82l127 716h227q58 0 100.5 -14t70 -38t40.5 -56.5t13 -69.5q0 -85 -50 -140t-139 -66v-4q17 -6 30.5 -17t23.5 -28t17.5 -43t13.5 -62
q7 -41 13 -68t12.5 -43.5t15 -26t19.5 -15.5l-3 -25h-92q-18 23 -26.5 62.5t-17.5 93.5q-7 43 -14.5 73t-21 49.5t-36.5 28.5t-62 9h-123zM237 -185l50 35l1 9h-43l12 71h80l-17 -99l-90 -61z" />
    <glyph glyph-name="uni0157" unicode="&#x157;" horiz-adv-x="422" 
d="M135 518h60l-19 -148h5q26 75 67 116.5t92 41.5q46 0 68.5 -28t22.5 -66q0 -5 -0.5 -10.5t-1.5 -10.5l-67 -17q1 5 1.5 9t0.5 9q0 23 -11.5 36.5t-34.5 13.5q-27 0 -52.5 -22t-47 -58.5t-38.5 -85.5t-26 -103l-34 -195h-77zM11 -185l50 35l1 9h-43l12 71h80l-17 -99
l-90 -61z" />
    <glyph glyph-name="Rcaron" unicode="&#x158;" horiz-adv-x="675" 
d="M250 649l-47 -266h188q43 0 72.5 12t47.5 33t25.5 49.5t7.5 60.5q0 25 -7 45.5t-24.5 35t-45.5 22.5t-70 8h-147zM191 316l-56 -316h-82l127 716h227q58 0 100.5 -14t70 -38t40.5 -56.5t13 -69.5q0 -85 -50 -140t-139 -66v-4q17 -6 30.5 -17t23.5 -28t17.5 -43t13.5 -62
q7 -41 13 -68t12.5 -43.5t15 -26t19.5 -15.5l-3 -25h-92q-18 23 -26.5 62.5t-17.5 93.5q-7 43 -14.5 73t-21 49.5t-36.5 28.5t-62 9h-123zM443 830l70 60h86l-128 -110h-70l-90 110h84z" />
    <glyph glyph-name="rcaron" unicode="&#x159;" horiz-adv-x="422" 
d="M135 518h60l-19 -148h5q26 75 67 116.5t92 41.5q46 0 68.5 -28t22.5 -66q0 -5 -0.5 -10.5t-1.5 -10.5l-67 -17q1 5 1.5 9t0.5 9q0 23 -11.5 36.5t-34.5 13.5q-27 0 -52.5 -22t-47 -58.5t-38.5 -85.5t-26 -103l-34 -195h-77zM192 713h71l39 -83l66 83h72l-111 -125h-70z
" />
    <glyph glyph-name="Sacute" unicode="&#x15a;" horiz-adv-x="624" 
d="M306 -16q-60 0 -107.5 19t-80.5 51.5t-50.5 74.5t-16.5 88l79 23q-3 -38 7.5 -72t33 -59.5t57.5 -41t81 -15.5q42 0 71 11.5t48 29.5t27.5 41t8.5 46q0 25 -9 45t-27.5 38t-47 35t-68.5 37q-41 21 -76 39.5t-60 41t-39 50.5t-14 67t14 75t42.5 63.5t71.5 44t102 16.5
q58 0 101.5 -16.5t72.5 -45.5t43 -68t13 -85l-75 -15q1 36 -8 65.5t-28 51.5t-49 34t-70 12q-39 0 -67 -10t-46.5 -26.5t-27 -38t-8.5 -43.5q0 -23 8.5 -40.5t26 -33.5t45 -31t65.5 -34q45 -22 81.5 -43.5t62.5 -46t40.5 -54.5t14.5 -69q0 -41 -15.5 -79t-45.5 -67.5
t-75.5 -47t-105.5 -17.5zM346 782l61 118h107l-106 -118h-62z" />
    <glyph glyph-name="sacute" unicode="&#x15b;" horiz-adv-x="464" 
d="M100 173q-3 -60 27 -93t85 -33q47 0 75.5 21t28.5 66q0 13 -4.5 25t-16 23t-31 23t-50.5 25q-26 11 -49 24t-40 30t-27 39t-10 51q0 28 10 55.5t30.5 49.5t52 35.5t75.5 13.5q42 0 73 -11.5t51.5 -32.5t29.5 -49.5t7 -62.5l-71 -11q5 54 -17 83t-73 29q-27 0 -45 -7
t-29.5 -19t-16 -27t-4.5 -31q0 -17 4.5 -29t15.5 -22.5t28 -20.5t43 -22q32 -15 57.5 -28.5t43.5 -30t28 -37.5t10 -51q0 -32 -12 -60.5t-34.5 -50.5t-56 -34.5t-76.5 -12.5q-50 0 -84.5 14.5t-56 38.5t-31 54t-9.5 61zM248 588l60 138h87l-91 -138h-56z" />
    <glyph glyph-name="Scircumflex" unicode="&#x15c;" horiz-adv-x="624" 
d="M306 -16q-60 0 -107.5 19t-80.5 51.5t-50.5 74.5t-16.5 88l79 23q-3 -38 7.5 -72t33 -59.5t57.5 -41t81 -15.5q42 0 71 11.5t48 29.5t27.5 41t8.5 46q0 25 -9 45t-27.5 38t-47 35t-68.5 37q-41 21 -76 39.5t-60 41t-39 50.5t-14 67t14 75t42.5 63.5t71.5 44t102 16.5
q58 0 101.5 -16.5t72.5 -45.5t43 -68t13 -85l-75 -15q1 36 -8 65.5t-28 51.5t-49 34t-70 12q-39 0 -67 -10t-46.5 -26.5t-27 -38t-8.5 -43.5q0 -23 8.5 -40.5t26 -33.5t45 -31t65.5 -34q45 -22 81.5 -43.5t62.5 -46t40.5 -54.5t14.5 -69q0 -41 -15.5 -79t-45.5 -67.5
t-75.5 -47t-105.5 -17.5zM399 842l-70 -60h-86l128 110h70l90 -110h-84z" />
    <glyph glyph-name="scircumflex" unicode="&#x15d;" horiz-adv-x="464" 
d="M100 173q-3 -60 27 -93t85 -33q47 0 75.5 21t28.5 66q0 13 -4.5 25t-16 23t-31 23t-50.5 25q-26 11 -49 24t-40 30t-27 39t-10 51q0 28 10 55.5t30.5 49.5t52 35.5t75.5 13.5q42 0 73 -11.5t51.5 -32.5t29.5 -49.5t7 -62.5l-71 -11q5 54 -17 83t-73 29q-27 0 -45 -7
t-29.5 -19t-16 -27t-4.5 -31q0 -17 4.5 -29t15.5 -22.5t28 -20.5t43 -22q32 -15 57.5 -28.5t43.5 -30t28 -37.5t10 -51q0 -32 -12 -60.5t-34.5 -50.5t-56 -34.5t-76.5 -12.5q-50 0 -84.5 14.5t-56 38.5t-31 54t-9.5 61zM299 671l-66 -83h-72l111 125h70l67 -125h-71z" />
    <glyph glyph-name="uni015E" unicode="&#x15e;" horiz-adv-x="624" 
d="M238 -233q-38 0 -64 16t-41 36l33 36q12 -18 29 -30.5t43 -12.5q22 0 35 14t13 36q0 20 -13.5 28t-24.5 8q-27 0 -43 -23l-41 20l64 98l-30 10q-47 19 -80 51.5t-50.5 74.5t-16.5 88l79 23q-3 -38 7.5 -72t33 -59.5t57.5 -41t81 -15.5q42 0 71 11.5t48 29.5t27.5 41
t8.5 46q0 25 -9 45t-27.5 38t-47 35t-68.5 37q-41 21 -76 39.5t-60 41t-39 50.5t-14 67t14 75t42.5 63.5t71.5 44t102 16.5q58 0 101.5 -16.5t72.5 -45.5t43 -68t13 -85l-75 -15q1 36 -8 65.5t-28 51.5t-49 34t-70 12q-39 0 -67 -10t-46.5 -26.5t-27 -38t-8.5 -43.5
q0 -23 8.5 -40.5t26 -33.5t45 -31t65.5 -34q45 -22 81.5 -43.5t62.5 -46t40.5 -54.5t14.5 -69q0 -41 -15.5 -79t-45.5 -67.5t-75.5 -47t-105.5 -17.5q-15 0 -28 1l-32 -46q5 1 10.5 1.5t10.5 0.5q33 0 59 -20.5t26 -58.5q0 -47 -33.5 -71t-80.5 -24z" />
    <glyph glyph-name="uni015F" unicode="&#x15f;" horiz-adv-x="464" 
d="M166 -236q-38 0 -64 16t-41 36l33 36q12 -18 29 -30.5t43 -12.5q22 0 35 14t13 36q0 20 -13.5 28t-24.5 8q-27 0 -43 -23l-41 20l67 103q-17 4 -32 9q-34 15 -55.5 39t-31 54t-9.5 61l69 15q-3 -60 27 -93t85 -33q47 0 75.5 21t28.5 66q0 13 -4.5 25t-16 23t-31 23
t-50.5 25q-26 11 -49 24t-40 30t-27 39t-10 51q0 28 10 55.5t30.5 49.5t52 35.5t75.5 13.5q42 0 73 -11.5t51.5 -32.5t29.5 -49.5t7 -62.5l-71 -11q5 54 -17 83t-73 29q-27 0 -45 -7t-29.5 -19t-16 -27t-4.5 -31q0 -17 4.5 -29t15.5 -22.5t28 -20.5t43 -22
q32 -15 57.5 -28.5t43.5 -30t28 -37.5t10 -51q0 -32 -12 -60.5t-34.5 -50.5t-56 -34.5t-76.5 -12.5h-1l-37 -54q5 1 10.5 1.5t10.5 0.5q33 0 59 -20.5t26 -58.5q0 -47 -33.5 -71t-80.5 -24z" />
    <glyph glyph-name="Scaron" unicode="&#x160;" horiz-adv-x="624" 
d="M306 -16q-60 0 -107.5 19t-80.5 51.5t-50.5 74.5t-16.5 88l79 23q-3 -38 7.5 -72t33 -59.5t57.5 -41t81 -15.5q42 0 71 11.5t48 29.5t27.5 41t8.5 46q0 25 -9 45t-27.5 38t-47 35t-68.5 37q-41 21 -76 39.5t-60 41t-39 50.5t-14 67t14 75t42.5 63.5t71.5 44t102 16.5
q58 0 101.5 -16.5t72.5 -45.5t43 -68t13 -85l-75 -15q1 36 -8 65.5t-28 51.5t-49 34t-70 12q-39 0 -67 -10t-46.5 -26.5t-27 -38t-8.5 -43.5q0 -23 8.5 -40.5t26 -33.5t45 -31t65.5 -34q45 -22 81.5 -43.5t62.5 -46t40.5 -54.5t14.5 -69q0 -41 -15.5 -79t-45.5 -67.5
t-75.5 -47t-105.5 -17.5zM389 830l70 60h86l-128 -110h-70l-90 110h84z" />
    <glyph glyph-name="scaron" unicode="&#x161;" horiz-adv-x="464" 
d="M100 173q-3 -60 27 -93t85 -33q47 0 75.5 21t28.5 66q0 13 -4.5 25t-16 23t-31 23t-50.5 25q-26 11 -49 24t-40 30t-27 39t-10 51q0 28 10 55.5t30.5 49.5t52 35.5t75.5 13.5q42 0 73 -11.5t51.5 -32.5t29.5 -49.5t7 -62.5l-71 -11q5 54 -17 83t-73 29q-27 0 -45 -7
t-29.5 -19t-16 -27t-4.5 -31q0 -17 4.5 -29t15.5 -22.5t28 -20.5t43 -22q32 -15 57.5 -28.5t43.5 -30t28 -37.5t10 -51q0 -32 -12 -60.5t-34.5 -50.5t-56 -34.5t-76.5 -12.5q-50 0 -84.5 14.5t-56 38.5t-31 54t-9.5 61zM181 713h71l39 -83l66 83h72l-111 -125h-70z" />
    <glyph glyph-name="Tcommaaccent" unicode="&#x162;" horiz-adv-x="572" 
d="M394 649l-115 -649h-82l115 649h-229l13 67h539l-13 -67h-228zM166 -185l50 35l1 9h-43l12 71h80l-17 -99l-90 -61z" />
    <glyph glyph-name="tcommaaccent" unicode="&#x163;" horiz-adv-x="367" 
d="M224 -4q-84 0 -111 41.5t-13 120.5l54 301h-102l11 59h103l38 207h77l-38 -207h120l-9 -59h-123l-56 -313q-9 -50 7 -69t68 -19q11 0 22.5 0.5t22.5 1.5l-12 -60q-19 -2 -33.5 -3t-25.5 -1zM106 -185l50 35l1 9h-43l12 71h80l-17 -99l-90 -61z" />
    <glyph glyph-name="Tcaron" unicode="&#x164;" horiz-adv-x="572" 
d="M394 649l-115 -649h-82l115 649h-229l13 67h539l-13 -67h-228zM375 830l70 60h86l-128 -110h-70l-90 110h84z" />
    <glyph glyph-name="tcaron" unicode="&#x165;" horiz-adv-x="367" 
d="M224 -4q-84 0 -111 41.5t-13 120.5l54 301h-102l11 59h103l38 207h77l-38 -207h120l-9 -59h-123l-56 -313q-9 -50 7 -69t68 -19q11 0 22.5 0.5t22.5 1.5l-12 -60q-19 -2 -33.5 -3t-25.5 -1zM453 782l-66 -171h-59l48 171h77z" />
    <glyph glyph-name="Tbar" unicode="&#x166;" horiz-adv-x="572" 
d="M118 398h385l-12 -67h-385zM394 649l-115 -649h-82l115 649h-229l13 67h539l-13 -67h-228z" />
    <glyph glyph-name="tbar" unicode="&#x167;" horiz-adv-x="367" 
d="M47 326h301l-9 -51h-301zM242 -4q-84 0 -111 41.5t-13 120.5l54 301h-102l11 59h103l38 207h77l-38 -207h120l-9 -59h-123l-56 -313q-9 -50 7 -69t68 -19q11 0 22.5 0.5t22.5 1.5l-12 -60q-19 -2 -33.5 -3t-25.5 -1z" />
    <glyph glyph-name="Utilde" unicode="&#x168;" horiz-adv-x="704" 
d="M177 716h82l-74 -416q-11 -60 -8.5 -106t20 -77t51 -46.5t85.5 -15.5q78 0 125 47t65 150l83 464h80l-85 -478q-23 -128 -92.5 -191t-178.5 -63q-62 0 -111 19t-79.5 58t-41 98.5t4.5 140.5zM401 887q18 0 33 -6t28.5 -13t26.5 -13t27 -6q20 0 30.5 11.5t16.5 30.5
l40 -10q-8 -48 -33 -74t-61 -26q-17 0 -32 6t-28.5 13t-26.5 13t-27 6q-20 0 -30.5 -11t-18.5 -30l-38 9q7 48 32.5 74t60.5 26z" />
    <glyph glyph-name="utilde" unicode="&#x169;" horiz-adv-x="563" 
d="M425 0h-61l17 135h-5q-25 -65 -71 -105t-110 -40q-75 0 -107.5 48.5t-15.5 139.5l61 340h77l-59 -331q-7 -40 -4.5 -66.5t13 -42t28 -21.5t39.5 -6q34 0 62 18t49.5 51t37 79t25.5 102l39 217h77zM288 634q-17 0 -25.5 -10t-13.5 -26l-33 10q6 42 27.5 65t53.5 23
q16 0 29.5 -5.5t25.5 -12.5t23.5 -12.5t23.5 -5.5q17 0 25 10.5t13 26.5l33 -11q-7 -42 -28 -65t-53 -23q-16 0 -29 5.5t-25 12.5t-23 12.5t-24 5.5z" />
    <glyph glyph-name="Umacron" unicode="&#x16a;" horiz-adv-x="704" 
d="M177 716h82l-74 -416q-11 -60 -8.5 -106t20 -77t51 -46.5t85.5 -15.5q78 0 125 47t65 150l83 464h80l-85 -478q-23 -128 -92.5 -191t-178.5 -63q-62 0 -111 19t-79.5 58t-41 98.5t4.5 140.5zM329 873h264l-13 -68h-264z" />
    <glyph glyph-name="umacron" unicode="&#x16b;" horiz-adv-x="563" 
d="M425 0h-61l17 135h-5q-25 -65 -71 -105t-110 -40q-75 0 -107.5 48.5t-15.5 139.5l61 340h77l-59 -331q-7 -40 -4.5 -66.5t13 -42t28 -21.5t39.5 -6q34 0 62 18t49.5 51t37 79t25.5 102l39 217h77zM235 669h224l-12 -63h-224z" />
    <glyph glyph-name="Ubreve" unicode="&#x16c;" horiz-adv-x="704" 
d="M177 716h82l-74 -416q-11 -60 -8.5 -106t20 -77t51 -46.5t85.5 -15.5q78 0 125 47t65 150l83 464h80l-85 -478q-23 -128 -92.5 -191t-178.5 -63q-62 0 -111 19t-79.5 58t-41 98.5t4.5 140.5zM452 780q-47 0 -83 25.5t-45 80.5l38 16q14 -28 39 -40.5t56 -12.5
q28 0 54.5 12t49.5 41l35 -17q-20 -53 -58 -79t-86 -26z" />
    <glyph glyph-name="ubreve" unicode="&#x16d;" horiz-adv-x="563" 
d="M425 0h-61l17 135h-5q-25 -65 -71 -105t-110 -40q-75 0 -107.5 48.5t-15.5 139.5l61 340h77l-59 -331q-7 -40 -4.5 -66.5t13 -42t28 -21.5t39.5 -6q34 0 62 18t49.5 51t37 79t25.5 102l39 217h77zM342 590q-49 0 -77.5 29t-33.5 79l42 11q8 -23 25.5 -39.5t49.5 -16.5
q24 0 45.5 13t37.5 43l41 -12q-14 -51 -48.5 -79t-81.5 -28z" />
    <glyph glyph-name="Uring" unicode="&#x16e;" horiz-adv-x="704" 
d="M177 716h82l-74 -416q-11 -60 -8.5 -106t20 -77t51 -46.5t85.5 -15.5q78 0 125 47t65 150l83 464h80l-85 -478q-23 -128 -92.5 -191t-178.5 -63q-62 0 -111 19t-79.5 58t-41 98.5t4.5 140.5zM548 840q0 -42 -26.5 -66t-67.5 -24t-67.5 24t-26.5 66t26.5 67t67.5 25
t67.5 -25t26.5 -67zM409 840q0 -23 13 -34.5t32 -11.5t32 11.5t13 34.5t-13 35.5t-32 12.5t-32 -12.5t-13 -35.5z" />
    <glyph glyph-name="uring" unicode="&#x16f;" horiz-adv-x="563" 
d="M425 0h-61l17 135h-5q-25 -65 -71 -105t-110 -40q-75 0 -107.5 48.5t-15.5 139.5l61 340h77l-59 -331q-7 -40 -4.5 -66.5t13 -42t28 -21.5t39.5 -6q34 0 62 18t49.5 51t37 79t25.5 102l39 217h77zM441 674q0 -42 -26 -66t-67 -24t-67 24t-26 66t26 67t67 25t67 -25
t26 -67zM304 675q0 -23 12.5 -34.5t31.5 -11.5t31.5 11.5t12.5 34.5t-12.5 34.5t-31.5 11.5t-31.5 -11.5t-12.5 -34.5z" />
    <glyph glyph-name="Uhungarumlaut" unicode="&#x170;" horiz-adv-x="704" 
d="M177 716h82l-74 -416q-11 -60 -8.5 -106t20 -77t51 -46.5t85.5 -15.5q78 0 125 47t65 150l83 464h80l-85 -478q-23 -128 -92.5 -191t-178.5 -63q-62 0 -111 19t-79.5 58t-41 98.5t4.5 140.5zM329 782l65 118h101l-105 -118h-61zM479 782l65 118h101l-105 -118h-61z" />
    <glyph glyph-name="uhungarumlaut" unicode="&#x171;" horiz-adv-x="563" 
d="M425 0h-61l17 135h-5q-25 -65 -71 -105t-110 -40q-75 0 -107.5 48.5t-15.5 139.5l61 340h77l-59 -331q-7 -40 -4.5 -66.5t13 -42t28 -21.5t39.5 -6q34 0 62 18t49.5 51t37 79t25.5 102l39 217h77zM354 588l57 138h79l-87 -138h-49zM229 588l57 138h79l-87 -138h-49z" />
    <glyph glyph-name="Uogonek" unicode="&#x172;" horiz-adv-x="704" 
d="M390 -214q-29 -17 -60 -17q-34 0 -56.5 20t-22.5 54q0 42 33 82q26 31 62 60q-8 -1 -16 -1q-62 0 -111 19t-79.5 58t-41 98.5t4.5 140.5l74 416h82l-74 -416q-11 -60 -8.5 -106t20 -77t51 -46.5t85.5 -15.5q78 0 125 47t65 150l83 464h80l-85 -478q-23 -128 -93 -191
q-35 -32 -80 -47h1q-33 -24 -53 -44.5t-31.5 -38.5t-15.5 -32.5t-4 -24.5q0 -16 8 -25.5t25 -9.5q13 0 26 5z" />
    <glyph glyph-name="uogonek" unicode="&#x173;" horiz-adv-x="563" 
d="M425 0h-61l17 135h-5q-25 -65 -71 -105t-110 -40q-75 0 -107.5 48.5t-15.5 139.5l61 340h77l-59 -331q-7 -40 -4.5 -66.5t13 -42t28 -21.5t39.5 -6q34 0 62 18t49.5 51t37 79t25.5 102l39 217h77zM386 -214q-29 -17 -60 -17q-34 0 -56.5 20t-22.5 54q0 42 33 81.5
t84 75.5h61q-33 -24 -53 -44.5t-31.5 -38.5t-15.5 -32.5t-4 -24.5q0 -16 8 -25.5t25 -9.5q13 0 26 5z" />
    <glyph glyph-name="Wcircumflex" unicode="&#x174;" horiz-adv-x="891" 
d="M498 568h-1l-255 -572h-74l-68 720h81l47 -589h2l258 589h74l52 -589h2l254 589h79l-321 -720h-73zM551 842l-70 -60h-86l128 110h70l90 -110h-84z" />
    <glyph glyph-name="wcircumflex" unicode="&#x175;" horiz-adv-x="731" 
d="M67 518h74l39 -414h6l187 414h75l36 -414h5l191 414h72l-244 -524h-74l-43 419h-1l-191 -419h-75zM432 671l-66 -83h-72l111 125h70l67 -125h-71z" />
    <glyph glyph-name="Ycircumflex" unicode="&#x176;" horiz-adv-x="555" 
d="M189 0l56 316l-148 400h82l120 -330h5l228 330h84l-291 -411l-54 -305h-82zM383 842l-70 -60h-86l128 110h70l90 -110h-84z" />
    <glyph glyph-name="ycircumflex" unicode="&#x177;" horiz-adv-x="455" 
d="M-37 -163q38 -3 63 -1.5t43 8.5q26 10 41 33t34 65l24 53l-109 523h77l81 -419h3l190 419h73l-268 -575q-14 -30 -26.5 -54.5t-26 -44.5t-29.5 -34.5t-37 -23.5q-30 -13 -63.5 -13.5t-78.5 3.5zM293 671l-66 -83h-72l111 125h70l67 -125h-71z" />
    <glyph glyph-name="Ydieresis" unicode="&#x178;" horiz-adv-x="555" 
d="M189 0l56 316l-148 400h82l120 -330h5l228 330h84l-291 -411l-54 -305h-82zM252 882h89l-16 -85h-89zM430 882h89l-16 -85h-89z" />
    <glyph glyph-name="Zacute" unicode="&#x179;" horiz-adv-x="606" 
d="M-1 0l14 72l511 576h-394l13 68h487l-13 -72l-509 -576h417l-13 -68h-513zM357 782l61 118h107l-106 -118h-62z" />
    <glyph glyph-name="zacute" unicode="&#x17a;" horiz-adv-x="442" 
d="M-1 61l343 397h-264l11 60h351l-11 -61l-343 -397h288l-10 -60h-377zM238 588l60 138h87l-91 -138h-56z" />
    <glyph glyph-name="Zdotaccent" unicode="&#x17b;" horiz-adv-x="606" 
d="M-1 0l14 72l511 576h-394l13 68h487l-13 -72l-509 -576h417l-13 -68h-513zM369 882h87l-16 -88h-87z" />
    <glyph glyph-name="zdotaccent" unicode="&#x17c;" horiz-adv-x="442" 
d="M-1 61l343 397h-264l11 60h351l-11 -61l-343 -397h288l-10 -60h-377zM260 698h77l-16 -88h-77z" />
    <glyph glyph-name="Zcaron" unicode="&#x17d;" horiz-adv-x="606" 
d="M-1 0l14 72l511 576h-394l13 68h487l-13 -72l-509 -576h417l-13 -68h-513zM392 830l70 60h86l-128 -110h-70l-90 110h84z" />
    <glyph glyph-name="zcaron" unicode="&#x17e;" horiz-adv-x="442" 
d="M-1 61l343 397h-264l11 60h351l-11 -61l-343 -397h288l-10 -60h-377zM171 713h71l39 -83l66 83h72l-111 -125h-70z" />
    <glyph glyph-name="uni0192" unicode="&#x192;" horiz-adv-x="461" 
d="M67 -87q-30 -6 -57.5 -5t-55.5 6l16 62q29 -5 48.5 -5t39.5 8q12 5 21.5 12.5t18 20.5t16 33t15.5 50l58 235h-106l12 60h109l45 181q18 74 51 108t83 44q30 6 59.5 4t54.5 -10l-16 -62q-23 7 -46 8.5t-43 -6.5q-12 -5 -21.5 -12.5t-17.5 -20.5t-16 -33t-15 -50l-37 -151
h126l-12 -60h-129l-66 -265q-18 -74 -51.5 -108t-83.5 -44z" />
    <glyph glyph-name="Aringacute" unicode="&#x1fa;" horiz-adv-x="622" 
d="M400 935l61 118h107l-106 -118h-62zM184 234h242l-55 346h-8zM437 167h-288l-86 -167h-82l382 720h65l119 -720h-84zM504 828q0 -42 -26.5 -66t-67.5 -24t-67.5 24t-26.5 66t26.5 67t67.5 25t67.5 -25t26.5 -67zM365 828q0 -23 13 -34.5t32 -11.5t32 11.5t13 34.5
t-13 35.5t-32 12.5t-32 -12.5t-13 -35.5z" />
    <glyph glyph-name="aringacute" unicode="&#x1fb;" horiz-adv-x="545" 
d="M311 761l60 138h87l-91 -138h-56zM334 82q-11 -18 -25.5 -34.5t-33.5 -29t-42.5 -20.5t-52.5 -8q-28 0 -53.5 8t-44.5 24t-30.5 39.5t-11.5 54.5q0 42 17.5 70.5t45.5 48.5t63 32t71 21l137 33l6 32q11 57 -8.5 88t-75.5 31q-26 0 -48.5 -7t-39 -22.5t-26 -39.5t-8.5 -58
l-71 10q0 45 14.5 77.5t40 54t61.5 31.5t78 10q94 0 134 -46t26 -124l-40 -222q-5 -27 -5.5 -44.5t6 -27.5t21 -13.5t40.5 -1.5l18 1l-8 -50q-14 -5 -31 -7.5t-35 -2.5q-27 0 -44 7.5t-26.5 20.5t-13 29.5t-3.5 34.5h-2zM366 272q-13 -3 -29.5 -7.5t-34 -9.5t-34.5 -9.5
t-30 -8.5q-51 -14 -84 -41.5t-33 -72.5q0 -21 7.5 -35.5t20 -23.5t28 -13t30.5 -4q23 0 46 9.5t42.5 26.5t33.5 42t20 56zM423 645q0 -42 -26 -66t-67 -24t-67 24t-26 66t26 67t67 25t67 -25t26 -67zM286 646q0 -23 12.5 -34.5t31.5 -11.5t31.5 11.5t12.5 34.5t-12.5 34.5
t-31.5 11.5t-31.5 -11.5t-12.5 -34.5z" />
    <glyph glyph-name="AEacute" unicode="&#x1fc;" horiz-adv-x="913" 
d="M210 236h228l73 413h-7zM426 169h-264l-120 -169h-83l511 716h445l-13 -67h-309l-45 -255h235l-12 -67h-235l-46 -260h346l-13 -67h-427zM594 782l61 118h107l-106 -118h-62z" />
    <glyph glyph-name="aeacute" unicode="&#x1fd;" horiz-adv-x="846" 
d="M767 162q-8 -36 -25.5 -67.5t-44 -55t-63 -36.5t-82.5 -13q-77 0 -119.5 37t-57.5 96h-10q-15 -35 -35 -60.5t-43.5 -41.5t-49.5 -23.5t-53 -7.5q-30 0 -56.5 8t-46 24t-30.5 39.5t-11 54.5q0 42 17.5 70.5t45.5 48.5t63 32t71 21l137 33l6 32q11 57 -9 88t-74 31
q-52 0 -87.5 -30t-33.5 -97l-73 10q0 45 14.5 77.5t40 54t61.5 31.5t78 10q64 0 99.5 -23.5t46.5 -61.5q30 37 73 60.5t102 23.5q54 0 91.5 -19.5t59 -55.5t26.5 -87t-6 -114h-349q-3 -27 -3 -53q0 -74 31.5 -112.5t89.5 -38.5q60 0 97.5 37.5t49.5 97.5zM366 272
q-13 -3 -29.5 -7.5t-34 -9.5t-34.5 -9.5t-30 -8.5q-51 -14 -84 -41.5t-33 -72.5q0 -21 7.5 -35.5t19.5 -23.5t27.5 -13t31.5 -4q23 0 46 9.5t42.5 26.5t33.5 42t20 56zM449 304h266q16 78 -11.5 122.5t-90.5 44.5q-35 0 -61.5 -13.5t-46.5 -36t-33.5 -52t-21.5 -62.5z
M442 588l60 138h87l-91 -138h-56z" />
    <glyph glyph-name="Oslashacute" unicode="&#x1fe;" horiz-adv-x="740" 
d="M163 286q0 -62 16 -109l391 421q-24 32 -60.5 49.5t-86.5 17.5q-65 0 -111 -30t-77 -79q-37 -57 -54.5 -128.5t-17.5 -141.5zM352 50q69 0 115.5 31t77.5 81q36 59 52.5 133t16.5 144q0 58 -15 103l-392 -422q23 -33 58.5 -51.5t86.5 -18.5zM352 -17q-63 0 -113 21
t-85 59l-94 -101l-41 43l100 107q-43 77 -43 183q0 74 22 151.5t65.5 141t108.5 104t151 40.5q67 0 116 -21.5t82 -57.5l93 100l41 -43l-98 -105q22 -39 32 -84t10 -91q0 -77 -21.5 -156t-64.5 -144t-108.5 -106t-152.5 -41zM425 782l61 118h107l-106 -118h-62z" />
    <glyph glyph-name="oslashacute" unicode="&#x1ff;" horiz-adv-x="566" 
d="M135 202q0 -36 6 -63l267 290q-30 44 -97 44q-30 0 -53.5 -10t-42 -27.5t-32 -40t-22.5 -47.5q-14 -38 -20 -77t-6 -69zM257 45q29 0 52 9.5t41.5 25.5t32 38t22.5 46q15 38 21.5 79.5t6.5 74.5q0 17 -1.5 32t-3.5 29l-267 -290q30 -44 96 -44zM256 -10q-45 0 -79.5 13.5
t-59.5 38.5l-73 -80l-36 33l79 86q-30 54 -30 132q0 55 16 111.5t47.5 101.5t79.5 73.5t112 28.5q47 0 81.5 -13.5t58.5 -37.5l66 72l36 -33l-72 -79q15 -28 22 -61t7 -69q0 -56 -16 -112t-47.5 -102t-79.5 -74.5t-112 -28.5zM298 588l60 138h87l-91 -138h-56z" />
    <glyph glyph-name="uni0218" unicode="&#x218;" horiz-adv-x="624" 
d="M306 -16q-60 0 -107.5 19t-80.5 51.5t-50.5 74.5t-16.5 88l79 23q-3 -38 7.5 -72t33 -59.5t57.5 -41t81 -15.5q42 0 71 11.5t48 29.5t27.5 41t8.5 46q0 25 -9 45t-27.5 38t-47 35t-68.5 37q-41 21 -76 39.5t-60 41t-39 50.5t-14 67t14 75t42.5 63.5t71.5 44t102 16.5
q58 0 101.5 -16.5t72.5 -45.5t43 -68t13 -85l-75 -15q1 36 -8 65.5t-28 51.5t-49 34t-70 12q-39 0 -67 -10t-46.5 -26.5t-27 -38t-8.5 -43.5q0 -23 8.5 -40.5t26 -33.5t45 -31t65.5 -34q45 -22 81.5 -43.5t62.5 -46t40.5 -54.5t14.5 -69q0 -41 -15.5 -79t-45.5 -67.5
t-75.5 -47t-105.5 -17.5zM195 -182l50 35l1 9h-43l12 71h80l-17 -99l-90 -61z" />
    <glyph glyph-name="uni0219" unicode="&#x219;" horiz-adv-x="464" 
d="M100 173q-3 -60 27 -93t85 -33q47 0 75.5 21t28.5 66q0 13 -4.5 25t-16 23t-31 23t-50.5 25q-26 11 -49 24t-40 30t-27 39t-10 51q0 28 10 55.5t30.5 49.5t52 35.5t75.5 13.5q42 0 73 -11.5t51.5 -32.5t29.5 -49.5t7 -62.5l-71 -11q5 54 -17 83t-73 29q-27 0 -45 -7
t-29.5 -19t-16 -27t-4.5 -31q0 -17 4.5 -29t15.5 -22.5t28 -20.5t43 -22q32 -15 57.5 -28.5t43.5 -30t28 -37.5t10 -51q0 -32 -12 -60.5t-34.5 -50.5t-56 -34.5t-76.5 -12.5q-50 0 -84.5 14.5t-56 38.5t-31 54t-9.5 61zM108 -185l50 35l1 9h-43l12 71h80l-17 -99l-90 -61z
" />
    <glyph glyph-name="uni021A" unicode="&#x21a;" horiz-adv-x="572" 
d="M394 649l-115 -649h-82l115 649h-229l13 67h539l-13 -67h-228zM166 -185l50 35l1 9h-43l12 71h80l-17 -99l-90 -61z" />
    <glyph glyph-name="uni021B" unicode="&#x21b;" horiz-adv-x="367" 
d="M224 -4q-84 0 -111 41.5t-13 120.5l54 301h-102l11 59h103l38 207h77l-38 -207h120l-9 -59h-123l-56 -313q-9 -50 7 -69t68 -19q11 0 22.5 0.5t22.5 1.5l-12 -60q-19 -2 -33.5 -3t-25.5 -1zM106 -185l50 35l1 9h-43l12 71h80l-17 -99l-90 -61z" />
    <glyph glyph-name="uni0237" unicode="&#x237;" horiz-adv-x="258" 
d="M110 -67q-8 -47 -25 -78t-40 -49t-52 -25.5t-62 -7.5q-25 0 -52 3l11 61q24 -3 43 -3q44 0 68 23.5t35 89.5l99 571h77l-102 -585v0z" />
    <glyph glyph-name="circumflex" unicode="&#x2c6;" 
d="M277 671l-66 -83h-72l111 125h70l67 -125h-71z" />
    <glyph glyph-name="caron" unicode="&#x2c7;" 
d="M161 713h71l39 -83l66 83h72l-111 -125h-70z" />
    <glyph glyph-name="breve" unicode="&#x2d8;" 
d="M273 590q-49 0 -77.5 29t-33.5 79l42 11q8 -23 25.5 -39.5t49.5 -16.5q24 0 45.5 13t37.5 43l41 -12q-14 -51 -48.5 -79t-81.5 -28z" />
    <glyph glyph-name="dotaccent" unicode="&#x2d9;" 
d="M244 698h77l-16 -88h-77z" />
    <glyph glyph-name="ring" unicode="&#x2da;" 
d="M371 674q0 -42 -26 -66t-67 -24t-67 24t-26 66t26 67t67 25t67 -25t26 -67zM234 675q0 -23 12.5 -34.5t31.5 -11.5t31.5 11.5t12.5 34.5t-12.5 34.5t-31.5 11.5t-31.5 -11.5t-12.5 -34.5z" />
    <glyph glyph-name="ogonek" unicode="&#x2db;" 
d="M193 -214q-29 -17 -60 -17q-34 0 -56.5 20t-22.5 54q0 42 33 81.5t84 75.5h61q-33 -24 -53 -44.5t-31.5 -38.5t-15.5 -32.5t-4 -24.5q0 -16 8 -25.5t25 -9.5q13 0 26 5l6 -44v0z" />
    <glyph glyph-name="tilde" unicode="&#x2dc;" 
d="M217 634q-17 0 -25.5 -10t-13.5 -26l-33 10q6 42 27.5 65t53.5 23q16 0 29.5 -5.5t25.5 -12.5t23.5 -12.5t23.5 -5.5q17 0 25 10.5t13 26.5l33 -11q-7 -42 -28 -65t-53 -23q-16 0 -29 5.5t-25 12.5t-23 12.5t-24 5.5z" />
    <glyph glyph-name="hungarumlaut" unicode="&#x2dd;" 
d="M270 588l57 138h79l-87 -138h-49zM145 588l57 138h79l-87 -138h-49z" />
    <glyph glyph-name="Wgrave" unicode="&#x1e80;" horiz-adv-x="891" 
d="M498 568h-1l-255 -572h-74l-68 720h81l47 -589h2l258 589h74l52 -589h2l254 589h79l-321 -720h-73zM421 900h107l55 -118h-62z" />
    <glyph glyph-name="wgrave" unicode="&#x1e81;" horiz-adv-x="731" 
d="M67 518h74l39 -414h6l187 414h75l36 -414h5l191 414h72l-244 -524h-74l-43 419h-1l-191 -419h-75zM335 726h86l45 -138h-56z" />
    <glyph glyph-name="Wacute" unicode="&#x1e82;" horiz-adv-x="891" 
d="M498 568h-1l-255 -572h-74l-68 720h81l47 -589h2l258 589h74l52 -589h2l254 589h79l-321 -720h-73zM499 782l61 118h107l-106 -118h-62z" />
    <glyph glyph-name="wacute" unicode="&#x1e83;" horiz-adv-x="731" 
d="M67 518h74l39 -414h6l187 414h75l36 -414h5l191 414h72l-244 -524h-74l-43 419h-1l-191 -419h-75zM381 588l60 138h87l-91 -138h-56z" />
    <glyph glyph-name="Wdieresis" unicode="&#x1e84;" horiz-adv-x="891" 
d="M498 568h-1l-255 -572h-74l-68 720h81l47 -589h2l258 589h74l52 -589h2l254 589h79l-321 -720h-73zM420 882h89l-16 -85h-89zM598 882h89l-16 -85h-89z" />
    <glyph glyph-name="wdieresis" unicode="&#x1e85;" horiz-adv-x="731" 
d="M67 518h74l39 -414h6l187 414h75l36 -414h5l191 414h72l-244 -524h-74l-43 419h-1l-191 -419h-75zM324 692h79l-15 -82h-79zM478 692h79l-15 -82h-79z" />
    <glyph glyph-name="Ygrave" unicode="&#x1ef2;" horiz-adv-x="555" 
d="M189 0l56 316l-148 400h82l120 -330h5l228 330h84l-291 -411l-54 -305h-82zM253 900h107l55 -118h-62z" />
    <glyph glyph-name="ygrave" unicode="&#x1ef3;" horiz-adv-x="455" 
d="M-37 -163q38 -3 63 -1.5t43 8.5q26 10 41 33t34 65l24 53l-109 523h77l81 -419h3l190 419h73l-268 -575q-14 -30 -26.5 -54.5t-26 -44.5t-29.5 -34.5t-37 -23.5q-30 -13 -63.5 -13.5t-78.5 3.5zM205 726h86l45 -138h-56z" />
    <glyph glyph-name="endash" unicode="&#x2013;" horiz-adv-x="560" 
d="M68 305h438l-12 -69h-438z" />
    <glyph glyph-name="emdash" unicode="&#x2014;" horiz-adv-x="740" 
d="M68 305h618l-12 -69h-618z" />
    <glyph glyph-name="quoteleft" unicode="&#x2018;" horiz-adv-x="196" 
d="M116 632l104 94l-13 -70l-67 -59l-1 -6h50l-22 -118h-80z" />
    <glyph glyph-name="quoteright" unicode="&#x2019;" horiz-adv-x="196" 
d="M196 557l-104 -94l13 70l67 60l1 5h-50l22 118h80z" />
    <glyph glyph-name="quotesinglbase" unicode="&#x201a;" horiz-adv-x="196" 
d="M90 -41l-104 -94l13 70l67 60l1 5h-50l22 118h80z" />
    <glyph glyph-name="quotedblleft" unicode="&#x201c;" horiz-adv-x="336" 
d="M116 632l104 94l-13 -70l-67 -59l-1 -6h50l-22 -118h-80zM227 473l29 159l104 94l-13 -70l-67 -59l-1 -6h50l-22 -118h-80z" />
    <glyph glyph-name="quotedblright" unicode="&#x201d;" horiz-adv-x="336" 
d="M336 557l-104 -94l13 70l67 59l1 6h-50l22 118h80zM225 716l-29 -159l-104 -94l13 70l67 59l1 6h-50l22 118h80z" />
    <glyph glyph-name="quotedblbase" unicode="&#x201e;" horiz-adv-x="336" 
d="M230 -41l-104 -94l13 70l67 59l1 6h-50l22 118h80zM119 118l-29 -159l-104 -94l13 70l67 59l1 6h-50l22 118h80z" />
    <glyph glyph-name="dagger" unicode="&#x2020;" horiz-adv-x="472" 
d="M248 533h-160l11 62h160l33 187h70l-33 -187h160l-11 -62h-160l-100 -570h-70z" />
    <glyph glyph-name="daggerdbl" unicode="&#x2021;" horiz-adv-x="473" 
d="M181 150h-160l11 62h160l56 321h-160l11 62h160l33 187h70l-33 -187h160l-11 -62h-160l-56 -321h160l-11 -62h-160l-33 -187h-70z" />
    <glyph glyph-name="bullet" unicode="&#x2022;" horiz-adv-x="410" 
d="M139 474h207l-36 -208h-207z" />
    <glyph glyph-name="ellipsis" unicode="&#x2026;" horiz-adv-x="742" 
d="M543 142h77l-26 -142h-77zM311 142h77l-26 -142h-77zM79 142h77l-26 -142h-77z" />
    <glyph glyph-name="perthousand" unicode="&#x2030;" horiz-adv-x="1117" 
d="M943 365q60 0 96 -41t36 -117q0 -46 -11 -86.5t-32 -71t-50.5 -48t-66.5 -17.5q-27 0 -51.5 9t-43 28.5t-29.5 49.5t-11 71q0 40 10.5 80t30.5 72t50.5 51.5t71.5 19.5zM943 310q-29 0 -48.5 -20.5t-30.5 -52.5q-8 -22 -11.5 -46.5t-3.5 -48.5q0 -29 5 -49t14 -32t21 -17
t26 -5q31 0 49.5 22t28.5 53q7 23 10 47.5t3 45.5q0 55 -17 79t-46 24zM88 1l571 731h75l-571 -731h-75zM238 732q60 0 96 -41t36 -117q0 -46 -11 -86.5t-32 -71t-50.5 -48t-66.5 -17.5q-27 0 -51.5 9t-43 28.5t-29.5 49.5t-11 71q0 40 10.5 80t30.5 72t50.5 51.5t71.5 19.5
zM238 677q-29 0 -48.5 -20.5t-30.5 -52.5q-8 -22 -11.5 -46.5t-3.5 -48.5q0 -29 5 -49t14 -32t21 -17t26 -5q31 0 49.5 22t28.5 53q7 23 10 47.5t3 45.5q0 55 -17 79t-46 24zM601 365q60 0 96 -41t36 -117q0 -46 -11 -86.5t-32 -71t-50.5 -48t-66.5 -17.5q-27 0 -51.5 9
t-43 28.5t-29.5 49.5t-11 71q0 40 10.5 80t30.5 72t50.5 51.5t71.5 19.5zM601 310q-29 0 -48.5 -20.5t-30.5 -52.5q-8 -22 -11.5 -46.5t-3.5 -48.5q0 -29 5 -49t14 -32t21 -17t26 -5q31 0 49.5 22t28.5 53q7 23 10 47.5t3 45.5q0 55 -17 79t-46 24z" />
    <glyph glyph-name="uni2032" unicode="&#x2032;" horiz-adv-x="236" 
d="M85 473l108 243h85l-136 -243h-57z" />
    <glyph glyph-name="uni2033" unicode="&#x2033;" horiz-adv-x="387" 
d="M236 473l108 243h85l-136 -243h-57zM85 473l108 243h85l-136 -243h-57z" />
    <glyph glyph-name="guilsinglleft" unicode="&#x2039;" horiz-adv-x="273" 
d="M35 259l178 182h65l-164 -185l98 -190h-65z" />
    <glyph glyph-name="guilsinglright" unicode="&#x203a;" horiz-adv-x="273" 
d="M221 248l-178 -182h-65l164 185l-98 190h65z" />
    <glyph glyph-name="fraction" unicode="&#x2044;" horiz-adv-x="195" 
d="M361 715h62l-557 -715h-62z" />
    <glyph glyph-name="Euro" unicode="&#x20ac;" horiz-adv-x="636" 
d="M578 207q-9 -57 -31 -98.5t-52.5 -69.5t-68.5 -41.5t-79 -13.5q-116 0 -171.5 70t-55.5 190v16h-94l11 57h86q2 20 5 41t8 42h-85l11 57h87q15 54 39.5 104t60 88t81.5 60.5t105 22.5q43 0 83 -14.5t67.5 -45t39.5 -77.5t-1 -112l-74 -21q12 58 7.5 97.5t-21 63.5
t-42.5 34.5t-59 10.5q-40 0 -72 -16.5t-57 -45.5t-43 -67.5t-30 -81.5h219l-11 -57h-221q-4 -20 -6.5 -41t-4.5 -42h217l-11 -57h-210v-24q0 -100 38 -144t112 -44q132 0 157 191l66 -32v0z" />
    <glyph glyph-name="trademark" unicode="&#x2122;" horiz-adv-x="610" 
d="M180 675h-86l8 41h220l-8 -41h-86l-45 -248h-48zM395 636l-38 -209h-46l52 289h58l40 -205l111 205h61l-52 -289h-46l38 208l-113 -208h-26z" />
    <glyph glyph-name="onethird" unicode="&#x2153;" horiz-adv-x="802" 
d="M130 342l53 301h-74l7 38l22 2q46 4 72 40h46l-68 -381h-58zM583 -6q-30 0 -56 9t-44 26.5t-25.5 42t-1.5 56.5l57 10q-5 -19 -3 -36.5t10.5 -31t24.5 -21.5t40 -8q35 0 59 22t24 57q0 27 -19 43.5t-54 16.5h-46l5 45h60q38 0 52.5 20t14.5 44q0 25 -17 37.5t-44 12.5
q-28 0 -48 -14.5t-25 -52.5l-52 13q3 27 15 46t29.5 31t39 17.5t43.5 5.5q54 0 87 -24.5t33 -66.5q0 -40 -24.5 -62t-62.5 -27v-6q32 -8 53 -29.5t21 -56.5q0 -27 -11.5 -48.5t-31 -37.5t-46.5 -24.5t-57 -8.5zM622 715h62l-557 -715h-62z" />
    <glyph glyph-name="twothirds" unicode="&#x2154;" horiz-adv-x="891" 
d="M72 388q113 62 172.5 114.5t59.5 113.5q0 62 -64 62q-20 0 -36 -6.5t-26.5 -21.5t-14.5 -39.5t1 -61.5l-55 8q-5 43 3 74.5t26 52.5t44 31t58 10q63 0 93.5 -31.5t30.5 -77.5q0 -41 -19.5 -74.5t-49 -61t-65 -48t-67.5 -35.5v-6h174l-9 -49h-264zM672 -6q-30 0 -56 9
t-44 26.5t-25.5 42t-1.5 56.5l57 10q-5 -19 -3 -36.5t10.5 -31t24.5 -21.5t40 -8q35 0 59 22t24 57q0 27 -19 43.5t-54 16.5h-46l5 45h60q38 0 52.5 20t14.5 44q0 25 -17 37.5t-44 12.5q-28 0 -48 -14.5t-25 -52.5l-52 13q3 27 15 46t29.5 31t39 17.5t43.5 5.5
q54 0 87 -24.5t33 -66.5q0 -40 -24.5 -62t-62.5 -27v-6q32 -8 53 -29.5t21 -56.5q0 -27 -11.5 -48.5t-31 -37.5t-46.5 -24.5t-57 -8.5zM711 715h62l-557 -715h-62z" />
    <glyph glyph-name="oneeighth" unicode="&#x215b;" horiz-adv-x="807" 
d="M130 342l53 301h-74l7 38l22 2q46 4 72 40h46l-68 -381h-58zM454 97q0 40 27.5 65.5t65.5 34.5v4q-23 12 -38.5 31t-15.5 48q0 44 34.5 74.5t100.5 30.5q56 0 89 -28.5t33 -70.5q0 -20 -7.5 -35.5t-19.5 -26.5t-26.5 -18.5t-29.5 -11.5v-4q31 -11 48 -33t17 -54
q0 -20 -8 -39t-25.5 -35t-44 -25.5t-62.5 -9.5q-39 0 -65.5 10t-42.5 25t-23 33t-7 35zM626 339q-34 0 -53.5 -15.5t-19.5 -45.5q0 -27 18.5 -44.5t48.5 -17.5q35 0 52.5 20t17.5 46q0 25 -17 41t-47 16zM600 171q-42 0 -63.5 -20.5t-21.5 -48.5q0 -26 18 -44t59 -18
q43 0 61 20t18 48t-17.5 45.5t-53.5 17.5zM622 715h62l-557 -715h-62z" />
    <glyph glyph-name="threeeighths" unicode="&#x215c;" horiz-adv-x="892" 
d="M205 334q-30 0 -56 9t-44 26.5t-25.5 42t-1.5 56.5l57 10q-5 -19 -3 -36.5t10.5 -31t24.5 -21.5t40 -8q35 0 59 22t24 57q0 27 -19 43.5t-54 16.5h-46l5 45h60q38 0 52.5 20t14.5 44q0 25 -17 37.5t-44 12.5q-28 0 -48 -14.5t-25 -52.5l-52 13q3 27 15 46t29.5 31
t39 17.5t43.5 5.5q54 0 87 -24.5t33 -66.5q0 -40 -24.5 -62t-62.5 -27v-6q32 -8 53 -29.5t21 -56.5q0 -27 -11.5 -48.5t-31 -37.5t-46.5 -24.5t-57 -8.5zM539 97q0 40 27.5 65.5t65.5 34.5v4q-23 12 -38.5 31t-15.5 48q0 44 34.5 74.5t100.5 30.5q56 0 89 -28.5t33 -70.5
q0 -20 -7.5 -35.5t-19.5 -26.5t-26.5 -18.5t-29.5 -11.5v-4q31 -11 48 -33t17 -54q0 -20 -8 -39t-25.5 -35t-44 -25.5t-62.5 -9.5q-39 0 -65.5 10t-42.5 25t-23 33t-7 35zM711 339q-34 0 -53.5 -15.5t-19.5 -45.5q0 -27 18.5 -44.5t48.5 -17.5q35 0 52.5 20t17.5 46
q0 25 -17 41t-47 16zM685 171q-42 0 -63.5 -20.5t-21.5 -48.5q0 -26 18 -44t59 -18q43 0 61 20t18 48t-17.5 45.5t-53.5 17.5zM707 715h62l-557 -715h-62z" />
    <glyph glyph-name="fiveeighths" unicode="&#x215d;" horiz-adv-x="887" 
d="M211 334q-26 0 -49 8t-40 23.5t-26.5 39t-7.5 53.5l58 11q-4 -36 11 -62t54 -26q24 0 39.5 10t25 26t13.5 35.5t4 37.5q0 42 -17.5 57t-39.5 15q-28 0 -45.5 -16.5t-31.5 -39.5l-57 23l62 188h204l-9 -49h-163l-33 -96l4 -2q13 15 32.5 26t48.5 11q21 0 40 -7.5t33.5 -22
t23.5 -36.5t9 -51q0 -32 -10.5 -60.5t-29.5 -49.5t-45.5 -33.5t-57.5 -12.5zM534 97q0 40 27.5 65.5t65.5 34.5v4q-23 12 -38.5 31t-15.5 48q0 44 34.5 74.5t100.5 30.5q56 0 89 -28.5t33 -70.5q0 -20 -7.5 -35.5t-19.5 -26.5t-26.5 -18.5t-29.5 -11.5v-4q31 -11 48 -33
t17 -54q0 -20 -8 -39t-25.5 -35t-44 -25.5t-62.5 -9.5q-39 0 -65.5 10t-42.5 25t-23 33t-7 35zM706 339q-34 0 -53.5 -15.5t-19.5 -45.5q0 -27 18.5 -44.5t48.5 -17.5q35 0 52.5 20t17.5 46q0 25 -17 41t-47 16zM680 171q-42 0 -63.5 -20.5t-21.5 -48.5q0 -26 18 -44t59 -18
q43 0 61 20t18 48t-17.5 45.5t-53.5 17.5zM702 715h62l-557 -715h-62z" />
    <glyph glyph-name="seveneighths" unicode="&#x215e;" horiz-adv-x="785" 
d="M275 665v3h-184l10 49h245l-8 -48l-195 -327h-64zM432 97q0 40 27.5 65.5t65.5 34.5v4q-23 12 -38.5 31t-15.5 48q0 44 34.5 74.5t100.5 30.5q56 0 89 -28.5t33 -70.5q0 -20 -7.5 -35.5t-19.5 -26.5t-26.5 -18.5t-29.5 -11.5v-4q31 -11 48 -33t17 -54q0 -20 -8 -39
t-25.5 -35t-44 -25.5t-62.5 -9.5q-39 0 -65.5 10t-42.5 25t-23 33t-7 35zM604 339q-34 0 -53.5 -15.5t-19.5 -45.5q0 -27 18.5 -44.5t48.5 -17.5q35 0 52.5 20t17.5 46q0 25 -17 41t-47 16zM578 171q-42 0 -63.5 -20.5t-21.5 -48.5q0 -26 18 -44t59 -18q43 0 61 20t18 48
t-17.5 45.5t-53.5 17.5zM600 715h62l-557 -715h-62z" />
    <glyph glyph-name="minus" unicode="&#x2212;" horiz-adv-x="518" 
d="M70 356h410l-12 -68h-410z" />
    <glyph glyph-name="approxequal" unicode="&#x2248;" horiz-adv-x="557" 
d="M213 418q-34 0 -54.5 -18t-31.5 -41l-51 26q9 19 20 38.5t27 35t38.5 25.5t52.5 10q31 0 56.5 -9t49 -20t44.5 -20t43 -9q30 0 48 17.5t29 40.5l54 -24q-9 -19 -20 -38.5t-27.5 -35t-39 -25.5t-52.5 -10q-29 0 -53 9t-46 19.5t-43 19.5t-44 9zM180 233q-34 0 -54.5 -18
t-31.5 -41l-51 26q9 19 20 38.5t27 35t38.5 25.5t52.5 10q31 0 56.5 -9t49 -20t44.5 -20t43 -9q30 0 48 17.5t29 40.5l54 -24q-9 -19 -20 -38.5t-27.5 -35t-39 -25.5t-52.5 -10q-29 0 -53 9t-46 19.5t-43 19.5t-44 9z" />
    <glyph glyph-name="notequal" unicode="&#x2260;" horiz-adv-x="549" 
d="M377 571h71l-257 -498h-71zM96 449h420l-12 -71h-420zM64 266h420l-13 -71h-420z" />
    <glyph glyph-name="lessequal" unicode="&#x2264;" horiz-adv-x="499" 
d="M26 68h376l-12 -68h-376zM66 297l16 90l407 172l-15 -85l-322 -131l-1 -10l275 -132l-14 -76z" />
    <glyph glyph-name="greaterequal" unicode="&#x2265;" horiz-adv-x="499" 
d="M11 68h376l-12 -68h-376zM431 387l-16 -90l-407 -172l15 85l322 131l1 10l-275 132l14 76z" />
    <glyph glyph-name="uni24C5" unicode="&#x24c5;" horiz-adv-x="836" 
d="M435 -16q-75 0 -141 24t-115.5 71.5t-78 117t-28.5 161.5q0 91 28.5 161t78 117.5t115.5 71.5t141 24q74 0 140 -24t115.5 -71.5t78 -117.5t28.5 -161q0 -92 -29 -161.5t-78 -117t-115 -71.5t-140 -24zM435 24q65 0 123 21.5t101 63.5t68 104.5t25 144.5q0 81 -25 143.5
t-68 105t-101 64t-123 21.5q-66 0 -123.5 -21.5t-100.5 -64t-68.5 -105t-25.5 -143.5q0 -82 25 -144.5t68 -104.5t101 -63.5t124 -21.5zM310 557h157q61 0 96.5 -28.5t35.5 -83.5t-35.5 -85.5t-96.5 -30.5h-96v-162h-61v390zM467 380q38 0 53.5 18t15.5 47t-15.5 45.5
t-53.5 16.5h-96v-127h96z" />
    <glyph glyph-name="zero.tab" unicode="&#xe44f;" horiz-adv-x="652" 
d="M382 732q65 0 108 -24t69 -64.5t37 -92.5t11 -107q0 -50 -7.5 -103.5t-23.5 -105t-40.5 -97t-58.5 -80t-77.5 -54.5t-97.5 -20q-66 0 -109 24t-69 64.5t-36.5 92t-10.5 107.5q0 50 7.5 103.5t23 105t40 97t58 80t77.5 54.5t99 20zM380 669q-37 0 -66 -16t-52 -44
t-40 -65.5t-30 -79.5q-15 -51 -22.5 -105.5t-7.5 -105.5q0 -100 32.5 -152.5t108.5 -52.5q34 0 61 13.5t48.5 37t38.5 55.5t31 69q20 56 30 117.5t10 120.5q0 101 -32.5 154.5t-109.5 53.5z" />
    <glyph glyph-name="one.tab" unicode="&#xe450;" horiz-adv-x="652" 
d="M60 0l13 67h176l95 532h-162l9 50l74 4q42 4 69.5 20t50.5 54h62l-117 -660h177l-13 -67h-434z" />
    <glyph glyph-name="two.tab" unicode="&#xe451;" horiz-adv-x="652" 
d="M56 65q110 62 196 118.5t144.5 111.5t89 110.5t30.5 116.5q0 69 -36 108t-103 39q-46 0 -84.5 -18.5t-64 -54.5t-35 -90t4.5 -125l-73 11q-15 79 -1.5 142.5t49 107t88.5 67t116 23.5q56 0 97.5 -16.5t69.5 -45t41.5 -66.5t13.5 -82q0 -51 -19.5 -98t-52 -89.5t-75 -81
t-89.5 -71.5t-95.5 -60.5t-91.5 -49.5l-1 -5h370l-13 -67h-488z" />
    <glyph glyph-name="three.tab" unicode="&#xe452;" horiz-adv-x="652" 
d="M151 246q-11 -41 -6 -77.5t24 -63.5t51.5 -42.5t77.5 -15.5q42 0 74.5 14t55 37.5t34 54.5t11.5 66q0 27 -8 50.5t-26 41t-48 27.5t-74 10h-93l13 66h127q37 0 63.5 12.5t43 32.5t24 45.5t7.5 51.5q0 28 -10.5 49.5t-28.5 35.5t-42 21t-52 7q-27 0 -55 -7.5t-51.5 -25
t-38.5 -47t-17 -74.5l-69 18q3 54 24.5 92t54.5 62t74 34.5t82 10.5q45 0 84 -12t67.5 -34.5t45 -53.5t16.5 -70q0 -38 -14 -70t-37 -55.5t-53.5 -38.5t-64.5 -18v-6q30 -6 55.5 -19.5t44.5 -35t30 -50t11 -62.5q0 -47 -20 -87.5t-55 -70.5t-82.5 -47.5t-101.5 -17.5
q-55 0 -102 16.5t-78.5 48t-44.5 77.5t-1 105z" />
    <glyph glyph-name="four.tab" unicode="&#xe453;" horiz-adv-x="651" 
d="M379 171h-341l11 58l427 494h82l-86 -485h111l-13 -67h-110l-29 -171h-83zM391 238l65 364h-5l-310 -358l-1 -6h251z" />
    <glyph glyph-name="five.tab" unicode="&#xe454;" horiz-adv-x="652" 
d="M295 -16q-49 0 -92 14.5t-73 44t-44.5 75t-6.5 107.5l79 16q-8 -41 -2.5 -76.5t22.5 -61.5t46.5 -41t71.5 -15q48 0 84 20.5t60 54t36 77.5t12 92q0 40 -10.5 68.5t-28.5 46.5t-41.5 26t-49.5 8q-59 0 -103.5 -32.5t-67.5 -80.5l-72 28l105 361h379l-13 -67h-320
l-66 -229h2q60 81 168 81q42 0 78.5 -13t64.5 -39t44 -66.5t16 -94.5q0 -68 -21 -124t-58.5 -96t-88 -62t-110.5 -22z" />
    <glyph glyph-name="six.tab" unicode="&#xe455;" horiz-adv-x="652" 
d="M83 251q0 36 5 80t17 90t30.5 91.5t45.5 84.5q39 60 98 97.5t139 37.5q42 0 78.5 -12t63 -36t39 -59t6.5 -81l-75 -20q7 43 -2.5 71.5t-28 44.5t-42.5 22.5t-46 6.5q-60 0 -101.5 -30.5t-69.5 -77.5q-23 -38 -37.5 -82.5t-22.5 -86.5l3 -1q32 43 81.5 67.5t109.5 24.5
q42 0 79 -14t64.5 -41t43.5 -66.5t16 -90.5q0 -55 -18 -107t-52.5 -92t-85 -64t-115.5 -24q-51 0 -92 17t-70 51t-45 84t-16 115zM353 422q-39 0 -73 -15.5t-58.5 -44t-39 -67.5t-14.5 -86q0 -76 37.5 -119t103.5 -43q42 0 75.5 18t57.5 48.5t37 70t13 83.5q0 75 -37.5 115
t-101.5 40z" />
    <glyph glyph-name="seven.tab" unicode="&#xe456;" horiz-adv-x="652" 
d="M529 645l1 4h-385l12 67h466l-13 -72l-407 -644h-87z" />
    <glyph glyph-name="eight.tab" unicode="&#xe457;" horiz-adv-x="652" 
d="M56 175q0 39 13 71t37 56.5t57 42t73 26.5v4q-42 21 -72 61.5t-30 94.5q0 38 15.5 74.5t46 64.5t75 45t103.5 17q51 0 91.5 -13.5t69.5 -38t44.5 -58t15.5 -72.5q0 -38 -13.5 -69.5t-35 -55t-49.5 -39.5t-57 -23v-4q56 -23 91.5 -63.5t35.5 -102.5q0 -38 -16 -75.5
t-48.5 -67t-82 -48t-115.5 -18.5q-68 0 -115.5 17t-77 44.5t-43 61.5t-13.5 68zM371 669q-73 0 -113 -39t-40 -102q0 -60 39 -96t102 -36q39 0 68 12.5t47.5 33.5t27.5 47.5t9 54.5q0 59 -37.5 92t-102.5 33zM323 335q-44 0 -78 -12.5t-57 -33.5t-35 -48.5t-12 -57.5
q0 -28 10 -53t30.5 -43.5t51 -29t72.5 -10.5q44 0 77 11.5t55.5 32t33.5 47.5t11 59q0 29 -9.5 54.5t-29.5 44t-50 29t-70 10.5z" />
    <glyph glyph-name="nine.tab" unicode="&#xe458;" horiz-adv-x="652" 
d="M515 507q0 76 -38.5 119t-104.5 43q-42 0 -75.5 -17.5t-57 -47t-36 -69t-12.5 -82.5q0 -75 37.5 -117t101.5 -42q39 0 73 15.5t58.5 44t39 67.5t14.5 86zM372 732q107 0 167.5 -71.5t60.5 -204.5q0 -33 -4.5 -72t-14 -80t-25 -82.5t-36.5 -79.5q-19 -34 -43 -63t-54 -50
t-66 -33t-78 -12t-80.5 12t-67 35.5t-43.5 57.5t-10 79l75 21q-6 -42 4.5 -69.5t31 -43.5t46 -22.5t48.5 -6.5q61 0 103.5 35.5t68.5 88.5q18 36 29.5 75.5t18.5 77.5l-3 1q-32 -43 -79.5 -67.5t-107.5 -24.5q-42 0 -80 14t-66.5 41.5t-45 68t-16.5 94.5q0 55 17.5 106
t51.5 90t84 62t114 23z" />
    <glyph glyph-name="cent.tab" unicode="&#xe459;" horiz-adv-x="652" 
d="M197 205q0 -129 76 -152l73 417q-37 -5 -65 -29t-46.5 -60t-28 -81.5t-9.5 -94.5zM518 162q-6 -29 -20 -59t-38 -54t-58 -40.5t-80 -18.5l-19 -109h-60l20 113q-66 13 -107 64.5t-41 145.5q0 56 14.5 113t44 103t75 76t107.5 32l19 103h60l-19 -108q69 -14 99 -63
t31 -118l-69 -18q1 55 -14.5 92.5t-57.5 49.5l-73 -418q55 5 83 42t45 96z" />
    <glyph glyph-name="dollar.tab" unicode="&#xe45a;" horiz-adv-x="652" 
d="M326 -16h-10t-10 1l-18 -104h-58l20 112q-43 11 -77.5 33t-58.5 51.5t-37 65.5t-12 74l79 23q-2 -30 4.5 -58t21.5 -52t38.5 -42t53.5 -28l50 282q-39 19 -71 37t-55.5 39.5t-36.5 49t-13 64.5q0 40 14.5 76.5t43.5 64t72 43.5t101 16h17l18 103h58l-20 -112
q78 -20 116.5 -76t36.5 -130l-73 -15q2 56 -21 97t-71 58l-47 -266q41 -21 74.5 -41.5t57 -44t36 -52t12.5 -65.5q0 -41 -14 -78t-43 -65t-73 -44.5t-105 -16.5zM329 50q42 0 71.5 11.5t48 29.5t26.5 40.5t8 45.5q0 44 -28 74.5t-90 63.5l-47 -265h11zM211 544
q0 -43 28.5 -69.5t88.5 -56.5l44 249h-8q-41 0 -69.5 -11t-47.5 -28.5t-27.5 -39.5t-8.5 -44z" />
    <glyph glyph-name="Euro.tab" unicode="&#xe45b;" horiz-adv-x="651" 
d="M587 207q-9 -57 -31 -98.5t-52.5 -69.5t-68.5 -41.5t-79 -13.5q-116 0 -171.5 70t-55.5 190v16h-94l11 57h86q2 20 5 41t8 42h-85l11 57h87q15 54 39.5 104t60 88t81.5 60.5t105 22.5q43 0 83 -14.5t67.5 -45t39.5 -77.5t-1 -112l-74 -21q12 58 7.5 97.5t-21 63.5
t-42.5 34.5t-59 10.5q-40 0 -72 -16.5t-57 -45.5t-43 -67.5t-30 -81.5h219l-11 -57h-221q-4 -20 -6.5 -41t-4.5 -42h217l-11 -57h-210v-24q0 -100 38 -144t112 -44q132 0 157 191l66 -32v0z" />
    <glyph glyph-name="a.alt" unicode="&#xe4c0;" horiz-adv-x="594" 
d="M436 410l35 108h59l-68 -382q-5 -27 -5.5 -44.5t6 -27.5t21 -13.5t40.5 -1.5l18 1l-8 -50q-14 -5 -31 -7.5t-35 -2.5q-38 0 -55.5 15t-23.5 36t-4 42t5 33h-6q-26 -61 -67.5 -93.5t-97.5 -32.5q-82 0 -124.5 57.5t-42.5 155.5q0 61 16.5 119.5t48 104.5t77 73.5
t104.5 27.5q65 0 97 -34.5t38 -83.5h3zM133 201q0 -79 28.5 -116t76.5 -37q43 0 76 27t55.5 68.5t34 90t11.5 91.5q0 75 -31.5 110t-77.5 35q-42 0 -74.5 -23t-54 -61t-33 -86t-11.5 -99z" />
    <glyph glyph-name="g.alt" unicode="&#xe4c6;" horiz-adv-x="560" 
d="M302 473q-34 0 -62 -16.5t-48.5 -45t-32 -65.5t-11.5 -78q0 -66 27 -94.5t75 -28.5q34 0 62 16.5t47.5 44t30.5 64.5t11 78q0 63 -27 94t-72 31zM189 -273q-49 0 -93 8.5t-77 26.5t-53.5 45.5t-21.5 65.5l79 9q2 -21 12 -39t30.5 -31.5t52.5 -21.5t78 -8q56 0 95.5 9
t64 23t36 32.5t11.5 37.5q0 23 -16 39t-56 16h-193q-54 0 -87.5 21.5t-33.5 66.5q0 21 8.5 39t22.5 32t32 24.5t38 17.5q-46 48 -46 128q0 49 15.5 96t45 83.5t72.5 58.5t97 22q61 0 98.5 -27t52.5 -75h5q4 31 13 51t20 31.5t24 15.5t25 4q14 0 25 -2.5t21 -7.5l-12 -65
q-8 2 -17 4t-17 2q-18 0 -29 -7.5t-17.5 -20t-9.5 -30t-5 -36.5q-15 -134 -74.5 -204.5t-153.5 -70.5q-30 0 -55 6.5t-45 17.5q-28 -10 -45 -27.5t-17 -38.5q0 -39 59 -39h170q83 0 120 -32t37 -85q0 -36 -17.5 -66t-53.5 -52t-89.5 -34.5t-125.5 -12.5z" />
    <glyph glyph-name="r.alt" unicode="&#xe4d1;" horiz-adv-x="379" 
d="M135 518h60l-15 -132h3q29 76 71.5 109t88.5 33q15 0 25.5 -3t16.5 -7l-12 -66q-19 4 -35 4q-35 0 -63 -15.5t-49.5 -41t-36 -59t-20.5 -68.5l-48 -272h-78z" />
    <glyph glyph-name="space_uni0326" 
d="M87 -185l50 35l1 9h-43l12 71h80l-17 -99l-90 -61z" />
    <glyph glyph-name="space_uni0326.alt" horiz-adv-x="206" 
d="M221 704l-50 -35l-1 -9h43l-12 -71h-80l17 99l90 61z" />
    <glyph glyph-name="dollar.old" horiz-adv-x="556" 
d="M254 -10l-20 -109h-53l21 117q-39 10 -69 30t-50.5 47t-31 60t-9.5 68l66 22q-4 -56 23 -103t81 -66l47 262q-35 18 -63.5 34.5t-49 36.5t-32 45t-11.5 59q0 37 13.5 70t39.5 58.5t65.5 40.5t91.5 15h13l18 102h52l-19 -110q34 -9 58.5 -27t40.5 -43t23 -56t6 -65
l-62 -13q2 52 -16 91t-61 56l-43 -248q37 -18 66.5 -36t50.5 -39.5t32 -47.5t11 -60q0 -38 -13.5 -72.5t-40.5 -61t-67 -42t-93 -15.5h-15zM272 46q36 0 62 11t42.5 28.5t24 39.5t7.5 43q0 40 -22 67.5t-78 57.5l-45 -247h9zM177 504q0 -20 5.5 -35t17 -28.5t30 -26
t44.5 -26.5l42 233h-6q-34 0 -59 -10.5t-41.5 -27.5t-24.5 -38t-8 -41z" />
    <glyph glyph-name="Euro.old" horiz-adv-x="628" 
d="M557 191q-8 -53 -29 -92t-50.5 -64.5t-66 -38t-75.5 -12.5q-54 0 -95 18t-69 51t-42.5 78.5t-14.5 101.5v7h-81l10 52h74q3 39 12 78h-73l10 52h76q15 50 39 96t58.5 81.5t79 56.5t101.5 21q41 0 78 -13.5t62.5 -41.5t37 -72t1.5 -104l-70 -19q8 54 3.5 91t-19.5 60
t-39 33t-54 10q-39 0 -70.5 -16t-56 -43t-43 -63.5t-30.5 -76.5h208l-10 -52h-211q-4 -20 -6.5 -39t-4.5 -39h208l-11 -52h-200v-7q0 -98 40.5 -145.5t109.5 -47.5q61 0 98.5 45.5t51.5 134.5l63 -29v0z" />
    <glyph glyph-name="sterling.old" horiz-adv-x="637" 
d="M439 -10q-46 0 -86.5 22t-78.5 50q-54 -72 -153 -72q-26 0 -50 6.5t-42 20t-29 33t-11 46.5q0 48 35 74.5t90 26.5q37 0 70.5 -11.5t64.5 -28.5q7 27 7 61q0 16 -2 31.5t-5 32.5h-140l10 52h120q-9 38 -17 75t-8 72q0 44 15.5 80.5t43 62t66 39.5t83.5 14
q41 0 76.5 -14.5t59.5 -43t32.5 -71.5t-5.5 -100l-67 -14q23 92 -6 139.5t-92 47.5q-62 0 -94 -39t-32 -106q0 -36 6 -71t12 -71h187l-10 -52h-169q1 -11 1.5 -23t0.5 -24q0 -61 -17 -112q38 -24 72 -43t66 -19q35 0 58 27.5t18 81.5l50 -3q5 -54 -6.5 -88.5t-31.5 -54
t-45 -27t-47 -7.5zM118 38q37 0 63.5 16t43.5 43q-29 20 -58 33.5t-60 13.5q-35 0 -49 -15.5t-14 -35.5q0 -26 19.5 -40.5t54.5 -14.5z" />
    <glyph glyph-name="yen.old" horiz-adv-x="544" 
d="M291 148l-27 -148h-78l27 148h-142l10 52h141l14 78h-142l11 52h122l-115 337h78l100 -309h3l205 309h76l-228 -337h120l-10 -52h-142l-14 -78h142l-10 -52h-141z" />
    <glyph glyph-name="florin.old" horiz-adv-x="471" 
d="M-15 -29q32 -2 51.5 -0.5t38.5 9.5q12 5 22 12.5t18 20.5t15.5 33t14.5 50l58 235h-109l12 59h111l31 126q18 74 50.5 108.5t82.5 44.5q29 6 57 5.5t56 -2.5l-15 -61q-32 2 -51 1t-39 -9q-12 -5 -22 -12.5t-19 -21t-17 -33.5t-15 -50l-24 -95h132l-12 -60h-135l-65 -265
q-18 -74 -48.5 -108.5t-80.5 -44.5q-30 -6 -58 -5.5t-56 2.5z" />
    <glyph glyph-name="zero.old" horiz-adv-x="581" 
d="M58 216q0 56 15.5 112t47 100.5t79 72t111.5 27.5q52 0 91 -16.5t65 -46t39.5 -70.5t13.5 -91q0 -65 -18.5 -122.5t-51.5 -100t-79.5 -67t-103.5 -24.5q-50 0 -89 16.5t-65.5 46.5t-40.5 71.5t-14 91.5zM271 47q31 0 55.5 11t43 30.5t31.5 45t21 54.5q9 32 13 65t4 64
q0 72 -30 113t-100 41q-31 0 -55.5 -10.5t-43 -29t-31.5 -43.5t-21 -53q-10 -32 -14 -65.5t-4 -65.5q0 -72 28.5 -114.5t102.5 -42.5z" />
    <glyph glyph-name="one.old" horiz-adv-x="289" 
d="M150 518h78l-92 -518h-78z" />
    <glyph glyph-name="two.old" horiz-adv-x="547" 
d="M29 61q53 19 92 34.5t69 30t54 28.5t47 29q57 38 85.5 79t28.5 98t-32.5 84t-79.5 27q-34 0 -62 -14t-47 -40.5t-26.5 -64.5t-0.5 -85l-69 16q-7 58 7 104t42.5 77t69 47.5t88.5 16.5q47 0 82.5 -13.5t59.5 -37t36.5 -54.5t12.5 -66q0 -67 -41 -121.5t-113 -96.5
q-31 -17 -68.5 -36t-80.5 -34l-1 -7h273l-12 -62h-426z" />
    <glyph glyph-name="three.old" horiz-adv-x="531" 
d="M210 -169q-49 0 -90.5 14.5t-69 44t-38 73t2.5 101.5l67 19q-18 -99 16.5 -147t112.5 -48q37 0 64.5 12t45.5 32.5t26.5 46.5t8.5 54q0 60 -40.5 91t-110.5 31h-57l12 62h79q31 0 58.5 11t48.5 31t33.5 48t12.5 62q0 30 -10.5 49.5t-27 31t-36.5 16.5t-40 5
q-60 0 -98 -39t-43 -114l-65 17q4 51 21.5 87.5t45 60t63 34.5t76.5 11q42 0 77 -10.5t60 -31t39 -50t14 -67.5q0 -37 -13.5 -69t-37 -56t-56 -39.5t-70.5 -19.5v-3q66 -13 106 -55t40 -102q0 -41 -16.5 -76.5t-46 -61.5t-71.5 -41t-93 -15z" />
    <glyph glyph-name="four.old" horiz-adv-x="530" 
d="M279 42h-294l12 62l359 419h86l-75 -419h121l-12 -62h-120l-30 -169h-77zM289 104l59 326h-4l-274 -324v-2h219z" />
    <glyph glyph-name="five.old" horiz-adv-x="529" 
d="M93 79q-9 -39 -5 -74t20 -61t43 -41t64 -15q39 0 69.5 16.5t50.5 45t30.5 66.5t10.5 82q0 38 -8.5 65t-23.5 44.5t-36 25.5t-46 8q-51 0 -87.5 -28.5t-57.5 -69.5l-66 20l114 355h317l-12 -62h-258l-70 -215l3 -1q22 23 54.5 39.5t79.5 16.5q38 0 70.5 -12.5t56.5 -37
t37.5 -61t13.5 -85.5q0 -55 -17 -104t-48.5 -85.5t-76 -58t-98.5 -21.5q-45 0 -85 15.5t-68 44.5t-39.5 72t0.5 97z" />
    <glyph glyph-name="six.old" horiz-adv-x="586" 
d="M66 237q0 32 4.5 71t14 80t26 82t40.5 77q36 55 91 91t137 36q39 0 72 -12t56 -35t34 -56.5t5 -75.5l-67 -17q6 41 -2.5 68t-25.5 42.5t-39 22t-43 6.5q-54 0 -93 -27t-65 -69q-23 -37 -38 -80t-21 -85l3 -1q29 42 73 66t99 24q40 0 75 -12.5t61 -37t41 -60.5t15 -83
q0 -52 -16 -99.5t-47 -83.5t-77 -57.5t-106 -21.5q-44 0 -81.5 14.5t-65.5 45t-44 77t-16 110.5zM279 47q38 0 67.5 16.5t50 44t31 64t10.5 77.5q0 65 -34 101.5t-92 36.5q-36 0 -66 -14.5t-52 -40.5t-34.5 -61t-12.5 -77q0 -75 37 -111t95 -36z" />
    <glyph glyph-name="seven.old" horiz-adv-x="450" 
d="M368 456h-323l12 62h403l-11 -59l-370 -586h-80z" />
    <glyph glyph-name="eight.old" horiz-adv-x="572" 
d="M39 165q0 71 49 118.5t130 58.5v3q-17 6 -36 19t-35 33t-26.5 45t-10.5 55q0 33 14 65t41 57.5t68 41.5t95 16q48 0 85 -14t62.5 -37.5t38.5 -54.5t13 -65q0 -36 -13.5 -65.5t-36 -51.5t-50.5 -35.5t-56 -16.5v-3q27 -8 51 -22t41.5 -33.5t27.5 -44t10 -52.5
q0 -36 -14 -70.5t-43 -61.5t-73 -43.5t-104 -16.5q-61 0 -104 15t-70.5 39.5t-40.5 56t-13 64.5zM328 620q-66 0 -101.5 -35.5t-35.5 -92.5q0 -30 9.5 -53.5t26 -39.5t38.5 -24.5t47 -8.5q59 0 96.5 36.5t37.5 102.5q0 57 -32.5 86t-85.5 29zM267 47q74 0 113 38.5t39 96.5
q0 57 -37 92.5t-104 35.5q-37 0 -66 -12t-49.5 -31.5t-31 -45.5t-10.5 -54q0 -57 40.5 -88.5t105.5 -31.5z" />
    <glyph glyph-name="nine.old" horiz-adv-x="587" 
d="M272 125q36 0 66 15.5t52 42.5t34.5 63t12.5 78q0 75 -35.5 111t-93.5 36q-38 0 -68 -16.5t-51 -44t-32 -64.5t-11 -77q0 -65 34 -104.5t92 -39.5zM517 274q0 -38 -6 -85t-19.5 -96.5t-36.5 -96.5t-57 -84q-35 -37 -81.5 -59.5t-108.5 -22.5q-39 0 -72.5 12t-57 35
t-35 56.5t-5.5 75.5l67 17q-6 -41 3 -68t25.5 -42.5t39 -22t43.5 -6.5q40 0 72.5 17.5t58.5 46.5q35 42 56.5 98t28.5 113l-3 1q-32 -51 -74.5 -73t-97.5 -22q-39 0 -74 13.5t-61 39t-41.5 62t-15.5 83.5q0 51 15.5 98.5t46 83.5t76.5 58t106 22q96 0 152 -63t56 -191z" />
    <glyph glyph-name="sterling.tab" horiz-adv-x="652" 
d="M463 -16q-51 0 -94.5 24.5t-84.5 55.5q-26 -38 -65 -58.5t-91 -20.5q-29 0 -54 6.5t-44.5 20.5t-30.5 34.5t-11 49.5q0 52 36 80.5t95 28.5q36 0 69 -11t65 -27q2 14 3.5 29t1.5 32q0 20 -1.5 39t-3.5 38h-136l11 57h116q-8 42 -14 81.5t-6 78.5q0 47 14.5 85.5t42 66.5
t68 43t91.5 15q48 0 86.5 -15.5t62.5 -46.5t31 -77.5t-8 -107.5l-74 -16q25 100 -2.5 149.5t-96.5 49.5q-68 0 -99.5 -40.5t-31.5 -112.5q0 -34 4.5 -72.5t9.5 -80.5h189l-11 -57h-172q1 -14 1.5 -28t0.5 -28q0 -70 -16 -119q42 -26 80 -47t73 -21q38 0 63.5 29t19.5 87
l54 -3q6 -59 -6.5 -96t-34.5 -58t-49 -29t-51 -8zM124 40q38 0 64 17t43 46q-29 20 -57.5 33.5t-58.5 13.5q-35 0 -51 -16.5t-16 -37.5q0 -26 21.5 -41t54.5 -15z" />
    <glyph glyph-name="yen.tab" horiz-adv-x="653" 
d="M348 158l-28 -158h-82l28 158h-154l11 57h153l15 83h-154l11 57h133l-125 361h82l110 -330h4l218 330h85l-247 -361h130l-11 -57h-154l-15 -83h154l-11 -57h-153z" />
    <glyph glyph-name="florin.tab" horiz-adv-x="651" 
d="M177 -87q-30 -6 -57.5 -5t-55.5 6l16 62q29 -5 48.5 -5t39.5 8q12 5 21.5 12.5t18 20.5t16 33t15.5 50l58 235h-106l12 60h109l45 181q18 74 51 108t83 44q30 6 59.5 4t54.5 -10l-16 -62q-23 7 -46 8.5t-43 -6.5q-12 -5 -21.5 -12.5t-17.5 -20.5t-16 -33t-15 -50
l-37 -151h126l-12 -60h-129l-66 -265q-18 -74 -51.5 -108t-83.5 -44z" />
    <glyph glyph-name="percent.tab" horiz-adv-x="652" 
d="M353 604q0 -41 -10 -79t-29.5 -67t-48 -46.5t-64.5 -17.5q-57 0 -85.5 36t-28.5 95q0 41 10 79t29.5 67t48 46.5t64.5 17.5q57 0 85.5 -36t28.5 -95zM558 732h68l-492 -731h-68zM239 679q-28 0 -46 -20t-29 -50q-8 -20 -11 -42t-3 -45q0 -32 12.5 -51.5t38.5 -19.5
q25 0 41.5 15t26.5 38t14 51t4 55q0 31 -11 50t-37 19zM445 -14q-57 0 -85.5 36t-28.5 95q0 41 10 79t29.5 67t48 46.5t64.5 17.5q57 0 85.5 -36t28.5 -95q0 -41 -10 -79t-29.5 -67t-48 -46.5t-64.5 -17.5zM483 271q-28 0 -46 -20t-29 -50q-8 -20 -11 -42t-3 -45
q0 -32 12.5 -51.5t38.5 -19.5q25 0 41.5 15t26.5 38t14 51t4 55q0 31 -11 50t-37 19z" />
    <glyph glyph-name="perthousand.tab" horiz-adv-x="972" 
d="M758 -14q-57 0 -85.5 36t-28.5 95q0 41 10 79t29.5 67t48 46.5t64.5 17.5q57 0 85.5 -36t28.5 -95q0 -41 -10 -79t-29.5 -67t-48 -46.5t-64.5 -17.5zM796 271q-28 0 -46 -20t-29 -50q-8 -20 -11 -42t-3 -45q0 -32 12.5 -51.5t38.5 -19.5q25 0 41.5 15t26.5 38t14 51t4 55
q0 31 -11 50t-37 19zM360 604q0 -41 -10 -79t-29.5 -67t-48 -46.5t-64.5 -17.5q-57 0 -85.5 36t-28.5 95q0 41 10 79t29.5 67t48 46.5t64.5 17.5q57 0 85.5 -36t28.5 -95zM565 732h68l-492 -731h-68zM246 679q-28 0 -46 -20t-29 -50q-8 -20 -11 -42t-3 -45q0 -32 12.5 -51.5
t38.5 -19.5q25 0 41.5 15t26.5 38t14 51t4 55q0 31 -11 50t-37 19zM452 -14q-57 0 -85.5 36t-28.5 95q0 41 10 79t29.5 67t48 46.5t64.5 17.5q57 0 85.5 -36t28.5 -95q0 -41 -10 -79t-29.5 -67t-48 -46.5t-64.5 -17.5zM490 271q-28 0 -46 -20t-29 -50q-8 -20 -11 -42t-3 -45
q0 -32 12.5 -51.5t38.5 -19.5q25 0 41.5 15t26.5 38t14 51t4 55q0 31 -11 50t-37 19z" />
    <glyph glyph-name="plus.tab" horiz-adv-x="652" 
d="M292 288h-177l12 68h177l33 183h76l-33 -183h177l-12 -68h-177l-33 -183h-76z" />
    <glyph glyph-name="minus.tab" horiz-adv-x="652" 
d="M137 356h410l-12 -68h-410z" />
    <glyph glyph-name="plusminus.tab" horiz-adv-x="652" 
d="M80 68h430l-12 -68h-430zM296 288h-177l12 68h177l33 183h76l-33 -183h177l-12 -68h-177l-33 -183h-76z" />
    <glyph glyph-name="multiply.tab" horiz-adv-x="651" 
d="M89 139l199 169l-134 163l55 46l132 -165l189 166l41 -49l-192 -163l139 -169l-55 -47l-136 172l-197 -172z" />
    <glyph glyph-name="divide.tab" horiz-adv-x="652" 
d="M333 551h88l-19 -105h-88zM127 356h430l-12 -68h-430zM270 198h89l-19 -105h-89z" />
    <glyph glyph-name="equal.tab" horiz-adv-x="651" 
d="M147 449h420l-12 -71h-420zM115 266h420l-13 -71h-420z" />
    <glyph glyph-name="notequal.tab" horiz-adv-x="651" 
d="M420 571h71l-257 -498h-71zM147 449h420l-12 -71h-420zM115 266h420l-13 -71h-420z" />
    <glyph glyph-name="approxequal.tab" horiz-adv-x="651" 
d="M260 418q-34 0 -54.5 -18t-31.5 -41l-51 26q9 19 20 38.5t27 35t38.5 25.5t52.5 10q31 0 56.5 -9t49 -20t44.5 -20t43 -9q30 0 48 17.5t29 40.5l54 -24q-9 -19 -20 -38.5t-27.5 -35t-39 -25.5t-52.5 -10q-29 0 -53 9t-46 19.5t-43 19.5t-44 9zM227 233q-34 0 -54.5 -18
t-31.5 -41l-51 26q9 19 20 38.5t27 35t38.5 25.5t52.5 10q31 0 56.5 -9t49 -20t44.5 -20t43 -9q30 0 48 17.5t29 40.5l54 -24q-9 -19 -20 -38.5t-27.5 -35t-39 -25.5t-52.5 -10q-29 0 -53 9t-46 19.5t-43 19.5t-44 9z" />
    <glyph glyph-name="less.tab" horiz-adv-x="652" 
d="M136 297l16 90l407 172l-15 -85l-322 -131l-1 -10l275 -132l-14 -76z" />
    <glyph glyph-name="greater.tab" horiz-adv-x="652" 
d="M530.004 387.019l-15.999 -89.9951l-406.975 -171.989l14.999 84.9951l321.98 130.991l0.999023 10l-274.982 131.992l13.999 75.9951z" />
    <glyph glyph-name="lessequal.tab" horiz-adv-x="653" 
d="M103 68h376l-12 -68h-376zM143 297l16 90l407 172l-15 -85l-322 -131l-1 -10l275 -132l-14 -76z" />
    <glyph glyph-name="greaterequal.tab" horiz-adv-x="653" 
d="M103 68h376l-12 -68h-376zM524 387l-16 -90l-407 -172l15 85l322 131l1 10l-275 132l14 76z" />
    <glyph glyph-name="period.tab" horiz-adv-x="332" 
d="M106 142h77l-26 -142h-77z" />
    <glyph glyph-name="comma.tab" horiz-adv-x="332" 
d="M52 -90l84 96l3 21h-43l21 115h78l-32 -175l-124 -141z" />
    <glyph glyph-name="colon.tab" horiz-adv-x="332" 
d="M171 512h77l-26 -142h-77zM106 142h77l-26 -142h-77z" />
    <glyph glyph-name="semicolon.tab" horiz-adv-x="332" 
d="M52 -90l84 96l3 21h-43l21 115h78l-32 -175l-124 -141zM180 510h77l-26 -142h-77z" />
    <glyph glyph-name="parenleft.tab" horiz-adv-x="332" 
d="M218 -135q-32 32 -60 74t-49 93t-33 110.5t-12 128.5q0 92 25 173.5t66.5 149t96.5 119.5t115 87l32 -44q-121 -84 -187 -208.5t-66 -276.5q0 -49 7 -99t21 -98t35 -92t50 -80z" />
    <glyph glyph-name="parenright.tab" horiz-adv-x="332" 
d="M138 800q32 -32 60 -74t49 -93t33 -110.5t12 -128.5q0 -92 -25 -173.5t-66.5 -149t-96.5 -120t-115 -86.5l-32 44q121 84 187 208.5t66 276.5q0 49 -7 99t-21 98t-35.5 92t-49.5 80z" />
    <glyph glyph-name="bracketleft.tab" horiz-adv-x="332" 
d="M161 786h196l-10 -54h-124l-142 -799h125l-10 -54h-196z" />
    <glyph glyph-name="bracketright.tab" horiz-adv-x="332" 
d="M196 -112h-196l10 54h124l142 799h-125l10 54h196z" />
    <glyph glyph-name="braceleft.tab" horiz-adv-x="332" 
d="M177 -121q-44 0 -73.5 10.5t-47 28t-24.5 39.5t-7 45q0 40 14 73.5t30.5 63t30.5 57t14 54.5q0 23 -11 40t-44 20l-33 3l12 59l32 1q41 2 61.5 27.5t20.5 68.5q0 35 -9 73.5t-9 81.5q0 34 11.5 63.5t34 51.5t55.5 34.5t76 12.5h52l-10 -54h-38q-48 0 -76 -31.5t-28 -82.5
q0 -32 4.5 -71.5t4.5 -70.5q0 -53 -30.5 -91t-85.5 -46q42 -13 58.5 -41t16.5 -61q0 -30 -12 -59t-26.5 -57.5t-26.5 -57.5t-12 -61t20.5 -50.5t73.5 -18.5h17l-10 -54h-26v0z" />
    <glyph glyph-name="braceright.tab" horiz-adv-x="332" 
d="M0 -75h38q48 0 76.5 31.5t28.5 82.5q0 32 -4.5 71.5t-4.5 70.5q0 53 30.5 91t85.5 46q-42 13 -58.5 41t-16.5 61q0 30 12 58.5t26.5 57t26.5 58t12 61.5t-20.5 50.5t-73.5 18.5h-18l10 54h27q44 0 73.5 -10.5t47 -28t24.5 -39.5t7 -45q0 -40 -14 -73.5t-30.5 -63
t-30.5 -57t-14 -54.5q0 -23 11 -40t44 -20l33 -3l-12 -59l-32 -1q-41 -2 -61.5 -27.5t-20.5 -68.5q0 -35 9 -73.5t9 -81.5q0 -34 -12 -63.5t-34.5 -51.5t-55.5 -34.5t-76 -12.5h-52z" />
    <glyph glyph-name="dollar.oldtab" horiz-adv-x="612" 
d="M283 -10l-20 -109h-53l21 117q-39 10 -69 30t-50.5 47t-31 60t-9.5 68l66 22q-4 -56 23 -103t81 -66l47 262q-35 18 -63.5 34.5t-49 36.5t-32 45t-11.5 59q0 37 13.5 70t39.5 58.5t65.5 40.5t91.5 15h13l18 102h52l-19 -110q34 -9 58.5 -27t40.5 -43t23 -56t6 -65
l-62 -13q2 52 -16 91t-61 56l-43 -248q37 -18 66.5 -36t50.5 -39.5t32 -47.5t11 -60q0 -38 -13.5 -72.5t-40.5 -61t-67 -42t-93 -15.5h-15zM301 46q36 0 62 11t42.5 28.5t24 39.5t7.5 43q0 40 -22 67.5t-78 57.5l-45 -247h9zM206 504q0 -20 5.5 -35t17 -28.5t30 -26
t44.5 -26.5l42 233h-6q-34 0 -59 -10.5t-41.5 -27.5t-24.5 -38t-8 -41z" />
    <glyph glyph-name="Euro.oldtab" horiz-adv-x="612" 
d="M544 191q-8 -53 -28.5 -91.5t-49.5 -64.5t-64.5 -38.5t-73.5 -12.5q-107 0 -158.5 65t-51.5 176v15h-87l10 52h80q2 20 4.5 39t6.5 39h-78l10 52h81q14 50 37 96t55 81.5t75 56.5t98 21q40 0 77 -13.5t62.5 -41.5t37 -71.5t0.5 -104.5l-70 -19q9 54 5 91t-19 60t-39 33
t-54 10q-37 0 -66.5 -16t-52.5 -43t-40 -63t-28 -77h203l-10 -52h-204q-4 -20 -6.5 -39t-4.5 -39h201l-11 -52h-193v-22q0 -93 34.5 -135.5t103.5 -42.5q61 0 97.5 45.5t47.5 134.5l63 -29v0z" />
    <glyph glyph-name="sterling.oldtab" horiz-adv-x="612" 
d="M431 -10q-46 0 -86.5 22t-78.5 50q-54 -72 -153 -72q-26 0 -50 6.5t-42 20t-29 33t-11 46.5q0 48 35 74.5t90 26.5q37 0 70.5 -11.5t64.5 -28.5q7 27 7 61q0 16 -2 31.5t-5 32.5h-140l10 52h120q-9 38 -17 75t-8 72q0 44 15.5 80.5t43 62t66 39.5t83.5 14
q41 0 76.5 -14.5t59.5 -43t32.5 -71.5t-5.5 -100l-67 -14q23 92 -6 139.5t-92 47.5q-62 0 -94 -39t-32 -106q0 -36 6 -71t12 -71h187l-10 -52h-169q1 -11 1.5 -23t0.5 -24q0 -61 -17 -112q38 -24 72 -43t66 -19q35 0 58 27.5t18 81.5l50 -3q5 -54 -6.5 -88.5t-31.5 -54
t-45 -27t-47 -7.5zM110 38q37 0 63.5 16t43.5 43q-29 20 -58 33.5t-60 13.5q-35 0 -49 -15.5t-14 -35.5q0 -26 19.5 -40.5t54.5 -14.5z" />
    <glyph glyph-name="yen.oldtab" horiz-adv-x="612" 
d="M325 148l-27 -148h-78l27 148h-142l10 52h141l14 78h-142l11 52h122l-115 337h78l100 -309h3l205 309h76l-228 -337h120l-10 -52h-142l-14 -78h142l-10 -52h-141z" />
    <glyph glyph-name="florin.oldtab" horiz-adv-x="613" 
d="M64 -29q32 -2 51.5 -0.5t38.5 9.5q12 5 22 12.5t18 20.5t15.5 33t14.5 50l58 235h-109l12 59h111l31 126q18 74 50.5 108.5t82.5 44.5q29 6 57 5.5t56 -2.5l-15 -61q-32 2 -51 1t-39 -9q-12 -5 -22 -12.5t-19 -21t-17 -33.5t-15 -50l-24 -95h132l-12 -60h-135l-65 -265
q-18 -74 -48.5 -108.5t-80.5 -44.5q-30 -6 -58 -5.5t-56 2.5z" />
    <glyph glyph-name="zero.oldtab" horiz-adv-x="612" 
d="M73 216q0 56 15.5 112t47 100.5t79 72t111.5 27.5q52 0 91 -16.5t65 -46t39.5 -70.5t13.5 -91q0 -65 -18.5 -122.5t-51.5 -100t-79.5 -67t-103.5 -24.5q-50 0 -89 16.5t-65.5 46.5t-40.5 71.5t-14 91.5zM286 47q31 0 55.5 11t43 30.5t31.5 45t21 54.5q9 32 13 65t4 64
q0 72 -30 113t-100 41q-31 0 -55.5 -10.5t-43 -29t-31.5 -43.5t-21 -53q-10 -32 -14 -65.5t-4 -65.5q0 -72 28.5 -114.5t102.5 -42.5z" />
    <glyph glyph-name="one.oldtab" horiz-adv-x="611" 
d="M68 -1l10 62h167l60 339h-158l8 48l48 4q50 4 81 17.5t60 51.5h59l-82 -460h154l-10 -62h-397z" />
    <glyph glyph-name="two.oldtab" horiz-adv-x="612" 
d="M63 61q53 19 92 34.5t69 30t54 28.5t47 29q57 38 85.5 79t28.5 98t-32.5 84t-79.5 27q-34 0 -62 -14t-47 -40.5t-26.5 -64.5t-0.5 -85l-69 16q-7 58 7 104t42.5 77t69 47.5t88.5 16.5q47 0 82.5 -13.5t59.5 -37t36.5 -54.5t12.5 -66q0 -67 -41 -121.5t-113 -96.5
q-31 -17 -68.5 -36t-80.5 -34l-1 -7h273l-12 -62h-426z" />
    <glyph glyph-name="three.oldtab" horiz-adv-x="612" 
d="M255 -169q-49 0 -90.5 14.5t-69 44t-38 73t2.5 101.5l67 19q-18 -99 16.5 -147t112.5 -48q37 0 64.5 12t45.5 32.5t26.5 46.5t8.5 54q0 60 -40.5 91t-110.5 31h-57l12 62h79q31 0 58.5 11t48.5 31t33.5 48t12.5 62q0 30 -10.5 49.5t-27 31t-36.5 16.5t-40 5
q-60 0 -98 -39t-43 -114l-65 17q4 51 21.5 87.5t45 60t63 34.5t76.5 11q42 0 77 -10.5t60 -31t39 -50t14 -67.5q0 -37 -13.5 -69t-37 -56t-56 -39.5t-70.5 -19.5v-3q66 -13 106 -55t40 -102q0 -41 -16.5 -76.5t-46 -61.5t-71.5 -41t-93 -15z" />
    <glyph glyph-name="four.oldtab" horiz-adv-x="612" 
d="M316 42h-294l12 62l359 419h86l-75 -419h121l-12 -62h-120l-30 -169h-77zM326 104l59 326h-4l-274 -324v-2h219z" />
    <glyph glyph-name="five.oldtab" horiz-adv-x="612" 
d="M119 79q-9 -39 -5 -74t20 -61t43 -41t64 -15q39 0 69.5 16.5t50.5 45t30.5 66.5t10.5 82q0 38 -8.5 65t-23.5 44.5t-36 25.5t-46 8q-51 0 -87.5 -28.5t-57.5 -69.5l-66 20l114 355h317l-12 -62h-258l-70 -215l3 -1q22 23 54.5 39.5t79.5 16.5q38 0 70.5 -12.5t56.5 -37
t37.5 -61t13.5 -85.5q0 -55 -17 -104t-48.5 -85.5t-76 -58t-98.5 -21.5q-45 0 -85 15.5t-68 44.5t-39.5 72t0.5 97z" />
    <glyph glyph-name="six.oldtab" horiz-adv-x="612" 
d="M80 237q0 32 4.5 71t14 80t26 82t40.5 77q36 55 91 91t137 36q39 0 72 -12t56 -35t34 -56.5t5 -75.5l-67 -17q6 41 -2.5 68t-25.5 42.5t-39 22t-43 6.5q-54 0 -93 -27t-65 -69q-23 -37 -38 -80t-21 -85l3 -1q29 42 73 66t99 24q40 0 75 -12.5t61 -37t41 -60.5t15 -83
q0 -52 -16 -99.5t-47 -83.5t-77 -57.5t-106 -21.5q-44 0 -81.5 14.5t-65.5 45t-44 77t-16 110.5zM293 47q38 0 67.5 16.5t50 44t31 64t10.5 77.5q0 65 -34 101.5t-92 36.5q-36 0 -66 -14.5t-52 -40.5t-34.5 -61t-12.5 -77q0 -75 37 -111t95 -36z" />
    <glyph glyph-name="seven.oldtab" horiz-adv-x="612" 
d="M467 459h-348l11 59h424l-10 -64l-377 -554h-79z" />
    <glyph glyph-name="eight.oldtab" horiz-adv-x="612" 
d="M59 165q0 71 49 118.5t130 58.5v3q-17 6 -36 19t-35 33t-26.5 45t-10.5 55q0 33 14 65t41 57.5t68 41.5t95 16q48 0 85 -14t62.5 -37.5t38.5 -54.5t13 -65q0 -36 -13.5 -65.5t-36 -51.5t-50.5 -35.5t-56 -16.5v-3q27 -8 51 -22t41.5 -33.5t27.5 -44t10 -52.5
q0 -36 -14 -70.5t-43 -61.5t-73 -43.5t-104 -16.5q-61 0 -104 15t-70.5 39.5t-40.5 56t-13 64.5zM348 620q-66 0 -101.5 -35.5t-35.5 -92.5q0 -30 9.5 -53.5t26 -39.5t38.5 -24.5t47 -8.5q59 0 96.5 36.5t37.5 102.5q0 57 -32.5 86t-85.5 29zM287 47q74 0 113 38.5t39 96.5
q0 57 -37 92.5t-104 35.5q-37 0 -66 -12t-49.5 -31.5t-31 -45.5t-10.5 -54q0 -57 40.5 -88.5t105.5 -31.5z" />
    <glyph glyph-name="nine.oldtab" horiz-adv-x="612" 
d="M282 125q36 0 66 15.5t52 42.5t34.5 63t12.5 78q0 75 -35.5 111t-93.5 36q-38 0 -68 -16.5t-51 -44t-32 -64.5t-11 -77q0 -65 34 -104.5t92 -39.5zM527 274q0 -38 -6 -85t-19.5 -96.5t-36.5 -96.5t-57 -84q-35 -37 -81.5 -59.5t-108.5 -22.5q-39 0 -72.5 12t-57 35
t-35 56.5t-5.5 75.5l67 17q-6 -41 3 -68t25.5 -42.5t39 -22t43.5 -6.5q40 0 72.5 17.5t58.5 46.5q35 42 56.5 98t28.5 113l-3 1q-32 -51 -74.5 -73t-97.5 -22q-39 0 -74 13.5t-61 39t-41.5 62t-15.5 83.5q0 51 15.5 98.5t46 83.5t76.5 58t106 22q96 0 152 -63t56 -191z" />
    <glyph glyph-name="zero.num" horiz-adv-x="375" 
d="M255 725q36 0 60.5 -13t39 -34t21 -48.5t6.5 -56.5q0 -39 -10 -81.5t-30 -77.5t-52 -57.5t-75 -22.5q-36 0 -60.5 13t-39.5 34t-21 48.5t-6 56.5q0 39 9.5 81.5t29.5 77.5t52 57.5t76 22.5zM253 678q-33 0 -54.5 -24.5t-33.5 -61.5q-8 -27 -12 -58t-4 -60
q0 -50 16.5 -71.5t51.5 -21.5t57 26.5t33 65.5q8 26 11 54.5t3 55.5q0 51 -16.5 73t-51.5 22z" />
    <glyph glyph-name="one.num" horiz-adv-x="248" 
d="M125 342l53 301h-74l7 38l22 2q46 4 72 40h46l-68 -381h-58z" />
    <glyph glyph-name="two.num" horiz-adv-x="347" 
d="M67 388q113 62 172.5 114.5t59.5 113.5q0 62 -64 62q-20 0 -36 -6.5t-26.5 -21.5t-14.5 -39.5t1 -61.5l-55 8q-5 43 3 74.5t26 52.5t44 31t58 10q63 0 93.5 -31.5t30.5 -77.5q0 -41 -19.5 -74.5t-49 -61t-65 -48t-67.5 -35.5v-6h174l-9 -49h-264z" />
    <glyph glyph-name="three.num" horiz-adv-x="353" 
d="M200 334q-30 0 -56 9t-44 26.5t-25.5 42t-1.5 56.5l57 10q-5 -19 -3 -36.5t10.5 -31t24.5 -21.5t40 -8q35 0 59 22t24 57q0 27 -19 43.5t-54 16.5h-46l5 45h60q38 0 52.5 20t14.5 44q0 25 -17 37.5t-44 12.5q-28 0 -48 -14.5t-25 -52.5l-52 13q3 27 15 46t29.5 31
t39 17.5t43.5 5.5q54 0 87 -24.5t33 -66.5q0 -40 -24.5 -62t-62.5 -27v-6q32 -8 53 -29.5t21 -56.5q0 -27 -11.5 -48.5t-31 -37.5t-46.5 -24.5t-57 -8.5z" />
    <glyph glyph-name="four.num" horiz-adv-x="344" 
d="M243 471l28 171h-4l-143 -166v-5h119zM291 423l-14 -81h-56l14 81h-184l6 42l221 255h62l-41 -249h56l-8 -48h-56z" />
    <glyph glyph-name="five.num" horiz-adv-x="348" 
d="M206 334q-26 0 -49 8t-40 23.5t-26.5 39t-7.5 53.5l58 11q-4 -36 11 -62t54 -26q24 0 39.5 10t25 26t13.5 35.5t4 37.5q0 42 -17.5 57t-39.5 15q-28 0 -45.5 -16.5t-31.5 -39.5l-57 23l62 188h204l-9 -49h-163l-33 -96l4 -2q13 15 32.5 26t48.5 11q21 0 40 -7.5t33.5 -22
t23.5 -36.5t9 -51q0 -32 -10.5 -60.5t-29.5 -49.5t-45.5 -33.5t-57.5 -12.5z" />
    <glyph glyph-name="six.num" horiz-adv-x="365" 
d="M89 483q0 41 9 84t30 78t54 57.5t81 22.5t79 -24t33 -69l-52 -7q-4 32 -22 42.5t-41 10.5q-25 0 -43.5 -11t-31.5 -29.5t-21.5 -42t-12.5 -48.5h5q14 22 37.5 38t58.5 16q47 0 80 -30t33 -86q0 -29 -10 -56t-28.5 -48t-46 -34t-62.5 -13q-56 0 -92.5 34.5t-36.5 114.5z
M237 556q-36 0 -61.5 -25t-25.5 -70q0 -42 20 -61t49 -19q42 0 63.5 28.5t21.5 70.5q0 36 -18 56t-49 20z" />
    <glyph glyph-name="seven.num" horiz-adv-x="286" 
d="M270 665v3h-184l10 49h245l-8 -48l-195 -327h-64z" />
    <glyph glyph-name="eight.num" horiz-adv-x="358" 
d="M71 437q0 40 27.5 65.5t65.5 34.5v4q-23 12 -38.5 31t-15.5 48q0 44 34.5 74.5t100.5 30.5q56 0 89 -28.5t33 -70.5q0 -20 -7.5 -35.5t-19.5 -26.5t-26.5 -18.5t-29.5 -11.5v-4q31 -11 48 -33t17 -54q0 -20 -8 -39t-25.5 -35t-44 -25.5t-62.5 -9.5q-39 0 -65.5 10
t-42.5 25t-23 33t-7 35zM243 679q-34 0 -53.5 -15.5t-19.5 -45.5q0 -27 18.5 -44.5t48.5 -17.5q35 0 52.5 20t17.5 46q0 25 -17 41t-47 16zM217 511q-42 0 -63.5 -20.5t-21.5 -48.5q0 -26 18 -44t59 -18q43 0 61 20t18 48t-17.5 45.5t-53.5 17.5z" />
    <glyph glyph-name="nine.num" horiz-adv-x="365" 
d="M223 503q36 0 61.5 25t25.5 70q0 42 -20 61t-49 19q-42 0 -63.5 -28.5t-21.5 -70.5q0 -36 18 -56t49 -20zM371 572q0 -36 -9 -77.5t-29.5 -77t-55 -59.5t-85.5 -24q-48 0 -76.5 24t-30.5 69l52 7q4 -29 20.5 -41t39.5 -12q25 0 44 11t33 29.5t22.5 42t13.5 48.5h-5
q-14 -20 -38 -37t-59 -17q-47 0 -80 30t-33 86q0 30 10 57t29 48t46.5 33.5t62.5 12.5q57 0 92.5 -36t35.5 -117z" />
    <glyph glyph-name="zero.den" horiz-adv-x="375" 
d="M195 385q36 0 60.5 -13t39 -34t21 -48.5t6.5 -56.5q0 -39 -10 -81.5t-30 -77.5t-52 -57.5t-75 -22.5q-36 0 -60.5 13t-39.5 34t-21 48.5t-6 56.5q0 39 9.5 81.5t29.5 77.5t52 57.5t76 22.5zM193 338q-33 0 -54.5 -24.5t-33.5 -61.5q-8 -27 -12 -58t-4 -60
q0 -50 16.5 -71.5t51.5 -21.5t57 26.5t33 65.5q8 26 11 54.5t3 55.5q0 51 -16.5 73t-51.5 22z" />
    <glyph glyph-name="one.den" horiz-adv-x="248" 
d="M65 2l53 301h-74l7 38l22 2q46 4 72 40h46l-68 -381h-58z" />
    <glyph glyph-name="two.den" horiz-adv-x="347" 
d="M7 48q113 62 172.5 114.5t59.5 113.5q0 62 -64 62q-20 0 -36 -6.5t-26.5 -21.5t-14.5 -39.5t1 -61.5l-55 8q-5 43 3 74.5t26 52.5t44 31t58 10q63 0 93.5 -31.5t30.5 -77.5q0 -41 -19.5 -74.5t-49 -61t-65 -48t-67.5 -35.5v-6h174l-9 -49h-264z" />
    <glyph glyph-name="three.den" horiz-adv-x="353" 
d="M140 -6q-30 0 -56 9t-44 26.5t-25.5 42t-1.5 56.5l57 10q-5 -19 -3 -36.5t10.5 -31t24.5 -21.5t40 -8q35 0 59 22t24 57q0 27 -19 43.5t-54 16.5h-46l5 45h60q38 0 52.5 20t14.5 44q0 25 -17 37.5t-44 12.5q-28 0 -48 -14.5t-25 -52.5l-52 13q3 27 15 46t29.5 31t39 17.5
t43.5 5.5q54 0 87 -24.5t33 -66.5q0 -40 -24.5 -62t-62.5 -27v-6q32 -8 53 -29.5t21 -56.5q0 -27 -11.5 -48.5t-31 -37.5t-46.5 -24.5t-57 -8.5z" />
    <glyph glyph-name="four.den" horiz-adv-x="344" 
d="M183 131l28 171h-4l-143 -166v-5h119zM231 83l-14 -81h-56l14 81h-184l6 42l221 255h62l-41 -249h56l-8 -48h-56z" />
    <glyph glyph-name="five.den" horiz-adv-x="348" 
d="M146 -6q-26 0 -49 8t-40 23.5t-26.5 39t-7.5 53.5l58 11q-4 -36 11 -62t54 -26q24 0 39.5 10t25 26t13.5 35.5t4 37.5q0 42 -17.5 57t-39.5 15q-28 0 -45.5 -16.5t-31.5 -39.5l-57 23l62 188h204l-9 -49h-163l-33 -96l4 -2q13 15 32.5 26t48.5 11q21 0 40 -7.5t33.5 -22
t23.5 -36.5t9 -51q0 -32 -10.5 -60.5t-29.5 -49.5t-45.5 -33.5t-57.5 -12.5z" />
    <glyph glyph-name="six.den" horiz-adv-x="365" 
d="M29 143q0 41 9 84t30 78t54 57.5t81 22.5t79 -24t33 -69l-52 -7q-4 32 -22 42.5t-41 10.5q-25 0 -43.5 -11t-31.5 -29.5t-21.5 -42t-12.5 -48.5h5q14 22 37.5 38t58.5 16q47 0 80 -30t33 -86q0 -29 -10 -56t-28.5 -48t-46 -34t-62.5 -13q-56 0 -92.5 34.5t-36.5 114.5z
M177 216q-36 0 -61.5 -25t-25.5 -70q0 -42 20 -61t49 -19q42 0 63.5 28.5t21.5 70.5q0 36 -18 56t-49 20z" />
    <glyph glyph-name="seven.den" horiz-adv-x="286" 
d="M210 325v3h-184l10 49h245l-8 -48l-195 -327h-64z" />
    <glyph glyph-name="eight.den" horiz-adv-x="358" 
d="M11 97q0 40 27.5 65.5t65.5 34.5v4q-23 12 -38.5 31t-15.5 48q0 44 34.5 74.5t100.5 30.5q56 0 89 -28.5t33 -70.5q0 -20 -7.5 -35.5t-19.5 -26.5t-26.5 -18.5t-29.5 -11.5v-4q31 -11 48 -33t17 -54q0 -20 -8 -39t-25.5 -35t-44 -25.5t-62.5 -9.5q-39 0 -65.5 10
t-42.5 25t-23 33t-7 35zM183 339q-34 0 -53.5 -15.5t-19.5 -45.5q0 -27 18.5 -44.5t48.5 -17.5q35 0 52.5 20t17.5 46q0 25 -17 41t-47 16zM157 171q-42 0 -63.5 -20.5t-21.5 -48.5q0 -26 18 -44t59 -18q43 0 61 20t18 48t-17.5 45.5t-53.5 17.5z" />
    <glyph glyph-name="nine.den" horiz-adv-x="365" 
d="M163 163q36 0 61.5 25t25.5 70q0 42 -20 61t-49 19q-42 0 -63.5 -28.5t-21.5 -70.5q0 -36 18 -56t49 -20zM311 232q0 -36 -9 -77.5t-29.5 -77t-55 -59.5t-85.5 -24q-48 0 -76.5 24t-30.5 69l52 7q4 -29 20.5 -41t39.5 -12q25 0 44 11t33 29.5t22.5 42t13.5 48.5h-5
q-14 -20 -38 -37t-59 -17q-47 0 -80 30t-33 86q0 30 10 57t29 48t46.5 33.5t62.5 12.5q57 0 92.5 -36t35.5 -117z" />
    <glyph glyph-name="zero.sub" horiz-adv-x="375" 
d="M174 265q36 0 60.5 -13t39 -34t21 -48.5t6.5 -56.5q0 -39 -10 -81.5t-30 -77.5t-52 -57.5t-75 -22.5q-36 0 -60.5 13t-39.5 34t-21 48.5t-6 56.5q0 39 9.5 81.5t29.5 77.5t52 57.5t76 22.5zM172 218q-33 0 -54.5 -24.5t-33.5 -61.5q-8 -27 -12 -58t-4 -60
q0 -50 16.5 -71.5t51.5 -21.5t57 26.5t33 65.5q8 26 11 54.5t3 55.5q0 51 -16.5 73t-51.5 22z" />
    <glyph glyph-name="one.sub" horiz-adv-x="248" 
d="M44 -118l53 301h-74l7 38l22 2q46 4 72 40h46l-68 -381h-58z" />
    <glyph glyph-name="two.sub" horiz-adv-x="347" 
d="M-14 -72q113 62 172.5 114.5t59.5 113.5q0 62 -64 62q-20 0 -36 -6.5t-26.5 -21.5t-14.5 -39.5t1 -61.5l-55 8q-5 43 3 74.5t26 52.5t44 31t58 10q63 0 93.5 -31.5t30.5 -77.5q0 -41 -19.5 -74.5t-49 -61t-65 -48t-67.5 -35.5v-6h174l-9 -49h-264z" />
    <glyph glyph-name="three.sub" horiz-adv-x="353" 
d="M119 -126q-30 0 -56 9t-44 26.5t-25.5 42t-1.5 56.5l57 10q-5 -19 -3 -36.5t10.5 -31t24.5 -21.5t40 -8q35 0 59 22t24 57q0 27 -19 43.5t-54 16.5h-46l5 45h60q38 0 52.5 20t14.5 44q0 25 -17 37.5t-44 12.5q-28 0 -48 -14.5t-25 -52.5l-52 13q3 27 15 46t29.5 31
t39 17.5t43.5 5.5q54 0 87 -24.5t33 -66.5q0 -40 -24.5 -62t-62.5 -27v-6q32 -8 53 -29.5t21 -56.5q0 -27 -11.5 -48.5t-31 -37.5t-46.5 -24.5t-57 -8.5z" />
    <glyph glyph-name="four.sub" horiz-adv-x="344" 
d="M162 11l28 171h-4l-143 -166v-5h119zM210 -37l-14 -81h-56l14 81h-184l6 42l221 255h62l-41 -249h56l-8 -48h-56z" />
    <glyph glyph-name="five.sub" horiz-adv-x="348" 
d="M124 -126q-26 0 -49 8t-40 23.5t-26.5 39t-7.5 53.5l58 11q-4 -36 11 -62t54 -26q24 0 39.5 10t25 26t13.5 35.5t4 37.5q0 42 -17.5 57t-39.5 15q-28 0 -45.5 -16.5t-31.5 -39.5l-57 23l62 188h204l-9 -49h-163l-33 -96l4 -2q13 15 32.5 26t48.5 11q21 0 40 -7.5
t33.5 -22t23.5 -36.5t9 -51q0 -32 -10.5 -60.5t-29.5 -49.5t-45.5 -33.5t-57.5 -12.5z" />
    <glyph glyph-name="six.sub" horiz-adv-x="365" 
d="M8 23q0 41 9 84t30 78t54 57.5t81 22.5t79 -24t33 -69l-52 -7q-4 32 -22 42.5t-41 10.5q-25 0 -43.5 -11t-31.5 -29.5t-21.5 -42t-12.5 -48.5h5q14 22 37.5 38t58.5 16q47 0 80 -30t33 -86q0 -29 -10 -56t-28.5 -48t-46 -34t-62.5 -13q-56 0 -92.5 34.5t-36.5 114.5z
M156 96q-36 0 -61.5 -25t-25.5 -70q0 -42 20 -61t49 -19q42 0 63.5 28.5t21.5 70.5q0 36 -18 56t-49 20z" />
    <glyph glyph-name="seven.sub" horiz-adv-x="286" 
d="M188 205v3h-184l10 49h245l-8 -48l-195 -327h-64z" />
    <glyph glyph-name="eight.sub" horiz-adv-x="358" 
d="M-10 -23q0 40 27.5 65.5t65.5 34.5v4q-23 12 -38.5 31t-15.5 48q0 44 34.5 74.5t100.5 30.5q56 0 89 -28.5t33 -70.5q0 -20 -7.5 -35.5t-19.5 -26.5t-26.5 -18.5t-29.5 -11.5v-4q31 -11 48 -33t17 -54q0 -20 -8 -39t-25.5 -35t-44 -25.5t-62.5 -9.5q-39 0 -65.5 10
t-42.5 25t-23 33t-7 35zM162 219q-34 0 -53.5 -15.5t-19.5 -45.5q0 -27 18.5 -44.5t48.5 -17.5q35 0 52.5 20t17.5 46q0 25 -17 41t-47 16zM136 51q-42 0 -63.5 -20.5t-21.5 -48.5q0 -26 18 -44t59 -18q43 0 61 20t18 48t-17.5 45.5t-53.5 17.5z" />
    <glyph glyph-name="nine.sub" horiz-adv-x="365" 
d="M141 43q36 0 61.5 25t25.5 70q0 42 -20 61t-49 19q-42 0 -63.5 -28.5t-21.5 -70.5q0 -36 18 -56t49 -20zM289 112q0 -36 -9 -77.5t-29.5 -77t-55 -59.5t-85.5 -24q-48 0 -76.5 24t-30.5 69l52 7q4 -29 20.5 -41t39.5 -12q25 0 44 11t33 29.5t22.5 42t13.5 48.5h-5
q-14 -20 -38 -37t-59 -17q-47 0 -80 30t-33 86q0 30 10 57t29 48t46.5 33.5t62.5 12.5q57 0 92.5 -36t35.5 -117z" />
    <glyph glyph-name="plus.sub" horiz-adv-x="308" 
d="M83 8h-91l8 49h91l18 94h54l-18 -94h91l-8 -49h-91l-17 -91h-54z" />
    <glyph glyph-name="minus.sub" horiz-adv-x="302" 
d="M-8 8l9 49h230l-9 -49h-230z" />
    <glyph glyph-name="zero.sup" horiz-adv-x="376" 
d="M266 790q36 0 60.5 -13t39 -34t21 -48.5t6.5 -56.5q0 -39 -10 -81.5t-30 -77.5t-52 -57.5t-75 -22.5q-36 0 -60.5 13t-39.5 34t-21 48.5t-6 56.5q0 39 9.5 81.5t29.5 77.5t52 57.5t76 22.5zM264 743q-33 0 -54.5 -24.5t-33.5 -61.5q-8 -27 -12 -58t-4 -60
q0 -50 16.5 -71.5t51.5 -21.5t57 26.5t33 65.5q8 26 11 54.5t3 55.5q0 51 -16.5 73t-51.5 22z" />
    <glyph glyph-name="one.sup" horiz-adv-x="248" 
d="M136 407l53 301h-74l7 38l22 2q46 4 72 40h46l-68 -381h-58z" />
    <glyph glyph-name="two.sup" horiz-adv-x="346" 
d="M78 453q113 62 172.5 114.5t59.5 113.5q0 62 -64 62q-20 0 -36 -6.5t-26.5 -21.5t-14.5 -39.5t1 -61.5l-55 8q-5 43 3 74.5t26 52.5t44 31t58 10q63 0 93.5 -31.5t30.5 -77.5q0 -41 -19.5 -74.5t-49 -61t-65 -48t-67.5 -35.5v-6h174l-9 -49h-264z" />
    <glyph glyph-name="three.sup" horiz-adv-x="353" 
d="M211 399q-30 0 -56 9t-44 26.5t-25.5 42t-1.5 56.5l57 10q-5 -19 -3 -36.5t10.5 -31t24.5 -21.5t40 -8q35 0 59 22t24 57q0 27 -19 43.5t-54 16.5h-46l5 45h60q38 0 52.5 20t14.5 44q0 25 -17 37.5t-44 12.5q-28 0 -48 -14.5t-25 -52.5l-52 13q3 27 15 46t29.5 31
t39 17.5t43.5 5.5q54 0 87 -24.5t33 -66.5q0 -40 -24.5 -62t-62.5 -27v-6q32 -8 53 -29.5t21 -56.5q0 -27 -11.5 -48.5t-31 -37.5t-46.5 -24.5t-57 -8.5z" />
    <glyph glyph-name="four.sup" horiz-adv-x="344" 
d="M253 536l28 171h-4l-143 -166v-5h119zM301 488l-14 -81h-56l14 81h-184l6 42l221 255h62l-41 -249h56l-8 -48h-56z" />
    <glyph glyph-name="five.sup" horiz-adv-x="348" 
d="M216 399q-26 0 -49 8t-40 23.5t-26.5 39t-7.5 53.5l58 11q-4 -36 11 -62t54 -26q24 0 39.5 10t25 26t13.5 35.5t4 37.5q0 42 -17.5 57t-39.5 15q-28 0 -45.5 -16.5t-31.5 -39.5l-57 23l62 188h204l-9 -49h-163l-33 -96l4 -2q13 15 32.5 26t48.5 11q21 0 40 -7.5t33.5 -22
t23.5 -36.5t9 -51q0 -32 -10.5 -60.5t-29.5 -49.5t-45.5 -33.5t-57.5 -12.5z" />
    <glyph glyph-name="six.sup" horiz-adv-x="366" 
d="M100 548q0 41 9 84t30 78t54 57.5t81 22.5t79 -24t33 -69l-52 -7q-4 32 -22 42.5t-41 10.5q-25 0 -43.5 -11t-31.5 -29.5t-21.5 -42t-12.5 -48.5h5q14 22 37.5 38t58.5 16q47 0 80 -30t33 -86q0 -29 -10 -56t-28.5 -48t-46 -34t-62.5 -13q-56 0 -92.5 34.5t-36.5 114.5z
M248 621q-36 0 -61.5 -25t-25.5 -70q0 -42 20 -61t49 -19q42 0 63.5 28.5t21.5 70.5q0 36 -18 56t-49 20z" />
    <glyph glyph-name="seven.sup" horiz-adv-x="286" 
d="M280 730v3h-184l10 49h245l-8 -48l-195 -327h-64z" />
    <glyph glyph-name="eight.sup" horiz-adv-x="358" 
d="M82 502q0 40 27.5 65.5t65.5 34.5v4q-23 12 -38.5 31t-15.5 48q0 44 34.5 74.5t100.5 30.5q56 0 89 -28.5t33 -70.5q0 -20 -7.5 -35.5t-19.5 -26.5t-26.5 -18.5t-29.5 -11.5v-4q31 -11 48 -33t17 -54q0 -20 -8 -39t-25.5 -35t-44 -25.5t-62.5 -9.5q-39 0 -65.5 10
t-42.5 25t-23 33t-7 35zM254 744q-34 0 -53.5 -15.5t-19.5 -45.5q0 -27 18.5 -44.5t48.5 -17.5q35 0 52.5 20t17.5 46q0 25 -17 41t-47 16zM228 576q-42 0 -63.5 -20.5t-21.5 -48.5q0 -26 18 -44t59 -18q43 0 61 20t18 48t-17.5 45.5t-53.5 17.5z" />
    <glyph glyph-name="nine.sup" horiz-adv-x="364" 
d="M233 568q36 0 61.5 25t25.5 70q0 42 -20 61t-49 19q-42 0 -63.5 -28.5t-21.5 -70.5q0 -36 18 -56t49 -20zM381 637q0 -36 -9 -77.5t-29.5 -77t-55 -59.5t-85.5 -24q-48 0 -76.5 24t-30.5 69l52 7q4 -29 20.5 -41t39.5 -12q25 0 44 11t33 29.5t22.5 42t13.5 48.5h-5
q-14 -20 -38 -37t-59 -17q-47 0 -80 30t-33 86q0 30 10 57t29 48t46.5 33.5t62.5 12.5q57 0 92.5 -36t35.5 -117z" />
    <glyph glyph-name="plus.sup" horiz-adv-x="308" 
d="M175 537h-91l8 49h91l18 94h54l-18 -94h91l-8 -49h-91l-17 -91h-54z" />
    <glyph glyph-name="minus.sup" horiz-adv-x="303" 
d="M84 537l9 49h230l-9 -49h-230z" />
    <glyph glyph-name="aacute.alt" horiz-adv-x="594" 
d="M436 410l35 108h59l-68 -382q-5 -27 -5.5 -44.5t6 -27.5t21 -13.5t40.5 -1.5l18 1l-8 -50q-14 -5 -31 -7.5t-35 -2.5q-38 0 -55.5 15t-23.5 36t-4 42t5 33h-6q-26 -61 -67.5 -93.5t-97.5 -32.5q-82 0 -124.5 57.5t-42.5 155.5q0 61 16.5 119.5t48 104.5t77 73.5
t104.5 27.5q65 0 97 -34.5t38 -83.5h3zM133 201q0 -79 28.5 -116t76.5 -37q43 0 76 27t55.5 68.5t34 90t11.5 91.5q0 75 -31.5 110t-77.5 35q-42 0 -74.5 -23t-54 -61t-33 -86t-11.5 -99zM291 588l60 138h87l-91 -138h-56z" />
    <glyph glyph-name="abreve.alt" horiz-adv-x="594" 
d="M436 410l35 108h59l-68 -382q-5 -27 -5.5 -44.5t6 -27.5t21 -13.5t40.5 -1.5l18 1l-8 -50q-14 -5 -31 -7.5t-35 -2.5q-38 0 -55.5 15t-23.5 36t-4 42t5 33h-6q-26 -61 -67.5 -93.5t-97.5 -32.5q-82 0 -124.5 57.5t-42.5 155.5q0 61 16.5 119.5t48 104.5t77 73.5
t104.5 27.5q65 0 97 -34.5t38 -83.5h3zM133 201q0 -79 28.5 -116t76.5 -37q43 0 76 27t55.5 68.5t34 90t11.5 91.5q0 75 -31.5 110t-77.5 35q-42 0 -74.5 -23t-54 -61t-33 -86t-11.5 -99zM341 590q-49 0 -77.5 29t-33.5 79l42 11q8 -23 25.5 -39.5t49.5 -16.5q24 0 45.5 13
t37.5 43l41 -12q-14 -51 -48.5 -79t-81.5 -28z" />
    <glyph glyph-name="acircumflex.alt" horiz-adv-x="594" 
d="M436 410l35 108h59l-68 -382q-5 -27 -5.5 -44.5t6 -27.5t21 -13.5t40.5 -1.5l18 1l-8 -50q-14 -5 -31 -7.5t-35 -2.5q-38 0 -55.5 15t-23.5 36t-4 42t5 33h-6q-26 -61 -67.5 -93.5t-97.5 -32.5q-82 0 -124.5 57.5t-42.5 155.5q0 61 16.5 119.5t48 104.5t77 73.5
t104.5 27.5q65 0 97 -34.5t38 -83.5h3zM133 201q0 -79 28.5 -116t76.5 -37q43 0 76 27t55.5 68.5t34 90t11.5 91.5q0 75 -31.5 110t-77.5 35q-42 0 -74.5 -23t-54 -61t-33 -86t-11.5 -99zM342 671l-66 -83h-72l111 125h70l67 -125h-71z" />
    <glyph glyph-name="adieresis.alt" horiz-adv-x="594" 
d="M436 410l35 108h59l-68 -382q-5 -27 -5.5 -44.5t6 -27.5t21 -13.5t40.5 -1.5l18 1l-8 -50q-14 -5 -31 -7.5t-35 -2.5q-38 0 -55.5 15t-23.5 36t-4 42t5 33h-6q-26 -61 -67.5 -93.5t-97.5 -32.5q-82 0 -124.5 57.5t-42.5 155.5q0 61 16.5 119.5t48 104.5t77 73.5
t104.5 27.5q65 0 97 -34.5t38 -83.5h3zM133 201q0 -79 28.5 -116t76.5 -37q43 0 76 27t55.5 68.5t34 90t11.5 91.5q0 75 -31.5 110t-77.5 35q-42 0 -74.5 -23t-54 -61t-33 -86t-11.5 -99zM235 692h79l-15 -82h-79zM389 692h79l-15 -82h-79z" />
    <glyph glyph-name="agrave.alt" horiz-adv-x="594" 
d="M436 410l35 108h59l-68 -382q-5 -27 -5.5 -44.5t6 -27.5t21 -13.5t40.5 -1.5l18 1l-8 -50q-14 -5 -31 -7.5t-35 -2.5q-38 0 -55.5 15t-23.5 36t-4 42t5 33h-6q-26 -61 -67.5 -93.5t-97.5 -32.5q-82 0 -124.5 57.5t-42.5 155.5q0 61 16.5 119.5t48 104.5t77 73.5
t104.5 27.5q65 0 97 -34.5t38 -83.5h3zM133 201q0 -79 28.5 -116t76.5 -37q43 0 76 27t55.5 68.5t34 90t11.5 91.5q0 75 -31.5 110t-77.5 35q-42 0 -74.5 -23t-54 -61t-33 -86t-11.5 -99zM256 726h86l45 -138h-56z" />
    <glyph glyph-name="amacron.alt" horiz-adv-x="594" 
d="M436 410l35 108h59l-68 -382q-5 -27 -5.5 -44.5t6 -27.5t21 -13.5t40.5 -1.5l18 1l-8 -50q-14 -5 -31 -7.5t-35 -2.5q-38 0 -55.5 15t-23.5 36t-4 42t5 33h-6q-26 -61 -67.5 -93.5t-97.5 -32.5q-82 0 -124.5 57.5t-42.5 155.5q0 61 16.5 119.5t48 104.5t77 73.5
t104.5 27.5q65 0 97 -34.5t38 -83.5h3zM133 201q0 -79 28.5 -116t76.5 -37q43 0 76 27t55.5 68.5t34 90t11.5 91.5q0 75 -31.5 110t-77.5 35q-42 0 -74.5 -23t-54 -61t-33 -86t-11.5 -99zM232 669h224l-12 -63h-224z" />
    <glyph glyph-name="aogonek.alt" horiz-adv-x="594" 
d="M495 -214q-29 -17 -60 -17q-34 0 -56.5 20t-22.5 54q0 42 33 82q28 34 70 65q-31 2 -47 15q-17 15 -23 36t-4 42t5 33h-6q-26 -61 -67.5 -93.5t-97.5 -32.5q-82 0 -124.5 57.5t-42.5 155.5q0 61 16.5 119.5t48 104.5t77 73.5t104.5 27.5q65 0 97 -34.5t38 -83.5h3l35 108
h59l-68 -382q-5 -27 -5.5 -44.5t6 -27.5t21 -13.5t40.5 -1.5l18 1l-8 -50q-33 -24 -53 -44.5t-31.5 -38.5t-15.5 -32.5t-4 -24.5q0 -16 8 -25.5t25 -9.5q13 0 26 5zM133 201q0 -79 28.5 -116t76.5 -37q43 0 76 27t55.5 68.5t34 90t11.5 91.5q0 75 -31.5 110t-77.5 35
q-42 0 -74.5 -23t-54 -61t-33 -86t-11.5 -99z" />
    <glyph glyph-name="aring.alt" horiz-adv-x="594" 
d="M436 410l35 108h59l-68 -382q-5 -27 -5.5 -44.5t6 -27.5t21 -13.5t40.5 -1.5l18 1l-8 -50q-14 -5 -31 -7.5t-35 -2.5q-38 0 -55.5 15t-23.5 36t-4 42t5 33h-6q-26 -61 -67.5 -93.5t-97.5 -32.5q-82 0 -124.5 57.5t-42.5 155.5q0 61 16.5 119.5t48 104.5t77 73.5
t104.5 27.5q65 0 97 -34.5t38 -83.5h3zM133 201q0 -79 28.5 -116t76.5 -37q43 0 76 27t55.5 68.5t34 90t11.5 91.5q0 75 -31.5 110t-77.5 35q-42 0 -74.5 -23t-54 -61t-33 -86t-11.5 -99zM435 674q0 -42 -26 -66t-67 -24t-67 24t-26 66t26 67t67 25t67 -25t26 -67zM298 675
q0 -23 12.5 -34.5t31.5 -11.5t31.5 11.5t12.5 34.5t-12.5 34.5t-31.5 11.5t-31.5 -11.5t-12.5 -34.5z" />
    <glyph glyph-name="aringacute.alt" horiz-adv-x="594" 
d="M323 766l60 138h87l-91 -138h-56zM436 410l35 108h59l-68 -382q-5 -27 -5.5 -44.5t6 -27.5t21 -13.5t40.5 -1.5l18 1l-8 -50q-14 -5 -31 -7.5t-35 -2.5q-38 0 -55.5 15t-23.5 36t-4 42t5 33h-6q-26 -61 -67.5 -93.5t-97.5 -32.5q-82 0 -124.5 57.5t-42.5 155.5
q0 61 16.5 119.5t48 104.5t77 73.5t104.5 27.5q65 0 97 -34.5t38 -83.5h3zM133 201q0 -79 28.5 -116t76.5 -37q43 0 76 27t55.5 68.5t34 90t11.5 91.5q0 75 -31.5 110t-77.5 35q-42 0 -74.5 -23t-54 -61t-33 -86t-11.5 -99zM437 649q0 -42 -26 -66t-67 -24t-67 24t-26 66
t26 67t67 25t67 -25t26 -67zM300 650q0 -23 12.5 -34.5t31.5 -11.5t31.5 11.5t12.5 34.5t-12.5 34.5t-31.5 11.5t-31.5 -11.5t-12.5 -34.5z" />
    <glyph glyph-name="atilde.alt" horiz-adv-x="594" 
d="M436 410l35 108h59l-68 -382q-5 -27 -5.5 -44.5t6 -27.5t21 -13.5t40.5 -1.5l18 1l-8 -50q-14 -5 -31 -7.5t-35 -2.5q-38 0 -55.5 15t-23.5 36t-4 42t5 33h-6q-26 -61 -67.5 -93.5t-97.5 -32.5q-82 0 -124.5 57.5t-42.5 155.5q0 61 16.5 119.5t48 104.5t77 73.5
t104.5 27.5q65 0 97 -34.5t38 -83.5h3zM133 201q0 -79 28.5 -116t76.5 -37q43 0 76 27t55.5 68.5t34 90t11.5 91.5q0 75 -31.5 110t-77.5 35q-42 0 -74.5 -23t-54 -61t-33 -86t-11.5 -99zM282 634q-17 0 -25.5 -10t-13.5 -26l-33 10q6 42 27.5 65t53.5 23q16 0 29.5 -5.5
t25.5 -12.5t23.5 -12.5t23.5 -5.5q17 0 25 10.5t13 26.5l33 -11q-7 -42 -28 -65t-53 -23q-16 0 -29 5.5t-25 12.5t-23 12.5t-24 5.5z" />
    <glyph glyph-name="gbreve.alt" horiz-adv-x="560" 
d="M302 473q-34 0 -62 -16.5t-48.5 -45t-32 -65.5t-11.5 -78q0 -66 27 -94.5t75 -28.5q34 0 62 16.5t47.5 44t30.5 64.5t11 78q0 63 -27 94t-72 31zM189 -273q-49 0 -93 8.5t-77 26.5t-53.5 45.5t-21.5 65.5l79 9q2 -21 12 -39t30.5 -31.5t52.5 -21.5t78 -8q56 0 95.5 9
t64 23t36 32.5t11.5 37.5q0 23 -16 39t-56 16h-193q-54 0 -87.5 21.5t-33.5 66.5q0 21 8.5 39t22.5 32t32 24.5t38 17.5q-46 48 -46 128q0 49 15.5 96t45 83.5t72.5 58.5t97 22q61 0 98.5 -27t52.5 -75h5q4 31 13 51t20 31.5t24 15.5t25 4q14 0 25 -2.5t21 -7.5l-12 -65
q-8 2 -17 4t-17 2q-18 0 -29 -7.5t-17.5 -20t-9.5 -30t-5 -36.5q-15 -134 -74.5 -204.5t-153.5 -70.5q-30 0 -55 6.5t-45 17.5q-28 -10 -45 -27.5t-17 -38.5q0 -39 59 -39h170q83 0 120 -32t37 -85q0 -36 -17.5 -66t-53.5 -52t-89.5 -34.5t-125.5 -12.5zM345 590
q-49 0 -77.5 29t-33.5 79l42 11q8 -23 25.5 -39.5t49.5 -16.5q24 0 45.5 13t37.5 43l41 -12q-14 -51 -48.5 -79t-81.5 -28z" />
    <glyph glyph-name="gcircumflex.alt" horiz-adv-x="560" 
d="M302 473q-34 0 -62 -16.5t-48.5 -45t-32 -65.5t-11.5 -78q0 -66 27 -94.5t75 -28.5q34 0 62 16.5t47.5 44t30.5 64.5t11 78q0 63 -27 94t-72 31zM189 -273q-49 0 -93 8.5t-77 26.5t-53.5 45.5t-21.5 65.5l79 9q2 -21 12 -39t30.5 -31.5t52.5 -21.5t78 -8q56 0 95.5 9
t64 23t36 32.5t11.5 37.5q0 23 -16 39t-56 16h-193q-54 0 -87.5 21.5t-33.5 66.5q0 21 8.5 39t22.5 32t32 24.5t38 17.5q-46 48 -46 128q0 49 15.5 96t45 83.5t72.5 58.5t97 22q61 0 98.5 -27t52.5 -75h5q4 31 13 51t20 31.5t24 15.5t25 4q14 0 25 -2.5t21 -7.5l-12 -65
q-8 2 -17 4t-17 2q-18 0 -29 -7.5t-17.5 -20t-9.5 -30t-5 -36.5q-15 -134 -74.5 -204.5t-153.5 -70.5q-30 0 -55 6.5t-45 17.5q-28 -10 -45 -27.5t-17 -38.5q0 -39 59 -39h170q83 0 120 -32t37 -85q0 -36 -17.5 -66t-53.5 -52t-89.5 -34.5t-125.5 -12.5zM346 671l-66 -83
h-72l111 125h70l67 -125h-71z" />
    <glyph glyph-name="gcommaaccent.alt" horiz-adv-x="560" 
d="M302 473q-34 0 -62 -16.5t-48.5 -45t-32 -65.5t-11.5 -78q0 -66 27 -94.5t75 -28.5q34 0 62 16.5t47.5 44t30.5 64.5t11 78q0 63 -27 94t-72 31zM189 -273q-49 0 -93 8.5t-77 26.5t-53.5 45.5t-21.5 65.5l79 9q2 -21 12 -39t30.5 -31.5t52.5 -21.5t78 -8q56 0 95.5 9
t64 23t36 32.5t11.5 37.5q0 23 -16 39t-56 16h-193q-54 0 -87.5 21.5t-33.5 66.5q0 21 8.5 39t22.5 32t32 24.5t38 17.5q-46 48 -46 128q0 49 15.5 96t45 83.5t72.5 58.5t97 22q61 0 98.5 -27t52.5 -75h5q4 31 13 51t20 31.5t24 15.5t25 4q14 0 25 -2.5t21 -7.5l-12 -65
q-8 2 -17 4t-17 2q-18 0 -29 -7.5t-17.5 -20t-9.5 -30t-5 -36.5q-15 -134 -74.5 -204.5t-153.5 -70.5q-30 0 -55 6.5t-45 17.5q-28 -10 -45 -27.5t-17 -38.5q0 -39 59 -39h170q83 0 120 -32t37 -85q0 -36 -17.5 -66t-53.5 -52t-89.5 -34.5t-125.5 -12.5zM396 704l-50 -35
l-1 -9h43l-12 -71h-80l17 99l90 61z" />
    <glyph glyph-name="gdotaccent.alt" horiz-adv-x="560" 
d="M302 473q-34 0 -62 -16.5t-48.5 -45t-32 -65.5t-11.5 -78q0 -66 27 -94.5t75 -28.5q34 0 62 16.5t47.5 44t30.5 64.5t11 78q0 63 -27 94t-72 31zM189 -273q-49 0 -93 8.5t-77 26.5t-53.5 45.5t-21.5 65.5l79 9q2 -21 12 -39t30.5 -31.5t52.5 -21.5t78 -8q56 0 95.5 9
t64 23t36 32.5t11.5 37.5q0 23 -16 39t-56 16h-193q-54 0 -87.5 21.5t-33.5 66.5q0 21 8.5 39t22.5 32t32 24.5t38 17.5q-46 48 -46 128q0 49 15.5 96t45 83.5t72.5 58.5t97 22q61 0 98.5 -27t52.5 -75h5q4 31 13 51t20 31.5t24 15.5t25 4q14 0 25 -2.5t21 -7.5l-12 -65
q-8 2 -17 4t-17 2q-18 0 -29 -7.5t-17.5 -20t-9.5 -30t-5 -36.5q-15 -134 -74.5 -204.5t-153.5 -70.5q-30 0 -55 6.5t-45 17.5q-28 -10 -45 -27.5t-17 -38.5q0 -39 59 -39h170q83 0 120 -32t37 -85q0 -36 -17.5 -66t-53.5 -52t-89.5 -34.5t-125.5 -12.5zM317 698h77l-16 -88
h-77z" />
    <glyph glyph-name="racute.alt" horiz-adv-x="379" 
d="M135 518h60l-15 -132h3q29 76 71.5 109t88.5 33q15 0 25.5 -3t16.5 -7l-12 -66q-19 4 -35 4q-35 0 -63 -15.5t-49.5 -41t-36 -59t-20.5 -68.5l-48 -272h-78zM230 588l60 138h87l-91 -138h-56z" />
    <glyph glyph-name="rcaron.alt" horiz-adv-x="379" 
d="M135 518h60l-15 -132h3q29 76 71.5 109t88.5 33q15 0 25.5 -3t16.5 -7l-12 -66q-19 4 -35 4q-35 0 -63 -15.5t-49.5 -41t-36 -59t-20.5 -68.5l-48 -272h-78zM163 713h71l39 -83l66 83h72l-111 -125h-70z" />
    <glyph glyph-name="rcommaaccent.alt" horiz-adv-x="379" 
d="M135 518h60l-15 -132h3q29 76 71.5 109t88.5 33q15 0 25.5 -3t16.5 -7l-12 -66q-19 4 -35 4q-35 0 -63 -15.5t-49.5 -41t-36 -59t-20.5 -68.5l-48 -272h-78zM11 -185l50 35l1 9h-43l12 71h80l-17 -99l-90 -61z" />
    <glyph glyph-name="ordfeminine.alt" horiz-adv-x="464" 
d="M393 426q-4 -21 -4 -34.5t5 -21t16 -10t31 -2.5h15l-9 -38q-11 -4 -29 -6.5t-32 -2.5q-23 0 -35 9.5t-17.5 24.5t-5 32.5t2.5 32.5h-6q-20 -48 -51.5 -73t-78.5 -25q-61 0 -91.5 42.5t-30.5 116.5q0 48 13 95t37 83.5t59.5 59.5t80.5 23q27 0 45 -8t29 -21t16.5 -30.5
t7.5 -35.5h5l31 87h49zM215 364q31 0 55.5 20.5t41 51.5t25 68t8.5 70q0 57 -21 81t-53 24q-31 0 -54 -17.5t-38 -47t-22.5 -67t-7.5 -76.5q0 -48 14.5 -77.5t51.5 -29.5z" />
    <glyph glyph-name="registered.alt" horiz-adv-x="836" 
d="M435 -16q-75 0 -141 24t-115.5 71.5t-78 117t-28.5 161.5q0 91 28.5 161t78 117.5t115.5 71.5t141 24q74 0 140 -24t115.5 -71.5t78 -117.5t28.5 -161q0 -92 -29 -161.5t-78 -117t-115 -71.5t-140 -24zM435 24q65 0 123 21.5t101 63.5t68 104.5t25 144.5q0 81 -25 143.5
t-68 105t-101 64t-123 21.5q-66 0 -123.5 -21.5t-100.5 -64t-68.5 -105t-25.5 -143.5q0 -82 25 -144.5t68 -104.5t101 -63.5t124 -21.5zM509 345q20 -10 29.5 -31.5t19.5 -50.5q7 -23 11.5 -36.5t8.5 -22t7.5 -14.5t8.5 -12v-12h-71q-3 9 -8 24.5t-10 34t-11 37.5t-12 36
q-8 22 -21 26.5t-42 4.5h-59v-162h-62v390h158q61 0 96.5 -28.5t35.5 -83.5q0 -40 -20.5 -62.5t-58.5 -34.5v-3zM456 380q37 0 52.5 18t15.5 47t-15.5 45.5t-52.5 16.5h-96v-127h96z" />
    <glyph glyph-name="caron.alt" horiz-adv-x="413" 
d="M345 782l-66 -171h-59l48 171h77z" />
    <glyph glyph-name="questiondown.uc" horiz-adv-x="461" 
d="M310.01 513.013l-19.999 -177.989h-39.998q-81.9941 0 -130.991 -45.4971t-48.9971 -127.492q0 -53.9971 30.998 -85.9951t90.9941 -31.998q26.998 0 51.9971 9.49902q24.998 9.5 44.4971 29.499q19.499 19.998 31.498 51.9961t10.999 77.9951l69.9961 -15.999
q0 -56.9961 -17.499 -96.9941q-17.499 -39.9971 -46.9971 -65.9951q-29.498 -25.999 -66.9961 -37.998q-37.4971 -11.999 -78.4951 -11.999q-48.9971 0 -86.9941 14.499q-37.998 14.499 -63.4961 39.4971q-25.499 24.999 -38.498 57.4971t-12.999 69.4951
q0 47.9971 16.999 88.4951q16.999 40.4971 47.9971 69.9961q30.998 29.498 72.9951 47.4971q41.9971 17.998 90.9941 21.998l38.998 119.993h52.9971zM335.008 585.008h-76.9951l23.998 130.992h76.9961z" />
    <glyph glyph-name="exclamdown.uc" horiz-adv-x="250" 
d="M139.008 207.031l-34.998 -206.987h-79.9951l36.998 206.987l72.9951 293.981h39.998zM210.004 585.008h-76.9951l23.998 130.992h76.9951z" />
    <glyph glyph-name="hyphen.uc" horiz-adv-x="310" 
d="M80 375h188l-12 -69h-188z" />
    <glyph glyph-name="endash.uc" horiz-adv-x="560" 
d="M80 375h438l-12 -69h-438z" />
    <glyph glyph-name="emdash.uc" horiz-adv-x="740" 
d="M80 375h618l-12 -69h-618z" />
    <glyph glyph-name="guilsinglleft.uc" horiz-adv-x="275" 
d="M48 337l178 194h69l-168 -194l98 -201h-66z" />
    <glyph glyph-name="guilsinglright.uc" horiz-adv-x="275" 
d="M238 330l-178 -194h-69l168 194l-98 201h66z" />
    <glyph glyph-name="guillemotleft.uc" horiz-adv-x="449" 
d="M222 337l178 194h69l-168 -194l98 -201h-66zM48 337l178 194h69l-168 -194l98 -201h-66z" />
    <glyph glyph-name="guillemotright.uc" horiz-adv-x="449" 
d="M412 330l-178 -194h-69l168 194l-98 201h66zM238 330l-178 -194h-69l168 194l-98 201h66z" />
    <glyph glyph-name="parenleft.uc" horiz-adv-x="325" 
d="M210 -64q-30 29 -55 68t-43 85.5t-27.5 99t-9.5 108.5q0 81 22 155t59 136.5t85.5 111.5t101.5 80l29 -39q-53 -38 -93.5 -87.5t-69 -107.5t-43 -122.5t-14.5 -131.5q0 -87 21.5 -172.5t72.5 -151.5z" />
    <glyph glyph-name="parenright.uc" horiz-adv-x="325" 
d="M135 780q30 -29 55 -68t43 -85.5t27.5 -99t9.5 -108.5q0 -81 -22 -155t-59 -136.5t-85.5 -111.5t-101.5 -80l-29 39q53 38 93.5 87.5t69 107.5t43 122.5t14.5 131.5q0 87 -21.5 172.5t-72.5 151.5z" />
    <glyph glyph-name="bracketleft.uc" horiz-adv-x="318" 
d="M170 766h195l-10 -54h-123l-126 -708h125l-10 -54h-196z" />
    <glyph glyph-name="bracketright.uc" horiz-adv-x="318" 
d="M169 -50h-195l10 54h123l126 708h-125l10 54h196z" />
    <glyph glyph-name="braceleft.uc" horiz-adv-x="316" 
d="M195 -50q-40 0 -67 9.5t-43.5 24.5t-23.5 35t-7 41q0 36 12.5 66t28 57t28 51.5t12.5 49.5q0 20 -8.5 35t-38.5 18l-29 3l10 55l29 1q37 2 54 24.5t17 61.5q0 32 -8.5 66.5t-8.5 73.5q0 63 43 103.5t121 40.5h47l-10 -54h-34q-43 0 -66.5 -24.5t-23.5 -71.5
q0 -29 3.5 -64.5t3.5 -63.5q0 -48 -28 -82.5t-79 -41.5q38 -11 54 -36.5t16 -55.5q0 -28 -10.5 -54t-23.5 -51.5t-23.5 -52t-10.5 -54.5q0 -29 17 -42.5t65 -13.5h16l-10 -54h-24v0z" />
    <glyph glyph-name="braceright.uc" horiz-adv-x="316" 
d="M141 766q40 0 67 -9.5t43.5 -24.5t23.5 -35t7 -41q0 -36 -12.5 -66t-28 -57t-28 -51.5t-12.5 -49.5q0 -20 8.5 -35t38.5 -18l29 -3l-10 -55l-29 -1q-37 -2 -54 -24.5t-17 -61.5q0 -32 8.5 -66.5t8.5 -73.5q0 -63 -43 -103.5t-121 -40.5h-47l10 54h34q43 0 66.5 24.5
t23.5 71.5q0 29 -3.5 64.5t-3.5 63.5q0 48 28 82.5t79 41.5q-38 11 -54 36.5t-16 55.5q0 28 10.5 54t23.5 51.5t23.5 52t10.5 54.5q0 29 -17 42.5t-65 13.5h-16l10 54h24v0z" />
    <glyph glyph-name="slash.uc" horiz-adv-x="368" 
d="M357 782h69l-364 -806h-69z" />
    <glyph glyph-name="backslash.uc" horiz-adv-x="361" 
d="M123 782h63l89 -806h-63z" />
    <glyph glyph-name="bar.uc" horiz-adv-x="262" 
d="M115 -50v816h64v-816h-64z" />
    <glyph glyph-name="at.uc" horiz-adv-x="850" 
d="M77 321q0 80 27.5 154t80 131t128 91.5t170.5 34.5q74 0 134.5 -22.5t104 -63t67 -95.5t23.5 -119q0 -65 -20.5 -114.5t-52.5 -83t-70.5 -50.5t-73.5 -17q-36 0 -61.5 20.5t-25.5 66.5h-3q-16 -33 -48.5 -60t-77.5 -27q-51 0 -82.5 38.5t-31.5 98.5q0 41 13.5 85.5
t39.5 82t63.5 62t85.5 24.5q50 0 73 -27.5t24 -68.5h4l42 87h37l-74 -258q-13 -41 -2.5 -60.5t36.5 -19.5q25 0 51 16.5t48 46t36 70.5t14 90q0 54 -19 100t-54 79t-86 51.5t-114 18.5q-82 0 -146 -30.5t-108.5 -81t-67.5 -116t-23 -135.5q0 -64 21.5 -117t61 -91t94.5 -59
t122 -21q59 0 107.5 12.5t93.5 37.5l17 -43q-48 -27 -103 -41.5t-122 -14.5q-84 0 -150 26.5t-111 72.5t-68.5 107.5t-23.5 131.5zM341 302q0 -42 15.5 -66t44.5 -24q30 0 55 23.5t43.5 58t28.5 73t10 69.5q0 39 -16 58.5t-45 19.5q-31 0 -56 -20.5t-43 -51.5t-27.5 -68.5
t-9.5 -71.5z" />
    <glyph glyph-name="grave.uc" 
d="M227 904h107l55 -118h-62z" />
    <glyph glyph-name="dieresis.uc" 
d="M182 886h89l-16 -85h-89zM360 886h89l-16 -85h-89z" />
    <glyph glyph-name="macron.uc" 
d="M182 877h264l-13 -68h-264z" />
    <glyph glyph-name="acute.uc" 
d="M236 786l61 118h107l-106 -118h-62z" />
    <glyph glyph-name="circumflex.uc" 
d="M309 846l-70 -60h-86l128 110h70l90 -110h-84z" />
    <glyph glyph-name="caron.uc" 
d="M305 834l70 60h86l-128 -110h-70l-90 110h84z" />
    <glyph glyph-name="breve.uc" 
d="M309 784q-47 0 -83 25.5t-45 80.5l38 16q14 -28 39 -40.5t56 -12.5q28 0 54.5 12t49.5 41l35 -17q-20 -53 -58 -79t-86 -26z" />
    <glyph glyph-name="dotaccent.uc" 
d="M272 886h87l-16 -88h-87z" />
    <glyph glyph-name="ring.uc" 
d="M402 844q0 -42 -26.5 -66t-67.5 -24t-67.5 24t-26.5 66t26.5 67t67.5 25t67.5 -25t26.5 -67zM263 844q0 -23 13 -34.5t32 -11.5t32 11.5t13 34.5t-13 35.5t-32 12.5t-32 -12.5t-13 -35.5z" />
    <glyph glyph-name="tilde.uc" 
d="M253 891q18 0 33 -6t28.5 -13t26.5 -13t27 -6q20 0 30.5 11.5t16.5 30.5l40 -10q-8 -48 -33 -74t-61 -26q-17 0 -32 6t-28.5 13t-26.5 13t-27 6q-20 0 -30.5 -11t-18.5 -30l-38 9q7 48 32.5 74t60.5 26z" />
    <glyph glyph-name="hungarumlaut.uc" 
d="M150 786l65 118h101l-105 -118h-61zM300 786l65 118h101l-105 -118h-61z" />
    <glyph glyph-name="cent.oldtab" horiz-adv-x="612" 
d="M177 205q0 -129 76 -152l73 417q-37 -5 -65 -29t-46.5 -60t-28 -81.5t-9.5 -94.5zM498 162q-6 -29 -20 -59t-38 -54t-58 -40.5t-80 -18.5l-19 -109h-60l20 113q-66 13 -107 64.5t-41 145.5q0 56 14.5 113t44 103t75 76t107.5 32l19 103h60l-19 -108q69 -14 99 -63
t31 -118l-69 -18q1 55 -14.5 92.5t-57.5 49.5l-73 -418q55 5 83 42t45 96z" />
    <glyph glyph-name="f.short" horiz-adv-x="321" 
d="M150 459h-98l11 59h97l20 107q8 47 24.5 78t39.5 49t52 25.5t62 7.5q9 0 17.5 -0.5t19.5 -1.5l-11 -62q-9 1 -17 1.5t-15 0.5q-22 0 -38 -5t-27 -18t-18.5 -34.5t-13.5 -54.5l-18 -93h112l-11 -59h-111l-82 -459h-77z" />
    <glyph glyph-name="f_f.short" horiz-adv-x="557" 
d="M386 459h-206l-82 -459h-77l82 459h-98l11 59h97l18 97q8 47 24.5 78t39.5 49t52 25.5t62 7.5q23 0 50 -3l-12 -62q-26 3 -42 3q-44 0 -66 -23t-33 -89l-16 -83h206l20 107q8 47 24.5 78t39.5 49t52 25.5t62 7.5q9 0 17.5 -0.5t19.5 -1.5l-11 -62q-9 1 -17 1.5t-15 0.5
q-22 0 -38 -5t-27 -18t-18.5 -34.5t-13.5 -54.5l-18 -93h112l-11 -59h-111l-82 -459h-77z" />
    <glyph glyph-name="idotaccent" horiz-adv-x="258" 
d="M151 610l16 88h77l-16 -88h-77zM135 518h77l-92 -518h-77z" />
    </font>
</defs>
</svg>
