<?xml version="1.0" standalone="no"?>
<!DOCTYPE svg PUBLIC "-//W3C//DTD SVG 1.1//EN" "http://www.w3.org/Graphics/SVG/1.1/DTD/svg11.dtd" >
<svg xmlns="http://www.w3.org/2000/svg" xmlns:xlink="http://www.w3.org/1999/xlink" version="1.1">
<metadata>
Created by FontForge 20170731 at Thu Dec 17 21:30:51 2015
 By Aleksey,,,
Copyright (c)2014 Commercial Type.
</metadata>
<defs>
<font id="MarrSansWeb-Medium" horiz-adv-x="652" >
  <font-face 
    font-family="Marr Sans Web Medium"
    font-weight="500"
    font-stretch="normal"
    units-per-em="1000"
    panose-1="0 0 0 0 0 0 0 0 0 0"
    ascent="773"
    descent="-227"
    x-height="525"
    cap-height="716"
    bbox="-194 -273 1142 1092"
    underline-thickness="69"
    underline-position="-125"
    unicode-range="U+0020-FB02"
  />
<missing-glyph horiz-adv-x="473" 
d="M56 146l294 636h42l-336 -727v91zM56 347l201 435h42l-243 -527v92zM56 782h58l-58 -127v127zM56 547l109 235h42l-151 -327v92zM417 727v-91l-294 -636h-42zM417 527v-91l-201 -436h-43zM417 328v-92l-109 -236h-42zM417 128v-128h-59z" />
    <glyph glyph-name="f_f" unicode="ff" horiz-adv-x="662" 
d="M415 442h-183v-442h-119v442h-83v83h83v78q0 40 9 68t24.5 46.5t36.5 29t44 16.5q28 7 57.5 8t75.5 1v-88q-33 0 -53.5 -1t-36.5 -7q-21 -8 -29.5 -28.5t-8.5 -60.5v-62h183v88q0 40 9 68t24.5 46.5t36.5 29t44 16.5q28 7 59.5 8t78.5 1v-88q-33 0 -56 -1t-39 -7
q-21 -8 -29.5 -28.5t-8.5 -60.5v-72h109v-83h-109v-442h-119v442z" />
    <glyph glyph-name="f_i" unicode="fi" horiz-adv-x="606" 
d="M413 717h119v-113h-119v113zM413 525h119v-525h-119v525zM113 442h-83v83h83v88q0 40 9 68t24.5 46.5t36 29t44.5 16.5q23 5 51 7t63 2v-88q-28 0 -43.5 -1.5t-27.5 -6.5q-21 -9 -29.5 -29t-8.5 -60v-72h109v-83h-109v-442h-119v442z" />
    <glyph glyph-name="f_l" unicode="fl" horiz-adv-x="606" 
d="M413 782h119v-782h-119v782zM113 442h-83v83h83v88q0 40 9 68t24.5 46.5t36 29t44.5 16.5q23 5 51 7t63 2v-88q-28 0 -43.5 -1.5t-27.5 -6.5q-21 -9 -29.5 -29t-8.5 -60v-72h109v-83h-109v-442h-119v442z" />
    <glyph glyph-name=".notdef" horiz-adv-x="473" 
d="M56 146l294 636h42l-336 -727v91zM56 347l201 435h42l-243 -527v92zM56 782h58l-58 -127v127zM56 547l109 235h42l-151 -327v92zM417 727v-91l-294 -636h-42zM417 527v-91l-201 -436h-43zM417 328v-92l-109 -236h-42zM417 128v-128h-59z" />
    <glyph glyph-name=".null" horiz-adv-x="0" 
 />
    <glyph glyph-name="nonmarkingreturn" horiz-adv-x="333" 
 />
    <glyph glyph-name="space" unicode=" " horiz-adv-x="201" 
 />
    <glyph glyph-name="exclam" unicode="!" horiz-adv-x="297" 
d="M86 525v191h125v-191l-25 -298h-76zM84 164h129v-164h-129v164z" />
    <glyph glyph-name="quotedbl" unicode="&#x22;" horiz-adv-x="415" 
d="M267 453l-26 180v83h114v-83l-26 -180h-62zM86 453l-26 180v83h114v-83l-26 -180h-62z" />
    <glyph glyph-name="numbersign" unicode="#" horiz-adv-x="599" 
d="M255 442l-26 -138h119l26 138h-119zM129 212h-92v92h110l26 138h-96v91h113l35 182h82l-35 -182h119l35 182h82l-35 -182h89v-91h-106l-26 -138h108v-92h-126l-40 -211h-82l40 211h-119l-40 -211h-82z" />
    <glyph glyph-name="dollar" unicode="$" horiz-adv-x="623" 
d="M172 551q0 -43 30 -67t79 -42v202q-59 -5 -84 -31.5t-25 -61.5zM465 175q0 42 -31.5 68t-91.5 49v-219q56 4 89.5 28t33.5 74zM271 -119v106q-50 7 -90 28t-69 54t-46.5 76.5t-22.5 94.5l95 16q6 -76 41.5 -120.5t91.5 -58.5v239q-49 16 -88 34.5t-66 43t-41.5 57.5
t-14.5 79q0 39 13.5 74.5t41 62.5t68.5 44t97 20v104h70v-106q88 -12 141 -69t61 -151l-93 -20q-4 60 -32 98.5t-77 51.5v-219q52 -17 94.5 -36.5t72.5 -45t46.5 -57.5t16.5 -75q0 -99 -62 -157.5t-177 -63.5v-104h-71z" />
    <glyph glyph-name="percent" unicode="%" horiz-adv-x="792" 
d="M131 1l445 734h95l-446 -734h-94zM23 541q0 42 12 78t34 61.5t52 40t66 14.5t66.5 -14.5t52 -40t33.5 -61.5t12 -78t-12 -77.5t-33.5 -61t-52 -40t-66.5 -14.5t-66 14.5t-52 40t-34 61t-12 77.5zM119 541q0 -66 17.5 -95.5t50.5 -29.5q34 0 50.5 29.5t16.5 95.5t-16.5 96
t-50.5 30q-33 0 -50.5 -30t-17.5 -96zM605 -15q-36 0 -66.5 14.5t-52 40t-33.5 61t-12 77.5t12 78t33.5 61.5t52 40t66.5 14.5t66 -14.5t52 -40t34 -61.5t12 -78t-12 -77.5t-34 -61t-52 -40t-66 -14.5zM605 53q33 0 49.5 29.5t16.5 95.5q0 67 -16.5 96.5t-49.5 29.5
q-34 0 -51.5 -29.5t-17.5 -96.5q0 -66 17.5 -95.5t51.5 -29.5z" />
    <glyph glyph-name="ampersand" unicode="&#x26;" horiz-adv-x="698" 
d="M622 -16q-61 0 -101.5 23.5t-69.5 54.5q-16 -15 -35.5 -29t-43.5 -25t-53.5 -17.5t-64.5 -6.5q-44 0 -83.5 12.5t-68.5 36.5t-46 60t-17 83q0 43 13.5 77.5t36 62.5t51.5 50t61 39q-23 37 -41 79.5t-18 90.5q0 40 13.5 69.5t37 49t53.5 29t63 9.5q73 0 117.5 -39
t44.5 -110q0 -30 -10.5 -57t-28.5 -50t-42.5 -42.5t-52.5 -34.5q15 -23 32 -48t34 -49.5t33.5 -48t31.5 -42.5q11 24 19 51t13.5 54.5t8.5 53.5t4 48h92q-2 -29 -7 -63t-14.5 -70t-24.5 -73.5t-36 -71.5q22 -27 48 -48t62 -21q11 0 19.5 1t14.5 2l9 -84q-10 -2 -26 -4
t-28 -2zM250 580q0 -29 14.5 -59.5t34.5 -62.5q41 24 59.5 55t18.5 65q0 38 -17.5 55t-46.5 17q-32 0 -47.5 -19t-15.5 -51zM274 64q45 0 74.5 16t53.5 43q-17 22 -37.5 50t-43 59t-44 61.5t-39.5 56.5q-37 -26 -61.5 -64t-24.5 -102q0 -57 32.5 -88.5t89.5 -31.5z" />
    <glyph glyph-name="quotesingle" unicode="'" horiz-adv-x="234" 
d="M86 453l-26 180v83h114v-83l-26 -180h-62z" />
    <glyph glyph-name="parenleft" unicode="(" horiz-adv-x="357" 
d="M284 -141q-46 34 -87 81.5t-72.5 107t-50 131t-18.5 154.5q0 84 18.5 155.5t50 131t72.5 106t87 80.5l48 -48q-39 -40 -68 -84t-49 -95.5t-30 -112t-10 -133.5t10 -133.5t30 -112t49 -95.5t68 -84z" />
    <glyph glyph-name="parenright" unicode=")" horiz-adv-x="357" 
d="M61.0176 -141q45.9971 34 86.9941 81.5q40.998 47.5 72.4961 107t49.9971 131t18.499 154.5q0 84 -18.499 155.5t-49.9971 131t-72.4961 106q-40.9971 46.5 -86.9941 80.5l-47.9971 -48q38.9971 -40 67.9951 -84q28.999 -44 48.9971 -95.5q19.999 -51.5 29.999 -112
q9.99902 -60.5 9.99902 -133.5t-9.99902 -133.5q-10 -60.5 -29.999 -112q-19.998 -51.5 -48.9971 -95.5q-28.998 -44 -67.9951 -84z" />
    <glyph glyph-name="asterisk" unicode="*" horiz-adv-x="470" 
d="M72 441l104 124l-139 34l27 87l135 -56l-9 152h91l-9 -152l134 56l28 -87l-140 -34l104 -124l-75 -54l-88 134l-87 -134z" />
    <glyph glyph-name="plus" unicode="+" horiz-adv-x="547" 
d="M223 276h-168v92h168v174h101v-174h168v-92h-168v-174h-101v174z" />
    <glyph glyph-name="comma" unicode="," horiz-adv-x="296" 
d="M84 -70l73 59v28h-73v157h129v-244l-129 -106v106z" />
    <glyph glyph-name="hyphen" unicode="-" horiz-adv-x="311" 
d="M49 317h213v-91h-213v91z" />
    <glyph glyph-name="period" unicode="." horiz-adv-x="295" 
d="M83 174h129v-174h-129v174z" />
    <glyph glyph-name="slash" unicode="/" horiz-adv-x="384" 
d="M262 789h96l-251 -913h-96z" />
    <glyph glyph-name="zero" unicode="0" horiz-adv-x="678" 
d="M339 -16q-77 0 -131 32t-88 84.5t-49.5 120t-15.5 137.5t15.5 137.5t49.5 120t88 84.5t131 32t131 -32t88 -84.5t49.5 -120t15.5 -137.5t-15.5 -137.5t-49.5 -120t-88 -84.5t-131 -32zM339 67q44 0 74 21t48 59t26 92t8 119t-8 118.5t-26 92t-48 59.5t-74 21t-74 -21
t-48 -59.5t-26 -92t-8 -118.5t8 -119t26 -92t48 -59t74 -21z" />
    <glyph glyph-name="one" unicode="1" horiz-adv-x="412" 
d="M179 0v560h-137v74l50 4q19 1 35.5 5t29.5 12.5t23 23t17 37.5h101v-716h-119z" />
    <glyph glyph-name="two" unicode="2" horiz-adv-x="619" 
d="M60 80q38 23 71 44t62 41t55 40.5t51 43.5q61 57 97 117t36 135q0 67 -32.5 107.5t-95.5 40.5q-66 0 -103 -47t-37 -126q0 -26 5 -61t18 -72l-110 13q-15 35 -20.5 66t-5.5 59q0 56 17 102.5t49 79.5t79.5 51t108.5 18q58 0 105.5 -17t80.5 -47.5t51 -73t18 -93.5
q0 -74 -32.5 -133.5t-86.5 -112.5q-44 -42 -101.5 -82.5t-115.5 -75.5v-7h354v-90h-518v80z" />
    <glyph glyph-name="three" unicode="3" horiz-adv-x="616" 
d="M306 -16q-48 0 -93.5 12t-81 37.5t-57.5 65t-22 94.5q0 23 6 52l117 28q-9 -33 -9 -66q0 -60 35.5 -100t104.5 -40q66 0 99 35t33 94q0 31 -7.5 56.5t-25 44.5t-47 29.5t-74.5 10.5h-94v81h93q37 0 62.5 9t41.5 25t22.5 38t6.5 48q0 53 -31 82t-82 29q-30 0 -55.5 -9.5
t-43 -29.5t-25.5 -51t-2 -74l-110 12q-6 61 11.5 105.5t51 73t80 42.5t98.5 14q54 0 97.5 -13.5t73.5 -38.5t46.5 -59t16.5 -74q0 -35 -11.5 -62.5t-31.5 -47.5t-47 -33t-58 -18v-8q36 -5 67.5 -18.5t55 -36.5t36.5 -55.5t13 -74.5q0 -45 -17.5 -83.5t-50.5 -66.5
t-81.5 -43.5t-110.5 -15.5z" />
    <glyph glyph-name="four" unicode="4" horiz-adv-x="600" 
d="M360 160h-334v74l323 489h129v-479h105v-84h-105v-160h-118v160zM360 244v335h-4l-217 -329v-6h221z" />
    <glyph glyph-name="five" unicode="5" horiz-adv-x="614" 
d="M304 -16q-54 0 -101.5 16t-81 46.5t-51 75t-12.5 100.5l114 31q-6 -39 0.5 -72.5t23.5 -59t44 -40t62 -14.5q71 0 104.5 51t33.5 139q0 84 -34 128.5t-94 44.5q-27 0 -49 -9.5t-39 -26t-29.5 -37.5t-19.5 -45l-100 28l44 376h391v-91h-311l-22 -182q25 32 66 51t95 19
q52 0 94.5 -18.5t72.5 -52t46.5 -81t16.5 -104.5q0 -63 -19 -113.5t-53.5 -86t-83 -54.5t-108.5 -19z" />
    <glyph glyph-name="six" unicode="6" horiz-adv-x="636" 
d="M584 242q0 -59 -19.5 -106.5t-54 -81t-82.5 -52t-105 -18.5q-66 0 -119.5 26.5t-89.5 81.5q-28 43 -43.5 103t-15.5 139q0 85 16 158t50.5 126.5t88.5 83.5t130 30q45 0 84.5 -12t69 -37t47 -62.5t17.5 -89.5l-106 -16q1 37 -8.5 63t-26 41.5t-38.5 22.5t-46 7
q-45 0 -75 -22.5t-48.5 -58.5t-26.5 -82t-9 -93q27 38 72.5 63.5t110.5 25.5q51 0 92.5 -16.5t71.5 -47.5t46.5 -75.5t16.5 -100.5zM323 66q59 0 96.5 44.5t37.5 125.5q0 75 -33 120t-97 45q-29 0 -54 -10.5t-43.5 -31t-29.5 -51.5t-11 -71q0 -33 8 -63t24 -53
q17 -26 42.5 -40.5t59.5 -14.5z" />
    <glyph glyph-name="seven" unicode="7" horiz-adv-x="526" 
d="M367 619v3h-342v94h465v-86l-283 -630h-130z" />
    <glyph glyph-name="eight" unicode="8" horiz-adv-x="648" 
d="M324 -16q-71 0 -122.5 17t-85 45.5t-49.5 65t-16 74.5q0 66 40.5 110.5t114.5 66.5v3q-62 20 -100.5 64.5t-38.5 109.5q0 38 17 73t49.5 61.5t80.5 42t110 15.5t110 -15.5t80.5 -42t49.5 -61.5t17 -73q0 -32 -11 -60t-29.5 -50.5t-44 -38.5t-54.5 -25v-3
q74 -22 114.5 -66.5t40.5 -110.5q0 -38 -16 -74.5t-49.5 -65t-85 -45.5t-122.5 -17zM324 407q64 0 98 35t34 88q0 57 -33 88t-99 31t-99 -31t-33 -88q0 -53 34 -88t98 -35zM324 67q69 0 107 35t38 94q0 60 -38 94t-107 34t-107 -34t-38 -94q0 -59 37.5 -94t107.5 -35z" />
    <glyph glyph-name="nine" unicode="9" horiz-adv-x="636" 
d="M312 315q28 0 52.5 10.5t43 31.5t29 52t10.5 73q0 34 -7.5 63t-23.5 52q-17 25 -42.5 39t-60.5 14q-61 0 -97.5 -44.5t-36.5 -125.5q0 -73 33.5 -119t99.5 -46zM298 -16q-46 0 -86.5 11.5t-71 36t-48.5 62t-19 88.5l106 16q-1 -38 9.5 -63t28 -40t40.5 -21.5t48 -6.5
q45 0 74.5 21.5t47.5 57t25.5 81.5t9.5 94q-27 -37 -72 -62t-109 -25q-50 0 -92 17t-72.5 48t-47.5 75.5t-17 99.5q0 58 19 106t53.5 81.5t83 52t106.5 18.5q60 0 110 -22t86 -68q34 -43 52.5 -107.5t18.5 -152.5q0 -86 -16 -158.5t-50 -126t-88 -83.5t-129 -30z" />
    <glyph glyph-name="colon" unicode=":" horiz-adv-x="295" 
d="M83 521h129v-174h-129v174zM83 174h129v-174h-129v174z" />
    <glyph glyph-name="semicolon" unicode=";" horiz-adv-x="296" 
d="M83 521h129v-174h-129v174zM84 -70l73 59v28h-73v157h129v-244l-129 -106v106z" />
    <glyph glyph-name="less" unicode="&#x3c;" horiz-adv-x="507" 
d="M58 288v108l383 169v-104l-267 -111v-17l267 -111v-103z" />
    <glyph glyph-name="equal" unicode="=" horiz-adv-x="531" 
d="M55 462h420v-93h-420v93zM55 271h420v-93h-420v93z" />
    <glyph glyph-name="greater" unicode="&#x3e;" horiz-adv-x="507" 
d="M433.004 288v108l-382.977 169v-104l266.983 -111v-17l-266.983 -111v-103z" />
    <glyph glyph-name="question" unicode="?" horiz-adv-x="509" 
d="M154 406h69q59 0 93.5 30.5t34.5 94.5q0 53 -26.5 86.5t-83.5 33.5t-85.5 -34t-26.5 -87l-111 26q3 36 18 68t42.5 56t68 38t94.5 14q57 0 100.5 -16t72.5 -43.5t44 -64t15 -77.5q0 -48 -16.5 -84t-44 -61t-64.5 -40t-78 -19l-6 -100h-102zM149 0v164h129v-164h-129z" />
    <glyph glyph-name="at" unicode="@" horiz-adv-x="812" 
d="M404 -115q-84 0 -150.5 25.5t-113 71t-71.5 109t-25 139.5q0 79 28 150.5t80 125.5t125 86t163 32q73 0 133 -22.5t103.5 -62.5t67.5 -95.5t24 -121.5q0 -62 -18.5 -110t-47 -81t-64 -50t-68.5 -17q-42 0 -71.5 23.5t-33.5 70.5q-7 -17 -18 -34t-26.5 -30t-35 -21
t-43.5 -8q-56 0 -89.5 41.5t-33.5 109.5q0 42 12.5 84t36 76t57.5 55t77 21q25 0 43 -8t30 -21t18.5 -30.5t8.5 -36.5v2l36 84h62l-46 -238q-8 -38 2 -56.5t31 -18.5q19 0 39.5 14t36.5 39.5t26.5 61.5t10.5 79q0 53 -18 97t-52 76t-81.5 50t-106.5 18q-75 0 -135 -27.5
t-103 -73.5t-66 -106.5t-23 -126.5q0 -68 22.5 -121t62 -89t92.5 -54.5t114 -18.5q66 0 120.5 16t95.5 39l26 -54q-45 -27 -109 -45t-135 -18zM372 129q25 0 44 17.5t32.5 44.5t20.5 59t7 60q0 81 -51 81q-25 0 -44.5 -17.5t-33 -44.5t-20.5 -58.5t-7 -59.5
q0 -45 14.5 -63.5t37.5 -18.5z" />
    <glyph glyph-name="A" unicode="A" horiz-adv-x="665" 
d="M225 245h205l-98 304h-7zM461 150h-267l-49 -150h-120l252 720h116l247 -720h-131z" />
    <glyph glyph-name="B" unicode="B" horiz-adv-x="685" 
d="M90 716h289q119 0 171.5 -46.5t52.5 -135.5q0 -60 -25.5 -101.5t-81.5 -58.5v-3q60 -14 98 -56t38 -111q0 -42 -11.5 -79t-39 -65t-72.5 -44t-112 -16h-307v716zM357 408q65 0 90 31t25 88q0 51 -24 75.5t-88 24.5h-144v-219h141zM377 90q37 0 60.5 7.5t36.5 22.5
t18 36.5t5 49.5q0 112 -130 112h-151v-228h161z" />
    <glyph glyph-name="C" unicode="C" horiz-adv-x="706" 
d="M373 -16q-82 0 -141.5 31t-98.5 83t-57.5 119.5t-18.5 140.5t19 140.5t58 119.5t99 83t142 31q64 0 113.5 -19t85 -52.5t57.5 -80.5t33 -103l-116 -29q-13 91 -53 140t-118 49q-90 0 -137.5 -74.5t-47.5 -204.5t47.5 -204.5t137.5 -74.5q40 0 69 13.5t50 38.5t34 60
t20 78l115 -31q-12 -52 -33.5 -98.5t-57 -81t-85 -54.5t-116.5 -20z" />
    <glyph glyph-name="D" unicode="D" horiz-adv-x="737" 
d="M90 716h249q86 0 150 -24.5t106.5 -71t63.5 -112.5t21 -150t-21 -150t-63.5 -112.5t-106.5 -71t-150 -24.5h-249v716zM335 92q52 0 91.5 13.5t65.5 45t39.5 82t13.5 125.5q0 74 -15.5 125t-43.5 82.5t-66.5 45t-84.5 13.5h-119v-532h119z" />
    <glyph glyph-name="E" unicode="E" horiz-adv-x="615" 
d="M90 716h452v-92h-326v-218h254v-93h-254v-221h360v-92h-486v716z" />
    <glyph glyph-name="F" unicode="F" horiz-adv-x="593" 
d="M90 716h472v-92h-345v-218h246v-93h-246v-313h-127v716z" />
    <glyph glyph-name="G" unicode="G" horiz-adv-x="752" 
d="M377 -16q-82 0 -142 31t-99.5 83t-59 119.5t-19.5 140.5t20.5 140.5t61.5 119.5t102.5 83t143.5 31q64 0 111.5 -14.5t81 -41t55.5 -65t35 -86.5l-109 -29q-16 73 -55.5 107t-115.5 34q-45 0 -81 -19.5t-61.5 -55.5t-39.5 -87.5t-14 -116.5t14 -117t39 -88t60 -55t78 -19
q40 0 73 11.5t56.5 33t36.5 52t13 67.5v35h-148v90h260v-368h-70l-13 117h-4q-22 -63 -75.5 -98t-134.5 -35z" />
    <glyph glyph-name="H" unicode="H" horiz-adv-x="736" 
d="M90 716h126v-303h304v303h126v-716h-126v318h-304v-318h-126v716z" />
    <glyph glyph-name="I" unicode="I" horiz-adv-x="306" 
d="M90 716h126v-716h-126v716z" />
    <glyph glyph-name="J" unicode="J" horiz-adv-x="384" 
d="M33 95q31 0 55.5 2t41.5 8q23 8 32.5 29t9.5 70v512h127v-546q0 -38 -8.5 -65t-24 -46t-36.5 -31t-45 -18q-25 -7 -64 -8.5t-88 -1.5v95z" />
    <glyph glyph-name="K" unicode="K" horiz-adv-x="678" 
d="M272 332l-56 -59v-273h-126v716h126v-315l289 315h127l-276 -294l288 -422h-146z" />
    <glyph glyph-name="L" unicode="L" horiz-adv-x="600" 
d="M90 716h127v-617h356v-99h-483v716z" />
    <glyph glyph-name="M" unicode="M" horiz-adv-x="859" 
d="M90 716h166l176 -512h4l170 512h163v-716h-115v566h-6l-186 -566h-79l-190 566h-4v-566h-99v716z" />
    <glyph glyph-name="N" unicode="N" horiz-adv-x="729" 
d="M90 716h124l311 -514h3v514h111v-716h-109l-326 533h-3v-533h-111v716z" />
    <glyph glyph-name="O" unicode="O" horiz-adv-x="769" 
d="M385 -16q-84 0 -146 32t-102.5 84.5t-60 119.5t-19.5 138t19.5 138t60 119.5t102.5 84.5t146 32t146 -32t102 -84.5t59.5 -119.5t19.5 -138t-19.5 -138t-59.5 -119.5t-102 -84.5t-146 -32zM385 79q99 0 145.5 74t46.5 205q0 130 -46.5 204.5t-145.5 74.5q-50 0 -86 -20.5
t-60 -57t-35.5 -88t-11.5 -113.5q0 -63 11.5 -114t35.5 -88t60 -57t86 -20z" />
    <glyph glyph-name="P" unicode="P" horiz-adv-x="660" 
d="M90 716h283q64 0 111 -14.5t77 -41.5t44.5 -66t14.5 -88q0 -103 -62 -156.5t-185 -53.5h-157v-296h-126v716zM366 387q68 0 95 28.5t27 89.5q0 62 -27 90.5t-95 28.5h-150v-237h150z" />
    <glyph glyph-name="Q" unicode="Q" horiz-adv-x="769" 
d="M607 -131q-34 0 -59 9t-43 25.5t-30 39t-20 49.5q-31 -7 -70 -7q-84 0 -146 31.5t-102.5 84t-60 119.5t-19.5 138t19.5 138t60 119.5t102.5 84.5t146 32t146 -32t102 -84.5t59.5 -119.5t19.5 -138q0 -50 -10 -98.5t-30 -91.5t-50.5 -79t-70.5 -60q11 -42 29 -67t50 -25
q35 0 50.5 29.5t20.5 83.5l63 -7q-3 -36 -11.5 -68t-26.5 -55.5t-47 -37t-72 -13.5zM375 267q55 0 93.5 -32t58.5 -101q27 37 38.5 93t11.5 129q0 66 -11.5 118t-35 89t-60 56.5t-85.5 19.5q-50 0 -86 -20.5t-60 -57.5t-35.5 -89t-11.5 -114q0 -64 12 -118t38 -92
q0 23 9.5 44.5t26.5 38t41.5 26.5t55.5 10zM387 69q25 0 48 5q-15 65 -34 94.5t-52 29.5q-30 0 -45.5 -19.5t-15.5 -45.5q0 -29 19 -44q14 -11 36 -15.5t44 -4.5z" />
    <glyph glyph-name="R" unicode="R" horiz-adv-x="691" 
d="M376 394q67 0 92 30t25 85q0 57 -25 86t-92 29h-160v-230h160zM90 0v716h289q70 0 117 -15.5t76 -43t41.5 -65t12.5 -81.5q0 -72 -36.5 -117.5t-114.5 -62.5l1 -6q13 -4 26.5 -21t26 -40t22.5 -48t16 -44q12 -39 20 -63t15.5 -40t14.5 -27t18 -24v-18h-148
q-10 20 -18 45.5t-16 57.5q-9 38 -19 76t-19 68q-10 32 -25.5 44.5t-51.5 12.5h-122v-304h-126z" />
    <glyph glyph-name="S" unicode="S" horiz-adv-x="639" 
d="M326 -16q-61 0 -109 18.5t-83 52t-56 81t-27 104.5l97 16q7 -91 54 -137.5t122 -46.5q64 0 103 23t39 74q0 28 -8.5 46.5t-29 33t-53.5 27.5t-81 31q-52 19 -93.5 38t-70.5 44t-44.5 58t-15.5 80q0 44 16 81.5t46.5 65t76 43t105.5 15.5q109 0 174 -59.5t74 -163.5
l-96 -20q-5 73 -42.5 115t-109.5 42q-35 0 -59 -7.5t-39 -20.5t-21.5 -30.5t-6.5 -36.5q0 -26 10 -43.5t30 -30.5t49 -23.5t67 -23.5q54 -18 99 -37t77.5 -43.5t50 -59t17.5 -84.5q0 -103 -67 -162.5t-195 -59.5z" />
    <glyph glyph-name="T" unicode="T" horiz-adv-x="593" 
d="M232 622h-218v94h565v-94h-218v-622h-129v622z" />
    <glyph glyph-name="U" unicode="U" horiz-adv-x="699" 
d="M348 -15q-133 0 -201.5 64t-68.5 179v488h127v-472q0 -78 34 -120t118 -42t119 42t35 120v472h110v-486q0 -113 -68.5 -179t-204.5 -66z" />
    <glyph glyph-name="V" unicode="V" horiz-adv-x="659" 
d="M27 716h135l171 -537h8l172 537h120l-247 -720h-116z" />
    <glyph glyph-name="W" unicode="W" horiz-adv-x="978" 
d="M33 716h128l131 -543h7l147 543h101l143 -543h7l135 543h114l-190 -720h-118l-143 524h-5l-148 -524h-120z" />
    <glyph glyph-name="X" unicode="X" horiz-adv-x="663" 
d="M318 268l-166 -268h-126l232 360l-231 356h144l166 -255l159 255h124l-224 -346l240 -370h-144z" />
    <glyph glyph-name="Y" unicode="Y" horiz-adv-x="615" 
d="M242 0v306l-222 410h136l159 -304h6l160 304h114l-226 -410v-306h-127z" />
    <glyph glyph-name="Z" unicode="Z" horiz-adv-x="609" 
d="M35 0v85l386 540h-359v91h510v-85l-385 -539h385v-92h-537z" />
    <glyph glyph-name="bracketleft" unicode="[" horiz-adv-x="340" 
d="M80 789h217v-75h-110v-762h110v-76h-217v913z" />
    <glyph glyph-name="backslash" unicode="\" horiz-adv-x="384" 
d="M26 789h95l251 -913h-95z" />
    <glyph glyph-name="bracketright" unicode="]" horiz-adv-x="340" 
d="M248.005 789h-216.986v-75h109.993v-762h-109.993v-76h216.986v913z" />
    <glyph glyph-name="asciicircum" unicode="^" horiz-adv-x="508" 
d="M185 716h132l139 -297h-109l-88 209h-17l-88 -209h-102z" />
    <glyph glyph-name="underscore" unicode="_" horiz-adv-x="468" 
d="M15 -54h438v-90h-438v90z" />
    <glyph glyph-name="grave" unicode="`" horiz-adv-x="412" 
d="M122 735h114l54 -145h-81z" />
    <glyph glyph-name="a" unicode="a" horiz-adv-x="563" 
d="M199 -10q-69 0 -108 37.5t-39 98.5q0 36 13 61t34 42.5t47 29.5t52 22q38 15 78.5 29t67.5 25v37q0 88 -78 88q-46 0 -68.5 -26.5t-31.5 -80.5l-96 13q11 89 65.5 129t136.5 40q94 0 142.5 -39.5t48.5 -122.5v-249q0 -21 6.5 -33.5t18.5 -19.5q10 -7 24 -9t31 -2v-57
q-11 -6 -31.5 -9.5t-37.5 -3.5q-107 0 -116 98h-8q-19 -44 -55 -71t-96 -27zM241 64q48 0 75.5 30.5t27.5 77.5v96q-20 -8 -43 -16.5t-57 -23.5q-15 -6 -28.5 -13.5t-24 -18t-17 -24.5t-6.5 -35q0 -32 17.5 -52.5t55.5 -20.5z" />
    <glyph glyph-name="b" unicode="b" horiz-adv-x="613" 
d="M345 -10q-53 0 -90.5 29t-59.5 83h-7l-34 -108h-81v788h118v-368h8q23 63 67.5 92t94.5 29q97 0 149.5 -70.5t52.5 -201.5q0 -60 -13.5 -110t-41 -86.5t-68.5 -56.5t-95 -20zM319 68q55 0 87 47.5t32 147.5q0 54 -8 90.5t-23 58t-36.5 31t-48.5 9.5q-22 0 -44.5 -11
t-40.5 -34t-29.5 -58.5t-11.5 -84.5q0 -98 34.5 -147t88.5 -49z" />
    <glyph glyph-name="c" unicode="c" horiz-adv-x="548" 
d="M288 -10q-58 0 -103 19.5t-75.5 55.5t-46 86.5t-15.5 111.5t17.5 111.5t50 86.5t77.5 55.5t100 19.5q50 0 86.5 -12.5t62 -34.5t40.5 -52.5t23 -66.5l-87 -33q-6 25 -14.5 47.5t-22.5 39t-34.5 26t-50.5 9.5q-60 0 -91 -52t-31 -144t29 -144t95 -52q30 0 50.5 10.5
t34 28.5t22 41.5t13.5 49.5l88 -34q-9 -35 -25.5 -66.5t-42.5 -55t-63 -37.5t-87 -14z" />
    <glyph glyph-name="d" unicode="d" horiz-adv-x="613" 
d="M294 65q27 0 49 10.5t38.5 34.5t25.5 62t9 92q0 98 -33 146.5t-84 48.5q-56 0 -90 -47.5t-34 -147.5t32 -149.5t87 -49.5zM266 -10q-53 0 -93.5 20t-67.5 56.5t-41 86.5t-14 110q0 65 16.5 116t45.5 85.5t70 52.5t89 18t87.5 -24.5t56.5 -72.5h8v344h117v-788h-81
l-35 101h-7q-20 -48 -58.5 -76.5t-92.5 -28.5z" />
    <glyph glyph-name="e" unicode="e" horiz-adv-x="565" 
d="M290 459q-55 0 -82 -37.5t-32 -109.5h222q-2 74 -27 110.5t-81 36.5zM519 163q-9 -35 -26 -66.5t-43 -55t-63.5 -37.5t-86.5 -14q-60 0 -107 19.5t-79.5 55.5t-49 86t-16.5 112q0 52 16 101t46.5 87t75.5 61t103 23t102 -21t73.5 -58.5t44 -90t14.5 -115.5h-349
q1 -42 8.5 -75.5t23 -57.5t40.5 -37t61 -13q31 0 52.5 10.5t36 28t24 40.5t15.5 49z" />
    <glyph glyph-name="f" unicode="f" horiz-adv-x="360" 
d="M113 442h-83v83h83v88q0 40 9 68t24.5 46.5t36.5 29t44 16.5q28 7 59.5 8t78.5 1v-88q-33 0 -56 -1t-39 -7q-21 -8 -29.5 -28.5t-8.5 -60.5v-72h109v-83h-109v-442h-119v442z" />
    <glyph glyph-name="g" unicode="g" horiz-adv-x="590" 
d="M273 173q21 0 39.5 7.5t32 24.5t21.5 44.5t8 67.5t-8 67.5t-21.5 44.5t-32 24.5t-39.5 7.5q-43 0 -72.5 -32t-29.5 -112t29.5 -112t72.5 -32zM278 -273q-52 0 -98 7.5t-81.5 24.5t-59 44.5t-30.5 68.5l100 12q5 -18 16.5 -34.5t31.5 -29t49.5 -19.5t71.5 -7q55 0 89 7.5
t53 19t25.5 26.5t6.5 30q0 29 -18.5 43t-60.5 14h-187q-26 0 -50 5t-42 17.5t-29 33t-11 51.5q0 41 24 64.5t59 35.5v3q-36 29 -57 73t-21 100q0 48 15.5 88.5t44 69t67.5 44.5t87 16q64 0 110 -28.5t72 -76.5h4q0 32 8.5 52.5t20.5 32t26.5 16t26.5 4.5q18 0 30 -4t21 -11
l-6 -84q-5 2 -14.5 5.5t-22.5 3.5q-38 0 -50.5 -32t-12.5 -89q0 -51 -15 -92.5t-43 -71t-67.5 -45.5t-87.5 -16q-51 0 -93 20q-13 -6 -23.5 -18t-10.5 -31q0 -41 51 -41h207q80 0 118.5 -34.5t38.5 -97.5q0 -77 -68 -123.5t-215 -46.5z" />
    <glyph glyph-name="h" unicode="h" horiz-adv-x="583" 
d="M73 782h119v-382h2q25 72 73 103.5t103 31.5q42 0 69.5 -12t43.5 -32.5t22.5 -48t6.5 -59.5v-383h-119v356q0 51 -16.5 72t-55.5 21q-27 0 -51 -14.5t-41 -39.5t-27 -58.5t-10 -72.5v-264h-119v782z" />
    <glyph glyph-name="i" unicode="i" horiz-adv-x="266" 
d="M73 717h119v-113h-119v113zM73 525h119v-525h-119v525z" />
    <glyph glyph-name="j" unicode="j" horiz-adv-x="266" 
d="M73 717h119v-113h-119v113zM-60 -141q33 0 53 1.5t37 7.5q22 8 32.5 27.5t10.5 66.5v563h119v-584q0 -74 -31.5 -111.5t-91.5 -48.5q-30 -6 -63 -7t-66 -1v86z" />
    <glyph glyph-name="k" unicode="k" horiz-adv-x="545" 
d="M192 0h-119v782h119v-488h3l193 231h116l-189 -214l209 -311h-136l-150 225l-46 -52v-173z" />
    <glyph glyph-name="l" unicode="l" horiz-adv-x="266" 
d="M73 782h119v-782h-119v782z" />
    <glyph glyph-name="m" unicode="m" horiz-adv-x="879" 
d="M192 0h-119v525h105l10 -133h3q26 78 73.5 110.5t102.5 32.5q41 0 66.5 -10.5t40.5 -29t20.5 -45t5.5 -57.5h1q25 77 72 109.5t102 32.5q41 0 67 -11t40.5 -31t20 -47t5.5 -59v-387h-119v362q0 45 -12.5 66t-48.5 21q-25 0 -48 -13.5t-41 -37.5t-28.5 -57t-10.5 -72v-269
h-119v362q0 45 -12.5 66t-48.5 21q-25 0 -48 -13.5t-41 -37t-28.5 -56t-10.5 -71.5v-271z" />
    <glyph glyph-name="n" unicode="n" horiz-adv-x="583" 
d="M73 525h105l10 -128h2q13 37 32.5 63.5t43.5 43t51 24t54 7.5q41 0 68 -12t43.5 -32.5t23 -48t6.5 -59.5v-383h-119v356q0 51 -16.5 72t-55.5 21q-28 0 -51.5 -13.5t-41 -37t-27 -56t-9.5 -71.5v-271h-119v525z" />
    <glyph glyph-name="o" unicode="o" horiz-adv-x="580" 
d="M532 263q0 -53 -14.5 -102.5t-44.5 -87.5t-75.5 -60.5t-107.5 -22.5t-107.5 22.5t-75.5 60.5t-44.5 87.5t-14.5 102.5t14.5 102.5t44.5 87t75.5 60t107.5 22.5t107.5 -22.5t75.5 -60t44.5 -87t14.5 -102.5zM174 263q0 -100 27.5 -148.5t88.5 -48.5q60 0 88 48.5t28 148.5
t-28 148t-88 48q-61 0 -88.5 -48t-27.5 -148z" />
    <glyph glyph-name="p" unicode="p" horiz-adv-x="613" 
d="M321 73q27 0 48.5 9.5t36.5 32t23.5 58.5t8.5 89q0 100 -31 147.5t-88 47.5q-54 0 -88.5 -49t-34.5 -147q0 -52 11.5 -88t29.5 -58t40 -32t44 -10zM73 525h101l11 -123h5q20 59 60 96t104 37q52 0 91 -20t65 -56.5t39.5 -86.5t13.5 -110q0 -65 -16 -116t-44.5 -85.5
t-68.5 -52.5t-89 -18q-48 0 -85 22t-61 70h-8v-309h-118v752z" />
    <glyph glyph-name="q" unicode="q" horiz-adv-x="613" 
d="M421 111h-8q-22 -63 -65.5 -92t-92.5 -29q-97 0 -151 70.5t-54 201.5q0 60 13.5 110t40.5 86.5t68 56.5t96 20t95 -30.5t60 -84.5h5l41 105h71v-752h-119v338zM291 73q22 0 44.5 11t40.5 34t29 58.5t11 84.5q0 98 -34 147t-88 49q-57 0 -88 -47.5t-31 -147.5
q0 -54 8.5 -90.5t23.5 -58t36.5 -31t47.5 -9.5z" />
    <glyph glyph-name="r" unicode="r" horiz-adv-x="385" 
d="M73 525h106l10 -142h2q20 78 53.5 115t76.5 37q14 0 23.5 -3t15.5 -7v-112q-20 6 -39 6q-27 0 -50.5 -11.5t-41 -34t-27.5 -55.5t-10 -76v-242h-119v525z" />
    <glyph glyph-name="s" unicode="s" horiz-adv-x="488" 
d="M248 -10q-95 0 -144.5 44t-57.5 113l84 26q5 -61 35.5 -87t78.5 -26q38 0 63.5 16t25.5 49q0 17 -5.5 28.5t-19 20.5t-37 18.5t-60.5 22.5q-31 11 -58.5 24t-48.5 32t-33 46t-12 66q0 34 12.5 62t36 48t56 31t72.5 11q46 0 78.5 -12t54 -33t33 -50t15.5 -63l-88 -17
q-6 58 -28.5 81t-63.5 23q-36 0 -56.5 -16.5t-20.5 -46.5q0 -18 6 -29t19 -20t34.5 -18t51.5 -21q34 -14 64.5 -26t54 -29.5t37.5 -44t14 -67.5q0 -74 -51 -115t-142 -41z" />
    <glyph glyph-name="t" unicode="t" horiz-adv-x="405" 
d="M284 0q-31 0 -57 2.5t-43 9.5q-22 8 -35.5 18.5t-21 27.5t-10.5 42t-3 62v280h-97v83h97v200h119v-200h126v-83h-126v-274q0 -35 4.5 -53.5t24.5 -26.5q18 -7 50 -7h58v-81h-86v0z" />
    <glyph glyph-name="u" unicode="u" horiz-adv-x="579" 
d="M218 -10q-41 0 -69.5 12t-46 32.5t-25.5 48t-8 59.5v383h119v-356q0 -51 20 -72t59 -21q26 0 48 14t38 39t25 60.5t9 78.5v257h119v-525h-98l-17 123h-3q-24 -68 -67 -100.5t-103 -32.5z" />
    <glyph glyph-name="v" unicode="v" horiz-adv-x="517" 
d="M16 525h129l119 -377h4l129 377h103l-195 -529h-102z" />
    <glyph glyph-name="w" unicode="w" horiz-adv-x="830" 
d="M23 525h120l104 -379h3l118 379h107l106 -378h6l114 378h107l-164 -529h-114l-112 404h-5l-123 -404h-111z" />
    <glyph glyph-name="x" unicode="x" horiz-adv-x="508" 
d="M243 182l-113 -182h-106l167 256l-170 269h131l111 -181l112 181h106l-165 -255l172 -270h-132z" />
    <glyph glyph-name="y" unicode="y" horiz-adv-x="504" 
d="M34 -143q56 0 88 11q22 8 35 25.5t24 49.5l19 55l-185 527h128l114 -379h3l124 379h105l-209 -592q-10 -29 -20 -52t-22.5 -41t-30 -31t-42.5 -22q-24 -9 -58.5 -11.5t-72.5 -2.5v84z" />
    <glyph glyph-name="z" unicode="z" horiz-adv-x="481" 
d="M32 77l277 365h-262v83h394v-74l-277 -365h286v-86h-418v77z" />
    <glyph glyph-name="braceleft" unicode="{" horiz-adv-x="355" 
d="M263 -125q-88 0 -129.5 41.5t-41.5 107.5q0 30 7.5 57t17 52t17 48.5t7.5 46.5q0 29 -15.5 46t-44.5 20l-31 2v71l31 3q29 2 44.5 19.5t15.5 46.5q0 22 -7.5 45.5t-17 48.5t-17 52t-7.5 57q0 69 41.5 110t130.5 41h47v-72h-27q-34 0 -57 -21.5t-23 -72.5q0 -22 5.5 -43.5
t12.5 -42.5t12.5 -42t5.5 -43q0 -43 -22.5 -77t-76.5 -45q54 -10 76.5 -44t22.5 -77q0 -22 -5.5 -43t-12.5 -42t-12.5 -42.5t-5.5 -43.5q0 -51 23 -71.5t57 -20.5h27v-72h-48v0z" />
    <glyph glyph-name="bar" unicode="|" horiz-adv-x="269" 
d="M89 -124v913h91v-913h-91z" />
    <glyph glyph-name="braceright" unicode="}" horiz-adv-x="355" 
d="M80.0156 -125q87.9951 0 129.492 41.5q41.498 41.5 41.498 107.5q0 30 -7.5 57q-7.49902 27 -16.999 52q-9.49902 25 -16.999 48.5q-7.49902 23.5 -7.49902 46.5q0 29 15.499 46t44.4971 20l30.998 2v71l-30.998 3q-28.998 2 -44.4971 19.5t-15.499 46.5
q0 22 7.49902 45.5q7.5 23.5 16.999 48.5q9.5 25 16.999 52q7.5 27 7.5 57q0 69 -41.498 110q-41.4971 41 -130.492 41h-46.9971v-72h26.999q33.998 0 56.9961 -21.5q22.999 -21.5 22.999 -72.5q0 -22 -5.5 -43.5t-12.499 -42.5q-7 -21 -12.499 -42q-5.5 -21 -5.5 -43
q0 -43 22.499 -77q22.498 -34 76.4951 -45q-53.9971 -10 -76.4951 -44q-22.499 -34 -22.499 -77q0 -22 5.5 -43q5.49902 -21 12.499 -42q6.99902 -21 12.499 -42.5t5.5 -43.5q0 -51 -22.999 -71.5q-22.998 -20.5 -56.9961 -20.5h-26.999v-72h47.9971v0z" />
    <glyph glyph-name="asciitilde" unicode="~" horiz-adv-x="472" 
d="M151 281q-25 0 -37 -16.5t-17 -32.5l-54 32q3 49 33 83t83 34q23 0 44 -7.5t40.5 -16.5t38 -16.5t36.5 -7.5q24 0 35.5 17t15.5 33l55 -33q-3 -50 -34.5 -83t-84.5 -33q-24 0 -44 7.5t-39 16t-36 16t-35 7.5z" />
    <glyph glyph-name="exclamdown" unicode="&#xa1;" horiz-adv-x="297" 
d="M199.005 -6.96777v-190.988h-124.992v190.988l24.999 297.981h75.9951zM201.005 354.01h-128.992v163.99h128.992v-163.99z" />
    <glyph glyph-name="cent" unicode="&#xa2;" horiz-adv-x="561" 
d="M167 260q0 -79 23 -128.5t73 -63.5v383q-46 -14 -71 -63t-25 -128zM509 161q-8 -31 -21.5 -59.5t-34.5 -51t-50 -38.5t-68 -22v-109h-72v107q-53 4 -93.5 25.5t-68.5 57t-42 83.5t-14 106q0 57 15 104.5t43.5 83t69 57t90.5 26.5v100h72v-101q78 -10 118 -54.5t56 -108.5
l-85 -33q-8 42 -29 73.5t-60 42.5v-381q40 13 60.5 48t29.5 77z" />
    <glyph glyph-name="sterling" unicode="&#xa3;" horiz-adv-x="711" 
d="M521 -16q-26 0 -50.5 7t-48.5 19t-47.5 27t-45.5 30q-27 -38 -67.5 -60.5t-93.5 -22.5q-28 0 -54.5 7t-47 21.5t-33 36.5t-12.5 52q0 54 40 87t106 33q35 0 67.5 -9t63.5 -23v8q0 28 -8.5 53t-20.5 50h-173v72h134q-17 33 -29.5 69t-12.5 80q0 48 17.5 87t49 66.5
t75 42.5t95.5 15q43 0 85 -13t73.5 -43t47.5 -78.5t6 -119.5l-106 -16q12 94 -17.5 140t-86.5 46q-56 0 -82.5 -37.5t-26.5 -92.5q0 -41 11.5 -76t24.5 -70h170v-72h-148q6 -29 6 -62q0 -45 -12 -85q39 -21 75 -37t69 -16q83 0 71 106h68q13 -61 5.5 -103t-28 -68.5
t-50 -38.5t-59.5 -12zM171 45q34 0 60 17t43 44q-30 20 -59 33.5t-58 13.5q-32 0 -47 -16t-15 -36q0 -26 22.5 -41t53.5 -15z" />
    <glyph glyph-name="yen" unicode="&#xa5;" horiz-adv-x="581" 
d="M349 138v-138h-121v138h-162v72h162v74h-162v72h135l-178 360h129l140 -307h7l142 307h117l-181 -360h134v-72h-162v-74h162v-72h-162z" />
    <glyph glyph-name="brokenbar" unicode="&#xa6;" horiz-adv-x="269" 
d="M89 393v396h91v-396h-91zM89 -124v409h91v-409h-91z" />
    <glyph glyph-name="section" unicode="&#xa7;" horiz-adv-x="528" 
d="M267 -150q-47 0 -85 12.5t-65.5 35t-44 52t-20.5 64.5l84 26q3 -30 14 -52.5t28.5 -37.5t39.5 -22.5t46 -7.5q37 0 62.5 15t25.5 50q0 18 -5.5 32t-19.5 28t-38.5 29t-63.5 35q-41 21 -73 39t-54.5 39t-34 47.5t-11.5 63.5q0 52 26.5 90t77.5 53q-32 26 -49 58.5
t-17 83.5q0 34 11.5 62.5t34 49.5t55 32.5t73.5 11.5q46 0 81 -12t59 -33t38 -50t17 -63l-87 -17q-6 57 -35.5 80.5t-70.5 23.5q-38 0 -59 -17.5t-21 -49.5q0 -19 6 -34t20 -28.5t37 -27.5t56 -32q39 -21 73 -39.5t59.5 -40t40.5 -49t15 -66.5q0 -56 -27.5 -91.5
t-76.5 -50.5q31 -23 50 -54t19 -79q0 -74 -50 -116.5t-141 -42.5zM319 196q27 0 49.5 15t22.5 50q0 19 -8.5 34t-25.5 28.5t-42 27t-59 30.5h-1q-16 8 -36 8q-32 0 -51 -18.5t-19 -47.5q0 -20 7.5 -34t23.5 -26.5t40.5 -26t57.5 -31.5l5 -3q10 -4 18.5 -5t17.5 -1z" />
    <glyph glyph-name="dieresis" unicode="&#xa8;" horiz-adv-x="412" 
d="M70 712h103v-106h-103v106zM239 712h103v-106h-103v106z" />
    <glyph glyph-name="copyright" unicode="&#xa9;" horiz-adv-x="838" 
d="M420 -17q-75 0 -141.5 24.5t-116.5 71.5t-79 117t-29 162q0 91 29 161.5t79 117.5t116.5 71.5t141.5 24.5q74 0 140.5 -24.5t116 -71.5t78.5 -117.5t29 -161.5q0 -92 -29.5 -162t-79 -117t-115.5 -71.5t-140 -24.5zM420 36q64 0 119.5 21t96.5 61.5t65 100.5t24 139
t-24 139t-65 100.5t-96.5 61.5t-119.5 21q-65 0 -120.5 -21t-97 -61.5t-65.5 -100.5t-24 -139t23.5 -139t65 -100.5t97.5 -61.5t121 -21zM419 156q-39 0 -72 15t-56 42t-36 64.5t-13 82.5t13 82.5t37 64t57 41.5t74 15q36 0 62.5 -10.5t45.5 -28t31 -41.5t18 -51l-68 -25
q-6 36 -26.5 63.5t-59.5 27.5q-43 0 -68 -36.5t-25 -101.5q0 -66 23 -102t70 -36q19 0 34 8t25.5 21.5t17 30t9.5 34.5l68 -24q-6 -26 -18 -50.5t-31.5 -43.5t-47 -30.5t-64.5 -11.5z" />
    <glyph glyph-name="ordfeminine" unicode="&#xaa;" horiz-adv-x="442" 
d="M138 306q-49 0 -79.5 26.5t-30.5 76.5q0 29 10.5 49.5t27.5 35t39 24.5t45 19l106 40v21q0 35 -13.5 51.5t-43.5 16.5q-36 0 -54 -21.5t-20 -58.5l-87 10q9 70 52.5 103t112.5 33q72 0 113.5 -35t41.5 -113v-165q0 -34 16 -45q9 -7 20.5 -7.5t25.5 -0.5v-49
q-11 -5 -26.5 -8t-31.5 -3q-42 0 -64.5 23t-27.5 61h-6q-14 -35 -46.5 -59.5t-79.5 -24.5zM183 375q29 0 51 19.5t22 59.5v71q-14 -5 -31 -12.5t-38 -16.5t-38.5 -26t-17.5 -45q0 -23 14 -36.5t38 -13.5z" />
    <glyph glyph-name="guillemotleft" unicode="&#xab;" horiz-adv-x="476" 
d="M224 253l131 188h97l-113 -188l113 -187h-97zM33 253l131 188h97l-113 -188l113 -187h-97z" />
    <glyph glyph-name="registered" unicode="&#xae;" horiz-adv-x="499" 
d="M249 318q-41 0 -78.5 14t-66 40.5t-45 65.5t-16.5 90t16.5 90t45 65.5t66 40.5t78.5 14t78.5 -14t66 -40.5t45 -65.5t16.5 -90t-16.5 -90t-45 -65.5t-66 -40.5t-78.5 -14zM249 357q33 0 62.5 11t51.5 33t35 54t13 73t-13 73t-35 53.5t-51.5 33t-62.5 11.5t-62.5 -11.5
t-51 -33t-34 -53.5t-12.5 -73t12.5 -73t34 -54t51 -33t62.5 -11zM255 538q17 0 24 9.5t7 22.5q0 29 -31 29h-37v-61h37zM295 517q20 -6 31 -40q8 -21 11 -27.5t9 -14.5v-8h-58q-5 11 -9.5 27.5t-10.5 31.5q-3 9 -7.5 12.5t-15.5 3.5h-27v-75h-52v209h90q44 0 64.5 -17
t20.5 -46q0 -23 -13 -36t-33 -18v-2z" />
    <glyph glyph-name="macron" unicode="&#xaf;" horiz-adv-x="412" 
d="M81 689h250v-82h-250v82z" />
    <glyph glyph-name="degree" unicode="&#xb0;" horiz-adv-x="414" 
d="M207 405q-35 0 -65 12.5t-52 34t-34.5 51.5t-12.5 66t12.5 66t34 52t51.5 34.5t66 12.5t66 -12.5t51.5 -34.5t34 -52t12.5 -66t-12.5 -66t-35 -51.5t-52.5 -34t-64 -12.5zM207 474q21 0 36 8t24.5 21t14 30.5t4.5 35.5q0 19 -4.5 36.5t-14 30.5t-24.5 21t-36 8t-36.5 -8
t-25 -21t-14.5 -30.5t-5 -36.5q0 -37 20 -66t61 -29z" />
    <glyph glyph-name="plusminus" unicode="&#xb1;" horiz-adv-x="547" 
d="M59 91h430v-91h-430v91zM223 305h-168v92h168v174h101v-174h168v-92h-168v-174h-101v174z" />
    <glyph glyph-name="acute" unicode="&#xb4;" horiz-adv-x="412" 
d="M122 590l53 145h115l-86 -145h-82z" />
    <glyph glyph-name="paragraph" unicode="&#xb6;" horiz-adv-x="664" 
d="M337 239h-23q-58 0 -106.5 15t-83.5 45t-54.5 74.5t-19.5 104.5t19.5 104.5t55 74t84 44.5t105.5 15h268v-845h-84v767h-77v-767h-84v368z" />
    <glyph glyph-name="periodcentered" unicode="&#xb7;" horiz-adv-x="295" 
d="M83 457h129v-174h-129v174z" />
    <glyph glyph-name="cedilla" unicode="&#xb8;" horiz-adv-x="412" 
d="M212 -242q-41 0 -71 13.5t-47 28.5l28 47q15 -14 36 -24t44 -10q20 0 32 10.5t12 30.5q0 18 -10 26.5t-25 8.5q-14 0 -24 -7t-15 -17l-53 18l51 129l58 -12l-25 -64q16 6 36 6q38 0 65 -23t27 -63q0 -24 -10 -42.5t-27 -30.5t-38.5 -18.5t-43.5 -6.5z" />
    <glyph glyph-name="ordmasculine" unicode="&#xba;" horiz-adv-x="462" 
d="M431 519q0 -41 -12 -79.5t-37 -68t-62.5 -47.5t-88.5 -18t-89 18t-62.5 47.5t-36.5 68t-12 79.5t12 79.5t36.5 68t62.5 47.5t89 18t88.5 -18t62.5 -47.5t37 -68t12 -79.5zM138 519q0 -69 22 -108.5t71 -39.5q48 0 70.5 39.5t22.5 108.5q0 70 -22.5 107.5t-70.5 37.5
q-49 0 -71 -37.5t-22 -107.5z" />
    <glyph glyph-name="guillemotright" unicode="&#xbb;" horiz-adv-x="476" 
d="M240.002 253l-130.992 188h-96.9941l112.993 -188l-112.993 -187h96.9941zM431.002 253l-130.992 188h-96.9941l112.993 -188l-112.993 -187h96.9941z" />
    <glyph glyph-name="onequarter" unicode="&#xbc;" horiz-adv-x="790" 
d="M132 332v286h-77v52l37 3q26 3 39 14t22 35h62v-390h-83zM608 77h-188v51l174 261h96v-255h56v-57h-56v-76h-82v76zM608 305h-5l-110 -166v-5h115v171zM564 715h69l-457 -715h-69z" />
    <glyph glyph-name="onehalf" unicode="&#xbd;" horiz-adv-x="827" 
d="M132 332v286h-77v52l37 3q26 3 39 14t22 35h62v-390h-83zM475 55q51 27 89.5 50.5t63.5 48t37.5 51.5t12.5 59q0 35 -17 54t-46 19q-22 0 -38 -11t-24 -30.5t-7.5 -47t12.5 -60.5l-79 8q-14 40 -10.5 76t21.5 63.5t50.5 43.5t77.5 16q67 0 107 -35.5t40 -95.5
q0 -34 -13 -63t-36 -53.5t-54.5 -45t-67.5 -36.5v-7h176v-58h-295v54zM564 715h69l-457 -715h-69z" />
    <glyph glyph-name="threequarters" unicode="&#xbe;" horiz-adv-x="870" 
d="M202 323q-32 0 -60.5 8.5t-48.5 25t-31 42t-8 60.5l76 15q-2 -18 1.5 -35t12.5 -29.5t23.5 -20.5t34.5 -8q29 0 46 16.5t17 46.5q0 63 -78 63h-48v54h48q33 0 49 14t16 40t-16.5 39.5t-40.5 13.5q-32 0 -48 -20.5t-13 -54.5l-77 9q-2 33 9.5 56.5t31.5 38.5t47 22t56 7
q28 0 53 -7t43.5 -20.5t29.5 -32t11 -42.5q0 -38 -24 -58t-56 -27v-6q37 -6 65.5 -29.5t28.5 -66.5q0 -51 -39.5 -82.5t-110.5 -31.5zM688 77h-188v51l174 261h96v-255h56v-57h-56v-76h-82v76zM688 305h-5l-110 -166v-5h115v171zM644 715h69l-457 -715h-69z" />
    <glyph glyph-name="questiondown" unicode="&#xbf;" horiz-adv-x="509" 
d="M343.01 112.024h-68.9961q-58.9961 0 -93.4941 -30.498t-34.498 -94.4941q0 -52.9971 26.498 -86.4941q26.499 -33.498 83.4951 -33.498q56.9971 0 85.4951 33.998q28.498 33.9971 26.498 86.9941l110.993 -25.998q-3 -35.998 -17.999 -67.9961t-42.4971 -55.9971
q-27.498 -23.998 -67.9961 -37.9971q-40.4971 -13.999 -94.4941 -13.999q-56.9961 0 -100.494 15.999q-43.4971 15.999 -72.4951 43.4971t-43.9971 63.9961t-14.999 77.4951q0 47.9971 16.499 83.9951t43.9971 60.9961q27.498 24.999 64.4961 39.998
q36.9971 14.999 77.9951 18.998l5.99902 99.9941h101.994zM348.009 518v-163.99h-128.992v163.99h128.992z" />
    <glyph glyph-name="Agrave" unicode="&#xc0;" horiz-adv-x="665" 
d="M225 245h205l-98 304h-7zM461 150h-267l-49 -150h-120l252 720h116l247 -720h-131zM301 779l-105 128h136l62 -128h-93z" />
    <glyph glyph-name="Aacute" unicode="&#xc1;" horiz-adv-x="665" 
d="M225 245h205l-98 304h-7zM461 150h-267l-49 -150h-120l252 720h116l247 -720h-131zM288 779l62 128h135l-105 -128h-92z" />
    <glyph glyph-name="Acircumflex" unicode="&#xc2;" horiz-adv-x="665" 
d="M225 245h205l-98 304h-7zM461 150h-267l-49 -150h-120l252 720h116l247 -720h-131zM333 840l-60 -61h-102l115 122h98l115 -122h-107z" />
    <glyph glyph-name="Atilde" unicode="&#xc3;" horiz-adv-x="665" 
d="M225 245h205l-98 304h-7zM461 150h-267l-49 -150h-120l252 720h116l247 -720h-131zM170 786q-4 51 20 85.5t69 34.5q21 0 40.5 -6.5t37.5 -14t34.5 -14t30.5 -6.5q20 0 29 12.5t11 32.5l51 -10q2 -51 -21 -85.5t-69 -34.5q-21 0 -40.5 6.5t-37.5 14t-34 14t-30 6.5
q-20 0 -29 -12t-12 -32z" />
    <glyph glyph-name="Adieresis" unicode="&#xc4;" horiz-adv-x="665" 
d="M225 245h205l-98 304h-7zM461 150h-267l-49 -150h-120l252 720h116l247 -720h-131zM180 901h112v-108h-112v108zM374 901h112v-108h-112v108z" />
    <glyph glyph-name="Aring" unicode="&#xc5;" horiz-adv-x="665" 
d="M225 245h205l-98 304h-7zM461 150h-267l-49 -150h-120l252 720h116l247 -720h-131zM438 853q0 -45 -29 -72t-76 -27q-46 0 -75 27t-29 72q0 44 29 72t75 28q47 0 76 -28t29 -72zM289 853q0 -23 12.5 -34.5t31.5 -11.5t32 11.5t13 34.5t-13 35t-32 12t-31.5 -12t-12.5 -35
z" />
    <glyph glyph-name="AE" unicode="&#xc6;" horiz-adv-x="966" 
d="M263 245h203v365h-2zM466 150h-255l-83 -150h-125l402 716h488v-92h-301v-218h229v-93h-229v-221h335v-92h-461v150z" />
    <glyph glyph-name="Ccedilla" unicode="&#xc7;" horiz-adv-x="706" 
d="M373 -242q-41 0 -71 13.5t-47 28.5l28 47q15 -14 36 -24t44 -10q20 0 32 10.5t12 30.5q0 18 -10 26.5t-25 8.5q-14 0 -24 -7t-15 -17l-53 18l41 105q-50 6 -90 27q-59 31 -98 83t-57.5 119.5t-18.5 140.5t19 140.5t58 119.5t99 83t142 31q64 0 113.5 -19t85 -52.5
t57.5 -80.5t33 -103l-116 -29q-13 91 -53 140t-118 49q-90 0 -137.5 -74.5t-47.5 -204.5t47.5 -204.5t137.5 -74.5q40 0 69 13.5t50 38.5t34 60t20 78l115 -31q-12 -52 -33.5 -98.5t-57 -81t-85.5 -54.5q-46 -18 -107 -20l-18 -48q16 6 36 6q38 0 65 -23t27 -63
q0 -24 -10 -42.5t-27 -30.5t-38.5 -18.5t-43.5 -6.5z" />
    <glyph glyph-name="Egrave" unicode="&#xc8;" horiz-adv-x="615" 
d="M294 779l-105 128h136l62 -128h-93zM90 716h452v-92h-326v-218h254v-93h-254v-221h360v-92h-486v716z" />
    <glyph glyph-name="Eacute" unicode="&#xc9;" horiz-adv-x="615" 
d="M281 779l62 128h135l-105 -128h-92zM90 716h452v-92h-326v-218h254v-93h-254v-221h360v-92h-486v716z" />
    <glyph glyph-name="Ecircumflex" unicode="&#xca;" horiz-adv-x="615" 
d="M326 840l-60 -61h-102l115 122h98l115 -122h-107zM90 716h452v-92h-326v-218h254v-93h-254v-221h360v-92h-486v716z" />
    <glyph glyph-name="Edieresis" unicode="&#xcb;" horiz-adv-x="615" 
d="M90 716h452v-92h-326v-218h254v-93h-254v-221h360v-92h-486v716zM174 901h112v-108h-112v108zM368 901h112v-108h-112v108z" />
    <glyph glyph-name="Igrave" unicode="&#xcc;" horiz-adv-x="306" 
d="M90 716h126v-716h-126v716zM121 779l-105 128h136l62 -128h-93z" />
    <glyph glyph-name="Iacute" unicode="&#xcd;" horiz-adv-x="306" 
d="M90 716h126v-716h-126v716zM108 779l62 128h135l-105 -128h-92z" />
    <glyph glyph-name="Icircumflex" unicode="&#xce;" horiz-adv-x="306" 
d="M90 716h126v-716h-126v716zM154 840l-60 -61h-102l115 122h98l115 -122h-107z" />
    <glyph glyph-name="Idieresis" unicode="&#xcf;" horiz-adv-x="306" 
d="M90 716h126v-716h-126v716zM1 901h112v-108h-112v108zM195 901h112v-108h-112v108z" />
    <glyph glyph-name="Eth" unicode="&#xd0;" horiz-adv-x="753" 
d="M28 407h78v309h249q86 0 150 -24.5t106.5 -71t63.5 -112.5t21 -150t-21 -150t-63.5 -112.5t-106.5 -71t-150 -24.5h-249v319h-78v88zM351 92q52 0 91.5 13.5t65.5 45t39.5 82t13.5 125.5q0 74 -15.5 125t-43.5 82.5t-66.5 45t-84.5 13.5h-119v-217h156v-88h-156v-227h119
z" />
    <glyph glyph-name="Ntilde" unicode="&#xd1;" horiz-adv-x="729" 
d="M200 786q-4 51 20 85.5t69 34.5q21 0 40.5 -6.5t37.5 -14t34.5 -14t30.5 -6.5q20 0 29 12.5t11 32.5l51 -10q2 -51 -21 -85.5t-69 -34.5q-21 0 -40.5 6.5t-37.5 14t-34 14t-30 6.5q-20 0 -29 -12t-12 -32zM90 716h124l311 -514h3v514h111v-716h-109l-326 533h-3v-533
h-111v716z" />
    <glyph glyph-name="Ograve" unicode="&#xd2;" horiz-adv-x="769" 
d="M352 779l-105 128h136l62 -128h-93zM385 -16q-84 0 -146 32t-102.5 84.5t-60 119.5t-19.5 138t19.5 138t60 119.5t102.5 84.5t146 32t146 -32t102 -84.5t59.5 -119.5t19.5 -138t-19.5 -138t-59.5 -119.5t-102 -84.5t-146 -32zM385 79q99 0 145.5 74t46.5 205
q0 130 -46.5 204.5t-145.5 74.5q-50 0 -86 -20.5t-60 -57t-35.5 -88t-11.5 -113.5q0 -63 11.5 -114t35.5 -88t60 -57t86 -20z" />
    <glyph glyph-name="Oacute" unicode="&#xd3;" horiz-adv-x="769" 
d="M339 779l62 128h135l-105 -128h-92zM385 -16q-84 0 -146 32t-102.5 84.5t-60 119.5t-19.5 138t19.5 138t60 119.5t102.5 84.5t146 32t146 -32t102 -84.5t59.5 -119.5t19.5 -138t-19.5 -138t-59.5 -119.5t-102 -84.5t-146 -32zM385 79q99 0 145.5 74t46.5 205
q0 130 -46.5 204.5t-145.5 74.5q-50 0 -86 -20.5t-60 -57t-35.5 -88t-11.5 -113.5q0 -63 11.5 -114t35.5 -88t60 -57t86 -20z" />
    <glyph glyph-name="Ocircumflex" unicode="&#xd4;" horiz-adv-x="769" 
d="M384 840l-60 -61h-102l115 122h98l115 -122h-107zM385 -16q-84 0 -146 32t-102.5 84.5t-60 119.5t-19.5 138t19.5 138t60 119.5t102.5 84.5t146 32t146 -32t102 -84.5t59.5 -119.5t19.5 -138t-19.5 -138t-59.5 -119.5t-102 -84.5t-146 -32zM385 79q99 0 145.5 74
t46.5 205q0 130 -46.5 204.5t-145.5 74.5q-50 0 -86 -20.5t-60 -57t-35.5 -88t-11.5 -113.5q0 -63 11.5 -114t35.5 -88t60 -57t86 -20z" />
    <glyph glyph-name="Otilde" unicode="&#xd5;" horiz-adv-x="769" 
d="M221 786q-4 51 20 85.5t69 34.5q21 0 40.5 -6.5t37.5 -14t34.5 -14t30.5 -6.5q20 0 29 12.5t11 32.5l51 -10q2 -51 -21 -85.5t-69 -34.5q-21 0 -40.5 6.5t-37.5 14t-34 14t-30 6.5q-20 0 -29 -12t-12 -32zM385 -16q-84 0 -146 32t-102.5 84.5t-60 119.5t-19.5 138
t19.5 138t60 119.5t102.5 84.5t146 32t146 -32t102 -84.5t59.5 -119.5t19.5 -138t-19.5 -138t-59.5 -119.5t-102 -84.5t-146 -32zM385 79q99 0 145.5 74t46.5 205q0 130 -46.5 204.5t-145.5 74.5q-50 0 -86 -20.5t-60 -57t-35.5 -88t-11.5 -113.5q0 -63 11.5 -114t35.5 -88
t60 -57t86 -20z" />
    <glyph glyph-name="Odieresis" unicode="&#xd6;" horiz-adv-x="769" 
d="M232 901h112v-108h-112v108zM426 901h112v-108h-112v108zM385 -16q-84 0 -146 32t-102.5 84.5t-60 119.5t-19.5 138t19.5 138t60 119.5t102.5 84.5t146 32t146 -32t102 -84.5t59.5 -119.5t19.5 -138t-19.5 -138t-59.5 -119.5t-102 -84.5t-146 -32zM385 79q99 0 145.5 74
t46.5 205q0 130 -46.5 204.5t-145.5 74.5q-50 0 -86 -20.5t-60 -57t-35.5 -88t-11.5 -113.5q0 -63 11.5 -114t35.5 -88t60 -57t86 -20z" />
    <glyph glyph-name="multiply" unicode="&#xd7;" horiz-adv-x="553" 
d="M53 152l161 160l-155 153l65 65l153 -156l153 156l65 -65l-156 -153l161 -160l-65 -65l-158 161l-159 -161z" />
    <glyph glyph-name="Oslash" unicode="&#xd8;" horiz-adv-x="773" 
d="M188 358q0 -48 5.5 -88.5t17.5 -73.5l310 397q-48 50 -135 50q-49 0 -86 -21t-62 -59t-37.5 -90.5t-12.5 -114.5zM386 74q49 0 86.5 20t62.5 57t37.5 89.5t12.5 117.5q0 50 -5.5 91t-17.5 73l-309 -396q47 -52 133 -52zM387 -16q-60 0 -108.5 17t-86.5 47l-72 -92l-58 49
l76 97q-42 54 -62 120.5t-20 135.5q0 71 20 138t61 119.5t103.5 84.5t146.5 32q60 0 108 -17t86 -46l68 88l58 -49l-73 -93q42 -54 62 -121t20 -136q0 -71 -20 -138t-60.5 -119.5t-102.5 -84.5t-146 -32z" />
    <glyph glyph-name="Ugrave" unicode="&#xd9;" horiz-adv-x="699" 
d="M316 779l-105 128h136l62 -128h-93zM348 -15q-133 0 -201.5 64t-68.5 179v488h127v-472q0 -78 34 -120t118 -42t119 42t35 120v472h110v-486q0 -113 -68.5 -179t-204.5 -66z" />
    <glyph glyph-name="Uacute" unicode="&#xda;" horiz-adv-x="699" 
d="M303 779l62 128h135l-105 -128h-92zM348 -15q-133 0 -201.5 64t-68.5 179v488h127v-472q0 -78 34 -120t118 -42t119 42t35 120v472h110v-486q0 -113 -68.5 -179t-204.5 -66z" />
    <glyph glyph-name="Ucircumflex" unicode="&#xdb;" horiz-adv-x="699" 
d="M348 840l-60 -61h-102l115 122h98l115 -122h-107zM348 -15q-133 0 -201.5 64t-68.5 179v488h127v-472q0 -78 34 -120t118 -42t119 42t35 120v472h110v-486q0 -113 -68.5 -179t-204.5 -66z" />
    <glyph glyph-name="Udieresis" unicode="&#xdc;" horiz-adv-x="699" 
d="M348 -15q-133 0 -201.5 64t-68.5 179v488h127v-472q0 -78 34 -120t118 -42t119 42t35 120v472h110v-486q0 -113 -68.5 -179t-204.5 -66zM196 901h112v-108h-112v108zM390 901h112v-108h-112v108z" />
    <glyph glyph-name="Yacute" unicode="&#xdd;" horiz-adv-x="615" 
d="M242 0v306l-222 410h136l159 -304h6l160 304h114l-226 -410v-306h-127zM262 779l62 128h135l-105 -128h-92z" />
    <glyph glyph-name="Thorn" unicode="&#xde;" horiz-adv-x="642" 
d="M90 716h126v-135h135q129 0 190.5 -56t61.5 -154q0 -103 -64 -156.5t-188 -53.5h-137v-161h-124v716zM344 252q68 0 99.5 29t31.5 89q0 61 -31.5 90.5t-99.5 29.5h-128v-238h128z" />
    <glyph glyph-name="germandbls" unicode="&#xdf;" horiz-adv-x="610" 
d="M405 -10q-40 0 -70 12t-51 33t-32 50t-14 62l79 23q2 -47 26 -77.5t63 -30.5q28 0 46 17.5t18 47.5q0 34 -25 57.5t-64 50.5q-52 37 -80 72t-28 82q0 39 19 68.5t51 58.5q26 24 42.5 49.5t16.5 54.5q0 35 -26 59.5t-71 24.5q-53 0 -83.5 -40t-30.5 -125v-539h-118v548
q0 62 17.5 106t48 72.5t72 42t89.5 13.5q45 0 83.5 -11t66.5 -31t43.5 -49t15.5 -65q0 -37 -14.5 -65.5t-39.5 -54.5q-13 -14 -26 -26.5t-23 -24t-16.5 -23.5t-6.5 -25q0 -26 22 -46.5t60 -48.5q24 -17 44.5 -34t35.5 -36t23.5 -42t8.5 -52q0 -33 -12 -61.5t-34 -50t-54 -34
t-72 -12.5z" />
    <glyph glyph-name="agrave" unicode="&#xe0;" horiz-adv-x="563" 
d="M199 -10q-69 0 -108 37.5t-39 98.5q0 36 13 61t34 42.5t47 29.5t52 22q38 15 78.5 29t67.5 25v37q0 88 -78 88q-46 0 -68.5 -26.5t-31.5 -80.5l-96 13q11 89 65.5 129t136.5 40q94 0 142.5 -39.5t48.5 -122.5v-249q0 -21 6.5 -33.5t18.5 -19.5q10 -7 24 -9t31 -2v-57
q-11 -6 -31.5 -9.5t-37.5 -3.5q-107 0 -116 98h-8q-19 -44 -55 -71t-96 -27zM241 64q48 0 75.5 30.5t27.5 77.5v96q-20 -8 -43 -16.5t-57 -23.5q-15 -6 -28.5 -13.5t-24 -18t-17 -24.5t-6.5 -35q0 -32 17.5 -52.5t55.5 -20.5zM153 735h114l54 -145h-81z" />
    <glyph glyph-name="aacute" unicode="&#xe1;" horiz-adv-x="563" 
d="M199 -10q-69 0 -108 37.5t-39 98.5q0 36 13 61t34 42.5t47 29.5t52 22q38 15 78.5 29t67.5 25v37q0 88 -78 88q-46 0 -68.5 -26.5t-31.5 -80.5l-96 13q11 89 65.5 129t136.5 40q94 0 142.5 -39.5t48.5 -122.5v-249q0 -21 6.5 -33.5t18.5 -19.5q10 -7 24 -9t31 -2v-57
q-11 -6 -31.5 -9.5t-37.5 -3.5q-107 0 -116 98h-8q-19 -44 -55 -71t-96 -27zM241 64q48 0 75.5 30.5t27.5 77.5v96q-20 -8 -43 -16.5t-57 -23.5q-15 -6 -28.5 -13.5t-24 -18t-17 -24.5t-6.5 -35q0 -32 17.5 -52.5t55.5 -20.5zM226 590l53 145h115l-86 -145h-82z" />
    <glyph glyph-name="acircumflex" unicode="&#xe2;" horiz-adv-x="563" 
d="M199 -10q-69 0 -108 37.5t-39 98.5q0 36 13 61t34 42.5t47 29.5t52 22q38 15 78.5 29t67.5 25v37q0 88 -78 88q-46 0 -68.5 -26.5t-31.5 -80.5l-96 13q11 89 65.5 129t136.5 40q94 0 142.5 -39.5t48.5 -122.5v-249q0 -21 6.5 -33.5t18.5 -19.5q10 -7 24 -9t31 -2v-57
q-11 -6 -31.5 -9.5t-37.5 -3.5q-107 0 -116 98h-8q-19 -44 -55 -71t-96 -27zM241 64q48 0 75.5 30.5t27.5 77.5v96q-20 -8 -43 -16.5t-57 -23.5q-15 -6 -28.5 -13.5t-24 -18t-17 -24.5t-6.5 -35q0 -32 17.5 -52.5t55.5 -20.5zM272 666l-49 -76h-90l93 135h94l93 -135h-92z
" />
    <glyph glyph-name="atilde" unicode="&#xe3;" horiz-adv-x="563" 
d="M199 -10q-69 0 -108 37.5t-39 98.5q0 36 13 61t34 42.5t47 29.5t52 22q38 15 78.5 29t67.5 25v37q0 88 -78 88q-46 0 -68.5 -26.5t-31.5 -80.5l-96 13q11 89 65.5 129t136.5 40q94 0 142.5 -39.5t48.5 -122.5v-249q0 -21 6.5 -33.5t18.5 -19.5q10 -7 24 -9t31 -2v-57
q-11 -6 -31.5 -9.5t-37.5 -3.5q-107 0 -116 98h-8q-19 -44 -55 -71t-96 -27zM241 64q48 0 75.5 30.5t27.5 77.5v96q-20 -8 -43 -16.5t-57 -23.5q-15 -6 -28.5 -13.5t-24 -18t-17 -24.5t-6.5 -35q0 -32 17.5 -52.5t55.5 -20.5zM213 636q-17 0 -25 -11.5t-10 -28.5l-46 13
q-3 46 19 77.5t64 31.5q16 0 31.5 -6t29.5 -13t27.5 -13t26.5 -6q16 0 24 11.5t10 29.5l46 -14q3 -47 -18.5 -78t-64.5 -31q-16 0 -31.5 6t-29.5 13t-27.5 13t-25.5 6z" />
    <glyph glyph-name="adieresis" unicode="&#xe4;" horiz-adv-x="563" 
d="M199 -10q-69 0 -108 37.5t-39 98.5q0 36 13 61t34 42.5t47 29.5t52 22q38 15 78.5 29t67.5 25v37q0 88 -78 88q-46 0 -68.5 -26.5t-31.5 -80.5l-96 13q11 89 65.5 129t136.5 40q94 0 142.5 -39.5t48.5 -122.5v-249q0 -21 6.5 -33.5t18.5 -19.5q10 -7 24 -9t31 -2v-57
q-11 -6 -31.5 -9.5t-37.5 -3.5q-107 0 -116 98h-8q-19 -44 -55 -71t-96 -27zM241 64q48 0 75.5 30.5t27.5 77.5v96q-20 -8 -43 -16.5t-57 -23.5q-15 -6 -28.5 -13.5t-24 -18t-17 -24.5t-6.5 -35q0 -32 17.5 -52.5t55.5 -20.5zM135 712h103v-106h-103v106zM304 712h103v-106
h-103v106z" />
    <glyph glyph-name="aring" unicode="&#xe5;" horiz-adv-x="563" 
d="M199 -10q-69 0 -108 37.5t-39 98.5q0 36 13 61t34 42.5t47 29.5t52 22q38 15 78.5 29t67.5 25v37q0 88 -78 88q-46 0 -68.5 -26.5t-31.5 -80.5l-96 13q11 89 65.5 129t136.5 40q94 0 142.5 -39.5t48.5 -122.5v-249q0 -21 6.5 -33.5t18.5 -19.5q10 -7 24 -9t31 -2v-57
q-11 -6 -31.5 -9.5t-37.5 -3.5q-107 0 -116 98h-8q-19 -44 -55 -71t-96 -27zM241 64q48 0 75.5 30.5t27.5 77.5v96q-20 -8 -43 -16.5t-57 -23.5q-15 -6 -28.5 -13.5t-24 -18t-17 -24.5t-6.5 -35q0 -32 17.5 -52.5t55.5 -20.5zM379 679q0 -44 -28.5 -70.5t-75.5 -26.5
q-46 0 -75 26.5t-29 70.5q0 45 29 72.5t75 27.5q47 0 75.5 -27.5t28.5 -72.5zM231 680q0 -23 12.5 -34.5t31.5 -11.5t31.5 11.5t12.5 34.5t-12.5 34.5t-31.5 11.5t-31.5 -11.5t-12.5 -34.5z" />
    <glyph glyph-name="ae" unicode="&#xe6;" horiz-adv-x="861" 
d="M586 459q-54 0 -81 -37.5t-33 -109.5h223q-3 75 -27.5 111t-81.5 36zM240 64q49 0 76.5 30.5t27.5 77.5v96q-20 -8 -43 -16.5t-57 -23.5q-15 -6 -28.5 -13.5t-24 -17.5t-17 -24.5t-6.5 -34.5q0 -33 17.5 -53.5t54.5 -20.5zM815 163q-9 -35 -26 -66.5t-43 -55t-63.5 -37.5
t-86.5 -14q-81 0 -136.5 34.5t-84.5 96.5h-7q-17 -64 -62.5 -97.5t-104.5 -33.5q-71 0 -110 38t-39 102q0 35 13 59t34 41t47 29t52 22q38 15 78.5 29t67.5 25v37q0 88 -78 88q-46 0 -68.5 -26.5t-31.5 -80.5l-96 13q11 89 64 129t135 40q116 0 153 -69q29 32 70.5 50.5
t93.5 18.5q58 0 102 -21t73 -58.5t43.5 -90t14.5 -115.5h-349q1 -42 8.5 -75.5t23 -57.5t41 -37t61.5 -13q30 0 51.5 10.5t36 28t24 40.5t15.5 49z" />
    <glyph glyph-name="ccedilla" unicode="&#xe7;" horiz-adv-x="548" 
d="M299 -242q-41 0 -71 13.5t-47 28.5l28 47q15 -14 36 -24t44 -10q20 0 32 10.5t12 30.5q0 18 -10 26.5t-25 8.5q-14 0 -24 -7t-15 -17l-53 18l43 109q-35 5 -64 17q-45 20 -75.5 56t-46 86.5t-15.5 111.5t17.5 111.5t50 86.5t77.5 55.5t100 19.5q50 0 86.5 -12.5t62 -34.5
t40.5 -52.5t23 -66.5l-87 -33q-6 25 -14.5 47.5t-22.5 39t-34.5 26t-50.5 9.5q-60 0 -91 -52t-31 -144t29 -144t95 -52q30 0 50.5 10.5t34 28.5t22 41.5t13.5 49.5l88 -34q-9 -35 -25.5 -66.5t-42.5 -55t-63 -37.5q-28 -10 -64 -13l-21 -55q16 6 36 6q38 0 65 -23t27 -63
q0 -24 -10 -42.5t-27 -30.5t-38.5 -18.5t-43.5 -6.5z" />
    <glyph glyph-name="egrave" unicode="&#xe8;" horiz-adv-x="565" 
d="M290 459q-55 0 -82 -37.5t-32 -109.5h222q-2 74 -27 110.5t-81 36.5zM519 163q-9 -35 -26 -66.5t-43 -55t-63.5 -37.5t-86.5 -14q-60 0 -107 19.5t-79.5 55.5t-49 86t-16.5 112q0 52 16 101t46.5 87t75.5 61t103 23t102 -21t73.5 -58.5t44 -90t14.5 -115.5h-349
q1 -42 8.5 -75.5t23 -57.5t40.5 -37t61 -13q31 0 52.5 10.5t36 28t24 40.5t15.5 49zM172 735h114l54 -145h-81z" />
    <glyph glyph-name="eacute" unicode="&#xe9;" horiz-adv-x="565" 
d="M244 590l53 145h115l-86 -145h-82zM290 459q-55 0 -82 -37.5t-32 -109.5h222q-2 74 -27 110.5t-81 36.5zM519 163q-9 -35 -26 -66.5t-43 -55t-63.5 -37.5t-86.5 -14q-60 0 -107 19.5t-79.5 55.5t-49 86t-16.5 112q0 52 16 101t46.5 87t75.5 61t103 23t102 -21t73.5 -58.5
t44 -90t14.5 -115.5h-349q1 -42 8.5 -75.5t23 -57.5t40.5 -37t61 -13q31 0 52.5 10.5t36 28t24 40.5t15.5 49z" />
    <glyph glyph-name="ecircumflex" unicode="&#xea;" horiz-adv-x="565" 
d="M290 666l-49 -76h-90l93 135h94l93 -135h-92zM290 459q-55 0 -82 -37.5t-32 -109.5h222q-2 74 -27 110.5t-81 36.5zM519 163q-9 -35 -26 -66.5t-43 -55t-63.5 -37.5t-86.5 -14q-60 0 -107 19.5t-79.5 55.5t-49 86t-16.5 112q0 52 16 101t46.5 87t75.5 61t103 23t102 -21
t73.5 -58.5t44 -90t14.5 -115.5h-349q1 -42 8.5 -75.5t23 -57.5t40.5 -37t61 -13q31 0 52.5 10.5t36 28t24 40.5t15.5 49z" />
    <glyph glyph-name="edieresis" unicode="&#xeb;" horiz-adv-x="565" 
d="M154 712h103v-106h-103v106zM323 712h103v-106h-103v106zM290 459q-55 0 -82 -37.5t-32 -109.5h222q-2 74 -27 110.5t-81 36.5zM519 163q-9 -35 -26 -66.5t-43 -55t-63.5 -37.5t-86.5 -14q-60 0 -107 19.5t-79.5 55.5t-49 86t-16.5 112q0 52 16 101t46.5 87t75.5 61
t103 23t102 -21t73.5 -58.5t44 -90t14.5 -115.5h-349q1 -42 8.5 -75.5t23 -57.5t40.5 -37t61 -13q31 0 52.5 10.5t36 28t24 40.5t15.5 49z" />
    <glyph glyph-name="igrave" unicode="&#xec;" horiz-adv-x="266" 
d="M73 525h119v-525h-119v525zM17 735h114l54 -145h-81z" />
    <glyph glyph-name="iacute" unicode="&#xed;" horiz-adv-x="266" 
d="M90 590l53 145h115l-86 -145h-82zM73 525h119v-525h-119v525z" />
    <glyph glyph-name="icircumflex" unicode="&#xee;" horiz-adv-x="266" 
d="M135 666l-49 -76h-90l93 135h94l93 -135h-92zM73 525h119v-525h-119v525z" />
    <glyph glyph-name="idieresis" unicode="&#xef;" horiz-adv-x="266" 
d="M-1 712h103v-106h-103v106zM168 712h103v-106h-103v106zM73 525h119v-525h-119v525z" />
    <glyph glyph-name="eth" unicode="&#xf0;" horiz-adv-x="581" 
d="M290 -10q-62 0 -107.5 22.5t-75.5 60.5t-44.5 87.5t-14.5 102.5t13.5 102.5t41 87t69 60t97.5 22.5t87.5 -22.5t51.5 -56.5l5 2q-13 67 -39.5 112t-62.5 76l-147 -82l-31 54l120 67q-53 28 -132 42l12 65q123 -14 205 -59l100 56l31 -55l-74 -41q72 -64 103.5 -160
t31.5 -212q0 -78 -15.5 -139t-45.5 -104t-75 -65.5t-104 -22.5zM174 263q0 -100 27.5 -148.5t88.5 -48.5q60 0 88 48.5t28 148.5q0 196 -116 196t-116 -196z" />
    <glyph glyph-name="ntilde" unicode="&#xf1;" horiz-adv-x="583" 
d="M73 525h105l10 -128h2q13 37 32.5 63.5t43.5 43t51 24t54 7.5q41 0 68 -12t43.5 -32.5t23 -48t6.5 -59.5v-383h-119v356q0 51 -16.5 72t-55.5 21q-28 0 -51.5 -13.5t-41 -37t-27 -56t-9.5 -71.5v-271h-119v525zM237 636q-17 0 -25 -11.5t-10 -28.5l-46 13q-3 46 19 77.5
t64 31.5q16 0 31.5 -6t29.5 -13t27.5 -13t26.5 -6q16 0 24 11.5t10 29.5l46 -14q3 -47 -18.5 -78t-64.5 -31q-16 0 -31.5 6t-29.5 13t-27.5 13t-25.5 6z" />
    <glyph glyph-name="ograve" unicode="&#xf2;" horiz-adv-x="580" 
d="M532 263q0 -53 -14.5 -102.5t-44.5 -87.5t-75.5 -60.5t-107.5 -22.5t-107.5 22.5t-75.5 60.5t-44.5 87.5t-14.5 102.5t14.5 102.5t44.5 87t75.5 60t107.5 22.5t107.5 -22.5t75.5 -60t44.5 -87t14.5 -102.5zM174 263q0 -100 27.5 -148.5t88.5 -48.5q60 0 88 48.5t28 148.5
t-28 148t-88 48q-61 0 -88.5 -48t-27.5 -148zM171 735h114l54 -145h-81z" />
    <glyph glyph-name="oacute" unicode="&#xf3;" horiz-adv-x="580" 
d="M244 590l53 145h115l-86 -145h-82zM532 263q0 -53 -14.5 -102.5t-44.5 -87.5t-75.5 -60.5t-107.5 -22.5t-107.5 22.5t-75.5 60.5t-44.5 87.5t-14.5 102.5t14.5 102.5t44.5 87t75.5 60t107.5 22.5t107.5 -22.5t75.5 -60t44.5 -87t14.5 -102.5zM174 263q0 -100 27.5 -148.5
t88.5 -48.5q60 0 88 48.5t28 148.5t-28 148t-88 48q-61 0 -88.5 -48t-27.5 -148z" />
    <glyph glyph-name="ocircumflex" unicode="&#xf4;" horiz-adv-x="580" 
d="M290 666l-49 -76h-90l93 135h94l93 -135h-92zM532 263q0 -53 -14.5 -102.5t-44.5 -87.5t-75.5 -60.5t-107.5 -22.5t-107.5 22.5t-75.5 60.5t-44.5 87.5t-14.5 102.5t14.5 102.5t44.5 87t75.5 60t107.5 22.5t107.5 -22.5t75.5 -60t44.5 -87t14.5 -102.5zM174 263
q0 -100 27.5 -148.5t88.5 -48.5q60 0 88 48.5t28 148.5t-28 148t-88 48q-61 0 -88.5 -48t-27.5 -148z" />
    <glyph glyph-name="otilde" unicode="&#xf5;" horiz-adv-x="580" 
d="M532 263q0 -53 -14.5 -102.5t-44.5 -87.5t-75.5 -60.5t-107.5 -22.5t-107.5 22.5t-75.5 60.5t-44.5 87.5t-14.5 102.5t14.5 102.5t44.5 87t75.5 60t107.5 22.5t107.5 -22.5t75.5 -60t44.5 -87t14.5 -102.5zM174 263q0 -100 27.5 -148.5t88.5 -48.5q60 0 88 48.5t28 148.5
t-28 148t-88 48q-61 0 -88.5 -48t-27.5 -148zM231 636q-17 0 -25 -11.5t-10 -28.5l-46 13q-3 46 19 77.5t64 31.5q16 0 31.5 -6t29.5 -13t27.5 -13t26.5 -6q16 0 24 11.5t10 29.5l46 -14q3 -47 -18.5 -78t-64.5 -31q-16 0 -31.5 6t-29.5 13t-27.5 13t-25.5 6z" />
    <glyph glyph-name="odieresis" unicode="&#xf6;" horiz-adv-x="580" 
d="M154 712h103v-106h-103v106zM323 712h103v-106h-103v106zM532 263q0 -53 -14.5 -102.5t-44.5 -87.5t-75.5 -60.5t-107.5 -22.5t-107.5 22.5t-75.5 60.5t-44.5 87.5t-14.5 102.5t14.5 102.5t44.5 87t75.5 60t107.5 22.5t107.5 -22.5t75.5 -60t44.5 -87t14.5 -102.5z
M174 263q0 -100 27.5 -148.5t88.5 -48.5q60 0 88 48.5t28 148.5t-28 148t-88 48q-61 0 -88.5 -48t-27.5 -148z" />
    <glyph glyph-name="divide" unicode="&#xf7;" horiz-adv-x="544" 
d="M217 567h110v-118h-110v118zM52 368h440v-92h-440v92zM217 195h111v-118h-111v118z" />
    <glyph glyph-name="oslash" unicode="&#xf8;" horiz-adv-x="580" 
d="M167 263q0 -26 2 -49t6 -43l202 251q-30 41 -87 41q-65 0 -94 -50t-29 -150zM290 62q64 0 93.5 50.5t29.5 150.5q0 54 -9 93l-203 -251q31 -43 89 -43zM290 -10q-45 0 -81 12t-64 34l-59 -73l-46 41l62 76q-28 38 -41 85t-13 98q0 53 14.5 102.5t44.5 87t75.5 60
t107.5 22.5q45 0 80 -11.5t63 -32.5l55 68l47 -42l-57 -71q27 -37 40.5 -84.5t13.5 -98.5q0 -53 -14.5 -102.5t-44.5 -87.5t-75.5 -60.5t-107.5 -22.5z" />
    <glyph glyph-name="ugrave" unicode="&#xf9;" horiz-adv-x="579" 
d="M218 -10q-41 0 -69.5 12t-46 32.5t-25.5 48t-8 59.5v383h119v-356q0 -51 20 -72t59 -21q26 0 48 14t38 39t25 60.5t9 78.5v257h119v-525h-98l-17 123h-3q-24 -68 -67 -100.5t-103 -32.5zM169 735h114l54 -145h-81z" />
    <glyph glyph-name="uacute" unicode="&#xfa;" horiz-adv-x="579" 
d="M242 590l53 145h115l-86 -145h-82zM218 -10q-41 0 -69.5 12t-46 32.5t-25.5 48t-8 59.5v383h119v-356q0 -51 20 -72t59 -21q26 0 48 14t38 39t25 60.5t9 78.5v257h119v-525h-98l-17 123h-3q-24 -68 -67 -100.5t-103 -32.5z" />
    <glyph glyph-name="ucircumflex" unicode="&#xfb;" horiz-adv-x="579" 
d="M288 666l-49 -76h-90l93 135h94l93 -135h-92zM218 -10q-41 0 -69.5 12t-46 32.5t-25.5 48t-8 59.5v383h119v-356q0 -51 20 -72t59 -21q26 0 48 14t38 39t25 60.5t9 78.5v257h119v-525h-98l-17 123h-3q-24 -68 -67 -100.5t-103 -32.5z" />
    <glyph glyph-name="udieresis" unicode="&#xfc;" horiz-adv-x="579" 
d="M151 712h103v-106h-103v106zM320 712h103v-106h-103v106zM218 -10q-41 0 -69.5 12t-46 32.5t-25.5 48t-8 59.5v383h119v-356q0 -51 20 -72t59 -21q26 0 48 14t38 39t25 60.5t9 78.5v257h119v-525h-98l-17 123h-3q-24 -68 -67 -100.5t-103 -32.5z" />
    <glyph glyph-name="yacute" unicode="&#xfd;" horiz-adv-x="504" 
d="M34 -143q56 0 88 11q22 8 35 25.5t24 49.5l19 55l-185 527h128l114 -379h3l124 379h105l-209 -592q-10 -29 -20 -52t-22.5 -41t-30 -31t-42.5 -22q-24 -9 -58.5 -11.5t-72.5 -2.5v84zM208 590l53 145h115l-86 -145h-82z" />
    <glyph glyph-name="thorn" unicode="&#xfe;" horiz-adv-x="613" 
d="M322 67q27 0 48.5 10t36.5 32.5t23 58.5t8 89q0 100 -31 148.5t-88 48.5q-54 0 -88.5 -49.5t-34.5 -148.5q0 -52 11.5 -88t29.5 -58.5t40.5 -32.5t44.5 -10zM196 406q9 27 23 51t33.5 41t45 27t57.5 10q51 0 90 -20t65.5 -56.5t39.5 -86.5t13 -110q0 -65 -15.5 -116
t-44 -85.5t-68.5 -52.5t-89 -18q-48 0 -86 23t-61 74h-8v-314h-118v1009h118v-376h5z" />
    <glyph glyph-name="ydieresis" unicode="&#xff;" horiz-adv-x="504" 
d="M34 -143q56 0 88 11q22 8 35 25.5t24 49.5l19 55l-185 527h128l114 -379h3l124 379h105l-209 -592q-10 -29 -20 -52t-22.5 -41t-30 -31t-42.5 -22q-24 -9 -58.5 -11.5t-72.5 -2.5v84zM118 712h103v-106h-103v106zM287 712h103v-106h-103v106z" />
    <glyph glyph-name="Amacron" unicode="&#x100;" horiz-adv-x="665" 
d="M225 245h205l-98 304h-7zM461 150h-267l-49 -150h-120l252 720h116l247 -720h-131zM185 888h296v-88h-296v88z" />
    <glyph glyph-name="amacron" unicode="&#x101;" horiz-adv-x="563" 
d="M199 -10q-69 0 -108 37.5t-39 98.5q0 36 13 61t34 42.5t47 29.5t52 22q38 15 78.5 29t67.5 25v37q0 88 -78 88q-46 0 -68.5 -26.5t-31.5 -80.5l-96 13q11 89 65.5 129t136.5 40q94 0 142.5 -39.5t48.5 -122.5v-249q0 -21 6.5 -33.5t18.5 -19.5q10 -7 24 -9t31 -2v-57
q-11 -6 -31.5 -9.5t-37.5 -3.5q-107 0 -116 98h-8q-19 -44 -55 -71t-96 -27zM241 64q48 0 75.5 30.5t27.5 77.5v96q-20 -8 -43 -16.5t-57 -23.5q-15 -6 -28.5 -13.5t-24 -18t-17 -24.5t-6.5 -35q0 -32 17.5 -52.5t55.5 -20.5zM146 689h250v-82h-250v82z" />
    <glyph glyph-name="Abreve" unicode="&#x102;" horiz-adv-x="665" 
d="M225 245h205l-98 304h-7zM461 150h-267l-49 -150h-120l252 720h116l247 -720h-131zM333 777q-57 0 -96 27.5t-57 84.5l51 27q17 -26 40.5 -38t61.5 -12t61.5 12t40.5 38l51 -27q-18 -57 -57 -84.5t-96 -27.5z" />
    <glyph glyph-name="abreve" unicode="&#x103;" horiz-adv-x="563" 
d="M199 -10q-69 0 -108 37.5t-39 98.5q0 36 13 61t34 42.5t47 29.5t52 22q38 15 78.5 29t67.5 25v37q0 88 -78 88q-46 0 -68.5 -26.5t-31.5 -80.5l-96 13q11 89 65.5 129t136.5 40q94 0 142.5 -39.5t48.5 -122.5v-249q0 -21 6.5 -33.5t18.5 -19.5q10 -7 24 -9t31 -2v-57
q-11 -6 -31.5 -9.5t-37.5 -3.5q-107 0 -116 98h-8q-19 -44 -55 -71t-96 -27zM241 64q48 0 75.5 30.5t27.5 77.5v96q-20 -8 -43 -16.5t-57 -23.5q-15 -6 -28.5 -13.5t-24 -18t-17 -24.5t-6.5 -35q0 -32 17.5 -52.5t55.5 -20.5zM271 592q-54 0 -89.5 29t-46.5 85l55 21
q11 -26 29 -40t52 -14t52 14t29 40l55 -21q-11 -56 -46.5 -85t-89.5 -29z" />
    <glyph glyph-name="Aogonek" unicode="&#x104;" horiz-adv-x="665" 
d="M567 -232q-44 0 -73.5 21t-29.5 64q0 44 33 81t84 66h-72l-48 150h-267l-49 -150h-120l252 720h116l247 -720q-46 -35 -64 -67t-18 -55t11.5 -32.5t28.5 -9.5q8 0 14.5 2t12.5 4l13 -55q-17 -11 -34.5 -15t-36.5 -4zM225 245h205l-98 304h-7z" />
    <glyph glyph-name="aogonek" unicode="&#x105;" horiz-adv-x="563" 
d="M471 -229q-44 0 -73.5 21t-29.5 64q0 44 33 81q26 29 62 53q-97 5 -105 98h-8q-19 -44 -55 -71t-96 -27q-69 0 -108 37.5t-39 98.5q0 36 13 61t34 42.5t47 29.5t52 22q38 15 78.5 29t67.5 25v37q0 88 -78 88q-46 0 -68.5 -26.5t-31.5 -80.5l-96 13q11 89 65.5 129
t136.5 40q94 0 142.5 -39.5t48.5 -122.5v-249q0 -21 6.5 -33.5t18.5 -19.5q10 -7 24 -9t31 -2v-57h1q-46 -35 -64 -67t-18 -55t11.5 -32.5t28.5 -9.5q8 0 14.5 2t12.5 4l13 -55q-17 -11 -34.5 -15t-36.5 -4zM241 64q48 0 75.5 30.5t27.5 77.5v96q-20 -8 -43 -16.5t-57 -23.5
q-15 -6 -28.5 -13.5t-24 -18t-17 -24.5t-6.5 -35q0 -32 17.5 -52.5t55.5 -20.5z" />
    <glyph glyph-name="Cacute" unicode="&#x106;" horiz-adv-x="706" 
d="M373 -16q-82 0 -141.5 31t-98.5 83t-57.5 119.5t-18.5 140.5t19 140.5t58 119.5t99 83t142 31q64 0 113.5 -19t85 -52.5t57.5 -80.5t33 -103l-116 -29q-13 91 -53 140t-118 49q-90 0 -137.5 -74.5t-47.5 -204.5t47.5 -204.5t137.5 -74.5q40 0 69 13.5t50 38.5t34 60
t20 78l115 -31q-12 -52 -33.5 -98.5t-57 -81t-85 -54.5t-116.5 -20zM325 779l62 128h135l-105 -128h-92z" />
    <glyph glyph-name="cacute" unicode="&#x107;" horiz-adv-x="548" 
d="M245 590l53 145h115l-86 -145h-82zM288 -10q-58 0 -103 19.5t-75.5 55.5t-46 86.5t-15.5 111.5t17.5 111.5t50 86.5t77.5 55.5t100 19.5q50 0 86.5 -12.5t62 -34.5t40.5 -52.5t23 -66.5l-87 -33q-6 25 -14.5 47.5t-22.5 39t-34.5 26t-50.5 9.5q-60 0 -91 -52t-31 -144
t29 -144t95 -52q30 0 50.5 10.5t34 28.5t22 41.5t13.5 49.5l88 -34q-9 -35 -25.5 -66.5t-42.5 -55t-63 -37.5t-87 -14z" />
    <glyph glyph-name="Ccircumflex" unicode="&#x108;" horiz-adv-x="706" 
d="M370 840l-60 -61h-102l115 122h98l115 -122h-107zM373 -16q-82 0 -141.5 31t-98.5 83t-57.5 119.5t-18.5 140.5t19 140.5t58 119.5t99 83t142 31q64 0 113.5 -19t85 -52.5t57.5 -80.5t33 -103l-116 -29q-13 91 -53 140t-118 49q-90 0 -137.5 -74.5t-47.5 -204.5
t47.5 -204.5t137.5 -74.5q40 0 69 13.5t50 38.5t34 60t20 78l115 -31q-12 -52 -33.5 -98.5t-57 -81t-85 -54.5t-116.5 -20z" />
    <glyph glyph-name="ccircumflex" unicode="&#x109;" horiz-adv-x="548" 
d="M291 666l-49 -76h-90l93 135h94l93 -135h-92zM288 -10q-58 0 -103 19.5t-75.5 55.5t-46 86.5t-15.5 111.5t17.5 111.5t50 86.5t77.5 55.5t100 19.5q50 0 86.5 -12.5t62 -34.5t40.5 -52.5t23 -66.5l-87 -33q-6 25 -14.5 47.5t-22.5 39t-34.5 26t-50.5 9.5q-60 0 -91 -52
t-31 -144t29 -144t95 -52q30 0 50.5 10.5t34 28.5t22 41.5t13.5 49.5l88 -34q-9 -35 -25.5 -66.5t-42.5 -55t-63 -37.5t-87 -14z" />
    <glyph glyph-name="Cdotaccent" unicode="&#x10a;" horiz-adv-x="706" 
d="M373 -16q-82 0 -141.5 31t-98.5 83t-57.5 119.5t-18.5 140.5t19 140.5t58 119.5t99 83t142 31q64 0 113.5 -19t85 -52.5t57.5 -80.5t33 -103l-116 -29q-13 91 -53 140t-118 49q-90 0 -137.5 -74.5t-47.5 -204.5t47.5 -204.5t137.5 -74.5q40 0 69 13.5t50 38.5t34 60
t20 78l115 -31q-12 -52 -33.5 -98.5t-57 -81t-85 -54.5t-116.5 -20zM309 905h123v-112h-123v112z" />
    <glyph glyph-name="cdotaccent" unicode="&#x10b;" horiz-adv-x="548" 
d="M288 -10q-58 0 -103 19.5t-75.5 55.5t-46 86.5t-15.5 111.5t17.5 111.5t50 86.5t77.5 55.5t100 19.5q50 0 86.5 -12.5t62 -34.5t40.5 -52.5t23 -66.5l-87 -33q-6 25 -14.5 47.5t-22.5 39t-34.5 26t-50.5 9.5q-60 0 -91 -52t-31 -144t29 -144t95 -52q30 0 50.5 10.5
t34 28.5t22 41.5t13.5 49.5l88 -34q-9 -35 -25.5 -66.5t-42.5 -55t-63 -37.5t-87 -14zM233 716h115v-111h-115v111z" />
    <glyph glyph-name="Ccaron" unicode="&#x10c;" horiz-adv-x="706" 
d="M329 778l-115 122h107l59 -61l60 61h102l-115 -122h-98zM373 -16q-82 0 -141.5 31t-98.5 83t-57.5 119.5t-18.5 140.5t19 140.5t58 119.5t99 83t142 31q64 0 113.5 -19t85 -52.5t57.5 -80.5t33 -103l-116 -29q-13 91 -53 140t-118 49q-90 0 -137.5 -74.5t-47.5 -204.5
t47.5 -204.5t137.5 -74.5q40 0 69 13.5t50 38.5t34 60t20 78l115 -31q-12 -52 -33.5 -98.5t-57 -81t-85 -54.5t-116.5 -20z" />
    <glyph glyph-name="ccaron" unicode="&#x10d;" horiz-adv-x="548" 
d="M155 725h92l49 -76l49 76h90l-93 -135h-94zM288 -10q-58 0 -103 19.5t-75.5 55.5t-46 86.5t-15.5 111.5t17.5 111.5t50 86.5t77.5 55.5t100 19.5q50 0 86.5 -12.5t62 -34.5t40.5 -52.5t23 -66.5l-87 -33q-6 25 -14.5 47.5t-22.5 39t-34.5 26t-50.5 9.5q-60 0 -91 -52
t-31 -144t29 -144t95 -52q30 0 50.5 10.5t34 28.5t22 41.5t13.5 49.5l88 -34q-9 -35 -25.5 -66.5t-42.5 -55t-63 -37.5t-87 -14z" />
    <glyph glyph-name="Dcaron" unicode="&#x10e;" horiz-adv-x="737" 
d="M317 778l-115 122h107l59 -61l60 61h102l-115 -122h-98zM90 716h249q86 0 150 -24.5t106.5 -71t63.5 -112.5t21 -150t-21 -150t-63.5 -112.5t-106.5 -71t-150 -24.5h-249v716zM335 92q52 0 91.5 13.5t65.5 45t39.5 82t13.5 125.5q0 74 -15.5 125t-43.5 82.5t-66.5 45
t-84.5 13.5h-119v-532h119z" />
    <glyph glyph-name="dcaron" unicode="&#x10f;" horiz-adv-x="613" 
d="M704 782l-42 -172h-70l19 172h93zM294 65q27 0 49 10.5t38.5 34.5t25.5 62t9 92q0 98 -33 146.5t-84 48.5q-56 0 -90 -47.5t-34 -147.5t32 -149.5t87 -49.5zM266 -10q-53 0 -93.5 20t-67.5 56.5t-41 86.5t-14 110q0 65 16.5 116t45.5 85.5t70 52.5t89 18t87.5 -24.5
t56.5 -72.5h8v344h117v-788h-81l-35 101h-7q-20 -48 -58.5 -76.5t-92.5 -28.5z" />
    <glyph glyph-name="Dcroat" unicode="&#x110;" horiz-adv-x="753" 
d="M28 407h360v-88h-360v88zM106 716h249q86 0 150 -24.5t106.5 -71t63.5 -112.5t21 -150t-21 -150t-63.5 -112.5t-106.5 -71t-150 -24.5h-249v716zM351 92q52 0 91.5 13.5t65.5 45t39.5 82t13.5 125.5q0 74 -15.5 125t-43.5 82.5t-66.5 45t-84.5 13.5h-119v-532h119z" />
    <glyph glyph-name="dcroat" unicode="&#x111;" horiz-adv-x="613" 
d="M308 686h305v-73h-305v73zM294 65q27 0 49 10.5t38.5 34.5t25.5 62t9 92q0 98 -33 146.5t-84 48.5q-56 0 -90 -47.5t-34 -147.5t32 -149.5t87 -49.5zM266 -10q-53 0 -93.5 20t-67.5 56.5t-41 86.5t-14 110q0 65 16.5 116t45.5 85.5t70 52.5t89 18t87.5 -24.5t56.5 -72.5
h8v344h117v-788h-81l-35 101h-7q-20 -48 -58.5 -76.5t-92.5 -28.5z" />
    <glyph glyph-name="Emacron" unicode="&#x112;" horiz-adv-x="615" 
d="M90 716h452v-92h-326v-218h254v-93h-254v-221h360v-92h-486v716zM179 888h296v-88h-296v88z" />
    <glyph glyph-name="emacron" unicode="&#x113;" horiz-adv-x="565" 
d="M290 459q-55 0 -82 -37.5t-32 -109.5h222q-2 74 -27 110.5t-81 36.5zM519 163q-9 -35 -26 -66.5t-43 -55t-63.5 -37.5t-86.5 -14q-60 0 -107 19.5t-79.5 55.5t-49 86t-16.5 112q0 52 16 101t46.5 87t75.5 61t103 23t102 -21t73.5 -58.5t44 -90t14.5 -115.5h-349
q1 -42 8.5 -75.5t23 -57.5t40.5 -37t61 -13q31 0 52.5 10.5t36 28t24 40.5t15.5 49zM165 689h250v-82h-250v82z" />
    <glyph glyph-name="Ebreve" unicode="&#x114;" horiz-adv-x="615" 
d="M90 716h452v-92h-326v-218h254v-93h-254v-221h360v-92h-486v716zM327 777q-57 0 -96 27.5t-57 84.5l51 27q17 -26 40.5 -38t61.5 -12t61.5 12t40.5 38l51 -27q-18 -57 -57 -84.5t-96 -27.5z" />
    <glyph glyph-name="ebreve" unicode="&#x115;" horiz-adv-x="565" 
d="M290 459q-55 0 -82 -37.5t-32 -109.5h222q-2 74 -27 110.5t-81 36.5zM519 163q-9 -35 -26 -66.5t-43 -55t-63.5 -37.5t-86.5 -14q-60 0 -107 19.5t-79.5 55.5t-49 86t-16.5 112q0 52 16 101t46.5 87t75.5 61t103 23t102 -21t73.5 -58.5t44 -90t14.5 -115.5h-349
q1 -42 8.5 -75.5t23 -57.5t40.5 -37t61 -13q31 0 52.5 10.5t36 28t24 40.5t15.5 49zM290 592q-54 0 -89.5 29t-46.5 85l55 21q11 -26 29 -40t52 -14t52 14t29 40l55 -21q-11 -56 -46.5 -85t-89.5 -29z" />
    <glyph glyph-name="Edotaccent" unicode="&#x116;" horiz-adv-x="615" 
d="M265 905h123v-112h-123v112zM90 716h452v-92h-326v-218h254v-93h-254v-221h360v-92h-486v716z" />
    <glyph glyph-name="edotaccent" unicode="&#x117;" horiz-adv-x="565" 
d="M290 459q-55 0 -82 -37.5t-32 -109.5h222q-2 74 -27 110.5t-81 36.5zM519 163q-9 -35 -26 -66.5t-43 -55t-63.5 -37.5t-86.5 -14q-60 0 -107 19.5t-79.5 55.5t-49 86t-16.5 112q0 52 16 101t46.5 87t75.5 61t103 23t102 -21t73.5 -58.5t44 -90t14.5 -115.5h-349
q1 -42 8.5 -75.5t23 -57.5t40.5 -37t61 -13q31 0 52.5 10.5t36 28t24 40.5t15.5 49zM232 716h115v-111h-115v111z" />
    <glyph glyph-name="Eogonek" unicode="&#x118;" horiz-adv-x="615" 
d="M90 716h452v-92h-326v-218h254v-93h-254v-221h360v-92h-61q-46 -35 -64 -67t-18 -55t11.5 -32.5t28.5 -9.5q8 0 14.5 2t12.5 4l13 -55q-17 -11 -34.5 -15t-36.5 -4q-44 0 -73.5 21t-29.5 64q0 44 33 81t84 66h-366v716z" />
    <glyph glyph-name="eogonek" unicode="&#x119;" horiz-adv-x="565" 
d="M357 -232q-44 0 -73.5 21t-29.5 64q0 40 28 76.5t68 65.5q-10 -2 -22 -3.5t-28 -1.5q-60 0 -107 19.5t-79.5 55.5t-49 86t-16.5 112q0 52 16 101t46.5 87t75.5 61t103 23t102 -21t73.5 -58.5t44 -90t14.5 -115.5h-349q1 -41 8 -74.5t23 -57.5t41 -37.5t61 -13.5
q31 0 52.5 10.5t36 28t24 40.5t15.5 49l84 -32q-10 -38 -26.5 -70t-47.5 -64q-20 -21 -37.5 -39t-31 -35.5t-21.5 -35t-8 -37.5q0 -26 12 -36t29 -10q8 0 14.5 2t12.5 4l13 -55q-17 -11 -34.5 -15t-36.5 -4zM290 459q-55 0 -82 -38t-33 -109h223q-2 74 -27 110.5t-81 36.5z
" />
    <glyph glyph-name="Ecaron" unicode="&#x11a;" horiz-adv-x="615" 
d="M279 778l-115 122h107l59 -61l60 61h102l-115 -122h-98zM90 716h452v-92h-326v-218h254v-93h-254v-221h360v-92h-486v716z" />
    <glyph glyph-name="ecaron" unicode="&#x11b;" horiz-adv-x="565" 
d="M154 725h92l49 -76l49 76h90l-93 -135h-94zM290 459q-55 0 -82 -37.5t-32 -109.5h222q-2 74 -27 110.5t-81 36.5zM519 163q-9 -35 -26 -66.5t-43 -55t-63.5 -37.5t-86.5 -14q-60 0 -107 19.5t-79.5 55.5t-49 86t-16.5 112q0 52 16 101t46.5 87t75.5 61t103 23t102 -21
t73.5 -58.5t44 -90t14.5 -115.5h-349q1 -42 8.5 -75.5t23 -57.5t40.5 -37t61 -13q31 0 52.5 10.5t36 28t24 40.5t15.5 49z" />
    <glyph glyph-name="Gcircumflex" unicode="&#x11c;" horiz-adv-x="752" 
d="M388 840l-60 -61h-102l115 122h98l115 -122h-107zM377 -16q-82 0 -142 31t-99.5 83t-59 119.5t-19.5 140.5t20.5 140.5t61.5 119.5t102.5 83t143.5 31q64 0 111.5 -14.5t81 -41t55.5 -65t35 -86.5l-109 -29q-16 73 -55.5 107t-115.5 34q-45 0 -81 -19.5t-61.5 -55.5
t-39.5 -87.5t-14 -116.5t14 -117t39 -88t60 -55t78 -19q40 0 73 11.5t56.5 33t36.5 52t13 67.5v35h-148v90h260v-368h-70l-13 117h-4q-22 -63 -75.5 -98t-134.5 -35z" />
    <glyph glyph-name="gcircumflex" unicode="&#x11d;" horiz-adv-x="590" 
d="M284 666l-49 -76h-90l93 135h94l93 -135h-92zM273 173q21 0 39.5 7.5t32 24.5t21.5 44.5t8 67.5t-8 67.5t-21.5 44.5t-32 24.5t-39.5 7.5q-43 0 -72.5 -32t-29.5 -112t29.5 -112t72.5 -32zM278 -273q-52 0 -98 7.5t-81.5 24.5t-59 44.5t-30.5 68.5l100 12
q5 -18 16.5 -34.5t31.5 -29t49.5 -19.5t71.5 -7q55 0 89 7.5t53 19t25.5 26.5t6.5 30q0 29 -18.5 43t-60.5 14h-187q-26 0 -50 5t-42 17.5t-29 33t-11 51.5q0 41 24 64.5t59 35.5v3q-36 29 -57 73t-21 100q0 48 15.5 88.5t44 69t67.5 44.5t87 16q64 0 110 -28.5t72 -76.5h4
q0 32 8.5 52.5t20.5 32t26.5 16t26.5 4.5q18 0 30 -4t21 -11l-6 -84q-5 2 -14.5 5.5t-22.5 3.5q-38 0 -50.5 -32t-12.5 -89q0 -51 -15 -92.5t-43 -71t-67.5 -45.5t-87.5 -16q-51 0 -93 20q-13 -6 -23.5 -18t-10.5 -31q0 -41 51 -41h207q80 0 118.5 -34.5t38.5 -97.5
q0 -77 -68 -123.5t-215 -46.5z" />
    <glyph glyph-name="Gbreve" unicode="&#x11e;" horiz-adv-x="752" 
d="M389 777q-57 0 -96 27.5t-57 84.5l51 27q17 -26 40.5 -38t61.5 -12t61.5 12t40.5 38l51 -27q-18 -57 -57 -84.5t-96 -27.5zM377 -16q-82 0 -142 31t-99.5 83t-59 119.5t-19.5 140.5t20.5 140.5t61.5 119.5t102.5 83t143.5 31q64 0 111.5 -14.5t81 -41t55.5 -65t35 -86.5
l-109 -29q-16 73 -55.5 107t-115.5 34q-45 0 -81 -19.5t-61.5 -55.5t-39.5 -87.5t-14 -116.5t14 -117t39 -88t60 -55t78 -19q40 0 73 11.5t56.5 33t36.5 52t13 67.5v35h-148v90h260v-368h-70l-13 117h-4q-22 -63 -75.5 -98t-134.5 -35z" />
    <glyph glyph-name="gbreve" unicode="&#x11f;" horiz-adv-x="590" 
d="M273 173q21 0 39.5 7.5t32 24.5t21.5 44.5t8 67.5t-8 67.5t-21.5 44.5t-32 24.5t-39.5 7.5q-43 0 -72.5 -32t-29.5 -112t29.5 -112t72.5 -32zM278 -273q-52 0 -98 7.5t-81.5 24.5t-59 44.5t-30.5 68.5l100 12q5 -18 16.5 -34.5t31.5 -29t49.5 -19.5t71.5 -7q55 0 89 7.5
t53 19t25.5 26.5t6.5 30q0 29 -18.5 43t-60.5 14h-187q-26 0 -50 5t-42 17.5t-29 33t-11 51.5q0 41 24 64.5t59 35.5v3q-36 29 -57 73t-21 100q0 48 15.5 88.5t44 69t67.5 44.5t87 16q64 0 110 -28.5t72 -76.5h4q0 32 8.5 52.5t20.5 32t26.5 16t26.5 4.5q18 0 30 -4t21 -11
l-6 -84q-5 2 -14.5 5.5t-22.5 3.5q-38 0 -50.5 -32t-12.5 -89q0 -51 -15 -92.5t-43 -71t-67.5 -45.5t-87.5 -16q-51 0 -93 20q-13 -6 -23.5 -18t-10.5 -31q0 -41 51 -41h207q80 0 118.5 -34.5t38.5 -97.5q0 -77 -68 -123.5t-215 -46.5zM283 592q-54 0 -89.5 29t-46.5 85
l55 21q11 -26 29 -40t52 -14t52 14t29 40l55 -21q-11 -56 -46.5 -85t-89.5 -29z" />
    <glyph glyph-name="Gdotaccent" unicode="&#x120;" horiz-adv-x="752" 
d="M327 905h123v-112h-123v112zM377 -16q-82 0 -142 31t-99.5 83t-59 119.5t-19.5 140.5t20.5 140.5t61.5 119.5t102.5 83t143.5 31q64 0 111.5 -14.5t81 -41t55.5 -65t35 -86.5l-109 -29q-16 73 -55.5 107t-115.5 34q-45 0 -81 -19.5t-61.5 -55.5t-39.5 -87.5t-14 -116.5
t14 -117t39 -88t60 -55t78 -19q40 0 73 11.5t56.5 33t36.5 52t13 67.5v35h-148v90h260v-368h-70l-13 117h-4q-22 -63 -75.5 -98t-134.5 -35z" />
    <glyph glyph-name="gdotaccent" unicode="&#x121;" horiz-adv-x="590" 
d="M273 173q21 0 39.5 7.5t32 24.5t21.5 44.5t8 67.5t-8 67.5t-21.5 44.5t-32 24.5t-39.5 7.5q-43 0 -72.5 -32t-29.5 -112t29.5 -112t72.5 -32zM278 -273q-52 0 -98 7.5t-81.5 24.5t-59 44.5t-30.5 68.5l100 12q5 -18 16.5 -34.5t31.5 -29t49.5 -19.5t71.5 -7q55 0 89 7.5
t53 19t25.5 26.5t6.5 30q0 29 -18.5 43t-60.5 14h-187q-26 0 -50 5t-42 17.5t-29 33t-11 51.5q0 41 24 64.5t59 35.5v3q-36 29 -57 73t-21 100q0 48 15.5 88.5t44 69t67.5 44.5t87 16q64 0 110 -28.5t72 -76.5h4q0 32 8.5 52.5t20.5 32t26.5 16t26.5 4.5q18 0 30 -4t21 -11
l-6 -84q-5 2 -14.5 5.5t-22.5 3.5q-38 0 -50.5 -32t-12.5 -89q0 -51 -15 -92.5t-43 -71t-67.5 -45.5t-87.5 -16q-51 0 -93 20q-13 -6 -23.5 -18t-10.5 -31q0 -41 51 -41h207q80 0 118.5 -34.5t38.5 -97.5q0 -77 -68 -123.5t-215 -46.5zM226 716h115v-111h-115v111z" />
    <glyph glyph-name="uni0122" unicode="&#x122;" horiz-adv-x="752" 
d="M375 -154v11h-65v81h112v-114l-111 -63v49zM377 -16q-82 0 -142 31t-99.5 83t-59 119.5t-19.5 140.5t20.5 140.5t61.5 119.5t102.5 83t143.5 31q64 0 111.5 -14.5t81 -41t55.5 -65t35 -86.5l-109 -29q-16 73 -55.5 107t-115.5 34q-45 0 -81 -19.5t-61.5 -55.5
t-39.5 -87.5t-14 -116.5t14 -117t39 -88t60 -55t78 -19q40 0 73 11.5t56.5 33t36.5 52t13 67.5v35h-148v90h260v-368h-70l-13 117h-4q-22 -63 -75.5 -98t-134.5 -35z" />
    <glyph glyph-name="uni0123" unicode="&#x123;" horiz-adv-x="590" 
d="M274 682v-11h65v-81h-112v114l111 63v-49zM273 173q21 0 39.5 7.5t32 24.5t21.5 44.5t8 67.5t-8 67.5t-21.5 44.5t-32 24.5t-39.5 7.5q-43 0 -72.5 -32t-29.5 -112t29.5 -112t72.5 -32zM278 -273q-52 0 -98 7.5t-81.5 24.5t-59 44.5t-30.5 68.5l100 12q5 -18 16.5 -34.5
t31.5 -29t49.5 -19.5t71.5 -7q55 0 89 7.5t53 19t25.5 26.5t6.5 30q0 29 -18.5 43t-60.5 14h-187q-26 0 -50 5t-42 17.5t-29 33t-11 51.5q0 41 24 64.5t59 35.5v3q-36 29 -57 73t-21 100q0 48 15.5 88.5t44 69t67.5 44.5t87 16q64 0 110 -28.5t72 -76.5h4q0 32 8.5 52.5
t20.5 32t26.5 16t26.5 4.5q18 0 30 -4t21 -11l-6 -84q-5 2 -14.5 5.5t-22.5 3.5q-38 0 -50.5 -32t-12.5 -89q0 -51 -15 -92.5t-43 -71t-67.5 -45.5t-87.5 -16q-51 0 -93 20q-13 -6 -23.5 -18t-10.5 -31q0 -41 51 -41h207q80 0 118.5 -34.5t38.5 -97.5q0 -77 -68 -123.5
t-215 -46.5z" />
    <glyph glyph-name="Hcircumflex" unicode="&#x124;" horiz-adv-x="736" 
d="M90 716h126v-303h304v303h126v-716h-126v318h-304v-318h-126v716zM367 840l-60 -61h-102l115 122h98l115 -122h-107z" />
    <glyph glyph-name="hcircumflex" unicode="&#x125;" horiz-adv-x="583" 
d="M293 910l-49 -76h-90l93 135h94l93 -135h-92zM73 782h119v-382h2q25 72 73 103.5t103 31.5q42 0 69.5 -12t43.5 -32.5t22.5 -48t6.5 -59.5v-383h-119v356q0 51 -16.5 72t-55.5 21q-27 0 -51 -14.5t-41 -39.5t-27 -58.5t-10 -72.5v-264h-119v782z" />
    <glyph glyph-name="Hbar" unicode="&#x126;" horiz-adv-x="742" 
d="M20 598h702v-86h-702v86zM93 716h126v-303h304v303h126v-716h-126v318h-304v-318h-126v716z" />
    <glyph glyph-name="hbar" unicode="&#x127;" horiz-adv-x="583" 
d="M-1 686h305v-74h-305v74zM73 782h119v-382h2q25 72 73 103.5t103 31.5q42 0 69.5 -12t43.5 -32.5t22.5 -48t6.5 -59.5v-383h-119v356q0 51 -16.5 72t-55.5 21q-27 0 -51 -14.5t-41 -39.5t-27 -58.5t-10 -72.5v-264h-119v782z" />
    <glyph glyph-name="Itilde" unicode="&#x128;" horiz-adv-x="306" 
d="M90 716h126v-716h-126v716zM-10 786q-4 51 20 85.5t69 34.5q21 0 40.5 -6.5t37.5 -14t34.5 -14t30.5 -6.5q20 0 29 12.5t11 32.5l51 -10q2 -51 -21 -85.5t-69 -34.5q-21 0 -40.5 6.5t-37.5 14t-34 14t-30 6.5q-20 0 -29 -12t-12 -32z" />
    <glyph glyph-name="itilde" unicode="&#x129;" horiz-adv-x="266" 
d="M73 525h119v-525h-119v525zM77 636q-17 0 -25 -11.5t-10 -28.5l-46 13q-3 46 19 77.5t64 31.5q16 0 31.5 -6t29.5 -13t27.5 -13t26.5 -6q16 0 24 11.5t10 29.5l46 -14q3 -47 -18.5 -78t-64.5 -31q-16 0 -31.5 6t-29.5 13t-27.5 13t-25.5 6z" />
    <glyph glyph-name="Imacron" unicode="&#x12a;" horiz-adv-x="306" 
d="M90 716h126v-716h-126v716zM6 888h296v-88h-296v88z" />
    <glyph glyph-name="imacron" unicode="&#x12b;" horiz-adv-x="266" 
d="M73 525h119v-525h-119v525zM10 689h250v-82h-250v82z" />
    <glyph glyph-name="Ibreve" unicode="&#x12c;" horiz-adv-x="306" 
d="M90 716h126v-716h-126v716zM154 777q-57 0 -96 27.5t-57 84.5l51 27q17 -26 40.5 -38t61.5 -12t61.5 12t40.5 38l51 -27q-18 -57 -57 -84.5t-96 -27.5z" />
    <glyph glyph-name="ibreve" unicode="&#x12d;" horiz-adv-x="266" 
d="M73 525h119v-525h-119v525zM135 592q-54 0 -89.5 29t-46.5 85l55 21q11 -26 29 -40t52 -14t52 14t29 40l55 -21q-11 -56 -46.5 -85t-89.5 -29z" />
    <glyph glyph-name="Iogonek" unicode="&#x12e;" horiz-adv-x="306" 
d="M144 -232q-44 0 -73.5 21t-29.5 64q0 44 33 81t84 66h-68v716h126v-716h1q-46 -35 -64 -67t-18 -55t11.5 -32.5t28.5 -9.5q8 0 14.5 2t12.5 4l13 -55q-17 -11 -34.5 -15t-36.5 -4z" />
    <glyph glyph-name="iogonek" unicode="&#x12f;" horiz-adv-x="266" 
d="M120 -232q-44 0 -73.5 21t-29.5 64q0 44 33 81t84 66h-61v525h119v-525h1q-46 -35 -64 -67t-18 -55t11.5 -32.5t28.5 -9.5q8 0 14.5 2t12.5 4l13 -55q-17 -11 -34.5 -15t-36.5 -4zM73 717h119v-113h-119v113z" />
    <glyph glyph-name="Idotaccent" unicode="&#x130;" horiz-adv-x="306" 
d="M90 716h126v-716h-126v716zM93 905h123v-112h-123v112z" />
    <glyph glyph-name="dotlessi" unicode="&#x131;" horiz-adv-x="266" 
d="M73 525h119v-525h-119v525z" />
    <glyph glyph-name="IJ" unicode="&#x132;" horiz-adv-x="653" 
d="M90 716h126v-716h-126v716zM302 95q31 0 55.5 2t41.5 8q23 8 32.5 29t9.5 70v512h127v-546q0 -38 -8.5 -65t-24 -46t-36.5 -31t-45 -18q-25 -7 -64 -8.5t-88 -1.5v95z" />
    <glyph glyph-name="ij" unicode="&#x133;" horiz-adv-x="527" 
d="M73 717h119v-113h-119v113zM73 525h119v-525h-119v525zM325 717h119v-113h-119v113zM192 -141q33 0 53 1.5t37 7.5q22 8 32.5 27.5t10.5 66.5v563h119v-584q0 -74 -31.5 -111.5t-91.5 -48.5q-30 -6 -63 -7t-66 -1v86z" />
    <glyph glyph-name="Jcircumflex" unicode="&#x134;" horiz-adv-x="384" 
d="M235 840l-60 -61h-102l115 122h98l115 -122h-107zM33 95q31 0 55.5 2t41.5 8q23 8 32.5 29t9.5 70v512h127v-546q0 -38 -8.5 -65t-24 -46t-36.5 -31t-45 -18q-25 -7 -64 -8.5t-88 -1.5v95z" />
    <glyph glyph-name="jcircumflex" unicode="&#x135;" horiz-adv-x="266" 
d="M-60 -141q33 0 53 1t37 7q22 8 32.5 28t10.5 67v563h119v-584q0 -74 -32 -110.5t-91 -49.5q-30 -7 -63 -7.5t-66 -0.5v86zM133 666l-49 -76h-90l93 135h94l93 -135h-92z" />
    <glyph glyph-name="uni0136" unicode="&#x136;" horiz-adv-x="678" 
d="M363 -154v11h-65v81h112v-114l-111 -63v49zM272 332l-56 -59v-273h-126v716h126v-315l289 315h127l-276 -294l288 -422h-146z" />
    <glyph glyph-name="uni0137" unicode="&#x137;" horiz-adv-x="545" 
d="M303 -154v11h-65v81h112v-114l-111 -63v49zM192 0h-119v782h119v-488h3l193 231h116l-189 -214l209 -311h-136l-150 225l-46 -52v-173z" />
    <glyph glyph-name="Lacute" unicode="&#x139;" horiz-adv-x="600" 
d="M111 779l62 128h135l-105 -128h-92zM90 716h127v-617h356v-99h-483v716z" />
    <glyph glyph-name="lacute" unicode="&#x13a;" horiz-adv-x="266" 
d="M90 834l53 145h115l-86 -145h-82zM73 782h119v-782h-119v782z" />
    <glyph glyph-name="uni013B" unicode="&#x13b;" horiz-adv-x="600" 
d="M340 -154v11h-65v81h112v-114l-111 -63v49zM90 716h127v-617h356v-99h-483v716z" />
    <glyph glyph-name="uni013C" unicode="&#x13c;" horiz-adv-x="266" 
d="M143 -154v11h-65v81h112v-114l-111 -63v49zM73 782h119v-782h-119v782z" />
    <glyph glyph-name="Lcaron" unicode="&#x13d;" horiz-adv-x="600" 
d="M423 742l-42 -172h-70l19 172h93zM90 716h127v-617h356v-99h-483v716z" />
    <glyph glyph-name="lcaron" unicode="&#x13e;" horiz-adv-x="266" 
d="M358 782l-42 -172h-70l19 172h93zM73 782h119v-782h-119v782z" />
    <glyph glyph-name="Ldot" unicode="&#x13f;" horiz-adv-x="604" 
d="M392 464h115v-123h-115v123zM90 716h127v-617h356v-99h-483v716z" />
    <glyph glyph-name="ldot" unicode="&#x140;" horiz-adv-x="413" 
d="M278 450h110v-115h-110v115zM73 782h119v-782h-119v782z" />
    <glyph glyph-name="Lslash" unicode="&#x141;" horiz-adv-x="600" 
d="M10 304l80 39v373h127v-310l210 104v-101l-210 -105v-205h356v-99h-483v241l-80 -39v102z" />
    <glyph glyph-name="lslash" unicode="&#x142;" horiz-adv-x="309" 
d="M22 323l72 56v403h119v-311l74 58v-98l-74 -58v-373h-119v281l-72 -56v98z" />
    <glyph glyph-name="Nacute" unicode="&#x143;" horiz-adv-x="729" 
d="M319 779l62 128h135l-105 -128h-92zM90 716h124l311 -514h3v514h111v-716h-109l-326 533h-3v-533h-111v716z" />
    <glyph glyph-name="nacute" unicode="&#x144;" horiz-adv-x="583" 
d="M250 590l53 145h115l-86 -145h-82zM73 525h105l10 -128h2q13 37 32.5 63.5t43.5 43t51 24t54 7.5q41 0 68 -12t43.5 -32.5t23 -48t6.5 -59.5v-383h-119v356q0 51 -16.5 72t-55.5 21q-28 0 -51.5 -13.5t-41 -37t-27 -56t-9.5 -71.5v-271h-119v525z" />
    <glyph glyph-name="uni0145" unicode="&#x145;" horiz-adv-x="729" 
d="M373 -154v11h-65v81h112v-114l-111 -63v49zM90 716h124l311 -514h3v514h111v-716h-109l-326 533h-3v-533h-111v716z" />
    <glyph glyph-name="uni0146" unicode="&#x146;" horiz-adv-x="583" 
d="M307 -154v11h-65v81h112v-114l-111 -63v49zM73 525h105l10 -128h2q13 37 32.5 63.5t43.5 43t51 24t54 7.5q41 0 68 -12t43.5 -32.5t23 -48t6.5 -59.5v-383h-119v356q0 51 -16.5 72t-55.5 21q-28 0 -51.5 -13.5t-41 -37t-27 -56t-9.5 -71.5v-271h-119v525z" />
    <glyph glyph-name="Ncaron" unicode="&#x147;" horiz-adv-x="729" 
d="M323 778l-115 122h107l59 -61l60 61h102l-115 -122h-98zM90 716h124l311 -514h3v514h111v-716h-109l-326 533h-3v-533h-111v716z" />
    <glyph glyph-name="ncaron" unicode="&#x148;" horiz-adv-x="583" 
d="M160 725h92l49 -76l49 76h90l-93 -135h-94zM73 525h105l10 -128h2q13 37 32.5 63.5t43.5 43t51 24t54 7.5q41 0 68 -12t43.5 -32.5t23 -48t6.5 -59.5v-383h-119v356q0 51 -16.5 72t-55.5 21q-28 0 -51.5 -13.5t-41 -37t-27 -56t-9.5 -71.5v-271h-119v525z" />
    <glyph glyph-name="napostrophe" unicode="&#x149;" horiz-adv-x="661" 
d="M-9 433v77l70 62v10h-70v134h125v-174zM151 525h105l10 -128h2q13 37 32.5 63.5t43.5 43t51 24t54 7.5q41 0 68 -12t43.5 -32.5t23 -48t6.5 -59.5v-383h-119v356q0 51 -16.5 72t-55.5 21q-28 0 -51.5 -13.5t-41 -37t-27 -56t-9.5 -71.5v-271h-119v525z" />
    <glyph glyph-name="Eng" unicode="&#x14a;" horiz-adv-x="729" 
d="M415 -244v100h41q42 0 57 18.5t15 70.5v55l-324 533h-3v-533h-111v716h124l311 -514h3v514h111v-783q0 -47 -9 -80t-29 -55t-53 -32t-82 -10h-51z" />
    <glyph glyph-name="eng" unicode="&#x14b;" horiz-adv-x="583" 
d="M319 -150h25q31 0 40 12t9 48v109h119v-127q0 -69 -30.5 -102.5t-102.5 -33.5h-60v94zM73 525h105l10 -128h2q13 37 32.5 63.5t43.5 43t51 24t54 7.5q41 0 68 -12t43.5 -32.5t23 -48t6.5 -59.5v-383h-119v356q0 51 -16.5 72t-55.5 21q-28 0 -51.5 -13.5t-41 -37t-27 -56
t-9.5 -71.5v-271h-119v525z" />
    <glyph glyph-name="Omacron" unicode="&#x14c;" horiz-adv-x="769" 
d="M237 888h296v-88h-296v88zM385 -16q-84 0 -146 32t-102.5 84.5t-60 119.5t-19.5 138t19.5 138t60 119.5t102.5 84.5t146 32t146 -32t102 -84.5t59.5 -119.5t19.5 -138t-19.5 -138t-59.5 -119.5t-102 -84.5t-146 -32zM385 79q99 0 145.5 74t46.5 205q0 130 -46.5 204.5
t-145.5 74.5q-50 0 -86 -20.5t-60 -57t-35.5 -88t-11.5 -113.5q0 -63 11.5 -114t35.5 -88t60 -57t86 -20z" />
    <glyph glyph-name="omacron" unicode="&#x14d;" horiz-adv-x="580" 
d="M165 689h250v-82h-250v82zM532 263q0 -53 -14.5 -102.5t-44.5 -87.5t-75.5 -60.5t-107.5 -22.5t-107.5 22.5t-75.5 60.5t-44.5 87.5t-14.5 102.5t14.5 102.5t44.5 87t75.5 60t107.5 22.5t107.5 -22.5t75.5 -60t44.5 -87t14.5 -102.5zM174 263q0 -100 27.5 -148.5
t88.5 -48.5q60 0 88 48.5t28 148.5t-28 148t-88 48q-61 0 -88.5 -48t-27.5 -148z" />
    <glyph glyph-name="Obreve" unicode="&#x14e;" horiz-adv-x="769" 
d="M385 777q-57 0 -96 27.5t-57 84.5l51 27q17 -26 40.5 -38t61.5 -12t61.5 12t40.5 38l51 -27q-18 -57 -57 -84.5t-96 -27.5zM385 -16q-84 0 -146 32t-102.5 84.5t-60 119.5t-19.5 138t19.5 138t60 119.5t102.5 84.5t146 32t146 -32t102 -84.5t59.5 -119.5t19.5 -138
t-19.5 -138t-59.5 -119.5t-102 -84.5t-146 -32zM385 79q99 0 145.5 74t46.5 205q0 130 -46.5 204.5t-145.5 74.5q-50 0 -86 -20.5t-60 -57t-35.5 -88t-11.5 -113.5q0 -63 11.5 -114t35.5 -88t60 -57t86 -20z" />
    <glyph glyph-name="obreve" unicode="&#x14f;" horiz-adv-x="580" 
d="M532 263q0 -53 -14.5 -102.5t-44.5 -87.5t-75.5 -60.5t-107.5 -22.5t-107.5 22.5t-75.5 60.5t-44.5 87.5t-14.5 102.5t14.5 102.5t44.5 87t75.5 60t107.5 22.5t107.5 -22.5t75.5 -60t44.5 -87t14.5 -102.5zM174 263q0 -100 27.5 -148.5t88.5 -48.5q60 0 88 48.5t28 148.5
t-28 148t-88 48q-61 0 -88.5 -48t-27.5 -148zM290 592q-54 0 -89.5 29t-46.5 85l55 21q11 -26 29 -40t52 -14t52 14t29 40l55 -21q-11 -56 -46.5 -85t-89.5 -29z" />
    <glyph glyph-name="Ohungarumlaut" unicode="&#x150;" horiz-adv-x="769" 
d="M259 779l54 128h118l-91 -128h-81zM424 779l54 128h118l-91 -128h-81zM385 -16q-84 0 -146 32t-102.5 84.5t-60 119.5t-19.5 138t19.5 138t60 119.5t102.5 84.5t146 32t146 -32t102 -84.5t59.5 -119.5t19.5 -138t-19.5 -138t-59.5 -119.5t-102 -84.5t-146 -32zM385 79
q99 0 145.5 74t46.5 205q0 130 -46.5 204.5t-145.5 74.5q-50 0 -86 -20.5t-60 -57t-35.5 -88t-11.5 -113.5q0 -63 11.5 -114t35.5 -88t60 -57t86 -20z" />
    <glyph glyph-name="ohungarumlaut" unicode="&#x151;" horiz-adv-x="580" 
d="M176 590l48 145h99l-77 -145h-70zM326 590l47 145h99l-77 -145h-69zM532 263q0 -53 -14.5 -102.5t-44.5 -87.5t-75.5 -60.5t-107.5 -22.5t-107.5 22.5t-75.5 60.5t-44.5 87.5t-14.5 102.5t14.5 102.5t44.5 87t75.5 60t107.5 22.5t107.5 -22.5t75.5 -60t44.5 -87
t14.5 -102.5zM174 263q0 -100 27.5 -148.5t88.5 -48.5q60 0 88 48.5t28 148.5t-28 148t-88 48q-61 0 -88.5 -48t-27.5 -148z" />
    <glyph glyph-name="OE" unicode="&#x152;" horiz-adv-x="977" 
d="M401 0q-84 0 -148.5 28.5t-108 77.5t-65.5 114t-22 138t21.5 138t64 114t107 77.5t151.5 28.5h503v-91h-300v-219h228v-93h-228v-221h334v-92h-537zM477 93v531h-72q-103 0 -158 -67.5t-55 -198.5t55 -198t158 -67h72z" />
    <glyph glyph-name="oe" unicode="&#x153;" horiz-adv-x="923" 
d="M290 66q118 0 118 197q0 196 -118 196q-61 0 -88.5 -48t-27.5 -148t27.5 -148.5t88.5 -48.5zM648 459q-54 0 -82 -37.5t-34 -109.5h225q-3 75 -27.5 111t-81.5 36zM877 163q-9 -35 -26 -66.5t-43 -55t-63.5 -37.5t-86.5 -14q-70 0 -116.5 26.5t-72.5 73.5
q-24 -45 -67 -72.5t-112 -27.5q-62 0 -107.5 22.5t-75.5 60.5t-44.5 87.5t-14.5 102.5t14.5 102.5t44.5 87t75.5 60t107.5 22.5q69 0 113 -29.5t68 -76.5q26 47 70.5 76.5t109.5 29.5q57 0 100.5 -21t72 -58.5t43 -90t14.5 -115.5h-351q1 -42 9 -75.5t24 -57.5t41.5 -37
t61.5 -13q30 0 51.5 10.5t36 28t24 40.5t15.5 49z" />
    <glyph glyph-name="Racute" unicode="&#x154;" horiz-adv-x="691" 
d="M292 779l62 128h135l-105 -128h-92zM376 394q67 0 92 30t25 85q0 57 -25 86t-92 29h-160v-230h160zM90 0v716h289q70 0 117 -15.5t76 -43t41.5 -65t12.5 -81.5q0 -72 -36.5 -117.5t-114.5 -62.5l1 -6q13 -4 26.5 -21t26 -40t22.5 -48t16 -44q12 -39 20 -63t15.5 -40
t14.5 -27t18 -24v-18h-148q-10 20 -18 45.5t-16 57.5q-9 38 -19 76t-19 68q-10 32 -25.5 44.5t-51.5 12.5h-122v-304h-126z" />
    <glyph glyph-name="racute" unicode="&#x155;" horiz-adv-x="385" 
d="M174 590l53 145h115l-86 -145h-82zM73 525h106l10 -142h2q20 78 53.5 115t76.5 37q14 0 23.5 -3t15.5 -7v-112q-20 6 -39 6q-27 0 -50.5 -11.5t-41 -34t-27.5 -55.5t-10 -76v-242h-119v525z" />
    <glyph glyph-name="uni0156" unicode="&#x156;" horiz-adv-x="691" 
d="M362 -154v11h-65v81h112v-114l-111 -63v49zM376 394q67 0 92 30t25 85q0 57 -25 86t-92 29h-160v-230h160zM90 0v716h289q70 0 117 -15.5t76 -43t41.5 -65t12.5 -81.5q0 -72 -36.5 -117.5t-114.5 -62.5l1 -6q13 -4 26.5 -21t26 -40t22.5 -48t16 -44q12 -39 20 -63
t15.5 -40t14.5 -27t18 -24v-18h-148q-10 20 -18 45.5t-16 57.5q-9 38 -19 76t-19 68q-10 32 -25.5 44.5t-51.5 12.5h-122v-304h-126z" />
    <glyph glyph-name="uni0157" unicode="&#x157;" horiz-adv-x="385" 
d="M144 -154v11h-65v81h112v-114l-111 -63v49zM73 525h106l10 -142h2q20 78 53.5 115t76.5 37q14 0 23.5 -3t15.5 -7v-112q-20 6 -39 6q-27 0 -50.5 -11.5t-41 -34t-27.5 -55.5t-10 -76v-242h-119v525z" />
    <glyph glyph-name="Rcaron" unicode="&#x158;" horiz-adv-x="691" 
d="M296 778l-115 122h107l59 -61l60 61h102l-115 -122h-98zM376 394q67 0 92 30t25 85q0 57 -25 86t-92 29h-160v-230h160zM90 0v716h289q70 0 117 -15.5t76 -43t41.5 -65t12.5 -81.5q0 -72 -36.5 -117.5t-114.5 -62.5l1 -6q13 -4 26.5 -21t26 -40t22.5 -48t16 -44
q12 -39 20 -63t15.5 -40t14.5 -27t18 -24v-18h-148q-10 20 -18 45.5t-16 57.5q-9 38 -19 76t-19 68q-10 32 -25.5 44.5t-51.5 12.5h-122v-304h-126z" />
    <glyph glyph-name="rcaron" unicode="&#x159;" horiz-adv-x="385" 
d="M84 725h92l49 -76l49 76h90l-93 -135h-94zM73 525h106l10 -142h2q20 78 53.5 115t76.5 37q14 0 23.5 -3t15.5 -7v-112q-20 6 -39 6q-27 0 -50.5 -11.5t-41 -34t-27.5 -55.5t-10 -76v-242h-119v525z" />
    <glyph glyph-name="Sacute" unicode="&#x15a;" horiz-adv-x="639" 
d="M326 -16q-61 0 -109 18.5t-83 52t-56 81t-27 104.5l97 16q7 -91 54 -137.5t122 -46.5q64 0 103 23t39 74q0 28 -8.5 46.5t-29 33t-53.5 27.5t-81 31q-52 19 -93.5 38t-70.5 44t-44.5 58t-15.5 80q0 44 16 81.5t46.5 65t76 43t105.5 15.5q109 0 174 -59.5t74 -163.5
l-96 -20q-5 73 -42.5 115t-109.5 42q-35 0 -59 -7.5t-39 -20.5t-21.5 -30.5t-6.5 -36.5q0 -26 10 -43.5t30 -30.5t49 -23.5t67 -23.5q54 -18 99 -37t77.5 -43.5t50 -59t17.5 -84.5q0 -103 -67 -162.5t-195 -59.5zM261 779l62 128h135l-105 -128h-92z" />
    <glyph glyph-name="sacute" unicode="&#x15b;" horiz-adv-x="488" 
d="M197 590l53 145h115l-86 -145h-82zM248 -10q-95 0 -144.5 44t-57.5 113l84 26q5 -61 35.5 -87t78.5 -26q38 0 63.5 16t25.5 49q0 17 -5.5 28.5t-19 20.5t-37 18.5t-60.5 22.5q-31 11 -58.5 24t-48.5 32t-33 46t-12 66q0 34 12.5 62t36 48t56 31t72.5 11q46 0 78.5 -12
t54 -33t33 -50t15.5 -63l-88 -17q-6 58 -28.5 81t-63.5 23q-36 0 -56.5 -16.5t-20.5 -46.5q0 -18 6 -29t19 -20t34.5 -18t51.5 -21q34 -14 64.5 -26t54 -29.5t37.5 -44t14 -67.5q0 -74 -51 -115t-142 -41z" />
    <glyph glyph-name="Scircumflex" unicode="&#x15c;" horiz-adv-x="639" 
d="M306 840l-60 -61h-102l115 122h98l115 -122h-107zM326 -16q-61 0 -109 18.5t-83 52t-56 81t-27 104.5l97 16q7 -91 54 -137.5t122 -46.5q64 0 103 23t39 74q0 28 -8.5 46.5t-29 33t-53.5 27.5t-81 31q-52 19 -93.5 38t-70.5 44t-44.5 58t-15.5 80q0 44 16 81.5t46.5 65
t76 43t105.5 15.5q109 0 174 -59.5t74 -163.5l-96 -20q-5 73 -42.5 115t-109.5 42q-35 0 -59 -7.5t-39 -20.5t-21.5 -30.5t-6.5 -36.5q0 -26 10 -43.5t30 -30.5t49 -23.5t67 -23.5q54 -18 99 -37t77.5 -43.5t50 -59t17.5 -84.5q0 -103 -67 -162.5t-195 -59.5z" />
    <glyph glyph-name="scircumflex" unicode="&#x15d;" horiz-adv-x="488" 
d="M243 666l-49 -76h-90l93 135h94l93 -135h-92zM248 -10q-95 0 -144.5 44t-57.5 113l84 26q5 -61 35.5 -87t78.5 -26q38 0 63.5 16t25.5 49q0 17 -5.5 28.5t-19 20.5t-37 18.5t-60.5 22.5q-31 11 -58.5 24t-48.5 32t-33 46t-12 66q0 34 12.5 62t36 48t56 31t72.5 11
q46 0 78.5 -12t54 -33t33 -50t15.5 -63l-88 -17q-6 58 -28.5 81t-63.5 23q-36 0 -56.5 -16.5t-20.5 -46.5q0 -18 6 -29t19 -20t34.5 -18t51.5 -21q34 -14 64.5 -26t54 -29.5t37.5 -44t14 -67.5q0 -74 -51 -115t-142 -41z" />
    <glyph glyph-name="uni015E" unicode="&#x15e;" horiz-adv-x="639" 
d="M324 -242q-41 0 -71 13.5t-47 28.5l28 47q15 -14 36 -24t44 -10q20 0 32 10.5t12 30.5q0 18 -10 26.5t-25 8.5q-14 0 -24 -7t-15 -17l-53 18l41 105q-29 5 -55 14q-48 19 -83 52.5t-56 81t-27 104.5l97 16q7 -91 54 -137.5t122 -46.5q64 0 103 23t39 74q0 28 -8.5 46.5
t-29 33t-53.5 27.5t-81 31q-52 19 -93.5 38t-70.5 44t-44.5 58t-15.5 80q0 44 16 81.5t46.5 65t76 43t105.5 15.5q109 0 174 -59.5t74 -163.5l-96 -20q-5 73 -42.5 115t-109.5 42q-35 0 -59 -7.5t-39 -20.5t-21.5 -30.5t-6.5 -36.5q0 -26 10 -43.5t30 -30.5t49 -23.5
t67 -23.5q54 -18 99 -37t77.5 -43.5t50 -59t17.5 -84.5q0 -103 -67 -163q-65 -57 -188 -59l-18 -48q16 6 36 6q38 0 65 -23t27 -63q0 -24 -10 -42.5t-27 -30.5t-38.5 -18.5t-43.5 -6.5z" />
    <glyph glyph-name="uni015F" unicode="&#x15f;" horiz-adv-x="488" 
d="M251 -242q-41 0 -71 13.5t-47 28.5l28 47q15 -14 36 -24t44 -10q20 0 32 10.5t12 30.5q0 18 -10 26.5t-25 8.5q-14 0 -24 -7t-15 -17l-53 18l43 110q-61 8 -98 41q-49 44 -57 113l84 26q5 -61 35.5 -87t78.5 -26q38 0 63.5 16t25.5 49q0 17 -5.5 28.5t-19 20.5t-37 18.5
t-60.5 22.5q-31 11 -58.5 24t-48.5 32t-33 46t-12 66q0 34 12.5 62t36 48t56 31t72.5 11q46 0 78.5 -12t54 -33t33 -50t15.5 -63l-88 -17q-6 58 -28.5 81t-63.5 23q-36 0 -56.5 -16.5t-20.5 -46.5q0 -18 6 -29t19 -20t34.5 -18t51.5 -21q34 -14 64.5 -26t54 -29.5t37.5 -44
t14 -67.5q0 -74 -51 -115q-47 -37 -127 -41l-21 -54q16 6 36 6q38 0 65 -23t27 -63q0 -24 -10 -42.5t-27 -30.5t-38.5 -18.5t-43.5 -6.5z" />
    <glyph glyph-name="Scaron" unicode="&#x160;" horiz-adv-x="639" 
d="M261 778l-115 122h107l59 -61l60 61h102l-115 -122h-98zM326 -16q-61 0 -109 18.5t-83 52t-56 81t-27 104.5l97 16q7 -91 54 -137.5t122 -46.5q64 0 103 23t39 74q0 28 -8.5 46.5t-29 33t-53.5 27.5t-81 31q-52 19 -93.5 38t-70.5 44t-44.5 58t-15.5 80q0 44 16 81.5
t46.5 65t76 43t105.5 15.5q109 0 174 -59.5t74 -163.5l-96 -20q-5 73 -42.5 115t-109.5 42q-35 0 -59 -7.5t-39 -20.5t-21.5 -30.5t-6.5 -36.5q0 -26 10 -43.5t30 -30.5t49 -23.5t67 -23.5q54 -18 99 -37t77.5 -43.5t50 -59t17.5 -84.5q0 -103 -67 -162.5t-195 -59.5z" />
    <glyph glyph-name="scaron" unicode="&#x161;" horiz-adv-x="488" 
d="M107 725h92l49 -76l49 76h90l-93 -135h-94zM248 -10q-95 0 -144.5 44t-57.5 113l84 26q5 -61 35.5 -87t78.5 -26q38 0 63.5 16t25.5 49q0 17 -5.5 28.5t-19 20.5t-37 18.5t-60.5 22.5q-31 11 -58.5 24t-48.5 32t-33 46t-12 66q0 34 12.5 62t36 48t56 31t72.5 11
q46 0 78.5 -12t54 -33t33 -50t15.5 -63l-88 -17q-6 58 -28.5 81t-63.5 23q-36 0 -56.5 -16.5t-20.5 -46.5q0 -18 6 -29t19 -20t34.5 -18t51.5 -21q34 -14 64.5 -26t54 -29.5t37.5 -44t14 -67.5q0 -74 -51 -115t-142 -41z" />
    <glyph glyph-name="Tcommaaccent" unicode="&#x162;" horiz-adv-x="593" 
d="M305 -154v11h-65v81h112v-114l-111 -63v49zM232 622h-218v94h565v-94h-218v-622h-129v622z" />
    <glyph glyph-name="tcommaaccent" unicode="&#x163;" horiz-adv-x="405" 
d="M246 -154v11h-65v81h112v-114l-111 -63v49zM284 0q-31 0 -57 2.5t-43 9.5q-22 8 -35.5 18.5t-21 27.5t-10.5 42t-3 62v280h-97v83h97v200h119v-200h126v-83h-126v-274q0 -35 4.5 -53.5t24.5 -26.5q18 -7 50 -7h58v-81h-86v0z" />
    <glyph glyph-name="Tcaron" unicode="&#x164;" horiz-adv-x="593" 
d="M255 778l-115 122h107l59 -61l60 61h102l-115 -122h-98zM232 622h-218v94h565v-94h-218v-622h-129v622z" />
    <glyph glyph-name="tcaron" unicode="&#x165;" horiz-adv-x="405" 
d="M410 782l-42 -172h-70l19 172h93zM284 0q-31 0 -57 2.5t-43 9.5q-22 8 -35.5 18.5t-21 27.5t-10.5 42t-3 62v280h-97v83h97v200h119v-200h126v-83h-126v-274q0 -35 4.5 -53.5t24.5 -26.5q18 -7 50 -7h58v-81h-86v0z" />
    <glyph glyph-name="Tbar" unicode="&#x166;" horiz-adv-x="593" 
d="M89 406h415v-86h-415v86zM232 622h-218v94h565v-94h-218v-622h-129v622z" />
    <glyph glyph-name="tbar" unicode="&#x167;" horiz-adv-x="405" 
d="M18 336h340v-75h-340v75zM284 0q-31 0 -57 2.5t-43 9.5q-22 8 -35.5 18.5t-21 27.5t-10.5 42t-3 62v280h-97v83h97v200h119v-200h126v-83h-126v-274q0 -35 4.5 -53.5t24.5 -26.5q18 -7 50 -7h58v-81h-86v0z" />
    <glyph glyph-name="Utilde" unicode="&#x168;" horiz-adv-x="699" 
d="M348 -15q-133 0 -201.5 64t-68.5 179v488h127v-472q0 -78 34 -120t118 -42t119 42t35 120v472h110v-486q0 -113 -68.5 -179t-204.5 -66zM185 786q-4 51 20 85.5t69 34.5q21 0 40.5 -6.5t37.5 -14t34.5 -14t30.5 -6.5q20 0 29 12.5t11 32.5l51 -10q2 -51 -21 -85.5
t-69 -34.5q-21 0 -40.5 6.5t-37.5 14t-34 14t-30 6.5q-20 0 -29 -12t-12 -32z" />
    <glyph glyph-name="utilde" unicode="&#x169;" horiz-adv-x="579" 
d="M218 -10q-41 0 -69.5 12t-46 32.5t-25.5 48t-8 59.5v383h119v-356q0 -51 20 -72t59 -21q26 0 48 14t38 39t25 60.5t9 78.5v257h119v-525h-98l-17 123h-3q-24 -68 -67 -100.5t-103 -32.5zM229 636q-17 0 -25 -11.5t-10 -28.5l-46 13q-3 46 19 77.5t64 31.5q16 0 31.5 -6
t29.5 -13t27.5 -13t26.5 -6q16 0 24 11.5t10 29.5l46 -14q3 -47 -18.5 -78t-64.5 -31q-16 0 -31.5 6t-29.5 13t-27.5 13t-25.5 6z" />
    <glyph glyph-name="Umacron" unicode="&#x16a;" horiz-adv-x="699" 
d="M348 -15q-133 0 -201.5 64t-68.5 179v488h127v-472q0 -78 34 -120t118 -42t119 42t35 120v472h110v-486q0 -113 -68.5 -179t-204.5 -66zM201 888h296v-88h-296v88z" />
    <glyph glyph-name="umacron" unicode="&#x16b;" horiz-adv-x="579" 
d="M218 -10q-41 0 -69.5 12t-46 32.5t-25.5 48t-8 59.5v383h119v-356q0 -51 20 -72t59 -21q26 0 48 14t38 39t25 60.5t9 78.5v257h119v-525h-98l-17 123h-3q-24 -68 -67 -100.5t-103 -32.5zM162 689h250v-82h-250v82z" />
    <glyph glyph-name="Ubreve" unicode="&#x16c;" horiz-adv-x="699" 
d="M348 -15q-133 0 -201.5 64t-68.5 179v488h127v-472q0 -78 34 -120t118 -42t119 42t35 120v472h110v-486q0 -113 -68.5 -179t-204.5 -66zM349 777q-57 0 -96 27.5t-57 84.5l51 27q17 -26 40.5 -38t61.5 -12t61.5 12t40.5 38l51 -27q-18 -57 -57 -84.5t-96 -27.5z" />
    <glyph glyph-name="ubreve" unicode="&#x16d;" horiz-adv-x="579" 
d="M218 -10q-41 0 -69.5 12t-46 32.5t-25.5 48t-8 59.5v383h119v-356q0 -51 20 -72t59 -21q26 0 48 14t38 39t25 60.5t9 78.5v257h119v-525h-98l-17 123h-3q-24 -68 -67 -100.5t-103 -32.5zM287 592q-54 0 -89.5 29t-46.5 85l55 21q11 -26 29 -40t52 -14t52 14t29 40l55 -21
q-11 -56 -46.5 -85t-89.5 -29z" />
    <glyph glyph-name="Uring" unicode="&#x16e;" horiz-adv-x="699" 
d="M348 -15q-133 0 -201.5 64t-68.5 179v488h127v-472q0 -78 34 -120t118 -42t119 42t35 120v472h110v-486q0 -113 -68.5 -179t-204.5 -66zM453 853q0 -45 -29 -72t-76 -27q-46 0 -75 27t-29 72q0 44 29 72t75 28q47 0 76 -28t29 -72zM304 853q0 -23 12.5 -34.5t31.5 -11.5
t32 11.5t13 34.5t-13 35t-32 12t-31.5 -12t-12.5 -35z" />
    <glyph glyph-name="uring" unicode="&#x16f;" horiz-adv-x="579" 
d="M391 679q0 -44 -28.5 -70.5t-75.5 -26.5q-46 0 -75 26.5t-29 70.5q0 45 29 72.5t75 27.5q47 0 75.5 -27.5t28.5 -72.5zM243 680q0 -23 12.5 -34.5t31.5 -11.5t31.5 11.5t12.5 34.5t-12.5 34.5t-31.5 11.5t-31.5 -11.5t-12.5 -34.5zM218 -10q-41 0 -69.5 12t-46 32.5
t-25.5 48t-8 59.5v383h119v-356q0 -51 20 -72t59 -21q26 0 48 14t38 39t25 60.5t9 78.5v257h119v-525h-98l-17 123h-3q-24 -68 -67 -100.5t-103 -32.5z" />
    <glyph glyph-name="Uhungarumlaut" unicode="&#x170;" horiz-adv-x="699" 
d="M223 779l54 128h118l-91 -128h-81zM388 779l54 128h118l-91 -128h-81zM348 -15q-133 0 -201.5 64t-68.5 179v488h127v-472q0 -78 34 -120t118 -42t119 42t35 120v472h110v-486q0 -113 -68.5 -179t-204.5 -66z" />
    <glyph glyph-name="uhungarumlaut" unicode="&#x171;" horiz-adv-x="579" 
d="M218 -10q-41 0 -69.5 12t-46 32.5t-25.5 48t-8 59.5v383h119v-356q0 -51 20 -72t59 -21q26 0 48 14t38 39t25 60.5t9 78.5v257h119v-525h-98l-17 123h-3q-24 -68 -67 -100.5t-103 -32.5zM173 590l48 145h99l-77 -145h-70zM323 590l47 145h99l-77 -145h-69z" />
    <glyph glyph-name="Uogonek" unicode="&#x172;" horiz-adv-x="699" 
d="M348 -15q-133 0 -201.5 64t-68.5 179v488h127v-472q0 -78 34 -120t118 -42t119 42t35 120v472h110v-486q0 -113 -69 -179q-37 -37 -96 -52q-44 -35 -61 -66q-18 -32 -18 -55t11.5 -32.5t28.5 -9.5q8 0 14.5 2t12.5 4l13 -55q-17 -11 -34.5 -15t-36.5 -4q-44 0 -73.5 21
t-29.5 64q0 44 33 81q25 28 60 52q-14 -1 -28 -1z" />
    <glyph glyph-name="uogonek" unicode="&#x173;" horiz-adv-x="579" 
d="M218 -10q-41 0 -69.5 12t-46 32.5t-25.5 48t-8 59.5v383h119v-356q0 -51 20 -72t59 -21q26 0 48 14t38 39t25 60.5t9 78.5v257h119v-525q-46 -35 -64 -67t-18 -55t11.5 -32.5t28.5 -9.5q8 0 14.5 2t12.5 4l13 -55q-17 -11 -34.5 -15t-36.5 -4q-44 0 -73.5 21t-29.5 64
q0 44 33 81t84 66h-39l-17 123h-3q-24 -68 -67 -100.5t-103 -32.5z" />
    <glyph glyph-name="Wcircumflex" unicode="&#x174;" horiz-adv-x="978" 
d="M489 840l-60 -61h-102l115 122h98l115 -122h-107zM33 716h128l131 -543h7l147 543h101l143 -543h7l135 543h114l-190 -720h-118l-143 524h-5l-148 -524h-120z" />
    <glyph glyph-name="wcircumflex" unicode="&#x175;" horiz-adv-x="830" 
d="M415 666l-49 -76h-90l93 135h94l93 -135h-92zM23 525h120l104 -379h3l118 379h107l106 -378h6l114 378h107l-164 -529h-114l-112 404h-5l-123 -404h-111z" />
    <glyph glyph-name="Ycircumflex" unicode="&#x176;" horiz-adv-x="615" 
d="M242 0v306l-222 410h136l159 -304h6l160 304h114l-226 -410v-306h-127zM307 840l-60 -61h-102l115 122h98l115 -122h-107z" />
    <glyph glyph-name="ycircumflex" unicode="&#x177;" horiz-adv-x="504" 
d="M34 -143q56 0 88 11q22 8 35 25.5t24 49.5l19 55l-185 527h128l114 -379h3l124 379h105l-209 -592q-10 -29 -20 -52t-22.5 -41t-30 -31t-42.5 -22q-24 -9 -58.5 -11.5t-72.5 -2.5v84zM254 666l-49 -76h-90l93 135h94l93 -135h-92z" />
    <glyph glyph-name="Ydieresis" unicode="&#x178;" horiz-adv-x="615" 
d="M242 0v306l-222 410h136l159 -304h6l160 304h114l-226 -410v-306h-127zM155 901h112v-108h-112v108zM349 901h112v-108h-112v108z" />
    <glyph glyph-name="Zacute" unicode="&#x179;" horiz-adv-x="609" 
d="M258 779l62 128h135l-105 -128h-92zM35 0v85l386 540h-359v91h510v-85l-385 -539h385v-92h-537z" />
    <glyph glyph-name="zacute" unicode="&#x17a;" horiz-adv-x="481" 
d="M192 590l53 145h115l-86 -145h-82zM32 77l277 365h-262v83h394v-74l-277 -365h286v-86h-418v77z" />
    <glyph glyph-name="Zdotaccent" unicode="&#x17b;" horiz-adv-x="609" 
d="M35 0v85l386 540h-359v91h510v-85l-385 -539h385v-92h-537zM242 905h123v-112h-123v112z" />
    <glyph glyph-name="zdotaccent" unicode="&#x17c;" horiz-adv-x="481" 
d="M32 77l277 365h-262v83h394v-74l-277 -365h286v-86h-418v77zM180 716h115v-111h-115v111z" />
    <glyph glyph-name="Zcaron" unicode="&#x17d;" horiz-adv-x="609" 
d="M262 778l-115 122h107l59 -61l60 61h102l-115 -122h-98zM35 0v85l386 540h-359v91h510v-85l-385 -539h385v-92h-537z" />
    <glyph glyph-name="zcaron" unicode="&#x17e;" horiz-adv-x="481" 
d="M102 725h92l49 -76l49 76h90l-93 -135h-94zM32 77l277 365h-262v83h394v-74l-277 -365h286v-86h-418v77z" />
    <glyph glyph-name="uni0192" unicode="&#x192;" horiz-adv-x="513" 
d="M159 -79q-35 -13 -76 -14t-83 2l14 86q33 0 55 0.5t39 11.5q20 11 31.5 36.5t20.5 80.5l31 191h-93v84h106l25 155q12 76 43 112.5t77 50.5q35 13 75.5 14t82.5 -2l-14 -85q-33 0 -54.5 -1t-39.5 -12q-20 -11 -31 -36.5t-20 -80.5l-18 -115h114v-84h-128l-37 -230
q-12 -76 -43 -113t-77 -51z" />
    <glyph glyph-name="Aringacute" unicode="&#x1fa;" horiz-adv-x="665" 
d="M225 245h205l-98 304h-7zM461 150h-267l-49 -150h-120l252 720h116l247 -720h-131zM290 964l62 128h135l-105 -128h-92zM442 841q0 -45 -29 -72t-76 -27q-46 0 -75 27t-29 72q0 44 29 72t75 28q47 0 76 -28t29 -72zM293 841q0 -23 12.5 -34.5t31.5 -11.5t32 11.5t13 34.5
t-13 35t-32 12t-31.5 -12t-12.5 -35z" />
    <glyph glyph-name="aringacute" unicode="&#x1fb;" horiz-adv-x="563" 
d="M199 -10q-69 0 -108 37.5t-39 98.5q0 36 13 61t34 42.5t47 29.5t52 22q38 15 78.5 29t67.5 25v37q0 88 -78 88q-46 0 -68.5 -26.5t-31.5 -80.5l-96 13q11 89 65.5 129t136.5 40q94 0 142.5 -39.5t48.5 -122.5v-249q0 -21 6.5 -33.5t18.5 -19.5q10 -7 24 -9t31 -2v-57
q-11 -6 -31.5 -9.5t-37.5 -3.5q-107 0 -116 98h-8q-19 -44 -55 -71t-96 -27zM241 64q48 0 75.5 30.5t27.5 77.5v96q-20 -8 -43 -16.5t-57 -23.5q-15 -6 -28.5 -13.5t-24 -18t-17 -24.5t-6.5 -35q0 -32 17.5 -52.5t55.5 -20.5zM232 805l53 145h115l-86 -145h-82zM378 666
q0 -44 -28.5 -70.5t-75.5 -26.5q-46 0 -75 26.5t-29 70.5q0 45 29 72.5t75 27.5q47 0 75.5 -27.5t28.5 -72.5zM230 667q0 -23 12.5 -34.5t31.5 -11.5t31.5 11.5t12.5 34.5t-12.5 34.5t-31.5 11.5t-31.5 -11.5t-12.5 -34.5z" />
    <glyph glyph-name="AEacute" unicode="&#x1fc;" horiz-adv-x="966" 
d="M517 779l62 128h135l-105 -128h-92zM263 245h203v365h-2zM466 150h-255l-83 -150h-125l402 716h488v-92h-301v-218h229v-93h-229v-221h335v-92h-461v150z" />
    <glyph glyph-name="aeacute" unicode="&#x1fd;" horiz-adv-x="861" 
d="M389 590l53 145h115l-86 -145h-82zM586 459q-54 0 -81 -37.5t-33 -109.5h223q-3 75 -27.5 111t-81.5 36zM240 64q49 0 76.5 30.5t27.5 77.5v96q-20 -8 -43 -16.5t-57 -23.5q-15 -6 -28.5 -13.5t-24 -17.5t-17 -24.5t-6.5 -34.5q0 -33 17.5 -53.5t54.5 -20.5zM815 163
q-9 -35 -26 -66.5t-43 -55t-63.5 -37.5t-86.5 -14q-81 0 -136.5 34.5t-84.5 96.5h-7q-17 -64 -62.5 -97.5t-104.5 -33.5q-71 0 -110 38t-39 102q0 35 13 59t34 41t47 29t52 22q38 15 78.5 29t67.5 25v37q0 88 -78 88q-46 0 -68.5 -26.5t-31.5 -80.5l-96 13q11 89 64 129
t135 40q116 0 153 -69q29 32 70.5 50.5t93.5 18.5q58 0 102 -21t73 -58.5t43.5 -90t14.5 -115.5h-349q1 -42 8.5 -75.5t23 -57.5t41 -37t61.5 -13q30 0 51.5 10.5t36 28t24 40.5t15.5 49z" />
    <glyph glyph-name="Oslashacute" unicode="&#x1fe;" horiz-adv-x="773" 
d="M188 358q0 -48 5.5 -88.5t17.5 -73.5l310 397q-48 50 -135 50q-49 0 -86 -21t-62 -59t-37.5 -90.5t-12.5 -114.5zM386 74q49 0 86.5 20t62.5 57t37.5 89.5t12.5 117.5q0 50 -5.5 91t-17.5 73l-309 -396q47 -52 133 -52zM387 -16q-60 0 -108.5 17t-86.5 47l-72 -92l-58 49
l76 97q-42 54 -62 120.5t-20 135.5q0 71 20 138t61 119.5t103.5 84.5t146.5 32q60 0 108 -17t86 -46l68 88l58 -49l-73 -93q42 -54 62 -121t20 -136q0 -71 -20 -138t-60.5 -119.5t-102.5 -84.5t-146 -32zM341 779l62 128h135l-105 -128h-92z" />
    <glyph glyph-name="oslashacute" unicode="&#x1ff;" horiz-adv-x="580" 
d="M167 263q0 -26 2 -49t6 -43l202 251q-30 41 -87 41q-65 0 -94 -50t-29 -150zM290 62q64 0 93.5 50.5t29.5 150.5q0 54 -9 93l-203 -251q31 -43 89 -43zM290 -10q-45 0 -81 12t-64 34l-59 -73l-46 41l62 76q-28 38 -41 85t-13 98q0 53 14.5 102.5t44.5 87t75.5 60
t107.5 22.5q45 0 80 -11.5t63 -32.5l55 68l47 -42l-57 -71q27 -37 40.5 -84.5t13.5 -98.5q0 -53 -14.5 -102.5t-44.5 -87.5t-75.5 -60.5t-107.5 -22.5zM244 590l53 145h115l-86 -145h-82z" />
    <glyph glyph-name="uni0218" unicode="&#x218;" horiz-adv-x="639" 
d="M329 -154v11h-65v81h112v-114l-111 -63v49zM326 -16q-61 0 -109 18.5t-83 52t-56 81t-27 104.5l97 16q7 -91 54 -137.5t122 -46.5q64 0 103 23t39 74q0 28 -8.5 46.5t-29 33t-53.5 27.5t-81 31q-52 19 -93.5 38t-70.5 44t-44.5 58t-15.5 80q0 44 16 81.5t46.5 65t76 43
t105.5 15.5q109 0 174 -59.5t74 -163.5l-96 -20q-5 73 -42.5 115t-109.5 42q-35 0 -59 -7.5t-39 -20.5t-21.5 -30.5t-6.5 -36.5q0 -26 10 -43.5t30 -30.5t49 -23.5t67 -23.5q54 -18 99 -37t77.5 -43.5t50 -59t17.5 -84.5q0 -103 -67 -162.5t-195 -59.5z" />
    <glyph glyph-name="uni0219" unicode="&#x219;" horiz-adv-x="488" 
d="M247 -154v11h-65v81h112v-114l-111 -63v49zM248 -10q-95 0 -144.5 44t-57.5 113l84 26q5 -61 35.5 -87t78.5 -26q38 0 63.5 16t25.5 49q0 17 -5.5 28.5t-19 20.5t-37 18.5t-60.5 22.5q-31 11 -58.5 24t-48.5 32t-33 46t-12 66q0 34 12.5 62t36 48t56 31t72.5 11
q46 0 78.5 -12t54 -33t33 -50t15.5 -63l-88 -17q-6 58 -28.5 81t-63.5 23q-36 0 -56.5 -16.5t-20.5 -46.5q0 -18 6 -29t19 -20t34.5 -18t51.5 -21q34 -14 64.5 -26t54 -29.5t37.5 -44t14 -67.5q0 -74 -51 -115t-142 -41z" />
    <glyph glyph-name="uni021A" unicode="&#x21a;" horiz-adv-x="593" 
d="M305 -154v11h-65v81h112v-114l-111 -63v49zM232 622h-218v94h565v-94h-218v-622h-129v622z" />
    <glyph glyph-name="uni021B" unicode="&#x21b;" horiz-adv-x="405" 
d="M246 -154v11h-65v81h112v-114l-111 -63v49zM284 0q-31 0 -57 2.5t-43 9.5q-22 8 -35.5 18.5t-21 27.5t-10.5 42t-3 62v280h-97v83h97v200h119v-200h126v-83h-126v-274q0 -35 4.5 -53.5t24.5 -26.5q18 -7 50 -7h58v-81h-86v0z" />
    <glyph glyph-name="uni0237" unicode="&#x237;" horiz-adv-x="266" 
d="M-60 -141q33 0 53 1t37 7q22 8 32.5 28t10.5 67v563h119v-584q0 -74 -32 -110.5t-91 -49.5q-30 -7 -63 -7.5t-66 -0.5v86z" />
    <glyph glyph-name="circumflex" unicode="&#x2c6;" horiz-adv-x="412" 
d="M205 666l-49 -76h-90l93 135h94l93 -135h-92z" />
    <glyph glyph-name="caron" unicode="&#x2c7;" horiz-adv-x="410" 
d="M64 725h92l49 -76l49 76h90l-93 -135h-94z" />
    <glyph glyph-name="breve" unicode="&#x2d8;" horiz-adv-x="412" 
d="M206 592q-54 0 -89.5 29t-46.5 85l55 21q11 -26 29 -40t52 -14t52 14t29 40l55 -21q-11 -56 -46.5 -85t-89.5 -29z" />
    <glyph glyph-name="dotaccent" unicode="&#x2d9;" horiz-adv-x="412" 
d="M149 716h115v-111h-115v111z" />
    <glyph glyph-name="ring" unicode="&#x2da;" horiz-adv-x="412" 
d="M310 679q0 -44 -28.5 -70.5t-75.5 -26.5q-46 0 -75 26.5t-29 70.5q0 45 29 72.5t75 27.5q47 0 75.5 -27.5t28.5 -72.5zM162 680q0 -23 12.5 -34.5t31.5 -11.5t31.5 11.5t12.5 34.5t-12.5 34.5t-31.5 11.5t-31.5 -11.5t-12.5 -34.5z" />
    <glyph glyph-name="ogonek" unicode="&#x2db;" horiz-adv-x="412" 
d="M218 -232q-44 0 -73.5 21t-29.5 64q0 44 33 81t84 66h59q-46 -35 -64 -67t-18 -55t11.5 -32.5t28.5 -9.5q8 0 14.5 2t12.5 4l13 -55q-17 -11 -34.5 -15t-36.5 -4z" />
    <glyph glyph-name="tilde" unicode="&#x2dc;" horiz-adv-x="412" 
d="M151 636q-17 0 -25 -11.5t-10 -28.5l-46 13q-3 46 19 77.5t64 31.5q16 0 31.5 -6t29.5 -13t27.5 -13t26.5 -6q16 0 24 11.5t10 29.5l46 -14q3 -47 -18.5 -78t-64.5 -31q-16 0 -31.5 6t-29.5 13t-27.5 13t-25.5 6z" />
    <glyph glyph-name="hungarumlaut" unicode="&#x2dd;" horiz-adv-x="412" 
d="M58 590l48 145h99l-77 -145h-70zM208 590l47 145h99l-77 -145h-69z" />
    <glyph glyph-name="Wgrave" unicode="&#x1e80;" horiz-adv-x="978" 
d="M457 779l-105 128h136l62 -128h-93zM33 716h128l131 -543h7l147 543h101l143 -543h7l135 543h114l-190 -720h-118l-143 524h-5l-148 -524h-120z" />
    <glyph glyph-name="wgrave" unicode="&#x1e81;" horiz-adv-x="830" 
d="M23 525h120l104 -379h3l118 379h107l106 -378h6l114 378h107l-164 -529h-114l-112 404h-5l-123 -404h-111zM297 735h114l54 -145h-81z" />
    <glyph glyph-name="Wacute" unicode="&#x1e82;" horiz-adv-x="978" 
d="M444 779l62 128h135l-105 -128h-92zM33 716h128l131 -543h7l147 543h101l143 -543h7l135 543h114l-190 -720h-118l-143 524h-5l-148 -524h-120z" />
    <glyph glyph-name="wacute" unicode="&#x1e83;" horiz-adv-x="830" 
d="M369 590l53 145h115l-86 -145h-82zM23 525h120l104 -379h3l118 379h107l106 -378h6l114 378h107l-164 -529h-114l-112 404h-5l-123 -404h-111z" />
    <glyph glyph-name="Wdieresis" unicode="&#x1e84;" horiz-adv-x="978" 
d="M337 901h112v-108h-112v108zM531 901h112v-108h-112v108zM33 716h128l131 -543h7l147 543h101l143 -543h7l135 543h114l-190 -720h-118l-143 524h-5l-148 -524h-120z" />
    <glyph glyph-name="wdieresis" unicode="&#x1e85;" horiz-adv-x="830" 
d="M279 712h103v-106h-103v106zM448 712h103v-106h-103v106zM23 525h120l104 -379h3l118 379h107l106 -378h6l114 378h107l-164 -529h-114l-112 404h-5l-123 -404h-111z" />
    <glyph glyph-name="Ygrave" unicode="&#x1ef2;" horiz-adv-x="615" 
d="M242 0v306l-222 410h136l159 -304h6l160 304h114l-226 -410v-306h-127zM275 779l-105 128h136l62 -128h-93z" />
    <glyph glyph-name="ygrave" unicode="&#x1ef3;" horiz-adv-x="504" 
d="M34 -143q56 0 88 11q22 8 35 25.5t24 49.5l19 55l-185 527h128l114 -379h3l124 379h105l-209 -592q-10 -29 -20 -52t-22.5 -41t-30 -31t-42.5 -22q-24 -9 -58.5 -11.5t-72.5 -2.5v84zM142 735h114l54 -145h-81z" />
    <glyph glyph-name="endash" unicode="&#x2013;" horiz-adv-x="568" 
d="M52 317h464v-91h-464v91z" />
    <glyph glyph-name="emdash" unicode="&#x2014;" horiz-adv-x="764" 
d="M52 317h660v-91h-660v91z" />
    <glyph glyph-name="quoteleft" unicode="&#x2018;" horiz-adv-x="241" 
d="M55 617l125 109v-77l-70 -62v-9h70v-135h-125v174z" />
    <glyph glyph-name="quoteright" unicode="&#x2019;" horiz-adv-x="241" 
d="M61 433v77l70 62v10h-70v134h125v-174z" />
    <glyph glyph-name="quotesinglbase" unicode="&#x201a;" horiz-adv-x="241" 
d="M61 -130v78l70 61v10h-70v134h125v-173z" />
    <glyph glyph-name="quotedblleft" unicode="&#x201c;" horiz-adv-x="425" 
d="M180 649l-70 -62v-9h70v-135h-125v174l125 109v-77zM364 649l-70 -62v-9h70v-135h-125v174l125 109v-77z" />
    <glyph glyph-name="quotedblright" unicode="&#x201d;" horiz-adv-x="425" 
d="M245 510l70 62v10h-70v134h125v-174l-125 -109v77zM61 433v77l70 62v10h-70v134h125v-174z" />
    <glyph glyph-name="quotedblbase" unicode="&#x201e;" horiz-adv-x="425" 
d="M245 -52l70 61v10h-70v134h125v-173l-125 -110v78zM61 -130v78l70 61v10h-70v134h125v-173z" />
    <glyph glyph-name="dagger" unicode="&#x2020;" horiz-adv-x="493" 
d="M193 514h-152v91h152v177h104v-177h156v-91h-156v-551h-104v551z" />
    <glyph glyph-name="daggerdbl" unicode="&#x2021;" horiz-adv-x="493" 
d="M193 140h-152v91h152v283h-152v91h152v177h104v-177h156v-91h-156v-283h156v-91h-156v-177h-104v177z" />
    <glyph glyph-name="bullet" unicode="&#x2022;" horiz-adv-x="413" 
d="M87 488h239v-240h-239v240z" />
    <glyph glyph-name="ellipsis" unicode="&#x2026;" horiz-adv-x="802" 
d="M591 174h129v-174h-129v174zM337 174h129v-174h-129v174zM83 174h129v-174h-129v174z" />
    <glyph glyph-name="perthousand" unicode="&#x2030;" horiz-adv-x="1165" 
d="M978 -15q-36 0 -66.5 14.5t-52 40t-33.5 61t-12 77.5t12 78t33.5 61.5t52 40t66.5 14.5t66 -14.5t52 -40t34 -61.5t12 -78t-12 -77.5t-34 -61t-52 -40t-66 -14.5zM978 53q33 0 49.5 29.5t16.5 95.5q0 67 -16.5 96.5t-49.5 29.5q-34 0 -51 -29.5t-17 -96.5q0 -66 17 -95.5
t51 -29.5zM131 1l445 734h95l-446 -734h-94zM23 541q0 42 12 78t34 61.5t52 40t66 14.5t66.5 -14.5t52 -40t33.5 -61.5t12 -78t-12 -77.5t-33.5 -61t-52 -40t-66.5 -14.5t-66 14.5t-52 40t-34 61t-12 77.5zM119 541q0 -66 17.5 -95.5t50.5 -29.5q34 0 50.5 29.5t16.5 95.5
t-16.5 96t-50.5 30q-33 0 -50.5 -30t-17.5 -96zM605 -15q-36 0 -66.5 14.5t-52 40t-33.5 61t-12 77.5t12 78t33.5 61.5t52 40t66.5 14.5t66 -14.5t52 -40t34 -61.5t12 -78t-12 -77.5t-34 -61t-52 -40t-66 -14.5zM605 53q33 0 49.5 29.5t16.5 95.5q0 67 -16.5 96.5
t-49.5 29.5q-34 0 -51.5 -29.5t-17.5 -96.5q0 -66 17.5 -95.5t51.5 -29.5z" />
    <glyph glyph-name="uni2032" unicode="&#x2032;" horiz-adv-x="255" 
d="M56 453l27 263h128l-85 -263h-70z" />
    <glyph glyph-name="uni2033" unicode="&#x2033;" horiz-adv-x="433" 
d="M235 453l27 263h128l-85 -263h-70zM56 453l27 263h128l-85 -263h-70z" />
    <glyph glyph-name="guilsinglleft" unicode="&#x2039;" horiz-adv-x="285" 
d="M33 253l131 188h97l-113 -188l113 -187h-97z" />
    <glyph glyph-name="guilsinglright" unicode="&#x203a;" horiz-adv-x="285" 
d="M240.002 253l-130.992 188h-96.9941l112.993 -188l-112.993 -187h96.9941z" />
    <glyph glyph-name="fraction" unicode="&#x2044;" horiz-adv-x="138" 
d="M263 715h69l-457 -715h-69z" />
    <glyph glyph-name="Euro" unicode="&#x20ac;" horiz-adv-x="673" 
d="M630 231q0 -61 -20 -107t-54 -77t-77.5 -47t-90.5 -16q-67 0 -115.5 21t-82 56.5t-53 83.5t-28.5 102h-84v72h77q-1 10 -1 19.5v19.5v17.5t1 17.5h-77v72h83q8 54 27 102.5t52 85t82.5 58t118.5 21.5q46 0 89 -12.5t76 -40t53.5 -71t21.5 -106.5l-108 -35q4 93 -31.5 137
t-99.5 44q-34 0 -59.5 -13t-44.5 -37t-31 -58t-18 -75h196v-72h-202q-1 -8 -1 -17v-18v-19.5t1 -19.5h201v-72h-195q6 -40 17.5 -73t30 -56.5t44.5 -36.5t61 -13q67 0 102.5 51.5t30.5 144.5l108 -33v0z" />
    <glyph glyph-name="trademark" unicode="&#x2122;" horiz-adv-x="661" 
d="M108 668h-85v48h238v-48h-84v-241h-69v241zM354 635v-208h-54v289h87l66 -194l65 194h86v-289h-64v208l-69 -208h-49z" />
    <glyph glyph-name="onethird" unicode="&#x2153;" horiz-adv-x="820" 
d="M132 332v286h-77v52l37 3q26 3 39 14t22 35h62v-390h-83zM613 -8q-32 0 -60.5 8.5t-48.5 25t-31 42t-8 60.5l76 15q-2 -18 1.5 -35t12.5 -29.5t23.5 -20.5t34.5 -8q29 0 46 16.5t17 46.5q0 63 -78 63h-48v54h48q33 0 49 14t16 40t-16.5 39.5t-40.5 13.5q-32 0 -48 -20.5
t-13 -54.5l-77 9q-2 33 9.5 56.5t31.5 38.5t47 22t56 7q28 0 53 -7t43.5 -20.5t29.5 -32t11 -42.5q0 -38 -24 -58t-56 -27v-6q37 -6 65.5 -29.5t28.5 -66.5q0 -51 -39.5 -82.5t-110.5 -31.5zM564 715h69l-457 -715h-69z" />
    <glyph glyph-name="twothirds" unicode="&#x2154;" horiz-adv-x="931" 
d="M64 386q51 27 89.5 50.5t63.5 48t37.5 51.5t12.5 59q0 35 -17 54t-46 19q-22 0 -38 -11t-24 -30.5t-7.5 -47t12.5 -60.5l-79 8q-14 40 -10.5 76t21.5 63.5t50.5 43.5t77.5 16q67 0 107 -35.5t40 -95.5q0 -34 -13 -63t-36 -53.5t-54.5 -45t-67.5 -36.5v-7h176v-58h-295v54
zM723 -8q-32 0 -60.5 8.5t-48.5 25t-31 42t-8 60.5l76 15q-2 -18 1.5 -35t12.5 -29.5t23.5 -20.5t34.5 -8q29 0 46 16.5t17 46.5q0 63 -78 63h-48v54h48q33 0 49 14t16 40t-16.5 39.5t-40.5 13.5q-32 0 -48 -20.5t-13 -54.5l-77 9q-2 33 9.5 56.5t31.5 38.5t47 22t56 7
q28 0 53 -7t43.5 -20.5t29.5 -32t11 -42.5q0 -38 -24 -58t-56 -27v-6q37 -6 65.5 -29.5t28.5 -66.5q0 -51 -39.5 -82.5t-110.5 -31.5zM674 715h69l-457 -715h-69z" />
    <glyph glyph-name="oneeighth" unicode="&#x215b;" horiz-adv-x="837" 
d="M132 332v286h-77v52l37 3q26 3 39 14t22 35h62v-390h-83zM625 -8q-76 0 -116.5 33t-40.5 78q0 36 23.5 60t65.5 34v4q-37 11 -55.5 32t-18.5 56q0 47 37.5 76.5t104.5 29.5q66 0 104.5 -29.5t38.5 -76.5q0 -35 -20 -56t-56 -32v-4q42 -10 65 -34t23 -60q0 -45 -40 -78
t-115 -33zM625 227q29 0 45 16t16 39q0 24 -15.5 40t-45.5 16q-31 0 -46 -16t-15 -40q0 -23 16 -39t45 -16zM625 49q32 0 50.5 18t18.5 45q0 26 -18.5 42t-50.5 16t-51.5 -16t-19.5 -42q0 -27 19 -45t52 -18zM564 715h69l-457 -715h-69z" />
    <glyph glyph-name="threeeighths" unicode="&#x215c;" horiz-adv-x="918" 
d="M202 323q-32 0 -60.5 8.5t-48.5 25t-31 42t-8 60.5l76 15q-2 -18 1.5 -35t12.5 -29.5t23.5 -20.5t34.5 -8q29 0 46 16.5t17 46.5q0 63 -78 63h-48v54h48q33 0 49 14t16 40t-16.5 39.5t-40.5 13.5q-32 0 -48 -20.5t-13 -54.5l-77 9q-2 33 9.5 56.5t31.5 38.5t47 22t56 7
q28 0 53 -7t43.5 -20.5t29.5 -32t11 -42.5q0 -38 -24 -58t-56 -27v-6q37 -6 65.5 -29.5t28.5 -66.5q0 -51 -39.5 -82.5t-110.5 -31.5zM706 -8q-76 0 -116.5 33t-40.5 78q0 36 23.5 60t65.5 34v4q-37 11 -55.5 32t-18.5 56q0 47 37.5 76.5t104.5 29.5q66 0 104.5 -29.5
t38.5 -76.5q0 -35 -20 -56t-56 -32v-4q42 -10 65 -34t23 -60q0 -45 -40 -78t-115 -33zM706 227q29 0 45 16t16 39q0 24 -15.5 40t-45.5 16q-31 0 -46 -16t-15 -40q0 -23 16 -39t45 -16zM706 49q32 0 50.5 18t18.5 45q0 26 -18.5 42t-50.5 16t-51.5 -16t-19.5 -42
q0 -27 19 -45t52 -18zM644 715h69l-457 -715h-69z" />
    <glyph glyph-name="fiveeighths" unicode="&#x215d;" horiz-adv-x="923" 
d="M208 323q-30 0 -57 9t-46.5 26t-30.5 41t-9 53l77 16q-4 -33 14 -59t52 -26q30 0 47 22.5t17 64.5q0 38 -17.5 59t-46.5 21q-26 0 -43.5 -15t-27.5 -35l-61 14l26 204h218v-57h-168l-12 -91q14 16 35.5 26t50.5 10q59 0 96.5 -36.5t37.5 -99.5q0 -68 -42.5 -107.5
t-109.5 -39.5zM711 -8q-76 0 -116.5 33t-40.5 78q0 36 23.5 60t65.5 34v4q-37 11 -55.5 32t-18.5 56q0 47 37.5 76.5t104.5 29.5q66 0 104.5 -29.5t38.5 -76.5q0 -35 -20 -56t-56 -32v-4q42 -10 65 -34t23 -60q0 -45 -40 -78t-115 -33zM711 227q29 0 45 16t16 39
q0 24 -15.5 40t-45.5 16q-31 0 -46 -16t-15 -40q0 -23 16 -39t45 -16zM711 49q32 0 50.5 18t18.5 45q0 26 -18.5 42t-50.5 16t-51.5 -16t-19.5 -42q0 -27 19 -45t52 -18zM650 715h69l-457 -715h-69z" />
    <glyph glyph-name="seveneighths" unicode="&#x215e;" horiz-adv-x="818" 
d="M61 332l148 327h-176v59h259v-47l-147 -339h-84zM606 -8q-76 0 -116.5 33t-40.5 78q0 36 23.5 60t65.5 34v4q-37 11 -55.5 32t-18.5 56q0 47 37.5 76.5t104.5 29.5q66 0 104.5 -29.5t38.5 -76.5q0 -35 -20 -56t-56 -32v-4q42 -10 65 -34t23 -60q0 -45 -40 -78t-115 -33z
M606 227q29 0 45 16t16 39q0 24 -15.5 40t-45.5 16q-31 0 -46 -16t-15 -40q0 -23 16 -39t45 -16zM606 49q32 0 50.5 18t18.5 45q0 26 -18.5 42t-50.5 16t-51.5 -16t-19.5 -42q0 -27 19 -45t52 -18zM545 715h69l-457 -715h-69z" />
    <glyph glyph-name="minus" unicode="&#x2212;" horiz-adv-x="524" 
d="M55 368h414v-92h-414v92z" />
    <glyph glyph-name="approxequal" unicode="&#x2248;" horiz-adv-x="553" 
d="M194 414q-27 0 -44.5 -18.5t-22.5 -38.5l-76 30q4 24 15.5 47t29 41t41.5 28.5t55 10.5q29 0 54 -8.5t47 -18t41.5 -18t37.5 -8.5q25 0 41 17.5t21 37.5l77 -31q-5 -25 -16 -47.5t-29 -40t-42 -27.5t-55 -10q-27 0 -50.5 8.5t-45 18.5t-41 18.5t-38.5 8.5zM194 208
q-27 0 -44.5 -18t-22.5 -38l-76 30q4 24 15.5 47t29 41t41.5 28.5t55 10.5q29 0 54 -8.5t47 -18.5t41.5 -18.5t37.5 -8.5q25 0 41 18t21 38l77 -31q-5 -25 -16 -47.5t-29 -40t-42 -27.5t-55 -10q-27 0 -50.5 8.5t-45 18t-41 18t-38.5 8.5z" />
    <glyph glyph-name="notequal" unicode="&#x2260;" horiz-adv-x="531" 
d="M308 571h84l-169 -498h-84zM55 462h420v-93h-420v93zM55 271h420v-93h-420v93z" />
    <glyph glyph-name="lessequal" unicode="&#x2264;" horiz-adv-x="507" 
d="M61 91h383v-91h-383v91zM61 307v108l383 169v-104l-267 -111v-17l267 -111v-103z" />
    <glyph glyph-name="greaterequal" unicode="&#x2265;" horiz-adv-x="507" 
d="M63 91h383v-91h-383v91zM51 135v103l267 111v17l-267 111v104l383 -169v-108z" />
    <glyph glyph-name="uni24C5" unicode="&#x24c5;" horiz-adv-x="838" 
d="M420 -17q-75 0 -141.5 24.5t-116.5 71.5t-79 117t-29 162q0 91 29 161.5t79 117.5t116.5 71.5t141.5 24.5q74 0 140.5 -24.5t116 -71.5t78.5 -117.5t29 -161.5q0 -92 -29.5 -162t-79 -117t-115.5 -71.5t-140 -24.5zM420 36q64 0 119.5 21t96.5 61.5t65 100.5t24 139
t-24 139t-65 100.5t-96.5 61.5t-119.5 21q-65 0 -120.5 -21t-97 -61.5t-65.5 -100.5t-24 -139t23.5 -139t65 -100.5t97.5 -61.5t121 -21zM285 553h164q71 0 107 -29.5t36 -85.5q0 -58 -38.5 -89t-104.5 -31h-78v-148h-86v383zM445 379q32 0 45.5 16.5t13.5 42.5t-13.5 41
t-45.5 15h-74v-115h74z" />
    <glyph glyph-name="zero.tab" unicode="&#xe44f;" 
d="M596 358q0 -70 -13.5 -137.5t-45 -120t-83 -84.5t-128.5 -32t-128.5 32t-83 84.5t-45 120t-13.5 137.5t13.5 137.5t45 120t83 84.5t128.5 32t128.5 -32t83 -84.5t45 -120t13.5 -137.5zM181 358q0 -65 6 -118.5t22 -91.5t44 -59t73 -21t73 21t44 59t22 91.5t6 118.5
t-6 118.5t-22 92t-44 59.5t-73 21t-73 -21t-44 -59.5t-22 -92t-6 -118.5z" />
    <glyph glyph-name="one.tab" unicode="&#xe450;" 
d="M106 0v88h170v479h-161v74l53 3q22 2 41 6t35 12.5t28.5 23t21.5 37.5h99v-635h163v-88h-450z" />
    <glyph glyph-name="two.tab" unicode="&#xe451;" 
d="M77 80q38 23 71 44t62 41t55 40.5t51 43.5q61 57 97 117t36 135q0 67 -32.5 107.5t-95.5 40.5q-66 0 -103 -47t-37 -126q0 -26 5 -61t18 -72l-110 13q-15 35 -20.5 66t-5.5 59q0 56 17 102.5t49 79.5t79.5 51t108.5 18q58 0 105.5 -17t80.5 -47.5t51 -73t18 -93.5
q0 -74 -32.5 -133.5t-86.5 -112.5q-44 -42 -101.5 -82.5t-115.5 -75.5v-7h354v-90h-518v80z" />
    <glyph glyph-name="three.tab" unicode="&#xe452;" 
d="M324 -16q-48 0 -93.5 12t-81 37.5t-57.5 65t-22 94.5q0 23 6 52l117 28q-9 -33 -9 -66q0 -60 35.5 -100t104.5 -40q66 0 99 35t33 94q0 31 -7.5 56.5t-25 44.5t-47 29.5t-74.5 10.5h-94v81h93q37 0 62.5 9t41.5 25t22.5 38t6.5 48q0 53 -31 82t-82 29q-30 0 -55.5 -9.5
t-43 -29.5t-25.5 -51t-2 -74l-110 12q-6 61 11.5 105.5t51 73t80 42.5t98.5 14q54 0 97.5 -13.5t73.5 -38.5t46.5 -59t16.5 -74q0 -35 -11.5 -62.5t-31.5 -47.5t-47 -33t-58 -18v-8q36 -5 67.5 -18.5t55 -36.5t36.5 -55.5t13 -74.5q0 -45 -17.5 -83.5t-50.5 -66.5
t-81.5 -43.5t-110.5 -15.5z" />
    <glyph glyph-name="four.tab" unicode="&#xe453;" 
d="M382 160h-331v74l320 489h129v-479h115v-84h-115v-160h-118v160zM382 244v335h-4l-214 -329v-6h218z" />
    <glyph glyph-name="five.tab" unicode="&#xe454;" 
d="M320 -16q-54 0 -101 16t-81 46.5t-51 75t-12 100.5l113 31q-6 -39 0.5 -72.5t23.5 -59t44 -40t62 -14.5q71 0 104.5 51t33.5 139q0 84 -33.5 128.5t-94.5 44.5q-27 0 -49 -9.5t-39 -26t-29 -37.5t-19 -45l-101 28l44 376h391v-91h-311l-22 -182q25 32 66 51t95 19
q52 0 94.5 -18.5t72.5 -52t46.5 -81t16.5 -104.5q0 -63 -19 -113.5t-53.5 -86t-83 -54.5t-108.5 -19z" />
    <glyph glyph-name="six.tab" unicode="&#xe455;" 
d="M595 242q0 -59 -19.5 -106.5t-54 -81t-82.5 -52t-105 -18.5q-66 0 -119.5 26.5t-89.5 81.5q-28 43 -43.5 103t-15.5 139q0 85 16 158t50.5 126.5t88.5 83.5t130 30q45 0 84.5 -12t69 -37t47 -62.5t17.5 -89.5l-106 -16q1 37 -8.5 63t-26 41.5t-38.5 22.5t-46 7
q-45 0 -75 -22.5t-48.5 -58.5t-26.5 -82t-9 -93q27 38 72.5 63.5t110.5 25.5q51 0 92.5 -16.5t71.5 -47.5t46.5 -75.5t16.5 -100.5zM334 66q59 0 96.5 44.5t37.5 125.5q0 75 -33 120t-97 45q-29 0 -54 -10.5t-43.5 -31t-29.5 -51.5t-11 -71q0 -33 8 -63t24 -53
q17 -26 42.5 -40.5t59.5 -14.5z" />
    <glyph glyph-name="seven.tab" unicode="&#xe456;" 
d="M150 0l295 622h-363v94h486v-86l-289 -630h-129z" />
    <glyph glyph-name="eight.tab" unicode="&#xe457;" 
d="M326 -16q-70 0 -121 17t-84 45.5t-49 65t-16 74.5q0 66 40 110.5t112 66.5v3q-60 20 -97.5 64.5t-37.5 109.5q0 38 16.5 73t49 61.5t79.5 42t108 15.5t108 -15.5t79.5 -42t49 -61.5t16.5 -73q0 -32 -10.5 -60t-29 -50.5t-43 -38.5t-52.5 -25v-3q72 -22 112 -66.5
t40 -110.5q0 -38 -16 -74.5t-49 -65t-84 -45.5t-121 -17zM326 407q62 0 95.5 35t33.5 88q0 57 -32 88t-97 31t-97 -31t-32 -88q0 -53 33.5 -88t95.5 -35zM326 67q68 0 105 35t37 94q0 60 -37.5 94t-104.5 34t-104.5 -34t-37.5 -94q0 -59 37 -94t105 -35z" />
    <glyph glyph-name="nine.tab" unicode="&#xe458;" 
d="M318 315q28 0 52.5 10.5t43 31.5t29 52t10.5 73q0 34 -7.5 63t-23.5 52q-17 25 -42.5 39t-60.5 14q-61 0 -97.5 -44.5t-36.5 -125.5q0 -73 33.5 -119t99.5 -46zM304 -16q-46 0 -86.5 11.5t-71 36t-48.5 62t-19 88.5l106 16q-1 -38 9.5 -63t28 -40t40.5 -21.5t48 -6.5
q45 0 74.5 21.5t47.5 57t25.5 81.5t9.5 94q-27 -37 -72 -62t-109 -25q-50 0 -92 17t-72.5 48t-47.5 75.5t-17 99.5q0 58 19 106t53.5 81.5t83 52t106.5 18.5q60 0 110 -22t86 -68q34 -43 52.5 -107.5t18.5 -152.5q0 -86 -16 -158.5t-50 -126t-88 -83.5t-129 -30z" />
    <glyph glyph-name="cent.tab" unicode="&#xe459;" 
d="M213 260q0 -79 23 -128.5t72 -63.5v383q-46 -14 -70.5 -63t-24.5 -128zM555 161q-8 -31 -21.5 -59.5t-34.5 -51t-50 -38t-68 -21.5v-110h-73v107q-53 4 -93.5 25.5t-68.5 57t-42 83.5t-14 106q0 57 15.5 104.5t44 83t68.5 57t90 26.5v100h73v-101q78 -10 117.5 -54.5
t55.5 -108.5l-84 -33q-9 42 -30 73.5t-59 42.5v-380q39 13 59.5 47.5t29.5 76.5z" />
    <glyph glyph-name="dollar.tab" unicode="&#xe45a;" 
d="M285 -119v106q-50 7 -90 28t-69 54t-46.5 76.5t-22.5 94.5l95 16q6 -77 41 -121.5t92 -57.5v185l80 -9v-179q51 5 81 29t30 72q0 49 -43.5 78t-125.5 55q-55 18 -98 36.5t-73 43.5t-45.5 59.5t-15.5 82.5q0 38 13 72.5t39 61.5t65.5 44.5t92.5 22.5v104h80v-106
q88 -12 141.5 -69t61.5 -151l-94 -20q-4 60 -31 99t-78 52v-177l-80 13v167q-52 -7 -73.5 -33t-21.5 -59q0 -25 10.5 -43.5t29.5 -32t45 -24t57 -20.5q60 -18 108.5 -38t83 -46t53 -60.5t18.5 -80.5q0 -97 -59.5 -155t-170.5 -66v-104h-80z" />
    <glyph glyph-name="Euro.tab" unicode="&#xe45b;" 
d="M593 227q0 -60 -19.5 -105t-51 -76t-72 -46.5t-84.5 -15.5q-64 0 -109 20.5t-74.5 56t-46 83.5t-23.5 103h-67v72h62q-1 10 -1 19.5v19.5v35h-61v72h66q6 55 22 104t45.5 85t75 57t111.5 21q43 0 83.5 -12.5t72 -39.5t50.5 -70t19 -105l-107 -34q3 91 -29 134t-89 43
q-32 0 -54 -13t-36.5 -36.5t-22.5 -57.5t-11 -76h152v-72h-156v-74h155v-72h-152q3 -41 11 -74.5t22.5 -56.5t36.5 -35.5t55 -12.5q61 0 92.5 50.5t27.5 141.5l107 -33v0z" />
    <glyph glyph-name="space_uni0326" horiz-adv-x="412" 
d="M215 -154v11h-65v81h112v-114l-111 -63v49z" />
    <glyph glyph-name="space_uni0326.alt" horiz-adv-x="413" 
d="M197 675v-11h65v-81h-112v114l111 63v-49z" />
    <glyph glyph-name="dollar.old" horiz-adv-x="574" 
d="M165 510q0 -39 25.5 -61t64.5 -38v186q-46 -5 -68 -30t-22 -57zM416 160q0 39 -24 62t-72 43v-199q39 5 67.5 27.5t28.5 66.5zM252 -122v111q-44 6 -80 25t-62.5 49t-41.5 70.5t-18 88.5l83 15q2 -71 35 -113.5t84 -54.5v222q-39 14 -73.5 30.5t-59.5 39.5t-39.5 54
t-14.5 73q0 37 12.5 69.5t36.5 57.5t59.5 41t81.5 19v104h68v-106q78 -12 125 -65.5t51 -140.5l-84 -19q0 55 -24.5 92t-67.5 51v-204q42 -16 78.5 -33.5t63.5 -40.5t42.5 -53t15.5 -70q0 -41 -13.5 -76.5t-40 -62.5t-64 -43.5t-85.5 -20.5v-109h-68z" />
    <glyph glyph-name="Euro.old" horiz-adv-x="633" 
d="M588 208q0 -56 -18.5 -98.5t-48.5 -71t-69.5 -43t-81.5 -14.5q-61 0 -104.5 19t-73.5 52.5t-47.5 78t-24.5 95.5h-76v67h70q-1 9 -1 18v18v17t1 17h-70v67h75q7 52 24 97.5t46.5 79.5t74 53.5t106.5 19.5q41 0 79.5 -11.5t69 -36.5t49 -65.5t19.5 -98.5l-98 -32
q3 85 -30.5 125.5t-88.5 40.5q-31 0 -53.5 -12t-38 -34.5t-25 -54.5t-14.5 -71h176v-67h-181v-34v-18t1 -18h179v-67h-175q9 -77 39 -121.5t92 -44.5q60 0 92.5 47t27.5 132l98 -31v0z" />
    <glyph glyph-name="sterling.old" horiz-adv-x="660" 
d="M480 -12q-24 0 -47 7.5t-45 19.5t-43.5 27t-42.5 30q-24 -37 -61.5 -59.5t-86.5 -22.5q-26 0 -50 6.5t-43 20t-30.5 33t-11.5 46.5q0 26 10.5 47t29 35.5t43.5 22.5t54 8q30 0 58.5 -7.5t55.5 -19.5v5q0 25 -8 47t-19 45h-154v65h118q-16 30 -27.5 63t-11.5 74
q0 46 17 83t46.5 62.5t70 39.5t87.5 14q39 0 78.5 -12t69 -40t45 -73t6.5 -111l-96 -14q6 43 0 75.5t-20 54t-35 32t-46 10.5q-52 0 -78.5 -35.5t-26.5 -87.5q0 -38 11.5 -70t23.5 -65h158v-65h-138q2 -12 3.5 -25.5t1.5 -27.5q0 -41 -10 -77q38 -20 72.5 -37t66.5 -17
q41 0 56.5 25.5t9.5 73.5h62q12 -56 5 -95t-26 -64t-46.5 -36t-55.5 -11zM156 47q32 0 56.5 17t38.5 44q-25 16 -50 26.5t-51 10.5q-30 0 -48 -14.5t-18 -34.5q0 -23 21.5 -36t50.5 -13z" />
    <glyph glyph-name="yen.old" horiz-adv-x="557" 
d="M334 122v-122h-113v122h-156v64h156v68h-156v64h130l-166 351h118l133 -297h7l134 297h108l-173 -351h133v-64h-155v-68h155v-64h-155z" />
    <glyph glyph-name="florin.old" horiz-adv-x="485" 
d="M15 -8q32 0 52.5 0.5t37.5 11.5q20 11 31 36t20 79l31 187h-90v84h102l18 114q11 74 40 109.5t74 49.5q33 13 71.5 14t77.5 -2l-13 -83q-32 0 -52 -0.5t-37 -11.5q-20 -11 -31 -36t-20 -79l-13 -75h111v-84h-123l-36 -225q-12 -74 -41 -110.5t-73 -49.5
q-34 -12 -72.5 -13t-77.5 1z" />
    <glyph glyph-name="zero.old" horiz-adv-x="614" 
d="M306 -10q-60 0 -106.5 20.5t-78.5 57.5t-49 86.5t-17 108.5q0 58 17 108t49 86.5t78.5 57t106.5 20.5t107 -20.5t79.5 -57t49.5 -86.5t17 -108q0 -59 -17 -108.5t-49.5 -86.5t-79.5 -57.5t-107 -20.5zM306 66q36 0 60.5 14t39.5 40t21.5 62.5t6.5 80.5q0 45 -6.5 81
t-21.5 61.5t-39.5 39.5t-60.5 14t-60 -14t-39 -39.5t-21 -61.5t-6 -81q0 -44 6.5 -80.5t21 -62.5t38.5 -40t60 -14z" />
    <glyph glyph-name="one.old" horiz-adv-x="292" 
d="M88 525h116v-525h-116v525z" />
    <glyph glyph-name="two.old" horiz-adv-x="546" 
d="M48 67q84 42 143 75t97 67q40 34 57 69t17 73q0 47 -25 77.5t-77 30.5q-34 0 -59 -14.5t-39.5 -40t-18 -62t5.5 -79.5l-98 13q-12 64 -1 113t40.5 81t74.5 48.5t100 16.5q53 0 94.5 -14t70 -38t43 -57t14.5 -71q0 -55 -28 -98.5t-78 -79.5q-36 -25 -78 -45t-88 -43v-5
h289v-84h-456v67z" />
    <glyph glyph-name="three.old" horiz-adv-x="558" 
d="M270 -173q-47 0 -89.5 13t-74 40t-49.5 69.5t-15 101.5l103 26q-2 -37 4.5 -68.5t22 -55t39.5 -37t58 -13.5q25 0 47 7t38 21t25 36.5t9 53.5q0 62 -38 94t-111 32h-67v79h54q66 0 104.5 27.5t38.5 93.5q0 54 -28.5 83t-76.5 29q-26 0 -49 -9t-39.5 -28t-25 -48t-6.5 -69
l-98 17q-2 57 15 97.5t48 66t73 37.5t90 12q49 0 90 -12t70 -35.5t45 -57t16 -75.5q0 -36 -12 -64t-33 -47.5t-49.5 -32t-61.5 -18.5v-5q79 -10 127 -54t48 -118q0 -43 -18 -78t-50 -59.5t-76.5 -38t-97.5 -13.5z" />
    <glyph glyph-name="four.old" horiz-adv-x="564" 
d="M318 35h-303v72l285 422h134v-414h110v-80h-110v-168h-116v168zM318 115v299h-3l-201 -297v-2h204z" />
    <glyph glyph-name="five.old" horiz-adv-x="569" 
d="M284 -173q-48 0 -91 14t-74.5 41t-49.5 66.5t-16 90.5l103 28q-2 -73 32 -118.5t94 -45.5t94.5 45.5t33.5 120.5q0 39 -9.5 68t-26 48.5t-38 29.5t-46.5 10q-45 0 -78.5 -28t-50.5 -69l-95 13l41 384h363v-84h-284l-21 -203q22 26 60.5 45.5t92.5 19.5q46 0 85.5 -15.5
t69 -45t46 -73t16.5 -98.5q0 -58 -20 -103t-54 -76.5t-80 -48t-97 -16.5z" />
    <glyph glyph-name="six.old" horiz-adv-x="608" 
d="M309 -12q-60 0 -108 20.5t-81 65.5q-31 40 -47.5 98.5t-16.5 138.5q0 79 15 146.5t47 117t82 77.5t121 28q43 0 80.5 -11.5t65 -34.5t43 -58t15.5 -83l-99 -15q1 35 -7.5 59t-23.5 39t-35 21.5t-42 6.5q-42 0 -70 -20t-45 -53.5t-25 -77t-10 -89.5h4q25 38 66.5 62.5
t100.5 24.5q47 0 86.5 -15t68 -44t44.5 -71t16 -95q0 -55 -19 -99t-52 -75t-77.5 -47.5t-96.5 -16.5zM307 64q55 0 88.5 40.5t33.5 115.5q0 69 -29.5 111.5t-88.5 42.5q-27 0 -50 -10t-40 -29.5t-26.5 -48.5t-9.5 -66q0 -32 7 -60t21 -48q15 -23 38.5 -35.5t55.5 -12.5z" />
    <glyph glyph-name="seven.old" horiz-adv-x="474" 
d="M332 445h-315v80h430v-77l-267 -578h-123z" />
    <glyph glyph-name="eight.old" horiz-adv-x="590" 
d="M295 -12q-65 0 -112 15.5t-77.5 41.5t-45 59.5t-14.5 69.5q0 63 43 105t111 58v4q-26 6 -51 20t-44 34.5t-30.5 47t-11.5 57.5q0 36 15.5 68.5t45 57.5t72.5 39.5t99 14.5t99.5 -14.5t73 -39.5t44.5 -57.5t15 -68.5q0 -31 -11 -57.5t-30 -47.5t-43 -35t-50 -19v-4
q68 -16 109.5 -58t41.5 -105q0 -36 -14.5 -69.5t-45 -59.5t-77.5 -41.5t-112 -15.5zM295 377q48 0 80 31.5t32 83.5q0 51 -29.5 81.5t-82.5 30.5q-52 0 -82 -30.5t-30 -81.5q0 -52 32 -83.5t80 -31.5zM295 64q58 0 91 33.5t33 85.5q0 51 -33 84.5t-91 33.5
q-57 0 -90.5 -33.5t-33.5 -84.5q0 -52 33.5 -85.5t90.5 -33.5z" />
    <glyph glyph-name="nine.old" horiz-adv-x="608" 
d="M297 144q54 0 90 39.5t36 115.5q0 35 -8.5 64.5t-24.5 51.5q-15 20 -37.5 32t-51.5 12q-55 0 -88.5 -42t-33.5 -117q0 -69 29 -112.5t89 -43.5zM287 -173q-41 0 -77 10t-64 31t-46 52t-22 73l99 20q1 -31 11.5 -52t26 -34t35 -18.5t39.5 -5.5q42 0 70 22t44.5 58t24 81
t9.5 90h-4q-24 -39 -65 -63t-100 -24q-47 0 -86 15.5t-67.5 44.5t-44.5 71.5t-16 95.5q0 55 18.5 99.5t51 76t77.5 48.5t98 17q55 0 100 -18.5t78 -58.5q35 -41 54.5 -103t19.5 -150q0 -81 -14.5 -150t-46 -119.5t-81.5 -79.5t-122 -29z" />
    <glyph glyph-name="sterling.tab" 
d="M483 -14q-50 0 -92.5 24t-80.5 54q-24 -35 -60.5 -56.5t-87.5 -21.5q-28 0 -54.5 7t-47 21.5t-33 36.5t-12.5 52q0 52 38.5 85t106.5 33q33 0 63 -8.5t58 -21.5v8q0 28 -9 53t-23 50h-169v72h125q-21 34 -36.5 71t-15.5 82q0 47 18.5 85t50 64.5t74 41t89.5 14.5
q45 0 88 -12.5t74 -41.5t46 -76.5t5 -116.5l-105 -17q11 91 -17.5 135.5t-86.5 44.5q-26 0 -45.5 -10t-33 -27.5t-20.5 -41t-7 -49.5q0 -42 13.5 -76.5t29.5 -69.5h182v-72h-155q8 -32 8 -66q0 -40 -11 -84q35 -20 66.5 -36t62.5 -16q78 0 69 106h68q13 -61 5 -103
t-28.5 -68t-50 -37.5t-59.5 -11.5zM160 47q32 0 56.5 16.5t39.5 42.5q-26 20 -52 33.5t-54 13.5q-30 0 -45.5 -15.5t-15.5 -35.5q0 -26 20.5 -40.5t50.5 -14.5z" />
    <glyph glyph-name="yen.tab" 
d="M385 139v-139h-122v139h-162v72h162v74h-162v72h134l-184 359h131l147 -308h7l149 308h116l-186 -359h132v-72h-162v-74h162v-72h-162z" />
    <glyph glyph-name="florin.tab" 
d="M231 -79q-35 -13 -76 -14t-83 2l15 86q33 0 54.5 0.5t38.5 11.5q20 11 31.5 36.5t20.5 80.5l31 191h-93v84h106l25 155q12 76 43 112.5t77 50.5q35 13 76 14t83 -2l-15 -85q-33 0 -54.5 -1t-38.5 -12q-20 -11 -31.5 -36.5t-20.5 -80.5l-18 -115h115v-84h-129l-37 -230
q-12 -76 -43 -113t-77 -51z" />
    <glyph glyph-name="percent.tab" 
d="M164 401q-62 0 -97 45t-35 121t35 121.5t97 45.5t97.5 -45.5t35.5 -121.5t-35.5 -121t-97.5 -45zM105 1l376 731h73l-375 -731h-74zM164 468q28 0 40.5 22.5t12.5 76.5t-12.5 77.5t-40.5 23.5q-27 0 -41 -23.5t-14 -77.5t14 -76.5t41 -22.5zM489 -14q-62 0 -97.5 45
t-35.5 121t35.5 121.5t97.5 45.5t97 -45.5t35 -121.5t-35 -121t-97 -45zM489 53q28 0 40 22.5t12 76.5t-12 77.5t-40 23.5q-27 0 -41.5 -23.5t-14.5 -77.5t14.5 -76.5t41.5 -22.5z" />
    <glyph glyph-name="perthousand.tab" horiz-adv-x="972" 
d="M807 -14q-62 0 -98 45t-36 121t36 121.5t98 45.5q63 0 98.5 -45.5t35.5 -121.5t-35.5 -121t-98.5 -45zM807 53q28 0 40.5 22.5t12.5 76.5t-12.5 77.5t-40.5 23.5q-27 0 -41 -23.5t-14 -77.5t14 -76.5t41 -22.5zM164 401q-62 0 -97 45t-35 121t35 121.5t97 45.5
t97.5 -45.5t35.5 -121.5t-35.5 -121t-97.5 -45zM105 1l376 731h73l-375 -731h-74zM164 468q28 0 40.5 22.5t12.5 76.5t-12.5 77.5t-40.5 23.5q-27 0 -41 -23.5t-14 -77.5t14 -76.5t41 -22.5zM489 -14q-62 0 -97.5 45t-35.5 121t35.5 121.5t97.5 45.5t97 -45.5t35 -121.5
t-35 -121t-97 -45zM489 53q28 0 40 22.5t12 76.5t-12 77.5t-40 23.5q-27 0 -41.5 -23.5t-14.5 -77.5t14.5 -76.5t41.5 -22.5z" />
    <glyph glyph-name="plus.tab" 
d="M275 276h-168v92h168v174h101v-174h168v-92h-168v-174h-101v174z" />
    <glyph glyph-name="minus.tab" 
d="M119 368h414v-92h-414v92z" />
    <glyph glyph-name="plusminus.tab" 
d="M111 91h430v-91h-430v91zM275 305h-168v92h168v174h101v-174h168v-92h-168v-174h-101v174z" />
    <glyph glyph-name="multiply.tab" horiz-adv-x="653" 
d="M103 152l161 160l-155 153l65 65l153 -156l153 156l65 -65l-156 -153l161 -160l-65 -65l-158 161l-159 -161z" />
    <glyph glyph-name="divide.tab" 
d="M271 567h110v-118h-110v118zM106 368h440v-92h-440v92zM271 195h111v-118h-111v118z" />
    <glyph glyph-name="equal.tab" 
d="M116 462h420v-93h-420v93zM116 271h420v-93h-420v93z" />
    <glyph glyph-name="notequal.tab" 
d="M368 571h83l-169 -498h-83zM116 462h420v-93h-420v93zM116 271h420v-93h-420v93z" />
    <glyph glyph-name="approxequal.tab" horiz-adv-x="653" 
d="M239 414q-27 0 -44.5 -18.5t-22.5 -38.5l-76 30q4 24 15.5 47t29 41t41.5 28.5t55 10.5q29 0 54 -8.5t47 -18t41.5 -18t37.5 -8.5q25 0 41 17.5t21 37.5l77 -31q-5 -25 -16 -47.5t-29 -40t-42 -27.5t-55 -10q-27 0 -50.5 8.5t-45 18.5t-41 18.5t-38.5 8.5zM239 208
q-27 0 -44.5 -18t-22.5 -38l-76 30q4 24 15.5 47t29 41t41.5 28.5t55 10.5q29 0 54 -8.5t47 -18.5t41.5 -18.5t37.5 -8.5q25 0 41 18t21 38l77 -31q-5 -25 -16 -47.5t-29 -40t-42 -27.5t-55 -10q-27 0 -50.5 8.5t-45 18t-41 18t-38.5 8.5z" />
    <glyph glyph-name="less.tab" 
d="M131 288v108l383 169v-104l-267 -111v-17l267 -111v-103z" />
    <glyph glyph-name="greater.tab" 
d="M509.004 288v108l-382.977 169v-104l266.983 -111v-17l-266.983 -111v-103z" />
    <glyph glyph-name="lessequal.tab" 
d="M135 91h382v-91h-382v91zM135 307v108l383 169v-104l-267 -111v-17l267 -111v-103z" />
    <glyph glyph-name="greaterequal.tab" 
d="M135 91h382v-91h-382v91zM122 135v103l267 111v17l-267 111v104l383 -169v-108z" />
    <glyph glyph-name="period.tab" horiz-adv-x="332" 
d="M102 174h129v-174h-129v174z" />
    <glyph glyph-name="comma.tab" horiz-adv-x="332" 
d="M102 -70l73 59v28h-73v157h129v-244l-129 -106v106z" />
    <glyph glyph-name="colon.tab" horiz-adv-x="332" 
d="M102 521h129v-174h-129v174zM102 174h129v-174h-129v174z" />
    <glyph glyph-name="semicolon.tab" horiz-adv-x="332" 
d="M102 521h129v-174h-129v174zM103 -70l73 59v28h-73v157h129v-244l-129 -106v106z" />
    <glyph glyph-name="parenleft.tab" horiz-adv-x="332" 
d="M269 -141q-46 34 -86 81.5t-69.5 107t-46.5 131t-17 154.5q0 84 17 155.5t46.5 131t69.5 106t86 80.5l47 -48q-39 -40 -66.5 -84t-45.5 -95.5t-26.5 -112t-8.5 -133.5t8.5 -133.5t26.5 -112t45.5 -95.5t66.5 -84z" />
    <glyph glyph-name="parenright.tab" horiz-adv-x="332" 
d="M16 -92q39 40 66.5 84t45.5 95.5t26.5 112t8.5 133.5t-8.5 133.5t-26.5 112t-45.5 95.5t-66.5 84l47 48q46 -34 86 -80.5t69.5 -106t46.5 -131t17 -155.5q0 -83 -17 -154.5t-46.5 -131t-69.5 -107t-86 -81.5z" />
    <glyph glyph-name="bracketleft.tab" horiz-adv-x="332" 
d="M75 789h213v-75h-106v-762h106v-76h-213v913z" />
    <glyph glyph-name="bracketright.tab" horiz-adv-x="332" 
d="M257 -124h-213v76h106v762h-106v75h213v-913z" />
    <glyph glyph-name="braceleft.tab" horiz-adv-x="332" 
d="M260 -131q-44 0 -76.5 11.5t-53.5 31.5t-31 48t-10 61q0 30 8.5 57t18 52t18 48.5t8.5 46.5q0 29 -15.5 47t-45.5 21l-32 3v71l32 3q30 3 45.5 21t15.5 47q0 23 -8.5 46.5t-18 48.5t-18 51.5t-8.5 56.5q0 69 41 112t130 43h41v-73h-27q-34 0 -53.5 -26t-19.5 -72
q0 -22 5.5 -43.5t12 -43t12 -42.5t5.5 -43q0 -43 -22.5 -77t-75.5 -45q53 -10 75.5 -44t22.5 -77q0 -22 -5.5 -43.5t-12 -43t-12 -43t-5.5 -43.5q0 -46 19.5 -70.5t53.5 -24.5h27v-73h-41v0z" />
    <glyph glyph-name="braceright.tab" horiz-adv-x="332" 
d="M31 -131v73h27q34 0 53.5 24.5t19.5 70.5q0 22 -5.5 43.5t-12 43t-12 43t-5.5 43.5q0 43 22.5 77t75.5 44q-53 11 -75.5 45t-22.5 77q0 22 5.5 43t12 42.5t12 43t5.5 43.5q0 46 -19.5 72t-53.5 26h-27v73h41q89 0 130 -43t41 -112q0 -30 -8.5 -56.5t-18 -51.5t-18 -48.5
t-8.5 -46.5q0 -29 15.5 -47t45.5 -21l32 -3v-71l-32 -3q-30 -3 -45.5 -21t-15.5 -47q0 -23 8.5 -46.5t18 -48.5t18 -52t8.5 -57q0 -66 -41.5 -109t-129.5 -43h-41z" />
    <glyph glyph-name="dollar.oldtab" horiz-adv-x="612" 
d="M184 510q0 -39 25.5 -61t64.5 -38v186q-46 -5 -68 -30t-22 -57zM435 160q0 39 -24 62t-72 43v-199q39 5 67.5 27.5t28.5 66.5zM271 -122v111q-44 6 -80 25t-62.5 49t-41.5 70.5t-18 88.5l83 15q2 -71 35 -113.5t84 -54.5v222q-39 14 -73.5 30.5t-59.5 39.5t-39.5 54
t-14.5 73q0 37 12.5 69.5t36.5 57.5t59.5 41t81.5 19v104h68v-106q78 -12 125 -65.5t51 -140.5l-84 -19q0 55 -24.5 92t-67.5 51v-204q42 -16 78.5 -33.5t63.5 -40.5t42.5 -53t15.5 -70q0 -41 -13.5 -76.5t-40 -62.5t-64 -43.5t-85.5 -20.5v-109h-68z" />
    <glyph glyph-name="Euro.oldtab" horiz-adv-x="612" 
d="M559 216q2 -56 -15 -99t-46.5 -71.5t-68 -43t-78.5 -14.5q-61 0 -103.5 19.5t-70.5 53t-43.5 79t-21.5 97.5h-60v64h56q-1 8 -1 16.5v16.5v17t1 17h-56v65h60q6 52 20.5 97t42.5 78.5t71 52.5t105 19q39 0 76.5 -11.5t66.5 -37t46.5 -66t17.5 -98.5l-100 -32
q6 86 -24.5 127.5t-82.5 41.5q-59 0 -86 -46t-34 -125h139v-65h-143v-67h143v-64h-139q3 -40 11 -72t22 -54.5t35.5 -34.5t51.5 -12q57 0 87 49t22 134l99 -31v0z" />
    <glyph glyph-name="sterling.oldtab" horiz-adv-x="612" 
d="M462 -12q-23 0 -44.5 7t-41.5 18.5t-39 26t-38 29.5q-23 -35 -59 -57t-84 -22q-26 0 -49.5 6.5t-42.5 20t-30 33t-11 46.5q0 52 38.5 82t96.5 30q30 0 56.5 -7.5t51.5 -18.5v5q0 25 -8.5 47t-21.5 45h-151v65h110q-17 30 -30.5 63t-13.5 74q0 46 17 83t46.5 62.5t70 39.5
t87.5 14q39 0 78.5 -12t69 -40t44.5 -73t6 -111l-96 -14q6 43 0 75.5t-20 54t-35.5 32t-46.5 10.5q-26 0 -45 -9.5t-32 -26t-19 -38.5t-6 -47q0 -40 14 -72t28 -65h162v-65h-138q6 -24 6 -53q0 -43 -10 -80q34 -20 64.5 -35.5t61.5 -15.5q40 0 55.5 25.5t10.5 73.5h61
q12 -56 5 -95t-26 -64t-46 -36t-56 -11zM158 47q32 0 54.5 17t36.5 44q-23 16 -47 26.5t-50 10.5q-30 0 -47 -14.5t-17 -34.5q0 -23 21 -36t49 -13z" />
    <glyph glyph-name="yen.oldtab" horiz-adv-x="612" 
d="M361 122v-122h-112v122h-156v64h156v68h-156v64h129l-172 351h118l139 -297h7l140 297h108l-178 -351h132v-64h-155v-68h155v-64h-155z" />
    <glyph glyph-name="florin.oldtab" horiz-adv-x="612" 
d="M83 -8q32 0 53 0.5t38 11.5q19 11 30.5 36t19.5 79l31 187h-90v84h103l17 114q12 74 40.5 109.5t73.5 49.5q34 13 72 14t77 -2l-12 -83q-32 0 -52.5 -0.5t-37.5 -11.5q-20 -11 -31 -36t-20 -79l-12 -75h110v-84h-123l-36 -225q-12 -74 -41 -110.5t-73 -49.5
q-34 -12 -72.5 -13t-77.5 1z" />
    <glyph glyph-name="zero.oldtab" horiz-adv-x="612" 
d="M306 -10q-58 0 -104 20.5t-78 57.5t-49 86.5t-17 108.5q0 58 17 108t49 86.5t78 57t104 20.5t104 -20.5t78 -57t49 -86.5t17 -108q0 -59 -17 -108.5t-49 -86.5t-78 -57.5t-104 -20.5zM306 66q67 0 95.5 54t28.5 143t-28.5 142.5t-95.5 53.5q-34 0 -57.5 -14t-38.5 -39.5
t-21.5 -61.5t-6.5 -81q0 -44 7 -80.5t22 -62.5t38.5 -40t56.5 -14z" />
    <glyph glyph-name="one.oldtab" horiz-adv-x="612" 
d="M97 -1v84h157v303h-149v67l48 3q44 4 72 17.5t47 53.5h97v-444h148v-84h-420z" />
    <glyph glyph-name="two.oldtab" horiz-adv-x="612" 
d="M80 67q84 42 143 75t97 67q40 34 57 69t17 73q0 47 -25 77.5t-77 30.5q-34 0 -59 -14.5t-39.5 -40t-18 -62t5.5 -79.5l-98 13q-12 64 -1 113t40.5 81t74.5 48.5t100 16.5q53 0 94.5 -14t70 -38t43 -57t14.5 -71q0 -55 -28 -98.5t-78 -79.5q-36 -25 -78 -45t-88 -43v-5
h289v-84h-456v67z" />
    <glyph glyph-name="three.oldtab" horiz-adv-x="612" 
d="M301 -173q-47 0 -89.5 13t-74 40t-49.5 69.5t-15 101.5l103 26q-2 -37 4.5 -68.5t22 -55t39.5 -37t58 -13.5q25 0 47 7t38 21t25 36.5t9 53.5q0 62 -38 94t-111 32h-67v79h54q66 0 104.5 27.5t38.5 93.5q0 54 -28.5 83t-76.5 29q-26 0 -49 -9t-39.5 -28t-25 -48t-6.5 -69
l-98 17q-2 57 15 97.5t48 66t73 37.5t90 12q49 0 90 -12t70 -35.5t45 -57t16 -75.5q0 -36 -12 -64t-33 -47.5t-49.5 -32t-61.5 -18.5v-5q79 -10 127 -54t48 -118q0 -43 -18 -78t-50 -59.5t-76.5 -38t-97.5 -13.5z" />
    <glyph glyph-name="four.oldtab" horiz-adv-x="612" 
d="M346 35h-303v72l285 422h134v-414h110v-80h-110v-168h-116v168zM346 115v299h-3l-201 -297v-2h204z" />
    <glyph glyph-name="five.oldtab" horiz-adv-x="612" 
d="M296 -173q-48 0 -91 14t-74.5 41t-49.5 66.5t-16 90.5l103 28q-2 -73 32 -118.5t94 -45.5t94.5 45.5t33.5 120.5q0 39 -9.5 68t-26 48.5t-38 29.5t-46.5 10q-45 0 -78.5 -28t-50.5 -69l-95 13l41 384h363v-84h-284l-21 -203q22 26 60.5 45.5t92.5 19.5q46 0 85.5 -15.5
t69 -45t46 -73t16.5 -98.5q0 -58 -20 -103t-54 -76.5t-80 -48t-97 -16.5z" />
    <glyph glyph-name="six.oldtab" horiz-adv-x="612" 
d="M310 -12q-60 0 -108 20.5t-81 65.5q-31 40 -47.5 98.5t-16.5 138.5q0 79 15 146.5t47 117t82 77.5t121 28q43 0 80.5 -11.5t65 -34.5t43 -58t15.5 -83l-99 -15q1 35 -7.5 59t-23.5 39t-35 21.5t-42 6.5q-42 0 -70 -20t-45 -53.5t-25 -77t-10 -89.5h4q25 38 66.5 62.5
t100.5 24.5q47 0 86.5 -15t68 -44t44.5 -71t16 -95q0 -55 -19 -99t-52 -75t-77.5 -47.5t-96.5 -16.5zM308 64q55 0 88.5 40.5t33.5 115.5q0 69 -29.5 111.5t-88.5 42.5q-27 0 -50 -10t-40 -29.5t-26.5 -48.5t-9.5 -66q0 -32 7 -60t21 -48q15 -23 38.5 -35.5t55.5 -12.5z" />
    <glyph glyph-name="seven.oldtab" horiz-adv-x="612" 
d="M406 445h-324v80h439v-77l-264 -560h-122z" />
    <glyph glyph-name="eight.oldtab" horiz-adv-x="612" 
d="M306 -12q-64 0 -110.5 15.5t-77 41.5t-45 59.5t-14.5 69.5q0 31 12 57.5t32 47.5t47.5 35.5t59.5 22.5v4q-24 6 -48 20t-42.5 34.5t-30.5 47t-12 57.5q0 36 15 68.5t44 57.5t71.5 39.5t98.5 14.5q55 0 97.5 -14.5t72 -39.5t44.5 -57.5t15 -68.5q0 -31 -11.5 -57.5
t-30.5 -47.5t-42 -35t-47 -19v-4q32 -8 59 -22.5t47 -35.5t31.5 -47.5t11.5 -57.5q0 -36 -14.5 -69.5t-45 -59.5t-77 -41.5t-110.5 -15.5zM306 377q46 0 78.5 31.5t32.5 83.5q0 51 -30 82t-81 31t-81 -31t-30 -82q0 -52 32.5 -83.5t78.5 -31.5zM306 64q56 0 89.5 33.5
t33.5 85.5q0 51 -33.5 85t-89.5 34q-28 0 -50.5 -9t-39 -25t-25.5 -38t-9 -47q0 -52 33.5 -85.5t90.5 -33.5z" />
    <glyph glyph-name="nine.oldtab" horiz-adv-x="612" 
d="M301 144q54 0 90 39.5t36 115.5q0 35 -8.5 64.5t-24.5 51.5q-15 20 -37.5 32t-51.5 12q-55 0 -88.5 -42t-33.5 -117q0 -69 29 -112.5t89 -43.5zM291 -173q-41 0 -77 10t-64 31t-46 52t-22 73l99 20q1 -31 11.5 -52t26 -34t35 -18.5t39.5 -5.5q42 0 70 22t44.5 58t24 81
t9.5 90h-4q-24 -39 -65 -63t-100 -24q-47 0 -86 15.5t-67.5 44.5t-44.5 71.5t-16 95.5q0 55 18.5 99.5t51 76t77.5 48.5t98 17q55 0 100 -18.5t78 -58.5q35 -41 54.5 -103t19.5 -150q0 -81 -14.5 -150t-46 -119.5t-81.5 -79.5t-122 -29z" />
    <glyph glyph-name="zero.num" horiz-adv-x="420" 
d="M210 323q-42 0 -73 16t-51.5 44t-30 64t-9.5 77t9.5 77.5t30 64.5t51.5 44t73 16t73.5 -16t51.5 -44t30 -64.5t10 -77.5t-10 -77t-30 -64t-51.5 -44t-73.5 -16zM210 382q40 0 59 36.5t19 105.5t-19 106.5t-59 37.5t-58.5 -37.5t-18.5 -106.5t18.5 -105.5t58.5 -36.5z" />
    <glyph glyph-name="one.num" horiz-adv-x="276" 
d="M116 332v286h-77v52l37 3q26 3 39 14t22 35h62v-390h-83z" />
    <glyph glyph-name="two.num" horiz-adv-x="383" 
d="M48 386q51 27 89.5 50.5t63.5 48t37.5 51.5t12.5 59q0 35 -17 54t-46 19q-22 0 -38 -11t-24 -30.5t-7.5 -47t12.5 -60.5l-79 8q-14 40 -10.5 76t21.5 63.5t50.5 43.5t77.5 16q67 0 107 -35.5t40 -95.5q0 -34 -13 -63t-36 -53.5t-54.5 -45t-67.5 -36.5v-7h176v-58h-295v54
z" />
    <glyph glyph-name="three.num" horiz-adv-x="377" 
d="M186 323q-32 0 -60.5 8.5t-48.5 25t-31 42t-8 60.5l76 15q-2 -18 1.5 -35t12.5 -29.5t23.5 -20.5t34.5 -8q29 0 46 16.5t17 46.5q0 63 -78 63h-48v54h48q33 0 49 14t16 40t-16.5 39.5t-40.5 13.5q-32 0 -48 -20.5t-13 -54.5l-77 9q-2 33 9.5 56.5t31.5 38.5t47 22t56 7
q28 0 53 -7t43.5 -20.5t29.5 -32t11 -42.5q0 -38 -24 -58t-56 -27v-6q37 -6 65.5 -29.5t28.5 -66.5q0 -51 -39.5 -82.5t-110.5 -31.5z" />
    <glyph glyph-name="four.num" horiz-adv-x="381" 
d="M212 409h-188v51l174 261h96v-255h56v-57h-56v-76h-82v76zM212 637h-5l-110 -166v-5h115v171z" />
    <glyph glyph-name="five.num" horiz-adv-x="382" 
d="M192 323q-30 0 -57 9t-46.5 26t-30.5 41t-9 53l77 16q-4 -33 14 -59t52 -26q30 0 47 22.5t17 64.5q0 38 -17.5 59t-46.5 21q-26 0 -43.5 -15t-27.5 -35l-61 14l26 204h218v-57h-168l-12 -91q14 16 35.5 26t50.5 10q59 0 96.5 -36.5t37.5 -99.5q0 -68 -42.5 -107.5
t-109.5 -39.5z" />
    <glyph glyph-name="six.num" horiz-adv-x="390" 
d="M200 323q-34 0 -63 13t-51 39q-19 24 -29.5 58.5t-10.5 81.5q0 46 10 84.5t30 66.5t50 44t70 16q24 0 46.5 -5.5t40 -18t28.5 -32t14 -46.5l-73 -12q0 26 -16 41t-42 15q-22 0 -38 -10.5t-25.5 -28t-14 -40t-4.5 -45.5l3 -2q15 23 40.5 37t58.5 14q53 0 89 -34.5
t36 -94.5q0 -32 -11.5 -57.5t-31.5 -44.5t-47 -29t-59 -10zM199 382q29 0 47.5 21t18.5 59q0 35 -16.5 56.5t-45.5 21.5t-49 -20.5t-20 -58.5t19 -58.5t46 -20.5z" />
    <glyph glyph-name="seven.num" horiz-adv-x="300" 
d="M45 332l148 327h-176v59h259v-47l-147 -339h-84z" />
    <glyph glyph-name="eight.num" horiz-adv-x="394" 
d="M198 323q-76 0 -116.5 33t-40.5 78q0 36 23.5 60t65.5 34v4q-37 11 -55.5 32t-18.5 56q0 47 37.5 76.5t104.5 29.5q66 0 104.5 -29.5t38.5 -76.5q0 -35 -20 -56t-56 -32v-4q42 -10 65 -34t23 -60q0 -45 -40 -78t-115 -33zM198 558q29 0 45 16t16 39q0 24 -15.5 40
t-45.5 16q-31 0 -46 -16t-15 -40q0 -23 16 -39t45 -16zM198 380q32 0 50.5 18t18.5 45q0 26 -18.5 42t-50.5 16t-51.5 -16t-19.5 -42q0 -27 19 -45t52 -18z" />
    <glyph glyph-name="nine.num" horiz-adv-x="389" 
d="M192 668q-31 0 -49.5 -21.5t-18.5 -58.5q0 -36 16 -57t48 -21q29 0 48.5 20t19.5 58t-18.5 59t-45.5 21zM189 726q33 0 62 -12t51 -38q20 -23 31 -58.5t11 -83.5q0 -46 -10 -84.5t-30 -66.5t-50.5 -44t-70.5 -16q-23 0 -45 5.5t-40 18t-30 32t-14 46.5l74 12
q1 -25 16 -40.5t42 -15.5q22 0 37.5 11t25.5 28.5t14 40t3 45.5l-2 2q-16 -24 -40.5 -37.5t-57.5 -13.5q-26 0 -49 9t-40 25.5t-26.5 40.5t-9.5 54q0 31 11.5 57t31 44.5t46.5 28.5t59 10z" />
    <glyph glyph-name="zero.den" horiz-adv-x="420" 
d="M210 -8q-42 0 -73 16t-51.5 44t-30 64t-9.5 77t9.5 77.5t30 64.5t51.5 44t73 16t73.5 -16t51.5 -44t30 -64.5t10 -77.5t-10 -77t-30 -64t-51.5 -44t-73.5 -16zM210 51q40 0 59 36.5t19 105.5t-19 106.5t-59 37.5t-58.5 -37.5t-18.5 -106.5t18.5 -105.5t58.5 -36.5z" />
    <glyph glyph-name="one.den" horiz-adv-x="276" 
d="M116 1v286h-77v52l37 3q26 3 39 14t22 35h62v-390h-83z" />
    <glyph glyph-name="two.den" horiz-adv-x="383" 
d="M48 55q51 27 89.5 50.5t63.5 48t37.5 51.5t12.5 59q0 35 -17 54t-46 19q-22 0 -38 -11t-24 -30.5t-7.5 -47t12.5 -60.5l-79 8q-14 40 -10.5 76t21.5 63.5t50.5 43.5t77.5 16q67 0 107 -35.5t40 -95.5q0 -34 -13 -63t-36 -53.5t-54.5 -45t-67.5 -36.5v-7h176v-58h-295v54z
" />
    <glyph glyph-name="three.den" horiz-adv-x="377" 
d="M186 -8q-32 0 -60.5 8.5t-48.5 25t-31 42t-8 60.5l76 15q-2 -18 1.5 -35t12.5 -29.5t23.5 -20.5t34.5 -8q29 0 46 16.5t17 46.5q0 63 -78 63h-48v54h48q33 0 49 14t16 40t-16.5 39.5t-40.5 13.5q-32 0 -48 -20.5t-13 -54.5l-77 9q-2 33 9.5 56.5t31.5 38.5t47 22t56 7
q28 0 53 -7t43.5 -20.5t29.5 -32t11 -42.5q0 -38 -24 -58t-56 -27v-6q37 -6 65.5 -29.5t28.5 -66.5q0 -51 -39.5 -82.5t-110.5 -31.5z" />
    <glyph glyph-name="four.den" horiz-adv-x="381" 
d="M212 77h-188v51l174 261h96v-255h56v-57h-56v-76h-82v76zM212 305h-5l-110 -166v-5h115v171z" />
    <glyph glyph-name="five.den" horiz-adv-x="382" 
d="M192 -8q-30 0 -57 9t-46.5 26t-30.5 41t-9 53l77 16q-4 -33 14 -59t52 -26q30 0 47 22.5t17 64.5q0 38 -17.5 59t-46.5 21q-26 0 -43.5 -15t-27.5 -35l-61 14l26 204h218v-57h-168l-12 -91q14 16 35.5 26t50.5 10q59 0 96.5 -36.5t37.5 -99.5q0 -68 -42.5 -107.5
t-109.5 -39.5z" />
    <glyph glyph-name="six.den" horiz-adv-x="390" 
d="M200 -8q-34 0 -63 13t-51 39q-19 24 -29.5 58.5t-10.5 81.5q0 46 10 84.5t30 66.5t50 44t70 16q24 0 46.5 -5.5t40 -18t28.5 -32t14 -46.5l-73 -12q0 26 -16 41t-42 15q-22 0 -38 -10.5t-25.5 -28t-14 -40t-4.5 -45.5l3 -2q15 23 40.5 37t58.5 14q53 0 89 -34.5t36 -94.5
q0 -32 -11.5 -57.5t-31.5 -44.5t-47 -29t-59 -10zM199 51q29 0 47.5 21t18.5 59q0 35 -16.5 56.5t-45.5 21.5t-49 -20.5t-20 -58.5t19 -58.5t46 -20.5z" />
    <glyph glyph-name="seven.den" horiz-adv-x="300" 
d="M45 1l148 327h-176v59h259v-47l-147 -339h-84z" />
    <glyph glyph-name="eight.den" horiz-adv-x="394" 
d="M198 -8q-76 0 -116.5 33t-40.5 78q0 36 23.5 60t65.5 34v4q-37 11 -55.5 32t-18.5 56q0 47 37.5 76.5t104.5 29.5q66 0 104.5 -29.5t38.5 -76.5q0 -35 -20 -56t-56 -32v-4q42 -10 65 -34t23 -60q0 -45 -40 -78t-115 -33zM198 227q29 0 45 16t16 39q0 24 -15.5 40
t-45.5 16q-31 0 -46 -16t-15 -40q0 -23 16 -39t45 -16zM198 49q32 0 50.5 18t18.5 45q0 26 -18.5 42t-50.5 16t-51.5 -16t-19.5 -42q0 -27 19 -45t52 -18z" />
    <glyph glyph-name="nine.den" horiz-adv-x="389" 
d="M192 337q-31 0 -49.5 -21.5t-18.5 -58.5q0 -36 16 -57t48 -21q29 0 48.5 20t19.5 58t-18.5 59t-45.5 21zM189 395q33 0 62 -12t51 -38q20 -23 31 -58.5t11 -83.5q0 -46 -10 -84.5t-30 -66.5t-50.5 -44t-70.5 -16q-23 0 -45 5.5t-40 18t-30 32t-14 46.5l74 12
q1 -25 16 -40.5t42 -15.5q22 0 37.5 11t25.5 28.5t14 40t3 45.5l-2 2q-16 -24 -40.5 -37.5t-57.5 -13.5q-26 0 -49 9t-40 25.5t-26.5 40.5t-9.5 54q0 31 11.5 57t31 44.5t46.5 28.5t59 10z" />
    <glyph glyph-name="zero.sub" horiz-adv-x="420" 
d="M210 -127q-42 0 -73 16t-51.5 44t-30 64t-9.5 77t9.5 77.5t30 64.5t51.5 44t73 16t73.5 -16t51.5 -44t30 -64.5t10 -77.5t-10 -77t-30 -64t-51.5 -44t-73.5 -16zM210 -68q40 0 59 36.5t19 105.5t-19 106.5t-59 37.5t-58.5 -37.5t-18.5 -106.5t18.5 -105.5t58.5 -36.5z
" />
    <glyph glyph-name="one.sub" horiz-adv-x="276" 
d="M116 -118v286h-77v52l37 3q26 3 39 14t22 35h62v-390h-83z" />
    <glyph glyph-name="two.sub" horiz-adv-x="383" 
d="M48 -64q51 27 89.5 50.5t63.5 48t37.5 51.5t12.5 59q0 35 -17 54t-46 19q-22 0 -38 -11t-24 -30.5t-7.5 -47t12.5 -60.5l-79 8q-14 40 -10.5 76t21.5 63.5t50.5 43.5t77.5 16q67 0 107 -35.5t40 -95.5q0 -34 -13 -63t-36 -53.5t-54.5 -45t-67.5 -36.5v-7h176v-58h-295v54
z" />
    <glyph glyph-name="three.sub" horiz-adv-x="377" 
d="M186 -127q-32 0 -60.5 8.5t-48.5 25t-31 42t-8 60.5l76 15q-2 -18 1.5 -35t12.5 -29.5t23.5 -20.5t34.5 -8q29 0 46 16.5t17 46.5q0 63 -78 63h-48v54h48q33 0 49 14t16 40t-16.5 39.5t-40.5 13.5q-32 0 -48 -20.5t-13 -54.5l-77 9q-2 33 9.5 56.5t31.5 38.5t47 22t56 7
q28 0 53 -7t43.5 -20.5t29.5 -32t11 -42.5q0 -38 -24 -58t-56 -27v-6q37 -6 65.5 -29.5t28.5 -66.5q0 -51 -39.5 -82.5t-110.5 -31.5z" />
    <glyph glyph-name="four.sub" horiz-adv-x="381" 
d="M212 -42h-188v51l174 261h96v-255h56v-57h-56v-76h-82v76zM212 186h-5l-110 -166v-5h115v171z" />
    <glyph glyph-name="five.sub" horiz-adv-x="382" 
d="M192 -127q-30 0 -57 9t-46.5 26t-30.5 41t-9 53l77 16q-4 -33 14 -59t52 -26q30 0 47 22.5t17 64.5q0 38 -17.5 59t-46.5 21q-26 0 -43.5 -15t-27.5 -35l-61 14l26 204h218v-57h-168l-12 -91q14 16 35.5 26t50.5 10q59 0 96.5 -36.5t37.5 -99.5q0 -68 -42.5 -107.5
t-109.5 -39.5z" />
    <glyph glyph-name="six.sub" horiz-adv-x="390" 
d="M200 -127q-34 0 -63 13t-51 39q-19 24 -29.5 58.5t-10.5 81.5q0 46 10 84.5t30 66.5t50 44t70 16q24 0 46.5 -5.5t40 -18t28.5 -32t14 -46.5l-73 -12q0 26 -16 41t-42 15q-22 0 -38 -10.5t-25.5 -28t-14 -40t-4.5 -45.5l3 -2q15 23 40.5 37t58.5 14q53 0 89 -34.5
t36 -94.5q0 -32 -11.5 -57.5t-31.5 -44.5t-47 -29t-59 -10zM199 -68q29 0 47.5 21t18.5 59q0 35 -16.5 56.5t-45.5 21.5t-49 -20.5t-20 -58.5t19 -58.5t46 -20.5z" />
    <glyph glyph-name="seven.sub" horiz-adv-x="300" 
d="M45 -118l148 327h-176v59h259v-47l-147 -339h-84z" />
    <glyph glyph-name="eight.sub" horiz-adv-x="394" 
d="M198 -127q-76 0 -116.5 33t-40.5 78q0 36 23.5 60t65.5 34v4q-37 11 -55.5 32t-18.5 56q0 47 37.5 76.5t104.5 29.5q66 0 104.5 -29.5t38.5 -76.5q0 -35 -20 -56t-56 -32v-4q42 -10 65 -34t23 -60q0 -45 -40 -78t-115 -33zM198 108q29 0 45 16t16 39q0 24 -15.5 40
t-45.5 16q-31 0 -46 -16t-15 -40q0 -23 16 -39t45 -16zM198 -70q32 0 50.5 18t18.5 45q0 26 -18.5 42t-50.5 16t-51.5 -16t-19.5 -42q0 -27 19 -45t52 -18z" />
    <glyph glyph-name="nine.sub" horiz-adv-x="389" 
d="M192 218q-31 0 -49.5 -21.5t-18.5 -58.5q0 -36 16 -57t48 -21q29 0 48.5 20t19.5 58t-18.5 59t-45.5 21zM189 276q33 0 62 -12t51 -38q20 -23 31 -58.5t11 -83.5q0 -46 -10 -84.5t-30 -66.5t-50.5 -44t-70.5 -16q-23 0 -45 5.5t-40 18t-30 32t-14 46.5l74 12
q1 -25 16 -40.5t42 -15.5q22 0 37.5 11t25.5 28.5t14 40t3 45.5l-2 2q-16 -24 -40.5 -37.5t-57.5 -13.5q-26 0 -49 9t-40 25.5t-26.5 40.5t-9.5 54q0 31 11.5 57t31 44.5t46.5 28.5t59 10z" />
    <glyph glyph-name="plus.sub" horiz-adv-x="326" 
d="M132 14h-93v55h93v98h62v-98h93v-55h-93v-98h-62v98z" />
    <glyph glyph-name="minus.sub" horiz-adv-x="326" 
d="M39 14v55h248v-55h-248z" />
    <glyph glyph-name="zero.sup" horiz-adv-x="420" 
d="M210 389q-42 0 -73 16t-51.5 44t-30 64t-9.5 77t9.5 77.5t30 64.5t51.5 44t73 16t73.5 -16t51.5 -44t30 -64.5t10 -77.5t-10 -77t-30 -64t-51.5 -44t-73.5 -16zM210 448q40 0 59 36.5t19 105.5t-19 106.5t-59 37.5t-58.5 -37.5t-18.5 -106.5t18.5 -105.5t58.5 -36.5z" />
    <glyph glyph-name="one.sup" horiz-adv-x="276" 
d="M116 398v286h-77v52l37 3q26 3 39 14t22 35h62v-390h-83z" />
    <glyph glyph-name="two.sup" horiz-adv-x="384" 
d="M48 452q51 27 89.5 50.5t63.5 48t37.5 51.5t12.5 59q0 35 -17 54t-46 19q-22 0 -38 -11t-24 -30.5t-7.5 -47t12.5 -60.5l-79 8q-14 40 -10.5 76t21.5 63.5t50.5 43.5t77.5 16q67 0 107 -35.5t40 -95.5q0 -34 -13 -63t-36 -53.5t-54.5 -45t-67.5 -36.5v-7h176v-58h-295v54
z" />
    <glyph glyph-name="three.sup" horiz-adv-x="377" 
d="M186 389q-32 0 -60.5 8.5t-48.5 25t-31 42t-8 60.5l76 15q-2 -18 1.5 -35t12.5 -29.5t23.5 -20.5t34.5 -8q29 0 46 16.5t17 46.5q0 63 -78 63h-48v54h48q33 0 49 14t16 40t-16.5 39.5t-40.5 13.5q-32 0 -48 -20.5t-13 -54.5l-77 9q-2 33 9.5 56.5t31.5 38.5t47 22t56 7
q28 0 53 -7t43.5 -20.5t29.5 -32t11 -42.5q0 -38 -24 -58t-56 -27v-6q37 -6 65.5 -29.5t28.5 -66.5q0 -51 -39.5 -82.5t-110.5 -31.5z" />
    <glyph glyph-name="four.sup" horiz-adv-x="380" 
d="M212 474h-188v51l174 261h96v-255h56v-57h-56v-76h-82v76zM212 702h-5l-110 -166v-5h115v171z" />
    <glyph glyph-name="five.sup" horiz-adv-x="382" 
d="M192 389q-30 0 -57 9t-46.5 26t-30.5 41t-9 53l77 16q-4 -33 14 -59t52 -26q30 0 47 22.5t17 64.5q0 38 -17.5 59t-46.5 21q-26 0 -43.5 -15t-27.5 -35l-61 14l26 204h218v-57h-168l-12 -91q14 16 35.5 26t50.5 10q59 0 96.5 -36.5t37.5 -99.5q0 -68 -42.5 -107.5
t-109.5 -39.5z" />
    <glyph glyph-name="six.sup" horiz-adv-x="390" 
d="M200 389q-34 0 -63 13t-51 39q-19 24 -29.5 58.5t-10.5 81.5q0 46 10 84.5t30 66.5t50 44t70 16q24 0 46.5 -5.5t40 -18t28.5 -32t14 -46.5l-73 -12q0 26 -16 41t-42 15q-22 0 -38 -10.5t-25.5 -28t-14 -40t-4.5 -45.5l3 -2q15 23 40.5 37t58.5 14q53 0 89 -34.5
t36 -94.5q0 -32 -11.5 -57.5t-31.5 -44.5t-47 -29t-59 -10zM199 448q29 0 47.5 21t18.5 59q0 35 -16.5 56.5t-45.5 21.5t-49 -20.5t-20 -58.5t19 -58.5t46 -20.5z" />
    <glyph glyph-name="seven.sup" horiz-adv-x="300" 
d="M45 398l148 327h-176v59h259v-47l-147 -339h-84z" />
    <glyph glyph-name="eight.sup" horiz-adv-x="394" 
d="M198 389q-76 0 -116.5 33t-40.5 78q0 36 23.5 60t65.5 34v4q-37 11 -55.5 32t-18.5 56q0 47 37.5 76.5t104.5 29.5q66 0 104.5 -29.5t38.5 -76.5q0 -35 -20 -56t-56 -32v-4q42 -10 65 -34t23 -60q0 -45 -40 -78t-115 -33zM198 624q29 0 45 16t16 39q0 24 -15.5 40
t-45.5 16q-31 0 -46 -16t-15 -40q0 -23 16 -39t45 -16zM198 446q32 0 50.5 18t18.5 45q0 26 -18.5 42t-50.5 16t-51.5 -16t-19.5 -42q0 -27 19 -45t52 -18z" />
    <glyph glyph-name="nine.sup" horiz-adv-x="389" 
d="M192 734q-31 0 -49.5 -21.5t-18.5 -58.5q0 -36 16 -57t48 -21q29 0 48.5 20t19.5 58t-18.5 59t-45.5 21zM189 792q33 0 62 -12t51 -38q20 -23 31 -58.5t11 -83.5q0 -46 -10 -84.5t-30 -66.5t-50.5 -44t-70.5 -16q-23 0 -45 5.5t-40 18t-30 32t-14 46.5l74 12
q1 -25 16 -40.5t42 -15.5q22 0 37.5 11t25.5 28.5t14 40t3 45.5l-2 2q-16 -24 -40.5 -37.5t-57.5 -13.5q-26 0 -49 9t-40 25.5t-26.5 40.5t-9.5 54q0 31 11.5 57t31 44.5t46.5 28.5t59 10z" />
    <glyph glyph-name="plus.sup" horiz-adv-x="326" 
d="M132 534h-93v55h93v98h62v-98h93v-55h-93v-98h-62v98z" />
    <glyph glyph-name="minus.sup" horiz-adv-x="326" 
d="M39 534v55h248v-55h-248z" />
    <glyph glyph-name="registered.alt" horiz-adv-x="838" 
d="M420 -17q-75 0 -141.5 24.5t-116.5 71.5t-79 117t-29 162q0 91 29 161.5t79 117.5t116.5 71.5t141.5 24.5q74 0 140.5 -24.5t116 -71.5t78.5 -117.5t29 -161.5q0 -92 -29.5 -162t-79 -117t-115.5 -71.5t-140 -24.5zM420 36q64 0 119.5 21t96.5 61.5t65 100.5t24 139
t-24 139t-65 100.5t-96.5 61.5t-119.5 21q-65 0 -120.5 -21t-97 -61.5t-65.5 -100.5t-24 -139t23.5 -139t65 -100.5t97.5 -61.5t121 -21zM497 342q21 -8 32.5 -30t22.5 -50q6 -20 10.5 -32.5t8.5 -21t7 -13.5t8 -11v-14h-93q-3 7 -6.5 19.5t-8 27.5t-9 32t-9.5 32
q-8 25 -18.5 32.5t-36.5 7.5h-47v-150h-85v381h167q70 0 105 -29.5t35 -81.5q0 -39 -22.5 -61.5t-60.5 -33.5v-4zM434 380q32 0 45.5 16t13.5 42t-13.5 40t-45.5 14h-76v-112h76z" />
    <glyph glyph-name="caron.alt" horiz-adv-x="412" 
d="M262 782l-42 -172h-70l19 172h93z" />
    <glyph glyph-name="questiondown.uc" horiz-adv-x="509" 
d="M343.01 310.024h-68.9961q-58.9961 0 -93.4941 -30.498t-34.498 -94.4941q0 -52.9971 26.498 -86.4941q26.499 -33.498 83.4951 -33.498q56.9971 0 85.4951 33.998q28.498 33.9971 26.498 86.9941l110.993 -25.998q-3 -35.998 -17.999 -67.9961t-42.4971 -55.9971
q-27.498 -23.998 -67.9961 -37.9971q-40.4971 -13.999 -94.4941 -13.999q-56.9961 0 -100.494 15.999q-43.4971 15.999 -72.4951 43.4971t-43.9971 63.9961t-14.999 77.4951q0 47.9971 16.499 83.9951t43.9971 60.9961q27.498 24.999 64.4961 39.998
q36.9971 14.999 77.9951 18.998l5.99902 99.9941h101.994zM348.009 716v-163.99h-128.992v163.99h128.992z" />
    <glyph glyph-name="exclamdown.uc" horiz-adv-x="297" 
d="M199.005 191.032v-190.988h-124.992v190.988l24.999 297.981h75.9951zM201.005 552.01h-128.992v163.99h128.992v-163.99z" />
    <glyph glyph-name="hyphen.uc" horiz-adv-x="311" 
d="M49 387h213v-91h-213v91z" />
    <glyph glyph-name="endash.uc" horiz-adv-x="568" 
d="M52 387h464v-91h-464v91z" />
    <glyph glyph-name="emdash.uc" horiz-adv-x="764" 
d="M52 387h660v-91h-660v91z" />
    <glyph glyph-name="guilsinglleft.uc" horiz-adv-x="285" 
d="M33 333l131 198h97l-112 -198l112 -197h-97z" />
    <glyph glyph-name="guilsinglright.uc" horiz-adv-x="285" 
d="M240.002 333l-130.992 198h-96.9941l111.993 -198l-111.993 -197h96.9941z" />
    <glyph glyph-name="guillemotleft.uc" horiz-adv-x="483" 
d="M231 333l131 198h97l-112 -198l112 -197h-97zM33 333l131 198h97l-112 -198l112 -197h-97z" />
    <glyph glyph-name="guillemotright.uc" horiz-adv-x="483" 
d="M438.002 333l-130.992 198h-96.9941l111.993 -198l-111.993 -197h96.9941zM240.002 333l-130.992 198h-96.9941l111.993 -198l-111.993 -197h96.9941z" />
    <glyph glyph-name="parenleft.uc" horiz-adv-x="333" 
d="M263 -66q-37 26 -74 66.5t-66.5 94.5t-48 120t-18.5 142t18.5 142t48 119.5t66.5 94t74 66.5l44 -46q-27 -30 -51 -67t-42.5 -82.5t-29.5 -102t-11 -125.5t11 -125t29.5 -102t42.5 -82.5t51 -67.5z" />
    <glyph glyph-name="parenright.uc" horiz-adv-x="333" 
d="M58.0156 -66q36.998 26 73.9961 66.5t66.4961 94.5t47.9971 120t18.499 142t-18.499 142t-47.9971 119.5t-66.4961 94t-73.9961 66.5l-43.9971 -46q26.999 -30 50.9971 -67t42.4971 -82.5t29.499 -102q10.999 -56.5 10.999 -125.5t-10.999 -125q-11 -56 -29.499 -102
t-42.4971 -82.5t-50.9971 -67.5z" />
    <glyph glyph-name="bracketleft.uc" horiz-adv-x="340" 
d="M80 767h217v-76h-110v-669h110v-76h-217v821z" />
    <glyph glyph-name="bracketright.uc" horiz-adv-x="340" 
d="M248.005 767h-216.986v-76h109.993v-669h-109.993v-76h216.986v821z" />
    <glyph glyph-name="braceleft.uc" horiz-adv-x="351" 
d="M257 -56q-85 0 -125.5 37t-40.5 95q0 27 8.5 51.5t18.5 47t18.5 43t8.5 40.5q0 24 -16 39.5t-49 20.5l-30 3v68l30 3q33 5 49 20.5t16 39.5q0 20 -8.5 41t-18.5 43.5t-18.5 47t-8.5 52.5q0 60 40.5 96.5t125.5 36.5h51v-73h-26q-30 0 -54.5 -16t-24.5 -58
q0 -19 5.5 -37.5t11.5 -37t11.5 -37.5t5.5 -38q0 -43 -25.5 -75.5t-78.5 -41.5q53 -8 78.5 -41t25.5 -75q0 -19 -5.5 -37.5t-11.5 -37t-11.5 -37t-5.5 -37.5q0 -21 6.5 -35.5t18 -23t25.5 -12t29 -3.5h26v-72h-51v0z" />
    <glyph glyph-name="braceright.uc" horiz-adv-x="351" 
d="M82.0156 -56q84.9951 0 125.492 37q40.498 37 40.498 95q0 27 -8.5 51.5q-8.49902 24.5 -18.499 47q-9.99902 22.5 -18.498 43q-8.5 20.5 -8.5 40.5q0 24 15.999 39.5t48.9971 20.5l29.998 3v68l-29.998 3q-32.998 5 -48.9971 20.5t-15.999 39.5q0 20 8.5 41
q8.49902 21 18.498 43.5q10 22.5 18.499 47q8.5 24.5 8.5 52.5q0 60 -40.498 96.5q-40.4971 36.5 -125.492 36.5h-50.9971v-73h25.999q29.998 0 54.4961 -16q24.499 -16 24.499 -58q0 -19 -5.5 -37.5t-11.499 -37q-6 -18.5 -11.5 -37.5q-5.49902 -19 -5.49902 -38
q0 -43 25.498 -75.5q25.499 -32.5 78.4951 -41.5q-52.9961 -8 -78.4951 -41q-25.498 -33 -25.498 -75q0 -19 5.49902 -37.5q5.5 -18.5 11.5 -37q5.99902 -18.5 11.499 -37t5.5 -37.5q0 -21 -6.5 -35.5q-6.49902 -14.5 -17.999 -23q-11.499 -8.5 -25.498 -12t-28.998 -3.5
h-25.999v-72h50.9971v0z" />
    <glyph glyph-name="slash.uc" horiz-adv-x="385" 
d="M258 767h96l-228 -821h-96z" />
    <glyph glyph-name="backslash.uc" horiz-adv-x="384" 
d="M32 767h95l227 -821h-96z" />
    <glyph glyph-name="bar.uc" horiz-adv-x="269" 
d="M89 -54v821h91v-821h-91z" />
    <glyph glyph-name="at.uc" horiz-adv-x="833" 
d="M414 -16q-84 0 -150.5 26.5t-113.5 73.5t-72 111.5t-25 140.5q0 79 28.5 151t80.5 126t125.5 86t163.5 32q73 0 133.5 -22.5t104 -63t67.5 -96.5t24 -122q0 -62 -19 -110.5t-48 -82t-64.5 -51t-68.5 -17.5q-42 0 -71.5 23.5t-33.5 70.5q-7 -17 -18 -34t-26.5 -30
t-35.5 -21t-44 -8q-56 0 -89 41.5t-33 109.5q0 42 12.5 84.5t36.5 77t58 56.5t77 22q25 0 43 -8t30 -21t18.5 -30.5t8.5 -36.5v2l36 84h62l-48 -242q-8 -38 2.5 -56.5t31.5 -18.5q19 0 39.5 14.5t37.5 41t27.5 62.5t10.5 79q0 53 -18.5 97.5t-52.5 77t-82 50.5t-106 18
q-75 0 -136 -27.5t-104 -74t-66.5 -107t-23.5 -126.5q0 -68 23 -122t62.5 -91.5t93 -57t114.5 -19.5q67 0 121.5 16t95.5 40l25 -54q-45 -29 -108.5 -46.5t-135.5 -17.5zM382 231q25 0 44.5 18.5t33 46t20.5 60t7 61.5q0 80 -51 80q-25 0 -45 -18.5t-33.5 -46t-20.5 -59.5
t-7 -60q0 -45 14 -63.5t38 -18.5z" />
    <glyph glyph-name="grave.uc" horiz-adv-x="412" 
d="M207 779l-105 128h136l62 -128h-93z" />
    <glyph glyph-name="dieresis.uc" horiz-adv-x="412" 
d="M53 901h112v-108h-112v108zM247 901h112v-108h-112v108z" />
    <glyph glyph-name="macron.uc" horiz-adv-x="412" 
d="M58 888h296v-88h-296v88z" />
    <glyph glyph-name="acute.uc" horiz-adv-x="412" 
d="M108 779l62 128h135l-105 -128h-92z" />
    <glyph glyph-name="circumflex.uc" horiz-adv-x="412" 
d="M204 840l-60 -61h-102l115 122h98l115 -122h-107z" />
    <glyph glyph-name="caron.uc" horiz-adv-x="424" 
d="M173 778l-115 122h107l59 -61l60 61h102l-115 -122h-98z" />
    <glyph glyph-name="breve.uc" horiz-adv-x="412" 
d="M206 777q-57 0 -96 27.5t-57 84.5l51 27q17 -26 40.5 -38t61.5 -12t61.5 12t40.5 38l51 -27q-18 -57 -57 -84.5t-96 -27.5z" />
    <glyph glyph-name="dotaccent.uc" horiz-adv-x="412" 
d="M145 905h123v-112h-123v112z" />
    <glyph glyph-name="ring.uc" horiz-adv-x="412" 
d="M311 853q0 -45 -29 -72t-76 -27q-46 0 -75 27t-29 72q0 44 29 72t75 28q47 0 76 -28t29 -72zM162 853q0 -23 12.5 -34.5t31.5 -11.5t32 11.5t13 34.5t-13 35t-32 12t-31.5 -12t-12.5 -35z" />
    <glyph glyph-name="tilde.uc" horiz-adv-x="412" 
d="M45 786q-4 51 20 85.5t69 34.5q21 0 40.5 -6.5t37.5 -14t34.5 -14t30.5 -6.5q20 0 29 12.5t11 32.5l51 -10q2 -51 -21 -85.5t-69 -34.5q-21 0 -40.5 6.5t-37.5 14t-34 14t-30 6.5q-20 0 -29 -12t-12 -32z" />
    <glyph glyph-name="hungarumlaut.uc" horiz-adv-x="412" 
d="M38 779l54 128h118l-91 -128h-81zM203 779l54 128h118l-91 -128h-81z" />
    <glyph glyph-name="cent.oldtab" horiz-adv-x="612" 
d="M193 260q0 -79 23 -128.5t72 -63.5v383q-46 -14 -70.5 -63t-24.5 -128zM535 161q-8 -31 -21.5 -59.5t-34.5 -51t-50 -38t-68 -21.5v-110h-73v107q-53 4 -93.5 25.5t-68.5 57t-42 83.5t-14 106q0 57 15.5 104.5t44 83t68.5 57t90 26.5v100h73v-101q78 -10 117.5 -54.5
t55.5 -108.5l-84 -33q-9 42 -30 73.5t-59 42.5v-380q39 13 59.5 47.5t29.5 76.5z" />
    <glyph glyph-name="f.short" horiz-adv-x="354" 
d="M113 442h-83v83h83v88q0 40 9 68t24.5 46.5t36 29t44.5 16.5q23 5 51 7t63 2v-88q-28 0 -43.5 -1.5t-27.5 -6.5q-21 -9 -29.5 -29t-8.5 -60v-72h109v-83h-109v-442h-119v442z" />
    <glyph glyph-name="f_f.short" horiz-adv-x="657" 
d="M416 442h-184v-442h-119v442h-83v83h83v78q0 40 9 68t24.5 46.5t36.5 29t44 16.5q28 7 57.5 8t75.5 1v-88q-33 0 -53.5 -1t-36.5 -7q-21 -8 -29.5 -28.5t-8.5 -60.5v-62h184v88q0 40 9 68t24.5 46.5t36 29t44.5 16.5q23 5 51 7t63 2v-88q-28 0 -43.5 -1.5t-27.5 -6.5
q-21 -9 -29.5 -29t-8.5 -60v-72h109v-83h-109v-442h-119v442z" />
    <glyph glyph-name="idotaccent" horiz-adv-x="266" 
d="M73 717h119v-113h-119v113zM73 525h119v-525h-119v525z" />
    </font>
</defs>
</svg>
