<?xml version="1.0" standalone="no"?>
<!DOCTYPE svg PUBLIC "-//W3C//DTD SVG 1.1//EN" "http://www.w3.org/Graphics/SVG/1.1/DTD/svg11.dtd" >
<svg xmlns="http://www.w3.org/2000/svg" xmlns:xlink="http://www.w3.org/1999/xlink" version="1.1">
<metadata>
Created by FontForge 20170731 at Thu Dec 17 21:30:52 2015
 By Aleksey,,,
Copyright (c)2014 Commercial Type.
</metadata>
<defs>
<font id="MarrSansWeb-Semibold" horiz-adv-x="652" >
  <font-face 
    font-family="Marr Sans Web Semibold"
    font-weight="600"
    font-stretch="normal"
    units-per-em="1000"
    panose-1="0 0 0 0 0 0 0 0 0 0"
    ascent="773"
    descent="-227"
    x-height="531"
    cap-height="716"
    bbox="-194 -273 1214 1110"
    underline-thickness="69"
    underline-position="-125"
    unicode-range="U+0020-FB02"
  />
<missing-glyph horiz-adv-x="473" 
d="M56 146l294 636h42l-336 -727v91zM56 347l201 435h42l-243 -527v92zM56 782h58l-58 -127v127zM56 547l109 235h42l-151 -327v92zM417 727v-91l-294 -636h-42zM417 527v-91l-201 -436h-43zM417 328v-92l-109 -236h-42zM417 128v-128h-59z" />
    <glyph glyph-name="f_f" unicode="ff" horiz-adv-x="697" 
d="M423 431h-166v-431h-154v431h-76v100h76v62q0 43 10.5 73t28 49.5t39.5 30.5t45 16q15 3 28.5 5t30 3t37.5 1.5t50 0.5v-110q-33 0 -50.5 -1.5t-31.5 -6.5q-20 -7 -26.5 -26.5t-6.5 -52.5v-44h166v72q0 43 10.5 73t28 49.5t39.5 30.5t45 16q15 3 30 5t33 3t40.5 1.5
t51.5 0.5v-110q-33 0 -55 -1.5t-36 -6.5q-20 -7 -26.5 -26.5t-6.5 -52.5v-54h101v-100h-101v-431h-154v431z" />
    <glyph glyph-name="f_i" unicode="fi" horiz-adv-x="639" 
d="M422 734h154v-136h-154v136zM422 531h154v-531h-154v531zM103 431h-76v100h76v72q0 43 10.5 73t27.5 49.5t39 30.5t45 16q49 10 133 10v-110q-26 -1 -41.5 -2t-26.5 -6q-20 -8 -26.5 -27t-6.5 -52v-54h101v-100h-101v-431h-154v431z" />
    <glyph glyph-name="f_l" unicode="fl" horiz-adv-x="639" 
d="M422 782h154v-782h-154v782zM103 431h-76v100h76v72q0 43 10.5 73t27.5 49.5t39 30.5t45 16q49 10 133 10v-110q-26 -1 -41.5 -2t-26.5 -6q-20 -8 -26.5 -27t-6.5 -52v-54h101v-100h-101v-431h-154v431z" />
    <glyph glyph-name=".notdef" horiz-adv-x="473" 
d="M56 146l294 636h42l-336 -727v91zM56 347l201 435h42l-243 -527v92zM56 782h58l-58 -127v127zM56 547l109 235h42l-151 -327v92zM417 727v-91l-294 -636h-42zM417 527v-91l-201 -436h-43zM417 328v-92l-109 -236h-42zM417 128v-128h-59z" />
    <glyph glyph-name=".null" horiz-adv-x="0" 
 />
    <glyph glyph-name="nonmarkingreturn" horiz-adv-x="333" 
 />
    <glyph glyph-name="space" unicode=" " horiz-adv-x="184" 
 />
    <glyph glyph-name="exclam" unicode="!" horiz-adv-x="313" 
d="M75 547v169h163v-169l-30 -309h-104zM73 178h166v-178h-166v178z" />
    <glyph glyph-name="quotedbl" unicode="&#x22;" horiz-adv-x="476" 
d="M309 435l-38 184v97h148v-97l-37 -184h-73zM94 435l-38 184v97h148v-97l-37 -184h-73z" />
    <glyph glyph-name="numbersign" unicode="#" horiz-adv-x="638" 
d="M275 431l-23 -122h117l23 122h-117zM132 196h-94v113h116l23 122h-94v113h115l33 171h98l-33 -171h117l33 171h99l-33 -171h87v-113h-108l-23 -122h102v-113h-124l-37 -195h-99l37 195h-117l-37 -195h-98z" />
    <glyph glyph-name="dollar" unicode="$" horiz-adv-x="634" 
d="M198 552q0 -34 22 -54.5t60 -34.5v165q-42 -5 -62 -26t-20 -50zM446 172q0 34 -24.5 55t-67.5 38v-176q42 5 67 25t25 58zM275 -119v106q-101 14 -162.5 78.5t-72.5 167.5l114 19q5 -66 38 -106t83 -53v199q-53 17 -93.5 38t-68.5 48t-42.5 62t-14.5 80q0 41 14 78
t42.5 65t70 46t97.5 22v104h79v-107q86 -12 138 -64.5t62 -146.5l-112 -22q-3 48 -26 79.5t-62 45.5v-184q52 -17 95 -36.5t74.5 -45.5t49 -60t17.5 -80q0 -97 -61.5 -159t-179.5 -70v-104h-79z" />
    <glyph glyph-name="percent" unicode="%" horiz-adv-x="843" 
d="M138 0l465 738h114l-465 -738h-114zM25 538q0 45 13.5 81t37 62t56 40t70.5 14t70 -14t55.5 -40t37 -62t13.5 -81t-13.5 -81t-37 -61.5t-55.5 -39.5t-70 -14t-70.5 14t-56 39.5t-37 61.5t-13.5 81zM145 538q0 -61 13 -90t44 -29q30 0 42.5 29t12.5 90q0 62 -12.5 91.5
t-42.5 29.5q-31 0 -44 -29.5t-13 -91.5zM641 -16q-38 0 -70 14t-55.5 39.5t-37 61.5t-13.5 81t13.5 81.5t37 62t55.5 39.5t70 14t70 -14t55.5 -39.5t37 -62t13.5 -81.5t-13.5 -81t-37 -61.5t-55.5 -39.5t-70 -14zM641 61q31 0 43 29.5t12 89.5q0 63 -12 92t-43 29t-43.5 -29
t-12.5 -92q0 -60 12.5 -89.5t43.5 -29.5z" />
    <glyph glyph-name="ampersand" unicode="&#x26;" horiz-adv-x="693" 
d="M623 -16q-60 0 -101.5 20.5t-73.5 50.5q-32 -28 -77 -49.5t-113 -21.5q-44 0 -85 11.5t-72 35t-49.5 59.5t-18.5 86q0 40 13 73t34.5 59.5t50.5 47t61 35.5q-27 40 -44 84.5t-17 89.5q0 42 15 73.5t40.5 52t59.5 31t73 10.5q42 0 75.5 -12t56 -33t34.5 -50.5t12 -63.5
q0 -33 -11 -61t-30 -51.5t-43 -42.5t-51 -34q28 -41 58 -83t54 -74q17 42 24 89t9 88h109q-1 -26 -5 -58t-12.5 -66t-22.5 -69.5t-34 -68.5q20 -22 41.5 -36t53.5 -15q8 0 14.5 1t12.5 2l5 -106q-9 -2 -22.5 -3t-23.5 -1zM314 454q32 22 49.5 51.5t17.5 61.5q0 33 -16 49.5
t-43 16.5q-29 0 -43 -17.5t-14 -44.5q0 -29 14.5 -57t33.5 -58zM285 78q35 0 59.5 12t44.5 30q-3 6 -8 11q-12 15 -29 37.5t-36.5 49t-39.5 54t-38 52.5q-27 -24 -45 -57t-18 -81q0 -50 29 -79t81 -29z" />
    <glyph glyph-name="quotesingle" unicode="'" horiz-adv-x="261" 
d="M94 435l-38 184v97h148v-97l-37 -184h-73z" />
    <glyph glyph-name="parenleft" unicode="(" horiz-adv-x="376" 
d="M299 -147q-51 35 -96 82.5t-78.5 107.5t-53.5 133t-20 158t20 157.5t53.5 132.5t78.5 107t96 81l53 -57q-37 -39 -65 -82t-46.5 -94t-28 -111.5t-9.5 -134.5t9.5 -134.5t28 -111t46.5 -93.5t65 -83z" />
    <glyph glyph-name="parenright" unicode=")" horiz-adv-x="376" 
d="M65.0186 -147q50.9971 35 95.9941 82.5t78.4951 107.5t53.4961 133q19.999 73 19.999 158t-19.999 157.5q-19.998 72.5 -53.4961 132.5t-78.4951 107t-95.9941 81l-52.9971 -57q36.998 -39 64.9961 -82t46.4971 -94t27.998 -111.5q9.5 -60.5 9.5 -134.5t-9.5 -134.5
q-9.49902 -60.5 -27.998 -111t-46.4971 -93.5t-64.9961 -83z" />
    <glyph glyph-name="asterisk" unicode="*" horiz-adv-x="481" 
d="M64 441l106 117l-137 29l33 106l130 -58l-11 147h112l-12 -147l130 58l33 -106l-137 -29l105 -117l-91 -66l-84 131l-84 -131z" />
    <glyph glyph-name="plus" unicode="+" horiz-adv-x="547" 
d="M213 266h-161v112h161v167h121v-167h160v-112h-160v-167h-121v167z" />
    <glyph glyph-name="comma" unicode="," horiz-adv-x="320" 
d="M77 -70l92 63v30h-92v173h166v-265l-166 -115v114z" />
    <glyph glyph-name="hyphen" unicode="-" horiz-adv-x="331" 
d="M48 327h236v-109h-236v109z" />
    <glyph glyph-name="period" unicode="." horiz-adv-x="319" 
d="M77 196h165v-196h-165v196z" />
    <glyph glyph-name="slash" unicode="/" horiz-adv-x="417" 
d="M267 792h121l-252 -919h-121z" />
    <glyph glyph-name="zero" unicode="0" horiz-adv-x="690" 
d="M345 -16q-78 0 -134 31t-91.5 83t-52.5 119.5t-17 140.5t17 140.5t52.5 119.5t91.5 83t134 31t134 -31t92 -83t52.5 -119.5t16.5 -140.5t-16.5 -140.5t-52.5 -119.5t-92 -83t-134 -31zM345 84q37 0 62 18.5t40 54t21 86t6 115.5q0 64 -6 115t-21 86.5t-40 54t-62 18.5
t-62 -18.5t-40 -54t-21 -86.5t-6 -115q0 -65 6 -115.5t21 -86t40 -54t62 -18.5z" />
    <glyph glyph-name="one" unicode="1" horiz-adv-x="426" 
d="M170 0v532h-136v94l53 4q18 1 34 4.5t29 13t22.5 25.5t15.5 43h137v-716h-155z" />
    <glyph glyph-name="two" unicode="2" horiz-adv-x="635" 
d="M49 102q80 44 139 81t106 78q58 52 89 108t31 129q0 62 -26.5 98t-78.5 36q-58 0 -88.5 -42.5t-30.5 -114.5q0 -27 5 -61t17 -70l-141 16q-14 34 -19 64t-5 58q0 55 15.5 101t48 79t82.5 51.5t118 18.5q63 0 113 -17t84.5 -48t53 -74t18.5 -95q0 -72 -30.5 -129.5
t-84.5 -107.5q-43 -40 -99.5 -75t-118.5 -67v-8h350v-111h-548v102z" />
    <glyph glyph-name="three" unicode="3" horiz-adv-x="627" 
d="M309 -16q-49 0 -96.5 12t-84.5 37.5t-60 65.5t-23 97q0 10 1 21.5t3 23.5l152 34q-5 -17 -7 -32.5t-2 -35.5q0 -51 29.5 -87t88.5 -36q54 0 80 31.5t26 83.5q0 28 -6 51.5t-21.5 40.5t-41.5 27t-65 10h-88v97h87q66 0 92 30t26 78q0 47 -25 73t-69 26q-55 0 -85.5 -38.5
t-20.5 -111.5l-142 16q-5 61 13.5 105t53.5 72.5t83.5 42.5t105.5 14q55 0 100.5 -12.5t78.5 -36t51 -58t18 -78.5q0 -37 -12 -64.5t-33 -47.5t-49 -32t-61 -17v-8q38 -5 70 -18.5t55.5 -36.5t37 -55.5t13.5 -74.5q0 -45 -17.5 -83.5t-52 -66.5t-85.5 -43.5t-118 -15.5z" />
    <glyph glyph-name="four" unicode="4" horiz-adv-x="622" 
d="M352 149h-328v89l307 485h174v-473h97v-101h-97v-149h-153v149zM352 250v309h-4l-191 -304v-5h195z" />
    <glyph glyph-name="five" unicode="5" horiz-adv-x="621" 
d="M307 -16q-59 0 -108 16t-84 47t-53 75.5t-13 100.5l149 37q-6 -36 -2 -68t17.5 -55.5t36.5 -37.5t53 -14q59 0 84.5 46t25.5 126q0 156 -106 156q-45 0 -73.5 -30.5t-40.5 -72.5l-124 28l44 378h405v-109h-306l-17 -151q25 26 62.5 42t88.5 16q55 0 98.5 -18.5
t73.5 -52.5t45.5 -81.5t15.5 -104.5q0 -63 -20 -113.5t-56 -86t-86 -54.5t-110 -19z" />
    <glyph glyph-name="six" unicode="6" horiz-adv-x="648" 
d="M602 248q0 -62 -20 -110.5t-56 -83t-86.5 -52.5t-110.5 -18q-70 0 -125.5 27t-93.5 83q-29 44 -44.5 104.5t-15.5 140.5q0 83 17 155t53 125t92.5 83t135.5 30q44 0 84.5 -11t72 -35t51 -62t22.5 -92l-137 -19q0 33 -7.5 55.5t-21.5 36.5t-33 20.5t-40 6.5
q-38 0 -63.5 -18.5t-41 -50t-22 -72t-7.5 -83.5q26 30 68.5 52t102.5 22q50 0 91.5 -16t71.5 -46t46.5 -73.5t16.5 -98.5zM330 84q49 0 78.5 39t29.5 114q0 70 -27.5 109t-78.5 39q-23 0 -43.5 -9t-36 -27.5t-24.5 -46t-9 -64.5q0 -62 24 -102q14 -25 36 -38.5t51 -13.5z
" />
    <glyph glyph-name="seven" unicode="7" horiz-adv-x="549" 
d="M353 599l1 3h-326v114h484v-98l-273 -618h-167z" />
    <glyph glyph-name="eight" unicode="8" horiz-adv-x="665" 
d="M333 -16q-72 0 -126 16.5t-89.5 44t-53.5 64.5t-18 78q0 132 158 176v3q-66 20 -104.5 64t-38.5 109q0 41 18.5 76.5t53.5 61.5t85.5 40.5t114.5 14.5q63 0 113.5 -14.5t86 -40.5t54 -61.5t18.5 -76.5q0 -65 -40 -110.5t-103 -62.5v-3q158 -44 158 -176q0 -41 -18 -78
t-54 -64.5t-89.5 -44t-125.5 -16.5zM333 415q54 0 83 31t29 79q0 51 -28.5 79t-83.5 28q-56 0 -84.5 -28t-28.5 -79q0 -48 29.5 -79t83.5 -31zM333 84q57 0 89 31.5t32 85.5t-32.5 84.5t-88.5 30.5q-57 0 -89 -30.5t-32 -84.5t32 -85.5t89 -31.5z" />
    <glyph glyph-name="nine" unicode="9" horiz-adv-x="648" 
d="M318 331q46 0 78.5 37t32.5 112q0 65 -25 103q-28 49 -85 49q-51 0 -80 -39t-29 -114q0 -69 28.5 -108.5t79.5 -39.5zM302 -16q-45 0 -86 11t-73.5 35t-52.5 61.5t-23 90.5l138 19q-1 -33 7.5 -55t23 -36t34 -20t41.5 -6q38 0 63 18.5t40 49.5t21.5 71t7.5 84
q-26 -30 -68 -51.5t-102 -21.5q-50 0 -91.5 16t-71.5 46.5t-47 74t-17 97.5q0 61 20 110t56.5 83.5t87 52.5t110.5 18q64 0 116.5 -22.5t89.5 -69.5q35 -45 53.5 -110t18.5 -153q0 -83 -16.5 -155t-52.5 -125t-92 -83t-135 -30z" />
    <glyph glyph-name="colon" unicode=":" horiz-adv-x="319" 
d="M77 522h165v-196h-165v196zM77 196h165v-196h-165v196z" />
    <glyph glyph-name="semicolon" unicode=";" horiz-adv-x="320" 
d="M77 522h165v-196h-165v196zM77 -70l92 63v30h-92v173h166v-265l-166 -115v114z" />
    <glyph glyph-name="less" unicode="&#x3c;" horiz-adv-x="523" 
d="M60 280v124l388 166v-123l-251 -99v-13l251 -100v-121z" />
    <glyph glyph-name="equal" unicode="=" horiz-adv-x="525" 
d="M52 473h420v-111h-420v111zM52 275h420v-111h-420v111z" />
    <glyph glyph-name="greater" unicode="&#x3e;" horiz-adv-x="523" 
d="M449.004 280v124l-387.977 166v-123l250.984 -99v-13l-250.984 -100v-121z" />
    <glyph glyph-name="question" unicode="?" horiz-adv-x="538" 
d="M149 417h89q53 0 80 29.5t27 81.5q0 49 -22.5 77t-67.5 28q-49 0 -73 -32.5t-19 -81.5l-148 34q3 36 19 68.5t46 57t73.5 39t102.5 14.5q60 0 106.5 -16t78.5 -43.5t48.5 -64.5t16.5 -80q0 -46 -16 -82t-44 -61.5t-66 -41t-82 -19.5l-6 -86h-136zM141 0v178h166v-178
h-166z" />
    <glyph glyph-name="at" unicode="@" horiz-adv-x="824" 
d="M408 -118q-83 0 -150.5 25.5t-115 71.5t-73 110.5t-25.5 143.5q0 81 28.5 152.5t80.5 125t126 85t165 31.5q75 0 137 -22.5t106 -63t68.5 -96.5t24.5 -124q0 -62 -18.5 -110.5t-48 -81.5t-65.5 -50.5t-72 -17.5q-42 0 -74 23t-40 68q-8 -18 -19 -34t-25.5 -28.5
t-33.5 -20t-42 -7.5q-29 0 -52 11.5t-39.5 32.5t-25.5 50t-9 64q0 41 12 83t35.5 75.5t57 54.5t77.5 21q49 0 71 -27.5t25 -63.5l36 81h83l-45 -229q-8 -38 0.5 -59t30.5 -21q18 0 36.5 13.5t33.5 38.5t24.5 59t9.5 76q0 54 -18 97.5t-51.5 74.5t-81 48t-106.5 17
q-74 0 -133.5 -26.5t-101.5 -71.5t-65 -104.5t-23 -124.5q0 -69 22.5 -121.5t61.5 -88t91.5 -53.5t111.5 -18q64 0 120 16.5t100 42.5l27 -62q-48 -29 -112 -47.5t-137 -18.5zM381 137q22 0 39 17t28 42.5t17 55t6 55.5q0 75 -43 75q-23 0 -40 -17t-28.5 -43t-17.5 -56
t-6 -55q0 -41 12.5 -57.5t32.5 -16.5z" />
    <glyph glyph-name="A" unicode="A" horiz-adv-x="676" 
d="M242 253h177l-83 280h-7zM453 138h-247l-43 -138h-147l243 718h161l240 -718h-166z" />
    <glyph glyph-name="B" unicode="B" horiz-adv-x="694" 
d="M81 716h312q118 0 172 -46.5t54 -135.5q0 -60 -27 -101.5t-87 -58.5v-3q63 -14 102.5 -56t39.5 -111q0 -42 -11.5 -79t-38 -65t-71 -44t-110.5 -16h-335v716zM351 416q58 0 78.5 27t20.5 78q0 48 -20 69.5t-76 21.5h-110v-196h107zM368 104q32 0 52.5 7t32 20t16 32.5
t4.5 44.5q0 48 -26.5 75t-84.5 27h-118v-206h124z" />
    <glyph glyph-name="C" unicode="C" horiz-adv-x="711" 
d="M375 -16q-83 0 -144 30t-101 81.5t-59.5 119.5t-19.5 143t20 143t61 119.5t102.5 81.5t144.5 30q64 0 114.5 -19t86.5 -53t59 -80t34 -101l-141 -34q-13 84 -47 128.5t-103 44.5q-81 0 -119 -67.5t-38 -192.5t38 -192.5t119 -67.5q37 0 62.5 12t43 34.5t28.5 55.5t17 74
l141 -38q-12 -52 -34.5 -97.5t-58 -80t-86 -54.5t-120.5 -20z" />
    <glyph glyph-name="D" unicode="D" horiz-adv-x="738" 
d="M81 716h263q86 0 150.5 -24.5t107 -71t64 -112.5t21.5 -150t-21.5 -150t-64 -112.5t-107 -71t-150.5 -24.5h-263v716zM338 109q43 0 76 11.5t55 40t33 77t11 121.5q0 72 -13 120t-36.5 76.5t-55.5 40t-70 11.5h-95v-498h95z" />
    <glyph glyph-name="E" unicode="E" horiz-adv-x="613" 
d="M81 716h463v-109h-300v-193h231v-109h-231v-196h331v-109h-494v716z" />
    <glyph glyph-name="F" unicode="F" horiz-adv-x="587" 
d="M81 716h475v-109h-311v-193h226v-109h-226v-305h-164v716z" />
    <glyph glyph-name="G" unicode="G" horiz-adv-x="751" 
d="M373 -16q-83 0 -143.5 30t-100.5 81.5t-59 119.5t-19 143t21 143t63 119.5t104.5 81.5t145.5 30q64 0 112 -14.5t81.5 -41t55.5 -65t35 -86.5l-129 -34q-14 66 -49 96.5t-100 30.5q-80 0 -123 -67.5t-43 -192.5t45.5 -192.5t121.5 -67.5q73 0 112 38.5t39 98.5v29h-128
v104h266v-368h-84l-13 114h-4q-24 -65 -77 -97.5t-130 -32.5z" />
    <glyph glyph-name="H" unicode="H" horiz-adv-x="742" 
d="M81 716h163v-294h254v294h163v-716h-163v306h-254v-306h-163v716z" />
    <glyph glyph-name="I" unicode="I" horiz-adv-x="325" 
d="M81 716h163v-716h-163v716z" />
    <glyph glyph-name="J" unicode="J" horiz-adv-x="398" 
d="M31 115q29 0 48.5 2t36.5 8q23 8 32.5 28t9.5 71v492h163v-535q0 -41 -10.5 -70t-27.5 -49.5t-40 -32.5t-47 -18q-25 -7 -63.5 -9t-101.5 -2v115z" />
    <glyph glyph-name="K" unicode="K" horiz-adv-x="701" 
d="M291 313l-47 -50v-263h-163v716h163v-294l260 294h161l-265 -285l270 -431h-187z" />
    <glyph glyph-name="L" unicode="L" horiz-adv-x="597" 
d="M81 716h163v-595h326v-121h-489v716z" />
    <glyph glyph-name="M" unicode="M" horiz-adv-x="872" 
d="M81 716h211l148 -484h4l142 484h205v-716h-146v544h-6l-158 -544h-118l-162 544h-4v-544h-116v716z" />
    <glyph glyph-name="N" unicode="N" horiz-adv-x="731" 
d="M81 716h158l272 -480h3v480h136v-716h-143l-287 499h-3v-499h-136v716z" />
    <glyph glyph-name="O" unicode="O" horiz-adv-x="769" 
d="M385 -16q-84 0 -147 30.5t-104.5 82.5t-62 119.5t-20.5 141.5t20.5 141.5t62 119.5t104.5 82.5t147 30.5t147 -30.5t104 -82.5t61.5 -119.5t20.5 -141.5t-20.5 -141.5t-61.5 -119.5t-104 -82.5t-147 -30.5zM384 98q85 0 122.5 67.5t37.5 192.5t-37.5 192.5t-122.5 67.5
q-83 0 -121 -69.5t-38 -190.5q0 -122 38 -191t121 -69z" />
    <glyph glyph-name="P" unicode="P" horiz-adv-x="676" 
d="M81 716h287q138 0 201 -55.5t63 -162.5q0 -113 -69 -165t-194 -52h-125v-281h-163v716zM356 390q57 0 82.5 24t25.5 84q0 61 -25.5 85t-82.5 24h-112v-217h112z" />
    <glyph glyph-name="Q" unicode="Q" horiz-adv-x="769" 
d="M610 -130q-71 0 -108.5 34t-54.5 87q-15 -2 -30 -3.5t-32 -1.5q-84 0 -147 30.5t-104.5 81.5t-62 118.5t-20.5 141.5t20.5 141.5t62 119.5t104.5 82.5t147 30.5t147 -30.5t104 -82.5t61.5 -119.5t20.5 -141.5q0 -100 -39 -185.5t-114 -135.5q9 -40 24.5 -63t47.5 -23
t45 25t18 73l71 -7q-2 -35 -10 -66t-26 -54.5t-48.5 -37.5t-76.5 -14zM225 358q0 -56 7.5 -103t23.5 -83q3 21 14 40t28.5 33.5t41.5 23t53 8.5q42 0 76.5 -19.5t56.5 -61.5q10 32 14 72.5t4 88.5q0 125 -37.5 195t-122.5 70q-42 0 -72 -18.5t-49.5 -53t-28.5 -83.5t-9 -109
zM388 82q23 0 39 4q-11 55 -26.5 81.5t-46.5 26.5q-27 0 -40.5 -16t-13.5 -39q0 -24 16 -38q13 -11 33 -15t39 -4z" />
    <glyph glyph-name="R" unicode="R" horiz-adv-x="699" 
d="M375 402q57 0 77.5 27t20.5 77q0 52 -20.5 76.5t-77.5 24.5h-131v-205h131zM81 0v716h298q76 0 126.5 -16t81.5 -44t44 -66t13 -82q0 -74 -39.5 -120t-116.5 -62l1 -6q14 -5 29 -21t28.5 -38t24.5 -47.5t18 -47.5q11 -36 19 -59.5t15 -39.5t14.5 -27t18.5 -22v-18h-186
q-10 21 -18 46.5t-16 58.5q-8 35 -17.5 72.5t-17.5 65.5q-9 32 -23 43t-46 11h-88v-297h-163z" />
    <glyph glyph-name="S" unicode="S" horiz-adv-x="647" 
d="M330 -16q-60 0 -110 17.5t-87 49.5t-59.5 78.5t-28.5 103.5l116 19q7 -82 51 -123.5t115 -41.5q55 0 87.5 19.5t32.5 61.5q0 25 -10.5 41.5t-31 29t-51.5 24t-71 26.5q-56 20 -97 42.5t-68 50t-40 61.5t-13 78q0 46 17.5 85t50.5 67t80 43.5t106 15.5q107 0 172.5 -56
t77.5 -159l-113 -22q-4 63 -38.5 99.5t-97.5 36.5q-56 0 -81 -23.5t-25 -56.5q0 -21 9 -36t26.5 -26.5t43 -21.5t59.5 -21q54 -18 99.5 -37t79 -44.5t52 -62t18.5 -88.5q0 -51 -17.5 -93.5t-51.5 -73t-85 -47t-117 -16.5z" />
    <glyph glyph-name="T" unicode="T" horiz-adv-x="602" 
d="M218 602h-204v114h574v-114h-204v-602h-166v602z" />
    <glyph glyph-name="U" unicode="U" horiz-adv-x="711" 
d="M353 -14q-139 0 -210.5 65t-71.5 183v482h164v-458q0 -74 30 -112.5t104 -38.5q75 0 105.5 38.5t30.5 112.5v458h134v-480q0 -56 -17.5 -102t-53.5 -79t-89.5 -51t-125.5 -18z" />
    <glyph glyph-name="V" unicode="V" horiz-adv-x="666" 
d="M19 716h175l148 -509h6l151 509h147l-233 -718h-162z" />
    <glyph glyph-name="W" unicode="W" horiz-adv-x="960" 
d="M26 716h169l99 -505h7l129 505h129l122 -505h7l106 505h140l-167 -718h-157l-121 486h-4l-131 -486h-161z" />
    <glyph glyph-name="X" unicode="X" horiz-adv-x="689" 
d="M325 240l-149 -240h-154l230 355l-228 361h188l146 -231l144 231h149l-222 -342l236 -374h-188z" />
    <glyph glyph-name="Y" unicode="Y" horiz-adv-x="631" 
d="M233 0v288l-219 428h172l144 -295h4l146 295h138l-222 -429v-287h-163z" />
    <glyph glyph-name="Z" unicode="Z" horiz-adv-x="621" 
d="M32 0v96l358 512h-334v108h529v-96l-357 -511h357v-109h-553z" />
    <glyph glyph-name="bracketleft" unicode="[" horiz-adv-x="352" 
d="M75 792h236v-92h-97v-735h97v-92h-236v919z" />
    <glyph glyph-name="backslash" unicode="\" horiz-adv-x="417" 
d="M29 792h121l253 -919h-121z" />
    <glyph glyph-name="bracketright" unicode="]" horiz-adv-x="352" 
d="M265.005 792h-235.986v-92h96.9941v-735h-96.9941v-92h235.986v919z" />
    <glyph glyph-name="asciicircum" unicode="^" horiz-adv-x="523" 
d="M177 716h163l139 -305h-135l-80 196h-15l-80 -196h-125z" />
    <glyph glyph-name="underscore" unicode="_" horiz-adv-x="474" 
d="M18 -51h438v-109h-438v109z" />
    <glyph glyph-name="grave" unicode="`" horiz-adv-x="412" 
d="M109 742h138l56 -150h-102z" />
    <glyph glyph-name="a" unicode="a" horiz-adv-x="578" 
d="M193 -10q-69 0 -108 37t-39 98q0 37 13.5 62t34.5 43t47 30t52 22q38 15 75.5 28.5t65.5 24.5v38q0 38 -16 57.5t-51 19.5q-41 0 -60 -25t-27 -74l-118 15q6 47 25.5 80.5t48.5 54.5t65.5 30.5t77.5 9.5q103 0 156 -41t53 -126v-236q0 -41 21 -54q8 -6 20.5 -8t27.5 -2
v-69q-6 -3 -15.5 -5.5t-21 -5t-23 -3.5t-21.5 -1q-54 0 -86 24t-37 75h-8q-20 -46 -56.5 -72.5t-95.5 -26.5zM253 78q41 0 61 28t20 71v79q-16 -5 -33.5 -12.5l-45.5 -19.5q-25 -11 -43.5 -28.5t-18.5 -53.5q0 -29 15 -46.5t45 -17.5z" />
    <glyph glyph-name="b" unicode="b" horiz-adv-x="630" 
d="M364 -10q-53 0 -91 28.5t-60 82.5h-7l-40 -106h-103v787h153v-357h8q21 57 63 86.5t95 29.5q96 0 149.5 -72t53.5 -203q0 -60 -13.5 -110.5t-41.5 -87.5t-69.5 -57.5t-96.5 -20.5zM323 82q48 0 74 45t26 139q0 50 -6.5 84t-19 55t-30.5 30t-40 9q-20 0 -39 -10.5
t-34 -32.5t-24 -55.5t-9 -78.5q0 -92 27.5 -138.5t74.5 -46.5z" />
    <glyph glyph-name="c" unicode="c" horiz-adv-x="563" 
d="M302 -10q-59 0 -106.5 18.5t-81.5 54t-52 86.5t-18 117t19.5 117t54 86.5t82.5 54t105 18.5q51 0 89 -12.5t64.5 -34.5t42.5 -52t22 -65l-110 -42q-8 49 -31 80.5t-72 31.5q-104 0 -104 -182q0 -91 25.5 -136.5t82.5 -45.5q25 0 42.5 9.5t29 26t18.5 38.5t11 46l110 -42
q-10 -37 -27 -68.5t-43.5 -54.5t-64 -36t-88.5 -13z" />
    <glyph glyph-name="d" unicode="d" horiz-adv-x="630" 
d="M306 80q46 0 74.5 44t28.5 143q0 91 -28 136t-73 45q-48 0 -74.5 -43.5t-26.5 -136.5q0 -94 25.5 -141t73.5 -47zM264 -10q-54 0 -95 20.5t-68.5 57.5t-41.5 87.5t-14 110.5q0 65 16 116t45.5 86.5t70 54t89.5 18.5q51 0 88 -25t54 -73h8v339h151v-787h-102l-43 102h-7
q-20 -48 -56.5 -77.5t-94.5 -29.5z" />
    <glyph glyph-name="e" unicode="e" horiz-adv-x="578" 
d="M298 448q-43 0 -64 -30.5t-26 -96.5h175q-3 66 -21.5 96.5t-63.5 30.5zM535 159q-9 -35 -26.5 -66t-45 -54t-66 -36t-88.5 -13q-60 0 -109 18.5t-83.5 53.5t-53.5 86.5t-19 117.5q0 52 16.5 101.5t49 88t79.5 62t108 23.5q116 0 178.5 -76t62.5 -216h-332
q3 -79 27.5 -122t84.5 -43q27 0 45.5 9t31.5 24.5t21.5 36.5t14.5 45z" />
    <glyph glyph-name="f" unicode="f" horiz-adv-x="377" 
d="M103 431h-76v100h76v72q0 43 10.5 73t28 49.5t39.5 30.5t45 16q15 3 30 5t33 3t40.5 1.5t51.5 0.5v-110q-33 0 -55 -1.5t-36 -6.5q-20 -7 -26.5 -26.5t-6.5 -52.5v-54h101v-100h-101v-431h-154v431z" />
    <glyph glyph-name="g" unicode="g" horiz-adv-x="604" 
d="M275 195q37 0 60 29.5t23 100.5q0 70 -23 99t-60 29q-38 0 -60.5 -29t-22.5 -99q0 -71 22.5 -100.5t60.5 -29.5zM280 -273q-54 0 -101.5 8t-84 26t-60 46t-30.5 69l120 14q5 -18 16 -34t29.5 -28t45.5 -19t65 -7q47 0 77 6t47.5 16.5t24 23.5t6.5 27q0 28 -17 40.5
t-59 12.5h-174q-28 0 -52.5 6t-43 19.5t-29.5 35t-11 53.5q0 41 26 66.5t61 36.5v5q-41 28 -63 72.5t-22 102.5q0 48 16 88t45 68.5t70.5 44t92.5 15.5q70 0 116.5 -29t72.5 -77l6 1q0 32 8.5 52.5t21.5 32t27.5 16t25.5 4.5q19 0 30.5 -3.5t21.5 -11.5l-6 -101
q-5 2 -15 5.5t-22 3.5q-35 0 -49 -24.5t-14 -81.5q0 -50 -15 -90.5t-43.5 -69.5t-70.5 -45t-95 -16q-46 0 -89 16q-9 -5 -16.5 -15t-7.5 -25q0 -40 51 -40h199q86 0 124.5 -37.5t38.5 -101.5q0 -83 -73.5 -130t-221.5 -47z" />
    <glyph glyph-name="h" unicode="h" horiz-adv-x="599" 
d="M63 782h151v-379h3q12 37 32 63.5t43.5 43t49 24t50.5 7.5q42 0 70 -12t45 -32.5t24 -48t7 -59.5v-389h-154v353q0 43 -13.5 61.5t-48.5 18.5q-45 0 -75 -44.5t-30 -122.5v-266h-154v782z" />
    <glyph glyph-name="i" unicode="i" horiz-adv-x="280" 
d="M63 734h154v-136h-154v136zM63 531h154v-531h-154v531z" />
    <glyph glyph-name="j" unicode="j" horiz-adv-x="280" 
d="M63 734h154v-136h-154v136zM-62 -119q33 0 49 1t33 7q22 8 32.5 25t10.5 64v553h154v-581q0 -74 -36 -115.5t-105 -53.5q-34 -6 -69.5 -7t-68.5 -1v108z" />
    <glyph glyph-name="k" unicode="k" horiz-adv-x="573" 
d="M217 0h-154v782h154v-479h4l177 228h141l-182 -210l202 -321h-173l-127 209l-42 -49v-160z" />
    <glyph glyph-name="l" unicode="l" horiz-adv-x="280" 
d="M63 782h154v-782h-154v782z" />
    <glyph glyph-name="m" unicode="m" horiz-adv-x="892" 
d="M217 0h-154v531h139l10 -132h3q12 40 31.5 67t42.5 43.5t48.5 24t50.5 7.5q40 0 66.5 -10.5t42 -29t21.5 -45t6 -57.5h2q12 39 31 66.5t41.5 44t47 24t49.5 7.5q40 0 66.5 -10.5t42.5 -30t22 -46t6 -58.5v-396h-154v364q0 36 -10.5 52.5t-40.5 16.5q-20 0 -39 -11.5
t-33 -32.5t-22.5 -51.5t-8.5 -69.5v-268h-154v364q0 36 -10.5 52.5t-39.5 16.5q-20 0 -39 -11t-33 -32t-22.5 -51t-8.5 -69v-270z" />
    <glyph glyph-name="n" unicode="n" horiz-adv-x="599" 
d="M63 531h139l10 -129h2q13 38 33 64.5t44.5 43t50.5 24t51 7.5q41 0 68.5 -12t44.5 -32.5t24.5 -48t7.5 -59.5v-389h-154v353q0 43 -13.5 61.5t-48.5 18.5q-45 0 -75 -42.5t-30 -120.5v-270h-154v531z" />
    <glyph glyph-name="o" unicode="o" horiz-adv-x="596" 
d="M552 266q0 -54 -15 -104t-46.5 -88.5t-79.5 -61t-114 -22.5q-65 0 -113 22.5t-79 61t-46 88.5t-15 104t15 104t46 88t79 60.5t113 22.5q66 0 114 -22.5t79.5 -60.5t46.5 -88t15 -104zM206 266q0 -99 22 -141t69 -42t70 42t23 141t-23 140.5t-70 41.5t-69 -41.5
t-22 -140.5z" />
    <glyph glyph-name="p" unicode="p" horiz-adv-x="630" 
d="M326 87q46 0 71.5 40.5t25.5 137.5q0 184 -99 184q-48 0 -75.5 -46.5t-27.5 -138.5q0 -48 9 -81.5t23.5 -54.5t33.5 -31t39 -10zM63 531h132l12 -121h6q20 60 59.5 95.5t102.5 35.5q52 0 91.5 -20.5t66 -57.5t39.5 -87.5t13 -110.5q0 -65 -16 -116.5t-45 -86.5
t-69.5 -53.5t-89.5 -18.5q-50 0 -84.5 20.5t-57.5 62.5h-8v-300h-152v758z" />
    <glyph glyph-name="q" unicode="q" horiz-adv-x="630" 
d="M414 106h-8q-21 -57 -62.5 -86.5t-93.5 -29.5q-96 0 -150.5 72t-54.5 203q0 60 13.5 110.5t41 87.5t69.5 57.5t98 20.5q57 0 97 -31.5t60 -85.5h6l45 107h92v-758h-153v333zM303 87q21 0 40 10.5t33.5 32t23.5 55t9 79.5q0 92 -27.5 138.5t-74.5 46.5q-100 0 -100 -184
q0 -51 6.5 -85t19 -54.5t30.5 -29.5t40 -9z" />
    <glyph glyph-name="r" unicode="r" horiz-adv-x="409" 
d="M63 531h140l11 -146h2q19 80 51.5 118t76.5 38q14 0 24 -3t17 -7v-143q-11 3 -21.5 5t-23.5 2q-53 0 -88 -40.5t-35 -126.5v-228h-154v531z" />
    <glyph glyph-name="s" unicode="s" horiz-adv-x="508" 
d="M259 -10q-98 0 -153.5 43.5t-63.5 112.5l101 30q2 -30 11.5 -50t24 -32t33 -17.5t39.5 -5.5q35 0 56 14t21 40q0 15 -6 25t-20.5 18.5t-39 17t-60.5 21.5q-32 11 -59.5 25t-47.5 34.5t-31.5 48.5t-11.5 67q0 34 14 63.5t39 50.5t60.5 33t79.5 12q49 0 83.5 -11.5
t58 -32.5t36 -49.5t16.5 -61.5l-106 -20q-6 53 -29.5 73t-57.5 20q-29 0 -46 -13t-17 -38q0 -15 5.5 -24.5t18.5 -18t34 -16.5t52 -20q37 -14 69 -27t55 -32t36.5 -46.5t13.5 -70.5q0 -78 -55 -120.5t-153 -42.5z" />
    <glyph glyph-name="t" unicode="t" horiz-adv-x="411" 
d="M280 0q-76 0 -108 14q-20 7 -34 18t-22.5 28.5t-12 43t-3.5 62.5v265h-84v100h85v194h154v-194h116v-100h-116v-250q0 -31 5 -47t22 -24q10 -5 22 -6t27 -1h47v-103h-98v0z" />
    <glyph glyph-name="u" unicode="u" horiz-adv-x="594" 
d="M213 -10q-42 0 -71 12t-47 32.5t-26.5 48t-8.5 59.5v389h154v-353q0 -43 15.5 -61.5t50.5 -18.5q42 0 69.5 44.5t27.5 127.5v261h154v-531h-135l-14 123h-3q-24 -72 -69 -102.5t-97 -30.5z" />
    <glyph glyph-name="v" unicode="v" horiz-adv-x="531" 
d="M9 531h164l105 -345h4l109 345h131l-194 -533h-131z" />
    <glyph glyph-name="w" unicode="w" horiz-adv-x="840" 
d="M19 531h150l92 -348h4l97 348h136l89 -347h5l98 347h131l-155 -533h-142l-101 390h-4l-107 -390h-143z" />
    <glyph glyph-name="x" unicode="x" horiz-adv-x="539" 
d="M253 171l-103 -171h-131l169 258l-171 273h168l100 -169l100 169h130l-166 -255l173 -276h-168z" />
    <glyph glyph-name="y" unicode="y" horiz-adv-x="521" 
d="M41 -123q24 0 45 2t38 8q22 8 35 24.5t24 46.5l15 43l-192 530h165l100 -347h4l107 347h132l-212 -598q-10 -29 -20 -52t-23.5 -40.5t-31 -30.5t-42.5 -22q-24 -9 -61.5 -12t-82.5 -3v104z" />
    <glyph glyph-name="z" unicode="z" horiz-adv-x="505" 
d="M33 91l260 340h-245v100h418v-85l-261 -340h271v-106h-443v91z" />
    <glyph glyph-name="braceleft" unicode="{" horiz-adv-x="365" 
d="M267 -129q-49 0 -84 11.5t-57.5 31.5t-33 48t-10.5 61q0 32 8 59.5t17 52t17 47.5t8 45q0 26 -13.5 42.5t-42.5 18.5l-27 2v82l27 3q29 2 42.5 18.5t13.5 42.5q0 22 -8 45t-17 48t-17 52.5t-8 59.5q0 70 43.5 111.5t142.5 41.5h56v-86h-22q-14 0 -27.5 -3.5t-24 -13.5
t-16.5 -26.5t-6 -41.5q0 -22 4.5 -43t10 -41.5t10 -41t4.5 -42.5q0 -21 -5.5 -41.5t-17.5 -37t-32 -28.5t-49 -17q29 -5 49 -17t32 -28.5t17.5 -37t5.5 -41.5q0 -22 -4.5 -42t-10 -40.5t-10 -41t-4.5 -42.5q0 -26 6 -42t16.5 -25.5t24 -13t27.5 -3.5h22v-86h-57v0z" />
    <glyph glyph-name="bar" unicode="|" horiz-adv-x="275" 
d="M80 -127v919h115v-919h-115z" />
    <glyph glyph-name="braceright" unicode="}" horiz-adv-x="365" 
d="M86.0166 -129q48.9971 0 83.9941 11.5q34.998 11.5 57.4971 31.5q22.498 20 32.998 48q10.499 28 10.499 61q0 32 -7.99902 59.5q-8 27.5 -16.999 52q-9 24.5 -16.999 47.5q-8 23 -8 45q0 26 13.499 42.5q13.5 16.5 42.498 18.5l26.998 2v82l-26.998 3
q-28.998 2 -42.498 18.5q-13.499 16.5 -13.499 42.5q0 22 8 45q7.99902 23 16.999 48q8.99902 25 16.999 52.5q7.99902 27.5 7.99902 59.5q0 70 -43.4971 111.5t-142.491 41.5h-55.9971v-86h21.999q13.999 0 27.498 -3.5t23.999 -13.5q10.499 -10 16.499 -26.5
q5.99902 -16.5 5.99902 -41.5q0 -22 -4.49902 -43q-4.5 -21 -10 -41.5q-5.49902 -20.5 -9.99902 -41t-4.5 -42.5q0 -21 5.5 -41.5q5.49902 -20.5 17.499 -37q11.999 -16.5 31.998 -28.5q19.998 -12 48.9971 -17q-28.999 -5 -48.9971 -17q-19.999 -12 -31.998 -28.5
q-12 -16.5 -17.499 -37q-5.5 -20.5 -5.5 -41.5q0 -22 4.5 -42t9.99902 -40.5q5.5 -20.5 10 -41q4.49902 -20.5 4.49902 -42.5q0 -26 -5.99902 -42q-6 -16 -16.499 -25.5q-10.5 -9.5 -23.999 -13t-27.498 -3.5h-21.999v-86h56.9971v0z" />
    <glyph glyph-name="asciitilde" unicode="~" horiz-adv-x="484" 
d="M154 269q-25 0 -35.5 -16.5t-13.5 -32.5l-65 38q-2 30 6 55t23.5 43t38 28t51.5 10q24 0 47 -7.5t44.5 -16.5t41 -16.5t37.5 -7.5q24 0 34 17t12 33l66 -38q1 -30 -7.5 -55t-25 -43t-40.5 -28t-52 -10q-25 0 -47 7.5t-41.5 16t-38 16t-35.5 7.5z" />
    <glyph glyph-name="exclamdown" unicode="&#xa1;" horiz-adv-x="313" 
d="M226.005 -28.9668v-168.989h-162.99v168.989l29.998 308.981h103.993zM228.005 340.011h-165.99v177.989h165.99v-177.989z" />
    <glyph glyph-name="cent" unicode="&#xa2;" horiz-adv-x="569" 
d="M192 261q0 -74 17 -117.5t58 -57.5v350q-75 -28 -75 -175zM527 157q-16 -65 -57.5 -111t-118.5 -58v-107h-84v106q-104 11 -164.5 81.5t-60.5 192.5q0 60 16.5 108t46 83t71 56t91.5 27v96h84v-97q39 -5 68 -19.5t50 -35.5t34.5 -48.5t21.5 -58.5l-104 -41
q-6 37 -23 64.5t-47 39.5v-349q32 14 49 44.5t23 68.5z" />
    <glyph glyph-name="sterling" unicode="&#xa3;" horiz-adv-x="723" 
d="M530 -16q-52 0 -96.5 25t-86.5 57q-28 -37 -69.5 -59.5t-98.5 -22.5q-30 0 -58.5 7t-50.5 22t-35.5 38t-13.5 55q0 58 44 92.5t116 34.5q34 0 64.5 -7t59.5 -18q-4 24 -14.5 46t-24.5 44h-175v83h120q-18 29 -30.5 62.5t-12.5 75.5q0 49 19 88t53.5 67t81.5 43t104 15
q49 0 94.5 -13.5t79 -44.5t49.5 -80.5t6 -121.5l-136 -16q12 84 -11.5 129.5t-77.5 45.5q-48 0 -71.5 -32t-23.5 -83q0 -38 10.5 -70t22.5 -65h165v-83h-139q6 -29 6 -62q0 -37 -7 -68q33 -16 63.5 -27.5t60.5 -11.5q45 0 60.5 24.5t10.5 72.5h78q18 -58 13 -103t-25.5 -76
t-53 -47t-70.5 -16zM186 53q32 0 58 16t42 42q-29 20 -57 32.5t-59 12.5q-32 0 -47 -15.5t-15 -34.5q0 -26 23.5 -39.5t54.5 -13.5z" />
    <glyph glyph-name="yen" unicode="&#xa5;" horiz-adv-x="621" 
d="M390 119v-119h-160v119h-158v84h158v68h-158v84h125l-172 361h167l125 -299h7l129 299h143l-172 -361h124v-84h-158v-68h158v-84h-158z" />
    <glyph glyph-name="brokenbar" unicode="&#xa6;" horiz-adv-x="275" 
d="M80 394v398h115v-398h-115zM80 -127v406h115v-406h-115z" />
    <glyph glyph-name="section" unicode="&#xa7;" horiz-adv-x="541" 
d="M319 208q23 0 41 14t18 42q0 33 -32 56.5t-101 55.5q-5 2 -10 3t-11 1q-27 0 -42.5 -16.5t-15.5 -39.5q0 -19 9 -33t26 -26.5t41 -25t54 -28.5q12 -3 23 -3zM272 -153q-49 0 -89.5 12t-70.5 33.5t-48 50.5t-22 64l101 30q2 -29 14 -50t29 -34t38 -19t42 -6q31 0 54 12.5
t23 43.5q0 15 -6 27.5t-21 25.5t-41.5 28t-68.5 35q-38 19 -68 36.5t-50.5 38.5t-31.5 48t-11 64q0 51 25 90.5t73 57.5q-31 25 -47.5 58.5t-16.5 84.5q0 34 12 64.5t36 52.5t59.5 35t82.5 13q49 0 86 -11.5t63 -32.5t40.5 -49.5t18.5 -61.5l-106 -20q-3 26 -12.5 44t-23 29
t-30 15.5t-33.5 4.5q-32 0 -51.5 -14.5t-19.5 -41.5q0 -17 7 -30t22.5 -25.5t40.5 -26.5t61 -33q37 -20 68.5 -37.5t55 -38.5t36.5 -48t13 -66q0 -55 -27 -92.5t-75 -54.5q34 -23 54.5 -54.5t20.5 -82.5q0 -78 -54.5 -123.5t-151.5 -45.5z" />
    <glyph glyph-name="dieresis" unicode="&#xa8;" horiz-adv-x="412" 
d="M54 729h122v-126h-122v126zM236 729h122v-126h-122v126z" />
    <glyph glyph-name="copyright" unicode="&#xa9;" horiz-adv-x="839" 
d="M420 -17q-75 0 -141.5 24.5t-117 71.5t-80 117t-29.5 162q0 91 29.5 161.5t80 117.5t117 71.5t141.5 24.5q74 0 141 -24.5t117 -71.5t79.5 -117.5t29.5 -161.5q0 -92 -29.5 -162t-80 -117t-117 -71.5t-140.5 -24.5zM420 46q63 0 117 20t93.5 59.5t62 97.5t22.5 135
q0 76 -22.5 134.5t-62 98t-93.5 59.5t-117 20t-117 -20t-93.5 -59.5t-62.5 -98t-23 -134.5q0 -77 22.5 -135t62 -97.5t94 -59.5t117.5 -20zM423 154q-41 0 -75 14.5t-59 41t-38.5 64.5t-13.5 85q0 48 14 86t38.5 64.5t59 40.5t76.5 14q36 0 63.5 -10t47 -27.5t31.5 -41
t18 -50.5l-81 -30q-5 34 -22.5 58t-50.5 24q-38 0 -58.5 -32t-20.5 -96q0 -127 79 -127q33 0 51 26t22 59l82 -30q-6 -26 -19 -50t-32.5 -42.5t-47.5 -29.5t-64 -11z" />
    <glyph glyph-name="ordfeminine" unicode="&#xaa;" horiz-adv-x="468" 
d="M141 303q-23 0 -43 6t-36 19t-25 32t-9 46q0 30 11 51t29 36t41 25t46 18l104 38v19q0 30 -10.5 45t-38.5 15q-35 0 -48 -21t-15 -52l-110 11q11 75 59.5 108t120.5 33q80 0 125.5 -37.5t45.5 -120.5v-152q0 -17 3 -26.5t12 -15.5q8 -7 18 -7.5t22 -0.5v-57
q-12 -5 -28.5 -8.5t-35.5 -3.5q-42 0 -70.5 23t-33.5 63h-6q-13 -35 -45.5 -60.5t-82.5 -25.5zM200 385q25 0 42 18t17 53v58q-8 -3 -25 -10.5t-30 -12.5q-17 -8 -32 -22.5t-15 -40.5q0 -20 11.5 -31.5t31.5 -11.5z" />
    <glyph glyph-name="guillemotleft" unicode="&#xab;" horiz-adv-x="517" 
d="M242 253l135 188h119l-116 -188l116 -187h-119zM31 253l135 188h119l-116 -188l116 -187h-119z" />
    <glyph glyph-name="registered" unicode="&#xae;" horiz-adv-x="519" 
d="M259 312q-43 0 -81.5 14.5t-68 42t-47 67.5t-17.5 92t17.5 92t47 67.5t68 42t81.5 14.5t82 -14.5t68.5 -42t47 -67.5t17.5 -92t-17.5 -92t-47 -67.5t-68.5 -42t-82 -14.5zM259 357q34 0 64 11.5t52 33t34.5 53.5t12.5 73t-12.5 73t-34.5 53.5t-52 33t-64 11.5
q-35 0 -64 -11.5t-51 -33t-34 -53.5t-12 -73t12 -73t34 -53.5t51 -33t64 -11.5zM264 538q15 0 21 9t6 20q0 13 -6 20t-21 7h-33v-56h33zM305 516q13 -3 20.5 -13.5t13.5 -27.5q7 -19 10.5 -25.5t9.5 -14.5v-9h-69q-5 11 -9 28t-9 29q-2 8 -6 12.5t-14 4.5h-21v-74h-61v210
h95q48 0 69.5 -17.5t21.5 -46.5q0 -24 -15 -36.5t-36 -16.5v-3z" />
    <glyph glyph-name="macron" unicode="&#xaf;" horiz-adv-x="412" 
d="M70 707h272v-99h-272v99z" />
    <glyph glyph-name="degree" unicode="&#xb0;" horiz-adv-x="415" 
d="M208 403q-36 0 -66.5 12.5t-53 34.5t-35 52.5t-12.5 66.5t12 66.5t34 53t53 35t68 12.5t67.5 -12.5t52.5 -35t34 -53t12 -66.5t-13 -66.5t-35.5 -52.5t-52.5 -34.5t-65 -12.5zM208 487q37 0 54 25t17 57q0 33 -17 58t-54 25q-38 0 -55.5 -25t-17.5 -58q0 -32 17.5 -57
t55.5 -25z" />
    <glyph glyph-name="plusminus" unicode="&#xb1;" horiz-adv-x="547" 
d="M58 111h430v-111h-430v111zM213 320h-161v112h161v167h121v-167h160v-112h-160v-167h-121v167z" />
    <glyph glyph-name="acute" unicode="&#xb4;" horiz-adv-x="412" 
d="M107 592l56 150h142l-92 -150h-106z" />
    <glyph glyph-name="paragraph" unicode="&#xb6;" horiz-adv-x="693" 
d="M338 228h-23q-61 0 -111 16t-85 46.5t-54.5 76t-19.5 105.5t19.5 105.5t55 76t85 46.5t110.5 16h302v-845h-101v750h-77v-750h-101v357z" />
    <glyph glyph-name="periodcentered" unicode="&#xb7;" horiz-adv-x="319" 
d="M77 477h165v-196h-165v196z" />
    <glyph glyph-name="cedilla" unicode="&#xb8;" horiz-adv-x="413" 
d="M219 -247q-44 0 -77 13t-52 29l30 55q17 -14 40 -23.5t46 -9.5q19 0 30 9.5t11 27.5q0 14 -8 22t-22 8t-22.5 -7t-13.5 -16l-61 20l49 134l67 -15l-24 -63q17 7 40 7q38 0 66 -23t28 -64q0 -25 -10.5 -44.5t-27.5 -32.5t-40.5 -20t-48.5 -7z" />
    <glyph glyph-name="ordmasculine" unicode="&#xba;" horiz-adv-x="490" 
d="M457 517q0 -41 -13 -79.5t-39.5 -68.5t-66 -48t-92.5 -18q-54 0 -94 18t-66.5 48t-39 68.5t-12.5 79.5t12.5 80t39 69t66.5 48t94 18q53 0 92.5 -18t66 -48t39.5 -69t13 -80zM169 517q0 -66 18 -102t59 -36q40 0 58 36t18 102q0 67 -18 100t-58 33q-41 0 -59 -33
t-18 -100z" />
    <glyph glyph-name="guillemotright" unicode="&#xbb;" horiz-adv-x="517" 
d="M263.002 253l-134.992 188h-118.992l115.993 -188l-115.993 -187h118.992zM474.002 253l-134.992 188h-118.992l115.993 -188l-115.993 -187h118.992z" />
    <glyph glyph-name="onequarter" unicode="&#xbc;" horiz-adv-x="845" 
d="M137 325v281h-77v62l35 2q23 2 36.5 13t21.5 40h88v-398h-104zM639 77h-187v59l171 263h120v-257h58v-65h-58v-75h-104v75zM639 307h-3l-103 -161v-4h106v165zM585 715h81l-457 -715h-81z" />
    <glyph glyph-name="onehalf" unicode="&#xbd;" horiz-adv-x="883" 
d="M137 325v281h-77v62l35 2q23 2 36.5 13t21.5 40h88v-398h-104zM504 64q54 26 92.5 49.5t63 47t36 50t11.5 58.5q0 33 -14.5 50t-38.5 17q-37 0 -53 -38.5t6 -101.5l-98 10q-12 38 -8.5 73.5t22 63t52.5 44t83 16.5q73 0 116 -35.5t43 -98.5q0 -71 -49 -116.5t-130 -77.5
v-8h184v-66h-318v63zM585 715h81l-457 -715h-81z" />
    <glyph glyph-name="threequarters" unicode="&#xbe;" horiz-adv-x="925" 
d="M216 315q-32 0 -62 8t-52.5 25t-35 43.5t-8.5 62.5l93 18q-2 -17 1 -32.5t10.5 -28.5t20.5 -20.5t30 -7.5q26 0 40 15t14 43q0 58 -68 58h-47v62h47q31 0 44 14t13 38q0 23 -14 35t-35 12q-29 0 -43 -20.5t-10 -51.5l-94 12q-1 33 11 57t33 39.5t50 23t61 7.5
q30 0 56.5 -7t47 -20t32.5 -32t12 -43q0 -43 -26 -63t-64 -26v-7q43 -5 73.5 -28.5t30.5 -69.5q0 -54 -42.5 -85t-118.5 -31zM719 77h-187v59l171 263h120v-257h58v-65h-58v-75h-104v75zM719 307h-3l-103 -161v-4h106v165zM665 715h81l-457 -715h-81z" />
    <glyph glyph-name="questiondown" unicode="&#xbf;" horiz-adv-x="538" 
d="M377.009 101.025h-88.9941q-52.9971 0 -79.9951 -29.498t-26.998 -81.4951q0 -48.9971 22.498 -76.9951q22.499 -27.998 67.4961 -27.998q48.9971 0 72.9951 32.498q23.999 32.498 18.999 81.4941l147.991 -33.9971q-3 -35.998 -18.999 -68.4961t-45.9971 -56.9971
q-29.998 -24.498 -73.4951 -38.9971q-43.498 -14.499 -102.494 -14.499q-59.9961 0 -106.493 15.999t-78.4951 43.4971t-48.4971 64.4961t-16.499 79.9951q0 45.9971 15.999 81.9951t43.9971 61.4961t65.9961 40.9971q37.9971 15.499 81.9951 19.499l5.99902 85.9951
h135.992zM385.009 518v-177.989h-165.99v177.989h165.99z" />
    <glyph glyph-name="Agrave" unicode="&#xc0;" horiz-adv-x="676" 
d="M242 253h177l-83 280h-7zM453 138h-247l-43 -138h-147l243 718h161l240 -718h-166zM290 773l-107 136h161l65 -136h-119z" />
    <glyph glyph-name="Aacute" unicode="&#xc1;" horiz-adv-x="676" 
d="M242 253h177l-83 280h-7zM453 138h-247l-43 -138h-147l243 718h161l240 -718h-166zM277 773l66 136h160l-107 -136h-119z" />
    <glyph glyph-name="Acircumflex" unicode="&#xc2;" horiz-adv-x="676" 
d="M242 253h177l-83 280h-7zM453 138h-247l-43 -138h-147l243 718h161l240 -718h-166zM336 836l-59 -63h-120l119 132h124l119 -132h-125z" />
    <glyph glyph-name="Atilde" unicode="&#xc3;" horiz-adv-x="676" 
d="M242 253h177l-83 280h-7zM453 138h-247l-43 -138h-147l243 718h161l240 -718h-166zM160 783q-2 27 3 51.5t17.5 43.5t32.5 30t47 11q23 0 44 -6.5t40 -15t35.5 -15t30.5 -6.5q20 0 29 14t11 34l61 -12q2 -27 -3 -52t-17 -44t-32 -30t-48 -11q-23 0 -44 7t-40 15t-35.5 15
t-30.5 7q-20 0 -29 -13.5t-11 -33.5z" />
    <glyph glyph-name="Adieresis" unicode="&#xc4;" horiz-adv-x="676" 
d="M242 253h177l-83 280h-7zM453 138h-247l-43 -138h-147l243 718h161l240 -718h-166zM166 914h132v-127h-132v127zM376 914h132v-127h-132v127z" />
    <glyph glyph-name="Aring" unicode="&#xc5;" horiz-adv-x="676" 
d="M242 253h177l-83 280h-7zM453 138h-247l-43 -138h-147l243 718h161l240 -718h-166zM452 860q0 -47 -31.5 -76t-82.5 -29q-52 0 -83.5 29t-31.5 76t31.5 77t83.5 30q51 0 82.5 -30t31.5 -77zM293 861q0 -23 13 -35t32 -12t31.5 12t12.5 35t-12.5 34.5t-31.5 11.5
t-32 -11.5t-13 -34.5z" />
    <glyph glyph-name="AE" unicode="&#xc6;" horiz-adv-x="974" 
d="M286 253h177v339h-1zM463 138h-237l-72 -138h-153l384 716h520v-109h-279v-193h210v-109h-210v-196h310v-109h-473v138z" />
    <glyph glyph-name="Ccedilla" unicode="&#xc7;" horiz-adv-x="711" 
d="M376 -247q-44 0 -77 13t-52 29l30 55q17 -14 40 -23.5t46 -9.5q19 0 30 9.5t11 27.5q0 14 -8 22t-22 8t-22.5 -7t-13.5 -16l-61 20l39 107q-47 7 -85 26q-61 30 -101 81.5t-59.5 119.5t-19.5 143t20 143t61 119.5t102.5 81.5t144.5 30q64 0 114.5 -19t86.5 -53t59 -80
t34 -101l-141 -34q-13 84 -47 128.5t-103 44.5q-81 0 -119 -67.5t-38 -192.5t38 -192.5t119 -67.5q37 0 62.5 12t43 34.5t28.5 55.5t17 74l141 -38q-12 -52 -34.5 -97.5t-58 -80t-86.5 -54.5q-46 -18 -108 -20l-18 -47q17 7 40 7q38 0 66 -23t28 -64q0 -25 -10.5 -44.5
t-27.5 -32.5t-40.5 -20t-48.5 -7z" />
    <glyph glyph-name="Egrave" unicode="&#xc8;" horiz-adv-x="613" 
d="M275 773l-107 136h161l65 -136h-119zM81 716h463v-109h-300v-193h231v-109h-231v-196h331v-109h-494v716z" />
    <glyph glyph-name="Eacute" unicode="&#xc9;" horiz-adv-x="613" 
d="M261 773l66 136h160l-107 -136h-119zM81 716h463v-109h-300v-193h231v-109h-231v-196h331v-109h-494v716z" />
    <glyph glyph-name="Ecircumflex" unicode="&#xca;" horiz-adv-x="613" 
d="M321 836l-59 -63h-120l119 132h124l119 -132h-125zM81 716h463v-109h-300v-193h231v-109h-231v-196h331v-109h-494v716z" />
    <glyph glyph-name="Edieresis" unicode="&#xcb;" horiz-adv-x="613" 
d="M81 716h463v-109h-300v-193h231v-109h-231v-196h331v-109h-494v716zM151 914h132v-127h-132v127zM361 914h132v-127h-132v127z" />
    <glyph glyph-name="Igrave" unicode="&#xcc;" horiz-adv-x="325" 
d="M81 716h163v-716h-163v716zM116 773l-107 136h161l65 -136h-119z" />
    <glyph glyph-name="Iacute" unicode="&#xcd;" horiz-adv-x="325" 
d="M81 716h163v-716h-163v716zM102 773l66 136h160l-107 -136h-119z" />
    <glyph glyph-name="Icircumflex" unicode="&#xce;" horiz-adv-x="325" 
d="M81 716h163v-716h-163v716zM162 836l-59 -63h-120l119 132h124l119 -132h-125z" />
    <glyph glyph-name="Idieresis" unicode="&#xcf;" horiz-adv-x="325" 
d="M81 716h163v-716h-163v716zM-8 914h132v-127h-132v127zM202 914h132v-127h-132v127z" />
    <glyph glyph-name="Eth" unicode="&#xd0;" horiz-adv-x="755" 
d="M23 415h76v301h263q86 0 150.5 -24.5t107 -71t64 -112.5t21.5 -150t-21.5 -150t-64 -112.5t-107 -71t-150.5 -24.5h-263v309h-76v106zM356 109q43 0 76 11.5t55 40t33 77t11 121.5q0 72 -13 120t-36.5 76.5t-55.5 40t-70 11.5h-95v-192h132v-106h-132v-200h95z" />
    <glyph glyph-name="Ntilde" unicode="&#xd1;" horiz-adv-x="731" 
d="M188 783q-2 27 3 51.5t17.5 43.5t32.5 30t47 11q23 0 44 -6.5t40 -15t35.5 -15t30.5 -6.5q20 0 29 14t11 34l61 -12q2 -27 -3 -52t-17 -44t-32 -30t-48 -11q-23 0 -44 7t-40 15t-35.5 15t-30.5 7q-20 0 -29 -13.5t-11 -33.5zM81 716h158l272 -480h3v480h136v-716h-143
l-287 499h-3v-499h-136v716z" />
    <glyph glyph-name="Ograve" unicode="&#xd2;" horiz-adv-x="769" 
d="M338 773l-107 136h161l65 -136h-119zM385 -16q-84 0 -147 30.5t-104.5 82.5t-62 119.5t-20.5 141.5t20.5 141.5t62 119.5t104.5 82.5t147 30.5t147 -30.5t104 -82.5t61.5 -119.5t20.5 -141.5t-20.5 -141.5t-61.5 -119.5t-104 -82.5t-147 -30.5zM384 98q85 0 122.5 67.5
t37.5 192.5t-37.5 192.5t-122.5 67.5q-83 0 -121 -69.5t-38 -190.5q0 -122 38 -191t121 -69z" />
    <glyph glyph-name="Oacute" unicode="&#xd3;" horiz-adv-x="769" 
d="M325 773l66 136h160l-107 -136h-119zM385 -16q-84 0 -147 30.5t-104.5 82.5t-62 119.5t-20.5 141.5t20.5 141.5t62 119.5t104.5 82.5t147 30.5t147 -30.5t104 -82.5t61.5 -119.5t20.5 -141.5t-20.5 -141.5t-61.5 -119.5t-104 -82.5t-147 -30.5zM384 98q85 0 122.5 67.5
t37.5 192.5t-37.5 192.5t-122.5 67.5q-83 0 -121 -69.5t-38 -190.5q0 -122 38 -191t121 -69z" />
    <glyph glyph-name="Ocircumflex" unicode="&#xd4;" horiz-adv-x="769" 
d="M384 836l-59 -63h-120l119 132h124l119 -132h-125zM385 -16q-84 0 -147 30.5t-104.5 82.5t-62 119.5t-20.5 141.5t20.5 141.5t62 119.5t104.5 82.5t147 30.5t147 -30.5t104 -82.5t61.5 -119.5t20.5 -141.5t-20.5 -141.5t-61.5 -119.5t-104 -82.5t-147 -30.5zM384 98
q85 0 122.5 67.5t37.5 192.5t-37.5 192.5t-122.5 67.5q-83 0 -121 -69.5t-38 -190.5q0 -122 38 -191t121 -69z" />
    <glyph glyph-name="Otilde" unicode="&#xd5;" horiz-adv-x="769" 
d="M208 783q-2 27 3 51.5t17.5 43.5t32.5 30t47 11q23 0 44 -6.5t40 -15t35.5 -15t30.5 -6.5q20 0 29 14t11 34l61 -12q2 -27 -3 -52t-17 -44t-32 -30t-48 -11q-23 0 -44 7t-40 15t-35.5 15t-30.5 7q-20 0 -29 -13.5t-11 -33.5zM385 -16q-84 0 -147 30.5t-104.5 82.5
t-62 119.5t-20.5 141.5t20.5 141.5t62 119.5t104.5 82.5t147 30.5t147 -30.5t104 -82.5t61.5 -119.5t20.5 -141.5t-20.5 -141.5t-61.5 -119.5t-104 -82.5t-147 -30.5zM384 98q85 0 122.5 67.5t37.5 192.5t-37.5 192.5t-122.5 67.5q-83 0 -121 -69.5t-38 -190.5
q0 -122 38 -191t121 -69z" />
    <glyph glyph-name="Odieresis" unicode="&#xd6;" horiz-adv-x="769" 
d="M214 914h132v-127h-132v127zM424 914h132v-127h-132v127zM385 -16q-84 0 -147 30.5t-104.5 82.5t-62 119.5t-20.5 141.5t20.5 141.5t62 119.5t104.5 82.5t147 30.5t147 -30.5t104 -82.5t61.5 -119.5t20.5 -141.5t-20.5 -141.5t-61.5 -119.5t-104 -82.5t-147 -30.5z
M384 98q85 0 122.5 67.5t37.5 192.5t-37.5 192.5t-122.5 67.5q-83 0 -121 -69.5t-38 -190.5q0 -122 38 -191t121 -69z" />
    <glyph glyph-name="multiply" unicode="&#xd7;" horiz-adv-x="569" 
d="M55 164l152 151l-146 144l79 80l145 -147l144 147l80 -80l-147 -144l152 -151l-80 -80l-149 152l-150 -152z" />
    <glyph glyph-name="Oslash" unicode="&#xd8;" horiz-adv-x="775" 
d="M218 358q0 -77 12 -132l274 356q-41 45 -117 45q-42 0 -73.5 -19.5t-52.5 -54.5t-32 -85t-11 -110zM387 90q85 0 127 71.5t42 196.5q0 78 -12 134l-273 -355q39 -47 116 -47zM388 -16q-57 0 -104.5 15.5t-85.5 42.5l-71 -92l-67 56l74 96q-42 54 -63 120.5t-21 135.5
q0 74 21 141.5t63.5 119.5t106 82.5t147.5 30.5q57 0 103.5 -15t84.5 -42l66 86l67 -55l-70 -90q43 -54 64 -121t21 -137q0 -74 -21 -141.5t-63 -119.5t-105 -82.5t-147 -30.5z" />
    <glyph glyph-name="Ugrave" unicode="&#xd9;" horiz-adv-x="711" 
d="M308 773l-107 136h161l65 -136h-119zM353 -14q-139 0 -210.5 65t-71.5 183v482h164v-458q0 -74 30 -112.5t104 -38.5q75 0 105.5 38.5t30.5 112.5v458h134v-480q0 -56 -17.5 -102t-53.5 -79t-89.5 -51t-125.5 -18z" />
    <glyph glyph-name="Uacute" unicode="&#xda;" horiz-adv-x="711" 
d="M294 773l66 136h160l-107 -136h-119zM353 -14q-139 0 -210.5 65t-71.5 183v482h164v-458q0 -74 30 -112.5t104 -38.5q75 0 105.5 38.5t30.5 112.5v458h134v-480q0 -56 -17.5 -102t-53.5 -79t-89.5 -51t-125.5 -18z" />
    <glyph glyph-name="Ucircumflex" unicode="&#xdb;" horiz-adv-x="711" 
d="M353 836l-59 -63h-120l119 132h124l119 -132h-125zM353 -14q-139 0 -210.5 65t-71.5 183v482h164v-458q0 -74 30 -112.5t104 -38.5q75 0 105.5 38.5t30.5 112.5v458h134v-480q0 -56 -17.5 -102t-53.5 -79t-89.5 -51t-125.5 -18z" />
    <glyph glyph-name="Udieresis" unicode="&#xdc;" horiz-adv-x="711" 
d="M353 -14q-139 0 -210.5 65t-71.5 183v482h164v-458q0 -74 30 -112.5t104 -38.5q75 0 105.5 38.5t30.5 112.5v458h134v-480q0 -56 -17.5 -102t-53.5 -79t-89.5 -51t-125.5 -18zM184 914h132v-127h-132v127zM394 914h132v-127h-132v127z" />
    <glyph glyph-name="Yacute" unicode="&#xdd;" horiz-adv-x="631" 
d="M233 0v288l-219 428h172l144 -295h4l146 295h138l-222 -429v-287h-163zM256 773l66 136h160l-107 -136h-119z" />
    <glyph glyph-name="Thorn" unicode="&#xde;" horiz-adv-x="657" 
d="M81 716h162v-129h112q138 0 200.5 -55t62.5 -162q0 -113 -69 -165t-193 -52h-115v-153h-160v716zM343 261q57 0 85 25.5t28 82.5q0 59 -28 84.5t-85 25.5h-100v-218h100z" />
    <glyph glyph-name="germandbls" unicode="&#xdf;" horiz-adv-x="637" 
d="M421 -10q-42 0 -72.5 11.5t-51.5 32.5t-32.5 49.5t-14.5 62.5l92 28q0 -46 22 -73.5t55 -27.5q24 0 39.5 14.5t15.5 40.5q0 32 -24.5 53.5t-61.5 46.5q-56 38 -83.5 72t-27.5 81q0 42 19.5 71.5t48.5 57.5q24 23 40 48t16 54q0 35 -23.5 55.5t-61.5 20.5q-53 0 -77.5 -42
t-24.5 -114v-532h-151v543q0 62 18 107t50 74.5t77.5 43.5t99.5 14q53 0 95.5 -12t72 -33t45.5 -50.5t16 -64.5t-14 -62.5t-36 -50.5q-25 -27 -47.5 -48.5t-22.5 -46.5t22 -43t58 -44q25 -18 46 -35t35.5 -37t22.5 -43.5t8 -54.5q0 -36 -13.5 -66.5t-38 -53t-59.5 -35
t-77 -12.5z" />
    <glyph glyph-name="agrave" unicode="&#xe0;" horiz-adv-x="578" 
d="M193 -10q-69 0 -108 37t-39 98q0 37 13.5 62t34.5 43t47 30t52 22q38 15 75.5 28.5t65.5 24.5v38q0 38 -16 57.5t-51 19.5q-41 0 -60 -25t-27 -74l-118 15q6 47 25.5 80.5t48.5 54.5t65.5 30.5t77.5 9.5q103 0 156 -41t53 -126v-236q0 -41 21 -54q8 -6 20.5 -8t27.5 -2
v-69q-6 -3 -15.5 -5.5t-21 -5t-23 -3.5t-21.5 -1q-54 0 -86 24t-37 75h-8q-20 -46 -56.5 -72.5t-95.5 -26.5zM253 78q41 0 61 28t20 71v79q-16 -5 -33.5 -12.5l-45.5 -19.5q-25 -11 -43.5 -28.5t-18.5 -53.5q0 -29 15 -46.5t45 -17.5zM145 742h138l56 -150h-102z" />
    <glyph glyph-name="aacute" unicode="&#xe1;" horiz-adv-x="578" 
d="M193 -10q-69 0 -108 37t-39 98q0 37 13.5 62t34.5 43t47 30t52 22q38 15 75.5 28.5t65.5 24.5v38q0 38 -16 57.5t-51 19.5q-41 0 -60 -25t-27 -74l-118 15q6 47 25.5 80.5t48.5 54.5t65.5 30.5t77.5 9.5q103 0 156 -41t53 -126v-236q0 -41 21 -54q8 -6 20.5 -8t27.5 -2
v-69q-6 -3 -15.5 -5.5t-21 -5t-23 -3.5t-21.5 -1q-54 0 -86 24t-37 75h-8q-20 -46 -56.5 -72.5t-95.5 -26.5zM253 78q41 0 61 28t20 71v79q-16 -5 -33.5 -12.5l-45.5 -19.5q-25 -11 -43.5 -28.5t-18.5 -53.5q0 -29 15 -46.5t45 -17.5zM222 592l56 150h142l-92 -150h-106z
" />
    <glyph glyph-name="acircumflex" unicode="&#xe2;" horiz-adv-x="578" 
d="M193 -10q-69 0 -108 37t-39 98q0 37 13.5 62t34.5 43t47 30t52 22q38 15 75.5 28.5t65.5 24.5v38q0 38 -16 57.5t-51 19.5q-41 0 -60 -25t-27 -74l-118 15q6 47 25.5 80.5t48.5 54.5t65.5 30.5t77.5 9.5q103 0 156 -41t53 -126v-236q0 -41 21 -54q8 -6 20.5 -8t27.5 -2
v-69q-6 -3 -15.5 -5.5t-21 -5t-23 -3.5t-21.5 -1q-54 0 -86 24t-37 75h-8q-20 -46 -56.5 -72.5t-95.5 -26.5zM253 78q41 0 61 28t20 71v79q-16 -5 -33.5 -12.5l-45.5 -19.5q-25 -11 -43.5 -28.5t-18.5 -53.5q0 -29 15 -46.5t45 -17.5zM279 664l-47 -72h-105l97 143h112
l97 -143h-108z" />
    <glyph glyph-name="atilde" unicode="&#xe3;" horiz-adv-x="578" 
d="M193 -10q-69 0 -108 37t-39 98q0 37 13.5 62t34.5 43t47 30t52 22q38 15 75.5 28.5t65.5 24.5v38q0 38 -16 57.5t-51 19.5q-41 0 -60 -25t-27 -74l-118 15q6 47 25.5 80.5t48.5 54.5t65.5 30.5t77.5 9.5q103 0 156 -41t53 -126v-236q0 -41 21 -54q8 -6 20.5 -8t27.5 -2
v-69q-6 -3 -15.5 -5.5t-21 -5t-23 -3.5t-21.5 -1q-54 0 -86 24t-37 75h-8q-20 -46 -56.5 -72.5t-95.5 -26.5zM253 78q41 0 61 28t20 71v79q-16 -5 -33.5 -12.5l-45.5 -19.5q-25 -11 -43.5 -28.5t-18.5 -53.5q0 -29 15 -46.5t45 -17.5zM217 634q-30 0 -35 -40l-57 17
q-2 25 3.5 47.5t17.5 39.5t30.5 26.5t41.5 9.5q18 0 34 -6t31.5 -13t29.5 -13t28 -6q30 0 35 40l57 -17q2 -26 -3.5 -48.5t-17.5 -39t-30.5 -26t-41.5 -9.5q-18 0 -34 6t-31.5 13t-30 13t-27.5 6z" />
    <glyph glyph-name="adieresis" unicode="&#xe4;" horiz-adv-x="578" 
d="M193 -10q-69 0 -108 37t-39 98q0 37 13.5 62t34.5 43t47 30t52 22q38 15 75.5 28.5t65.5 24.5v38q0 38 -16 57.5t-51 19.5q-41 0 -60 -25t-27 -74l-118 15q6 47 25.5 80.5t48.5 54.5t65.5 30.5t77.5 9.5q103 0 156 -41t53 -126v-236q0 -41 21 -54q8 -6 20.5 -8t27.5 -2
v-69q-6 -3 -15.5 -5.5t-21 -5t-23 -3.5t-21.5 -1q-54 0 -86 24t-37 75h-8q-20 -46 -56.5 -72.5t-95.5 -26.5zM253 78q41 0 61 28t20 71v79q-16 -5 -33.5 -12.5l-45.5 -19.5q-25 -11 -43.5 -28.5t-18.5 -53.5q0 -29 15 -46.5t45 -17.5zM127 729h122v-126h-122v126zM309 729
h122v-126h-122v126z" />
    <glyph glyph-name="aring" unicode="&#xe5;" horiz-adv-x="578" 
d="M193 -10q-69 0 -108 37t-39 98q0 37 13.5 62t34.5 43t47 30t52 22q38 15 75.5 28.5t65.5 24.5v38q0 38 -16 57.5t-51 19.5q-41 0 -60 -25t-27 -74l-118 15q6 47 25.5 80.5t48.5 54.5t65.5 30.5t77.5 9.5q103 0 156 -41t53 -126v-236q0 -41 21 -54q8 -6 20.5 -8t27.5 -2
v-69q-6 -3 -15.5 -5.5t-21 -5t-23 -3.5t-21.5 -1q-54 0 -86 24t-37 75h-8q-20 -46 -56.5 -72.5t-95.5 -26.5zM253 78q41 0 61 28t20 71v79q-16 -5 -33.5 -12.5l-45.5 -19.5q-25 -11 -43.5 -28.5t-18.5 -53.5q0 -29 15 -46.5t45 -17.5zM400 684q0 -47 -30.5 -75.5
t-81.5 -28.5q-52 0 -83 28.5t-31 75.5t31 76.5t83 29.5q51 0 81.5 -29.5t30.5 -76.5zM244 685q0 -23 12.5 -34.5t31.5 -11.5t31.5 11.5t12.5 34.5t-12.5 34.5t-31.5 11.5t-31.5 -11.5t-12.5 -34.5z" />
    <glyph glyph-name="ae" unicode="&#xe6;" horiz-adv-x="868" 
d="M588 448q-42 0 -63.5 -30.5t-26.5 -96.5h175q-2 66 -21 96.5t-64 30.5zM252 78q42 0 62 28t20 71v79q-16 -5 -33.5 -12.5l-45.5 -19.5q-25 -11 -43.5 -28.5t-18.5 -53.5q0 -29 15 -46.5t44 -17.5zM825 159q-9 -35 -26.5 -66t-45 -54t-65.5 -36t-88 -13q-82 0 -141.5 33.5
t-91.5 96.5h-8q-19 -65 -62.5 -97.5t-103.5 -32.5q-69 0 -108 37t-39 100q0 36 13.5 61t34.5 42.5t47 29.5t52 22q38 15 75.5 28.5t65.5 24.5v38q0 38 -16 57.5t-51 19.5q-42 0 -60.5 -25t-26.5 -74l-118 15q6 47 24.5 80.5t46 54.5t63.5 30.5t77 9.5q57 0 95 -14t60 -43
q30 26 70 41.5t89 15.5q117 0 179 -76t62 -216h-332q3 -79 27.5 -122t85.5 -43q26 0 44.5 9t31.5 24.5t22 36.5t15 45z" />
    <glyph glyph-name="ccedilla" unicode="&#xe7;" horiz-adv-x="563" 
d="M318 -246q-44 0 -77 13t-52 29l30 55q17 -14 40 -23.5t46 -9.5q19 0 30 9.5t11 27.5q0 14 -8 22t-22 8t-22.5 -7t-13.5 -16l-61 20l40 111q-34 4 -64 15q-47 19 -81 54.5t-52 86.5t-18 117t19.5 117t54 86.5t82.5 54t105 18.5q51 0 89 -12.5t64.5 -34.5t42.5 -52t22 -65
l-110 -42q-8 49 -31 80.5t-72 31.5q-104 0 -104 -182q0 -91 25.5 -136.5t82.5 -45.5q25 0 42.5 9.5t29 26t18.5 38.5t11 46l110 -42q-10 -37 -27 -68.5t-43.5 -54.5t-64.5 -36q-26 -9 -59 -12l-20 -53q17 7 40 7q38 0 66 -23t28 -64q0 -25 -10.5 -44.5t-27.5 -32.5
t-40.5 -20t-48.5 -7z" />
    <glyph glyph-name="egrave" unicode="&#xe8;" horiz-adv-x="578" 
d="M298 448q-43 0 -64 -30.5t-26 -96.5h175q-3 66 -21.5 96.5t-63.5 30.5zM535 159q-9 -35 -26.5 -66t-45 -54t-66 -36t-88.5 -13q-60 0 -109 18.5t-83.5 53.5t-53.5 86.5t-19 117.5q0 52 16.5 101.5t49 88t79.5 62t108 23.5q116 0 178.5 -76t62.5 -216h-332
q3 -79 27.5 -122t84.5 -43q27 0 45.5 9t31.5 24.5t21.5 36.5t14.5 45zM160 742h138l56 -150h-102z" />
    <glyph glyph-name="eacute" unicode="&#xe9;" horiz-adv-x="578" 
d="M237 592l56 150h142l-92 -150h-106zM298 448q-43 0 -64 -30.5t-26 -96.5h175q-3 66 -21.5 96.5t-63.5 30.5zM535 159q-9 -35 -26.5 -66t-45 -54t-66 -36t-88.5 -13q-60 0 -109 18.5t-83.5 53.5t-53.5 86.5t-19 117.5q0 52 16.5 101.5t49 88t79.5 62t108 23.5
q116 0 178.5 -76t62.5 -216h-332q3 -79 27.5 -122t84.5 -43q27 0 45.5 9t31.5 24.5t21.5 36.5t14.5 45z" />
    <glyph glyph-name="ecircumflex" unicode="&#xea;" horiz-adv-x="578" 
d="M294 664l-47 -72h-105l97 143h112l97 -143h-108zM298 448q-43 0 -64 -30.5t-26 -96.5h175q-3 66 -21.5 96.5t-63.5 30.5zM535 159q-9 -35 -26.5 -66t-45 -54t-66 -36t-88.5 -13q-60 0 -109 18.5t-83.5 53.5t-53.5 86.5t-19 117.5q0 52 16.5 101.5t49 88t79.5 62t108 23.5
q116 0 178.5 -76t62.5 -216h-332q3 -79 27.5 -122t84.5 -43q27 0 45.5 9t31.5 24.5t21.5 36.5t14.5 45z" />
    <glyph glyph-name="edieresis" unicode="&#xeb;" horiz-adv-x="578" 
d="M142 729h122v-126h-122v126zM324 729h122v-126h-122v126zM298 448q-43 0 -64 -30.5t-26 -96.5h175q-3 66 -21.5 96.5t-63.5 30.5zM535 159q-9 -35 -26.5 -66t-45 -54t-66 -36t-88.5 -13q-60 0 -109 18.5t-83.5 53.5t-53.5 86.5t-19 117.5q0 52 16.5 101.5t49 88t79.5 62
t108 23.5q116 0 178.5 -76t62.5 -216h-332q3 -79 27.5 -122t84.5 -43q27 0 45.5 9t31.5 24.5t21.5 36.5t14.5 45z" />
    <glyph glyph-name="igrave" unicode="&#xec;" horiz-adv-x="280" 
d="M63 531h154v-531h-154v531zM8 742h138l56 -150h-102z" />
    <glyph glyph-name="iacute" unicode="&#xed;" horiz-adv-x="280" 
d="M85 592l56 150h142l-92 -150h-106zM63 531h154v-531h-154v531z" />
    <glyph glyph-name="icircumflex" unicode="&#xee;" horiz-adv-x="280" 
d="M142 664l-47 -72h-105l97 143h112l97 -143h-108zM63 531h154v-531h-154v531z" />
    <glyph glyph-name="idieresis" unicode="&#xef;" horiz-adv-x="280" 
d="M-10 729h122v-126h-122v126zM172 729h122v-126h-122v126zM63 531h154v-531h-154v531z" />
    <glyph glyph-name="eth" unicode="&#xf0;" horiz-adv-x="596" 
d="M297 -10q-65 0 -113 22.5t-79 61t-46 88.5t-15 104t13.5 104t41 88.5t68.5 61t96 22.5t85 -23t47 -57l5 1q-8 63 -30.5 106t-56.5 73l-159 -74l-32 63l122 57q-26 13 -57 22t-68 16l13 75q66 -5 121.5 -20t102.5 -41l116 54l31 -64l-81 -38q68 -64 98.5 -157.5
t30.5 -202.5q0 -164 -65.5 -253t-188.5 -89zM206 266q0 -99 22 -141t69 -42t70 42t23 141t-23.5 140.5t-69.5 41.5q-47 0 -69 -41.5t-22 -140.5z" />
    <glyph glyph-name="ntilde" unicode="&#xf1;" horiz-adv-x="599" 
d="M63 531h139l10 -129h2q13 38 33 64.5t44.5 43t50.5 24t51 7.5q41 0 68.5 -12t44.5 -32.5t24.5 -48t7.5 -59.5v-389h-154v353q0 43 -13.5 61.5t-48.5 18.5q-45 0 -75 -42.5t-30 -120.5v-270h-154v531zM240 634q-30 0 -35 -40l-57 17q-2 25 3.5 47.5t17.5 39.5t30.5 26.5
t41.5 9.5q18 0 34 -6t31.5 -13t29.5 -13t28 -6q30 0 35 40l57 -17q2 -26 -3.5 -48.5t-17.5 -39t-30.5 -26t-41.5 -9.5q-18 0 -34 6t-31.5 13t-30 13t-27.5 6z" />
    <glyph glyph-name="ograve" unicode="&#xf2;" horiz-adv-x="596" 
d="M552 266q0 -54 -15 -104t-46.5 -88.5t-79.5 -61t-114 -22.5q-65 0 -113 22.5t-79 61t-46 88.5t-15 104t15 104t46 88t79 60.5t113 22.5q66 0 114 -22.5t79.5 -60.5t46.5 -88t15 -104zM206 266q0 -99 22 -141t69 -42t70 42t23 141t-23 140.5t-70 41.5t-69 -41.5
t-22 -140.5zM163 742h138l56 -150h-102z" />
    <glyph glyph-name="oacute" unicode="&#xf3;" horiz-adv-x="596" 
d="M240 592l56 150h142l-92 -150h-106zM552 266q0 -54 -15 -104t-46.5 -88.5t-79.5 -61t-114 -22.5q-65 0 -113 22.5t-79 61t-46 88.5t-15 104t15 104t46 88t79 60.5t113 22.5q66 0 114 -22.5t79.5 -60.5t46.5 -88t15 -104zM206 266q0 -99 22 -141t69 -42t70 42t23 141
t-23 140.5t-70 41.5t-69 -41.5t-22 -140.5z" />
    <glyph glyph-name="ocircumflex" unicode="&#xf4;" horiz-adv-x="596" 
d="M297 664l-47 -72h-105l97 143h112l97 -143h-108zM552 266q0 -54 -15 -104t-46.5 -88.5t-79.5 -61t-114 -22.5q-65 0 -113 22.5t-79 61t-46 88.5t-15 104t15 104t46 88t79 60.5t113 22.5q66 0 114 -22.5t79.5 -60.5t46.5 -88t15 -104zM206 266q0 -99 22 -141t69 -42t70 42
t23 141t-23 140.5t-70 41.5t-69 -41.5t-22 -140.5z" />
    <glyph glyph-name="otilde" unicode="&#xf5;" horiz-adv-x="596" 
d="M552 266q0 -54 -15 -104t-46.5 -88.5t-79.5 -61t-114 -22.5q-65 0 -113 22.5t-79 61t-46 88.5t-15 104t15 104t46 88t79 60.5t113 22.5q66 0 114 -22.5t79.5 -60.5t46.5 -88t15 -104zM206 266q0 -99 22 -141t69 -42t70 42t23 141t-23 140.5t-70 41.5t-69 -41.5
t-22 -140.5zM235 634q-30 0 -35 -40l-57 17q-2 25 3.5 47.5t17.5 39.5t30.5 26.5t41.5 9.5q18 0 34 -6t31.5 -13t29.5 -13t28 -6q30 0 35 40l57 -17q2 -26 -3.5 -48.5t-17.5 -39t-30.5 -26t-41.5 -9.5q-18 0 -34 6t-31.5 13t-30 13t-27.5 6z" />
    <glyph glyph-name="odieresis" unicode="&#xf6;" horiz-adv-x="596" 
d="M145 729h122v-126h-122v126zM327 729h122v-126h-122v126zM552 266q0 -54 -15 -104t-46.5 -88.5t-79.5 -61t-114 -22.5q-65 0 -113 22.5t-79 61t-46 88.5t-15 104t15 104t46 88t79 60.5t113 22.5q66 0 114 -22.5t79.5 -60.5t46.5 -88t15 -104zM206 266q0 -99 22 -141
t69 -42t70 42t23 141t-23 140.5t-70 41.5t-69 -41.5t-22 -140.5z" />
    <glyph glyph-name="divide" unicode="&#xf7;" horiz-adv-x="541" 
d="M206 581h129v-129h-129v129zM46 378h448v-112h-448v112zM206 192h129v-129h-129v129z" />
    <glyph glyph-name="oslash" unicode="&#xf8;" horiz-adv-x="596" 
d="M194 266q0 -35 3 -63l177 212q-25 40 -77 40q-54 0 -78.5 -44.5t-24.5 -144.5zM297 76q55 0 80 45t25 145q0 35 -3 64l-178 -213q25 -41 76 -41zM297 -10q-45 0 -81.5 11t-65.5 31l-58 -69l-53 50l59 70q-28 38 -41 85t-13 98q0 54 15 104t46 88t79 60.5t113 22.5
q45 0 81.5 -10.5t65.5 -30.5l56 67l54 -51l-56 -68q27 -37 40.5 -84t13.5 -98q0 -54 -15 -104t-46.5 -88.5t-79.5 -61t-114 -22.5z" />
    <glyph glyph-name="ugrave" unicode="&#xf9;" horiz-adv-x="594" 
d="M213 -10q-42 0 -71 12t-47 32.5t-26.5 48t-8.5 59.5v389h154v-353q0 -43 15.5 -61.5t50.5 -18.5q42 0 69.5 44.5t27.5 127.5v261h154v-531h-135l-14 123h-3q-24 -72 -69 -102.5t-97 -30.5zM161 742h138l56 -150h-102z" />
    <glyph glyph-name="uacute" unicode="&#xfa;" horiz-adv-x="594" 
d="M238 592l56 150h142l-92 -150h-106zM213 -10q-42 0 -71 12t-47 32.5t-26.5 48t-8.5 59.5v389h154v-353q0 -43 15.5 -61.5t50.5 -18.5q42 0 69.5 44.5t27.5 127.5v261h154v-531h-135l-14 123h-3q-24 -72 -69 -102.5t-97 -30.5z" />
    <glyph glyph-name="ucircumflex" unicode="&#xfb;" horiz-adv-x="594" 
d="M295 664l-47 -72h-105l97 143h112l97 -143h-108zM213 -10q-42 0 -71 12t-47 32.5t-26.5 48t-8.5 59.5v389h154v-353q0 -43 15.5 -61.5t50.5 -18.5q42 0 69.5 44.5t27.5 127.5v261h154v-531h-135l-14 123h-3q-24 -72 -69 -102.5t-97 -30.5z" />
    <glyph glyph-name="udieresis" unicode="&#xfc;" horiz-adv-x="594" 
d="M143 729h122v-126h-122v126zM325 729h122v-126h-122v126zM213 -10q-42 0 -71 12t-47 32.5t-26.5 48t-8.5 59.5v389h154v-353q0 -43 15.5 -61.5t50.5 -18.5q42 0 69.5 44.5t27.5 127.5v261h154v-531h-135l-14 123h-3q-24 -72 -69 -102.5t-97 -30.5z" />
    <glyph glyph-name="yacute" unicode="&#xfd;" horiz-adv-x="521" 
d="M41 -123q24 0 45 2t38 8q22 8 35 24.5t24 46.5l15 43l-192 530h165l100 -347h4l107 347h132l-212 -598q-10 -29 -20 -52t-23.5 -40.5t-31 -30.5t-42.5 -22q-24 -9 -61.5 -12t-82.5 -3v104zM204 592l56 150h142l-92 -150h-106z" />
    <glyph glyph-name="thorn" unicode="&#xfe;" horiz-adv-x="630" 
d="M327 81q45 0 70.5 41t25.5 139q0 185 -99 185q-48 0 -75.5 -47t-27.5 -139q0 -48 9 -81.5t24 -55.5t34 -32t39 -10zM220 417q19 53 56 88.5t102 35.5q51 0 90 -20.5t65 -57.5t39 -87.5t13 -110.5q0 -65 -16 -116.5t-44.5 -86.5t-69.5 -53.5t-90 -18.5q-98 0 -142 92h-8
v-309h-152v1009h153v-365h4z" />
    <glyph glyph-name="ydieresis" unicode="&#xff;" horiz-adv-x="521" 
d="M41 -123q24 0 45 2t38 8q22 8 35 24.5t24 46.5l15 43l-192 530h165l100 -347h4l107 347h132l-212 -598q-10 -29 -20 -52t-23.5 -40.5t-31 -30.5t-42.5 -22q-24 -9 -61.5 -12t-82.5 -3v104zM109 729h122v-126h-122v126zM291 729h122v-126h-122v126z" />
    <glyph glyph-name="Amacron" unicode="&#x100;" horiz-adv-x="676" 
d="M242 253h177l-83 280h-7zM453 138h-247l-43 -138h-147l243 718h161l240 -718h-166zM175 897h324v-105h-324v105z" />
    <glyph glyph-name="amacron" unicode="&#x101;" horiz-adv-x="578" 
d="M193 -10q-69 0 -108 37t-39 98q0 37 13.5 62t34.5 43t47 30t52 22q38 15 75.5 28.5t65.5 24.5v38q0 38 -16 57.5t-51 19.5q-41 0 -60 -25t-27 -74l-118 15q6 47 25.5 80.5t48.5 54.5t65.5 30.5t77.5 9.5q103 0 156 -41t53 -126v-236q0 -41 21 -54q8 -6 20.5 -8t27.5 -2
v-69q-6 -3 -15.5 -5.5t-21 -5t-23 -3.5t-21.5 -1q-54 0 -86 24t-37 75h-8q-20 -46 -56.5 -72.5t-95.5 -26.5zM253 78q41 0 61 28t20 71v79q-16 -5 -33.5 -12.5l-45.5 -19.5q-25 -11 -43.5 -28.5t-18.5 -53.5q0 -29 15 -46.5t45 -17.5zM143 707h272v-99h-272v99z" />
    <glyph glyph-name="Abreve" unicode="&#x102;" horiz-adv-x="676" 
d="M242 253h177l-83 280h-7zM453 138h-247l-43 -138h-147l243 718h161l240 -718h-166zM337 770q-64 0 -106.5 31t-58.5 90l60 34q13 -23 36.5 -36.5t68.5 -13.5t68 13.5t37 36.5l60 -34q-16 -59 -59 -90t-106 -31z" />
    <glyph glyph-name="abreve" unicode="&#x103;" horiz-adv-x="578" 
d="M193 -10q-69 0 -108 37t-39 98q0 37 13.5 62t34.5 43t47 30t52 22q38 15 75.5 28.5t65.5 24.5v38q0 38 -16 57.5t-51 19.5q-41 0 -60 -25t-27 -74l-118 15q6 47 25.5 80.5t48.5 54.5t65.5 30.5t77.5 9.5q103 0 156 -41t53 -126v-236q0 -41 21 -54q8 -6 20.5 -8t27.5 -2
v-69q-6 -3 -15.5 -5.5t-21 -5t-23 -3.5t-21.5 -1q-54 0 -86 24t-37 75h-8q-20 -46 -56.5 -72.5t-95.5 -26.5zM253 78q41 0 61 28t20 71v79q-16 -5 -33.5 -12.5l-45.5 -19.5q-25 -11 -43.5 -28.5t-18.5 -53.5q0 -29 15 -46.5t45 -17.5zM279 592q-58 0 -97 33t-49 90l61 27
q11 -23 30 -38.5t55 -15.5t55 15.5t30 38.5l61 -27q-10 -57 -49 -90t-97 -33z" />
    <glyph glyph-name="Aogonek" unicode="&#x104;" horiz-adv-x="676" 
d="M581 -233q-50 0 -81.5 23.5t-31.5 66.5q0 45 37.5 81.5t94.5 61.5h-106l-41 138h-247l-43 -138h-147l243 718h161l240 -718q-44 -28 -63.5 -57.5t-19.5 -53.5q0 -22 12 -31.5t29 -9.5q14 0 27 5l13 -67q-34 -19 -77 -19zM242 253h177l-83 280h-7z" />
    <glyph glyph-name="aogonek" unicode="&#x105;" horiz-adv-x="578" 
d="M478 -228q-50 0 -81.5 23.5t-31.5 66.5q0 45 37 82q27 26 64 46q-47 3 -76 24q-32 24 -37 75h-8q-20 -46 -56.5 -72.5t-95.5 -26.5q-69 0 -108 37t-39 98q0 37 13.5 62t34.5 43t47 30t52 22q38 15 75.5 28.5t65.5 24.5v38q0 38 -16 57.5t-51 19.5q-41 0 -60 -25t-27 -74
l-118 15q6 47 25.5 80.5t48.5 54.5t65.5 30.5t77.5 9.5q103 0 156 -41t53 -126v-236q0 -41 21 -54q8 -6 20.5 -8t27.5 -2v-69q-44 -28 -63.5 -57.5t-19.5 -53.5q0 -22 12 -31.5t29 -9.5q14 0 27 5l13 -67q-34 -19 -77 -19zM253 78q41 0 61 28t20 71v79q-16 -5 -34 -13
l-45 -19q-25 -11 -43.5 -28.5t-18.5 -53.5q0 -29 15 -46.5t45 -17.5z" />
    <glyph glyph-name="Cacute" unicode="&#x106;" horiz-adv-x="711" 
d="M375 -16q-83 0 -144 30t-101 81.5t-59.5 119.5t-19.5 143t20 143t61 119.5t102.5 81.5t144.5 30q64 0 114.5 -19t86.5 -53t59 -80t34 -101l-141 -34q-13 84 -47 128.5t-103 44.5q-81 0 -119 -67.5t-38 -192.5t38 -192.5t119 -67.5q37 0 62.5 12t43 34.5t28.5 55.5t17 74
l141 -38q-12 -52 -34.5 -97.5t-58 -80t-86 -54.5t-120.5 -20zM311 773l66 136h160l-107 -136h-119z" />
    <glyph glyph-name="cacute" unicode="&#x107;" horiz-adv-x="563" 
d="M241 592l56 150h142l-92 -150h-106zM302 -10q-59 0 -106.5 18.5t-81.5 54t-52 86.5t-18 117t19.5 117t54 86.5t82.5 54t105 18.5q51 0 89 -12.5t64.5 -34.5t42.5 -52t22 -65l-110 -42q-8 49 -31 80.5t-72 31.5q-104 0 -104 -182q0 -91 25.5 -136.5t82.5 -45.5
q25 0 42.5 9.5t29 26t18.5 38.5t11 46l110 -42q-10 -37 -27 -68.5t-43.5 -54.5t-64 -36t-88.5 -13z" />
    <glyph glyph-name="Ccircumflex" unicode="&#x108;" horiz-adv-x="711" 
d="M371 836l-59 -63h-120l119 132h124l119 -132h-125zM375 -16q-83 0 -144 30t-101 81.5t-59.5 119.5t-19.5 143t20 143t61 119.5t102.5 81.5t144.5 30q64 0 114.5 -19t86.5 -53t59 -80t34 -101l-141 -34q-13 84 -47 128.5t-103 44.5q-81 0 -119 -67.5t-38 -192.5t38 -192.5
t119 -67.5q37 0 62.5 12t43 34.5t28.5 55.5t17 74l141 -38q-12 -52 -34.5 -97.5t-58 -80t-86 -54.5t-120.5 -20z" />
    <glyph glyph-name="ccircumflex" unicode="&#x109;" horiz-adv-x="563" 
d="M298 664l-47 -72h-105l97 143h112l97 -143h-108zM302 -10q-59 0 -106.5 18.5t-81.5 54t-52 86.5t-18 117t19.5 117t54 86.5t82.5 54t105 18.5q51 0 89 -12.5t64.5 -34.5t42.5 -52t22 -65l-110 -42q-8 49 -31 80.5t-72 31.5q-104 0 -104 -182q0 -91 25.5 -136.5
t82.5 -45.5q25 0 42.5 9.5t29 26t18.5 38.5t11 46l110 -42q-10 -37 -27 -68.5t-43.5 -54.5t-64 -36t-88.5 -13z" />
    <glyph glyph-name="Cdotaccent" unicode="&#x10a;" horiz-adv-x="711" 
d="M375 -16q-83 0 -144 30t-101 81.5t-59.5 119.5t-19.5 143t20 143t61 119.5t102.5 81.5t144.5 30q64 0 114.5 -19t86.5 -53t59 -80t34 -101l-141 -34q-13 84 -47 128.5t-103 44.5q-81 0 -119 -67.5t-38 -192.5t38 -192.5t119 -67.5q37 0 62.5 12t43 34.5t28.5 55.5t17 74
l141 -38q-12 -52 -34.5 -97.5t-58 -80t-86 -54.5t-120.5 -20zM294 920h154v-134h-154v134z" />
    <glyph glyph-name="cdotaccent" unicode="&#x10b;" horiz-adv-x="563" 
d="M302 -10q-59 0 -106.5 18.5t-81.5 54t-52 86.5t-18 117t19.5 117t54 86.5t82.5 54t105 18.5q51 0 89 -12.5t64.5 -34.5t42.5 -52t22 -65l-110 -42q-8 49 -31 80.5t-72 31.5q-104 0 -104 -182q0 -91 25.5 -136.5t82.5 -45.5q25 0 42.5 9.5t29 26t18.5 38.5t11 46l110 -42
q-10 -37 -27 -68.5t-43.5 -54.5t-64 -36t-88.5 -13zM225 732h145v-131h-145v131z" />
    <glyph glyph-name="Ccaron" unicode="&#x10c;" horiz-adv-x="711" 
d="M318 773l-119 132h125l58 -63l59 63h120l-119 -132h-124zM375 -16q-83 0 -144 30t-101 81.5t-59.5 119.5t-19.5 143t20 143t61 119.5t102.5 81.5t144.5 30q64 0 114.5 -19t86.5 -53t59 -80t34 -101l-141 -34q-13 84 -47 128.5t-103 44.5q-81 0 -119 -67.5t-38 -192.5
t38 -192.5t119 -67.5q37 0 62.5 12t43 34.5t28.5 55.5t17 74l141 -38q-12 -52 -34.5 -97.5t-58 -80t-86 -54.5t-120.5 -20z" />
    <glyph glyph-name="ccaron" unicode="&#x10d;" horiz-adv-x="563" 
d="M149 735h108l46 -71l47 71h105l-97 -143h-112zM302 -10q-59 0 -106.5 18.5t-81.5 54t-52 86.5t-18 117t19.5 117t54 86.5t82.5 54t105 18.5q51 0 89 -12.5t64.5 -34.5t42.5 -52t22 -65l-110 -42q-8 49 -31 80.5t-72 31.5q-104 0 -104 -182q0 -91 25.5 -136.5t82.5 -45.5
q25 0 42.5 9.5t29 26t18.5 38.5t11 46l110 -42q-10 -37 -27 -68.5t-43.5 -54.5t-64 -36t-88.5 -13z" />
    <glyph glyph-name="Dcaron" unicode="&#x10e;" horiz-adv-x="738" 
d="M303 773l-119 132h125l58 -63l59 63h120l-119 -132h-124zM81 716h263q86 0 150.5 -24.5t107 -71t64 -112.5t21.5 -150t-21.5 -150t-64 -112.5t-107 -71t-150.5 -24.5h-263v716zM338 109q43 0 76 11.5t55 40t33 77t11 121.5q0 72 -13 120t-36.5 76.5t-55.5 40t-70 11.5
h-95v-498h95z" />
    <glyph glyph-name="dcaron" unicode="&#x10f;" horiz-adv-x="630" 
d="M748 782l-47 -172h-81l20 172h108zM306 80q46 0 74.5 44t28.5 143q0 91 -28 136t-73 45q-48 0 -74.5 -43.5t-26.5 -136.5q0 -94 25.5 -141t73.5 -47zM264 -10q-54 0 -95 20.5t-68.5 57.5t-41.5 87.5t-14 110.5q0 65 16 116t45.5 86.5t70 54t89.5 18.5q51 0 88 -25t54 -73
h8v339h151v-787h-102l-43 102h-7q-20 -48 -56.5 -77.5t-94.5 -29.5z" />
    <glyph glyph-name="Dcroat" unicode="&#x110;" horiz-adv-x="755" 
d="M23 415h370v-106h-370v106zM99 716h263q86 0 150.5 -24.5t107 -71t64 -112.5t21.5 -150t-21.5 -150t-64 -112.5t-107 -71t-150.5 -24.5h-263v716zM356 109q43 0 76 11.5t55 40t33 77t11 121.5q0 72 -13 120t-36.5 76.5t-55.5 40t-70 11.5h-95v-498h95z" />
    <glyph glyph-name="dcroat" unicode="&#x111;" horiz-adv-x="630" 
d="M307 698h333v-87h-333v87zM306 80q46 0 74.5 44t28.5 143q0 91 -28 136t-73 45q-48 0 -74.5 -43.5t-26.5 -136.5q0 -94 25.5 -141t73.5 -47zM264 -10q-54 0 -95 20.5t-68.5 57.5t-41.5 87.5t-14 110.5q0 65 16 116t45.5 86.5t70 54t89.5 18.5q51 0 88 -25t54 -73h8v339
h151v-787h-102l-43 102h-7q-20 -48 -56.5 -77.5t-94.5 -29.5z" />
    <glyph glyph-name="Emacron" unicode="&#x112;" horiz-adv-x="613" 
d="M81 716h463v-109h-300v-193h231v-109h-231v-196h331v-109h-494v716zM160 897h324v-105h-324v105z" />
    <glyph glyph-name="emacron" unicode="&#x113;" horiz-adv-x="578" 
d="M298 448q-43 0 -64 -30.5t-26 -96.5h175q-3 66 -21.5 96.5t-63.5 30.5zM535 159q-9 -35 -26.5 -66t-45 -54t-66 -36t-88.5 -13q-60 0 -109 18.5t-83.5 53.5t-53.5 86.5t-19 117.5q0 52 16.5 101.5t49 88t79.5 62t108 23.5q116 0 178.5 -76t62.5 -216h-332
q3 -79 27.5 -122t84.5 -43q27 0 45.5 9t31.5 24.5t21.5 36.5t14.5 45zM158 707h272v-99h-272v99z" />
    <glyph glyph-name="Ebreve" unicode="&#x114;" horiz-adv-x="613" 
d="M81 716h463v-109h-300v-193h231v-109h-231v-196h331v-109h-494v716zM322 770q-64 0 -106.5 31t-58.5 90l60 34q13 -23 36.5 -36.5t68.5 -13.5t68 13.5t37 36.5l60 -34q-16 -59 -59 -90t-106 -31z" />
    <glyph glyph-name="ebreve" unicode="&#x115;" horiz-adv-x="578" 
d="M298 448q-43 0 -64 -30.5t-26 -96.5h175q-3 66 -21.5 96.5t-63.5 30.5zM535 159q-9 -35 -26.5 -66t-45 -54t-66 -36t-88.5 -13q-60 0 -109 18.5t-83.5 53.5t-53.5 86.5t-19 117.5q0 52 16.5 101.5t49 88t79.5 62t108 23.5q116 0 178.5 -76t62.5 -216h-332
q3 -79 27.5 -122t84.5 -43q27 0 45.5 9t31.5 24.5t21.5 36.5t14.5 45zM294 592q-58 0 -97 33t-49 90l61 27q11 -23 30 -38.5t55 -15.5t55 15.5t30 38.5l61 -27q-10 -57 -49 -90t-97 -33z" />
    <glyph glyph-name="Edotaccent" unicode="&#x116;" horiz-adv-x="613" 
d="M244 920h154v-134h-154v134zM81 716h463v-109h-300v-193h231v-109h-231v-196h331v-109h-494v716z" />
    <glyph glyph-name="edotaccent" unicode="&#x117;" horiz-adv-x="578" 
d="M298 448q-43 0 -64 -30.5t-26 -96.5h175q-3 66 -21.5 96.5t-63.5 30.5zM535 159q-9 -35 -26.5 -66t-45 -54t-66 -36t-88.5 -13q-60 0 -109 18.5t-83.5 53.5t-53.5 86.5t-19 117.5q0 52 16.5 101.5t49 88t79.5 62t108 23.5q116 0 178.5 -76t62.5 -216h-332
q3 -79 27.5 -122t84.5 -43q27 0 45.5 9t31.5 24.5t21.5 36.5t14.5 45zM221 732h145v-131h-145v131z" />
    <glyph glyph-name="Eogonek" unicode="&#x118;" horiz-adv-x="613" 
d="M81 716h463v-109h-300v-193h231v-109h-231v-196h331v-109h-71q-44 -28 -63.5 -57.5t-19.5 -53.5q0 -22 12 -31.5t29 -9.5q14 0 27 5l13 -67q-34 -19 -77 -19q-50 0 -81.5 23.5t-31.5 66.5q0 45 37.5 81.5t94.5 61.5h-363v716z" />
    <glyph glyph-name="eogonek" unicode="&#x119;" horiz-adv-x="578" 
d="M375 -233q-50 0 -81.5 23.5t-31.5 66.5q0 38 28.5 75t70.5 63q-23 -5 -52 -5q-60 0 -109 18.5t-83.5 53.5t-53.5 86.5t-19 117.5q0 52 16.5 101.5t49 88t79.5 62t108 23.5q116 0 178.5 -76t62.5 -216h-332q2 -78 26.5 -121.5t85.5 -43.5q27 0 45.5 9t31.5 24.5t21.5 36.5
t14.5 45l104 -40q-10 -38 -27 -69t-47 -60q-18 -18 -35 -34t-29.5 -32.5t-20 -33.5t-7.5 -36q0 -26 13 -36t30 -10q12 0 27 5l13 -67q-34 -19 -77 -19zM298 448q-44 0 -65 -30.5t-26 -96.5h176q-3 66 -21.5 96.5t-63.5 30.5z" />
    <glyph glyph-name="Ecaron" unicode="&#x11a;" horiz-adv-x="613" 
d="M265 773l-119 132h125l58 -63l59 63h120l-119 -132h-124zM81 716h463v-109h-300v-193h231v-109h-231v-196h331v-109h-494v716z" />
    <glyph glyph-name="ecaron" unicode="&#x11b;" horiz-adv-x="578" 
d="M145 735h108l46 -71l47 71h105l-97 -143h-112zM298 448q-43 0 -64 -30.5t-26 -96.5h175q-3 66 -21.5 96.5t-63.5 30.5zM535 159q-9 -35 -26.5 -66t-45 -54t-66 -36t-88.5 -13q-60 0 -109 18.5t-83.5 53.5t-53.5 86.5t-19 117.5q0 52 16.5 101.5t49 88t79.5 62t108 23.5
q116 0 178.5 -76t62.5 -216h-332q3 -79 27.5 -122t84.5 -43q27 0 45.5 9t31.5 24.5t21.5 36.5t14.5 45z" />
    <glyph glyph-name="Gcircumflex" unicode="&#x11c;" horiz-adv-x="751" 
d="M387 836l-59 -63h-120l119 132h124l119 -132h-125zM373 -16q-83 0 -143.5 30t-100.5 81.5t-59 119.5t-19 143t21 143t63 119.5t104.5 81.5t145.5 30q64 0 112 -14.5t81.5 -41t55.5 -65t35 -86.5l-129 -34q-14 66 -49 96.5t-100 30.5q-80 0 -123 -67.5t-43 -192.5
t45.5 -192.5t121.5 -67.5q73 0 112 38.5t39 98.5v29h-128v104h266v-368h-84l-13 114h-4q-24 -65 -77 -97.5t-130 -32.5z" />
    <glyph glyph-name="gcircumflex" unicode="&#x11d;" horiz-adv-x="604" 
d="M285 664l-47 -72h-105l97 143h112l97 -143h-108zM275 195q37 0 60 29.5t23 100.5q0 70 -23 99t-60 29q-38 0 -60.5 -29t-22.5 -99q0 -71 22.5 -100.5t60.5 -29.5zM280 -273q-54 0 -101.5 8t-84 26t-60 46t-30.5 69l120 14q5 -18 16 -34t29.5 -28t45.5 -19t65 -7
q47 0 77 6t47.5 16.5t24 23.5t6.5 27q0 28 -17 40.5t-59 12.5h-174q-28 0 -52.5 6t-43 19.5t-29.5 35t-11 53.5q0 41 26 66.5t61 36.5v5q-41 28 -63 72.5t-22 102.5q0 48 16 88t45 68.5t70.5 44t92.5 15.5q70 0 116.5 -29t72.5 -77l6 1q0 32 8.5 52.5t21.5 32t27.5 16
t25.5 4.5q19 0 30.5 -3.5t21.5 -11.5l-6 -101q-5 2 -15 5.5t-22 3.5q-35 0 -49 -24.5t-14 -81.5q0 -50 -15 -90.5t-43.5 -69.5t-70.5 -45t-95 -16q-46 0 -89 16q-9 -5 -16.5 -15t-7.5 -25q0 -40 51 -40h199q86 0 124.5 -37.5t38.5 -101.5q0 -83 -73.5 -130t-221.5 -47z" />
    <glyph glyph-name="Gbreve" unicode="&#x11e;" horiz-adv-x="751" 
d="M388 770q-64 0 -106.5 31t-58.5 90l60 34q13 -23 36.5 -36.5t68.5 -13.5t68 13.5t37 36.5l60 -34q-16 -59 -59 -90t-106 -31zM373 -16q-83 0 -143.5 30t-100.5 81.5t-59 119.5t-19 143t21 143t63 119.5t104.5 81.5t145.5 30q64 0 112 -14.5t81.5 -41t55.5 -65t35 -86.5
l-129 -34q-14 66 -49 96.5t-100 30.5q-80 0 -123 -67.5t-43 -192.5t45.5 -192.5t121.5 -67.5q73 0 112 38.5t39 98.5v29h-128v104h266v-368h-84l-13 114h-4q-24 -65 -77 -97.5t-130 -32.5z" />
    <glyph glyph-name="gbreve" unicode="&#x11f;" horiz-adv-x="604" 
d="M275 195q37 0 60 29.5t23 100.5q0 70 -23 99t-60 29q-38 0 -60.5 -29t-22.5 -99q0 -71 22.5 -100.5t60.5 -29.5zM280 -273q-54 0 -101.5 8t-84 26t-60 46t-30.5 69l120 14q5 -18 16 -34t29.5 -28t45.5 -19t65 -7q47 0 77 6t47.5 16.5t24 23.5t6.5 27q0 28 -17 40.5
t-59 12.5h-174q-28 0 -52.5 6t-43 19.5t-29.5 35t-11 53.5q0 41 26 66.5t61 36.5v5q-41 28 -63 72.5t-22 102.5q0 48 16 88t45 68.5t70.5 44t92.5 15.5q70 0 116.5 -29t72.5 -77l6 1q0 32 8.5 52.5t21.5 32t27.5 16t25.5 4.5q19 0 30.5 -3.5t21.5 -11.5l-6 -101
q-5 2 -15 5.5t-22 3.5q-35 0 -49 -24.5t-14 -81.5q0 -50 -15 -90.5t-43.5 -69.5t-70.5 -45t-95 -16q-46 0 -89 16q-9 -5 -16.5 -15t-7.5 -25q0 -40 51 -40h199q86 0 124.5 -37.5t38.5 -101.5q0 -83 -73.5 -130t-221.5 -47zM285 592q-58 0 -97 33t-49 90l61 27
q11 -23 30 -38.5t55 -15.5t55 15.5t30 38.5l61 -27q-10 -57 -49 -90t-97 -33z" />
    <glyph glyph-name="Gdotaccent" unicode="&#x120;" horiz-adv-x="751" 
d="M311 920h154v-134h-154v134zM373 -16q-83 0 -143.5 30t-100.5 81.5t-59 119.5t-19 143t21 143t63 119.5t104.5 81.5t145.5 30q64 0 112 -14.5t81.5 -41t55.5 -65t35 -86.5l-129 -34q-14 66 -49 96.5t-100 30.5q-80 0 -123 -67.5t-43 -192.5t45.5 -192.5t121.5 -67.5
q73 0 112 38.5t39 98.5v29h-128v104h266v-368h-84l-13 114h-4q-24 -65 -77 -97.5t-130 -32.5z" />
    <glyph glyph-name="gdotaccent" unicode="&#x121;" horiz-adv-x="604" 
d="M275 195q37 0 60 29.5t23 100.5q0 70 -23 99t-60 29q-38 0 -60.5 -29t-22.5 -99q0 -71 22.5 -100.5t60.5 -29.5zM280 -273q-54 0 -101.5 8t-84 26t-60 46t-30.5 69l120 14q5 -18 16 -34t29.5 -28t45.5 -19t65 -7q47 0 77 6t47.5 16.5t24 23.5t6.5 27q0 28 -17 40.5
t-59 12.5h-174q-28 0 -52.5 6t-43 19.5t-29.5 35t-11 53.5q0 41 26 66.5t61 36.5v5q-41 28 -63 72.5t-22 102.5q0 48 16 88t45 68.5t70.5 44t92.5 15.5q70 0 116.5 -29t72.5 -77l6 1q0 32 8.5 52.5t21.5 32t27.5 16t25.5 4.5q19 0 30.5 -3.5t21.5 -11.5l-6 -101
q-5 2 -15 5.5t-22 3.5q-35 0 -49 -24.5t-14 -81.5q0 -50 -15 -90.5t-43.5 -69.5t-70.5 -45t-95 -16q-46 0 -89 16q-9 -5 -16.5 -15t-7.5 -25q0 -40 51 -40h199q86 0 124.5 -37.5t38.5 -101.5q0 -83 -73.5 -130t-221.5 -47zM212 732h145v-131h-145v131z" />
    <glyph glyph-name="uni0122" unicode="&#x122;" horiz-adv-x="751" 
d="M381 -157v13h-83v89h138v-128l-137 -64v52zM373 -16q-83 0 -143.5 30t-100.5 81.5t-59 119.5t-19 143t21 143t63 119.5t104.5 81.5t145.5 30q64 0 112 -14.5t81.5 -41t55.5 -65t35 -86.5l-129 -34q-14 66 -49 96.5t-100 30.5q-80 0 -123 -67.5t-43 -192.5t45.5 -192.5
t121.5 -67.5q73 0 112 38.5t39 98.5v29h-128v104h266v-368h-84l-13 114h-4q-24 -65 -77 -97.5t-130 -32.5z" />
    <glyph glyph-name="uni0123" unicode="&#x123;" horiz-adv-x="604" 
d="M271 692v-13h83v-89h-138v128l137 64v-52zM275 195q37 0 60 29.5t23 100.5q0 70 -23 99t-60 29q-38 0 -60.5 -29t-22.5 -99q0 -71 22.5 -100.5t60.5 -29.5zM280 -273q-54 0 -101.5 8t-84 26t-60 46t-30.5 69l120 14q5 -18 16 -34t29.5 -28t45.5 -19t65 -7q47 0 77 6
t47.5 16.5t24 23.5t6.5 27q0 28 -17 40.5t-59 12.5h-174q-28 0 -52.5 6t-43 19.5t-29.5 35t-11 53.5q0 41 26 66.5t61 36.5v5q-41 28 -63 72.5t-22 102.5q0 48 16 88t45 68.5t70.5 44t92.5 15.5q70 0 116.5 -29t72.5 -77l6 1q0 32 8.5 52.5t21.5 32t27.5 16t25.5 4.5
q19 0 30.5 -3.5t21.5 -11.5l-6 -101q-5 2 -15 5.5t-22 3.5q-35 0 -49 -24.5t-14 -81.5q0 -50 -15 -90.5t-43.5 -69.5t-70.5 -45t-95 -16q-46 0 -89 16q-9 -5 -16.5 -15t-7.5 -25q0 -40 51 -40h199q86 0 124.5 -37.5t38.5 -101.5q0 -83 -73.5 -130t-221.5 -47z" />
    <glyph glyph-name="Hcircumflex" unicode="&#x124;" horiz-adv-x="742" 
d="M81 716h163v-294h254v294h163v-716h-163v306h-254v-306h-163v716zM369 836l-59 -63h-120l119 132h124l119 -132h-125z" />
    <glyph glyph-name="hcircumflex" unicode="&#x125;" horiz-adv-x="599" 
d="M300 899l-47 -72h-105l97 143h112l97 -143h-108zM63 782h151v-379h3q12 37 32 63.5t43.5 43t49 24t50.5 7.5q42 0 70 -12t45 -32.5t24 -48t7 -59.5v-389h-154v353q0 43 -13.5 61.5t-48.5 18.5q-45 0 -75 -44.5t-30 -122.5v-266h-154v782z" />
    <glyph glyph-name="Hbar" unicode="&#x126;" horiz-adv-x="754" 
d="M18 614h719v-101h-719v101zM87 716h163v-294h254v294h163v-716h-163v306h-254v-306h-163v716z" />
    <glyph glyph-name="hbar" unicode="&#x127;" horiz-adv-x="599" 
d="M-10 698h331v-87h-331v87zM63 782h151v-379h3q12 37 32 63.5t43.5 43t49 24t50.5 7.5q42 0 70 -12t45 -32.5t24 -48t7 -59.5v-389h-154v353q0 43 -13.5 61.5t-48.5 18.5q-45 0 -75 -44.5t-30 -122.5v-266h-154v782z" />
    <glyph glyph-name="Itilde" unicode="&#x128;" horiz-adv-x="325" 
d="M81 716h163v-716h-163v716zM-14 783q-2 27 3 51.5t17.5 43.5t32.5 30t47 11q23 0 44 -6.5t40 -15t35.5 -15t30.5 -6.5q20 0 29 14t11 34l61 -12q2 -27 -3 -52t-17 -44t-32 -30t-48 -11q-23 0 -44 7t-40 15t-35.5 15t-30.5 7q-20 0 -29 -13.5t-11 -33.5z" />
    <glyph glyph-name="itilde" unicode="&#x129;" horiz-adv-x="280" 
d="M63 531h154v-531h-154v531zM80 634q-30 0 -35 -40l-57 17q-2 25 3.5 47.5t17.5 39.5t30.5 26.5t41.5 9.5q18 0 34 -6t31.5 -13t29.5 -13t28 -6q30 0 35 40l57 -17q2 -26 -3.5 -48.5t-17.5 -39t-30.5 -26t-41.5 -9.5q-18 0 -34 6t-31.5 13t-30 13t-27.5 6z" />
    <glyph glyph-name="Imacron" unicode="&#x12a;" horiz-adv-x="325" 
d="M81 716h163v-716h-163v716zM1 897h324v-105h-324v105z" />
    <glyph glyph-name="imacron" unicode="&#x12b;" horiz-adv-x="280" 
d="M63 531h154v-531h-154v531zM6 707h272v-99h-272v99z" />
    <glyph glyph-name="Ibreve" unicode="&#x12c;" horiz-adv-x="325" 
d="M81 716h163v-716h-163v716zM163 770q-64 0 -106.5 31t-58.5 90l60 34q13 -23 36.5 -36.5t68.5 -13.5t68 13.5t37 36.5l60 -34q-16 -59 -59 -90t-106 -31z" />
    <glyph glyph-name="ibreve" unicode="&#x12d;" horiz-adv-x="280" 
d="M63 531h154v-531h-154v531zM142 592q-58 0 -97 33t-49 90l61 27q11 -23 30 -38.5t55 -15.5t55 15.5t30 38.5l61 -27q-10 -57 -49 -90t-97 -33z" />
    <glyph glyph-name="Iogonek" unicode="&#x12e;" horiz-adv-x="325" 
d="M165 -233q-50 0 -81.5 23.5t-31.5 66.5q0 45 37.5 81.5t94.5 61.5h-103v716h163v-716q-44 -28 -63.5 -57.5t-19.5 -53.5q0 -22 12 -31.5t29 -9.5q14 0 27 5l13 -67q-34 -19 -77 -19z" />
    <glyph glyph-name="iogonek" unicode="&#x12f;" horiz-adv-x="280" 
d="M139 -233q-50 0 -81.5 23.5t-31.5 66.5q0 45 37.5 81.5t94.5 61.5h-95v531h154v-531h1q-44 -28 -63.5 -57.5t-19.5 -53.5q0 -22 12 -31.5t29 -9.5q14 0 27 5l13 -67q-34 -19 -77 -19zM63 734h154v-136h-154v136z" />
    <glyph glyph-name="Idotaccent" unicode="&#x130;" horiz-adv-x="325" 
d="M81 716h163v-716h-163v716zM86 920h154v-134h-154v134z" />
    <glyph glyph-name="dotlessi" unicode="&#x131;" horiz-adv-x="280" 
d="M63 531h154v-531h-154v531z" />
    <glyph glyph-name="IJ" unicode="&#x132;" horiz-adv-x="690" 
d="M81 716h163v-716h-163v716zM323 115q29 0 48.5 2t36.5 8q23 8 32.5 28t9.5 71v492h163v-535q0 -41 -10.5 -70t-27.5 -49.5t-40 -32.5t-47 -18q-25 -7 -63.5 -9t-101.5 -2v115z" />
    <glyph glyph-name="ij" unicode="&#x133;" horiz-adv-x="552" 
d="M63 734h154v-136h-154v136zM63 531h154v-531h-154v531zM329 734h154v-136h-154v136zM204 -119q33 0 49 1t33 7q22 8 32.5 25t10.5 64v553h154v-581q0 -74 -36 -115.5t-105 -53.5q-34 -6 -69.5 -7t-68.5 -1v108z" />
    <glyph glyph-name="Jcircumflex" unicode="&#x134;" horiz-adv-x="398" 
d="M238 836l-59 -63h-120l119 132h124l119 -132h-125zM31 115q29 0 48.5 2t36.5 8q23 8 32.5 28t9.5 71v492h163v-535q0 -41 -10.5 -70t-27.5 -49.5t-40 -32.5t-47 -18q-25 -7 -63.5 -9t-101.5 -2v115z" />
    <glyph glyph-name="jcircumflex" unicode="&#x135;" horiz-adv-x="280" 
d="M-62 -119q33 0 49 1t33 7q22 8 32.5 25t10.5 64v553h154v-581q0 -74 -36.5 -115t-104.5 -54q-34 -7 -69.5 -7.5t-68.5 -0.5v108zM140 664l-47 -72h-105l97 143h112l97 -143h-108z" />
    <glyph glyph-name="uni0136" unicode="&#x136;" horiz-adv-x="701" 
d="M380 -157v13h-83v89h138v-128l-137 -64v52zM291 313l-47 -50v-263h-163v716h163v-294l260 294h161l-265 -285l270 -431h-187z" />
    <glyph glyph-name="uni0137" unicode="&#x137;" horiz-adv-x="573" 
d="M321 -157v13h-83v89h138v-128l-137 -64v52zM217 0h-154v782h154v-479h4l177 228h141l-182 -210l202 -321h-173l-127 209l-42 -49v-160z" />
    <glyph glyph-name="Lacute" unicode="&#x139;" horiz-adv-x="597" 
d="M105 773l66 136h160l-107 -136h-119zM81 716h163v-595h326v-121h-489v716z" />
    <glyph glyph-name="lacute" unicode="&#x13a;" horiz-adv-x="280" 
d="M85 827l56 150h142l-92 -150h-106zM63 782h154v-782h-154v782z" />
    <glyph glyph-name="uni013B" unicode="&#x13b;" horiz-adv-x="597" 
d="M339 -157v13h-83v89h138v-128l-137 -64v52zM81 716h163v-595h326v-121h-489v716z" />
    <glyph glyph-name="uni013C" unicode="&#x13c;" horiz-adv-x="280" 
d="M155 -157v13h-83v89h138v-128l-137 -64v52zM63 782h154v-782h-154v782z" />
    <glyph glyph-name="Lcaron" unicode="&#x13d;" horiz-adv-x="597" 
d="M461 742l-47 -172h-81l20 172h108zM81 716h163v-595h326v-121h-489v716z" />
    <glyph glyph-name="lcaron" unicode="&#x13e;" horiz-adv-x="280" 
d="M398 782l-47 -172h-81l20 172h108zM63 782h154v-782h-154v782z" />
    <glyph glyph-name="Ldot" unicode="&#x13f;" horiz-adv-x="613" 
d="M393 470h140v-141h-140v141zM81 716h163v-595h326v-121h-489v716z" />
    <glyph glyph-name="ldot" unicode="&#x140;" horiz-adv-x="457" 
d="M295 460h135v-134h-135v134zM63 782h154v-782h-154v782z" />
    <glyph glyph-name="Lslash" unicode="&#x141;" horiz-adv-x="597" 
d="M3 310l78 39v367h163v-285l194 98v-126l-194 -98v-184h326v-121h-489v223l-78 -39v126z" />
    <glyph glyph-name="lslash" unicode="&#x142;" horiz-adv-x="347" 
d="M23 315l73 55v412h154v-297l74 56v-118l-74 -56v-367h-154v252l-73 -55v118z" />
    <glyph glyph-name="Nacute" unicode="&#x143;" horiz-adv-x="731" 
d="M305 773l66 136h160l-107 -136h-119zM81 716h158l272 -480h3v480h136v-716h-143l-287 499h-3v-499h-136v716z" />
    <glyph glyph-name="nacute" unicode="&#x144;" horiz-adv-x="599" 
d="M245 592l56 150h142l-92 -150h-106zM63 531h139l10 -129h2q13 38 33 64.5t44.5 43t50.5 24t51 7.5q41 0 68.5 -12t44.5 -32.5t24.5 -48t7.5 -59.5v-389h-154v353q0 43 -13.5 61.5t-48.5 18.5q-45 0 -75 -42.5t-30 -120.5v-270h-154v531z" />
    <glyph glyph-name="uni0145" unicode="&#x145;" horiz-adv-x="731" 
d="M379 -157v13h-83v89h138v-128l-137 -64v52zM81 716h158l272 -480h3v480h136v-716h-143l-287 499h-3v-499h-136v716z" />
    <glyph glyph-name="uni0146" unicode="&#x146;" horiz-adv-x="599" 
d="M318 -157v13h-83v89h138v-128l-137 -64v52zM63 531h139l10 -129h2q13 38 33 64.5t44.5 43t50.5 24t51 7.5q41 0 68.5 -12t44.5 -32.5t24.5 -48t7.5 -59.5v-389h-154v353q0 43 -13.5 61.5t-48.5 18.5q-45 0 -75 -42.5t-30 -120.5v-270h-154v531z" />
    <glyph glyph-name="Ncaron" unicode="&#x147;" horiz-adv-x="731" 
d="M312 773l-119 132h125l58 -63l59 63h120l-119 -132h-124zM81 716h158l272 -480h3v480h136v-716h-143l-287 499h-3v-499h-136v716z" />
    <glyph glyph-name="ncaron" unicode="&#x148;" horiz-adv-x="599" 
d="M153 735h108l46 -71l47 71h105l-97 -143h-112zM63 531h139l10 -129h2q13 38 33 64.5t44.5 43t50.5 24t51 7.5q41 0 68.5 -12t44.5 -32.5t24.5 -48t7.5 -59.5v-389h-154v353q0 43 -13.5 61.5t-48.5 18.5q-45 0 -75 -42.5t-30 -120.5v-270h-154v531z" />
    <glyph glyph-name="napostrophe" unicode="&#x149;" horiz-adv-x="727" 
d="M-3 407v82l85 63v15h-85v149h158v-194zM191 531h139l10 -129h2q13 38 33 64.5t44.5 43t50.5 24t51 7.5q41 0 68.5 -12t44.5 -32.5t24.5 -48t7.5 -59.5v-389h-154v353q0 43 -13.5 61.5t-48.5 18.5q-45 0 -75 -42.5t-30 -120.5v-270h-154v531z" />
    <glyph glyph-name="Eng" unicode="&#x14a;" horiz-adv-x="731" 
d="M397 -246v117h43q44 0 59 19.5t15 68.5v23l-294 517h-3v-499h-136v716h158l272 -480h3v480h136v-771q0 -49 -10 -85t-32.5 -59.5t-60.5 -35t-93 -11.5h-57z" />
    <glyph glyph-name="eng" unicode="&#x14b;" horiz-adv-x="599" 
d="M310 -138h25q31 0 40 12t9 48v97h154v-129q0 -69 -32 -102.5t-104 -33.5h-92v108zM63 531h139l10 -129h2q13 38 33 64.5t44.5 43t50.5 24t51 7.5q41 0 68.5 -12t44.5 -32.5t24.5 -48t7.5 -59.5v-389h-154v353q0 43 -13.5 61.5t-48.5 18.5q-45 0 -75 -42.5t-30 -120.5
v-270h-154v531z" />
    <glyph glyph-name="Omacron" unicode="&#x14c;" horiz-adv-x="769" 
d="M223 897h324v-105h-324v105zM385 -16q-84 0 -147 30.5t-104.5 82.5t-62 119.5t-20.5 141.5t20.5 141.5t62 119.5t104.5 82.5t147 30.5t147 -30.5t104 -82.5t61.5 -119.5t20.5 -141.5t-20.5 -141.5t-61.5 -119.5t-104 -82.5t-147 -30.5zM384 98q85 0 122.5 67.5
t37.5 192.5t-37.5 192.5t-122.5 67.5q-83 0 -121 -69.5t-38 -190.5q0 -122 38 -191t121 -69z" />
    <glyph glyph-name="omacron" unicode="&#x14d;" horiz-adv-x="596" 
d="M161 707h272v-99h-272v99zM552 266q0 -54 -15 -104t-46.5 -88.5t-79.5 -61t-114 -22.5q-65 0 -113 22.5t-79 61t-46 88.5t-15 104t15 104t46 88t79 60.5t113 22.5q66 0 114 -22.5t79.5 -60.5t46.5 -88t15 -104zM206 266q0 -99 22 -141t69 -42t70 42t23 141t-23 140.5
t-70 41.5t-69 -41.5t-22 -140.5z" />
    <glyph glyph-name="Obreve" unicode="&#x14e;" horiz-adv-x="769" 
d="M385 770q-64 0 -106.5 31t-58.5 90l60 34q13 -23 36.5 -36.5t68.5 -13.5t68 13.5t37 36.5l60 -34q-16 -59 -59 -90t-106 -31zM385 -16q-84 0 -147 30.5t-104.5 82.5t-62 119.5t-20.5 141.5t20.5 141.5t62 119.5t104.5 82.5t147 30.5t147 -30.5t104 -82.5t61.5 -119.5
t20.5 -141.5t-20.5 -141.5t-61.5 -119.5t-104 -82.5t-147 -30.5zM384 98q85 0 122.5 67.5t37.5 192.5t-37.5 192.5t-122.5 67.5q-83 0 -121 -69.5t-38 -190.5q0 -122 38 -191t121 -69z" />
    <glyph glyph-name="obreve" unicode="&#x14f;" horiz-adv-x="596" 
d="M552 266q0 -54 -15 -104t-46.5 -88.5t-79.5 -61t-114 -22.5q-65 0 -113 22.5t-79 61t-46 88.5t-15 104t15 104t46 88t79 60.5t113 22.5q66 0 114 -22.5t79.5 -60.5t46.5 -88t15 -104zM206 266q0 -99 22 -141t69 -42t70 42t23 141t-23 140.5t-70 41.5t-69 -41.5
t-22 -140.5zM297 592q-58 0 -97 33t-49 90l61 27q11 -23 30 -38.5t55 -15.5t55 15.5t30 38.5l61 -27q-10 -57 -49 -90t-97 -33z" />
    <glyph glyph-name="Ohungarumlaut" unicode="&#x150;" horiz-adv-x="769" 
d="M243 773l52 136h134l-86 -136h-100zM423 773l52 136h135l-87 -136h-100zM385 -16q-84 0 -147 30.5t-104.5 82.5t-62 119.5t-20.5 141.5t20.5 141.5t62 119.5t104.5 82.5t147 30.5t147 -30.5t104 -82.5t61.5 -119.5t20.5 -141.5t-20.5 -141.5t-61.5 -119.5t-104 -82.5
t-147 -30.5zM384 98q85 0 122.5 67.5t37.5 192.5t-37.5 192.5t-122.5 67.5q-83 0 -121 -69.5t-38 -190.5q0 -122 38 -191t121 -69z" />
    <glyph glyph-name="ohungarumlaut" unicode="&#x151;" horiz-adv-x="596" 
d="M168 591l49 150h117l-79 -150h-87zM333 591l48 150h117l-78 -150h-87zM552 266q0 -54 -15 -104t-46.5 -88.5t-79.5 -61t-114 -22.5q-65 0 -113 22.5t-79 61t-46 88.5t-15 104t15 104t46 88t79 60.5t113 22.5q66 0 114 -22.5t79.5 -60.5t46.5 -88t15 -104zM206 266
q0 -99 22 -141t69 -42t70 42t23 141t-23 140.5t-70 41.5t-69 -41.5t-22 -140.5z" />
    <glyph glyph-name="OE" unicode="&#x152;" horiz-adv-x="985" 
d="M403 0q-84 0 -149.5 27.5t-110.5 76t-68.5 114t-23.5 140.5t22 140.5t65.5 114t109.5 76t155 27.5h513v-108h-279v-194h210v-109h-210v-196h310v-109h-544zM474 109v499h-63q-91 0 -138.5 -62.5t-47.5 -187.5t47.5 -187t138.5 -62h63z" />
    <glyph glyph-name="oe" unicode="&#x153;" horiz-adv-x="924" 
d="M297 83q47 0 71.5 42t24.5 141t-24.5 140.5t-71.5 41.5t-69 -41.5t-22 -140.5t22 -141t69 -42zM644 448q-42 0 -65 -30.5t-28 -96.5h178q-2 66 -21 96.5t-64 30.5zM881 159q-9 -35 -26.5 -66t-45 -54t-65.5 -36t-88 -13q-66 0 -110.5 22.5t-73.5 62.5q-25 -38 -67 -61.5
t-108 -23.5q-65 0 -113 22.5t-79 61t-46 88.5t-15 104t15 104t46 88t79 60.5t113 22.5q66 0 108.5 -26t68.5 -68q27 42 70 68t105 26q112 0 173.5 -76t61.5 -216h-335q3 -79 29 -122t87 -43q26 0 44.5 9t31.5 24.5t21.5 36.5t14.5 45z" />
    <glyph glyph-name="Racute" unicode="&#x154;" horiz-adv-x="699" 
d="M289 773l66 136h160l-107 -136h-119zM375 402q57 0 77.5 27t20.5 77q0 52 -20.5 76.5t-77.5 24.5h-131v-205h131zM81 0v716h298q76 0 126.5 -16t81.5 -44t44 -66t13 -82q0 -74 -39.5 -120t-116.5 -62l1 -6q14 -5 29 -21t28.5 -38t24.5 -47.5t18 -47.5q11 -36 19 -59.5
t15 -39.5t14.5 -27t18.5 -22v-18h-186q-10 21 -18 46.5t-16 58.5q-8 35 -17.5 72.5t-17.5 65.5q-9 32 -23 43t-46 11h-88v-297h-163z" />
    <glyph glyph-name="racute" unicode="&#x155;" horiz-adv-x="409" 
d="M168 592l56 150h142l-92 -150h-106zM63 531h140l11 -146h2q19 80 51.5 118t76.5 38q14 0 24 -3t17 -7v-143q-11 3 -21.5 5t-23.5 2q-53 0 -88 -40.5t-35 -126.5v-228h-154v531z" />
    <glyph glyph-name="uni0156" unicode="&#x156;" horiz-adv-x="699" 
d="M365 -157v13h-83v89h138v-128l-137 -64v52zM375 402q57 0 77.5 27t20.5 77q0 52 -20.5 76.5t-77.5 24.5h-131v-205h131zM81 0v716h298q76 0 126.5 -16t81.5 -44t44 -66t13 -82q0 -74 -39.5 -120t-116.5 -62l1 -6q14 -5 29 -21t28.5 -38t24.5 -47.5t18 -47.5
q11 -36 19 -59.5t15 -39.5t14.5 -27t18.5 -22v-18h-186q-10 21 -18 46.5t-16 58.5q-8 35 -17.5 72.5t-17.5 65.5q-9 32 -23 43t-46 11h-88v-297h-163z" />
    <glyph glyph-name="uni0157" unicode="&#x157;" horiz-adv-x="409" 
d="M156 -157v13h-83v89h138v-128l-137 -64v52zM63 531h140l11 -146h2q19 80 51.5 118t76.5 38q14 0 24 -3t17 -7v-143q-11 3 -21.5 5t-23.5 2q-53 0 -88 -40.5t-35 -126.5v-228h-154v531z" />
    <glyph glyph-name="Rcaron" unicode="&#x158;" horiz-adv-x="699" 
d="M296 773l-119 132h125l58 -63l59 63h120l-119 -132h-124zM375 402q57 0 77.5 27t20.5 77q0 52 -20.5 76.5t-77.5 24.5h-131v-205h131zM81 0v716h298q76 0 126.5 -16t81.5 -44t44 -66t13 -82q0 -74 -39.5 -120t-116.5 -62l1 -6q14 -5 29 -21t28.5 -38t24.5 -47.5t18 -47.5
q11 -36 19 -59.5t15 -39.5t14.5 -27t18.5 -22v-18h-186q-10 21 -18 46.5t-16 58.5q-8 35 -17.5 72.5t-17.5 65.5q-9 32 -23 43t-46 11h-88v-297h-163z" />
    <glyph glyph-name="rcaron" unicode="&#x159;" horiz-adv-x="409" 
d="M76 735h108l46 -71l47 71h105l-97 -143h-112zM63 531h140l11 -146h2q19 80 51.5 118t76.5 38q14 0 24 -3t17 -7v-143q-11 3 -21.5 5t-23.5 2q-53 0 -88 -40.5t-35 -126.5v-228h-154v531z" />
    <glyph glyph-name="Sacute" unicode="&#x15a;" horiz-adv-x="647" 
d="M330 -16q-60 0 -110 17.5t-87 49.5t-59.5 78.5t-28.5 103.5l116 19q7 -82 51 -123.5t115 -41.5q55 0 87.5 19.5t32.5 61.5q0 25 -10.5 41.5t-31 29t-51.5 24t-71 26.5q-56 20 -97 42.5t-68 50t-40 61.5t-13 78q0 46 17.5 85t50.5 67t80 43.5t106 15.5q107 0 172.5 -56
t77.5 -159l-113 -22q-4 63 -38.5 99.5t-97.5 36.5q-56 0 -81 -23.5t-25 -56.5q0 -21 9 -36t26.5 -26.5t43 -21.5t59.5 -21q54 -18 99.5 -37t79 -44.5t52 -62t18.5 -88.5q0 -51 -17.5 -93.5t-51.5 -73t-85 -47t-117 -16.5zM251 773l66 136h160l-107 -136h-119z" />
    <glyph glyph-name="sacute" unicode="&#x15b;" horiz-adv-x="508" 
d="M194 592l56 150h142l-92 -150h-106zM259 -10q-98 0 -153.5 43.5t-63.5 112.5l101 30q2 -30 11.5 -50t24 -32t33 -17.5t39.5 -5.5q35 0 56 14t21 40q0 15 -6 25t-20.5 18.5t-39 17t-60.5 21.5q-32 11 -59.5 25t-47.5 34.5t-31.5 48.5t-11.5 67q0 34 14 63.5t39 50.5
t60.5 33t79.5 12q49 0 83.5 -11.5t58 -32.5t36 -49.5t16.5 -61.5l-106 -20q-6 53 -29.5 73t-57.5 20q-29 0 -46 -13t-17 -38q0 -15 5.5 -24.5t18.5 -18t34 -16.5t52 -20q37 -14 69 -27t55 -32t36.5 -46.5t13.5 -70.5q0 -78 -55 -120.5t-153 -42.5z" />
    <glyph glyph-name="Scircumflex" unicode="&#x15c;" horiz-adv-x="647" 
d="M310 836l-59 -63h-120l119 132h124l119 -132h-125zM330 -16q-60 0 -110 17.5t-87 49.5t-59.5 78.5t-28.5 103.5l116 19q7 -82 51 -123.5t115 -41.5q55 0 87.5 19.5t32.5 61.5q0 25 -10.5 41.5t-31 29t-51.5 24t-71 26.5q-56 20 -97 42.5t-68 50t-40 61.5t-13 78
q0 46 17.5 85t50.5 67t80 43.5t106 15.5q107 0 172.5 -56t77.5 -159l-113 -22q-4 63 -38.5 99.5t-97.5 36.5q-56 0 -81 -23.5t-25 -56.5q0 -21 9 -36t26.5 -26.5t43 -21.5t59.5 -21q54 -18 99.5 -37t79 -44.5t52 -62t18.5 -88.5q0 -51 -17.5 -93.5t-51.5 -73t-85 -47
t-117 -16.5z" />
    <glyph glyph-name="scircumflex" unicode="&#x15d;" horiz-adv-x="508" 
d="M251 664l-47 -72h-105l97 143h112l97 -143h-108zM259 -10q-98 0 -153.5 43.5t-63.5 112.5l101 30q2 -30 11.5 -50t24 -32t33 -17.5t39.5 -5.5q35 0 56 14t21 40q0 15 -6 25t-20.5 18.5t-39 17t-60.5 21.5q-32 11 -59.5 25t-47.5 34.5t-31.5 48.5t-11.5 67q0 34 14 63.5
t39 50.5t60.5 33t79.5 12q49 0 83.5 -11.5t58 -32.5t36 -49.5t16.5 -61.5l-106 -20q-6 53 -29.5 73t-57.5 20q-29 0 -46 -13t-17 -38q0 -15 5.5 -24.5t18.5 -18t34 -16.5t52 -20q37 -14 69 -27t55 -32t36.5 -46.5t13.5 -70.5q0 -78 -55 -120.5t-153 -42.5z" />
    <glyph glyph-name="uni015E" unicode="&#x15e;" horiz-adv-x="647" 
d="M323 -247q-44 0 -77 13t-52 29l30 55q17 -14 40 -23.5t46 -9.5q19 0 30 9.5t11 27.5q0 14 -8 22t-22 8t-22.5 -7t-13.5 -16l-61 20l40 109q-23 4 -44 11q-50 18 -87 50t-59.5 78.5t-28.5 103.5l116 19q7 -82 51 -123.5t115 -41.5q55 0 87.5 19.5t32.5 61.5
q0 25 -10.5 41.5t-31 29t-51.5 24t-71 26.5q-56 20 -97 42.5t-68 50t-40 61.5t-13 78q0 46 17.5 85t50.5 67t80 43.5t106 15.5q107 0 172.5 -56t77.5 -159l-113 -22q-4 63 -38.5 99.5t-97.5 36.5q-56 0 -81 -23.5t-25 -56.5q0 -21 9 -36t26.5 -26.5t43 -21.5t59.5 -21
q54 -18 99.5 -37t79 -44.5t52 -62t18.5 -88.5q0 -51 -17.5 -93.5t-51.5 -73t-85 -47.5q-50 -15 -113 -16l-18 -47q17 7 40 7q38 0 66 -23t28 -64q0 -25 -10.5 -44.5t-27.5 -32.5t-40.5 -20t-48.5 -7z" />
    <glyph glyph-name="uni015F" unicode="&#x15f;" horiz-adv-x="508" 
d="M260 -247q-44 0 -77 13t-52 29l30 55q17 -14 40 -23.5t46 -9.5q19 0 30 9.5t11 27.5q0 14 -8 22t-22 8t-22.5 -7t-13.5 -16l-61 20l41 113q-58 9 -97 39q-55 44 -63 113l101 30q2 -30 11.5 -50t24 -32t33 -17.5t39.5 -5.5q35 0 56 14t21 40q0 15 -6 25t-20.5 18.5t-39 17
t-60.5 21.5q-32 11 -59.5 25t-47.5 34.5t-31.5 48.5t-11.5 67q0 34 14 63.5t39 50.5t60.5 33t79.5 12q49 0 83.5 -11.5t58 -32.5t36 -49.5t16.5 -61.5l-106 -20q-6 53 -29.5 73t-57.5 20q-29 0 -46 -13t-17 -38q0 -15 5.5 -24.5t18.5 -18t34 -16.5t52 -20q37 -14 69 -27
t55 -32t36.5 -46.5t13.5 -70.5q0 -78 -55 -121q-51 -39 -139 -42l-20 -53q17 7 40 7q38 0 66 -23t28 -64q0 -25 -10.5 -44.5t-27.5 -32.5t-40.5 -20t-48.5 -7z" />
    <glyph glyph-name="Scaron" unicode="&#x160;" horiz-adv-x="647" 
d="M256 773l-119 132h125l58 -63l59 63h120l-119 -132h-124zM330 -16q-60 0 -110 17.5t-87 49.5t-59.5 78.5t-28.5 103.5l116 19q7 -82 51 -123.5t115 -41.5q55 0 87.5 19.5t32.5 61.5q0 25 -10.5 41.5t-31 29t-51.5 24t-71 26.5q-56 20 -97 42.5t-68 50t-40 61.5t-13 78
q0 46 17.5 85t50.5 67t80 43.5t106 15.5q107 0 172.5 -56t77.5 -159l-113 -22q-4 63 -38.5 99.5t-97.5 36.5q-56 0 -81 -23.5t-25 -56.5q0 -21 9 -36t26.5 -26.5t43 -21.5t59.5 -21q54 -18 99.5 -37t79 -44.5t52 -62t18.5 -88.5q0 -51 -17.5 -93.5t-51.5 -73t-85 -47
t-117 -16.5z" />
    <glyph glyph-name="scaron" unicode="&#x161;" horiz-adv-x="508" 
d="M102 735h108l46 -71l47 71h105l-97 -143h-112zM259 -10q-98 0 -153.5 43.5t-63.5 112.5l101 30q2 -30 11.5 -50t24 -32t33 -17.5t39.5 -5.5q35 0 56 14t21 40q0 15 -6 25t-20.5 18.5t-39 17t-60.5 21.5q-32 11 -59.5 25t-47.5 34.5t-31.5 48.5t-11.5 67q0 34 14 63.5
t39 50.5t60.5 33t79.5 12q49 0 83.5 -11.5t58 -32.5t36 -49.5t16.5 -61.5l-106 -20q-6 53 -29.5 73t-57.5 20q-29 0 -46 -13t-17 -38q0 -15 5.5 -24.5t18.5 -18t34 -16.5t52 -20q37 -14 69 -27t55 -32t36.5 -46.5t13.5 -70.5q0 -78 -55 -120.5t-153 -42.5z" />
    <glyph glyph-name="Tcommaaccent" unicode="&#x162;" horiz-adv-x="602" 
d="M315 -157v13h-83v89h138v-128l-137 -64v52zM218 602h-204v114h574v-114h-204v-602h-166v602z" />
    <glyph glyph-name="tcommaaccent" unicode="&#x163;" horiz-adv-x="411" 
d="M251 -157v13h-83v89h138v-128l-137 -64v52zM280 0q-76 0 -108 14q-20 7 -34 18t-22.5 28.5t-12 43t-3.5 62.5v265h-84v100h85v194h154v-194h116v-100h-116v-250q0 -31 5 -47t22 -24q10 -5 22 -6t27 -1h47v-103h-98v0z" />
    <glyph glyph-name="Tcaron" unicode="&#x164;" horiz-adv-x="602" 
d="M248 773l-119 132h125l58 -63l59 63h120l-119 -132h-124zM218 602h-204v114h574v-114h-204v-602h-166v602z" />
    <glyph glyph-name="tcaron" unicode="&#x165;" horiz-adv-x="411" 
d="M442 782l-47 -172h-81l20 172h108zM280 0q-76 0 -108 14q-20 7 -34 18t-22.5 28.5t-12 43t-3.5 62.5v265h-84v100h85v194h154v-194h116v-100h-116v-250q0 -31 5 -47t22 -24q10 -5 22 -6t27 -1h47v-103h-98v0z" />
    <glyph glyph-name="Tbar" unicode="&#x166;" horiz-adv-x="602" 
d="M80 412h442v-101h-442v101zM218 602h-204v114h574v-114h-204v-602h-166v602z" />
    <glyph glyph-name="tbar" unicode="&#x167;" horiz-adv-x="411" 
d="M19 343h350v-91h-350v91zM280 0q-76 0 -108 14q-20 7 -34 18t-22.5 28.5t-12 43t-3.5 62.5v265h-84v100h85v194h154v-194h116v-100h-116v-250q0 -31 5 -47t22 -24q10 -5 22 -6t27 -1h47v-103h-98v0z" />
    <glyph glyph-name="Utilde" unicode="&#x168;" horiz-adv-x="711" 
d="M353 -14q-139 0 -210.5 65t-71.5 183v482h164v-458q0 -74 30 -112.5t104 -38.5q75 0 105.5 38.5t30.5 112.5v458h134v-480q0 -56 -17.5 -102t-53.5 -79t-89.5 -51t-125.5 -18zM178 783q-2 27 3 51.5t17.5 43.5t32.5 30t47 11q23 0 44 -6.5t40 -15t35.5 -15t30.5 -6.5
q20 0 29 14t11 34l61 -12q2 -27 -3 -52t-17 -44t-32 -30t-48 -11q-23 0 -44 7t-40 15t-35.5 15t-30.5 7q-20 0 -29 -13.5t-11 -33.5z" />
    <glyph glyph-name="utilde" unicode="&#x169;" horiz-adv-x="594" 
d="M213 -10q-42 0 -71 12t-47 32.5t-26.5 48t-8.5 59.5v389h154v-353q0 -43 15.5 -61.5t50.5 -18.5q42 0 69.5 44.5t27.5 127.5v261h154v-531h-135l-14 123h-3q-24 -72 -69 -102.5t-97 -30.5zM233 634q-30 0 -35 -40l-57 17q-2 25 3.5 47.5t17.5 39.5t30.5 26.5t41.5 9.5
q18 0 34 -6t31.5 -13t29.5 -13t28 -6q30 0 35 40l57 -17q2 -26 -3.5 -48.5t-17.5 -39t-30.5 -26t-41.5 -9.5q-18 0 -34 6t-31.5 13t-30 13t-27.5 6z" />
    <glyph glyph-name="Umacron" unicode="&#x16a;" horiz-adv-x="711" 
d="M353 -14q-139 0 -210.5 65t-71.5 183v482h164v-458q0 -74 30 -112.5t104 -38.5q75 0 105.5 38.5t30.5 112.5v458h134v-480q0 -56 -17.5 -102t-53.5 -79t-89.5 -51t-125.5 -18zM193 897h324v-105h-324v105z" />
    <glyph glyph-name="umacron" unicode="&#x16b;" horiz-adv-x="594" 
d="M213 -10q-42 0 -71 12t-47 32.5t-26.5 48t-8.5 59.5v389h154v-353q0 -43 15.5 -61.5t50.5 -18.5q42 0 69.5 44.5t27.5 127.5v261h154v-531h-135l-14 123h-3q-24 -72 -69 -102.5t-97 -30.5zM159 707h272v-99h-272v99z" />
    <glyph glyph-name="Ubreve" unicode="&#x16c;" horiz-adv-x="711" 
d="M353 -14q-139 0 -210.5 65t-71.5 183v482h164v-458q0 -74 30 -112.5t104 -38.5q75 0 105.5 38.5t30.5 112.5v458h134v-480q0 -56 -17.5 -102t-53.5 -79t-89.5 -51t-125.5 -18zM355 770q-64 0 -106.5 31t-58.5 90l60 34q13 -23 36.5 -36.5t68.5 -13.5t68 13.5t37 36.5
l60 -34q-16 -59 -59 -90t-106 -31z" />
    <glyph glyph-name="ubreve" unicode="&#x16d;" horiz-adv-x="594" 
d="M213 -10q-42 0 -71 12t-47 32.5t-26.5 48t-8.5 59.5v389h154v-353q0 -43 15.5 -61.5t50.5 -18.5q42 0 69.5 44.5t27.5 127.5v261h154v-531h-135l-14 123h-3q-24 -72 -69 -102.5t-97 -30.5zM295 592q-58 0 -97 33t-49 90l61 27q11 -23 30 -38.5t55 -15.5t55 15.5t30 38.5
l61 -27q-10 -57 -49 -90t-97 -33z" />
    <glyph glyph-name="Uring" unicode="&#x16e;" horiz-adv-x="711" 
d="M353 -14q-139 0 -210.5 65t-71.5 183v482h164v-458q0 -74 30 -112.5t104 -38.5q75 0 105.5 38.5t30.5 112.5v458h134v-480q0 -56 -17.5 -102t-53.5 -79t-89.5 -51t-125.5 -18zM469 860q0 -47 -31.5 -76t-82.5 -29q-52 0 -83.5 29t-31.5 76t31.5 77t83.5 30q51 0 82.5 -30
t31.5 -77zM310 861q0 -23 13 -35t32 -12t31.5 12t12.5 35t-12.5 34.5t-31.5 11.5t-32 -11.5t-13 -34.5z" />
    <glyph glyph-name="uring" unicode="&#x16f;" horiz-adv-x="594" 
d="M408 684q0 -47 -30.5 -75.5t-81.5 -28.5q-52 0 -83 28.5t-31 75.5t31 76.5t83 29.5q51 0 81.5 -29.5t30.5 -76.5zM252 685q0 -23 12.5 -34.5t31.5 -11.5t31.5 11.5t12.5 34.5t-12.5 34.5t-31.5 11.5t-31.5 -11.5t-12.5 -34.5zM213 -10q-42 0 -71 12t-47 32.5t-26.5 48
t-8.5 59.5v389h154v-353q0 -43 15.5 -61.5t50.5 -18.5q42 0 69.5 44.5t27.5 127.5v261h154v-531h-135l-14 123h-3q-24 -72 -69 -102.5t-97 -30.5z" />
    <glyph glyph-name="Uhungarumlaut" unicode="&#x170;" horiz-adv-x="711" 
d="M213 773l52 136h134l-86 -136h-100zM393 773l52 136h135l-87 -136h-100zM353 -14q-139 0 -210.5 65t-71.5 183v482h164v-458q0 -74 30 -112.5t104 -38.5q75 0 105.5 38.5t30.5 112.5v458h134v-480q0 -56 -17.5 -102t-53.5 -79t-89.5 -51t-125.5 -18z" />
    <glyph glyph-name="uhungarumlaut" unicode="&#x171;" horiz-adv-x="594" 
d="M213 -10q-42 0 -71 12t-47 32.5t-26.5 48t-8.5 59.5v389h154v-353q0 -43 15.5 -61.5t50.5 -18.5q42 0 69.5 44.5t27.5 127.5v261h154v-531h-135l-14 123h-3q-24 -72 -69 -102.5t-97 -30.5zM166 591l49 150h117l-79 -150h-87zM331 591l48 150h117l-78 -150h-87z" />
    <glyph glyph-name="Uogonek" unicode="&#x172;" horiz-adv-x="711" 
d="M353 -14q-139 0 -210.5 65t-71.5 183v482h164v-458q0 -74 30 -112.5t104 -38.5q75 0 105.5 38.5t30.5 112.5v458h134v-480q0 -56 -17.5 -102t-53.5 -79t-90 -51q-8 -3 -17 -5q-43 -27 -62 -56q-19 -30 -19 -54q0 -22 12 -31.5t29 -9.5q14 0 27 5l13 -67q-34 -19 -77 -19
q-50 0 -81.5 23.5t-31.5 66.5q0 45 37 82q28 27 66 48q-10 -1 -21 -1z" />
    <glyph glyph-name="uogonek" unicode="&#x173;" horiz-adv-x="594" 
d="M213 -10q-42 0 -71 12t-47 32.5t-26.5 48t-8.5 59.5v389h154v-353q0 -43 15.5 -61.5t50.5 -18.5q42 0 69.5 44.5t27.5 127.5v261h154v-531q-44 -28 -63.5 -57.5t-19.5 -53.5q0 -22 12 -31.5t29 -9.5q14 0 27 5l13 -67q-34 -19 -77 -19q-50 0 -81.5 23.5t-31.5 66.5
q0 45 37.5 81.5t94.5 61.5h-75l-14 123h-3q-24 -72 -69 -102.5t-97 -30.5z" />
    <glyph glyph-name="Wcircumflex" unicode="&#x174;" horiz-adv-x="960" 
d="M480 836l-59 -63h-120l119 132h124l119 -132h-125zM26 716h169l99 -505h7l129 505h129l122 -505h7l106 505h140l-167 -718h-157l-121 486h-4l-131 -486h-161z" />
    <glyph glyph-name="wcircumflex" unicode="&#x175;" horiz-adv-x="840" 
d="M420 664l-47 -72h-105l97 143h112l97 -143h-108zM19 531h150l92 -348h4l97 348h136l89 -347h5l98 347h131l-155 -533h-142l-101 390h-4l-107 -390h-143z" />
    <glyph glyph-name="Ycircumflex" unicode="&#x176;" horiz-adv-x="631" 
d="M233 0v288l-219 428h172l144 -295h4l146 295h138l-222 -429v-287h-163zM315 836l-59 -63h-120l119 132h124l119 -132h-125z" />
    <glyph glyph-name="ycircumflex" unicode="&#x177;" horiz-adv-x="521" 
d="M41 -123q24 0 45 2t38 8q22 8 35 24.5t24 46.5l15 43l-192 530h165l100 -347h4l107 347h132l-212 -598q-10 -29 -20 -52t-23.5 -40.5t-31 -30.5t-42.5 -22q-24 -9 -61.5 -12t-82.5 -3v104zM261 664l-47 -72h-105l97 143h112l97 -143h-108z" />
    <glyph glyph-name="Ydieresis" unicode="&#x178;" horiz-adv-x="631" 
d="M233 0v288l-219 428h172l144 -295h4l146 295h138l-222 -429v-287h-163zM146 914h132v-127h-132v127zM356 914h132v-127h-132v127z" />
    <glyph glyph-name="Zacute" unicode="&#x179;" horiz-adv-x="621" 
d="M249 773l66 136h160l-107 -136h-119zM32 0v96l358 512h-334v108h529v-96l-357 -511h357v-109h-553z" />
    <glyph glyph-name="zacute" unicode="&#x17a;" horiz-adv-x="505" 
d="M195 592l56 150h142l-92 -150h-106zM33 91l260 340h-245v100h418v-85l-261 -340h271v-106h-443v91z" />
    <glyph glyph-name="Zdotaccent" unicode="&#x17b;" horiz-adv-x="621" 
d="M32 0v96l358 512h-334v108h529v-96l-357 -511h357v-109h-553zM232 920h154v-134h-154v134z" />
    <glyph glyph-name="zdotaccent" unicode="&#x17c;" horiz-adv-x="505" 
d="M33 91l260 340h-245v100h418v-85l-261 -340h271v-106h-443v91zM179 732h145v-131h-145v131z" />
    <glyph glyph-name="Zcaron" unicode="&#x17d;" horiz-adv-x="621" 
d="M256 773l-119 132h125l58 -63l59 63h120l-119 -132h-124zM32 0v96l358 512h-334v108h529v-96l-357 -511h357v-109h-553z" />
    <glyph glyph-name="zcaron" unicode="&#x17e;" horiz-adv-x="505" 
d="M103 735h108l46 -71l47 71h105l-97 -143h-112zM33 91l260 340h-245v100h418v-85l-261 -340h271v-106h-443v91z" />
    <glyph glyph-name="uni0192" unicode="&#x192;" horiz-adv-x="558" 
d="M206 -72q-41 -19 -92.5 -21t-105.5 3l17 106q35 0 58 1t40 15q18 12 27.5 39t17.5 79l25 153h-92v101h108l22 135q12 77 43 116t75 57q40 19 92 21t106 -3l-18 -106q-34 0 -57.5 -1t-40.5 -15q-17 -12 -26.5 -39t-17.5 -78l-14 -87h112v-101h-128l-33 -201
q-12 -77 -43.5 -116.5t-74.5 -57.5z" />
    <glyph glyph-name="Aringacute" unicode="&#x1fa;" horiz-adv-x="676" 
d="M242 253h177l-83 280h-7zM453 138h-247l-43 -138h-147l243 718h161l240 -718h-166zM278 974l66 136h160l-107 -136h-119zM454 843q0 -47 -31.5 -76t-82.5 -29q-52 0 -83.5 29t-31.5 76t31.5 77t83.5 30q51 0 82.5 -30t31.5 -77zM295 844q0 -23 13 -35t32 -12t31.5 12
t12.5 35t-12.5 34.5t-31.5 11.5t-32 -11.5t-13 -34.5z" />
    <glyph glyph-name="aringacute" unicode="&#x1fb;" horiz-adv-x="578" 
d="M193 -10q-69 0 -108 37t-39 98q0 37 13.5 62t34.5 43t47 30t52 22q38 15 75.5 28.5t65.5 24.5v38q0 38 -16 57.5t-51 19.5q-41 0 -60 -25t-27 -74l-118 15q6 47 25.5 80.5t48.5 54.5t65.5 30.5t77.5 9.5q103 0 156 -41t53 -126v-236q0 -41 21 -54q8 -6 20.5 -8t27.5 -2
v-69q-6 -3 -15.5 -5.5t-21 -5t-23 -3.5t-21.5 -1q-54 0 -86 24t-37 75h-8q-20 -46 -56.5 -72.5t-95.5 -26.5zM253 78q41 0 61 28t20 71v79q-16 -5 -33.5 -12.5l-45.5 -19.5q-25 -11 -43.5 -28.5t-18.5 -53.5q0 -29 15 -46.5t45 -17.5zM225 816l56 150h142l-92 -150h-106z
M394 677q0 -47 -30.5 -75.5t-81.5 -28.5q-52 0 -83 28.5t-31 75.5t31 76.5t83 29.5q51 0 81.5 -29.5t30.5 -76.5zM238 678q0 -23 12.5 -34.5t31.5 -11.5t31.5 11.5t12.5 34.5t-12.5 34.5t-31.5 11.5t-31.5 -11.5t-12.5 -34.5z" />
    <glyph glyph-name="AEacute" unicode="&#x1fc;" horiz-adv-x="974" 
d="M507 773l66 136h160l-107 -136h-119zM286 253h177v339h-1zM463 138h-237l-72 -138h-153l384 716h520v-109h-279v-193h210v-109h-210v-196h310v-109h-473v138z" />
    <glyph glyph-name="aeacute" unicode="&#x1fd;" horiz-adv-x="868" 
d="M379 592l56 150h142l-92 -150h-106zM588 448q-42 0 -63.5 -30.5t-26.5 -96.5h175q-2 66 -21 96.5t-64 30.5zM252 78q42 0 62 28t20 71v79q-16 -5 -33.5 -12.5l-45.5 -19.5q-25 -11 -43.5 -28.5t-18.5 -53.5q0 -29 15 -46.5t44 -17.5zM825 159q-9 -35 -26.5 -66t-45 -54
t-65.5 -36t-88 -13q-82 0 -141.5 33.5t-91.5 96.5h-8q-19 -65 -62.5 -97.5t-103.5 -32.5q-69 0 -108 37t-39 100q0 36 13.5 61t34.5 42.5t47 29.5t52 22q38 15 75.5 28.5t65.5 24.5v38q0 38 -16 57.5t-51 19.5q-42 0 -60.5 -25t-26.5 -74l-118 15q6 47 24.5 80.5t46 54.5
t63.5 30.5t77 9.5q57 0 95 -14t60 -43q30 26 70 41.5t89 15.5q117 0 179 -76t62 -216h-332q3 -79 27.5 -122t85.5 -43q26 0 44.5 9t31.5 24.5t22 36.5t15 45z" />
    <glyph glyph-name="Oslashacute" unicode="&#x1fe;" horiz-adv-x="775" 
d="M218 358q0 -77 12 -132l274 356q-41 45 -117 45q-42 0 -73.5 -19.5t-52.5 -54.5t-32 -85t-11 -110zM387 90q85 0 127 71.5t42 196.5q0 78 -12 134l-273 -355q39 -47 116 -47zM388 -16q-57 0 -104.5 15.5t-85.5 42.5l-71 -92l-67 56l74 96q-42 54 -63 120.5t-21 135.5
q0 74 21 141.5t63.5 119.5t106 82.5t147.5 30.5q57 0 103.5 -15t84.5 -42l66 86l67 -55l-70 -90q43 -54 64 -121t21 -137q0 -74 -21 -141.5t-63 -119.5t-105 -82.5t-147 -30.5zM327 773l66 136h160l-107 -136h-119z" />
    <glyph glyph-name="oslashacute" unicode="&#x1ff;" horiz-adv-x="596" 
d="M194 266q0 -35 3 -63l177 212q-25 40 -77 40q-54 0 -78.5 -44.5t-24.5 -144.5zM297 76q55 0 80 45t25 145q0 35 -3 64l-178 -213q25 -41 76 -41zM297 -10q-45 0 -81.5 11t-65.5 31l-58 -69l-53 50l59 70q-28 38 -41 85t-13 98q0 54 15 104t46 88t79 60.5t113 22.5
q45 0 81.5 -10.5t65.5 -30.5l56 67l54 -51l-56 -68q27 -37 40.5 -84t13.5 -98q0 -54 -15 -104t-46.5 -88.5t-79.5 -61t-114 -22.5zM240 592l56 150h142l-92 -150h-106z" />
    <glyph glyph-name="uni0218" unicode="&#x218;" horiz-adv-x="647" 
d="M337 -157v13h-83v89h138v-128l-137 -64v52zM330 -16q-60 0 -110 17.5t-87 49.5t-59.5 78.5t-28.5 103.5l116 19q7 -82 51 -123.5t115 -41.5q55 0 87.5 19.5t32.5 61.5q0 25 -10.5 41.5t-31 29t-51.5 24t-71 26.5q-56 20 -97 42.5t-68 50t-40 61.5t-13 78q0 46 17.5 85
t50.5 67t80 43.5t106 15.5q107 0 172.5 -56t77.5 -159l-113 -22q-4 63 -38.5 99.5t-97.5 36.5q-56 0 -81 -23.5t-25 -56.5q0 -21 9 -36t26.5 -26.5t43 -21.5t59.5 -21q54 -18 99.5 -37t79 -44.5t52 -62t18.5 -88.5q0 -51 -17.5 -93.5t-51.5 -73t-85 -47t-117 -16.5z" />
    <glyph glyph-name="uni0219" unicode="&#x219;" horiz-adv-x="508" 
d="M263 -157v13h-83v89h138v-128l-137 -64v52zM259 -10q-98 0 -153.5 43.5t-63.5 112.5l101 30q2 -30 11.5 -50t24 -32t33 -17.5t39.5 -5.5q35 0 56 14t21 40q0 15 -6 25t-20.5 18.5t-39 17t-60.5 21.5q-32 11 -59.5 25t-47.5 34.5t-31.5 48.5t-11.5 67q0 34 14 63.5
t39 50.5t60.5 33t79.5 12q49 0 83.5 -11.5t58 -32.5t36 -49.5t16.5 -61.5l-106 -20q-6 53 -29.5 73t-57.5 20q-29 0 -46 -13t-17 -38q0 -15 5.5 -24.5t18.5 -18t34 -16.5t52 -20q37 -14 69 -27t55 -32t36.5 -46.5t13.5 -70.5q0 -78 -55 -120.5t-153 -42.5z" />
    <glyph glyph-name="uni021A" unicode="&#x21a;" horiz-adv-x="602" 
d="M315 -157v13h-83v89h138v-128l-137 -64v52zM218 602h-204v114h574v-114h-204v-602h-166v602z" />
    <glyph glyph-name="uni021B" unicode="&#x21b;" horiz-adv-x="411" 
d="M251 -157v13h-83v89h138v-128l-137 -64v52zM280 0q-76 0 -108 14q-20 7 -34 18t-22.5 28.5t-12 43t-3.5 62.5v265h-84v100h85v194h154v-194h116v-100h-116v-250q0 -31 5 -47t22 -24q10 -5 22 -6t27 -1h47v-103h-98v0z" />
    <glyph glyph-name="uni0237" unicode="&#x237;" horiz-adv-x="280" 
d="M-62 -119q33 0 49 1t33 7q22 8 32.5 25t10.5 64v553h154v-581q0 -74 -36.5 -115t-104.5 -54q-34 -7 -69.5 -7.5t-68.5 -0.5v108z" />
    <glyph glyph-name="circumflex" unicode="&#x2c6;" horiz-adv-x="412" 
d="M205 664l-47 -72h-105l97 143h112l97 -143h-108z" />
    <glyph glyph-name="caron" unicode="&#x2c7;" horiz-adv-x="408" 
d="M49 735h108l46 -71l47 71h105l-97 -143h-112z" />
    <glyph glyph-name="breve" unicode="&#x2d8;" horiz-adv-x="412" 
d="M206 592q-58 0 -97 33t-49 90l61 27q11 -23 30 -38.5t55 -15.5t55 15.5t30 38.5l61 -27q-10 -57 -49 -90t-97 -33z" />
    <glyph glyph-name="dotaccent" unicode="&#x2d9;" horiz-adv-x="413" 
d="M134 732h145v-131h-145v131z" />
    <glyph glyph-name="ring" unicode="&#x2da;" horiz-adv-x="413" 
d="M319 684q0 -47 -30.5 -75.5t-81.5 -28.5q-52 0 -83 28.5t-31 75.5t31 76.5t83 29.5q51 0 81.5 -29.5t30.5 -76.5zM163 685q0 -23 12.5 -34.5t31.5 -11.5t31.5 11.5t12.5 34.5t-12.5 34.5t-31.5 11.5t-31.5 -11.5t-12.5 -34.5z" />
    <glyph glyph-name="ogonek" unicode="&#x2db;" horiz-adv-x="412" 
d="M221 -233q-50 0 -81.5 23.5t-31.5 66.5q0 45 37.5 81.5t94.5 61.5h60q-44 -28 -63.5 -57.5t-19.5 -53.5q0 -22 12 -31.5t29 -9.5q14 0 27 5l13 -67q-34 -19 -77 -19z" />
    <glyph glyph-name="tilde" unicode="&#x2dc;" horiz-adv-x="412" 
d="M150 634q-30 0 -35 -40l-57 17q-2 25 3.5 47.5t17.5 39.5t30.5 26.5t41.5 9.5q18 0 34 -6t31.5 -13t29.5 -13t28 -6q30 0 35 40l57 -17q2 -26 -3.5 -48.5t-17.5 -39t-30.5 -26t-41.5 -9.5q-18 0 -34 6t-31.5 13t-30 13t-27.5 6z" />
    <glyph glyph-name="hungarumlaut" unicode="&#x2dd;" horiz-adv-x="412" 
d="M41 592l49 150h117l-79 -150h-87zM206 592l48 150h117l-78 -150h-87z" />
    <glyph glyph-name="Wgrave" unicode="&#x1e80;" horiz-adv-x="960" 
d="M434 773l-107 136h161l65 -136h-119zM26 716h169l99 -505h7l129 505h129l122 -505h7l106 505h140l-167 -718h-157l-121 486h-4l-131 -486h-161z" />
    <glyph glyph-name="wgrave" unicode="&#x1e81;" horiz-adv-x="840" 
d="M19 531h150l92 -348h4l97 348h136l89 -347h5l98 347h131l-155 -533h-142l-101 390h-4l-107 -390h-143zM286 742h138l56 -150h-102z" />
    <glyph glyph-name="Wacute" unicode="&#x1e82;" horiz-adv-x="960" 
d="M420 773l66 136h160l-107 -136h-119zM26 716h169l99 -505h7l129 505h129l122 -505h7l106 505h140l-167 -718h-157l-121 486h-4l-131 -486h-161z" />
    <glyph glyph-name="wacute" unicode="&#x1e83;" horiz-adv-x="840" 
d="M362 592l56 150h142l-92 -150h-106zM19 531h150l92 -348h4l97 348h136l89 -347h5l98 347h131l-155 -533h-142l-101 390h-4l-107 -390h-143z" />
    <glyph glyph-name="Wdieresis" unicode="&#x1e84;" horiz-adv-x="960" 
d="M310 914h132v-127h-132v127zM520 914h132v-127h-132v127zM26 716h169l99 -505h7l129 505h129l122 -505h7l106 505h140l-167 -718h-157l-121 486h-4l-131 -486h-161z" />
    <glyph glyph-name="wdieresis" unicode="&#x1e85;" horiz-adv-x="840" 
d="M268 729h122v-126h-122v126zM450 729h122v-126h-122v126zM19 531h150l92 -348h4l97 348h136l89 -347h5l98 347h131l-155 -533h-142l-101 390h-4l-107 -390h-143z" />
    <glyph glyph-name="Ygrave" unicode="&#x1ef2;" horiz-adv-x="631" 
d="M233 0v288l-219 428h172l144 -295h4l146 295h138l-222 -429v-287h-163zM270 773l-107 136h161l65 -136h-119z" />
    <glyph glyph-name="ygrave" unicode="&#x1ef3;" horiz-adv-x="521" 
d="M41 -123q24 0 45 2t38 8q22 8 35 24.5t24 46.5l15 43l-192 530h165l100 -347h4l107 347h132l-212 -598q-10 -29 -20 -52t-23.5 -40.5t-31 -30.5t-42.5 -22q-24 -9 -61.5 -12t-82.5 -3v104zM136 742h138l56 -150h-102z" />
    <glyph glyph-name="endash" unicode="&#x2013;" horiz-adv-x="585" 
d="M50 327h486v-109h-486v109z" />
    <glyph glyph-name="emdash" unicode="&#x2014;" horiz-adv-x="795" 
d="M50 327h696v-109h-696v109z" />
    <glyph glyph-name="quoteleft" unicode="&#x2018;" horiz-adv-x="275" 
d="M56 612l157 114v-82l-84 -63v-15h84v-149h-157v195z" />
    <glyph glyph-name="quoteright" unicode="&#x2019;" horiz-adv-x="275" 
d="M62 407v82l85 63v15h-85v149h158v-194z" />
    <glyph glyph-name="quotesinglbase" unicode="&#x201a;" horiz-adv-x="275" 
d="M62 -125v82l85 63v15h-85v149h158v-194z" />
    <glyph glyph-name="quotedblleft" unicode="&#x201c;" horiz-adv-x="489" 
d="M213 644l-84 -63v-15h84v-149h-157v195l157 114v-82zM427 644l-85 -63v-15h85v-149h-158v195l158 114v-82z" />
    <glyph glyph-name="quotedblright" unicode="&#x201d;" horiz-adv-x="489" 
d="M275 489l85 63v15h-85v149h158v-194l-158 -115v82zM62 407v82l85 63v15h-85v149h158v-194z" />
    <glyph glyph-name="quotedblbase" unicode="&#x201e;" horiz-adv-x="489" 
d="M275 -43l85 63v15h-85v149h158v-194l-158 -115v82zM62 -125v82l85 63v15h-85v149h158v-194z" />
    <glyph glyph-name="dagger" unicode="&#x2020;" horiz-adv-x="519" 
d="M189 497h-145v116h145v169h135v-169h152v-116h-152v-534h-135v534z" />
    <glyph glyph-name="daggerdbl" unicode="&#x2021;" horiz-adv-x="519" 
d="M189 132h-145v116h145v249h-145v116h145v169h135v-169h152v-116h-152v-249h152v-116h-152v-169h-135v169z" />
    <glyph glyph-name="bullet" unicode="&#x2022;" horiz-adv-x="425" 
d="M79 500h267v-268h-267v268z" />
    <glyph glyph-name="ellipsis" unicode="&#x2026;" horiz-adv-x="863" 
d="M621 196h165v-196h-165v196zM349 196h165v-196h-165v196zM77 196h165v-196h-165v196z" />
    <glyph glyph-name="perthousand" unicode="&#x2030;" horiz-adv-x="1239" 
d="M1037 -16q-38 0 -70 14t-55.5 39.5t-37 61.5t-13.5 81t13.5 81.5t37 62t55.5 39.5t70 14t70.5 -14t56 -39.5t37 -62t13.5 -81.5t-13.5 -81t-37 -61.5t-56 -39.5t-70.5 -14zM1037 61q31 0 43 29.5t12 89.5q0 63 -12 92t-43 29q-30 0 -43 -29t-13 -92q0 -60 13 -89.5
t43 -29.5zM138 0l465 738h114l-465 -738h-114zM25 538q0 45 13.5 81t37 62t56 40t70.5 14t70 -14t55.5 -40t37 -62t13.5 -81t-13.5 -81t-37 -61.5t-55.5 -39.5t-70 -14t-70.5 14t-56 39.5t-37 61.5t-13.5 81zM145 538q0 -61 13 -90t44 -29q30 0 42.5 29t12.5 90
q0 62 -12.5 91.5t-42.5 29.5q-31 0 -44 -29.5t-13 -91.5zM641 -16q-38 0 -70 14t-55.5 39.5t-37 61.5t-13.5 81t13.5 81.5t37 62t55.5 39.5t70 14t70 -14t55.5 -39.5t37 -62t13.5 -81.5t-13.5 -81t-37 -61.5t-55.5 -39.5t-70 -14zM641 61q31 0 43 29.5t12 89.5q0 63 -12 92
t-43 29t-43.5 -29t-12.5 -92q0 -60 12.5 -89.5t43.5 -29.5z" />
    <glyph glyph-name="uni2032" unicode="&#x2032;" horiz-adv-x="279" 
d="M53 435l25 281h164l-102 -281h-87z" />
    <glyph glyph-name="uni2033" unicode="&#x2033;" horiz-adv-x="489" 
d="M263 435l25 281h164l-102 -281h-87zM53 435l25 281h164l-102 -281h-87z" />
    <glyph glyph-name="guilsinglleft" unicode="&#x2039;" horiz-adv-x="306" 
d="M31 253l135 188h119l-116 -188l116 -187h-119z" />
    <glyph glyph-name="guilsinglright" unicode="&#x203a;" horiz-adv-x="306" 
d="M263.002 253l-134.992 188h-118.992l115.993 -188l-115.993 -187h118.992z" />
    <glyph glyph-name="fraction" unicode="&#x2044;" horiz-adv-x="150" 
d="M263 715h81l-457 -715h-81z" />
    <glyph glyph-name="Euro" unicode="&#x20ac;" horiz-adv-x="698" 
d="M659 233q-1 -61 -22 -107.5t-56 -78t-81.5 -47.5t-98.5 -16q-69 0 -120 20.5t-86 55t-56 80.5t-31 97h-79v84h69q-1 9 -1 18.5v18.5v15.5t1 15.5h-69v84h77q9 52 29.5 99t55.5 82.5t86.5 56.5t123.5 21q50 0 95 -12.5t80 -40.5t56.5 -72t24.5 -108l-139 -40
q4 82 -24.5 127t-90.5 45q-56 0 -88 -44.5t-45 -113.5h168v-84h-176q-1 -8 -1 -15.5v-15.5v-19t1 -18h176v-84h-167q12 -67 43.5 -109.5t88.5 -42.5q30 0 53 13.5t38 38.5t21.5 59t4.5 76l139 -39v0z" />
    <glyph glyph-name="trademark" unicode="&#x2122;" horiz-adv-x="698" 
d="M105 662h-83v54h252v-54h-83v-236h-86v236zM372 631v-205h-62v290h111l57 -185l56 185h110v-290h-80v208l-63 -208h-68z" />
    <glyph glyph-name="onethird" unicode="&#x2153;" horiz-adv-x="875" 
d="M137 325v281h-77v62l35 2q23 2 36.5 13t21.5 40h88v-398h-104zM654 -9q-32 0 -62 8t-52.5 25t-35 43.5t-8.5 62.5l93 18q-2 -17 1 -32.5t10.5 -28.5t20.5 -20.5t30 -7.5q26 0 40 15t14 43q0 58 -68 58h-47v62h47q31 0 44 14t13 38q0 23 -14 35t-35 12q-29 0 -43 -20.5
t-10 -51.5l-94 12q-1 33 11 57t33 39.5t50 23t61 7.5q30 0 56.5 -7t47 -20t32.5 -32t12 -43q0 -43 -26 -63t-64 -26v-7q43 -5 73.5 -28.5t30.5 -69.5q0 -54 -42.5 -85t-118.5 -31zM585 715h81l-457 -715h-81z" />
    <glyph glyph-name="twothirds" unicode="&#x2154;" horiz-adv-x="989" 
d="M66 388q54 26 92.5 49.5t63 47t36 50t11.5 58.5q0 33 -14.5 50t-38.5 17q-37 0 -53 -38.5t6 -101.5l-98 10q-12 38 -8.5 73.5t22 63t52.5 44t83 16.5q73 0 116 -35.5t43 -98.5q0 -71 -49 -116.5t-130 -77.5v-8h184v-66h-318v63zM769 -9q-32 0 -62 8t-52.5 25t-35 43.5
t-8.5 62.5l93 18q-2 -17 1 -32.5t10.5 -28.5t20.5 -20.5t30 -7.5q26 0 40 15t14 43q0 58 -68 58h-47v62h47q31 0 44 14t13 38q0 23 -14 35t-35 12q-29 0 -43 -20.5t-10 -51.5l-94 12q-1 33 11 57t33 39.5t50 23t61 7.5q30 0 56.5 -7t47 -20t32.5 -32t12 -43q0 -43 -26 -63
t-64 -26v-7q43 -5 73.5 -28.5t30.5 -69.5q0 -54 -42.5 -85t-118.5 -31zM699 715h81l-457 -715h-81z" />
    <glyph glyph-name="oneeighth" unicode="&#x215b;" horiz-adv-x="890" 
d="M137 325v281h-77v62l35 2q23 2 36.5 13t21.5 40h88v-398h-104zM664 -9q-79 0 -122.5 33t-43.5 81q0 36 24 60t69 35v3q-80 23 -80 92q0 49 41.5 78.5t111.5 29.5t112 -29.5t42 -78.5q0 -35 -21 -58t-59 -34v-3q44 -11 68 -35t24 -60q0 -48 -43.5 -81t-122.5 -33zM664 235
q25 0 39 15t14 36q0 23 -13.5 37t-39.5 14t-39 -14t-13 -37q0 -21 13.5 -36t38.5 -15zM664 57q28 0 43 16t15 42t-15.5 40t-42.5 14q-26 0 -42.5 -14t-16.5 -40t16 -42t43 -16zM585 715h81l-457 -715h-81z" />
    <glyph glyph-name="threeeighths" unicode="&#x215c;" horiz-adv-x="970" 
d="M216 315q-32 0 -62 8t-52.5 25t-35 43.5t-8.5 62.5l93 18q-2 -17 1 -32.5t10.5 -28.5t20.5 -20.5t30 -7.5q26 0 40 15t14 43q0 58 -68 58h-47v62h47q31 0 44 14t13 38q0 23 -14 35t-35 12q-29 0 -43 -20.5t-10 -51.5l-94 12q-1 33 11 57t33 39.5t50 23t61 7.5
q30 0 56.5 -7t47 -20t32.5 -32t12 -43q0 -43 -26 -63t-64 -26v-7q43 -5 73.5 -28.5t30.5 -69.5q0 -54 -42.5 -85t-118.5 -31zM744 -9q-79 0 -122.5 33t-43.5 81q0 36 24 60t69 35v3q-80 23 -80 92q0 49 41.5 78.5t111.5 29.5t112 -29.5t42 -78.5q0 -35 -21 -58t-59 -34v-3
q44 -11 68 -35t24 -60q0 -48 -43.5 -81t-122.5 -33zM744 235q25 0 39 15t14 36q0 23 -13.5 37t-39.5 14t-39 -14t-13 -37q0 -21 13.5 -36t38.5 -15zM744 57q28 0 43 16t15 42t-15.5 40t-42.5 14q-26 0 -42.5 -14t-16.5 -40t16 -42t43 -16zM665 715h81l-457 -715h-81z" />
    <glyph glyph-name="fiveeighths" unicode="&#x215d;" horiz-adv-x="970" 
d="M218 315q-33 0 -61.5 10t-49 27.5t-31.5 41.5t-9 53l96 19q-5 -35 10 -58.5t44 -23.5q52 0 52 81q0 35 -13.5 54.5t-39.5 19.5q-23 0 -39 -13.5t-25 -32.5l-73 15l27 211h229v-67h-171l-11 -81q14 15 36 24.5t51 9.5q63 0 101 -38.5t38 -101.5q0 -35 -12 -62.5t-33.5 -47
t-51 -30t-64.5 -10.5zM744 -9q-79 0 -122.5 33t-43.5 81q0 36 24 60t69 35v3q-80 23 -80 92q0 49 41.5 78.5t111.5 29.5t112 -29.5t42 -78.5q0 -35 -21 -58t-59 -34v-3q44 -11 68 -35t24 -60q0 -48 -43.5 -81t-122.5 -33zM744 235q25 0 39 15t14 36q0 23 -13.5 37t-39.5 14
t-39 -14t-13 -37q0 -21 13.5 -36t38.5 -15zM744 57q28 0 43 16t15 42t-15.5 40t-42.5 14q-26 0 -42.5 -14t-16.5 -40t16 -42t43 -16zM665 715h81l-457 -715h-81z" />
    <glyph glyph-name="seveneighths" unicode="&#x215e;" horiz-adv-x="863" 
d="M59 325l152 324h-173v70h276v-55l-150 -339h-105zM638 -9q-79 0 -122.5 33t-43.5 81q0 36 24 60t69 35v3q-80 23 -80 92q0 49 41.5 78.5t111.5 29.5t112 -29.5t42 -78.5q0 -35 -21 -58t-59 -34v-3q44 -11 68 -35t24 -60q0 -48 -43.5 -81t-122.5 -33zM638 235q25 0 39 15
t14 36q0 23 -13.5 37t-39.5 14t-39 -14t-13 -37q0 -21 13.5 -36t38.5 -15zM638 57q28 0 43 16t15 42t-15.5 40t-42.5 14q-26 0 -42.5 -14t-16.5 -40t16 -42t43 -16zM558 715h81l-457 -715h-81z" />
    <glyph glyph-name="minus" unicode="&#x2212;" horiz-adv-x="521" 
d="M52 378h416v-112h-416v112z" />
    <glyph glyph-name="approxequal" unicode="&#x2248;" horiz-adv-x="558" 
d="M197 410q-22 0 -37 -15t-18 -39l-92 33q3 30 14 56t29 45.5t43.5 30.5t56.5 11q27 0 51.5 -8t46.5 -17t41 -17t36 -8q21 0 35.5 14.5t16.5 38.5l93 -37q-6 -60 -43.5 -99t-100.5 -39q-26 0 -49.5 8t-45 17t-40.5 17t-37 8zM197 187q-22 0 -37 -14.5t-18 -39.5l-92 33
q3 30 14 56t29 45.5t43.5 31t56.5 11.5q27 0 51.5 -8t46.5 -17.5t41 -17.5t36 -8q21 0 35.5 14.5t16.5 39.5l93 -38q-6 -60 -43.5 -99t-100.5 -39q-26 0 -49.5 8t-45 17t-40.5 17t-37 8z" />
    <glyph glyph-name="notequal" unicode="&#x2260;" horiz-adv-x="525" 
d="M299 571h95l-169 -498h-95zM52 473h420v-111h-420v111zM52 275h420v-111h-420v111z" />
    <glyph glyph-name="lessequal" unicode="&#x2264;" horiz-adv-x="523" 
d="M66 111h388v-111h-388v111zM65 316v124l388 166v-123l-251 -99v-13l251 -100v-121z" />
    <glyph glyph-name="greaterequal" unicode="&#x2265;" horiz-adv-x="523" 
d="M70 111h388v-111h-388v111zM58 144v121l251 100v13l-251 99v123l388 -166v-124z" />
    <glyph glyph-name="uni24C5" unicode="&#x24c5;" horiz-adv-x="839" 
d="M420 -17q-75 0 -141.5 24.5t-117 71.5t-80 117t-29.5 162q0 91 29.5 161.5t80 117.5t117 71.5t141.5 24.5q74 0 141 -24.5t117 -71.5t79.5 -117.5t29.5 -161.5q0 -92 -29.5 -162t-80 -117t-117 -71.5t-140.5 -24.5zM420 46q63 0 117 20t93.5 59.5t62 97.5t22.5 135
q0 76 -22.5 134.5t-62 98t-93.5 59.5t-117 20t-117 -20t-93.5 -59.5t-62.5 -98t-23 -134.5q0 -77 22.5 -135t62 -97.5t94 -59.5t117.5 -20zM277 550h170q79 0 116 -31t37 -88q0 -60 -40.5 -91t-112.5 -31h-63v-136h-107v377zM439 378q28 0 39 14.5t11 38.5t-11 37.5
t-39 13.5h-55v-104h55z" />
    <glyph glyph-name="zero.tab" unicode="&#xe44f;" 
d="M605 358q0 -73 -14.5 -140.5t-47 -119.5t-86 -83t-131.5 -31t-131.5 31t-86 83t-47 119.5t-14.5 140.5t14.5 140.5t47 119.5t86 83t131.5 31t131.5 -31t86 -83t47 -119.5t14.5 -140.5zM207 358q0 -64 4 -114.5t16.5 -86t36 -54t62.5 -18.5t62.5 18.5t36 54t16.5 86
t4 114.5t-4 115t-16.5 86t-36 54t-62.5 19t-62.5 -19t-36 -54t-16.5 -86t-4 -115z" />
    <glyph glyph-name="one.tab" unicode="&#xe450;" 
d="M94 0v108h162v428h-154v94l58 3q20 1 38 5t32.5 13.5t25.5 25.5t18 43h135v-612h157v-108h-472z" />
    <glyph glyph-name="two.tab" unicode="&#xe451;" 
d="M58 102q80 44 139 81t106 78q58 52 89 108t31 129q0 62 -26.5 98t-78.5 36q-58 0 -88.5 -42.5t-30.5 -114.5q0 -27 5 -61t17 -70l-141 16q-14 34 -19 64t-5 58q0 55 15.5 101t48 79t82.5 51.5t118 18.5q63 0 113 -17t84.5 -48t53 -74t18.5 -95q0 -72 -30.5 -129.5
t-84.5 -107.5q-43 -40 -99.5 -75t-118.5 -67v-8h350v-111h-548v102z" />
    <glyph glyph-name="three.tab" unicode="&#xe452;" 
d="M323 -16q-49 0 -96.5 12t-84.5 37.5t-60 65.5t-23 97q0 10 1 21.5t3 23.5l152 34q-5 -17 -7 -32.5t-2 -35.5q0 -51 29.5 -87t88.5 -36q54 0 80 31.5t26 83.5q0 28 -6 51.5t-21.5 40.5t-41.5 27t-65 10h-88v97h87q66 0 92 30t26 78q0 47 -25 73t-69 26q-55 0 -85.5 -38.5
t-20.5 -111.5l-142 16q-5 61 13.5 105t53.5 72.5t83.5 42.5t105.5 14q55 0 100.5 -12.5t78.5 -36t51 -58t18 -78.5q0 -37 -12 -64.5t-33 -47.5t-49 -32t-61 -17v-8q38 -5 70 -18.5t55.5 -36.5t37 -55.5t13.5 -74.5q0 -45 -17.5 -83.5t-52 -66.5t-85.5 -43.5t-118 -15.5z" />
    <glyph glyph-name="four.tab" unicode="&#xe453;" 
d="M364 149h-322v89l301 485h175v-473h103v-101h-103v-149h-154v149zM364 250v309h-3l-185 -304v-5h188z" />
    <glyph glyph-name="five.tab" unicode="&#xe454;" 
d="M321 -16q-58 0 -107.5 16t-84 47t-52.5 75.5t-13 100.5l148 37q-6 -36 -1.5 -68t18 -55.5t36 -37.5t52.5 -14q59 0 84.5 46t25.5 126q0 156 -105 156q-45 0 -73.5 -30.5t-40.5 -72.5l-125 28l44 378h406v-109h-306l-17 -150q25 26 62.5 41.5t88.5 15.5q55 0 98 -18.5
t73 -52.5t45.5 -81.5t15.5 -104.5q0 -63 -19.5 -113.5t-55.5 -86t-86 -54.5t-111 -19z" />
    <glyph glyph-name="six.tab" unicode="&#xe455;" 
d="M605 248q0 -62 -20 -110.5t-56 -83t-86.5 -52.5t-110.5 -18q-70 0 -125.5 27t-93.5 83q-29 44 -44.5 104.5t-15.5 140.5q0 83 17 155t53 125t92.5 83t135.5 30q44 0 84.5 -11t72 -35t51 -62t22.5 -92l-137 -19q0 33 -7.5 55.5t-21.5 36.5t-33 20.5t-40 6.5
q-38 0 -63.5 -18.5t-41 -50t-22 -72t-7.5 -83.5q26 30 68.5 52t102.5 22q50 0 91.5 -16t71.5 -46t46.5 -73.5t16.5 -98.5zM333 84q49 0 78.5 39t29.5 114q0 70 -27.5 109t-78.5 39q-23 0 -43.5 -9t-36 -27.5t-24.5 -46t-9 -64.5q0 -62 24 -102q14 -25 36 -38.5t51 -13.5z
" />
    <glyph glyph-name="seven.tab" unicode="&#xe456;" 
d="M134 0l282 602h-343v114h503v-98l-277 -618h-165z" />
    <glyph glyph-name="eight.tab" unicode="&#xe457;" 
d="M326 -16q-70 0 -122.5 16.5t-88 44t-53 64.5t-17.5 78q0 132 152 176v3q-63 20 -100 64t-37 109q0 41 18 76.5t52.5 61.5t84 40.5t111.5 14.5t111.5 -14.5t84 -40.5t52.5 -61.5t18 -76.5q0 -65 -38.5 -110.5t-98.5 -62.5v-3q152 -44 152 -176q0 -41 -17.5 -78t-53 -64.5
t-88 -44t-122.5 -16.5zM326 415q51 0 78.5 31t27.5 79q0 51 -27 79t-79 28t-79 -28t-27 -79q0 -48 27.5 -79t78.5 -31zM326 84q54 0 84.5 31.5t30.5 85.5t-30.5 84.5t-84.5 30.5t-84.5 -30.5t-30.5 -84.5t30.5 -85.5t84.5 -31.5z" />
    <glyph glyph-name="nine.tab" unicode="&#xe458;" 
d="M320 331q46 0 78.5 37t32.5 112q0 65 -25 103q-28 49 -85 49q-51 0 -80 -39t-29 -114q0 -69 28.5 -108.5t79.5 -39.5zM304 -16q-45 0 -86 11t-73.5 35t-52.5 61.5t-23 90.5l138 19q-1 -33 7.5 -55t23 -36t34 -20t41.5 -6q38 0 63 18.5t40 49.5t21.5 71t7.5 84
q-26 -30 -68 -51.5t-102 -21.5q-50 0 -91.5 16t-71.5 46.5t-47 74t-17 97.5q0 61 20 110t56.5 83.5t87 52.5t110.5 18q64 0 116.5 -22.5t89.5 -69.5q35 -45 53.5 -110t18.5 -153q0 -83 -16.5 -155t-52.5 -125t-92 -83t-135 -30z" />
    <glyph glyph-name="cent.tab" unicode="&#xe459;" 
d="M233 261q0 -74 17 -117.5t58 -57.5v350q-75 -28 -75 -175zM568 157q-15 -66 -56.5 -111.5t-119.5 -57.5v-107h-84v106q-104 11 -164.5 81.5t-60.5 192.5q0 60 16.5 108t46 83t71 56t91.5 27v96h84v-97q39 -5 68 -19.5t50 -35.5t34.5 -48.5t21.5 -58.5l-104 -41
q-6 37 -23 64.5t-47 39.5v-349q32 14 49 44.5t23 68.5z" />
    <glyph glyph-name="dollar.tab" unicode="&#xe45a;" 
d="M206 552q0 -34 22 -54.5t60 -34.5v165q-42 -5 -62 -26t-20 -50zM454 172q0 34 -24.5 55t-67.5 38v-176q42 5 67 25t25 58zM283 -119v106q-101 14 -162.5 78.5t-72.5 167.5l114 19q5 -66 38 -106t83 -53v199q-53 17 -93.5 38t-68.5 48t-42.5 62t-14.5 80q0 41 14 78
t42.5 65t70 46t97.5 22v104h79v-107q86 -12 138 -64.5t62 -146.5l-112 -22q-3 48 -26 79.5t-62 45.5v-184q52 -17 95 -36.5t74.5 -45.5t49 -60t17.5 -80q0 -97 -61.5 -159t-179.5 -70v-104h-79z" />
    <glyph glyph-name="Euro.tab" unicode="&#xe45b;" horiz-adv-x="653" 
d="M609 227q-2 -59 -21 -104.5t-50.5 -76t-74.5 -46.5t-93 -16q-67 0 -114 19.5t-78.5 53.5t-49.5 80.5t-26 99.5h-66v84h59q-1 9 -1 18.5v18.5v31h-58v84h65q7 54 24 101.5t48.5 82.5t79.5 55t117 20q48 0 90 -12t74 -39t51.5 -70t21.5 -105l-138 -40q3 80 -21 122.5
t-78 42.5q-28 0 -47 -11t-31.5 -31.5t-19 -50t-9.5 -65.5h131v-84h-134v-68h134v-84h-130q3 -35 9.5 -63t19 -48t31.5 -30.5t46 -10.5q56 0 80.5 50t20.5 131l138 -39v0z" />
    <glyph glyph-name="space_uni0326" horiz-adv-x="412" 
d="M220 -157v13h-83v89h138v-128l-137 -64v52z" />
    <glyph glyph-name="space_uni0326.alt" horiz-adv-x="414" 
d="M192 679v-13h83v-89h-138v128l137 64v-52z" />
    <glyph glyph-name="dollar.old" horiz-adv-x="580" 
d="M182 508q0 -30 18.5 -48t49.5 -32v151q-33 -6 -50.5 -25.5t-17.5 -45.5zM402 153q0 32 -21 52t-57 35v-162q32 5 55 23t23 52zM244 -125v111q-86 14 -139 73.5t-61 153.5l101 18q2 -60 29 -97t70 -50v186q-42 15 -76 33t-58.5 43t-38 56.5t-13.5 73.5q0 38 12.5 72
t37 60.5t60 43.5t82.5 22v105h80v-108q74 -12 120 -61.5t53 -135.5l-101 -21q-1 43 -20.5 73t-51.5 44v-170q43 -16 80.5 -34t65 -42t43.5 -55.5t16 -74.5q0 -42 -14 -79t-41 -65t-66 -45.5t-90 -21.5v-108h-80z" />
    <glyph glyph-name="Euro.old" horiz-adv-x="646" 
d="M611 213q-1 -56 -20 -99.5t-51 -72.5t-74.5 -44t-89.5 -15q-64 0 -109.5 18.5t-77 50.5t-49.5 75t-26 93h-72v78h65q-1 8 -1 17v17v16t1 16h-65v79h72q7 50 24.5 94t48.5 76.5t77 51.5t112 19q45 0 86.5 -11.5t73 -37.5t51.5 -67t23 -101l-127 -37q3 77 -25.5 118.5
t-81.5 41.5q-51 0 -76.5 -40t-34.5 -107h149v-79h-155v-66h155v-78h-149q9 -66 34.5 -104t76.5 -38q55 0 84 48t24 125l127 -37v0z" />
    <glyph glyph-name="sterling.old" horiz-adv-x="660" 
d="M479 -14q-47 0 -88 25.5t-79 56.5q-25 -35 -63 -56.5t-89 -21.5q-27 0 -52.5 6.5t-45.5 20.5t-32 35.5t-12 50.5q0 55 41 85.5t105 30.5q29 0 56 -6t53 -16q-3 21 -12 40.5t-22 39.5h-157v77h105q-17 27 -28 58.5t-11 69.5q0 46 17.5 83.5t49 63.5t75 40t94.5 14
q43 0 84.5 -13t71.5 -41.5t45 -75t6 -113.5l-122 -14q11 78 -12.5 120.5t-69.5 42.5q-43 0 -66 -31t-23 -79q0 -35 10 -64.5t22 -60.5h150v-77h-127q2 -12 3.5 -25t1.5 -27q0 -17 -1.5 -33t-5.5 -31q32 -16 61 -28t57 -12q41 0 55 23.5t9 67.5h70q16 -54 11.5 -96t-23 -71
t-48.5 -44t-64 -15zM166 55q30 0 53.5 14.5t37.5 40.5q-24 16 -49 26.5t-52 10.5q-29 0 -45.5 -13t-16.5 -31q0 -23 22 -35.5t50 -12.5z" />
    <glyph glyph-name="yen.old" horiz-adv-x="573" 
d="M361 110v-110h-149v110h-145v77h145v64h-145v77h113l-158 342h150l120 -286h7l122 286h130l-161 -342h115v-77h-144v-64h144v-77h-144z" />
    <glyph glyph-name="florin.old" horiz-adv-x="507" 
d="M20 11q32 0 54 1t38 14q16 12 25 37.5t17 76.5l24 147h-85v100h100l16 106q12 74 40.5 111.5t69.5 54.5q38 18 84.5 20t96.5 -2l-15 -102q-32 0 -53.5 -1t-36.5 -13q-17 -12 -25.5 -38t-16.5 -76l-10 -60h104v-100h-119l-31 -193q-12 -75 -40.5 -112.5t-70.5 -54.5
q-37 -17 -84.5 -19t-97.5 2z" />
    <glyph glyph-name="zero.old" horiz-adv-x="624" 
d="M311 -10q-64 0 -113 21.5t-82.5 59t-50.5 88t-17 107.5t17 107.5t50.5 87.5t82.5 58.5t113 21.5t113.5 -21.5t83 -58.5t51 -87.5t17.5 -107.5t-17.5 -107.5t-51 -88t-83 -59t-113.5 -21.5zM311 83q59 0 81 44.5t22 138.5t-22 138t-81 44t-80 -44t-21 -138t21.5 -138.5
t79.5 -44.5z" />
    <glyph glyph-name="one.old" horiz-adv-x="310" 
d="M80 531h150v-531h-150v531z" />
    <glyph glyph-name="two.old" horiz-adv-x="565" 
d="M47 79q80 38 137 69.5t94 63.5q41 35 58.5 69.5t17.5 74.5t-19.5 66.5t-64.5 26.5q-32 0 -53.5 -14.5t-32.5 -39.5t-12.5 -59.5t7.5 -73.5l-130 14q-12 68 0.5 118t44 83t79 49t105.5 16q55 0 99 -13t75 -37t47.5 -57.5t16.5 -74.5q0 -54 -27 -95t-73 -73
q-38 -26 -82.5 -45.5t-92.5 -39.5v-6h286v-101h-480v79z" />
    <glyph glyph-name="three.old" horiz-adv-x="576" 
d="M279 -176q-48 0 -93 12t-79.5 39.5t-53.5 71t-15 106.5l136 32q-3 -34 1 -64.5t16.5 -53.5t34 -36.5t51.5 -13.5q44 0 71.5 26.5t27.5 85.5q0 54 -29.5 83t-97.5 29h-71v96h61q121 0 121 111q0 47 -22 74t-66 27q-52 0 -79.5 -38.5t-22.5 -107.5l-128 18q-2 57 16 99
t50.5 69t77.5 40t98 13q51 0 94.5 -11.5t75 -34.5t49 -56.5t17.5 -78.5q0 -74 -43.5 -112t-112.5 -51v-7q80 -10 126.5 -52.5t46.5 -118.5q0 -44 -18 -80t-51 -62t-81 -40t-108 -14z" />
    <glyph glyph-name="four.old" horiz-adv-x="582" 
d="M316 26h-303v83l277 426h177v-411h99v-98h-99v-165h-151v165zM316 124v275h-2l-178 -273v-2h180z" />
    <glyph glyph-name="five.old" horiz-adv-x="581" 
d="M285 -176q-55 0 -100 14.5t-77.5 42.5t-49.5 69.5t-16 94.5l137 34q-5 -76 23.5 -119t80.5 -43q26 0 46 11.5t33.5 32.5t20.5 49.5t7 62.5q-1 70 -28.5 106t-70.5 36q-40 0 -67.5 -26.5t-40.5 -62.5l-124 18l43 387h383v-101h-286l-19 -173q24 23 61 39t86 16t90 -16
t71 -46.5t46.5 -74.5t16.5 -100q0 -60 -21 -106.5t-57 -79t-84.5 -49t-103.5 -16.5z" />
    <glyph glyph-name="six.old" horiz-adv-x="618" 
d="M315 -14q-63 0 -114 22t-86 67q-32 41 -49 100t-17 140q0 78 15.5 145t49 116.5t86 78t126.5 28.5q44 0 82 -10.5t67 -33.5t46 -58.5t19 -84.5l-126 -16q2 60 -24 85t-66 25q-36 0 -60 -18t-39 -48t-22 -69.5t-8 -81.5h3q23 35 62.5 57.5t95.5 22.5q46 0 85.5 -15
t68 -43.5t44.5 -69.5t16 -94q0 -57 -19.5 -102.5t-54 -77t-81 -48.5t-100.5 -17zM311 79q46 0 71.5 35.5t25.5 104.5q0 66 -23.5 102.5t-71.5 36.5q-43 0 -72 -35t-29 -104q0 -64 24 -100q12 -19 31 -29.5t44 -10.5z" />
    <glyph glyph-name="seven.old" horiz-adv-x="507" 
d="M324 433h-301v98h450v-93l-256 -571h-160z" />
    <glyph glyph-name="eight.old" horiz-adv-x="601" 
d="M301 -14q-66 0 -115.5 15t-82 41t-48.5 60.5t-16 72.5q0 63 39.5 104t111.5 58v6q-59 13 -97.5 55t-38.5 103q0 39 16.5 72t48.5 57.5t77.5 38.5t104.5 14q58 0 104 -14t77.5 -38.5t48 -57.5t16.5 -72q0 -30 -10.5 -56.5t-28.5 -46.5t-42.5 -34.5t-52.5 -20.5v-6
q72 -17 110.5 -58t38.5 -104q0 -38 -16 -72.5t-48.5 -60.5t-81.5 -41t-115 -15zM301 386q42 0 66.5 29t24.5 75t-23 73t-68 27t-68.5 -27t-23.5 -73t25 -75t67 -29zM301 79q47 0 73 30t26 79q0 48 -26 77.5t-73 29.5t-73.5 -29.5t-26.5 -77.5q0 -49 26 -79t74 -30z" />
    <glyph glyph-name="nine.old" horiz-adv-x="618" 
d="M304 165q44 0 72.5 35.5t28.5 104.5q0 66 -26 106q-27 38 -72 38q-46 0 -72 -37t-26 -106q0 -66 24 -103.5t71 -37.5zM293 -176q-43 0 -80.5 10.5t-67 32t-48 55t-23.5 79.5l125 19q0 -29 8.5 -48.5t22 -31.5t30 -17.5t33.5 -5.5q36 0 59.5 20.5t38 54t21 75t6.5 83.5h-3
q-22 -36 -59.5 -57.5t-93.5 -21.5q-46 0 -85.5 15t-68 43.5t-45 70.5t-16.5 95q0 57 19.5 102.5t54 78t81.5 49.5t101 17q57 0 104 -19t82 -57q38 -41 59 -105.5t21 -156.5q0 -81 -15.5 -150.5t-48.5 -120.5t-85.5 -80t-126.5 -29z" />
    <glyph glyph-name="sterling.tab" horiz-adv-x="653" 
d="M475 -12q-49 0 -86 22t-69 51q-23 -32 -58.5 -52.5t-86.5 -20.5q-30 0 -58 7t-50 22t-35.5 38t-13.5 55q0 55 41 89t115 34q30 0 56.5 -6t50.5 -16q-3 25 -13.5 47t-24.5 43h-174v84h112q-22 32 -37.5 67t-15.5 78q0 47 19.5 84.5t53 63.5t78 40t94.5 14q51 0 97 -13
t78 -42.5t46.5 -76.5t4.5 -115l-135 -16q10 75 -11 118.5t-72 43.5q-44 0 -65 -32.5t-21 -79.5q0 -38 11 -70t25 -64h180v-84h-150q4 -16 6 -33t2 -37q0 -30 -6 -63q28 -16 53.5 -27.5t51.5 -11.5q71 0 68 97h78q16 -58 10 -102.5t-26.5 -74.5t-53 -45.5t-69.5 -15.5z
M173 57q32 0 54 15.5t35 40.5q-22 19 -45.5 31t-51.5 12q-29 0 -45 -14t-16 -34q0 -24 20 -37.5t49 -13.5z" />
    <glyph glyph-name="yen.tab" horiz-adv-x="651" 
d="M405 120v-120h-160v120h-158v83h158v69h-158v83h124l-175 361h167l130 -302h7l133 302h143l-176 -361h123v-83h-158v-69h158v-83h-158z" />
    <glyph glyph-name="florin.tab" 
d="M254 -72q-40 -19 -91.5 -21t-106.5 3l18 106q35 0 58 1t40 15q17 12 27 39t18 79l24 153h-92v101h108l22 135q13 77 44 116t75 57q40 19 91.5 21t106.5 -3l-18 -106q-35 0 -58 -1t-40 -15q-17 -12 -26.5 -39t-17.5 -78l-14 -87h112v-101h-128l-33 -201
q-13 -77 -44 -116.5t-75 -57.5z" />
    <glyph glyph-name="percent.tab" 
d="M162 408q-62 0 -98.5 43t-36.5 119t36.5 119.5t98.5 43.5q61 0 97.5 -43.5t36.5 -119.5t-36.5 -119t-97.5 -43zM94 0l387 732h84l-387 -732h-84zM162 481q21 0 31.5 18.5t10.5 70.5t-10.5 71.5t-31.5 19.5q-22 0 -34 -19.5t-12 -71.5t12 -70.5t34 -18.5zM491 -14
q-61 0 -97.5 43t-36.5 119t36.5 119.5t97.5 43.5q62 0 98.5 -43.5t36.5 -119.5t-36.5 -119t-98.5 -43zM491 59q22 0 32.5 18.5t10.5 70.5t-10.5 71.5t-32.5 19.5q-21 0 -33 -19.5t-12 -71.5t12 -70.5t33 -18.5z" />
    <glyph glyph-name="perthousand.tab" horiz-adv-x="972" 
d="M810 -14q-62 0 -99 43t-37 119t37 119.5t99 43.5t99 -43.5t37 -119.5t-37 -119t-99 -43zM810 59q22 0 32 18.5t10 70.5t-10 71.5t-32 19.5q-21 0 -33 -19.5t-12 -71.5t12 -70.5t33 -18.5zM162 408q-62 0 -98.5 43t-36.5 119t36.5 119.5t98.5 43.5q61 0 97.5 -43.5
t36.5 -119.5t-36.5 -119t-97.5 -43zM94 0l387 732h84l-387 -732h-84zM162 481q21 0 31.5 18.5t10.5 70.5t-10.5 71.5t-31.5 19.5q-22 0 -34 -19.5t-12 -71.5t12 -70.5t34 -18.5zM491 -14q-61 0 -97.5 43t-36.5 119t36.5 119.5t97.5 43.5q62 0 98.5 -43.5t36.5 -119.5
t-36.5 -119t-98.5 -43zM491 59q22 0 32.5 18.5t10.5 70.5t-10.5 71.5t-32.5 19.5q-21 0 -33 -19.5t-12 -71.5t12 -70.5t33 -18.5z" />
    <glyph glyph-name="plus.tab" 
d="M266 266h-161v112h161v167h121v-167h160v-112h-160v-167h-121v167z" />
    <glyph glyph-name="minus.tab" 
d="M118 378h416v-112h-416v112z" />
    <glyph glyph-name="plusminus.tab" 
d="M111 111h430v-111h-430v111zM266 320h-161v112h161v167h121v-167h160v-112h-160v-167h-121v167z" />
    <glyph glyph-name="multiply.tab" 
d="M97 164l152 151l-146 144l79 80l145 -147l144 147l80 -80l-147 -144l152 -151l-80 -80l-149 152l-150 -152z" />
    <glyph glyph-name="divide.tab" 
d="M262 581h129v-129h-129v129zM102 378h448v-112h-448v112zM262 192h129v-129h-129v129z" />
    <glyph glyph-name="equal.tab" 
d="M116 473h420v-111h-420v111zM116 275h420v-111h-420v111z" />
    <glyph glyph-name="notequal.tab" 
d="M361 571h95l-169 -498h-95zM116 473h420v-111h-420v111zM116 275h420v-111h-420v111z" />
    <glyph glyph-name="approxequal.tab" 
d="M242 410q-22 0 -37 -15t-18 -39l-92 33q3 30 14 56t29 45.5t43.5 30.5t56.5 11q27 0 51.5 -8t46.5 -17t41 -17t36 -8q21 0 35.5 14.5t16.5 38.5l93 -37q-6 -60 -43.5 -99t-100.5 -39q-26 0 -49.5 8t-45 17t-40.5 17t-37 8zM242 187q-22 0 -37 -14.5t-18 -39.5l-92 33
q3 30 14 56t29 45.5t43.5 31t56.5 11.5q27 0 51.5 -8t46.5 -17.5t41 -17.5t36 -8q21 0 35.5 14.5t16.5 39.5l93 -38q-6 -60 -43.5 -99t-100.5 -39q-26 0 -49.5 8t-45 17t-40.5 17t-37 8z" />
    <glyph glyph-name="less.tab" 
d="M130 280v124l388 166v-123l-251 -99v-13l251 -100v-121z" />
    <glyph glyph-name="greater.tab" 
d="M510.004 280v124l-387.977 166v-123l250.984 -99v-13l-250.984 -100v-121z" />
    <glyph glyph-name="lessequal.tab" 
d="M132 111h388v-111h-388v111zM132 316v124l388 166v-123l-251 -99v-13l251 -100v-121z" />
    <glyph glyph-name="greaterequal.tab" 
d="M132 111h388v-111h-388v111zM120 144v121l251 100v13l-251 99v123l388 -166v-124z" />
    <glyph glyph-name="period.tab" horiz-adv-x="332" 
d="M84 196h165v-196h-165v196z" />
    <glyph glyph-name="comma.tab" horiz-adv-x="332" 
d="M83 -70l92 63v30h-92v173h166v-265l-166 -115v114z" />
    <glyph glyph-name="colon.tab" horiz-adv-x="332" 
d="M84 522h165v-196h-165v196zM84 196h165v-196h-165v196z" />
    <glyph glyph-name="semicolon.tab" horiz-adv-x="332" 
d="M84 522h165v-196h-165v196zM84 -70l92 63v30h-92v173h166v-265l-166 -115v114z" />
    <glyph glyph-name="parenleft.tab" horiz-adv-x="332" 
d="M272 -147q-51 35 -93 82.5t-72.5 107.5t-47.5 133t-17 158t17 157.5t47.5 132.5t72.5 107t93 81l53 -57q-37 -39 -62 -82t-40 -94t-21.5 -111.5t-6.5 -134.5t6.5 -134.5t21.5 -111t40 -93.5t62 -83z" />
    <glyph glyph-name="parenright.tab" horiz-adv-x="332" 
d="M7 -89q37 40 62 83t40 93.5t21.5 111t6.5 134.5t-6.5 134.5t-21.5 111.5t-40 94t-62 82l53 57q51 -34 93 -81t72.5 -107t47.5 -132.5t17 -157.5t-17 -158t-47.5 -133t-72.5 -107.5t-93 -82.5z" />
    <glyph glyph-name="bracketleft.tab" horiz-adv-x="332" 
d="M66 792h230v-92h-91v-735h91v-92h-230v919z" />
    <glyph glyph-name="bracketright.tab" horiz-adv-x="332" 
d="M266 -127h-230v92h91v735h-91v92h230v-919z" />
    <glyph glyph-name="braceleft.tab" horiz-adv-x="332" 
d="M256 -136q-49 0 -84 11.5t-57.5 32t-33 48.5t-10.5 61q0 32 9 59t20 52t20 48t9 46q0 26 -14 44t-43 21l-29 3v82l29 3q29 3 43 21t14 44q0 24 -9 47t-20 47.5t-20 52t-9 59.5q0 35 10.5 63.5t33 49t57.5 31.5t85 11h44v-86h-22q-29 0 -45.5 -20t-16.5 -68
q0 -22 4.5 -43.5t9.5 -43t9.5 -42.5t4.5 -43q0 -21 -5 -41.5t-17 -37t-32 -28.5t-49 -17q29 -5 49 -17t32 -28.5t17 -37t5 -41.5q0 -22 -4.5 -43t-9.5 -42t-9.5 -42.5t-4.5 -43.5q0 -48 16.5 -67t45.5 -19h22v-86h-45v0z" />
    <glyph glyph-name="braceright.tab" horiz-adv-x="332" 
d="M31 -136v86h22q29 0 45.5 19t16.5 67q0 22 -4.5 43.5t-9.5 42.5t-9.5 42t-4.5 43q0 21 5 41.5t17 37t32 28.5t49 17q-29 5 -49 17t-32 28.5t-17 37t-5 41.5q0 22 4.5 43t9.5 42.5t9.5 43t4.5 43.5q0 48 -16.5 68t-45.5 20h-22v86h44q49 0 84.5 -11t58 -31.5t33 -49
t10.5 -63.5q0 -32 -9 -59.5t-20 -52t-20 -47.5t-9 -47q0 -26 14 -44t43 -21l29 -3v-82l-29 -3q-29 -3 -43 -21t-14 -44q0 -23 9 -46t20 -48t20 -52t9 -59q0 -33 -10.5 -61t-33 -48.5t-57.5 -32t-84 -11.5h-45z" />
    <glyph glyph-name="dollar.oldtab" horiz-adv-x="612" 
d="M199 508q0 -30 18.5 -48t49.5 -32v151q-33 -6 -50.5 -25.5t-17.5 -45.5zM419 153q0 32 -21 52t-57 35v-162q32 5 55 23t23 52zM261 -125v111q-86 14 -139 73.5t-61 153.5l101 18q2 -60 29 -97t70 -50v186q-42 15 -76 33t-58.5 43t-38 56.5t-13.5 73.5q0 38 12.5 72
t37 60.5t60 43.5t82.5 22v105h80v-108q74 -12 120 -61.5t53 -135.5l-101 -21q-1 43 -20.5 73t-51.5 44v-170q43 -16 80.5 -34t65 -42t43.5 -55.5t16 -74.5q0 -42 -14 -79t-41 -65t-66 -45.5t-90 -21.5v-108h-80z" />
    <glyph glyph-name="Euro.oldtab" horiz-adv-x="612" 
d="M574 218q0 -57 -18 -100t-48.5 -72.5t-71.5 -44.5t-87 -15q-64 0 -108.5 18.5t-74 50.5t-46 76t-23.5 94h-58v77h52q-1 8 -1 16.5v16.5v31h-51v77h57q7 50 22.5 94t45 76.5t74.5 51t111 18.5q44 0 83.5 -11.5t70 -37.5t49 -67.5t20.5 -100.5l-128 -37q5 77 -19.5 119
t-75.5 42t-73.5 -39.5t-29.5 -107.5h121v-77h-125v-64h125v-77h-121q7 -67 29.5 -106.5t73.5 -39.5q26 0 46 13t32.5 36.5t17 55.5t1.5 71l128 -37v0z" />
    <glyph glyph-name="sterling.oldtab" horiz-adv-x="612" 
d="M459 -14q-47 0 -83 24t-70 54q-24 -34 -60.5 -54t-86.5 -20q-27 0 -52 6.5t-44.5 20.5t-31 35.5t-11.5 50.5q0 55 39.5 84.5t102.5 29.5q30 0 56.5 -6t49.5 -16q-3 22 -13.5 42t-24.5 40h-153v77h96q-18 27 -30.5 58.5t-12.5 69.5q0 46 17.5 83.5t48.5 63.5t74 40t94 14
q43 0 84 -13t71.5 -41.5t45 -75t5.5 -113.5l-122 -14q11 78 -13.5 120.5t-70.5 42.5q-43 0 -63.5 -30.5t-20.5 -75.5q0 -37 12.5 -67.5t26.5 -61.5h156v-77h-128q6 -24 6 -52q0 -38 -7 -69q26 -14 51 -24.5t51 -10.5q41 0 54.5 23.5t10.5 67.5h70q15 -54 10 -96t-23 -71
t-47.5 -44t-63.5 -15zM164 55q30 0 52.5 14.5t35.5 39.5q-22 17 -46 27.5t-51 10.5q-29 0 -44 -13t-15 -31q0 -23 20.5 -35.5t47.5 -12.5z" />
    <glyph glyph-name="yen.oldtab" horiz-adv-x="612" 
d="M380 110v-110h-148v110h-146v77h146v64h-146v77h113l-161 342h150l124 -286h6l126 286h130l-164 -342h115v-77h-145v-64h145v-77h-145z" />
    <glyph glyph-name="florin.oldtab" horiz-adv-x="612" 
d="M77 11q32 0 53.5 1t37.5 14q17 12 26 37.5t17 76.5l24 147h-86v100h101l16 106q11 74 40 111.5t70 54.5q37 18 84 20t96 -2l-14 -102q-32 0 -53.5 -1t-37.5 -13q-17 -12 -25.5 -38t-16.5 -76l-10 -60h104v-100h-119l-31 -193q-12 -75 -40.5 -112.5t-69.5 -54.5
q-38 -17 -85.5 -19t-96.5 2z" />
    <glyph glyph-name="zero.oldtab" horiz-adv-x="612" 
d="M305 -10q-61 0 -108.5 21.5t-80.5 59t-50 88t-17 107.5t17 107.5t50 87.5t80.5 58.5t108.5 21.5t109 -21.5t81 -58.5t50.5 -87.5t17.5 -107.5t-17.5 -107.5t-50.5 -88t-81 -59t-109 -21.5zM305 83q50 0 74 44.5t24 138.5t-24.5 138t-73.5 44q-48 0 -72 -44t-24 -138
t24 -138.5t72 -44.5z" />
    <glyph glyph-name="one.oldtab" horiz-adv-x="612" 
d="M87 -1v101h148v273h-140v84l48 3q40 3 67.5 17t42.5 55h132v-432h141v-101h-439z" />
    <glyph glyph-name="two.oldtab" horiz-adv-x="612" 
d="M69 79q80 38 137 69.5t94 63.5q41 35 58.5 69.5t17.5 74.5t-19.5 66.5t-64.5 26.5q-32 0 -53.5 -14.5t-32.5 -39.5t-12.5 -59.5t7.5 -73.5l-130 14q-12 68 0.5 118t44 83t79 49t105.5 16q55 0 99 -13t75 -37t47.5 -57.5t16.5 -74.5q0 -54 -27 -95t-73 -73
q-38 -26 -82.5 -45.5t-92.5 -39.5v-6h286v-101h-480v79z" />
    <glyph glyph-name="three.oldtab" horiz-adv-x="612" 
d="M302 -176q-48 0 -93 12t-79.5 39.5t-53.5 71t-15 106.5l136 32q-3 -34 1 -64.5t16.5 -53.5t34 -36.5t51.5 -13.5q44 0 71.5 26.5t27.5 85.5q0 54 -29.5 83t-97.5 29h-71v96h61q121 0 121 111q0 47 -22 74t-66 27q-52 0 -79.5 -38.5t-22.5 -107.5l-128 18q-2 57 16 99
t50.5 69t77.5 40t98 13q51 0 94.5 -11.5t75 -34.5t49 -56.5t17.5 -78.5q0 -74 -43.5 -112t-112.5 -51v-7q80 -10 126.5 -52.5t46.5 -118.5q0 -44 -18 -80t-51 -62t-81 -40t-108 -14z" />
    <glyph glyph-name="four.oldtab" horiz-adv-x="612" 
d="M335 26h-303v83l277 426h177v-411h99v-98h-99v-165h-151v165zM335 124v275h-2l-178 -273v-2h180z" />
    <glyph glyph-name="five.oldtab" horiz-adv-x="612" 
d="M295 -176q-55 0 -100 14.5t-77.5 42.5t-49.5 69.5t-16 94.5l137 34q-5 -76 23.5 -119t80.5 -43q26 0 46 11.5t33.5 32.5t20.5 49.5t7 62.5q-1 70 -28.5 106t-70.5 36q-40 0 -67.5 -26.5t-40.5 -62.5l-124 18l43 387h383v-101h-286l-19 -173q24 23 61 39t86 16t90 -16
t71 -46.5t46.5 -74.5t16.5 -100q0 -60 -21 -106.5t-57 -79t-84.5 -49t-103.5 -16.5z" />
    <glyph glyph-name="six.oldtab" horiz-adv-x="612" 
d="M312 -14q-63 0 -114 22t-86 67q-32 41 -49 100t-17 140q0 78 15.5 145t49 116.5t86 78t126.5 28.5q44 0 82 -10.5t67 -33.5t46 -58.5t19 -84.5l-126 -16q2 60 -24 85t-66 25q-36 0 -60 -18t-39 -48t-22 -69.5t-8 -81.5h3q23 35 62.5 57.5t95.5 22.5q46 0 85.5 -15
t68 -43.5t44.5 -69.5t16 -94q0 -57 -19.5 -102.5t-54 -77t-81 -48.5t-100.5 -17zM308 79q46 0 71.5 35.5t25.5 104.5q0 66 -23.5 102.5t-71.5 36.5q-43 0 -72 -35t-29 -104q0 -64 24 -100q12 -19 31 -29.5t44 -10.5z" />
    <glyph glyph-name="seven.oldtab" horiz-adv-x="612" 
d="M376 433h-307v98h458v-93l-254 -560h-159z" />
    <glyph glyph-name="eight.oldtab" horiz-adv-x="612" 
d="M306 -14q-65 0 -113.5 15t-80.5 41t-48 60.5t-16 72.5q0 63 41.5 104t105.5 58v6q-26 7 -49.5 21t-41.5 34.5t-28.5 46.5t-10.5 56q0 39 16.5 72t47 57.5t75.5 38.5t102 14t101.5 -14t75 -38.5t47 -57.5t16.5 -72q0 -30 -11 -56.5t-29 -46.5t-41 -34.5t-47 -20.5v-6
q65 -17 105 -58t40 -104q0 -38 -16 -72.5t-48 -60.5t-80.5 -41t-112.5 -15zM306 386q38 0 64 29t26 75t-24.5 73.5t-65.5 27.5q-42 0 -66.5 -27.5t-24.5 -73.5t26.5 -75t64.5 -29zM306 78q44 0 71 30.5t27 79.5q0 48 -27 77.5t-71 29.5t-71.5 -29.5t-27.5 -77.5
q0 -49 27 -79.5t72 -30.5z" />
    <glyph glyph-name="nine.oldtab" horiz-adv-x="612" 
d="M303 165q44 0 72.5 35.5t28.5 104.5q0 66 -26 106q-27 38 -72 38q-46 0 -72 -37t-26 -106q0 -66 24 -103.5t71 -37.5zM292 -176q-43 0 -80.5 10.5t-67 32t-48 55t-23.5 79.5l125 19q0 -29 8.5 -48.5t22 -31.5t30 -17.5t33.5 -5.5q36 0 59.5 20.5t38 54t21 75t6.5 83.5h-3
q-22 -36 -59.5 -57.5t-93.5 -21.5q-46 0 -85.5 15t-68 43.5t-45 70.5t-16.5 95q0 57 19.5 102.5t54 78t81.5 49.5t101 17q57 0 104 -19t82 -57q38 -41 59 -105.5t21 -156.5q0 -81 -15.5 -150.5t-48.5 -120.5t-85.5 -80t-126.5 -29z" />
    <glyph glyph-name="zero.num" horiz-adv-x="435" 
d="M217 315q-44 0 -76.5 16.5t-54.5 45t-33 65.5t-11 79t11 79.5t33 65.5t54.5 44.5t76.5 16.5q43 0 76 -16.5t55.5 -44.5t33.5 -65.5t11 -79.5t-11 -79t-33.5 -65.5t-55.5 -45t-76 -16.5zM217 383q35 0 50.5 34t15.5 104t-15.5 104.5t-50.5 34.5q-65 0 -65 -139
q0 -138 65 -138z" />
    <glyph glyph-name="one.num" horiz-adv-x="292" 
d="M115 325v281h-77v62l35 2q23 2 36.5 13t21.5 40h88v-398h-104z" />
    <glyph glyph-name="two.num" horiz-adv-x="400" 
d="M44 388q54 26 92.5 49.5t63 47t36 50t11.5 58.5q0 33 -14.5 50t-38.5 17q-37 0 -53 -38.5t6 -101.5l-98 10q-12 38 -8.5 73.5t22 63t52.5 44t83 16.5q73 0 116 -35.5t43 -98.5q0 -71 -49 -116.5t-130 -77.5v-8h184v-66h-318v63z" />
    <glyph glyph-name="three.num" horiz-adv-x="392" 
d="M194 315q-32 0 -62 8t-52.5 25t-35 43.5t-8.5 62.5l93 18q-2 -17 1 -32.5t10.5 -28.5t20.5 -20.5t30 -7.5q26 0 40 15t14 43q0 58 -68 58h-47v62h47q31 0 44 14t13 38q0 23 -14 35t-35 12q-29 0 -43 -20.5t-10 -51.5l-94 12q-1 33 11 57t33 39.5t50 23t61 7.5
q30 0 56.5 -7t47 -20t32.5 -32t12 -43q0 -43 -26 -63t-64 -26v-7q43 -5 73.5 -28.5t30.5 -69.5q0 -54 -42.5 -85t-118.5 -31z" />
    <glyph glyph-name="four.num" horiz-adv-x="401" 
d="M211 400h-187v59l171 263h120v-257h58v-65h-58v-75h-104v75zM211 630h-3l-103 -161v-4h106v165z" />
    <glyph glyph-name="five.num" horiz-adv-x="392" 
d="M196 315q-33 0 -61.5 10t-49 27.5t-31.5 41.5t-9 53l96 19q-5 -35 10 -58.5t44 -23.5q52 0 52 81q0 35 -13.5 54.5t-39.5 19.5q-23 0 -39 -13.5t-25 -32.5l-73 15l27 211h229v-67h-171l-11 -81q14 15 36 24.5t51 9.5q63 0 101 -38.5t38 -101.5q0 -35 -12 -62.5t-33.5 -47
t-51 -30t-64.5 -10.5z" />
    <glyph glyph-name="six.num" horiz-adv-x="406" 
d="M208 315q-36 0 -67 13t-54 39q-21 25 -33 61t-12 85q0 47 10.5 86.5t32 68t54 44t75.5 15.5q25 0 49 -5.5t43.5 -18t32.5 -33t16 -49.5l-92 -12q0 23 -13.5 37t-37.5 14q-20 0 -34.5 -9.5t-23.5 -26t-12.5 -37.5t-2.5 -44l-1 -2q14 21 40 35.5t61 14.5q27 0 50.5 -9
t41 -25.5t27.5 -40.5t10 -54q0 -34 -12.5 -61t-34 -46t-50.5 -29.5t-63 -10.5zM207 383q26 0 41 18.5t15 56.5q0 36 -14.5 54t-39.5 18q-23 0 -41 -17.5t-18 -54.5q0 -38 16.5 -56.5t40.5 -18.5z" />
    <glyph glyph-name="seven.num" horiz-adv-x="311" 
d="M37 325l152 324h-173v70h276v-55l-150 -339h-105z" />
    <glyph glyph-name="eight.num" horiz-adv-x="407" 
d="M204 315q-79 0 -122.5 33t-43.5 81q0 36 24 60t69 35v3q-80 23 -80 92q0 49 41.5 78.5t111.5 29.5t112 -29.5t42 -78.5q0 -35 -21 -58t-59 -34v-3q44 -11 68 -35t24 -60q0 -48 -43.5 -81t-122.5 -33zM204 559q25 0 39 15t14 36q0 23 -13.5 37t-39.5 14t-39 -14t-13 -37
q0 -21 13.5 -36t38.5 -15zM204 381q28 0 43 16t15 42t-15.5 40t-42.5 14q-26 0 -42.5 -14t-16.5 -40t16 -42t43 -16z" />
    <glyph glyph-name="nine.num" horiz-adv-x="406" 
d="M201 660q-26 0 -42 -19t-16 -56t15 -54.5t41 -17.5q24 0 40.5 17t16.5 54q0 38 -15.5 57t-39.5 19zM198 727q35 0 66 -12t54 -38q22 -25 34 -61t12 -87q0 -47 -10.5 -86.5t-32.5 -68t-54.5 -44t-75.5 -15.5q-23 0 -47 5.5t-43.5 18t-33 33t-16.5 49.5l92 13q1 -23 14 -37
t38 -14q20 0 34 10t23 26t12.5 37t2.5 44l1 2q-14 -22 -39.5 -36t-61.5 -14q-27 0 -50.5 9t-41 25.5t-27.5 40.5t-10 54q0 34 12.5 61t34 46t51 29t62.5 10z" />
    <glyph glyph-name="zero.den" horiz-adv-x="435" 
d="M217 -9q-44 0 -76.5 16.5t-54.5 45t-33 65.5t-11 79t11 79.5t33 65.5t54.5 44.5t76.5 16.5q43 0 76 -16.5t55.5 -44.5t33.5 -65.5t11 -79.5t-11 -79t-33.5 -65.5t-55.5 -45t-76 -16.5zM217 59q35 0 50.5 34t15.5 104t-15.5 104.5t-50.5 34.5q-65 0 -65 -139
q0 -138 65 -138z" />
    <glyph glyph-name="one.den" horiz-adv-x="292" 
d="M115 1v281h-77v62l35 2q23 2 36.5 13t21.5 40h88v-398h-104z" />
    <glyph glyph-name="two.den" horiz-adv-x="400" 
d="M44 64q54 26 92.5 49.5t63 47t36 50t11.5 58.5q0 33 -14.5 50t-38.5 17q-37 0 -53 -38.5t6 -101.5l-98 10q-12 38 -8.5 73.5t22 63t52.5 44t83 16.5q73 0 116 -35.5t43 -98.5q0 -71 -49 -116.5t-130 -77.5v-8h184v-66h-318v63z" />
    <glyph glyph-name="three.den" horiz-adv-x="392" 
d="M194 -9q-32 0 -62 8t-52.5 25t-35 43.5t-8.5 62.5l93 18q-2 -17 1 -32.5t10.5 -28.5t20.5 -20.5t30 -7.5q26 0 40 15t14 43q0 58 -68 58h-47v62h47q31 0 44 14t13 38q0 23 -14 35t-35 12q-29 0 -43 -20.5t-10 -51.5l-94 12q-1 33 11 57t33 39.5t50 23t61 7.5
q30 0 56.5 -7t47 -20t32.5 -32t12 -43q0 -43 -26 -63t-64 -26v-7q43 -5 73.5 -28.5t30.5 -69.5q0 -54 -42.5 -85t-118.5 -31z" />
    <glyph glyph-name="four.den" horiz-adv-x="401" 
d="M211 77h-187v59l171 263h120v-257h58v-65h-58v-75h-104v75zM211 307h-3l-103 -161v-4h106v165z" />
    <glyph glyph-name="five.den" horiz-adv-x="392" 
d="M196 -9q-33 0 -61.5 10t-49 27.5t-31.5 41.5t-9 53l96 19q-5 -35 10 -58.5t44 -23.5q52 0 52 81q0 35 -13.5 54.5t-39.5 19.5q-23 0 -39 -13.5t-25 -32.5l-73 15l27 211h229v-67h-171l-11 -81q14 15 36 24.5t51 9.5q63 0 101 -38.5t38 -101.5q0 -35 -12 -62.5t-33.5 -47
t-51 -30t-64.5 -10.5z" />
    <glyph glyph-name="six.den" horiz-adv-x="406" 
d="M208 -9q-36 0 -67 13t-54 39q-21 25 -33 61t-12 85q0 47 10.5 86.5t32 68t54 44t75.5 15.5q25 0 49 -5.5t43.5 -18t32.5 -33t16 -49.5l-92 -12q0 23 -13.5 37t-37.5 14q-20 0 -34.5 -9.5t-23.5 -26t-12.5 -37.5t-2.5 -44l-1 -2q14 21 40 35.5t61 14.5q27 0 50.5 -9
t41 -25.5t27.5 -40.5t10 -54q0 -34 -12.5 -61t-34 -46t-50.5 -29.5t-63 -10.5zM207 59q26 0 41 18.5t15 56.5q0 36 -14.5 54t-39.5 18q-23 0 -41 -17.5t-18 -54.5q0 -38 16.5 -56.5t40.5 -18.5z" />
    <glyph glyph-name="seven.den" horiz-adv-x="311" 
d="M37 1l152 324h-173v70h276v-55l-150 -339h-105z" />
    <glyph glyph-name="eight.den" horiz-adv-x="407" 
d="M204 -9q-79 0 -122.5 33t-43.5 81q0 36 24 60t69 35v3q-80 23 -80 92q0 49 41.5 78.5t111.5 29.5t112 -29.5t42 -78.5q0 -35 -21 -58t-59 -34v-3q44 -11 68 -35t24 -60q0 -48 -43.5 -81t-122.5 -33zM204 235q25 0 39 15t14 36q0 23 -13.5 37t-39.5 14t-39 -14t-13 -37
q0 -21 13.5 -36t38.5 -15zM204 57q28 0 43 16t15 42t-15.5 40t-42.5 14q-26 0 -42.5 -14t-16.5 -40t16 -42t43 -16z" />
    <glyph glyph-name="nine.den" horiz-adv-x="406" 
d="M201 336q-26 0 -42 -19t-16 -56t15 -54.5t41 -17.5q24 0 40.5 17t16.5 54q0 38 -15.5 57t-39.5 19zM198 403q35 0 66 -12t54 -38q22 -25 34 -61t12 -87q0 -47 -10.5 -86.5t-32.5 -68t-54.5 -44t-75.5 -15.5q-23 0 -47 5.5t-43.5 18t-33 33t-16.5 49.5l92 13q1 -23 14 -37
t38 -14q20 0 34 10t23 26t12.5 37t2.5 44l1 2q-14 -22 -39.5 -36t-61.5 -14q-27 0 -50.5 9t-41 25.5t-27.5 40.5t-10 54q0 34 12.5 61t34 46t51 29t62.5 10z" />
    <glyph glyph-name="zero.sub" horiz-adv-x="435" 
d="M217 -127q-44 0 -76.5 16.5t-54.5 45t-33 65.5t-11 79t11 79.5t33 65.5t54.5 44.5t76.5 16.5q43 0 76 -16.5t55.5 -44.5t33.5 -65.5t11 -79.5t-11 -79t-33.5 -65.5t-55.5 -45t-76 -16.5zM217 -59q35 0 50.5 34t15.5 104t-15.5 104.5t-50.5 34.5q-65 0 -65 -139
q0 -138 65 -138z" />
    <glyph glyph-name="one.sub" horiz-adv-x="292" 
d="M115 -117v281h-77v62l35 2q23 2 36.5 13t21.5 40h88v-398h-104z" />
    <glyph glyph-name="two.sub" horiz-adv-x="400" 
d="M44 -54q54 26 92.5 49.5t63 47t36 50t11.5 58.5q0 33 -14.5 50t-38.5 17q-37 0 -53 -38.5t6 -101.5l-98 10q-12 38 -8.5 73.5t22 63t52.5 44t83 16.5q73 0 116 -35.5t43 -98.5q0 -71 -49 -116.5t-130 -77.5v-8h184v-66h-318v63z" />
    <glyph glyph-name="three.sub" horiz-adv-x="392" 
d="M194 -127q-32 0 -62 8t-52.5 25t-35 43.5t-8.5 62.5l93 18q-2 -17 1 -32.5t10.5 -28.5t20.5 -20.5t30 -7.5q26 0 40 15t14 43q0 58 -68 58h-47v62h47q31 0 44 14t13 38q0 23 -14 35t-35 12q-29 0 -43 -20.5t-10 -51.5l-94 12q-1 33 11 57t33 39.5t50 23t61 7.5
q30 0 56.5 -7t47 -20t32.5 -32t12 -43q0 -43 -26 -63t-64 -26v-7q43 -5 73.5 -28.5t30.5 -69.5q0 -54 -42.5 -85t-118.5 -31z" />
    <glyph glyph-name="four.sub" horiz-adv-x="401" 
d="M211 -42h-187v59l171 263h120v-257h58v-65h-58v-75h-104v75zM211 188h-3l-103 -161v-4h106v165z" />
    <glyph glyph-name="five.sub" horiz-adv-x="392" 
d="M196 -127q-33 0 -61.5 10t-49 27.5t-31.5 41.5t-9 53l96 19q-5 -35 10 -58.5t44 -23.5q52 0 52 81q0 35 -13.5 54.5t-39.5 19.5q-23 0 -39 -13.5t-25 -32.5l-73 15l27 211h229v-67h-171l-11 -81q14 15 36 24.5t51 9.5q63 0 101 -38.5t38 -101.5q0 -35 -12 -62.5
t-33.5 -47t-51 -30t-64.5 -10.5z" />
    <glyph glyph-name="six.sub" horiz-adv-x="406" 
d="M208 -127q-36 0 -67 13t-54 39q-21 25 -33 61t-12 85q0 47 10.5 86.5t32 68t54 44t75.5 15.5q25 0 49 -5.5t43.5 -18t32.5 -33t16 -49.5l-92 -12q0 23 -13.5 37t-37.5 14q-20 0 -34.5 -9.5t-23.5 -26t-12.5 -37.5t-2.5 -44l-1 -2q14 21 40 35.5t61 14.5q27 0 50.5 -9
t41 -25.5t27.5 -40.5t10 -54q0 -34 -12.5 -61t-34 -46t-50.5 -29.5t-63 -10.5zM207 -59q26 0 41 18.5t15 56.5q0 36 -14.5 54t-39.5 18q-23 0 -41 -17.5t-18 -54.5q0 -38 16.5 -56.5t40.5 -18.5z" />
    <glyph glyph-name="seven.sub" horiz-adv-x="311" 
d="M37 -117l152 324h-173v70h276v-55l-150 -339h-105z" />
    <glyph glyph-name="eight.sub" horiz-adv-x="407" 
d="M204 -127q-79 0 -122.5 33t-43.5 81q0 36 24 60t69 35v3q-80 23 -80 92q0 49 41.5 78.5t111.5 29.5t112 -29.5t42 -78.5q0 -35 -21 -58t-59 -34v-3q44 -11 68 -35t24 -60q0 -48 -43.5 -81t-122.5 -33zM204 117q25 0 39 15t14 36q0 23 -13.5 37t-39.5 14t-39 -14t-13 -37
q0 -21 13.5 -36t38.5 -15zM204 -61q28 0 43 16t15 42t-15.5 40t-42.5 14q-26 0 -42.5 -14t-16.5 -40t16 -42t43 -16z" />
    <glyph glyph-name="nine.sub" horiz-adv-x="406" 
d="M201 218q-26 0 -42 -19t-16 -56t15 -54.5t41 -17.5q24 0 40.5 17t16.5 54q0 38 -15.5 57t-39.5 19zM198 285q35 0 66 -12t54 -38q22 -25 34 -61t12 -87q0 -47 -10.5 -86.5t-32.5 -68t-54.5 -44t-75.5 -15.5q-23 0 -47 5.5t-43.5 18t-33 33t-16.5 49.5l92 13q1 -23 14 -37
t38 -14q20 0 34 10t23 26t12.5 37t2.5 44l1 2q-14 -22 -39.5 -36t-61.5 -14q-27 0 -50.5 9t-41 25.5t-27.5 40.5t-10 54q0 34 12.5 61t34 46t51 29t62.5 10z" />
    <glyph glyph-name="plus.sub" horiz-adv-x="338" 
d="M133 20h-95v64h95v100h72v-100h95v-64h-95v-102h-72v102z" />
    <glyph glyph-name="minus.sub" horiz-adv-x="338" 
d="M38 20v64h262v-64h-262z" />
    <glyph glyph-name="zero.sup" horiz-adv-x="435" 
d="M217 381q-44 0 -76.5 16.5t-54.5 45t-33 65.5t-11 79t11 79.5t33 65.5t54.5 44.5t76.5 16.5q43 0 76 -16.5t55.5 -44.5t33.5 -65.5t11 -79.5t-11 -79t-33.5 -65.5t-55.5 -45t-76 -16.5zM217 449q35 0 50.5 34t15.5 104t-15.5 104.5t-50.5 34.5q-65 0 -65 -139
q0 -138 65 -138z" />
    <glyph glyph-name="one.sup" horiz-adv-x="292" 
d="M115 391v281h-77v62l35 2q23 2 36.5 13t21.5 40h88v-398h-104z" />
    <glyph glyph-name="two.sup" horiz-adv-x="401" 
d="M44 454q54 26 92.5 49.5t63 47t36 50t11.5 58.5q0 33 -14.5 50t-38.5 17q-37 0 -53 -38.5t6 -101.5l-98 10q-12 38 -8.5 73.5t22 63t52.5 44t83 16.5q73 0 116 -35.5t43 -98.5q0 -71 -49 -116.5t-130 -77.5v-8h184v-66h-318v63z" />
    <glyph glyph-name="three.sup" horiz-adv-x="392" 
d="M194 381q-32 0 -62 8t-52.5 25t-35 43.5t-8.5 62.5l93 18q-2 -17 1 -32.5t10.5 -28.5t20.5 -20.5t30 -7.5q26 0 40 15t14 43q0 58 -68 58h-47v62h47q31 0 44 14t13 38q0 23 -14 35t-35 12q-29 0 -43 -20.5t-10 -51.5l-94 12q-1 33 11 57t33 39.5t50 23t61 7.5
q30 0 56.5 -7t47 -20t32.5 -32t12 -43q0 -43 -26 -63t-64 -26v-7q43 -5 73.5 -28.5t30.5 -69.5q0 -54 -42.5 -85t-118.5 -31z" />
    <glyph glyph-name="four.sup" horiz-adv-x="401" 
d="M211 466h-187v59l171 263h120v-257h58v-65h-58v-75h-104v75zM211 696h-3l-103 -161v-4h106v165z" />
    <glyph glyph-name="five.sup" horiz-adv-x="392" 
d="M196 381q-33 0 -61.5 10t-49 27.5t-31.5 41.5t-9 53l96 19q-5 -35 10 -58.5t44 -23.5q52 0 52 81q0 35 -13.5 54.5t-39.5 19.5q-23 0 -39 -13.5t-25 -32.5l-73 15l27 211h229v-67h-171l-11 -81q14 15 36 24.5t51 9.5q63 0 101 -38.5t38 -101.5q0 -35 -12 -62.5t-33.5 -47
t-51 -30t-64.5 -10.5z" />
    <glyph glyph-name="six.sup" horiz-adv-x="406" 
d="M208 381q-36 0 -67 13t-54 39q-21 25 -33 61t-12 85q0 47 10.5 86.5t32 68t54 44t75.5 15.5q25 0 49 -5.5t43.5 -18t32.5 -33t16 -49.5l-92 -12q0 23 -13.5 37t-37.5 14q-20 0 -34.5 -9.5t-23.5 -26t-12.5 -37.5t-2.5 -44l-1 -2q14 21 40 35.5t61 14.5q27 0 50.5 -9
t41 -25.5t27.5 -40.5t10 -54q0 -34 -12.5 -61t-34 -46t-50.5 -29.5t-63 -10.5zM207 449q26 0 41 18.5t15 56.5q0 36 -14.5 54t-39.5 18q-23 0 -41 -17.5t-18 -54.5q0 -38 16.5 -56.5t40.5 -18.5z" />
    <glyph glyph-name="seven.sup" horiz-adv-x="311" 
d="M37 391l152 324h-173v70h276v-55l-150 -339h-105z" />
    <glyph glyph-name="eight.sup" horiz-adv-x="407" 
d="M204 381q-79 0 -122.5 33t-43.5 81q0 36 24 60t69 35v3q-80 23 -80 92q0 49 41.5 78.5t111.5 29.5t112 -29.5t42 -78.5q0 -35 -21 -58t-59 -34v-3q44 -11 68 -35t24 -60q0 -48 -43.5 -81t-122.5 -33zM204 625q25 0 39 15t14 36q0 23 -13.5 37t-39.5 14t-39 -14t-13 -37
q0 -21 13.5 -36t38.5 -15zM204 447q28 0 43 16t15 42t-15.5 40t-42.5 14q-26 0 -42.5 -14t-16.5 -40t16 -42t43 -16z" />
    <glyph glyph-name="nine.sup" horiz-adv-x="406" 
d="M201 726q-26 0 -42 -19t-16 -56t15 -54.5t41 -17.5q24 0 40.5 17t16.5 54q0 38 -15.5 57t-39.5 19zM198 793q35 0 66 -12t54 -38q22 -25 34 -61t12 -87q0 -47 -10.5 -86.5t-32.5 -68t-54.5 -44t-75.5 -15.5q-23 0 -47 5.5t-43.5 18t-33 33t-16.5 49.5l92 13q1 -23 14 -37
t38 -14q20 0 34 10t23 26t12.5 37t2.5 44l1 2q-14 -22 -39.5 -36t-61.5 -14q-27 0 -50.5 9t-41 25.5t-27.5 40.5t-10 54q0 34 12.5 61t34 46t51 29t62.5 10z" />
    <glyph glyph-name="plus.sup" horiz-adv-x="338" 
d="M133 532h-95v64h95v100h72v-100h95v-64h-95v-102h-72v102z" />
    <glyph glyph-name="minus.sup" horiz-adv-x="338" 
d="M38 532v64h262v-64h-262z" />
    <glyph glyph-name="registered.alt" horiz-adv-x="839" 
d="M420 -17q-75 0 -141.5 24.5t-117 71.5t-80 117t-29.5 162q0 91 29.5 161.5t80 117.5t117 71.5t141.5 24.5q74 0 141 -24.5t117 -71.5t79.5 -117.5t29.5 -161.5q0 -92 -29.5 -162t-80 -117t-117 -71.5t-140.5 -24.5zM420 46q63 0 117 20t93.5 59.5t62 97.5t22.5 135
q0 76 -22.5 134.5t-62 98t-93.5 59.5t-117 20t-117 -20t-93.5 -59.5t-62.5 -98t-23 -134.5q0 -77 22.5 -135t62 -97.5t94 -59.5t117.5 -20zM428 380q27 0 39.5 13.5t12.5 37.5q0 48 -52 48h-58v-99h58zM501 339q22 -7 35 -28.5t24 -49.5q6 -17 10.5 -28.5t8.5 -19.5t7.5 -13
t7.5 -10v-16h-114q-5 11 -11 37t-14 55q-8 28 -16.5 38t-32.5 10h-36v-140h-104v373h173q78 0 113.5 -30.5t35.5 -78.5q0 -38 -24.5 -61.5t-62.5 -31.5v-6z" />
    <glyph glyph-name="caron.alt" horiz-adv-x="412" 
d="M270 782l-47 -172h-81l20 172h108z" />
    <glyph glyph-name="questiondown.uc" horiz-adv-x="538" 
d="M377.009 299.025h-88.9941q-52.9971 0 -79.9951 -29.498t-26.998 -81.4951q0 -48.9971 22.498 -76.9951q22.499 -27.998 67.4961 -27.998q48.9971 0 72.9951 32.498q23.999 32.498 18.999 81.4941l147.991 -33.9971q-3 -35.998 -18.999 -68.4961t-45.9971 -56.9971
q-29.998 -24.498 -73.4951 -38.9971q-43.498 -14.499 -102.494 -14.499q-59.9961 0 -106.493 15.999t-78.4951 43.4971t-48.4971 64.4961t-16.499 79.9951q0 45.9971 15.999 81.9951t43.9971 61.4961t65.9961 40.9971q37.9971 15.499 81.9951 19.499l5.99902 85.9951
h135.992zM385.009 716v-177.989h-165.99v177.989h165.99z" />
    <glyph glyph-name="exclamdown.uc" horiz-adv-x="313" 
d="M226.005 169.033v-168.989h-162.99v168.989l29.998 308.981h103.993zM228.005 538.011h-165.99v177.989h165.99v-177.989z" />
    <glyph glyph-name="hyphen.uc" horiz-adv-x="331" 
d="M48 397h236v-109h-236v109z" />
    <glyph glyph-name="endash.uc" horiz-adv-x="585" 
d="M50 397h486v-109h-486v109z" />
    <glyph glyph-name="emdash.uc" horiz-adv-x="795" 
d="M50 397h696v-109h-696v109z" />
    <glyph glyph-name="guilsinglleft.uc" horiz-adv-x="306" 
d="M31 333l135 198h119l-115 -198l115 -197h-119z" />
    <glyph glyph-name="guilsinglright.uc" horiz-adv-x="306" 
d="M263.002 333l-134.992 198h-118.992l114.993 -198l-114.993 -197h118.992z" />
    <glyph glyph-name="guillemotleft.uc" horiz-adv-x="525" 
d="M250 333l135 198h119l-115 -198l115 -197h-119zM31 333l135 198h119l-115 -198l115 -197h-119z" />
    <glyph glyph-name="guillemotright.uc" horiz-adv-x="525" 
d="M482.002 333l-134.992 198h-118.992l114.993 -198l-114.993 -197h118.992zM263.002 333l-134.992 198h-118.992l114.993 -198l-114.993 -197h118.992z" />
    <glyph glyph-name="parenleft.uc" horiz-adv-x="353" 
d="M278 -68q-42 28 -83 69t-73 94.5t-51.5 119t-19.5 141.5t19.5 141t51.5 118.5t73 94.5t83 68l51 -52q-27 -32 -50 -68t-40.5 -81t-27 -99.5t-9.5 -122.5t9.5 -122.5t27 -99t40.5 -81.5t50 -69z" />
    <glyph glyph-name="parenright.uc" horiz-adv-x="353" 
d="M63.0166 -68q41.998 28 82.9951 69q40.998 41 72.9961 94.5t51.4961 119q19.499 65.5 19.499 141.5t-19.499 141q-19.498 65 -51.4961 118.5t-72.9961 94.5q-40.9971 41 -82.9951 68l-50.9961 -52q26.998 -32 49.9961 -68q22.999 -36 40.498 -81t26.998 -99.5
q9.5 -54.5 9.5 -122.5t-9.5 -122.5q-9.49902 -54.5 -26.998 -99t-40.498 -81.5q-22.998 -37 -49.9961 -69z" />
    <glyph glyph-name="bracketleft.uc" horiz-adv-x="352" 
d="M75 768h236v-92h-97v-642h97v-92h-236v826z" />
    <glyph glyph-name="bracketright.uc" horiz-adv-x="352" 
d="M265.005 768h-235.986v-92h96.9941v-642h-96.9941v-92h235.986v826z" />
    <glyph glyph-name="braceleft.uc" horiz-adv-x="361" 
d="M261 -61q-48 0 -82.5 10.5t-56.5 28.5t-32.5 43t-10.5 54q0 28 9 53t20.5 47.5t20.5 43t9 40.5q0 47 -60 54l-29 2v75l29 3q60 9 60 54q0 20 -9 41t-20.5 44t-20.5 48t-9 54q0 62 43 99.5t140 37.5h58v-85h-21q-14 0 -27 -2.5t-23.5 -10t-17 -21t-6.5 -35.5
q0 -19 4.5 -37.5t9.5 -37t9.5 -37t4.5 -37.5q0 -21 -6 -40t-19 -34.5t-33.5 -26t-50.5 -14.5q30 -4 50.5 -14.5t33.5 -26t19 -34.5t6 -40q0 -19 -4.5 -37.5t-9.5 -36.5t-9.5 -36t-4.5 -37q0 -21 6.5 -34.5t17 -20.5t23.5 -9.5t27 -2.5h21v-85h-59v0z" />
    <glyph glyph-name="braceright.uc" horiz-adv-x="361" 
d="M88.0156 -61q47.9971 0 82.4951 10.5t56.4971 28.5q21.998 18 32.498 43q10.499 25 10.499 54q0 28 -8.99902 53q-9 25 -20.499 47.5t-20.499 43q-8.99902 20.5 -8.99902 40.5q0 47 59.9961 54l28.998 2v75l-28.998 3q-59.9961 9 -59.9961 54q0 20 8.99902 41
q9 21 20.499 44t20.499 48q8.99902 25 8.99902 54q0 62 -42.9971 99.5q-42.998 37.5 -139.992 37.5h-57.9961v-85h20.999q13.999 0 26.998 -2.5t23.499 -10q10.499 -7.5 16.998 -21q6.5 -13.5 6.5 -35.5q0 -19 -4.5 -37.5q-4.49902 -18.5 -9.49902 -37t-9.49902 -37
q-4.5 -18.5 -4.5 -37.5q0 -21 5.99902 -40q6 -19 18.999 -34.5t33.498 -26t50.4971 -14.5q-29.998 -4 -50.4971 -14.5t-33.498 -26t-18.999 -34.5q-5.99902 -19 -5.99902 -40q0 -19 4.5 -37.5q4.49902 -18.5 9.49902 -36.5t9.49902 -36q4.5 -18 4.5 -37q0 -21 -6.5 -34.5
q-6.49902 -13.5 -16.998 -20.5q-10.5 -7 -23.499 -9.5t-26.998 -2.5h-20.999v-85h58.9961v0z" />
    <glyph glyph-name="slash.uc" horiz-adv-x="419" 
d="M262 768h121l-229 -826h-121z" />
    <glyph glyph-name="backslash.uc" horiz-adv-x="417" 
d="M35 768h121l228 -826h-121z" />
    <glyph glyph-name="bar.uc" horiz-adv-x="275" 
d="M80 -58v826h115v-826h-115z" />
    <glyph glyph-name="at.uc" horiz-adv-x="829" 
d="M411 -17q-83 0 -150.5 26t-115.5 73t-74 112t-26 144q0 81 28.5 152.5t81 125.5t127 85.5t165.5 31.5q75 0 137 -22.5t106.5 -63t69 -97t24.5 -124.5q0 -62 -19 -110.5t-48.5 -82.5t-66 -51.5t-71.5 -17.5q-44 0 -76 23.5t-39 68.5q-14 -36 -43 -63.5t-76 -27.5
q-29 0 -52.5 11.5t-40 32.5t-25.5 50t-9 64q0 41 12.5 83t35.5 76t57 55.5t78 21.5q24 0 41.5 -7.5t29 -19.5t17.5 -28t8 -34l36 79h83l-45 -231q-8 -38 0 -59t31 -21q18 0 36.5 14t34 39t25 59.5t9.5 76.5q0 53 -18 97t-52 75.5t-81.5 48.5t-106.5 17q-74 0 -134 -27
t-102 -72t-65 -104.5t-23 -124.5q0 -68 23 -121t62 -89.5t91.5 -55.5t111.5 -19q64 0 120 16.5t100 42.5l27 -61q-48 -30 -112 -48.5t-137 -18.5zM383 239q22 0 39 17.5t29 43.5t18 56.5t6 56.5q0 74 -44 74q-23 0 -40 -17.5t-29 -43.5t-18 -56.5t-6 -55.5q0 -41 12.5 -58
t32.5 -17z" />
    <glyph glyph-name="grave.uc" horiz-adv-x="412" 
d="M197 773l-107 136h161l65 -136h-119z" />
    <glyph glyph-name="dieresis.uc" horiz-adv-x="412" 
d="M35 914h132v-127h-132v127zM245 914h132v-127h-132v127z" />
    <glyph glyph-name="macron.uc" horiz-adv-x="412" 
d="M44 897h324v-105h-324v105z" />
    <glyph glyph-name="acute.uc" horiz-adv-x="412" 
d="M93 773l66 136h160l-107 -136h-119z" />
    <glyph glyph-name="circumflex.uc" horiz-adv-x="412" 
d="M204 836l-59 -63h-120l119 132h124l119 -132h-125z" />
    <glyph glyph-name="caron.uc" horiz-adv-x="434" 
d="M168 773l-119 132h125l58 -63l59 63h120l-119 -132h-124z" />
    <glyph glyph-name="breve.uc" horiz-adv-x="412" 
d="M206 770q-64 0 -106.5 31t-58.5 90l60 34q13 -23 36.5 -36.5t68.5 -13.5t68 13.5t37 36.5l60 -34q-16 -59 -59 -90t-106 -31z" />
    <glyph glyph-name="dotaccent.uc" horiz-adv-x="412" 
d="M129 920h154v-134h-154v134z" />
    <glyph glyph-name="ring.uc" horiz-adv-x="413" 
d="M321 860q0 -47 -31.5 -76t-82.5 -29q-52 0 -83.5 29t-31.5 76t31.5 77t83.5 30q51 0 82.5 -30t31.5 -77zM162 861q0 -23 13 -35t32 -12t31.5 12t12.5 35t-12.5 34.5t-31.5 11.5t-32 -11.5t-13 -34.5z" />
    <glyph glyph-name="tilde.uc" horiz-adv-x="413" 
d="M31 783q-2 27 3 51.5t17.5 43.5t32.5 30t47 11q23 0 44 -6.5t40 -15t35.5 -15t30.5 -6.5q20 0 29 14t11 34l61 -12q2 -27 -3 -52t-17 -44t-32 -30t-48 -11q-23 0 -44 7t-40 15t-35.5 15t-30.5 7q-20 0 -29 -13.5t-11 -33.5z" />
    <glyph glyph-name="hungarumlaut.uc" horiz-adv-x="412" 
d="M23 773l52 136h134l-86 -136h-100zM203 773l52 136h135l-87 -136h-100z" />
    <glyph glyph-name="cent.oldtab" horiz-adv-x="612" 
d="M213 261q0 -74 17 -117.5t58 -57.5v350q-75 -28 -75 -175zM548 157q-15 -66 -56.5 -111.5t-119.5 -57.5v-107h-84v106q-104 11 -164.5 81.5t-60.5 192.5q0 60 16.5 108t46 83t71 56t91.5 27v96h84v-97q39 -5 68 -19.5t50 -35.5t34.5 -48.5t21.5 -58.5l-104 -41
q-6 37 -23 64.5t-47 39.5v-349q32 14 49 44.5t23 68.5z" />
    <glyph glyph-name="f.short" horiz-adv-x="372" 
d="M103 431h-76v100h76v72q0 43 10.5 73t27.5 49.5t39 30.5t45 16q49 10 133 10v-110q-26 -1 -41.5 -2t-26.5 -6q-20 -8 -26.5 -27t-6.5 -52v-54h101v-100h-101v-431h-154v431z" />
    <glyph glyph-name="f_f.short" horiz-adv-x="694" 
d="M425 431h-168v-431h-154v431h-76v100h76v62q0 43 10.5 73t28 49.5t39.5 30.5t45 16q15 3 28.5 5t30 3t37.5 1.5t50 0.5v-110q-33 0 -50.5 -1.5t-31.5 -6.5q-20 -7 -26.5 -26.5t-6.5 -52.5v-44h168v72q0 43 10.5 73t27.5 49.5t39 30.5t45 16q49 10 133 10v-110
q-26 -1 -41.5 -2t-26.5 -6q-20 -8 -26.5 -27t-6.5 -52v-54h101v-100h-101v-431h-154v431z" />
    <glyph glyph-name="idotaccent" horiz-adv-x="280" 
d="M63 734h154v-136h-154v136zM63 531h154v-531h-154v531z" />
    </font>
</defs>
</svg>
